<?xml version="1.0" encoding="iso-8859-1"?>
<!-- Generator: Adobe Illustrator 19.0.0, SVG Export Plug-In . SVG Version: 6.00 Build 0)  -->
<svg xmlns="http://www.w3.org/2000/svg" xmlns:xlink="http://www.w3.org/1999/xlink" version="1.1" id="Capa_1" x="0px" y="0px" viewBox="0 0 512 512" style="enable-background:new 0 0 512 512;" xml:space="preserve">
<g>
	<g>
		<path d="M493.807,115.709h-35.499c-4.032,0-7.3,3.268-7.3,7.3c0,4.032,3.268,7.3,7.3,7.3h35.499c1.982,0,3.594,1.61,3.594,3.59    v76.577H384.122v-19.329c0-2.976-1.769-5.652-4.506-6.819c-2.737-1.17-5.892-0.588-8.041,1.473l-220.57,211.947H63.87v-37.616    c0-4.032-3.268-7.3-7.3-7.3s-7.3,3.268-7.3,7.3v38.853c0,7.368,5.995,13.362,13.363,13.362h88.869c3.47,0,6.759-1.324,9.259-3.728    l208.761-200.6v2.582c0,7.98,6.493,14.472,14.474,14.472h113.53c7.981,0,14.474-6.492,14.474-14.472v-76.704    C512,123.869,503.838,115.709,493.807,115.709z"/>
	</g>
</g>
<g>
	<g>
		<path d="M423.552,115.707h-43.501c-3.527,0-6.955,1.015-9.948,2.96l-208.956,137.54v-50.362c0-15.938-12.97-28.905-28.911-28.905    h-1.808v-16.863h0.736c5.718,0,10.432-4.371,10.982-9.947l41.003,4.449c0.899,0.098,1.811,0.147,2.71,0.147    c13.692,0,24.831-11.154,24.831-24.862c0-13.709-11.139-24.861-24.831-24.861c-0.899,0-1.811,0.049-2.71,0.147l-41.003,4.449    c-0.549-5.576-5.264-9.947-10.982-9.947H79.525c-5.718,0-10.433,4.371-10.982,9.947L27.54,105.15    c-0.899-0.098-1.811-0.147-2.71-0.147C11.139,105.003,0,116.157,0,129.865s11.139,24.861,24.83,24.861    c0.899,0,1.811-0.049,2.71-0.147l41.003-4.449c0.55,5.575,5.265,9.947,10.982,9.947h0.736v16.863h-2.079    c-15.942,0-28.912,12.966-28.912,28.905v119.481c0,4.032,3.268,7.3,7.3,7.3s7.3-3.268,7.3-7.3V205.844    c0-7.888,6.42-14.305,14.313-14.305h54.053c7.892,0,14.312,6.418,14.312,14.305v63.905c0,2.684,1.473,5.152,3.836,6.426    c2.364,1.273,5.235,1.148,7.477-0.329l220.232-144.96c0.583-0.378,1.26-0.579,1.958-0.579h43.501c4.032,0,7.3-3.268,7.3-7.3    C430.852,118.975,427.584,115.707,423.552,115.707z M184.723,119.663c0.378-0.041,0.76-0.062,1.136-0.062    c5.642,0,10.232,4.604,10.232,10.263c0,5.658-4.59,10.262-10.232,10.262c-0.375,0-0.758-0.021-1.135-0.062l-42.522-4.615v-11.171    h-0.001L184.723,119.663z M25.966,140.066c-0.378,0.041-0.76,0.062-1.136,0.062c-5.641,0-10.231-4.604-10.231-10.263    c0-5.658,4.59-10.262,10.231-10.262c0.375,0,0.758,0.021,1.135,0.062l42.522,4.615v11.171h0.001L25.966,140.066z M115.829,176.819    L115.829,176.819H94.861v-16.742h20.968V176.819z M127.602,117.728v24.274v3.476h-4.474H87.561h-4.474v-3.476v-24.274v-3.476    h44.515V117.728z"/>
	</g>
</g>
<g>
	<g>
		<path d="M471.491,288.976c-5.878-10.18-11.959-20.706-15.577-29.491c-1.777-4.309-5.936-7.094-10.596-7.094    c-4.66,0-8.819,2.785-10.595,7.096c-3.619,8.784-9.699,19.311-15.578,29.49c-10.425,18.048-20.271,35.096-20.271,47.759    c0,25.608,20.834,46.443,46.444,46.443s46.444-20.834,46.444-46.443C491.762,324.073,481.916,307.025,471.491,288.976z     M445.318,368.579c-17.559,0-31.844-14.285-31.844-31.843c0-8.749,9.729-25.595,18.314-40.457    c4.789-8.293,9.707-16.808,13.531-24.761c3.824,7.953,8.741,16.467,13.531,24.76c8.585,14.863,18.314,31.708,18.314,40.458    C477.163,354.295,462.877,368.579,445.318,368.579z"/>
	</g>
</g>
<g>
</g>
<g>
</g>
<g>
</g>
<g>
</g>
<g>
</g>
<g>
</g>
<g>
</g>
<g>
</g>
<g>
</g>
<g>
</g>
<g>
</g>
<g>
</g>
<g>
</g>
<g>
</g>
<g>
</g>
</svg>
