<?xml version="1.0" encoding="iso-8859-1"?>
<!-- Generator: Adobe Illustrator 19.0.0, SVG Export Plug-In . SVG Version: 6.00 Build 0)  -->
<svg xmlns="http://www.w3.org/2000/svg" xmlns:xlink="http://www.w3.org/1999/xlink" version="1.1" id="Capa_1" x="0px" y="0px" viewBox="0 0 511.999 511.999" style="enable-background:new 0 0 511.999 511.999;" xml:space="preserve">
<g>
	<g>
		<path d="M382.446,0H129.552c-21.948,0-39.804,17.856-39.804,39.804v432.39c0,21.949,17.856,39.805,39.804,39.805h252.894    c21.949,0,39.805-17.856,39.805-39.805V39.804C422.251,17.856,404.394,0,382.446,0z M382.446,496.939H129.552    c-13.643,0-24.743-11.1-24.743-24.744V39.804c0-13.644,11.1-24.743,24.743-24.743h252.894c13.644,0,24.744,11.1,24.744,24.743    v432.391h0C407.19,485.839,396.09,496.939,382.446,496.939z"/>
	</g>
</g>
<g>
	<g>
		<path d="M177.132,295.599h-30.024c-13.2,0-23.938,10.739-23.938,23.938v20.249c0,13.2,10.739,23.938,23.938,23.938h30.024    c13.2,0,23.938-10.739,23.938-23.938v-20.249C201.07,306.338,190.332,295.599,177.132,295.599z M186.01,339.786    c0,4.895-3.982,8.878-8.878,8.878h-30.024c-4.895,0-8.878-3.983-8.878-8.878v-20.249c0-4.895,3.982-8.878,8.878-8.878h30.024    c4.895,0,8.878,3.983,8.878,8.878V339.786z"/>
	</g>
</g>
<g>
	<g>
		<path d="M271.011,295.599h-30.024c-13.2,0-23.939,10.739-23.939,23.938v20.249c0,13.2,10.739,23.938,23.939,23.938h30.024    c13.2,0,23.939-10.739,23.939-23.938v-20.249C294.95,306.338,284.21,295.599,271.011,295.599z M279.889,339.786    c0,4.895-3.983,8.878-8.878,8.878h-30.024c-4.895,0-8.878-3.983-8.878-8.878v-20.249c0-4.895,3.983-8.878,8.878-8.878h30.024    c4.895,0,8.878,3.983,8.878,8.878V339.786z"/>
	</g>
</g>
<g>
	<g>
		<path d="M364.89,295.599h-30.024c-13.2,0-23.939,10.739-23.939,23.938v20.249c0,13.2,10.739,23.938,23.939,23.938h30.024    c13.2,0,23.938-10.739,23.938-23.938v-20.249C388.828,306.338,378.089,295.599,364.89,295.599z M373.767,339.786    c0,4.895-3.982,8.878-8.878,8.878h-30.024c-4.895,0-8.878-3.983-8.878-8.878v-20.249c0-4.895,3.983-8.878,8.878-8.878h30.024    c4.895,0,8.878,3.983,8.878,8.878V339.786z"/>
	</g>
</g>
<g>
	<g>
		<path d="M341.217,136.344L261.767,67.2c-1.6-1.391-3.648-2.157-5.767-2.157c-2.12,0-4.168,0.766-5.77,2.159l-79.449,69.143    c-2.8,2.44-3.768,6.263-2.467,9.74c1.301,3.477,4.541,5.723,8.255,5.723h10.802v70.903c0,6.14,4.995,11.135,11.134,11.135h31.212    h50.872h32.904c6.139,0,11.134-4.995,11.134-11.135v-70.903h10.802c3.713,0,6.953-2.246,8.256-5.724    C344.987,142.607,344.019,138.784,341.217,136.344z M273.058,218.786h-35.811v-54.07h35.811V218.786z M317.096,136.747    c-4.159,0-7.53,3.371-7.53,7.53v74.508h-21.447v-61.6c0-4.159-3.372-7.53-7.53-7.53h-50.872c-4.159,0-7.53,3.371-7.53,7.53v61.6    h-19.755v-74.508c0-4.159-3.372-7.53-7.53-7.53h-1.642l62.738-54.602l62.74,54.602H317.096z"/>
	</g>
</g>
<g>
	<g>
		<path d="M177.132,385.425h-30.024c-13.2,0-23.938,10.74-23.938,23.939v20.248c0,13.2,10.739,23.939,23.938,23.939h30.024    c13.2,0,23.938-10.74,23.938-23.939v-20.248C201.07,396.165,190.332,385.425,177.132,385.425z M186.01,429.613    c0,4.896-3.982,8.879-8.878,8.879h-30.024c-4.895,0-8.878-3.983-8.878-8.879v-20.248c0-4.896,3.982-8.879,8.878-8.879h30.024    c4.895,0,8.878,3.983,8.878,8.879V429.613z"/>
	</g>
</g>
<g>
	<g>
		<path d="M271.011,385.425h-30.024c-13.2,0-23.939,10.74-23.939,23.939v20.248c0,13.2,10.739,23.939,23.939,23.939h30.024    c13.2,0,23.939-10.74,23.939-23.939v-20.248C294.95,396.165,284.21,385.425,271.011,385.425z M279.889,429.613    c0,4.896-3.983,8.879-8.878,8.879h-30.024c-4.895,0-8.878-3.983-8.878-8.879v-20.248c0-4.896,3.983-8.879,8.878-8.879h30.024    c4.895,0,8.878,3.983,8.878,8.879V429.613z"/>
	</g>
</g>
<g>
	<g>
		<path d="M364.89,385.425h-30.024c-13.2,0-23.939,10.74-23.939,23.939v20.248c0,13.2,10.739,23.939,23.939,23.939h30.024    c13.2,0,23.938-10.74,23.938-23.939v-20.248C388.828,396.165,378.089,385.425,364.89,385.425z M373.767,429.613    c0,4.896-3.982,8.879-8.878,8.879h-30.024c-4.895,0-8.878-3.983-8.878-8.879v-20.248c0-4.896,3.983-8.879,8.878-8.879h30.024    c4.895,0,8.878,3.983,8.878,8.879V429.613z"/>
	</g>
</g>
<g>
	<g>
		<path d="M365.168,32.726H146.829c-10.898,0-19.763,8.866-19.763,19.762v191.16c0.001,10.897,8.866,19.763,19.763,19.763h218.339    c10.898,0,19.763-8.866,19.763-19.763V52.488C384.931,41.591,376.066,32.726,365.168,32.726z M369.87,243.648    c0,2.593-2.11,4.703-4.702,4.703H146.829c-2.592,0-4.702-2.109-4.702-4.703V52.488c0-2.592,2.11-4.702,4.702-4.702h218.339    c2.592,0,4.702,2.109,4.702,4.702V243.648z"/>
	</g>
</g>
<g>
</g>
<g>
</g>
<g>
</g>
<g>
</g>
<g>
</g>
<g>
</g>
<g>
</g>
<g>
</g>
<g>
</g>
<g>
</g>
<g>
</g>
<g>
</g>
<g>
</g>
<g>
</g>
<g>
</g>
</svg>
