<?xml version="1.0" encoding="iso-8859-1"?>
<!-- Generator: Adobe Illustrator 19.0.0, SVG Export Plug-In . SVG Version: 6.00 Build 0)  -->
<svg xmlns="http://www.w3.org/2000/svg" xmlns:xlink="http://www.w3.org/1999/xlink" version="1.1" id="Capa_1" x="0px" y="0px" viewBox="0 0 512 512" style="enable-background:new 0 0 512 512;" xml:space="preserve">
<g>
	<g>
		<path d="M473.082,332.263H95.211c-4.024,0-7.287,3.262-7.287,7.287c0,4.025,3.262,7.287,7.287,7.287h377.871    c13.424,0,24.345,10.921,24.345,24.345v75.723c0,13.424-10.921,24.345-24.345,24.345H34.083c-10.758,0-19.509-8.751-19.509-19.509    v-85.394c0-10.758,8.752-19.51,19.509-19.51h26.136c4.024,0,7.287-3.262,7.287-7.287c0-4.025-3.262-7.287-7.287-7.287H34.083    C15.289,332.263,0,347.552,0,366.346v85.394c0,18.793,15.289,34.083,34.083,34.083h438.999c21.459,0,38.918-17.458,38.918-38.918    v-75.723C512,349.721,494.541,332.263,473.082,332.263z"/>
	</g>
</g>
<g>
	<g>
		<path d="M96.032,369.737c-21.674,0-39.307,17.633-39.307,39.306c0,21.674,17.633,39.307,39.307,39.307    c21.674,0,39.307-17.633,39.307-39.307S117.706,369.737,96.032,369.737z M96.032,433.776c-13.639,0-24.734-11.096-24.734-24.734    c0-13.637,11.096-24.733,24.734-24.733c13.639,0,24.734,11.096,24.734,24.733C120.766,422.681,109.671,433.776,96.032,433.776z"/>
	</g>
</g>
<g>
	<g>
		<path d="M435.926,379.438H202.167c-10.669,0-19.35,8.68-19.35,19.349v20.512c0,10.67,8.68,19.35,19.35,19.35h233.759    c10.669,0,19.349-8.68,19.349-19.35v-20.512C455.275,388.118,446.595,379.438,435.926,379.438z M440.703,419.299    c0,2.634-2.142,4.777-4.776,4.777h-233.76c-2.633,0-4.776-2.143-4.776-4.777v-20.512c0-2.634,2.143-4.776,4.777-4.776h233.759    c2.634,0,4.776,2.142,4.776,4.776V419.299z"/>
	</g>
</g>
<g>
	<g>
		<path d="M399.194,177.31c-38.249-38.248-89.103-59.312-143.195-59.312c-54.092,0-104.946,21.065-143.195,59.313    c-11.872,11.873-11.872,31.193,0,43.066c5.751,5.751,13.398,8.918,21.533,8.918c8.134,0,15.781-3.167,21.533-8.918    c26.745-26.746,62.305-41.475,100.129-41.475c37.824,0,73.385,14.73,100.13,41.475c5.751,5.751,13.399,8.918,21.533,8.918    c8.133,0,15.78-3.167,21.533-8.919C411.067,208.503,411.067,189.183,399.194,177.31z M388.891,210.071    c-3,2.999-6.988,4.651-11.229,4.651c-4.242,0-8.23-1.652-11.228-4.651c-29.498-29.497-68.718-45.743-110.435-45.743    s-80.935,16.246-110.433,45.743c-2.999,2.999-6.987,4.651-11.228,4.651c-4.241,0-8.229-1.652-11.228-4.65    c-6.191-6.192-6.191-16.267,0-22.457C158.606,152.119,205.8,132.57,256,132.57s97.394,19.548,132.89,55.044    C395.081,193.806,395.081,203.881,388.891,210.071z"/>
	</g>
</g>
<g>
	<g>
		<path d="M456.164,109.086c-23.525-23.524-50.528-42.508-80.262-56.424c-3.645-1.706-7.983-0.133-9.689,3.51    c-1.706,3.645-0.134,7.983,3.51,9.689c28.196,13.196,53.811,31.206,76.135,53.53c6.192,6.191,6.192,16.265,0,22.455    c-2.998,2.999-6.986,4.651-11.228,4.651c-4.241,0-8.229-1.652-11.228-4.651C378.688,97.132,319.236,72.506,256,72.506    s-122.687,24.626-167.403,69.34c-6.19,6.192-16.265,6.194-22.457,0c-6.191-6.191-6.191-16.265,0-22.455    C116.853,68.677,184.28,40.749,256,40.749c28.162,0,55.856,4.301,82.31,12.783c3.835,1.229,7.935-0.881,9.163-4.713    c1.229-3.832-0.881-7.935-4.714-9.163c-27.895-8.944-57.085-13.479-86.76-13.479c-75.613,0-146.699,29.445-200.164,82.91    c-11.873,11.874-11.873,31.193,0,43.066c11.876,11.873,31.195,11.872,43.067-0.001C140.865,110.189,196.657,87.079,256,87.079    s115.136,23.11,157.099,65.073c5.752,5.751,13.399,8.918,21.532,8.918c8.135,0,15.782-3.167,21.533-8.918    C468.037,140.278,468.037,120.959,456.164,109.086z"/>
	</g>
</g>
<g>
	<g>
		<path d="M345.233,245.342c-23.799-23.798-55.489-36.905-89.232-36.905c-33.744,0-65.434,13.108-89.233,36.905    c-5.751,5.752-8.919,13.399-8.919,21.533c0,8.134,3.168,15.781,8.919,21.533c5.751,5.751,13.398,8.918,21.533,8.918    c8.134,0,15.781-3.167,21.533-8.918c12.31-12.309,28.706-19.088,46.167-19.088c17.462,0,33.857,6.779,46.166,19.088    c5.752,5.751,13.399,8.919,21.533,8.919c8.135,0,15.782-3.168,21.533-8.919C357.106,276.534,357.106,257.215,345.233,245.342z     M334.927,278.104c-2.999,2.999-6.986,4.651-11.228,4.651c-4.241,0-8.229-1.652-11.228-4.652    c-15.062-15.062-35.117-23.356-56.471-23.356s-41.409,8.294-56.472,23.356c-2.999,2.999-6.987,4.651-11.228,4.651    c-4.241,0-8.229-1.652-11.228-4.651c-6.191-6.191-6.191-16.265,0-22.455c21.047-21.046,49.077-32.638,78.928-32.638    s57.881,11.591,78.927,32.638C341.119,261.839,341.119,271.913,334.927,278.104z"/>
	</g>
</g>
<g>
</g>
<g>
</g>
<g>
</g>
<g>
</g>
<g>
</g>
<g>
</g>
<g>
</g>
<g>
</g>
<g>
</g>
<g>
</g>
<g>
</g>
<g>
</g>
<g>
</g>
<g>
</g>
<g>
</g>
</svg>
