<?xml version="1.0" encoding="iso-8859-1"?>
<!-- Generator: Adobe Illustrator 19.0.0, SVG Export Plug-In . SVG Version: 6.00 Build 0)  -->
<svg xmlns="http://www.w3.org/2000/svg" xmlns:xlink="http://www.w3.org/1999/xlink" version="1.1" id="Capa_1" x="0px" y="0px" viewBox="0 0 512 512" style="enable-background:new 0 0 512 512;" xml:space="preserve">
<g>
	<g>
		<path d="M465.247,0H46.755c-7.433,0-13.48,6.047-13.48,13.48v333.966c0,4.025,3.262,7.286,7.287,7.286    c4.025,0,7.287-3.262,7.287-7.287V14.573h416.304v48.9c0,4.025,3.262,7.287,7.287,7.287c4.025,0,7.287-3.262,7.287-7.287V13.48    C478.727,6.047,472.68,0,465.247,0z"/>
	</g>
</g>
<g>
	<g>
		<path d="M495.222,459.598h-16.497V98.49c0-4.025-3.262-7.287-7.287-7.287c-4.025,0-7.287,3.262-7.287,7.287v361.108h-17.39    V271.821v-46.514v-46.514v-46.514V85.763v-40.79c0-7.175-5.837-13.011-13.011-13.011h-33.934h-0.001H373.07H78.25    c-7.175,0-13.011,5.837-13.011,13.011v40.789v46.515v46.514v46.514v46.514v187.777h-17.39V382.3c0-4.025-3.262-7.287-7.287-7.287    c-4.025,0-7.287,3.262-7.287,7.287v77.298H16.778c-7.116,0-12.904,5.788-12.904,12.904v26.594c0,7.116,5.788,12.904,12.904,12.904    h478.444c7.116,0,12.904-5.788,12.904-12.904v-26.594C508.126,465.386,502.338,459.598,495.222,459.598z M407.103,46.535h25.085    v31.941h-25.085V46.535z M407.103,93.049h25.085v31.942h-25.085V93.049z M407.103,139.565h25.085v31.941h-25.085V139.565z     M407.103,186.079h25.085v31.941h-25.085V186.079z M407.102,232.593h0.001h25.085v31.941h-15.063h-10.023V232.593z     M380.357,271.821v-46.514v-46.514v-46.514V85.763V46.535h12.173v39.228v46.515v46.514v46.514v46.514v69.306    c0,2.552-2.077,4.629-4.629,4.629h-2.915c-2.552,0-4.629-2.077-4.629-4.629V271.821z M384.986,360.329h2.915    c10.588,0,19.203-8.614,19.203-19.202v-62.02h2.736v161.806H273.97V279.107h91.814v62.02    C365.784,351.715,374.398,360.329,384.986,360.329z M79.811,46.535h285.973v31.941H79.811V46.535z M79.811,93.049h285.973v31.942    H79.811V93.049z M79.811,139.565h285.973v31.941H79.811V139.565z M79.811,186.079h285.973v31.941H79.811V186.079z M79.811,232.593    h285.973v31.941h-99.101h-21.366H94.874H79.811V232.593z M238.03,279.107v161.806H102.16V279.107H238.03z M79.811,279.107h7.776    v162.881c0,7.442,6.055,13.497,13.497,13.497h138.022c7.442,0,13.497-6.055,13.497-13.497V279.107h6.793v162.881    c0,7.442,6.055,13.497,13.497,13.497h138.022c7.442,0,13.497-6.055,13.497-13.497V279.107h7.776v180.491H79.811V279.107z     M493.554,497.427L493.554,497.427H18.447v-23.256h22.115h31.963h366.951h31.963h22.115V497.427z"/>
	</g>
</g>
<g>
</g>
<g>
</g>
<g>
</g>
<g>
</g>
<g>
</g>
<g>
</g>
<g>
</g>
<g>
</g>
<g>
</g>
<g>
</g>
<g>
</g>
<g>
</g>
<g>
</g>
<g>
</g>
<g>
</g>
</svg>
