<?xml version="1.0" encoding="iso-8859-1"?>
<!-- Generator: Adobe Illustrator 19.0.0, SVG Export Plug-In . SVG Version: 6.00 Build 0)  -->
<svg xmlns="http://www.w3.org/2000/svg" xmlns:xlink="http://www.w3.org/1999/xlink" version="1.1" id="Capa_1" x="0px" y="0px" viewBox="0 0 512 512" style="enable-background:new 0 0 512 512;" xml:space="preserve">
<g>
	<g>
		<path d="M421.636,232.31h-10.188v-76.861c0-32.785-10.129-64.16-29.292-90.733c-2.355-3.267-6.914-4.005-10.178-1.649    c-3.266,2.355-4.005,6.913-1.649,10.178c17.361,24.074,26.537,52.5,26.537,82.203v76.861h-28.39v-76.861    c0-62.019-50.457-112.475-112.476-112.475c-62.019,0-112.476,50.456-112.476,112.475v76.861h-28.39v-76.861    c0-77.674,63.192-140.866,140.866-140.866c33.312,0,65.656,11.893,91.077,33.488c3.069,2.608,7.67,2.233,10.277-0.836    c2.607-3.068,2.233-7.67-0.836-10.277C328.465,13.125,292.767,0,256,0c-85.714,0-155.448,69.734-155.448,155.448v76.861H90.363    c-13.131,0-23.814,10.684-23.814,23.815v232.061c0,13.131,10.683,23.815,23.814,23.815h331.273    c13.131,0,23.815-10.684,23.815-23.815V256.124C445.451,242.993,434.767,232.31,421.636,232.31z M158.107,155.448    c0-53.978,43.915-97.892,97.893-97.892c53.979,0,97.893,43.914,97.893,97.892v76.861H158.107V155.448z M430.868,488.185    c0,5.091-4.141,9.232-9.232,9.232H90.363c-5.09,0-9.231-4.141-9.231-9.232V256.124c0-5.091,4.141-9.232,9.231-9.232h17.479h42.973    h210.369h42.973h17.479c5.091,0,9.232,4.141,9.232,9.232V488.185z"/>
	</g>
</g>
<g>
	<g>
		<path d="M365.32,282.613H210.243c-4.027,0-7.291,3.264-7.291,7.291s3.264,7.291,7.291,7.291H365.32    c4.591,0,8.326,3.735,8.326,8.326s-3.735,8.326-8.326,8.326H146.679c-4.591,0-8.326-3.735-8.326-8.326s3.735-8.326,8.326-8.326    h28.362c4.027,0,7.291-3.264,7.291-7.291s-3.264-7.291-7.291-7.291h-28.362c-12.632,0-22.908,10.277-22.908,22.909    c0,12.632,10.277,22.909,22.908,22.909H365.32c12.632,0,22.909-10.277,22.909-22.909    C388.229,292.89,377.952,282.613,365.32,282.613z"/>
	</g>
</g>
<g>
	<g>
		<path d="M365.32,349.246H146.679c-12.632,0-22.908,10.277-22.908,22.909c0,12.632,10.277,22.909,22.908,22.909H365.32    c12.632,0,22.909-10.277,22.909-22.909C388.229,359.523,377.952,349.246,365.32,349.246z M365.32,380.481H146.679    c-4.591,0-8.326-3.735-8.326-8.326s3.735-8.326,8.326-8.326H365.32c4.591,0,8.326,3.735,8.326,8.326    S369.911,380.481,365.32,380.481z"/>
	</g>
</g>
<g>
	<g>
		<path d="M365.32,415.879H146.679c-12.632,0-22.908,10.277-22.908,22.909c0,12.632,10.277,22.909,22.908,22.909H365.32    c12.632,0,22.909-10.277,22.909-22.909C388.229,426.156,377.952,415.879,365.32,415.879z M365.32,447.114H146.679    c-4.591,0-8.326-3.735-8.326-8.326s3.735-8.326,8.326-8.326H365.32c4.591,0,8.326,3.735,8.326,8.326    S369.911,447.114,365.32,447.114z"/>
	</g>
</g>
<g>
</g>
<g>
</g>
<g>
</g>
<g>
</g>
<g>
</g>
<g>
</g>
<g>
</g>
<g>
</g>
<g>
</g>
<g>
</g>
<g>
</g>
<g>
</g>
<g>
</g>
<g>
</g>
<g>
</g>
</svg>
