<?xml version="1.0" encoding="iso-8859-1"?>
<!-- Generator: Adobe Illustrator 19.0.0, SVG Export Plug-In . SVG Version: 6.00 Build 0)  -->
<svg xmlns="http://www.w3.org/2000/svg" xmlns:xlink="http://www.w3.org/1999/xlink" version="1.1" id="Capa_1" x="0px" y="0px" viewBox="0 0 512 512" style="enable-background:new 0 0 512 512;" xml:space="preserve">
<g>
	<g>
		<path d="M363.101,380.58l-12.524-12.525c-2.952-2.952-7.739-2.952-10.692,0c-2.952,2.952-2.952,7.739,0,10.692l12.524,12.525    c2.952,2.952,7.739,2.952,10.692,0C366.053,388.32,366.053,383.533,363.101,380.58z"/>
	</g>
</g>
<g>
	<g>
		<path d="M172.125,189.602L159.6,177.078c-2.952-2.953-7.739-2.953-10.692,0c-2.952,2.952-2.952,7.739,0,10.692l12.525,12.524    c2.952,2.952,7.739,2.952,10.692,0C175.077,197.342,175.077,192.555,172.125,189.602z"/>
	</g>
</g>
<g>
	<g>
		<path d="M172.125,368.055c-2.953-2.953-7.739-2.953-10.692,0l-12.525,12.525c-2.952,2.952-2.952,7.739,0,10.692    c2.952,2.952,7.739,2.952,10.692,0l12.525-12.525C175.077,375.795,175.077,371.008,172.125,368.055z"/>
	</g>
</g>
<g>
	<g>
		<path d="M256.005,402.799c-4.175,0-7.56,3.385-7.56,7.56v17.712c0,4.175,3.385,7.56,7.56,7.56c4.175,0,7.56-3.385,7.56-7.56    v-17.712C263.565,406.184,260.18,402.799,256.005,402.799z"/>
	</g>
</g>
<g>
	<g>
		<path d="M129.82,276.614h-17.712c-4.175,0-7.56,3.385-7.56,7.56s3.385,7.56,7.56,7.56h17.712c4.175,0,7.56-3.385,7.56-7.56    C137.381,279.999,133.996,276.614,129.82,276.614z"/>
	</g>
</g>
<g>
	<g>
		<path d="M256.005,107.355c-97.499,0-176.82,79.321-176.82,176.82s79.321,176.82,176.82,176.82s176.82-79.321,176.82-176.82    S353.503,107.355,256.005,107.355z M256.005,446.421c-89.463,0-162.247-72.784-162.247-162.247s72.784-162.247,162.247-162.247    s162.247,72.784,162.247,162.247S345.468,446.421,256.005,446.421z"/>
	</g>
</g>
<g>
	<g>
		<path d="M483.398,270.063c-6.533-106.885-86.697-193.11-189.222-210.504V47.736h11.812c6.228,0,11.296-5.067,11.296-11.295V11.295    C317.283,5.067,312.216,0,305.987,0h-99.965c-6.228,0-11.296,5.067-11.296,11.295v25.146c0,6.228,5.067,11.295,11.296,11.295    h11.812v11.822C115.253,76.954,35.082,163.234,28.602,270.188c-0.244,4.017,2.816,7.47,6.832,7.714    c0.15,0.009,0.299,0.013,0.447,0.013c3.823,0,7.032-2.979,7.267-6.846c6.238-102.947,85.426-185.423,185.356-198.366    c1.176-0.152,2.353-0.293,3.532-0.425c0.655-0.074,1.309-0.148,1.965-0.216c0.866-0.089,1.732-0.171,2.598-0.25    c0.627-0.057,1.255-0.109,1.883-0.161c0.838-0.069,1.676-0.139,2.515-0.198c1.315-0.092,2.633-0.173,3.954-0.241    c0.619-0.032,1.237-0.055,1.855-0.081c0.999-0.043,1.998-0.081,3-0.11c0.534-0.016,1.067-0.031,1.601-0.042    c1.529-0.033,3.06-0.056,4.596-0.056c1.536,0,3.066,0.023,4.595,0.056c0.532,0.012,1.065,0.027,1.598,0.042    c1.005,0.029,2.007,0.067,3.009,0.11c0.614,0.027,1.227,0.049,1.841,0.081c1.327,0.068,2.651,0.15,3.973,0.242    c0.818,0.058,1.635,0.126,2.453,0.193c0.657,0.054,1.313,0.109,1.968,0.168c0.841,0.077,1.682,0.156,2.523,0.243    c0.721,0.074,1.441,0.156,2.16,0.237c1.04,0.117,2.079,0.241,3.117,0.374c100,12.83,179.317,95.31,185.613,198.284    c0.245,4.016,3.718,7.055,7.717,6.828C480.587,277.535,483.644,274.08,483.398,270.063z M274.103,57.076    c-0.168-0.013-0.335-0.03-0.502-0.043c-1.816-0.14-3.638-0.257-5.465-0.354c-0.134-0.007-0.269-0.018-0.403-0.025    c-1.763-0.09-3.532-0.157-5.306-0.207c-0.197-0.006-0.395-0.017-0.592-0.022c-1.938-0.049-3.88-0.076-5.829-0.076    c-1.949,0-3.893,0.027-5.831,0.076c-0.189,0.005-0.379,0.015-0.569,0.021c-1.783,0.05-3.562,0.117-5.336,0.208    c-0.115,0.006-0.229,0.015-0.344,0.021c-1.851,0.097-3.696,0.217-5.535,0.358c-0.135,0.01-0.27,0.024-0.405,0.035    c-1.797,0.142-3.588,0.303-5.374,0.486c-0.068,0.007-0.137,0.012-0.205,0.019v-9.837h47.195v9.837    c-0.079-0.008-0.157-0.013-0.236-0.021C277.617,57.373,275.862,57.215,274.103,57.076z M225.121,33.163H209.3v-18.59h93.41v18.59    h-15.821H225.121z"/>
	</g>
</g>
<g>
	<g>
		<path d="M476.234,298.06c-4.011-0.37-7.562,2.559-7.944,6.565C457.836,414.54,366.574,497.427,256.005,497.427    c-110.699,0-201.972-82.994-212.308-193.051c-0.377-4.007-3.929-6.944-7.936-6.573c-4.007,0.376-6.95,3.929-6.574,7.935    c5.279,56.211,31.214,108.248,73.027,146.524C144.295,490.785,198.913,512,256.005,512c57.046,0,111.629-21.185,153.697-59.653    c41.796-38.219,67.755-90.192,73.095-146.343C483.179,301.998,480.24,298.441,476.234,298.06z"/>
	</g>
</g>
<g>
	<g>
		<path d="M256.005,254.543c-16.339,0-29.632,13.293-29.632,29.632s13.293,29.632,29.632,29.632    c16.339,0,29.632-13.293,29.632-29.632S272.344,254.543,256.005,254.543z M256.005,299.233c-8.304,0-15.059-6.755-15.059-15.059    c0-8.304,6.755-15.059,15.059-15.059c8.304,0,15.059,6.755,15.059,15.059C271.064,292.478,264.308,299.233,256.005,299.233z"/>
	</g>
</g>
<g>
	<g>
		<path d="M362.756,177.424c-27.623-27.623-64.321-43.314-103.338-44.181c-0.053-0.001-0.177-0.003-0.231-0.003    c-5.772,0-10.469,4.687-10.469,10.447v88.482c0,4.025,3.262,7.287,7.287,7.287c24.658,0,44.719,20.061,44.719,44.719    c0,4.025,3.262,7.287,7.287,7.287h88.482c2.831,0,5.481-1.115,7.46-3.139c1.959-2.003,3.046-4.76,2.983-7.564    C406.069,241.746,390.379,205.047,362.756,177.424z M314.852,276.887v0.001c-3.308-26.881-24.679-48.251-51.56-51.561v-77.359    c69.741,3.651,125.268,59.176,128.919,128.919H314.852z"/>
	</g>
</g>
<g>
</g>
<g>
</g>
<g>
</g>
<g>
</g>
<g>
</g>
<g>
</g>
<g>
</g>
<g>
</g>
<g>
</g>
<g>
</g>
<g>
</g>
<g>
</g>
<g>
</g>
<g>
</g>
<g>
</g>
</svg>
