<?xml version="1.0" encoding="iso-8859-1"?>
<!-- Generator: Adobe Illustrator 19.0.0, SVG Export Plug-In . SVG Version: 6.00 Build 0)  -->
<svg xmlns="http://www.w3.org/2000/svg" xmlns:xlink="http://www.w3.org/1999/xlink" version="1.1" id="Capa_1" x="0px" y="0px" viewBox="0 0 512 512" style="enable-background:new 0 0 512 512;" xml:space="preserve">
<g>
	<g>
		<path d="M511.866,371.671L479.73,117.128c-0.52-4.115-4.286-7.025-8.392-6.51c-4.115,0.52-7.03,4.277-6.511,8.392l32.058,253.91    H284.974h-57.948H15.115L56.349,46.338h399.303l4.638,36.736c0.52,4.115,4.286,7.024,8.392,6.51    c4.115-0.52,7.03-4.277,6.511-8.392l-4.788-37.918c-0.846-6.705-6.765-11.957-13.477-11.957H55.073    c-6.712,0-12.631,5.252-13.477,11.955l-41.463,328.4c-0.565,4.487,0.683,8.844,3.424,11.954c2.452,2.781,5.827,4.313,9.503,4.313    h205.557l-4.988,44.033h-67.275c-15.323,0-27.79,12.467-27.79,27.79v10.233c0,5.894,4.794,10.688,10.688,10.688h253.495    c5.894,0,10.688-4.794,10.688-10.688v-10.233c0-15.324-12.467-27.79-27.79-27.79H298.37l-4.988-44.033H498.94    c3.676,0,7.05-1.532,9.503-4.313C511.185,380.516,512.432,376.159,511.866,371.671z M233.733,387.939h44.534l4.988,44.033h-54.51    L233.733,387.939z M365.646,446.992c7.042,0,12.77,5.729,12.77,12.77v5.901H133.585v-5.901c0-7.042,5.728-12.77,12.77-12.77    h73.982h71.327H365.646z"/>
	</g>
</g>
<g>
	<g>
		<path d="M182.319,160.054c-2.013-2.11-4.723-3.271-7.629-3.271H76.553c-5.624,0-10.524,4.504-11.154,10.254l-6.794,62.008    c-0.353,3.218,0.637,6.392,2.714,8.709c1.975,2.204,4.805,3.467,7.766,3.467h102.222c5.945,0,10.829-4.834,11.119-11.007    l2.899-62.009C185.466,165.175,184.371,162.204,182.319,160.054z M167.576,226.201H74.025l5.961-54.399h90.134L167.576,226.201z"/>
	</g>
</g>
<g>
	<g>
		<path d="M315.987,167.619c-0.187-5.976-5.085-10.838-10.918-10.838h-98.136c-5.833,0-10.731,4.861-10.918,10.837l-1.947,62.01    c-0.098,3.114,1.059,6.152,3.173,8.333c2.037,2.102,4.753,3.26,7.649,3.26h102.222c2.895,0,5.612-1.158,7.649-3.26    c2.114-2.182,3.271-5.219,3.173-8.334L315.987,167.619z M209.201,226.201l1.709-54.399h90.18l1.708,54.399H209.201z"/>
	</g>
</g>
<g>
	<g>
		<path d="M453.397,229.045l-6.794-62.01c-0.631-5.749-5.531-10.253-11.154-10.253H337.31c-2.906,0-5.616,1.162-7.629,3.271    c-2.052,2.15-3.147,5.121-3.006,8.152l2.9,62.01c0.291,6.172,5.174,11.006,11.12,11.006h102.222c2.961,0,5.791-1.263,7.766-3.467    C452.76,235.436,453.75,232.262,453.397,229.045z M344.424,226.201l-2.544-54.399h90.134l5.961,54.399H344.424z"/>
	</g>
</g>
<g>
	<g>
		<path d="M177.519,259.742c-2.037-2.135-4.767-3.311-7.686-3.311h-104c-5.735,0-10.743,4.697-11.4,10.693l-1.742,15.892    c-0.452,4.123,2.524,7.831,6.647,8.283c4.135,0.448,7.831-2.525,8.283-6.647l1.447-13.201h96.392l-2.953,63.137H62.149    l1.499-13.688c0.452-4.124-2.524-7.833-6.647-8.284c-4.136-0.452-7.833,2.525-8.282,6.647l-1.936,17.672    c-0.375,3.408,0.653,6.749,2.818,9.165c1.998,2.229,4.848,3.507,7.822,3.507h108.599c6.066,0,11.054-5.052,11.357-11.502    l3.265-69.812C180.794,265.096,179.654,261.979,177.519,259.742z"/>
	</g>
</g>
<g>
	<g>
		<path d="M319.129,267.706c-0.199-6.322-5.086-11.275-11.128-11.275H204c-6.042,0-10.93,4.953-11.128,11.275l-2.192,69.813    c-0.104,3.305,1.103,6.508,3.313,8.788c2.062,2.128,4.799,3.3,7.708,3.3H310.3c2.908,0,5.645-1.172,7.707-3.3    c2.21-2.28,3.417-5.483,3.313-8.788L319.129,267.706z M205.799,334.588l1.982-63.137h96.439l1.982,63.137H205.799z"/>
	</g>
</g>
<g>
	<g>
		<path d="M465.218,336.936l-7.65-69.813c-0.657-5.996-5.665-10.692-11.4-10.692h-104c-2.919,0-5.649,1.176-7.686,3.311    c-2.136,2.238-3.275,5.355-3.125,8.551l3.265,69.814c0.303,6.449,5.291,11.5,11.357,11.5h108.599c2.974,0,5.824-1.278,7.822-3.507    C464.565,343.684,465.593,340.343,465.218,336.936z M349.494,334.588l-2.953-63.137h96.392l6.918,63.137H349.494z"/>
	</g>
</g>
<g>
	<g>
		<path d="M186.606,71.006c-1.962-2.056-4.723-3.235-7.575-3.235h-92.9c-5.526,0-10.33,4.341-10.938,9.884L69.118,133.1    c-0.335,3.062,0.621,6.098,2.624,8.332c1.953,2.178,4.764,3.428,7.711,3.428h96.552c5.841,0,10.631-4.654,10.908-10.592    l2.592-55.442C189.642,75.932,188.585,73.081,186.606,71.006z M172.083,129.84H84.584l5.156-47.049h84.544L172.083,129.84z"/>
	</g>
</g>
<g>
	<g>
		<path d="M313.179,78.236c-0.182-5.77-4.996-10.465-10.73-10.465H209.55c-5.734,0-10.548,4.694-10.73,10.466l-1.741,55.443    c-0.094,2.96,1.019,5.86,3.052,7.958c2.014,2.078,4.711,3.222,7.593,3.222h96.552c2.883,0,5.579-1.144,7.592-3.222    c2.033-2.098,3.146-4.998,3.052-7.957L313.179,78.236z M212.229,129.84l1.476-47.049h84.591l1.477,47.049H212.229z"/>
	</g>
</g>
<g>
	<g>
		<path d="M442.883,133.099l-6.075-55.445c-0.608-5.542-5.412-9.882-10.938-9.882h-92.899c-2.852,0-5.614,1.179-7.576,3.235    c-1.979,2.075-3.036,4.925-2.9,7.818l2.593,55.441c0.277,5.941,5.067,10.595,10.908,10.595h96.552v-0.001    c2.947,0,5.759-1.25,7.711-3.428C442.262,139.198,443.218,136.161,442.883,133.099z M339.917,129.84l-2.2-47.049h84.544    l5.155,47.049H339.917z"/>
	</g>
</g>
<g>
</g>
<g>
</g>
<g>
</g>
<g>
</g>
<g>
</g>
<g>
</g>
<g>
</g>
<g>
</g>
<g>
</g>
<g>
</g>
<g>
</g>
<g>
</g>
<g>
</g>
<g>
</g>
<g>
</g>
</svg>
