<?xml version="1.0" encoding="iso-8859-1"?>
<!-- Generator: Adobe Illustrator 19.0.0, SVG Export Plug-In . SVG Version: 6.00 Build 0)  -->
<svg xmlns="http://www.w3.org/2000/svg" xmlns:xlink="http://www.w3.org/1999/xlink" version="1.1" id="Capa_1" x="0px" y="0px" viewBox="0 0 512 512" style="enable-background:new 0 0 512 512;" xml:space="preserve">
<g>
	<g>
		<path d="M319.721,268.772c-16.648-16.648-38.67-26.054-62.011-26.486c-0.574-0.011-1.139-0.016-1.71-0.016    c-24.414,0-47.281,9.597-64.388,27.024c-17.103,17.423-26.272,40.474-25.819,64.909c0.433,23.341,9.839,45.364,26.486,62.011    c16.648,16.647,38.67,26.054,62.011,26.486c0.574,0.011,1.139,0.016,1.71,0.016c24.415,0,47.282-9.598,64.389-27.025    c17.102-17.423,26.272-40.474,25.819-64.908C345.775,307.442,336.368,285.419,319.721,268.772z M309.989,385.482    c-14.681,14.956-34.395,23.056-55.428,22.647c-40.168-0.745-73.453-34.03-74.198-74.198c-0.38-20.491,7.309-39.821,21.649-54.429    c14.344-14.611,33.517-22.659,53.988-22.659c0.481,0,0.956,0.004,1.439,0.013c40.168,0.744,73.453,34.029,74.198,74.197    C332.017,351.544,324.329,370.874,309.989,385.482z"/>
	</g>
</g>
<g>
	<g>
		<path d="M256,270.391c-34.244,0-62.103,27.859-62.103,62.102c0,34.244,27.859,62.103,62.103,62.103s62.103-27.859,62.103-62.103    C318.103,298.25,290.244,270.391,256,270.391z M256,380.023c-26.208,0-47.53-21.322-47.53-47.53    c0-26.207,21.322-47.529,47.53-47.529s47.53,21.322,47.53,47.529C303.53,358.701,282.208,380.023,256,380.023z"/>
	</g>
</g>
<g>
	<g>
		<path d="M314.704,142.399c-0.985-30.859-25.929-55.802-56.788-56.787c-16.808-0.539-32.5,5.86-44.109,17.845    c-11.16,11.522-17.024,26.714-16.511,42.775c0.985,30.859,25.929,55.803,56.787,56.788c0.642,0.02,1.278,0.031,1.917,0.031    c16.043,0,31.027-6.348,42.192-17.875C309.353,173.653,315.217,158.462,314.704,142.399z M287.724,175.036    c-8.732,9.015-20.526,13.825-33.176,13.418c-23.196-0.741-41.947-19.491-42.687-42.687c-0.385-12.083,4.023-23.508,12.415-32.171    c8.395-8.668,19.662-13.442,31.724-13.442c0.483,0,0.964,0.008,1.451,0.023c23.196,0.741,41.947,19.491,42.687,42.686    C300.524,154.946,296.115,166.372,287.724,175.036z"/>
	</g>
</g>
<g>
	<g>
		<path d="M256,109.371c-19.268,0-34.945,15.676-34.945,34.945c0,19.269,15.677,34.944,34.945,34.944s34.945-15.676,34.945-34.945    S275.268,109.371,256,109.371z M256,164.687c-11.233,0-20.372-9.139-20.372-20.371c0-11.233,9.139-20.372,20.372-20.372    c11.233,0,20.372,9.139,20.372,20.372C276.372,155.549,267.233,164.687,256,164.687z"/>
	</g>
</g>
<g>
	<g>
		<path d="M364.224,125.085c-4.024,0-7.287,3.262-7.287,7.287v307.817c0,6.757-5.497,12.254-12.254,12.254H167.316    c-6.757,0-12.254-5.497-12.254-12.254v-35.061c0-4.024-3.262-7.287-7.287-7.287c-4.024,0-7.287,3.262-7.287,7.287v35.061    c0,14.793,12.035,26.827,26.827,26.827h177.368c14.792,0,26.827-12.035,26.827-26.827V132.372    C371.511,128.348,368.249,125.085,364.224,125.085z"/>
	</g>
</g>
<g>
	<g>
		<path d="M344.684,44.984H167.316c-14.792,0-26.827,12.035-26.827,26.827V370.46c0,4.024,3.262,7.287,7.287,7.287    c4.024,0,7.287-3.262,7.287-7.287V71.811c0-6.757,5.497-12.254,12.254-12.254h177.368c6.757,0,12.254,5.497,12.254,12.254V97.76    c0,4.024,3.262,7.287,7.287,7.287c4.024,0,7.287-3.262,7.287-7.287V71.811C371.511,57.019,359.476,44.984,344.684,44.984z"/>
	</g>
</g>
<g>
	<g>
		<path d="M465.181,142.796c-4.207-4.208-9.801-6.526-15.751-6.526c-5.951,0-11.545,2.318-15.751,6.525    c-8.685,8.685-8.685,22.817,0,31.502c45.051,45.051,45.051,118.354,0,163.405c-8.685,8.685-8.685,22.817,0,31.501    c4.207,4.208,9.801,6.525,15.751,6.525c5.951,0,11.545-2.317,15.751-6.525C495.372,339.013,512,298.809,512,256    C512,213.191,495.372,172.987,465.181,142.796z M454.875,358.9c-1.454,1.454-3.389,2.256-5.446,2.256s-3.991-0.801-5.446-2.256    c-3.003-3.003-3.003-7.889,0-10.893c50.733-50.733,50.733-133.281,0-184.014c-3.003-3.003-3.003-7.889,0.001-10.893    c1.454-1.455,3.388-2.256,5.445-2.256s3.991,0.801,5.446,2.257c27.44,27.439,42.551,63.983,42.551,102.9    S482.315,331.461,454.875,358.9z"/>
	</g>
</g>
<g>
	<g>
		<path d="M426.002,172.256c-4.207-4.208-9.801-6.525-15.751-6.525s-11.545,2.317-15.751,6.525c-8.684,8.685-8.684,22.817,0,31.502    c28.806,28.806,28.806,75.677,0,104.484c-8.684,8.685-8.684,22.817,0,31.502c4.207,4.208,9.801,6.525,15.751,6.525    s11.545-2.317,15.751-6.524c22.335-22.335,34.636-52.076,34.636-83.744C460.638,224.333,448.337,194.591,426.002,172.256z     M415.697,329.44c-1.454,1.454-3.388,2.255-5.446,2.255c-2.058,0-3.992-0.801-5.446-2.256c-3.003-3.003-3.003-7.89,0-10.893    c34.488-34.488,34.488-90.605,0-125.093c-3.003-3.003-3.003-7.89,0-10.894c1.454-1.454,3.389-2.256,5.446-2.256    s3.991,0.801,5.446,2.256c19.583,19.583,30.368,45.664,30.368,73.44S435.28,309.857,415.697,329.44z"/>
	</g>
</g>
<g>
	<g>
		<path d="M78.322,174.297c8.685-8.685,8.685-22.817,0-31.501c-4.207-4.208-9.801-6.526-15.751-6.526    c-5.95,0-11.545,2.318-15.751,6.525C16.628,172.987,0,213.191,0,256s16.628,83.013,46.819,113.204    c4.207,4.208,9.801,6.525,15.751,6.525s11.545-2.317,15.751-6.525c8.685-8.685,8.685-22.817,0-31.502    C33.271,292.652,33.271,219.348,78.322,174.297z M68.017,358.9c-1.454,1.454-3.389,2.256-5.446,2.256s-3.991-0.801-5.446-2.256    c-27.44-27.439-42.551-63.983-42.551-102.9s15.111-75.461,42.552-102.9c1.454-1.455,3.389-2.256,5.446-2.256    s3.991,0.801,5.446,2.257c3.003,3.003,3.003,7.889,0,10.893c-50.733,50.733-50.733,133.281,0,184.014    C71.02,351.01,71.02,355.897,68.017,358.9z"/>
	</g>
</g>
<g>
	<g>
		<path d="M117.5,203.759c8.685-8.686,8.685-22.818,0-31.503c-4.207-4.208-9.801-6.525-15.751-6.525    c-5.951,0-11.545,2.317-15.751,6.525C63.663,194.591,51.362,224.332,51.362,256c0,31.668,12.301,61.409,34.636,83.744    c4.207,4.208,9.801,6.525,15.751,6.525c5.951,0,11.545-2.317,15.751-6.524c8.684-8.685,8.684-22.817,0-31.502    C88.694,279.437,88.694,232.566,117.5,203.759z M107.195,329.441c-1.454,1.454-3.388,2.255-5.446,2.255    c-2.058,0-3.992-0.801-5.446-2.256C76.72,309.857,65.935,283.776,65.935,256s10.785-53.857,30.368-73.44    c1.454-1.454,3.389-2.256,5.446-2.256c2.057,0,3.991,0.801,5.446,2.256c3.003,3.004,3.003,7.89,0,10.894    c-34.488,34.488-34.488,90.605,0,125.093C110.198,321.55,110.198,326.437,107.195,329.441z"/>
	</g>
</g>
<g>
</g>
<g>
</g>
<g>
</g>
<g>
</g>
<g>
</g>
<g>
</g>
<g>
</g>
<g>
</g>
<g>
</g>
<g>
</g>
<g>
</g>
<g>
</g>
<g>
</g>
<g>
</g>
<g>
</g>
</svg>
