<?xml version="1.0" encoding="iso-8859-1"?>
<!-- Generator: Adobe Illustrator 19.0.0, SVG Export Plug-In . SVG Version: 6.00 Build 0)  -->
<svg xmlns="http://www.w3.org/2000/svg" xmlns:xlink="http://www.w3.org/1999/xlink" version="1.1" id="Capa_1" x="0px" y="0px" viewBox="0 0 511.999 511.999" style="enable-background:new 0 0 511.999 511.999;" xml:space="preserve">
<g>
	<g>
		<path d="M399.929,266.014c-4.047,0-7.327,3.281-7.327,7.327v91.283c0,15.352-12.431,27.852-27.755,27.973    c-0.098,0-0.194,0.002-0.304,0.006H147.455c-0.101-0.003-0.2-0.004-0.304-0.006c-15.324-0.122-27.754-12.621-27.754-27.973V273.26    c0-4.047-3.281-7.327-7.327-7.327s-7.327,3.281-7.327,7.327v91.363c0,22.531,17.572,41.024,39.729,42.523    c10.948,8.984,17.428,26.32,17.428,46.946v33.466c0,13.477,10.964,24.441,24.441,24.441h139.317    c13.477,0,24.441-10.964,24.441-24.441v-33.466c0-20.626,6.481-37.962,17.429-46.946c22.157-1.5,39.729-19.993,39.729-42.523    V273.34C407.256,269.294,403.975,266.014,399.929,266.014z M335.444,454.093v33.466c0,5.397-4.39,9.787-9.787,9.787H186.341    c-5.397,0-9.787-4.39-9.787-9.787v-33.466c0-18.294-4.538-34.721-12.59-46.836h184.07    C339.982,419.372,335.444,435.799,335.444,454.093z"/>
	</g>
</g>
<g>
	<g>
		<path d="M367.563,104.856c-10.963-8.978-17.465-26.306-17.465-46.949V24.441C350.098,10.964,339.134,0,325.657,0H186.341    C172.864,0,161.9,10.964,161.9,24.441v33.466c0,20.627-6.481,37.962-17.428,46.946c-22.157,1.499-39.729,19.993-39.729,42.523    v91.201c0,4.047,3.281,7.327,7.327,7.327c4.046,0,7.327-3.281,7.327-7.327v-91.201c0-15.352,12.431-27.852,27.755-27.973    c0.098,0,0.195-0.002,0.304-0.006h217.088c0.101,0.003,0.201,0.005,0.304,0.006c15.324,0.122,27.754,12.621,27.754,27.973v90.917    c0,4.047,3.281,7.327,7.327,7.327c4.047,0,7.327-3.281,7.327-7.327v-90.917C407.256,124.858,389.703,106.373,367.563,104.856z     M163.964,104.743c8.052-12.115,12.59-28.542,12.59-46.836V24.441c0-5.397,4.39-9.787,9.787-9.787h139.317    c5.397,0,9.787,4.39,9.787,9.787v33.466c0,18.294,4.538,34.721,12.59,46.836H163.964z"/>
	</g>
</g>
<g>
	<g>
		<path d="M349.915,242.888L262,166.379c-1.664-1.448-3.795-2.246-6.001-2.246s-4.337,0.798-6,2.245l-87.915,76.511    c-2.904,2.528-3.908,6.492-2.558,10.098c1.35,3.606,4.71,5.936,8.56,5.936h17.878v80.474c0,5.039,4.1,9.139,9.14,9.139h41.914    c4.047,0,7.327-3.281,7.327-7.327v-66.56h23.309v66.56c0,4.047,3.28,7.327,7.327,7.327h41.914c5.04,0,9.14-4.1,9.14-9.139v-80.474    h17.879c3.85,0,7.21-2.33,8.56-5.936C353.824,249.381,352.819,245.418,349.915,242.888z M318.707,244.268    c-4.047,0-7.327,3.281-7.327,7.327v82.287h-29.072v-63.319c0-2.823-1.099-5.477-3.095-7.473c-1.996-1.996-4.65-3.095-7.471-3.095    c-0.001,0-0.002,0-0.003,0h-31.481c-5.827,0-10.568,4.741-10.568,10.569v63.319h-29.071v-82.287c0-4.047-3.281-7.327-7.327-7.327    h-10.469l73.176-63.686l73.177,63.685H318.707z"/>
	</g>
</g>
<g>
	<g>
		<path d="M378.078,133.921c-3.597-3.597-8.376-5.578-13.455-5.578H147.375c-5.079,0-9.857,1.981-13.455,5.579    c-3.597,3.598-5.578,8.376-5.578,13.455v217.246c0,5.079,1.981,9.858,5.578,13.456c3.598,3.598,8.376,5.579,13.455,5.578h217.248    c5.079,0,9.857-1.981,13.455-5.578c3.598-3.598,5.579-8.376,5.578-13.455V147.377    C383.656,142.298,381.675,137.519,378.078,133.921z M369.002,364.624c0,1.164-0.457,2.263-1.286,3.092    c-0.83,0.83-1.928,1.287-3.093,1.287H147.375c-1.165,0-2.263-0.457-3.092-1.287c-0.83-0.83-1.286-1.928-1.286-3.093V147.376    c0-1.164,0.457-2.263,1.286-3.092c0.83-0.83,1.928-1.287,3.093-1.287h217.247c1.165,0,2.263,0.457,3.093,1.287    c0.83,0.829,1.286,1.928,1.286,3.093V364.624z"/>
	</g>
</g>
<g>
</g>
<g>
</g>
<g>
</g>
<g>
</g>
<g>
</g>
<g>
</g>
<g>
</g>
<g>
</g>
<g>
</g>
<g>
</g>
<g>
</g>
<g>
</g>
<g>
</g>
<g>
</g>
<g>
</g>
</svg>
