<?xml version="1.0" encoding="iso-8859-1"?>
<!-- Generator: Adobe Illustrator 19.0.0, SVG Export Plug-In . SVG Version: 6.00 Build 0)  -->
<svg xmlns="http://www.w3.org/2000/svg" xmlns:xlink="http://www.w3.org/1999/xlink" version="1.1" id="Capa_1" x="0px" y="0px" viewBox="0 0 512 512" style="enable-background:new 0 0 512 512;" xml:space="preserve">
<g>
	<g>
		<path d="M256,163.102c-12.862,0-23.325,10.464-23.325,23.325v134.206c0,12.861,10.464,23.325,23.325,23.325    c12.862,0,23.325-10.463,23.325-23.325V186.427C279.325,173.566,268.861,163.102,256,163.102z M264.753,320.633    c0,4.826-3.926,8.752-8.753,8.752c-4.826,0-8.753-3.926-8.753-8.752V186.427c0-4.826,3.926-8.752,8.753-8.752    c4.826,0,8.753,3.926,8.753,8.752V320.633z"/>
	</g>
</g>
<g>
	<g>
		<path d="M363.414,256.837c-10.297-18.003-25.088-33.26-42.774-44.121c-3.676-2.257-7.892-3.45-12.19-3.45    c-8.179,0-15.615,4.157-19.892,11.121c-3.26,5.31-4.258,11.571-2.809,17.63c1.449,6.059,5.171,11.192,10.48,14.452    c23.038,14.147,36.792,38.703,36.792,65.687c0,42.468-34.55,77.018-77.018,77.018s-77.018-34.55-77.018-77.018    c-0.003-26.984,13.751-51.54,36.789-65.687c10.959-6.73,14.4-21.122,7.671-32.083c-4.277-6.964-11.713-11.121-19.892-11.121    c-4.299,0-8.514,1.194-12.19,3.451c-17.685,10.86-32.475,26.117-42.774,44.121c-10.635,18.593-16.256,39.797-16.256,61.319    c0,68.191,55.478,123.668,123.669,123.668s123.669-55.477,123.669-123.668C379.671,296.632,374.05,275.428,363.414,256.837z     M256.001,427.251c-60.156,0-109.096-48.94-109.096-109.095c0-18.989,4.956-37.69,14.333-54.084    c9.088-15.889,22.142-29.353,37.75-38.938c1.381-0.848,2.96-1.296,4.564-1.296c3.075,0,5.869,1.561,7.474,4.174    c2.525,4.113,1.234,9.514-2.878,12.039c-27.388,16.818-43.739,46.016-43.739,78.105c0,50.503,41.087,91.59,91.591,91.59    c50.504,0,91.591-41.087,91.591-91.59c0-32.089-16.351-61.287-43.739-78.105c-1.992-1.223-3.388-3.149-3.932-5.423    s-0.169-4.623,1.054-6.616c1.605-2.614,4.399-4.174,7.474-4.174c1.605,0,3.184,0.448,4.565,1.296    c15.609,9.586,28.663,23.05,37.75,38.938c9.377,16.392,14.334,35.094,14.334,54.084    C365.097,378.312,316.157,427.251,256.001,427.251z"/>
	</g>
</g>
<g>
	<g>
		<path d="M358.038,97.015l-94.71-82.425c-4.178-3.636-10.479-3.636-14.657,0l-93.168,81.083V84.597h1.979    c6.286,0,11.4-5.114,11.4-11.4v-21.44c0-6.286-5.114-11.4-11.4-11.4H71.891c-6.286,0-11.4,5.114-11.4,11.4v21.44    c0,6.286,5.114,11.4,11.4,11.4h4.553v79.88L3.876,227.632c-3.573,3.11-4.809,7.987-3.148,12.424    c1.66,4.437,5.794,7.303,10.532,7.303h49.199v77.934h-0.001c0,4.024,3.262,7.286,7.286,7.286s7.286-3.262,7.286-7.286v-85.22    c0-4.024-3.262-7.286-7.286-7.286H20.152l68.363-59.495c1.59-1.384,2.503-3.388,2.503-5.497V84.597h49.913v27.076    c0,2.855,1.668,5.448,4.266,6.631c2.599,1.184,5.649,0.74,7.803-1.135l103-89.638l92.471,80.477    c3.036,2.642,7.638,2.323,10.28-0.713C361.393,104.26,361.074,99.657,358.038,97.015z M154.309,70.025h-6.092H83.731h-8.667V54.93    h79.245V70.025z"/>
	</g>
</g>
<g>
	<g>
		<path d="M508.123,227.632l-123.92-107.847c-3.036-2.642-7.638-2.321-10.28,0.713c-2.642,3.035-2.323,7.638,0.713,10.28    l117.213,102.009h-47.593c-4.024,0-7.286,3.262-7.286,7.286v241.674c0,2.105-1.712,3.817-3.817,3.817H78.848    c-2.105,0-3.817-1.712-3.817-3.817V359.944c0-4.024-3.262-7.286-7.286-7.286s-7.286,3.262-7.286,7.286v121.803    c0,10.14,8.249,18.389,18.389,18.389h354.304c10.14,0,18.389-8.249,18.389-18.389V247.36h49.199c4.738,0,8.872-2.867,10.532-7.304    C512.932,235.619,511.697,230.742,508.123,227.632z"/>
	</g>
</g>
<g>
</g>
<g>
</g>
<g>
</g>
<g>
</g>
<g>
</g>
<g>
</g>
<g>
</g>
<g>
</g>
<g>
</g>
<g>
</g>
<g>
</g>
<g>
</g>
<g>
</g>
<g>
</g>
<g>
</g>
</svg>
