<?xml version="1.0" encoding="iso-8859-1"?>
<!-- Generator: Adobe Illustrator 19.0.0, SVG Export Plug-In . SVG Version: 6.00 Build 0)  -->
<svg xmlns="http://www.w3.org/2000/svg" xmlns:xlink="http://www.w3.org/1999/xlink" version="1.1" id="Capa_1" x="0px" y="0px" viewBox="0 0 512 512" style="enable-background:new 0 0 512 512;" xml:space="preserve">
<g>
	<g>
		<path d="M401.727,246.608c-4.025,0-7.287,3.262-7.287,7.287v231.029c0,6.894-5.609,12.503-12.504,12.503H130.062    c-6.895,0-12.504-5.609-12.504-12.503V253.895c0-4.024-3.262-7.287-7.287-7.287c-4.025,0-7.287,3.262-7.287,7.287v231.029    c0,14.93,12.147,27.076,27.077,27.076h251.875c14.93,0,27.077-12.147,27.077-27.076V253.895    C409.013,249.87,405.751,246.608,401.727,246.608z"/>
	</g>
</g>
<g>
	<g>
		<path d="M381.936,0H130.062c-14.93,0-27.077,12.147-27.077,27.076v192.005c0,4.024,3.262,7.287,7.287,7.287    s7.287-3.262,7.287-7.287V27.076c0-6.894,5.609-12.503,12.504-12.503h251.875c6.895,0,12.504,5.609,12.504,12.503v192.213    c0,4.024,3.262,7.287,7.287,7.287c4.025,0,7.287-3.262,7.287-7.287V27.076C409.013,12.147,396.866,0,381.936,0z"/>
	</g>
</g>
<g>
	<g>
		<path d="M361.182,43.911H150.816c-9.463,0-17.162,7.699-17.162,17.163v357.624c0,9.463,7.699,17.163,17.162,17.163h210.366    c9.463,0,17.162-7.699,17.162-17.163V61.074C378.344,51.61,370.645,43.911,361.182,43.911z M148.227,61.074    c0-1.428,1.161-2.59,2.589-2.59h210.366c1.428,0,2.589,1.162,2.589,2.59v23.231H148.227V61.074z M363.772,418.699    c0,1.428-1.161,2.59-2.589,2.59H150.816c-1.428-0.001-2.589-1.163-2.589-2.591V98.878h215.545V418.699z"/>
	</g>
</g>
<g>
	<g>
		<path d="M255.999,443.964c-13.333,0-24.18,10.848-24.18,24.18c0,13.333,10.847,24.18,24.18,24.18s24.18-10.847,24.18-24.18    S269.332,443.964,255.999,443.964z M255.999,477.751c-5.297,0-9.607-4.31-9.607-9.607s4.31-9.607,9.607-9.607    s9.607,4.31,9.607,9.607S261.296,477.751,255.999,477.751z"/>
	</g>
</g>
<g>
	<g>
		<path d="M347.494,228.484c-0.002-2.387-1.056-4.642-2.907-6.198l-83.3-69.718c-1.499-1.257-3.405-1.949-5.366-1.949    c-1.962,0-3.869,0.692-5.373,1.953l-83.145,69.797c-1.842,1.545-2.898,3.801-2.898,6.191v23.416c0,4.478,3.69,8.122,8.225,8.122    c1.94,0,3.826-0.685,5.313-1.93l9.608-8.056v70.066c0,7.151,5.818,12.969,12.969,12.969h28.818    c7.151,0,12.968-5.818,12.968-12.969v-48.121h27.188v48.121c0,7.151,5.817,12.969,12.968,12.969h28.822    c7.151,0,12.969-5.818,12.969-12.969l-0.004-70.019l9.614,8.049c1.484,1.241,3.368,1.926,5.306,1.926h0.001    c1.951,0,3.843-0.686,5.33-1.932c1.84-1.542,2.895-3.798,2.895-6.19L347.494,228.484z M284.166,318.574v-47.749    c0-7.356-5.985-13.341-13.342-13.341h-29.651c-7.357,0-13.342,5.985-13.342,13.341v47.749h-25.608v-80.68l53.698-45.021    l53.851,45.084l0.005,80.617H284.166z M332.919,238.33l-11.177-9.357c-0.002-0.002-0.004-0.004-0.005-0.005l-32.239-26.991    l-28.215-23.622c-0.35-0.292-0.723-0.551-1.112-0.781c-0.028-0.016-0.054-0.036-0.082-0.052c-0.053-0.03-0.109-0.055-0.162-0.084    c-0.415-0.226-0.847-0.417-1.294-0.57c-0.867-0.297-1.783-0.458-2.712-0.458c-1.469,0-2.908,0.389-4.17,1.114    c-0.421,0.242-0.822,0.521-1.198,0.835l-60.296,50.552c-0.002,0.001-0.003,0.003-0.005,0.004l-11.174,9.368v-6.686l76.849-64.512    l76.992,64.44V238.33z"/>
	</g>
</g>
<g>
</g>
<g>
</g>
<g>
</g>
<g>
</g>
<g>
</g>
<g>
</g>
<g>
</g>
<g>
</g>
<g>
</g>
<g>
</g>
<g>
</g>
<g>
</g>
<g>
</g>
<g>
</g>
<g>
</g>
</svg>
