<?xml version="1.0" encoding="iso-8859-1"?>
<!-- Generator: Adobe Illustrator 16.0.0, SVG Export Plug-In . SVG Version: 6.00 Build 0)  -->
<!DOCTYPE svg PUBLIC "-//W3C//DTD SVG 1.1//EN" "http://www.w3.org/Graphics/SVG/1.1/DTD/svg11.dtd">
<svg version="1.1" id="Capa_1" xmlns="http://www.w3.org/2000/svg" xmlns:xlink="http://www.w3.org/1999/xlink" x="0px" y="0px"
	 width="65.403px" height="65.402px" viewBox="0 0 65.403 65.402" style="enable-background:new 0 0 65.403 65.402;"
	 xml:space="preserve">
<g>
	<path d="M32.702,0C14.667,0,0,14.669,0,32.701c0,18.032,14.667,32.701,32.702,32.701c18.034,0,32.701-14.669,32.701-32.701
		C65.403,14.669,50.736,0,32.702,0z M32.702,7.007c12.979,0,23.709,9.68,25.43,22.19H39.718c-1.296-2.579-3.941-4.371-7.017-4.371
		c-3.074,0-5.721,1.792-7.017,4.371H7.271C8.993,16.687,19.721,7.007,32.702,7.007z M29.497,32.701c0-1.765,1.437-3.202,3.205-3.202
		c1.768,0,3.205,1.437,3.205,3.202c0,1.766-1.438,3.203-3.205,3.203C30.934,35.904,29.497,34.467,29.497,32.701z M7.271,36.205
		h18.414c0.761,1.52,1.995,2.749,3.513,3.511v18.41C17.839,56.566,8.835,47.569,7.271,36.205z M36.206,58.126v-18.41
		c1.519-0.765,2.751-1.991,3.513-3.511h18.413C56.569,47.569,47.565,56.566,36.206,58.126z"/>
</g>
<g>
</g>
<g>
</g>
<g>
</g>
<g>
</g>
<g>
</g>
<g>
</g>
<g>
</g>
<g>
</g>
<g>
</g>
<g>
</g>
<g>
</g>
<g>
</g>
<g>
</g>
<g>
</g>
<g>
</g>
</svg>
