<?xml version="1.0" encoding="iso-8859-1"?>
<!-- Generator: Adobe Illustrator 18.1.1, SVG Export Plug-In . SVG Version: 6.00 Build 0)  -->
<svg version="1.1" id="Capa_1" xmlns="http://www.w3.org/2000/svg" xmlns:xlink="http://www.w3.org/1999/xlink" x="0px" y="0px"
	 viewBox="0 0 179.006 179.006" style="enable-background:new 0 0 179.006 179.006;" xml:space="preserve">
<g>
	<path style="fill:#010002;" d="M63.804,119.534c0,0,5.442,9.535,5.442,12.542s-2.423,5.442-5.442,5.442
		c-2.995,0-5.424-2.429-5.424-5.442C58.38,129.069,63.804,119.534,63.804,119.534z M59.722,115.328h-6.235v33.23H42.663v5.108h6.301
		v4.708H0v-4.708h6.307v-52.646h14.732V29.214H4.594v-8.586h173.493v8.586H29.626v71.811h13.044v42.83h6.104v-30.89l0.024-2.357
		h2.321h10.907l3.652,4.684l-3.717,2.894L59.722,115.328z M34.602,109.188H14.344v15.114h20.258V109.188z M179.006,128.604
		c0,5.102-1.372,9.738-3.938,13.437v16.337h-21.469v-8.181H99.104v8.181H77.635v-16.337c-2.566-3.699-3.938-8.33-3.938-13.437
		c0-8.145,3.383-15.15,9.821-18.825c1.838-14.911,10.066-25.848,20.24-25.848h45.199c10.174,0,18.402,10.937,20.24,25.848
		C175.617,113.46,179.006,120.459,179.006,128.604z M98.907,128.604c0-3.878-3.139-7.017-7.017-7.017s-7.017,3.133-7.017,7.017
		c0,3.884,3.133,7.017,7.017,7.017C95.768,135.621,98.907,132.482,98.907,128.604z M137.739,107.01
		c0-6.188,5.03-11.224,11.218-11.224c6.188,0,11.218,5.036,11.218,11.224c0,0.06-0.018,0.119-0.018,0.173
		c0.704,0.048,1.42,0.09,2.094,0.185c-2.017-9.798-7.286-17-13.294-17h-45.199c-6.009,0-11.277,7.208-13.3,17
		c1.265-0.197,2.548-0.364,3.938-0.364h43.343V107.01z M148.879,132.703c0-1.187-0.961-2.154-2.142-2.154h-40.766
		c-1.187,0-2.142,0.967-2.142,2.154c0,1.181,0.955,2.136,2.142,2.136h40.766C147.919,134.845,148.879,133.885,148.879,132.703z
		 M148.879,126.551c0-1.187-0.961-2.142-2.142-2.142h-40.766c-1.187,0-2.142,0.955-2.142,2.142s0.955,2.142,2.142,2.142h40.766
		C147.919,128.693,148.879,127.739,148.879,126.551z M155.884,107.01c0-3.825-3.109-6.928-6.928-6.928
		c-3.819,0-6.916,3.109-6.916,6.928H155.884z M167.824,128.604c0-3.878-3.139-7.017-7.011-7.017c-3.884,0-7.029,3.133-7.029,7.017
		c0,3.884,3.133,7.017,7.029,7.017C164.686,135.621,167.824,132.482,167.824,128.604z"/>
</g>
<g>
</g>
<g>
</g>
<g>
</g>
<g>
</g>
<g>
</g>
<g>
</g>
<g>
</g>
<g>
</g>
<g>
</g>
<g>
</g>
<g>
</g>
<g>
</g>
<g>
</g>
<g>
</g>
<g>
</g>
</svg>
