<?xml version="1.0" encoding="iso-8859-1"?>
<!-- Generator: Adobe Illustrator 16.0.0, SVG Export Plug-In . SVG Version: 6.00 Build 0)  -->
<!DOCTYPE svg PUBLIC "-//W3C//DTD SVG 1.1//EN" "http://www.w3.org/Graphics/SVG/1.1/DTD/svg11.dtd">
<svg version="1.1" id="Capa_1" xmlns="http://www.w3.org/2000/svg" xmlns:xlink="http://www.w3.org/1999/xlink" x="0px" y="0px"
	 width="62.493px" height="62.493px" viewBox="0 0 62.493 62.493" style="enable-background:new 0 0 62.493 62.493;"
	 xml:space="preserve">
<g>
	<path d="M58.989,28.656v3.317L33.453,14.47h4.508v-3.503h-2.628V6.879h-2.335v4.088h-3.503V6.879h-2.336v4.088h-2.628v3.503h4.509
		L3.504,31.973v-3.317H0v9.927h3.504v-3.316l22.938,15.724h-3.371v2.287h-4.671v2.336h25.694v-2.336h-4.672v-2.287H36.05
		l22.938-15.724v3.316h3.504v-9.927H58.989z M9.002,32.452l22.244-15.249L53.492,32.45H9.002V32.452z M53.492,34.788L31.246,50.037
		L9.002,34.788H53.492z"/>
</g>
<g>
</g>
<g>
</g>
<g>
</g>
<g>
</g>
<g>
</g>
<g>
</g>
<g>
</g>
<g>
</g>
<g>
</g>
<g>
</g>
<g>
</g>
<g>
</g>
<g>
</g>
<g>
</g>
<g>
</g>
</svg>
