<?xml version="1.0" encoding="iso-8859-1"?>
<!-- Generator: Adobe Illustrator 18.1.1, SVG Export Plug-In . SVG Version: 6.00 Build 0)  -->
<svg version="1.1" id="Capa_1" xmlns="http://www.w3.org/2000/svg" xmlns:xlink="http://www.w3.org/1999/xlink" x="0px" y="0px"
	 viewBox="0 0 159.035 159.035" style="enable-background:new 0 0 159.035 159.035;" xml:space="preserve">
<g>
	<rect x="75.869" y="73.551" style="fill:#010002;" width="7.309" height="11.934"/>
	<path style="fill:#010002;" d="M70.385,49.391c0.871-5.854,5.877-10.364,11.993-10.364c6.092,0,11.11,4.511,11.993,10.364H70.385z
		 M85.362,24.652h-5.967V36.24h5.967V24.652z M104.754,36.353l-4.219-4.219l-8.193,8.193l4.219,4.219L104.754,36.353z M72.414,39.73
		l-8.193-8.187l-4.219,4.213l8.193,8.193L72.414,39.73z M159.035,114.364h-5.722v7.459h-21.606
		c-1.39,7.142-7.691,12.56-15.239,12.56s-13.843-5.406-15.239-12.56H55.265c-1.396,7.142-7.691,12.56-15.233,12.56
		c-7.554,0-13.843-5.406-15.245-12.56H0V81.302h35.216l17.286-29.858h71.012L140.8,81.302h12.489v21.129h5.722v11.934H159.035z
		 M49.603,118.839c0-5.269-4.29-9.571-9.571-9.571c-5.287,0-9.571,4.302-9.571,9.571c0,5.281,4.296,9.577,9.571,9.577
		S49.603,124.12,49.603,118.839z M126.05,118.839c0-5.269-4.302-9.571-9.571-9.571c-5.269,0-9.571,4.302-9.571,9.571
		c0,5.281,4.296,9.577,9.571,9.577C121.754,128.416,126.05,124.12,126.05,118.839z M147.346,87.268h-9.959l-17.28-29.852H55.963
		L38.677,87.268H5.985v28.587h18.82c1.396-7.142,7.691-12.554,15.245-12.554c7.542,0,13.831,5.406,15.233,12.554h45.963
		c1.39-7.142,7.691-12.554,15.239-12.554c7.548,0,13.843,5.406,15.239,12.554h15.639V87.268H147.346z M85.362,63.377v23.259h44.763
		l-13.467-23.259H85.362z M79.395,63.377H59.388L45.921,86.636h33.468V63.377H79.395z M85.362,91.857h-5.967v7.333h-7.333v5.967
		h7.333v7.339h5.967v-7.339h7.333V99.19h-7.333V91.857z"/>
</g>
<g>
</g>
<g>
</g>
<g>
</g>
<g>
</g>
<g>
</g>
<g>
</g>
<g>
</g>
<g>
</g>
<g>
</g>
<g>
</g>
<g>
</g>
<g>
</g>
<g>
</g>
<g>
</g>
<g>
</g>
</svg>
