<?xml version="1.0" encoding="iso-8859-1"?>
<!-- Generator: Adobe Illustrator 18.1.1, SVG Export Plug-In . SVG Version: 6.00 Build 0)  -->
<svg version="1.1" id="Capa_1" xmlns="http://www.w3.org/2000/svg" xmlns:xlink="http://www.w3.org/1999/xlink" x="0px" y="0px"
	 viewBox="0 0 179.006 179.006" style="enable-background:new 0 0 179.006 179.006;" xml:space="preserve">
<g>
	<g>
		<path style="fill:#010002;" d="M173.654,113.123V84.721H86.818v28.402h-4.314V39.086h6.868v-5.108H77.384v79.151h-4.052V44.975
			H5.358v68.154H0v10.233h5.364v8.443h20.162c1.229,7.488,7.697,13.223,15.526,13.223s14.291-5.734,15.526-13.223h16.761v-8.443
			h13.479v9.547h41.07c1.659,6.933,7.87,12.119,15.305,12.119s13.646-5.185,15.311-12.119h15.138v-9.547h5.364v-10.233
			L173.654,113.123L173.654,113.123z M41.058,139.902c-5.883,0-10.669-4.785-10.669-10.663c0-5.883,4.785-10.669,10.669-10.669
			s10.669,4.785,10.669,10.669C51.721,135.123,46.947,139.902,41.058,139.902z M68.231,126.68H56.584
			c-1.235-7.482-7.697-13.229-15.526-13.229s-14.297,5.746-15.526,13.229H10.484V50.083h57.741L68.231,126.68L68.231,126.68z
			 M143.205,139.902c-5.883,0-10.675-4.785-10.675-10.663c0-5.883,4.791-10.669,10.675-10.669c5.877,0,10.663,4.785,10.663,10.669
			C153.868,135.123,149.082,139.902,143.205,139.902z M168.54,127.789h-9.696c-0.746-8.014-7.435-14.32-15.639-14.32
			c-8.204,0-14.893,6.319-15.639,14.32H91.943V89.834h76.597C168.54,89.834,168.54,127.789,168.54,127.789z"/>
		<rect x="15.914" y="55.781" style="fill:#010002;" width="28.677" height="31.493"/>
	</g>
</g>
<g>
</g>
<g>
</g>
<g>
</g>
<g>
</g>
<g>
</g>
<g>
</g>
<g>
</g>
<g>
</g>
<g>
</g>
<g>
</g>
<g>
</g>
<g>
</g>
<g>
</g>
<g>
</g>
<g>
</g>
</svg>
