<?xml version="1.0" encoding="iso-8859-1"?>
<!-- Generator: Adobe Illustrator 18.1.1, SVG Export Plug-In . SVG Version: 6.00 Build 0)  -->
<svg version="1.1" id="Capa_1" xmlns="http://www.w3.org/2000/svg" xmlns:xlink="http://www.w3.org/1999/xlink" x="0px" y="0px"
	 viewBox="0 0 224.134 224.134" style="enable-background:new 0 0 224.134 224.134;" xml:space="preserve">
<g>
	<path style="fill:#010002;" d="M153.238,51.536l8.228-2.136l-8.228-2.166C152.14,26.177,135.254,9.29,114.203,8.193L112.067,0
		l-2.154,8.193C88.856,9.29,71.975,26.189,70.883,47.24l-8.216,2.154l8.216,2.136c1.086,21.045,17.96,37.937,39.029,39.041
		l2.154,8.21l2.142-8.204C135.272,89.485,152.17,72.593,153.238,51.536z M112.067,84.252c-19.231,0-34.87-15.645-34.87-34.858
		c0-19.237,15.639-34.864,34.87-34.864s34.87,15.627,34.87,34.864C146.937,68.607,131.298,84.252,112.067,84.252z M118.404,49.424
		l-6.086-29.995l-6.593,29.882v0.024v0.036l6.08,29.995l6.605-29.882h0.012l-0.012-0.048l0.012-0.012
		C118.421,49.424,118.404,49.424,118.404,49.424z M108.182,49.322l4.105-18.539l3.759,18.617L108.182,49.322z M92.227,45.163h0.895
		l-2.357,8.467H89.93H89.07l-1.366-6.665l-1.343,6.665h-0.829h-0.853l-2.363-8.467h0.919h0.931l1.396,6.194l1.223-6.194h0.931h0.943
		l1.229,6.14l1.402-6.14H92.227z M141.776,52.133v0.746v0.752h-6.42v-8.467h6.223v0.74v0.752h-4.451v1.814h4.135v0.716v0.74h-4.135
		v2.208H141.776L141.776,52.133z M70.776,181.584H42.63v-46.595h28.146V181.584z M106.333,165.163h-28.14v-30.174h28.14V165.163z
		 M141.901,165.163h-28.152v-30.174h28.152V165.163z M177.458,165.163H149.3v-30.174h28.158V165.163z M201.57,189.991h-6.564
		v-70.582H27.57v70.576h-5.006v11.934h5.012v8.461h27.155c1.408,7.811,8.228,13.754,16.433,13.754
		c8.216,0,15.025-5.943,16.433-13.754h50.885c1.42,7.811,8.24,13.754,16.457,13.754c8.216,0,15.025-5.943,16.433-13.754h23.659
		v-8.461h6.54V189.991L201.57,189.991z M71.158,218.167c-5.943,0-10.776-4.839-10.776-10.77c0-5.943,4.833-10.782,10.776-10.782
		c5.943,0,10.776,4.839,10.776,10.782C81.928,213.345,77.101,218.167,71.158,218.167z M154.933,218.167
		c-5.943,0-10.794-4.839-10.794-10.77c0-5.943,4.845-10.782,10.794-10.782s10.77,4.839,10.77,10.782
		S160.876,218.167,154.933,218.167z M189.039,204.419h-17.68c-1.42-7.811-8.228-13.766-16.433-13.766
		c-8.216,0-15.042,5.955-16.457,13.766H87.585c-1.414-7.811-8.228-13.766-16.433-13.766c-8.216,0-15.031,5.955-16.445,13.766H33.525
		v-79.043h155.515V204.419L189.039,204.419z"/>
</g>
<g>
</g>
<g>
</g>
<g>
</g>
<g>
</g>
<g>
</g>
<g>
</g>
<g>
</g>
<g>
</g>
<g>
</g>
<g>
</g>
<g>
</g>
<g>
</g>
<g>
</g>
<g>
</g>
<g>
</g>
</svg>
