<?xml version="1.0" encoding="iso-8859-1"?>
<!-- Generator: Adobe Illustrator 18.1.1, SVG Export Plug-In . SVG Version: 6.00 Build 0)  -->
<svg version="1.1" id="Capa_1" xmlns="http://www.w3.org/2000/svg" xmlns:xlink="http://www.w3.org/1999/xlink" x="0px" y="0px"
	 viewBox="0 0 179.006 179.006" style="enable-background:new 0 0 179.006 179.006;" xml:space="preserve">
<g>
	<path style="fill:#010002;" d="M179.006,130.564h-5.734v-20.419h-11.773l-16.457-28.42H77.778l-16.457,28.42H27.907v20.419h-4.392
		v10.197h4.392v7.387h23.581c1.211,6.784,7.113,11.946,14.237,11.946s13.032-5.161,14.243-11.946h44.274
		c1.211,6.784,7.118,11.946,14.249,11.946c7.113,0,13.026-5.161,14.237-11.946h20.538v-7.387h5.74V130.564z M65.725,155.004
		c-5.179,0-9.398-4.219-9.398-9.404c0-5.173,4.219-9.392,9.398-9.392c5.185,0,9.404,4.219,9.404,9.392
		C75.129,150.786,70.91,155.004,65.725,155.004z M138.491,155.004c-5.191,0-9.41-4.219-9.41-9.404c0-5.173,4.225-9.392,9.41-9.392
		c5.185,0,9.398,4.219,9.398,9.392C147.889,150.786,143.676,155.004,138.491,155.004z M168.17,143.047h-15.442
		c-1.211-6.784-7.107-11.946-14.237-11.946s-13.038,5.161-14.249,11.946H79.968c-1.211-6.784-7.118-11.946-14.243-11.946
		c-7.124,0-13.026,5.161-14.237,11.946H33.003v-27.806h31.248l16.457-28.408h61.393l16.463,28.408h9.607L168.17,143.047
		L168.17,143.047z M108.585,92.794h27.358v22.143h-27.358C108.585,114.937,108.585,92.794,108.585,92.794z M141.051,96.893
		l10.442,18.026h-10.442V96.893z M84.157,92.794h19.333v22.143H71.34L84.157,92.794z M33.116,56.575L0,56.45
		c2.399-16.701,16.188-29.661,33.229-30.783l0.012-4.207c0.006-1.408,1.146-2.548,2.548-2.548c0,0,0.006,0,0.012,0
		c1.408,0,2.542,1.146,2.536,2.572l-0.012,4.195c17.029,1.271,30.717,14.315,33.009,31.016l-33.116-0.125l-0.125,34.787
		c-0.006,2.279,0.871,4.427,2.482,6.056c1.611,1.617,3.747,2.518,6.027,2.518l0.644,0.024c0.006,0,0.018,0,0.024,0
		c4.618,0,8.455-3.825,8.473-8.521c0.006-1.402,1.146-2.548,2.548-2.548h0.006c1.408,0.012,2.548,1.152,2.542,2.566
		c-0.024,7.512-6.146,13.598-13.646,13.598c-0.018,0-0.03,0-0.048,0l-0.638-0.024c-3.562-0.012-6.981-1.444-9.553-4.022
		c-2.566-2.59-3.974-6.027-3.962-9.672L33.116,56.575z"/>
</g>
<g>
</g>
<g>
</g>
<g>
</g>
<g>
</g>
<g>
</g>
<g>
</g>
<g>
</g>
<g>
</g>
<g>
</g>
<g>
</g>
<g>
</g>
<g>
</g>
<g>
</g>
<g>
</g>
<g>
</g>
</svg>
