<?xml version="1.0" encoding="iso-8859-1"?>
<!-- Generator: Adobe Illustrator 16.0.0, SVG Export Plug-In . SVG Version: 6.00 Build 0)  -->
<!DOCTYPE svg PUBLIC "-//W3C//DTD SVG 1.1//EN" "http://www.w3.org/Graphics/SVG/1.1/DTD/svg11.dtd">
<svg version="1.1" id="Capa_1" xmlns="http://www.w3.org/2000/svg" xmlns:xlink="http://www.w3.org/1999/xlink" x="0px" y="0px"
	 width="70.079px" height="70.079px" viewBox="0 0 70.079 70.079" style="enable-background:new 0 0 70.079 70.079;"
	 xml:space="preserve">
<g>
	<path d="M64.098,41.801c-1.086-8.03-5.509-13.881-10.965-13.881H27.651c-5.458,0-9.88,5.851-10.966,13.881
		c-3.938,1.991-5.978,6.117-5.978,10.903c0,3.677,1.21,6.969,3.551,9.199v7.589h9.443v-4.616h33.385v4.616h9.443v-7.591
		c2.341-2.233,3.55-5.522,3.55-9.202C70.076,47.918,68.037,43.788,64.098,41.801z M27.651,30.749h25.482
		c3.591,0,6.733,4.255,7.901,10.016c-0.584-0.109-1.206-0.171-1.843-0.203c0-0.011,0.005-0.024,0.005-0.034
		c0-3.346-2.717-6.065-6.063-6.065c-3.342,0-6.061,2.719-6.061,6.065H22.379c-0.93,0-1.806,0.08-2.632,0.235
		C20.917,35.004,24.061,30.749,27.651,30.749z M57.308,40.528h-8.345c0-2.297,1.877-4.174,4.17-4.174
		C55.435,36.354,57.308,38.226,57.308,40.528z M20.964,56.658c-2.184,0-3.952-1.769-3.952-3.958c0-2.186,1.772-3.953,3.952-3.953
		c2.189,0,3.957,1.771,3.957,3.953C24.92,54.889,23.15,56.658,20.964,56.658z M51.883,55.955H28.903
		c-0.526,0-0.947-0.422-0.947-0.946c0-0.521,0.428-0.944,0.947-0.944h22.979c0.527,0,0.944,0.427,0.944,0.944
		C52.827,55.533,52.41,55.955,51.883,55.955z M51.883,52.49H28.903c-0.526,0-0.947-0.422-0.947-0.944
		c0-0.52,0.428-0.939,0.947-0.939h22.979c0.527,0,0.944,0.422,0.944,0.939C52.827,52.068,52.41,52.49,51.883,52.49z M59.818,56.658
		c-2.189,0-3.957-1.769-3.957-3.958c0-2.186,1.77-3.953,3.957-3.953c2.184,0,3.951,1.771,3.951,3.953
		C63.778,54.889,62.002,56.658,59.818,56.658z M6.927,7.828v2.695h3.78v3.78h-3.78v2.695h3.78v3.78h-3.78v2.695h3.78v3.78h-3.78
		v2.877c2.185,0.677,3.78,2.686,3.78,5.09c0,2.956-2.398,5.352-5.354,5.352C2.394,40.572,0,38.176,0,35.22
		c0-2.171,1.297-4.027,3.153-4.868V0.586h3.774v3.461h3.78v3.78H6.927z"/>
</g>
<g>
</g>
<g>
</g>
<g>
</g>
<g>
</g>
<g>
</g>
<g>
</g>
<g>
</g>
<g>
</g>
<g>
</g>
<g>
</g>
<g>
</g>
<g>
</g>
<g>
</g>
<g>
</g>
<g>
</g>
</svg>
