<?xml version="1.0" encoding="iso-8859-1"?>
<!-- Generator: Adobe Illustrator 16.0.0, SVG Export Plug-In . SVG Version: 6.00 Build 0)  -->
<!DOCTYPE svg PUBLIC "-//W3C//DTD SVG 1.1//EN" "http://www.w3.org/Graphics/SVG/1.1/DTD/svg11.dtd">
<svg version="1.1" id="Capa_1" xmlns="http://www.w3.org/2000/svg" xmlns:xlink="http://www.w3.org/1999/xlink" x="0px" y="0px"
	 width="70.074px" height="70.074px" viewBox="0 0 70.074 70.074" style="enable-background:new 0 0 70.074 70.074;"
	 xml:space="preserve">
<g>
	<g>
		<path d="M70.074,43.805h-2.582v-9.198h-5.304l-7.418-12.803H24.454l-7.417,12.803H1.981v9.198H0v4.599h1.981v3.33h10.63
			c0.542,3.06,3.203,5.386,6.414,5.386c3.212,0,5.877-2.326,6.419-5.386h19.954c0.543,3.06,3.207,5.386,6.419,5.386
			s5.874-2.326,6.415-5.386h9.261v-3.33h2.582V43.805z M19.025,54.822c-2.335,0-4.232-1.9-4.232-4.236
			c0-2.335,1.897-4.238,4.232-4.238c2.336,0,4.235,1.903,4.235,4.238C23.26,52.922,21.361,54.822,19.025,54.822z M51.816,54.822
			c-2.336,0-4.235-1.9-4.235-4.236c0-2.335,1.899-4.238,4.235-4.238s4.233,1.903,4.233,4.238
			C56.05,52.922,54.152,54.822,51.816,54.822z M65.19,49.435h-6.959c-0.541-3.057-3.203-5.388-6.415-5.388s-5.876,2.331-6.419,5.388
			H25.444c-0.542-3.057-3.207-5.388-6.419-5.388c-3.211,0-5.873,2.331-6.414,5.388h-8.33V36.902h14.083L25.78,24.1h27.67
			l7.422,12.803h4.327v12.532H65.19z"/>
		<polygon points="52.966,36.761 57.675,36.761 52.966,28.636 		"/>
		<rect x="38.336" y="26.786" width="12.331" height="9.98"/>
		<polygon points="21.553,36.761 36.042,36.761 36.042,26.786 27.327,26.786 		"/>
		<path d="M15.285,19.218h-1.56v-0.666c0-3.863-2.448-5.597-4.866-5.597H7.993c-2.417,0-4.865,1.733-4.865,5.597v0.666H1.567v13.723
			h13.718V19.218z M12.279,19.218H4.573v-0.666c0-2.565,1.313-4.15,3.419-4.15h0.867c2.107,0,3.419,1.593,3.419,4.15V19.218z"/>
	</g>
</g>
<g>
</g>
<g>
</g>
<g>
</g>
<g>
</g>
<g>
</g>
<g>
</g>
<g>
</g>
<g>
</g>
<g>
</g>
<g>
</g>
<g>
</g>
<g>
</g>
<g>
</g>
<g>
</g>
<g>
</g>
</svg>
