<?xml version="1.0" encoding="iso-8859-1"?>
<!-- Generator: Adobe Illustrator 16.0.0, SVG Export Plug-In . SVG Version: 6.00 Build 0)  -->
<!DOCTYPE svg PUBLIC "-//W3C//DTD SVG 1.1//EN" "http://www.w3.org/Graphics/SVG/1.1/DTD/svg11.dtd">
<svg version="1.1" id="Capa_1" xmlns="http://www.w3.org/2000/svg" xmlns:xlink="http://www.w3.org/1999/xlink" x="0px" y="0px"
	 width="87.621px" height="87.62px" viewBox="0 0 87.621 87.62" style="enable-background:new 0 0 87.621 87.62;"
	 xml:space="preserve">
<g>
	<g>
		<path d="M80.754,38.275c-1.255-9.448-6.472-16.344-12.896-16.344H38.136c-6.43,0-11.644,6.894-12.903,16.341
			c-4.52,2.341-6.862,7.127-6.862,12.666c0,4.112,1.299,7.806,3.811,10.396v9.188H33.86v-5.383h38.271v5.383h11.68v-9.188
			c2.512-2.589,3.81-6.281,3.81-10.396C87.621,45.407,85.278,40.618,80.754,38.275z M38.138,25.437h29.724
			c4.138,0,7.753,4.913,9.105,11.567c-0.632-0.112-1.295-0.18-1.984-0.217c0-0.015,0.005-0.031,0.005-0.044
			c0-3.936-3.193-7.136-7.131-7.136c-3.937,0-7.135,3.2-7.135,7.136H31.981c-1.047,0-2.03,0.096-2.964,0.261
			C30.379,30.347,34.001,25.437,38.138,25.437z M72.657,36.746h-9.59c0-2.647,2.153-4.801,4.799-4.801
			C70.507,31.943,72.657,34.096,72.657,36.746z M30.337,55.556c-2.553,0-4.62-2.062-4.62-4.617c0-2.551,2.067-4.617,4.62-4.617
			c2.546,0,4.613,2.066,4.613,4.617C34.95,53.495,32.883,55.556,30.337,55.556z M66.397,54.807H39.594
			c-0.645,0-1.168-0.526-1.168-1.167c0-0.646,0.523-1.168,1.168-1.168h26.803c0.644,0,1.168,0.521,1.168,1.168
			C67.565,54.28,67.041,54.807,66.397,54.807z M66.397,50.765H39.594c-0.645,0-1.168-0.524-1.168-1.168
			c0-0.643,0.523-1.168,1.168-1.168h26.803c0.644,0,1.168,0.525,1.168,1.168C67.565,50.24,67.041,50.765,66.397,50.765z
			 M75.654,55.556c-2.55,0-4.617-2.062-4.617-4.617c0-2.551,2.067-4.617,4.617-4.617s4.617,2.066,4.617,4.617
			C80.266,53.495,78.204,55.556,75.654,55.556z M11.797,17.097C5.283,17.097,0,22.378,0,28.896c0,6.516,5.283,11.797,11.797,11.797
			c6.515,0,11.799-5.282,11.799-11.797C23.596,22.38,18.312,17.097,11.797,17.097z M13.804,26.047l-0.431,2.312h-2.939v0.594v0.59
			h2.714l-0.437,2.312h-2.053c0.091,0.388,0.208,0.744,0.336,1.065c0.364,0.853,0.927,1.28,1.703,1.28
			c0.518,0,0.943-0.188,1.289-0.569c0.343-0.378,0.554-0.897,0.626-1.549h3.121c-0.163,1.493-0.703,2.677-1.607,3.553
			c-0.912,0.874-2.055,1.313-3.448,1.313c-1.801,0-3.148-0.664-4.043-1.993c-0.537-0.811-0.916-1.843-1.125-3.098h-1.64l0.432-2.312
			h0.981v-0.559v-0.626H5.869l0.432-2.312h1.196c0.234-1.299,0.611-2.352,1.14-3.163c0.9-1.354,2.245-2.032,4.043-2.032
			c1.355,0,2.485,0.456,3.399,1.371c0.914,0.916,1.464,2.15,1.656,3.708h-3.123c-0.086-0.719-0.31-1.288-0.675-1.703
			c-0.359-0.421-0.803-0.633-1.322-0.633c-0.749,0-1.306,0.432-1.656,1.291c-0.134,0.325-0.239,0.71-0.325,1.161L13.804,26.047
			L13.804,26.047z"/>
	</g>
</g>
<g>
</g>
<g>
</g>
<g>
</g>
<g>
</g>
<g>
</g>
<g>
</g>
<g>
</g>
<g>
</g>
<g>
</g>
<g>
</g>
<g>
</g>
<g>
</g>
<g>
</g>
<g>
</g>
<g>
</g>
</svg>
