<?xml version="1.0" encoding="iso-8859-1"?>
<!-- Generator: Adobe Illustrator 16.0.0, SVG Export Plug-In . SVG Version: 6.00 Build 0)  -->
<!DOCTYPE svg PUBLIC "-//W3C//DTD SVG 1.1//EN" "http://www.w3.org/Graphics/SVG/1.1/DTD/svg11.dtd">
<svg version="1.1" id="Capa_1" xmlns="http://www.w3.org/2000/svg" xmlns:xlink="http://www.w3.org/1999/xlink" x="0px" y="0px"
	 width="77.082px" height="77.082px" viewBox="0 0 77.082 77.082" style="enable-background:new 0 0 77.082 77.082;"
	 xml:space="preserve">
<g>
	<path d="M12.049,19.812H0.977v-2.693h0.392v-5.146h6.113v1.346H2.714v3.8h2.452v-2.788h2.688v2.788h4.194V19.812z M12.049,21.001
		H0.977v2.688h11.072V21.001z M12.049,24.871H0.977v2.695h11.072V24.871z M13.018,34.301v-5.389H0v5.389h2.044v2.474H0v5.384h2.474
		v16.498h2.363v2.356h0.334v1.408H4.835v2.688h3.354v-2.688H7.855v-1.408h0.334v-2.356h2.369V42.158h2.467v-5.384h-2.046v-2.474
		H13.018z M77.082,53.169h-0.099v2.328h-4.179v7.435H62.401v-7.435H35.182v7.435H24.776v-7.435h-4.174v-2.328h-0.101l0.101-0.432
		V30.166h5.155l3.664-16.017h38.748l3.656,16.017h5.157v22.571L77.082,53.169z M32.017,35.587h-7.683v7.687h7.683V35.587z
		 M61.689,48.258H35.895v2.084h25.794V48.258z M61.689,41.795H35.895v2.085h25.794V41.795z M61.689,35.326H35.895v2.083h25.794
		V35.326z M64.527,29.615c0-1.901-1.549-3.455-3.454-3.455c-1.902,0-3.456,1.551-3.456,3.455c0,0.188,0.03,0.371,0.053,0.551h6.798
		C64.5,29.986,64.527,29.804,64.527,29.615z M66.607,29.615c0,0.188-0.036,0.366-0.053,0.551h1.009l-2.708-11.857H32.739
		l-2.71,11.857h25.569c-0.021-0.185-0.055-0.362-0.055-0.551c0-3.053,2.482-5.534,5.534-5.534
		C64.126,24.082,66.607,26.564,66.607,29.615z M73.25,35.587h-7.683v7.687h7.683V35.587z"/>
</g>
<g>
</g>
<g>
</g>
<g>
</g>
<g>
</g>
<g>
</g>
<g>
</g>
<g>
</g>
<g>
</g>
<g>
</g>
<g>
</g>
<g>
</g>
<g>
</g>
<g>
</g>
<g>
</g>
<g>
</g>
</svg>
