<?xml version="1.0" encoding="iso-8859-1"?>
<!-- Generator: Adobe Illustrator 16.0.0, SVG Export Plug-In . SVG Version: 6.00 Build 0)  -->
<!DOCTYPE svg PUBLIC "-//W3C//DTD SVG 1.1//EN" "http://www.w3.org/Graphics/SVG/1.1/DTD/svg11.dtd">
<svg version="1.1" id="Capa_1" xmlns="http://www.w3.org/2000/svg" xmlns:xlink="http://www.w3.org/1999/xlink" x="0px" y="0px"
	 width="71.242px" height="71.243px" viewBox="0 0 71.242 71.243" style="enable-background:new 0 0 71.242 71.243;"
	 xml:space="preserve">
<g>
	<path d="M71.242,51.648h-2.744V37.656h-9.703c-3.096-11.289-13.066-19.098-24.547-19.098c-11.481,0-21.448,7.809-24.545,19.098H0
		v22.599h8.39c0.563,3.47,3.553,6.134,7.183,6.134s6.622-2.664,7.186-6.134h22.984c0.563,3.47,3.557,6.134,7.184,6.134
		c3.626,0,6.619-2.664,7.181-6.134h8.392V56.32h2.744V51.648L71.242,51.648z M15.573,64.052c-2.737,0-4.966-2.229-4.966-4.966
		c0-2.739,2.229-4.971,4.966-4.971c2.74,0,4.968,2.231,4.968,4.971C20.541,61.824,18.312,64.052,15.573,64.052z M52.926,64.052
		c-2.737,0-4.967-2.229-4.967-4.966c0-2.739,2.229-4.971,4.967-4.971s4.966,2.231,4.966,4.971
		C57.892,61.824,55.663,64.052,52.926,64.052z M66.162,57.918h-6.056c-0.562-3.47-3.555-6.139-7.181-6.139
		c-3.627,0-6.62,2.669-7.184,6.139H22.758c-0.563-3.47-3.555-6.139-7.186-6.139c-3.628,0-6.62,2.669-7.183,6.139H2.336V39.992h9.198
		l0.214-0.898c2.554-10.713,11.808-18.2,22.504-18.2c10.699,0,19.953,7.487,22.505,18.2l0.219,0.898h9.195v17.927H66.162z"/>
	<path d="M39.978,16.676c-0.425-2.806-2.817-4.955-5.729-4.955c-2.917,0-5.309,2.149-5.728,4.955H39.978z"/>
	<path d="M33.08,4.854h2.336v5.536H33.08V4.854z M43.104,8.605l1.651,1.652l-3.915,3.914l-1.652-1.651L43.104,8.605z M25.386,8.32
		l3.912,3.912l-1.649,1.652l-3.915-3.912L25.386,8.32z"/>
	<path d="M35.416,25.612v14.886h16.88l-0.078-0.319C50.261,31.973,43.445,26.133,35.416,25.612z"/>
	<path d="M33.08,25.612c-8.031,0.526-14.842,6.361-16.797,14.566l-0.077,0.319h16.878L33.08,25.612L33.08,25.612z"/>
	<polygon points="36,44.474 32.496,44.474 32.496,48.098 28.873,48.098 28.873,51.602 32.496,51.602 32.496,55.224 36,55.224 
		36,51.602 39.624,51.602 39.624,48.098 36,48.098 	"/>
</g>
<g>
</g>
<g>
</g>
<g>
</g>
<g>
</g>
<g>
</g>
<g>
</g>
<g>
</g>
<g>
</g>
<g>
</g>
<g>
</g>
<g>
</g>
<g>
</g>
<g>
</g>
<g>
</g>
<g>
</g>
</svg>
