<?xml version="1.0" encoding="iso-8859-1"?>
<!-- Generator: Adobe Illustrator 16.0.0, SVG Export Plug-In . SVG Version: 6.00 Build 0)  -->
<!DOCTYPE svg PUBLIC "-//W3C//DTD SVG 1.1//EN" "http://www.w3.org/Graphics/SVG/1.1/DTD/svg11.dtd">
<svg version="1.1" id="Capa_1" xmlns="http://www.w3.org/2000/svg" xmlns:xlink="http://www.w3.org/1999/xlink" x="0px" y="0px"
	 width="79.525px" height="79.525px" viewBox="0 0 79.525 79.525" style="enable-background:new 0 0 79.525 79.525;"
	 xml:space="preserve">
<g>
	<g>
		<polygon points="48.05,7.703 41.778,7.703 41.778,3.524 37.747,3.524 37.747,7.703 34.082,7.703 34.082,2.015 41.216,2.015 
			41.216,0 32.068,0 32.068,7.703 31.476,7.703 31.476,11.735 48.05,11.735 		"/>
		<rect x="31.476" y="13.509" width="16.576" height="4.032"/>
		<rect x="31.476" y="19.315" width="16.576" height="4.032"/>
		<polygon points="49.505,33.421 49.505,25.36 30.02,25.36 30.02,33.421 33.076,33.421 33.076,37.116 30.02,37.116 30.02,45.176 
			33.718,45.176 33.718,69.874 37.256,69.874 37.256,73.393 37.747,73.393 37.747,75.494 37.256,75.494 37.256,79.525 42.27,79.525 
			42.27,75.494 41.778,75.494 41.778,73.393 42.27,73.393 42.27,69.874 45.808,69.874 45.808,45.176 49.505,45.176 49.505,37.116 
			46.448,37.116 46.448,33.421 		"/>
	</g>
</g>
<g>
</g>
<g>
</g>
<g>
</g>
<g>
</g>
<g>
</g>
<g>
</g>
<g>
</g>
<g>
</g>
<g>
</g>
<g>
</g>
<g>
</g>
<g>
</g>
<g>
</g>
<g>
</g>
<g>
</g>
</svg>
