<?xml version="1.0" encoding="iso-8859-1"?>
<!-- Generator: Adobe Illustrator 18.1.1, SVG Export Plug-In . SVG Version: 6.00 Build 0)  -->
<svg version="1.1" id="Capa_1" xmlns="http://www.w3.org/2000/svg" xmlns:xlink="http://www.w3.org/1999/xlink" x="0px" y="0px"
	 viewBox="0 0 179.006 179.006" style="enable-background:new 0 0 179.006 179.006;" xml:space="preserve">
<g>
	<path style="fill:#010002;" d="M179.006,130.549h-6.552V59.967H81.991c3.347-1.319,6.426-3.288,9.052-5.901l2.112-2.112
		L76.442,35.24l12.572-12.572l-4.219-4.219l-12.56,12.566L55.522,14.309l-2.112,2.112c-10.37,10.376-10.376,27.257-0.006,37.633
		c2.613,2.619,5.704,4.6,9.058,5.913H5.024v70.582H0v11.934h5.024v8.455h27.143c1.408,7.817,8.228,13.76,16.433,13.76
		c8.216,0,15.031-5.943,16.445-13.76h50.897c1.408,7.817,8.228,13.76,16.433,13.76c8.216,0,15.025-5.943,16.433-13.76h23.659v-8.455
		h6.54V130.549L179.006,130.549z M57.622,49.835c-7.333-7.333-7.978-18.843-1.951-26.934l28.892,28.904
		c-3.544,2.643-7.829,4.087-12.328,4.087C66.704,55.88,61.518,53.732,57.622,49.835z M48.594,158.731
		c-5.943,0-10.776-4.833-10.776-10.776c0-5.937,4.833-10.77,10.776-10.77s10.782,4.833,10.782,10.77
		C59.37,153.898,54.537,158.731,48.594,158.731z M132.369,158.731c-5.943,0-10.782-4.833-10.782-10.776
		c0-5.937,4.839-10.77,10.782-10.77c5.943,0,10.77,4.833,10.77,10.77C143.133,153.898,138.312,158.731,132.369,158.731z
		 M166.488,144.971h-17.692c-1.42-7.817-8.228-13.754-16.433-13.754c-8.216,0-15.037,5.937-16.445,13.754H65.021
		c-1.408-7.817-8.228-13.754-16.433-13.754c-8.216,0-15.031,5.937-16.445,13.754H10.979V65.934h155.509V144.971L166.488,144.971z
		 M46.136,104.301H16.301v-32.77h29.834V104.301z"/>
</g>
<g>
</g>
<g>
</g>
<g>
</g>
<g>
</g>
<g>
</g>
<g>
</g>
<g>
</g>
<g>
</g>
<g>
</g>
<g>
</g>
<g>
</g>
<g>
</g>
<g>
</g>
<g>
</g>
<g>
</g>
</svg>
