<?xml version='1.0' encoding='iso-8859-1'?>
<svg version="1.1" xmlns="http://www.w3.org/2000/svg" viewBox="0 0 276.223 276.223" xmlns:xlink="http://www.w3.org/1999/xlink" enable-background="new 0 0 276.223 276.223">
  <g>
    <path d="m195.5,12.357h-174v221.508h-21.5v30h21.5 174 21.5v-30h-21.5v-221.508zm-30,91.754h-114v-17.333h114v17.333zm0,30v17.333h-114v-17.333h114zm0-91.754v14.421h-114v-14.421h114zm-114,191.508v-52.421h114v52.421h-114z"/>
    <polygon points="241.324,111.519 255.01,125.203 276.223,103.99 241.324,69.093 206.427,103.99 227.64,125.203  "/>
    <polygon points="241.324,164.704 227.64,151.02 206.427,172.232 241.324,207.13 276.223,172.232 255.01,151.02  "/>
  </g>
</svg>
