<?xml version='1.0' encoding='iso-8859-1'?>
<svg version="1.1" xmlns="http://www.w3.org/2000/svg" viewBox="0 0 246.469 246.469" xmlns:xlink="http://www.w3.org/1999/xlink" enable-background="new 0 0 246.469 246.469">
  <path d="M191.367,216.469h-8.774v-17.297c0-27.242-18.951-50.128-44.357-56.206v-9.877h84.396L188.729,0H57.742L23.837,133.089  h84.397v9.877c-25.407,6.078-44.357,28.963-44.357,56.206v17.297H25.815v30h38.063h118.715h38.063v-23.876h0.711v-22.158h-30  V216.469z M81.058,30h84.354l18.619,73.089H62.438L81.058,30z M93.877,216.469v-17.297c0-15.329,12.472-27.801,27.802-27.801h3.112  c15.329,0,27.801,12.472,27.801,27.801v17.297H93.877z"/>
</svg>
