<?xml version='1.0' encoding='iso-8859-1'?>
<svg version="1.1" xmlns="http://www.w3.org/2000/svg" viewBox="0 0 264.396 264.396" xmlns:xlink="http://www.w3.org/1999/xlink" enable-background="new 0 0 264.396 264.396">
  <path d="m264.396,176.942l-50.698-89.772v-61.887h-163v61.887l-50.698,89.772h71.23c-0.007,0.391-0.032,0.779-0.032,1.171 0,33.636 27.364,61 61,61s61-27.364 61-61c0-0.392-0.025-0.78-0.032-1.171h71.23zm-183.698-121.659h103v20.83h-103v-20.83zm-6.244,50.83h115.488l23.058,40.829h-161.604l23.058-40.829zm88.744,72c0,17.094-13.906,31-31,31s-31-13.906-31-31c0-0.392 0.018-0.781 0.032-1.171h61.936c0.014,0.39 0.032,0.779 0.032,1.171z"/>
</svg>
