<?xml version='1.0' encoding='iso-8859-1'?>
<svg version="1.1" xmlns="http://www.w3.org/2000/svg" viewBox="0 0 274 274" xmlns:xlink="http://www.w3.org/1999/xlink" enable-background="new 0 0 274 274">
  <g>
    <path d="M0,25.772v149.302h274V25.772H0z M244,55.772v49.984H30V55.772H244z M30,145.074v-9.317h214v9.317H30z"/>
    <rect width="27.333" x="45.334" y="66.09" height="30"/>
    <rect width="27.334" x="91" y="66.09" height="30"/>
    <path d="m56.013,248.226l-28.624-8.979 16.088-51.284 28.624,8.979-16.088,51.284zm57.168,.002l-28.624-8.979 16.088-51.284 28.624,8.979-16.088,51.284zm57.169-.022l-28.626-8.979 16.087-51.288 28.626,8.979-16.087,51.288zm57.164-.001l-28.626-8.979 16.087-51.288 28.626,8.979-16.087,51.288z"/>
  </g>
</svg>
