<?xml version='1.0' encoding='iso-8859-1'?>
<svg version="1.1" xmlns="http://www.w3.org/2000/svg" viewBox="0 0 254.496 254.496" xmlns:xlink="http://www.w3.org/1999/xlink" enable-background="new 0 0 254.496 254.496">
  <g>
    <path d="M127.248,0C57.083,0,0,57.083,0,127.248s57.083,127.248,127.248,127.248s127.248-57.083,127.248-127.248   S197.413,0,127.248,0z M142.248,223.339v-12.091h-30v12.091c-41.636-6.474-74.617-39.455-81.091-81.091h12.091v-30H31.157   c6.474-41.636,39.455-74.617,81.091-81.091v12.091h30V31.157c41.636,6.474,74.617,39.455,81.091,81.091h-12.091v30h12.091   C216.865,183.884,183.884,216.865,142.248,223.339z"/>
    <polygon points="142.248,74.248 112.248,74.248 112.248,135.164 171.45,175.632 188.38,150.864 142.248,119.332  "/>
  </g>
</svg>
