<?xml version='1.0' encoding='iso-8859-1'?>
<svg version="1.1" xmlns="http://www.w3.org/2000/svg" viewBox="0 0 277.112 277.112" xmlns:xlink="http://www.w3.org/1999/xlink" enable-background="new 0 0 277.112 277.112">
  <g>
    <rect width="30" x="123.556" y="53" height="41.667"/>
    <path d="m188.846,71.177l-22.465,19.885c6.007,6.785 9.314,15.51 9.314,24.566 0,20.479-16.661,37.139-37.14,37.139s-37.139-16.66-37.139-37.139c0-9.036 3.294-17.745 9.275-24.523l-22.494-19.85c-10.821,12.263-16.781,28.021-16.781,44.373 0,37.021 30.118,67.139 67.139,67.139s67.14-30.118 67.14-67.139c0-16.389-5.984-32.175-16.849-44.451z"/>
    <path d="m222.784,35.972c-22.596-23.198-52.509-35.972-84.228-35.972s-61.632,12.774-84.228,35.972c-22.372,22.967-34.693,53.136-34.693,84.949 0,32.21 18.955,67.55 56.339,105.036 26.692,26.766 53.065,44.715 54.175,45.466l8.407,5.689 8.407-5.689c1.109-0.751 27.482-18.7 54.175-45.466 37.385-37.486 56.34-72.826 56.34-105.036-5.68434e-14-31.814-12.322-61.983-34.694-84.949zm-84.236,204.62c-30.908-22.91-88.913-75.107-88.913-119.671-7.10543e-15-49.284 40.72-90.921 88.921-90.921s88.922,41.637 88.922,90.921c0,44.463-58.028,96.726-88.93,119.671z"/>
  </g>
</svg>
