<?xml version='1.0' encoding='iso-8859-1'?>
<svg version="1.1" xmlns="http://www.w3.org/2000/svg" viewBox="0 0 266.798 266.798" xmlns:xlink="http://www.w3.org/1999/xlink" enable-background="new 0 0 266.798 266.798">
  <polygon points="266.798,113.613 248.489,89.847 211.43,118.399 169.611,118.399 199.181,88.829 245.575,82.813 241.718,53.063   209.565,57.232 213.734,25.081 183.984,21.223 177.968,67.616 148.398,97.186 148.398,55.369 176.95,18.309 153.185,0   133.398,25.682 113.612,0 89.847,18.309 118.398,55.369 118.398,97.186 88.828,67.615 82.813,21.223 53.063,25.081 57.231,57.232   25.08,53.063 21.223,82.813 67.617,88.829 97.186,118.399 55.368,118.399 18.309,89.847 0,113.613 25.682,133.399 0,153.185   18.309,176.951 55.368,148.399 97.186,148.399 67.617,177.969 21.223,183.985 25.08,213.735 57.231,209.566 53.063,241.717   82.813,245.575 88.828,199.183 118.398,169.612 118.398,211.429 89.847,248.489 113.612,266.797 133.398,241.116 153.185,266.797   176.95,248.489 148.398,211.429 148.398,169.612 177.968,199.182 183.984,245.575 213.734,241.717 209.565,209.566 241.718,213.735   245.575,183.985 199.181,177.969 169.611,148.399 211.43,148.399 248.489,176.951 266.798,153.185 241.116,133.399 "/>
</svg>
