<?xml version='1.0' encoding='iso-8859-1'?>
<svg version="1.1" xmlns="http://www.w3.org/2000/svg" viewBox="0 0 260.988 260.988" xmlns:xlink="http://www.w3.org/1999/xlink" enable-background="new 0 0 260.988 260.988">
  <g>
    <path d="M0,0v260.988h260.988V0H0z M230.988,230.988H30V30h200.988V230.988z"/>
    <path d="m130.494,209.827c43.745,0 79.334-35.589 79.334-79.333s-35.589-79.333-79.334-79.333c-43.744,0-79.333,35.589-79.333,79.333s35.589,79.333 79.333,79.333zm0-128.666c27.203,0 49.334,22.131 49.334,49.333s-22.131,49.333-49.334,49.333c-27.202,0-49.333-22.131-49.333-49.333s22.131-49.333 49.333-49.333z"/>
    <rect width="25.63" x="94.436" y="115.494" height="30"/>
    <rect width="25.63" x="140.924" y="115.494" height="30"/>
  </g>
</svg>
