<?xml version='1.0' encoding='iso-8859-1'?>
<svg version="1.1" xmlns="http://www.w3.org/2000/svg" viewBox="0 0 255.295 255.295" xmlns:xlink="http://www.w3.org/1999/xlink" enable-background="new 0 0 255.295 255.295">
  <g>
    <path d="M193.3,30.783v30.665h-51.543V34.446h11.066c3.362,2.776,7.671,4.445,12.362,4.445c10.723,0,19.445-8.723,19.445-19.445   S175.908,0,165.185,0c-4.691,0-9,1.67-12.362,4.446h-52.13C97.33,1.67,93.022,0,88.331,0C77.608,0,68.885,8.724,68.885,19.446   s8.723,19.445,19.445,19.445c4.691,0,8.999-1.669,12.362-4.445h11.065v27.002H56.334v57.553H41.633v30h59.402v-30H86.334V91.448   H193.3v30.664h30V30.783H193.3z"/>
    <path d="m81.915,167.661l-10.58-10.525-10.58,10.525c-0.274,0.273-6.806,6.793-13.379,15.148-10.493,13.338-15.381,23.87-15.381,33.146 0,21.692 17.647,39.34 39.34,39.34s39.34-17.647 39.34-39.34c0-9.275-4.888-19.808-15.381-33.146-6.574-8.355-13.105-14.874-13.379-15.148zm-10.581,57.634c-5.088,0-9.239-4.09-9.338-9.154 0.462-2.836 4.228-8.83 9.33-15.287 5.083,6.447 8.888,12.488 9.346,15.287-0.099,5.064-4.25,9.154-9.338,9.154z"/>
  </g>
</svg>
