<?xml version="1.0" encoding="iso-8859-1"?>
<!-- Generator: Adobe Illustrator 16.0.0, SVG Export Plug-In . SVG Version: 6.00 Build 0)  -->
<!DOCTYPE svg PUBLIC "-//W3C//DTD SVG 1.1//EN" "http://www.w3.org/Graphics/SVG/1.1/DTD/svg11.dtd">
<svg version="1.1" id="Capa_1" xmlns="http://www.w3.org/2000/svg" xmlns:xlink="http://www.w3.org/1999/xlink" x="0px" y="0px"
	 width="40.357px" height="40.357px" viewBox="0 0 40.357 40.357" style="enable-background:new 0 0 40.357 40.357;"
	 xml:space="preserve">
<g>
	<g>
		<path d="M20.488,0C10.753,0,2.77,7.627,2.189,17.22c-0.311,0.272-0.511,0.668-0.511,1.114v3.911c0,0.822,0.667,1.489,1.489,1.489
			h9.28c0.823,0,1.489-0.667,1.489-1.489v-3.911c0-0.318-0.104-0.615-0.275-0.857c0.426-3.394,3.322-6.028,6.829-6.028
			c3.8,0,6.89,3.091,6.89,6.891v19.729c0,0.819,0.666,1.487,1.488,1.487h8.471c0.822,0,1.488-0.668,1.488-1.487V18.34
			C38.825,8.226,30.601,0,20.488,0z M10.958,20.758H4.655v-0.931h6.303V20.758z M35.851,36.577h-0.002h-5.494V18.338
			c0-5.441-4.424-9.866-9.865-9.866c-4.931,0-9.03,3.639-9.751,8.374H5.205C5.958,9.075,12.527,2.978,20.493,2.978
			c8.469,0,15.358,6.891,15.358,15.36V36.577z"/>
		<path d="M6.364,26.581c-0.807,0.81-4.834,4.987-4.834,7.888c0,3.246,2.641,5.889,5.887,5.889s5.887-2.643,5.887-5.889
			c0-2.897-4.027-7.078-4.833-7.888C7.914,26.021,6.922,26.021,6.364,26.581z M7.418,37.376c-1.605,0-2.91-1.305-2.91-2.907
			c0-0.884,1.367-2.897,2.91-4.652c1.542,1.752,2.908,3.77,2.908,4.652C10.328,36.071,9.022,37.376,7.418,37.376z"/>
	</g>
</g>
<g>
</g>
<g>
</g>
<g>
</g>
<g>
</g>
<g>
</g>
<g>
</g>
<g>
</g>
<g>
</g>
<g>
</g>
<g>
</g>
<g>
</g>
<g>
</g>
<g>
</g>
<g>
</g>
<g>
</g>
</svg>
