<?xml version="1.0" encoding="iso-8859-1"?>
<!-- Generator: Adobe Illustrator 16.0.0, SVG Export Plug-In . SVG Version: 6.00 Build 0)  -->
<!DOCTYPE svg PUBLIC "-//W3C//DTD SVG 1.1//EN" "http://www.w3.org/Graphics/SVG/1.1/DTD/svg11.dtd">
<svg version="1.1" id="Capa_1" xmlns="http://www.w3.org/2000/svg" xmlns:xlink="http://www.w3.org/1999/xlink" x="0px" y="0px"
	 width="74.188px" height="74.188px" viewBox="0 0 74.188 74.188" style="enable-background:new 0 0 74.188 74.188;"
	 xml:space="preserve">
<g>
	<g>
		<path d="M50.549,28.382V19.27c0-1.136-0.92-2.056-2.056-2.056s-2.056,0.92-2.056,2.056v5.001l-9.749-9.748
			c-0.805-0.802-2.104-0.802-2.906,0L21.03,27.276c-0.803,0.803-0.803,2.104,0,2.907c0.802,0.803,2.104,0.803,2.906,0l11.301-11.301
			L61.46,45.106c0.4,0.4,0.929,0.603,1.453,0.603c0.526,0,1.054-0.199,1.453-0.603c0.803-0.803,0.803-2.104,0-2.907L50.549,28.382z"
			/>
		<path d="M58.486,44.559L36.689,22.763c-0.385-0.385-0.907-0.603-1.452-0.603c-0.546,0-1.068,0.218-1.453,0.603l-8.376,8.375
			c5.544,2.765,9.515,8.215,10.199,14.648c1.695,0.338,2.96,1.834,2.96,3.604v7.812c0,1.252,0.47,2.448,1.323,3.373
			c0.938,1.016,2.268,1.598,3.646,1.598h10.638c2.74,0,4.969-2.229,4.969-4.971V46.566c0-0.312-0.027-0.629-0.092-0.941
			C58.973,45.22,58.776,44.85,58.486,44.559z"/>
		<path d="M73.984,20.866l-4.536-9.409c-0.245-0.508-0.688-0.894-1.228-1.065c-0.537-0.172-1.121-0.115-1.615,0.156l-9.153,5.033
			c-0.719,0.396-1.134,1.183-1.056,2s0.638,1.509,1.421,1.759l2.315,0.741c-0.271,1.163-0.565,2.287-0.92,3.348
			c-1.094,3.254-2.255,5.807-3.42,7.821l6.161,5.782c3.953-4.561,6.502-10.49,7.747-13.892l1.807,0.576
			c0.779,0.251,1.637,0.011,2.176-0.609c0.188-0.214,0.322-0.461,0.408-0.722C74.247,21.893,74.217,21.349,73.984,20.866z"/>
		<path d="M16.7,31.521C7.491,31.521,0,39.014,0,48.223c0,4.461,1.737,8.653,4.892,11.811c0.802,0.803,2.104,0.803,2.907-0.002
			c0.803-0.804,0.803-2.104,0-2.906c-2.377-2.377-3.687-5.539-3.687-8.901c0-6.939,5.647-12.589,12.589-12.589
			s12.59,5.646,12.59,12.589c0,3.362-1.31,6.524-3.687,8.901c-0.804,0.804-0.804,2.104,0,2.906c0.401,0.4,0.928,0.604,1.453,0.604
			c0.526,0,1.052-0.202,1.453-0.603c3.155-3.154,4.893-7.351,4.893-11.812C33.401,39.014,25.909,31.521,16.7,31.521z"/>
		<path d="M14.959,61.267h-3.457v-0.028l2.629-1.654c1.292-0.812,1.902-1.687,1.902-2.902c0-1.613-1.075-3.297-4.167-3.297
			c-2.586,0-3.95,1.479-3.95,2.875c0,0.826,0.377,1.406,1.423,1.406c1.64,0,0.784-2.02,2.439-2.02c0.784,0,1.264,0.464,1.264,1.178
			c0,0.596-0.261,1.002-0.973,1.494l-1.379,0.958C8.017,61.136,7.8,61.6,7.8,62.502c0,0.625,0.464,1.205,1.233,1.205h5.925
			c0.872,0,1.234-0.448,1.234-1.219C16.192,61.717,15.83,61.267,14.959,61.267z"/>
		<path d="M23.918,59.365v-4.531c0-0.942-0.61-1.539-1.7-1.539c-0.755,0-1.176,0.334-2.003,1.322l-3.035,3.658
			c-0.64,0.77-0.872,1.266-0.872,1.803c0,0.871,0.378,1.554,1.366,1.554h3.427v0.696c0,0.959,0.464,1.566,1.409,1.566
			c0.945,0,1.409-0.607,1.409-1.566v-0.696c0.856,0,1.394-0.246,1.394-1.134C25.312,59.626,24.774,59.365,23.918,59.365z"/>
		<path d="M16.7,49.385c0.125,0,0.25-0.017,0.371-0.041c0.038-0.009,0.072-0.021,0.109-0.031c0.084-0.021,0.167-0.05,0.249-0.086
			c0.043-0.019,0.083-0.041,0.124-0.062c0.07-0.037,0.138-0.08,0.203-0.127c0.042-0.029,0.082-0.062,0.121-0.098
			c0.026-0.021,0.054-0.039,0.079-0.062c0.036-0.033,0.063-0.074,0.095-0.111c0.022-0.022,0.05-0.044,0.07-0.069l5.332-6.844
			c0.61-0.783,0.47-1.914-0.313-2.523c-0.783-0.608-1.913-0.472-2.524,0.312l-4.063,5.214l-1.887-1.938
			c-0.693-0.713-1.832-0.729-2.543-0.035c-0.712,0.691-0.729,1.83-0.036,2.543l3.326,3.422c0.029,0.027,0.062,0.049,0.092,0.076
			c0.033,0.027,0.058,0.062,0.093,0.089c0.018,0.014,0.039,0.024,0.058,0.038c0.036,0.025,0.073,0.049,0.11,0.07
			c0.061,0.037,0.122,0.068,0.186,0.101c0.037,0.02,0.075,0.034,0.113,0.05c0.071,0.025,0.143,0.047,0.216,0.064
			c0.033,0.009,0.065,0.02,0.098,0.021C16.484,49.374,16.591,49.385,16.7,49.385z"/>
		<circle cx="16.7" cy="38.894" r="1.507"/>
		<circle cx="7.132" cy="47.587" r="1.508"/>
		<circle cx="26.198" cy="47.587" r="1.508"/>
	</g>
</g>
<g>
</g>
<g>
</g>
<g>
</g>
<g>
</g>
<g>
</g>
<g>
</g>
<g>
</g>
<g>
</g>
<g>
</g>
<g>
</g>
<g>
</g>
<g>
</g>
<g>
</g>
<g>
</g>
<g>
</g>
</svg>
