<?xml version="1.0" encoding="iso-8859-1"?>
<!-- Generator: Adobe Illustrator 16.0.0, SVG Export Plug-In . SVG Version: 6.00 Build 0)  -->
<!DOCTYPE svg PUBLIC "-//W3C//DTD SVG 1.1//EN" "http://www.w3.org/Graphics/SVG/1.1/DTD/svg11.dtd">
<svg version="1.1" id="Capa_1" xmlns="http://www.w3.org/2000/svg" xmlns:xlink="http://www.w3.org/1999/xlink" x="0px" y="0px"
	 width="36.614px" height="36.614px" viewBox="0 0 36.614 36.614" style="enable-background:new 0 0 36.614 36.614;"
	 xml:space="preserve">
<g>
	<g>
		<path d="M31.84,11.352V1.488C31.84,0.667,31.172,0,30.352,0H2.527C1.706,0,1.04,0.667,1.04,1.488v9.864
			c0,0.822,0.666,1.489,1.488,1.489h27.825C31.172,12.841,31.84,12.174,31.84,11.352z M28.862,9.862H28.86H4.017V2.976h24.845V9.862
			z"/>
		<path d="M34.086,5.629c-0.82,0-1.486,0.667-1.486,1.489v7.696l-14.792,0.68c-0.795,0.037-1.42,0.691-1.42,1.488l0.001,2.12
			c-1.749,0.613-3.008,2.277-3.008,4.233v8.783c0,2.479,2.018,4.496,4.496,4.496c2.479,0,4.494-2.021,4.494-4.496v-8.78
			c0-1.956-1.26-3.619-3.008-4.236v-0.695l14.789-0.681c0.795-0.035,1.422-0.688,1.422-1.485V7.12
			C35.577,6.296,34.907,5.629,34.086,5.629z M19.397,23.338v8.783c0,0.837-0.683,1.518-1.52,1.518c-0.836,0-1.518-0.681-1.518-1.518
			v-8.783c0-0.837,0.682-1.518,1.518-1.518C18.714,21.82,19.397,22.501,19.397,23.338z"/>
	</g>
</g>
<g>
</g>
<g>
</g>
<g>
</g>
<g>
</g>
<g>
</g>
<g>
</g>
<g>
</g>
<g>
</g>
<g>
</g>
<g>
</g>
<g>
</g>
<g>
</g>
<g>
</g>
<g>
</g>
<g>
</g>
</svg>
