<?xml version='1.0' encoding='iso-8859-1'?>
<!DOCTYPE svg PUBLIC '-//W3C//DTD SVG 1.1//EN' 'http://www.w3.org/Graphics/SVG/1.1/DTD/svg11.dtd'>
<svg version="1.1" xmlns="http://www.w3.org/2000/svg" viewBox="0 0 297 297" xmlns:xlink="http://www.w3.org/1999/xlink" enable-background="new 0 0 297 297">
  <g>
    <path d="m234.432,134.113l-30.326-27.049c-3.142-2.8-7.887-2.802-11.03,0l-30.328,27.049c-1.763,1.572-2.771,3.821-2.771,6.184v33.797c0,4.575 3.71,8.285 8.286,8.285h60.654c4.576,0 8.286-3.71 8.286-8.285v-33.797c-0.001-2.362-1.01-4.611-2.771-6.184zm-13.801,31.696h-44.084v-21.8l22.043-19.658 22.041,19.658v21.8z"/>
    <path d="m93.928,154.799c3.769,0 6.823-3.055 6.823-6.823v-26.114c0-3.769-3.055-6.823-6.823-6.823-3.768,0-6.823,3.055-6.823,6.823v26.114c-0.001,3.768 3.054,6.823 6.823,6.823z"/>
    <path d="m115.845,123.575c-2.784-2.538-7.1-2.34-9.64,0.441-2.54,2.784-2.343,7.099 0.44,9.64 4.007,3.655 6.305,8.874 6.305,14.319 0,10.64-8.534,19.295-19.024,19.295-10.487,0-19.019-8.655-19.019-19.295 0-5.646 2.438-10.992 6.687-14.666 2.85-2.465 3.165-6.772 0.701-9.624-2.466-2.851-6.773-3.163-9.624-0.7-7.252,6.268-11.41,15.376-11.41,24.99 0,18.164 14.653,32.941 32.665,32.941 18.015,0 32.671-14.777 32.671-32.941 1.42109e-14-9.271-3.919-18.164-10.752-24.4z"/>
    <path d="m287.253,201.923h-14.959v-143.35c0-5.383-4.364-9.748-9.747-9.748h-228.094c-5.383,0-9.747,4.365-9.747,9.748v143.35h-14.959c-5.383,0-9.747,4.364-9.747,9.747v26.757c0,5.383 4.364,9.748 9.747,9.748h277.506c5.383,0 9.747-4.365 9.747-9.748v-26.757c0-5.383-4.364-9.747-9.747-9.747zm-34.453-133.603v8.299h-208.6v-8.299h208.6zm-208.6,24.87h208.6v108.732h-208.6v-108.732zm233.305,135.49h-258.01v-7.263h258.01v7.263z"/>
  </g>
</svg>
