<?xml version='1.0' encoding='iso-8859-1'?>
<!DOCTYPE svg PUBLIC '-//W3C//DTD SVG 1.1//EN' 'http://www.w3.org/Graphics/SVG/1.1/DTD/svg11.dtd'>
<svg version="1.1" xmlns="http://www.w3.org/2000/svg" viewBox="0 0 297 297" xmlns:xlink="http://www.w3.org/1999/xlink" enable-background="new 0 0 297 297">
  <g>
    <path d="m286.974,198.277l-36.679-32.693c-3.747-3.342-9.405-3.341-13.152-0.001l-36.683,32.692c-2.105,1.876-3.308,4.561-3.308,7.379v56.516c0,5.457 4.425,9.883 9.884,9.883h73.361c5.459,0 9.884-4.426 9.884-9.883v-56.516c0-2.818-1.203-5.502-3.307-7.377zm-16.459,54.009h-53.596v-42.201l26.8-23.884 26.796,23.884v42.201z"/>
    <path d="m71.411,69.175c-3.28,3.281-3.28,8.601 0.001,11.881 3.28,3.28 8.601,3.28 11.881-0.001 2.561-2.562 5.967-3.972 9.589-3.972 3.623,0 7.027,1.41 9.589,3.972 1.642,1.641 3.791,2.461 5.941,2.461 2.149,0 4.3-0.82 5.939-2.46 3.282-3.28 3.282-8.6 0.001-11.881-5.735-5.735-13.36-8.893-21.471-8.893-8.109-0.001-15.734,3.157-21.47,8.893z"/>
    <path d="m66.207,61.949c7.125-7.125 16.599-11.049 26.675-11.049 10.077,0 19.549,3.924 26.673,11.049 1.64,1.641 3.791,2.461 5.941,2.461 2.149,0 4.3-0.82 5.939-2.461 3.281-3.28 3.281-8.6 0.001-11.88-10.298-10.3-23.99-15.971-38.555-15.971-14.564,0-28.258,5.671-38.557,15.971-3.28,3.28-3.28,8.6 0.001,11.88 3.281,3.28 8.601,3.28 11.882-7.10543e-15z"/>
    <path d="M148.723,0H37.039C17.42,0,1.458,15.961,1.458,35.581V261.42c0,19.619,15.962,35.58,35.581,35.58h111.684   c19.62,0,35.581-15.961,35.581-35.58V35.581C184.304,15.961,168.343,0,148.723,0z M37.039,19.768h111.684   c8.72,0,15.813,7.094,15.813,15.814v189.764H21.226V35.581C21.226,26.861,28.319,19.768,37.039,19.768z M148.723,277.232H37.039   c-8.72,0-15.813-7.094-15.813-15.813v-16.309h143.311v16.309C164.536,270.139,157.442,277.232,148.723,277.232z"/>
    <path d="m92.879,251.042c-2.599,0-5.149,1.057-6.987,2.895-1.839,1.838-2.896,4.389-2.896,6.988 0,2.599 1.058,5.148 2.896,6.986 1.838,1.839 4.389,2.896 6.987,2.896 2.6,0 5.149-1.058 6.987-2.896 1.839-1.838 2.896-4.388 2.896-6.986 0-2.6-1.058-5.15-2.896-6.988-1.838-1.838-4.387-2.895-6.987-2.895z"/>
    <path d="m79.208,144.658c3.821,0 6.919-3.098 6.919-6.919 0-3.732 3.029-6.767 6.754-6.767 3.821,0 6.919-3.098 6.919-6.919 0-3.821-3.098-6.919-6.919-6.919-11.354,0-20.591,9.243-20.591,20.604 1.42109e-14,3.823 3.097,6.92 6.918,6.92z"/>
    <path d="m274.233,109.29c-13.851-11.9-29.564-15.935-30.227-16.101-2.866-0.721-5.9,0.122-7.989,2.216-9.126,9.149-9.732,21.882-7.951,32.541l-10.912-5.472c-1.994-1.001-4.304-1.164-6.422-0.46-2.116,0.705-3.865,2.224-4.861,4.221-0.693,1.391-16.778,34.271 1.571,52.66 3.276,3.284 8.596,3.29 11.88,0.014 3.285-3.277 3.291-8.597 0.013-11.882-5.782-5.795-4.042-17.164-1.485-25.407l20.351,10.204c3.226,1.619 7.122,0.985 9.683-1.559 2.561-2.545 3.205-6.449 1.607-9.686-2.563-5.195-7.863-20.001-4.193-29.242 4.763,1.9 11.933,5.385 18.386,11.043 13.672,11.986 18.045,28.32 13.001,48.549-1.123,4.501 1.617,9.061 6.118,10.184 0.683,0.17 1.366,0.252 2.04,0.252 3.765,0 7.191-2.552 8.144-6.371 8.417-33.754-5.552-54.361-18.754-65.704z"/>
    <path d="m207.037,36.075h22.732v39.04c0,5.458 4.426,9.883 9.884,9.883 5.458,0 9.884-4.425 9.884-9.883v-48.924c0-5.458-4.426-9.884-9.884-9.884h-32.615c-5.458,0-9.884,4.426-9.884,9.884s4.425,9.884 9.883,9.884z"/>
    <path d="m52.836,216.11h80.094c4.366,0 7.907-3.54 7.907-7.907v-34.902c0-4.287-3.415-7.77-7.672-7.895v-29.192c0-22.247-18.071-40.348-40.284-40.348s-40.284,18.101-40.284,40.348v29.193c-4.254,0.127-7.667,3.609-7.667,7.895v34.902c-2.84217e-14,4.366 3.54,7.906 7.906,7.906zm72.187-15.813h-64.28v-19.09h64.279v19.09zm-32.141-88.617c13.493,0 24.471,11.006 24.471,24.533v29.181h-48.94v-29.181c-0.001-13.527 10.976-24.533 24.469-24.533z"/>
  </g>
</svg>
