<?xml version='1.0' encoding='iso-8859-1'?>
<!DOCTYPE svg PUBLIC '-//W3C//DTD SVG 1.1//EN' 'http://www.w3.org/Graphics/SVG/1.1/DTD/svg11.dtd'>
<svg version="1.1" xmlns="http://www.w3.org/2000/svg" viewBox="0 0 297 297" xmlns:xlink="http://www.w3.org/1999/xlink" enable-background="new 0 0 297 297">
  <g>
    <path d="m122.394,44.465c-3.394,3.395-3.394,8.896-0.001,12.29 3.394,3.393 8.896,3.393 12.289,0.001 7.618-7.618 20.015-7.618 27.633,0 1.696,1.696 3.919,2.545 6.144,2.545 2.225,0 4.448-0.849 6.145-2.546 3.394-3.394 3.394-8.896-0.001-12.29-14.393-14.393-37.815-14.393-52.209,0z"/>
    <path d="m112.726,32.2c9.555-9.556 22.26-14.819 35.774-14.819 13.514,0 26.218,5.264 35.772,14.819 1.696,1.697 3.921,2.546 6.145,2.546 2.224,0 4.448-0.849 6.145-2.545 3.394-3.393 3.395-8.895 0.001-12.29-12.837-12.839-29.906-19.911-48.063-19.911-18.157,0-35.227,7.072-48.065,19.911-3.393,3.394-3.393,8.896 0.001,12.29 3.393,3.395 8.897,3.394 12.29-0.001z"/>
    <path d="m114.759,158.468c-2.688,0-5.327,1.094-7.229,2.995-1.902,1.902-2.995,4.54-2.995,7.229 0,2.689 1.093,5.327 2.995,7.229 1.901,1.901 4.54,2.996 7.229,2.996s5.326-1.095 7.228-2.996c1.912-1.901 2.996-4.539 2.996-7.229 0-2.689-1.084-5.326-2.996-7.229-1.902-1.902-4.54-2.995-7.228-2.995z"/>
    <path d="m148.497,158.468c-2.688,0-5.326,1.094-7.229,2.995-1.902,1.902-2.995,4.54-2.995,7.229 0,2.689 1.093,5.327 2.995,7.229 1.902,1.901 4.54,2.996 7.229,2.996 2.688,0 5.326-1.095 7.228-2.996 1.912-1.901 2.996-4.539 2.996-7.229 0-2.689-1.084-5.326-2.996-7.229-1.902-1.902-4.54-2.995-7.228-2.995z"/>
    <path d="m182.235,158.468c-2.688,0-5.326,1.094-7.229,2.995-1.902,1.902-2.995,4.54-2.995,7.229 0,2.689 1.093,5.327 2.995,7.229 1.902,1.901 4.54,2.996 7.229,2.996 2.688,0 5.326-1.095 7.228-2.996 1.902-1.901 2.996-4.539 2.996-7.229 0-2.689-1.094-5.326-2.996-7.229-1.902-1.902-4.539-2.995-7.228-2.995z"/>
    <path d="m114.759,192.207c-2.688,0-5.327,1.093-7.229,2.995-1.902,1.901-2.995,4.539-2.995,7.229 0,2.688 1.093,5.326 2.995,7.228 1.901,1.901 4.54,2.996 7.229,2.996s5.326-1.095 7.228-2.996c1.912-1.901 2.996-4.539 2.996-7.228 0-2.689-1.084-5.327-2.996-7.229-1.902-1.902-4.53-2.995-7.228-2.995z"/>
    <path d="m148.497,192.207c-2.688,0-5.326,1.093-7.229,2.995-1.902,1.901-2.995,4.539-2.995,7.229 0,2.688 1.093,5.326 2.995,7.228 1.902,1.901 4.54,2.996 7.229,2.996 2.688,0 5.326-1.095 7.228-2.996 1.912-1.901 2.996-4.539 2.996-7.228 0-2.689-1.084-5.327-2.996-7.229-1.902-1.902-4.53-2.995-7.228-2.995z"/>
    <path d="m182.235,192.207c-2.688,0-5.326,1.093-7.229,2.995-1.902,1.901-2.995,4.539-2.995,7.229 0,2.688 1.093,5.326 2.995,7.228 1.902,1.901 4.54,2.996 7.229,2.996 2.688,0 5.326-1.095 7.228-2.996 1.912-1.901 2.996-4.539 2.996-7.228 0-2.689-1.084-5.327-2.996-7.229-1.902-1.902-4.528-2.995-7.228-2.995z"/>
    <path d="m114.759,225.945c-2.688,0-5.327,1.093-7.229,2.995-1.902,1.901-2.995,4.54-2.995,7.229 0,2.689 1.093,5.326 2.995,7.228 1.901,1.901 4.54,2.996 7.229,2.996s5.326-1.095 7.228-2.996c1.901-1.901 2.996-4.539 2.996-7.228 0-2.688-1.095-5.327-2.996-7.229-1.902-1.902-4.53-2.995-7.228-2.995z"/>
    <path d="m148.497,225.945c-2.688,0-5.326,1.093-7.229,2.995-1.902,1.901-2.995,4.54-2.995,7.229 0,2.689 1.093,5.326 2.995,7.228 1.902,1.901 4.54,2.996 7.229,2.996 2.688,0 5.326-1.095 7.228-2.996 1.912-1.901 2.996-4.539 2.996-7.228 0-2.688-1.084-5.327-2.996-7.229-1.902-1.902-4.54-2.995-7.228-2.995z"/>
    <path d="m182.235,225.945c-2.688,0-5.326,1.093-7.229,2.995-1.902,1.901-2.995,4.54-2.995,7.229 0,2.689 1.093,5.326 2.995,7.228 1.902,1.901 4.54,2.996 7.229,2.996 2.699,0 5.326-1.095 7.228-2.996 1.912-1.901 2.996-4.539 2.996-7.228 0-2.688-1.084-5.327-2.996-7.229-1.902-1.902-4.528-2.995-7.228-2.995z"/>
    <path d="m211.76,74.122h-126.52c-5.646,0-10.224,4.578-10.224,10.224v161.535c0,28.187 22.932,51.119 51.119,51.119h44.729c28.188,0 51.119-22.932 51.119-51.119v-161.535c2.84217e-14-5.646-4.578-10.224-10.223-10.224zm-10.224,20.447v30.16h-106.072v-30.16h106.072zm-30.672,181.984h-44.729c-16.912,0-30.672-13.76-30.672-30.672v-100.703h106.072v100.703c0.001,16.912-13.759,30.672-30.671,30.672z"/>
  </g>
</svg>
