<?xml version='1.0' encoding='iso-8859-1'?>
<!DOCTYPE svg PUBLIC '-//W3C//DTD SVG 1.1//EN' 'http://www.w3.org/Graphics/SVG/1.1/DTD/svg11.dtd'>
<svg version="1.1" xmlns="http://www.w3.org/2000/svg" viewBox="0 0 297 297" xmlns:xlink="http://www.w3.org/1999/xlink" enable-background="new 0 0 297 297">
  <g>
    <path d="m290.612,52.623l-56.065-49.972c-3.965-3.535-9.951-3.534-13.916-0.001l-56.069,49.972c-2.226,1.984-3.5,4.825-3.5,7.808v86.382c0,5.775 4.683,10.458 10.458,10.458h112.135c5.774,0 10.457-4.683 10.457-10.458v-86.382c-0.001-2.983-1.274-5.823-3.5-7.807zm-17.416,83.732h-91.22v-71.238l45.612-40.65 45.607,40.65v71.238z"/>
    <path d="m106.942,69.021h-66.406c-20.759,0-37.647,16.889-37.647,37.647v152.683c0,20.76 16.889,37.648 37.647,37.648h66.406c20.76,0 37.648-16.889 37.648-37.648v-152.682c0.001-20.759-16.888-37.648-37.648-37.648zm-66.406,20.916h66.406c9.227,0 16.732,7.507 16.732,16.732v117.65h-99.87v-117.65c-3.55271e-15-9.226 7.507-16.732 16.732-16.732zm66.406,186.147h-66.406c-9.226,0-16.732-7.506-16.732-16.732v-14.117h99.871v14.117c0,9.226-7.506,16.732-16.733,16.732z"/>
    <path d="m73.736,249.94c-2.75,0-5.448,1.118-7.394,3.064-1.946,1.945-3.064,4.633-3.064,7.394 0,2.751 1.118,5.448 3.064,7.393 1.945,1.945 4.644,3.065 7.394,3.065s5.448-1.119 7.393-3.065c1.956-1.945 3.065-4.643 3.065-7.393 0-2.75-1.109-5.448-3.065-7.394-1.944-1.945-4.632-3.064-7.393-3.064z"/>
    <path d="M67.987,55.426c5.775,0,10.458-4.682,10.458-10.457V20.916h93.074c5.775,0,10.457-4.683,10.457-10.458S177.295,0,171.52,0   H67.987C62.213,0,57.53,4.683,57.53,10.458v34.511C57.53,50.744,62.213,55.426,67.987,55.426z"/>
    <path d="m240.54,172.553c-5.775,0-10.457,4.683-10.457,10.458v58.564h-58.563c-5.775,0-10.458,4.682-10.458,10.457 0,5.775 4.683,10.458 10.458,10.458h69.021c5.775,0 10.458-4.683 10.458-10.458v-69.021c-0.001-5.776-4.684-10.458-10.459-10.458z"/>
  </g>
</svg>
