<?xml version='1.0' encoding='iso-8859-1'?>
<!DOCTYPE svg PUBLIC '-//W3C//DTD SVG 1.1//EN' 'http://www.w3.org/Graphics/SVG/1.1/DTD/svg11.dtd'>
<svg version="1.1" xmlns="http://www.w3.org/2000/svg" viewBox="0 0 297 297" xmlns:xlink="http://www.w3.org/1999/xlink" enable-background="new 0 0 297 297">
  <g>
    <path d="m113.035,159.681c0-5.518-4.473-9.99-9.989-9.99s-9.99,4.473-9.99,9.99c0,4.172-0.938,5.785-2.641,8.711-2.258,3.881-5.351,9.197-5.351,18.758 0,9.563 3.093,14.879 5.351,18.76 1.702,2.928 2.641,4.539 2.641,8.713 0,4.176-0.938,5.787-2.641,8.715-2.258,3.881-5.351,9.197-5.351,18.76 0,5.516 4.473,9.988 9.989,9.988 5.518,0 9.99-4.473 9.99-9.988 0-4.174 0.938-5.785 2.641-8.713 2.259-3.881 5.351-9.197 5.351-18.762 0-9.563-3.092-14.879-5.351-18.76-1.703-2.928-2.641-4.539-2.641-8.713 0-4.172 0.938-5.783 2.641-8.709 2.26-3.883 5.351-9.197 5.351-18.76z"/>
    <path d="m183.963,242.098c0,5.516 4.473,9.988 9.989,9.988 5.517,0 9.99-4.473 9.99-9.988 0-4.174 0.938-5.785 2.641-8.713 2.258-3.881 5.351-9.197 5.351-18.762 0-9.563-3.093-14.879-5.351-18.76-1.703-2.928-2.641-4.539-2.641-8.713 0-4.172 0.938-5.783 2.641-8.709 2.258-3.883 5.351-9.197 5.351-18.76 0-5.518-4.473-9.99-9.989-9.99-5.518,0-9.99,4.473-9.99,9.99 0,4.172-0.938,5.785-2.641,8.711-2.259,3.881-5.351,9.197-5.351,18.758 0,9.563 3.092,14.879 5.351,18.76 1.702,2.928 2.641,4.539 2.641,8.713 0,4.176-0.939,5.787-2.641,8.715-2.259,3.881-5.351,9.197-5.351,18.76z"/>
    <path d="m142.505,159.681c0,4.172-0.938,5.785-2.641,8.711-2.259,3.881-5.351,9.197-5.351,18.758 0,9.563 3.092,14.879 5.351,18.76 1.702,2.928 2.641,4.539 2.641,8.713 0,4.176-0.939,5.787-2.641,8.715-2.259,3.881-5.351,9.197-5.351,18.76 0,5.516 4.473,9.988 9.989,9.988s9.99-4.473 9.99-9.988c0-4.174 0.938-5.785 2.641-8.713 2.259-3.881 5.351-9.197 5.351-18.762 0-9.563-3.092-14.879-5.351-18.76-1.703-2.928-2.641-4.539-2.641-8.713 0-4.172 0.938-5.783 2.641-8.709 2.259-3.883 5.351-9.197 5.351-18.76 0-5.518-4.473-9.99-9.989-9.99-5.516-2.84217e-14-9.99,4.473-9.99,9.99z"/>
    <path d="m293.697,128.584l-138.368-124.672c-3.797-3.422-9.565-3.424-13.366-0.006l-138.652,124.67c-3.076,2.766-4.13,7.143-2.647,11.006 1.48,3.863 5.189,6.412 9.327,6.412h31.38v139.672c0,5.518 4.473,9.99 9.989,9.99h194.281c5.517,0 9.989-4.473 9.989-9.99v-139.672h31.38c4.136,0 7.843-2.547 9.325-6.408 1.484-3.86 0.435-8.235-2.638-11.002zm-58.046,147.092h-174.301v-135.194l87.152-77.674 87.148,77.674v135.194zm13.795-149.661l-94.297-84.047c-3.787-3.377-9.506-3.377-13.293,0l-94.301,84.047h-11.512l112.594-101.24 112.362,101.24h-11.553z"/>
  </g>
</svg>
