<?xml version='1.0' encoding='iso-8859-1'?>
<!DOCTYPE svg PUBLIC '-//W3C//DTD SVG 1.1//EN' 'http://www.w3.org/Graphics/SVG/1.1/DTD/svg11.dtd'>
<svg version="1.1" xmlns="http://www.w3.org/2000/svg" viewBox="0 0 297 297" xmlns:xlink="http://www.w3.org/1999/xlink" enable-background="new 0 0 297 297">
  <g>
    <path d="m218.979,54.156v-43.754c0-5.744-4.658-10.402-10.403-10.402h-120.152c-5.745,0-10.403,4.658-10.403,10.402v43.754c-14.935,4.928-25.746,19.005-25.746,35.568v117.551c0,16.563 10.812,30.641 25.746,35.568v43.754c0,5.744 4.658,10.402 10.403,10.402h120.152c5.745,0 10.402-4.658 10.402-10.402v-43.754c14.936-4.928 25.747-19.005 25.747-35.568v-117.55c0.001-16.564-10.811-30.641-25.746-35.569zm-120.153-33.35h99.347v30.688h-99.347v-30.688zm99.347,255.388h-99.347v-30.688h99.347v30.688zm25.747-68.919c0,9.178-7.467,16.645-16.644,16.645h-117.552c-9.177,0-16.644-7.467-16.644-16.645v-117.55c0-9.178 7.467-16.645 16.644-16.645h117.552c9.178,0 16.644,7.467 16.644,16.645v117.55z"/>
    <path d="m197.776,85.523c-7.958,0-14.434,6.475-14.434,14.434 0,5.301 2.881,9.932 7.151,12.44v28.128l-4.593,3.243-24.76-22.07c-2.762-2.461-6.929-2.461-9.69,0l-37.636,33.545c-1.55,1.382-2.438,3.359-2.438,5.436v6.506h-7.161v-54.787c4.271-2.509 7.151-7.14 7.151-12.44 0-7.959-6.476-14.434-14.434-14.434-7.959,0-14.435,6.475-14.435,14.434 0,5.301 2.882,9.932 7.152,12.44v62.069c0,4.023 3.26,7.282 7.282,7.282h14.443v25.47c0,4.021 3.261,7.281 7.282,7.281h75.27c4.021,0 7.281-3.26 7.281-7.281v-46.54c0-2.076-0.887-4.054-2.436-5.436l-1.713-1.527 4.914-3.468c1.932-1.364 3.082-3.583 3.082-5.949v-31.901c4.271-2.509 7.151-7.14 7.151-12.44 0.005-7.96-6.47-14.435-14.429-14.435zm-11.128,78.42v35.993h-60.706v-18.188h10.327c4.023,0 7.282-3.26 7.282-7.282 0-4.021-3.26-7.282-7.282-7.282h-10.327v-3.241l30.354-27.055 17.391,15.501-4.427,3.125c-3.285,2.319-4.068,6.862-1.749,10.148 1.418,2.01 3.67,3.083 5.955,3.083 1.452,0 2.918-0.433 4.194-1.334l7.188-5.074 1.8,1.606z"/>
  </g>
</svg>
