<?xml version='1.0' encoding='iso-8859-1'?>
<!DOCTYPE svg PUBLIC '-//W3C//DTD SVG 1.1//EN' 'http://www.w3.org/Graphics/SVG/1.1/DTD/svg11.dtd'>
<svg version="1.1" xmlns="http://www.w3.org/2000/svg" viewBox="0 0 297 297" xmlns:xlink="http://www.w3.org/1999/xlink" enable-background="new 0 0 297 297">
  <g>
    <path d="m109.705,90.448c-3.472,3.472-3.472,9.1-0.001,12.571 1.735,1.735 4.011,2.604 6.286,2.604 2.274,0 4.55-0.868 6.284-2.604 14.748-14.746 38.743-14.746 53.49,0 3.471,3.471 9.101,3.472 12.57,0 3.472-3.472 3.472-9.1-0.001-12.571-21.674-21.673-56.948-21.675-78.628,0z"/>
    <path d="m149.02,98.903c-8.027,0-15.574,3.125-21.249,8.8-3.473,3.472-3.473,9.1-0.001,12.571 3.471,3.47 9.1,3.472 12.57,0.001 2.318-2.317 5.4-3.594 8.68-3.594 3.278,0 6.359,1.275 8.677,3.593 1.736,1.736 4.011,2.604 6.286,2.604 2.274,0 4.55-0.868 6.285-2.604 3.472-3.472 3.472-9.1 0.001-12.57-5.675-5.676-13.221-8.801-21.249-8.801z"/>
    <path d="m104.059,81.628c12.009-12.011 27.977-18.624 44.962-18.624 16.984,0 32.951,6.613 44.959,18.624 1.735,1.735 4.011,2.604 6.286,2.604 2.274,0 4.55-0.869 6.285-2.604 3.472-3.472 3.472-9.1 0.001-12.571-15.366-15.368-35.798-23.832-57.531-23.832-21.734,0-42.167,8.464-57.533,23.832-3.472,3.472-3.472,9.1 0.001,12.571 3.469,3.471 9.097,3.472 12.57,0z"/>
    <path d="M277.915,0H19.085C13.31,0,8.628,4.683,8.628,10.458v172.553c0,5.775,4.682,10.458,10.457,10.458h118.957v13.595h-24.053   c-5.775,0-10.458,4.683-10.458,10.458c0,2.598,0.953,4.968,2.521,6.797H27.713c-5.775,0-10.458,4.683-10.458,10.458v51.766   c0,5.775,4.683,10.458,10.458,10.458h241.574c5.775,0,10.458-4.683,10.458-10.458v-51.766c0-5.775-4.683-10.458-10.458-10.458   h-78.339c1.567-1.829,2.52-4.199,2.52-6.797c0-5.775-4.682-10.458-10.457-10.458h-24.053v-13.595h118.957   c5.775,0,10.457-4.683,10.457-10.458V10.458C288.372,4.683,283.69,0,277.915,0z M258.829,276.084H38.171v-30.85h220.658V276.084z    M267.457,172.553H29.543V20.916h237.914V172.553z"/>
    <path d="m165.755,269.81h69.021c4.62,0 8.366-3.745 8.366-8.366 0-4.62-3.746-8.366-8.366-8.366h-69.021c-4.62,0-8.366,3.746-8.366,8.366 0,4.621 3.746,8.366 8.366,8.366z"/>
    <path d="m62.221,269.81c2.206,0 4.36-0.899 5.919-2.446 1.558-1.559 2.447-3.714 2.447-5.92 0-2.207-0.89-4.36-2.447-5.919-1.559-1.559-3.713-2.447-5.919-2.447-2.207,0-4.361,0.889-5.909,2.447-1.559,1.559-2.457,3.712-2.457,5.919 0,2.206 0.898,4.361 2.457,5.92 1.547,1.546 3.711,2.446 5.909,2.446z"/>
    <path d="m96.731,269.81c2.205,0 4.36-0.899 5.919-2.446 1.558-1.559 2.446-3.714 2.446-5.92 0-2.207-0.889-4.36-2.446-5.919-1.559-1.559-3.714-2.447-5.919-2.447-2.197,0-4.361,0.889-5.909,2.447-1.559,1.559-2.457,3.712-2.457,5.919 0,2.206 0.899,4.361 2.457,5.92 1.548,1.546 3.712,2.446 5.909,2.446z"/>
  </g>
</svg>
