<?xml version='1.0' encoding='iso-8859-1'?>
<!DOCTYPE svg PUBLIC '-//W3C//DTD SVG 1.1//EN' 'http://www.w3.org/Graphics/SVG/1.1/DTD/svg11.dtd'>
<svg version="1.1" xmlns="http://www.w3.org/2000/svg" viewBox="0 0 297 297" xmlns:xlink="http://www.w3.org/1999/xlink" enable-background="new 0 0 297 297">
  <g>
    <path d="m60.047,28.315c-2.842,2.84-2.842,7.445-0.001,10.285 2.841,2.841 7.446,2.842 10.286,0.002 3.528-3.529 9.271-3.529 12.8,0 1.421,1.419 3.282,2.129 5.143,2.129 1.861,0 3.724-0.71 5.145-2.131 2.84-2.84 2.84-7.445-0.002-10.285-9.2-9.201-24.172-9.201-33.371,0z"/>
    <path d="m57.634,22.458c5.101-5.102 11.884-7.911 19.099-7.911 7.215,0 13.997,2.809 19.099,7.911 1.42,1.421 3.281,2.131 5.144,2.131 1.86,0 3.723-0.71 5.143-2.13 2.841-2.84 2.841-7.445 0.001-10.286-7.851-7.851-18.287-12.173-29.388-12.173-11.1,0-21.538,4.322-29.385,12.173-2.841,2.841-2.841,7.446 0.001,10.286 2.84,2.84 7.444,2.841 10.286-0.001z"/>
    <path d="m244.51,44.691h-192.02c-5.356,0-9.698,4.343-9.698,9.698v232.913c0,5.355 4.342,9.697 9.698,9.697h192.02c5.356,0 9.698-4.342 9.698-9.697v-232.912c-2.84217e-14-5.356-4.342-9.699-9.698-9.699zm-9.699,32.893h-12.606v-13.496h12.606v13.496zm-44.61,0v-13.496h12.607v13.496h-12.607zm-19.395-13.496v13.496h-108.619v-13.496h108.619zm-108.619,213.516v-180.625h172.624v180.625h-172.624z"/>
    <path d="m148.5,109.587c-40.641,0-73.705,33.064-73.705,73.704s33.064,73.705 73.705,73.705c40.641,0 73.705-33.064 73.705-73.705s-33.064-73.704-73.705-73.704zm35.277,32.464c9.321,8.629 15.292,22.648 15.292,35.35 0,12.701-4.946,24.643-13.928,33.624-14.076,14.075-36.98,14.077-51.056,0-10.504-10.504-10.504-27.596 0-38.1 7.648-7.648 20.09-7.648 27.737-0.001 3.786,3.786 9.929,3.787 13.715-0.001 3.787-3.787 3.787-9.927-0.001-13.714-15.208-15.209-39.957-15.207-55.167,0-18.066,18.067-18.066,47.465 0,65.531 5.185,5.184 11.152,9.112 17.521,11.813-24.884-4.947-43.7-26.945-43.7-53.262 0-29.945 24.362-54.309 54.309-54.309 13.46,2.84217e-14 26.101,4.573 35.278,13.069z"/>
  </g>
</svg>
