<?xml version='1.0' encoding='iso-8859-1'?>
<!DOCTYPE svg PUBLIC '-//W3C//DTD SVG 1.1//EN' 'http://www.w3.org/Graphics/SVG/1.1/DTD/svg11.dtd'>
<svg version="1.1" xmlns="http://www.w3.org/2000/svg" viewBox="0 0 297 297" xmlns:xlink="http://www.w3.org/1999/xlink" enable-background="new 0 0 297 297">
  <g>
    <path d="m175.03,35.729c-3.343,3.342-3.343,8.761-0.001,12.103s8.76,3.342 12.102,0.001c5.388-5.386 14.15-5.386 19.538,0 1.671,1.67 3.86,2.506 6.051,2.506 2.191,0 4.381-0.836 6.051-2.507 3.343-3.342 3.343-8.761 0-12.103-12.059-12.057-31.683-12.057-43.741,0z"/>
    <path d="m169.729,28.371c7.258-7.258 16.908-11.256 27.173-11.256 10.263,0 19.912,3.998 27.169,11.256 1.671,1.671 3.861,2.507 6.052,2.507 2.189,0 4.379-0.836 6.05-2.507 3.343-3.34 3.344-8.759 0.002-12.102-10.489-10.491-24.437-16.269-39.273-16.269-14.838,0-28.785,5.778-39.275,16.27-3.342,3.342-3.342,8.76 0.001,12.102 3.341,3.341 8.761,3.342 12.101-0.001z"/>
    <path d="m46.815,210.417c-3.169,0-6.153,1.491-8.055,4.026-4.035,5.381-24.162,33.091-24.162,50.34 0,17.764 14.452,32.217 32.217,32.217 17.764,0 32.217-14.453 32.217-32.217 0-17.249-20.128-44.959-24.163-50.34-1.901-2.535-4.885-4.026-8.054-4.026zm0,66.447c-6.662,0-12.082-5.419-12.082-12.081 0-5.06 5.422-15.969 12.073-26.508 6.275,9.934 12.09,21.092 12.09,26.508 0,6.662-5.419,12.081-12.081,12.081z"/>
    <path d="m281.395,88.093h-27.895c-11.158-19.811-32.34-33.224-56.6-33.224-24.261,0-45.442,13.413-56.6,33.224h-87.445c-26.091,0-47.318,21.228-47.318,47.319v62.42c0,5.561 4.508,10.068 10.068,10.068h66.447c5.56,0 10.067-4.508 10.067-10.068v-36.747c0-1.638 1.384-3.021 3.021-3.021h49.068c11.81,16.402 31.02,27.107 52.691,27.107 21.67,0 40.882-10.705 52.691-27.107h31.803c5.561,0 10.068-4.508 10.068-10.068v-49.835c0.002-5.559-4.506-10.068-10.066-10.068zm-186.254,49.836c-12.769,0-23.156,10.388-23.156,23.156v26.68h-46.312v-52.353c-3.55271e-15-14.989 12.194-27.184 27.183-27.184h80.164c-0.701,3.828-1.086,7.766-1.086,11.793 0,6.21 0.89,12.213 2.516,17.907h-39.309zm101.759,27.108c-24.721,0-44.831-20.193-44.831-45.015 0-24.822 20.11-45.017 44.831-45.017 24.72,0 44.831,20.194 44.831,45.017-5.68434e-14,24.822-20.111,45.015-44.831,45.015zm74.427-27.107h-11.977c1.627-5.694 2.517-11.697 2.517-17.907 0-4.027-0.386-7.965-1.087-11.793h10.547v29.7z"/>
    <path d="m196.9,127.08c3.893,0 7.047-3.154 7.047-7.047v-30.497c0-3.892-3.154-7.047-7.047-7.047-3.893,0-7.048,3.155-7.048,7.047v30.497c0,3.893 3.156,7.047 7.048,7.047z"/>
    <path d="m217.273,88.611c-3.252-2.142-7.62-1.244-9.763,2.006-2.143,3.25-1.244,7.62 2.006,9.763 6.6,4.35 10.54,11.697 10.54,19.653 0,12.932-10.389,23.452-23.158,23.452-12.767,0-23.153-10.521-23.153-23.452 0-7.956 3.941-15.304 10.541-19.653 3.249-2.143 4.147-6.513 2.006-9.763-2.142-3.249-6.511-4.149-9.764-2.006-10.568,6.966-16.878,18.712-16.878,31.422 0,20.703 16.709,37.547 37.248,37.547 20.541,0 37.254-16.844 37.254-37.547-0.001-12.71-6.311-24.456-16.879-31.422z"/>
  </g>
</svg>
