<?xml version='1.0' encoding='iso-8859-1'?>
<!DOCTYPE svg PUBLIC '-//W3C//DTD SVG 1.1//EN' 'http://www.w3.org/Graphics/SVG/1.1/DTD/svg11.dtd'>
<svg version="1.1" xmlns="http://www.w3.org/2000/svg" viewBox="0 0 297 297" xmlns:xlink="http://www.w3.org/1999/xlink" enable-background="new 0 0 297 297">
  <g>
    <path d="m233.031,142.56c-3.282,3.28-3.282,8.6-0.001,11.88 3.28,3.281 8.6,3.281 11.881,0.001 5.289-5.287 13.891-5.287 19.18,0 1.64,1.64 3.789,2.46 5.94,2.46s4.301-0.82 5.941-2.461c3.28-3.28 3.28-8.6-0.001-11.88-11.837-11.837-31.103-11.837-42.94,0z"/>
    <path d="m227.827,135.335c7.125-7.125 16.598-11.05 26.675-11.05 10.076,0 19.549,3.925 26.673,11.05 1.64,1.641 3.79,2.461 5.94,2.461 2.149,0 4.3-0.82 5.94-2.46 3.28-3.279 3.281-8.6 0-11.881-10.297-10.299-23.989-15.972-38.554-15.972-14.566,0-28.258,5.673-38.557,15.972-3.28,3.281-3.28,8.6 0.001,11.881 3.281,3.279 8.602,3.28 11.882-0.001z"/>
    <path d="M189.269,0H9.884C4.426,0,0,4.426,0,9.884v277.232C0,292.574,4.426,297,9.884,297h179.386c5.458,0,9.884-4.426,9.884-9.884   V9.884C199.153,4.426,194.727,0,189.269,0z M179.386,19.768v118.849h-8.615V38.554c0-4.64-3.761-8.401-8.4-8.401H36.783   c-4.64,0-8.401,3.762-8.401,8.401v100.063h-8.615V19.768H179.386z M153.969,138.616H45.185V46.954h108.784V138.616z    M45.185,158.384h108.784v91.663H45.185V158.384z M19.767,277.232V158.384h8.615v100.063c0,4.64,3.762,8.401,8.401,8.401H162.37   c4.64,0,8.4-3.762,8.4-8.401V158.384h8.615v118.849H19.767z"/>
    <path d="m66.961,91.176c2.024,0 4.047-0.772 5.591-2.315l16.308-16.308c3.087-3.089 3.087-8.095 0-11.184-3.089-3.086-8.095-3.086-11.183,0l-16.308,16.309c-3.087,3.088-3.087,8.094 0,11.183 1.545,1.542 3.567,2.315 5.592,2.315z"/>
    <path d="m61.428,121.533c1.538,1.508 3.536,2.259 5.532,2.259 2.051,0 4.1-0.792 5.648-2.373l47.935-48.925c3.057-3.119 3.006-8.125-0.113-11.181-3.12-3.06-8.126-3.004-11.181,0.114l-47.936,48.924c-3.056,3.121-3.005,8.126 0.115,11.182z"/>
    <path d="m287.116,171.232h-65.231c-5.458,0-9.883,4.425-9.883,9.883v106.001c0,5.458 4.425,9.884 9.883,9.884h65.231c5.458,0 9.884-4.426 9.884-9.884v-106.001c0-5.458-4.426-9.883-9.884-9.883zm-9.883,106h-45.465v-86.233h45.465v86.233z"/>
    <path d="m252.548,261.984c1.074,1.891 2.832,1.891 3.906,0l7.953-13.996c1.074-1.891 0.175-3.436-2-3.436h-15.813c-2.175,0-3.074,1.546-2,3.436l7.954,13.996z"/>
    <path d="m246.594,223.683h15.813c2.175,0 3.074-1.547 2-3.438l-7.953-13.997c-1.074-1.891-2.832-1.891-3.906,0l-7.954,13.997c-1.074,1.891-0.175,3.438 2,3.438z"/>
  </g>
</svg>
