<?xml version='1.0' encoding='iso-8859-1'?>
<!DOCTYPE svg PUBLIC '-//W3C//DTD SVG 1.1//EN' 'http://www.w3.org/Graphics/SVG/1.1/DTD/svg11.dtd'>
<svg version="1.1" xmlns="http://www.w3.org/2000/svg" viewBox="0 0 297 297" xmlns:xlink="http://www.w3.org/1999/xlink" enable-background="new 0 0 297 297">
  <g>
    <path d="m30.185,208.683c1.515,1.514 3.5,2.27 5.484,2.27 1.983,0 3.969-0.757 5.483-2.27 3.028-3.028 3.028-7.939 0-10.967-3.763-3.761-3.763-9.883 0-13.646 3.028-3.028 3.027-7.938-0.001-10.966-3.03-3.031-7.94-3.028-10.967,0.001-9.805,9.809-9.805,25.77 0.001,35.578z"/>
    <path d="m23.942,211.256c-5.438-5.439-8.434-12.67-8.434-20.361 0-7.692 2.995-14.924 8.434-20.362 3.029-3.028 3.029-7.938 0.002-10.966-3.028-3.029-7.938-3.028-10.967-0.001-8.369,8.367-12.977,19.494-12.977,31.329 0,11.834 4.608,22.961 12.977,31.328 1.515,1.514 3.499,2.271 5.483,2.271 1.984,0 3.97-0.758 5.484-2.272 3.028-3.029 3.028-7.939-0.002-10.966z"/>
    <path d="m255.847,89.264c1.515,1.514 3.5,2.271 5.483,2.271 1.984,0 3.97-0.758 5.484-2.271 9.807-9.808 9.807-25.768 0-35.578-3.026-3.028-7.937-3.029-10.967-0.001-3.028,3.027-3.029,7.938-0.001,10.966 3.762,3.764 3.762,9.885 0,13.646-3.028,3.029-3.028,7.938 0.001,10.967z"/>
    <path d="m284.022,40.146c-3.029-3.027-7.938-3.028-10.967,0.001-3.027,3.028-3.027,7.938 0.002,10.966 5.439,5.438 8.434,12.67 8.434,20.362 0,7.691-2.995,14.923-8.434,20.361-3.029,3.028-3.029,7.938-0.002,10.966 1.515,1.515 3.499,2.273 5.484,2.273 1.983,0 3.969-0.758 5.482-2.271 8.371-8.367 12.979-19.493 12.979-31.328 0-11.835-4.608-22.962-12.978-31.33z"/>
    <path d="m267.919,274.641h-23.78v-262.62c0-5.71-4.63-10.34-10.34-10.34h-170.598c-5.71,0-10.34,4.63-10.34,10.34v262.619h-23.78c-5.71,0-10.339,4.629-10.339,10.339 0,5.71 4.629,10.339 10.339,10.339h238.838c5.71,0 10.339-4.629 10.339-10.339 0-5.709-4.629-10.338-10.339-10.338zm-194.379-252.281h149.92v252.278h-149.92v-252.278z"/>
    <path d="m131.44,37.354h-34.12c-4.854,0-8.788,3.936-8.788,8.789v34.119c0,4.853 3.935,8.788 8.788,8.788h34.12c4.854,0 8.788-3.935 8.788-8.788v-34.119c0-4.854-3.934-8.789-8.788-8.789zm-8.789,34.12h-16.543v-16.543h16.543v16.543z"/>
    <path d="m199.68,37.354h-34.12c-4.854,0-8.788,3.936-8.788,8.789v34.119c0,4.853 3.935,8.788 8.788,8.788h34.12c4.854,0 8.788-3.935 8.788-8.788v-34.119c-2.84217e-14-4.854-3.935-8.789-8.788-8.789zm-8.789,34.12h-16.542v-16.543h16.542v16.543z"/>
    <path d="m131.44,105.592h-34.12c-4.854,0-8.788,3.936-8.788,8.789v34.119c0,4.854 3.935,8.788 8.788,8.788h34.12c4.854,0 8.788-3.935 8.788-8.788v-34.119c0-4.854-3.934-8.789-8.788-8.789zm-8.789,34.12h-16.543v-16.543h16.543v16.543z"/>
    <path d="m199.68,105.592h-34.12c-4.854,0-8.788,3.936-8.788,8.789v34.119c0,4.854 3.935,8.788 8.788,8.788h34.12c4.854,0 8.788-3.935 8.788-8.788v-34.119c-2.84217e-14-4.854-3.935-8.789-8.788-8.789zm-8.789,34.12h-16.542v-16.543h16.542v16.543z"/>
    <path d="m131.44,173.831h-34.12c-4.854,0-8.788,3.934-8.788,8.788v34.12c0,4.854 3.935,8.788 8.788,8.788h34.12c4.854,0 8.788-3.934 8.788-8.788v-34.12c0-4.853-3.934-8.788-8.788-8.788zm-8.789,34.12h-16.543v-16.543h16.543v16.543z"/>
    <path d="m199.68,173.831h-34.12c-4.854,0-8.788,3.934-8.788,8.788v34.12c0,4.854 3.935,8.788 8.788,8.788h34.12c4.854,0 8.788-3.934 8.788-8.788v-34.12c-2.84217e-14-4.853-3.935-8.788-8.788-8.788zm-8.789,34.12h-16.542v-16.543h16.542v16.543z"/>
  </g>
</svg>
