<?xml version='1.0' encoding='iso-8859-1'?>
<!DOCTYPE svg PUBLIC '-//W3C//DTD SVG 1.1//EN' 'http://www.w3.org/Graphics/SVG/1.1/DTD/svg11.dtd'>
<svg version="1.1" xmlns="http://www.w3.org/2000/svg" viewBox="0 0 297 297" xmlns:xlink="http://www.w3.org/1999/xlink" enable-background="new 0 0 297 297">
  <path d="m171.09,44.575l-18.153-30.499c-1.52-2.445-4.008-4.13-6.842-4.636-0.722-0.128-17.955-3.152-43.705-3.152-23.753,0-59.627,2.7-95.646,15.564-4.045,1.445-6.744,5.275-6.744,9.571v26.948c0,3.305 1.606,6.403 4.308,8.307 1.737,1.224 3.787,1.856 5.856,1.856 1.149,0 2.306-0.195 3.417-0.592 33.276-11.885 71.219-14.379 97.189-14.379 3.396,0 6.676,0.043 9.826,0.115-16.826,8.512-31.697,22.485-43.573,41.316-12.102,19.191-20.669,42.755-24.486,66.4-15.104,0.029-27.384,12.098-27.384,26.93 0,14.85 12.31,26.931 27.439,26.931h16.349c8.638,42.979 46.652,75.457 92.137,75.457 45.483,0 83.498-32.479 92.137-75.457h16.349c15.129,0 27.439-12.081 27.439-26.931 0-14.832-12.28-26.9-27.384-26.93-3.817-23.646-12.385-47.209-24.486-66.4-18.643-29.556-44.656-47.165-74.043-50.419zm-150.765-.124v-5.741c30.994-9.929 61.414-12.097 82.064-12.097 16.563,0 29.427,1.358 35.775,2.195l3.412,5.483c-8.396-0.579-18.912-1.055-30.808-1.055-34.022,0.001-64.368,3.769-90.443,11.215zm73.891,61.385c11.937-18.93 33.226-41.494 66.86-41.494 33.635,0 54.923,22.565 66.86,41.494 9.982,15.828 17.347,35.676 20.999,55.558h-175.718c3.652-19.882 11.016-39.73 20.999-55.558zm66.86,164.551c-34.218,0-63.027-23.459-71.272-55.132h13.738c7.847,24.294 30.662,41.921 57.534,41.921 5.612,0 10.162-4.551 10.162-10.163 0-5.612-4.55-10.162-10.162-10.162-15.445,0-28.867-8.775-35.574-21.596h43.089c-0.537,2.114-0.824,4.327-0.824,6.606 0,14.803 12.043,26.846 26.846,26.846 14.803,0 26.847-12.043 26.847-26.846 0-2.279-0.288-4.492-0.825-6.606h11.741c-8.246,31.676-37.08,55.132-71.3,55.132zm40.058-48.526c0,3.595-2.926,6.521-6.521,6.521-3.596,0-6.521-2.926-6.521-6.521 0-3.596 2.926-6.521 6.521-6.521 3.595,0 6.521,2.926 6.521,6.521zm68.427-26.931h-216.97c-3.855,0-7.113-3.024-7.113-6.605 0-3.58 3.258-6.605 7.113-6.605h216.971c3.855,0 7.113,3.025 7.113,6.605 0,3.58-3.258,6.605-7.114,6.605z"/>
</svg>
