<?xml version='1.0' encoding='iso-8859-1'?>
<!DOCTYPE svg PUBLIC '-//W3C//DTD SVG 1.1//EN' 'http://www.w3.org/Graphics/SVG/1.1/DTD/svg11.dtd'>
<svg version="1.1" xmlns="http://www.w3.org/2000/svg" viewBox="0 0 297 297" xmlns:xlink="http://www.w3.org/1999/xlink" enable-background="new 0 0 297 297">
  <g>
    <path d="M60.472,54.501c4.64,0,8.4-3.762,8.4-8.401c0-4.64-3.763-8.4-8.402-8.4C43.73,37.7,30.109,51.322,30.108,68.062   c0,4.64,3.76,8.401,8.399,8.401h0.001c4.64,0,8.401-3.761,8.401-8.399C46.911,60.586,52.995,54.502,60.472,54.501z"/>
    <path d="m59.038,28.911c0.004,0 0.004,0 0.006,0 4.639,0 8.4-3.761 8.4-8.399 0.001-4.641-3.76-8.401-8.399-8.402-0.003,0-0.004,0-0.007,0-14.562,0-28.252,5.672-38.55,15.968-10.298,10.299-15.97,23.991-15.969,38.556 0,4.64 3.761,8.401 8.4,8.401 4.64,0 8.401-3.762 8.401-8.401 0-10.077 3.923-19.55 11.048-26.675 7.125-7.124 16.596-11.048 26.67-11.048z"/>
    <path d="m223.861,177.381l-66.434-59.213c-3.747-3.342-9.404-3.341-13.151-0.001l-66.438,59.212c-2.104,1.876-3.308,4.561-3.308,7.379v102.358c0,5.458 4.425,9.884 9.883,9.884h132.872c5.458,0 9.884-4.426 9.884-9.884v-102.358c2.84217e-14-2.819-1.204-5.502-3.308-7.377zm-16.46,99.851h-113.104v-88.044l56.556-50.403 56.549,50.403v88.044z"/>
    <path d="m291.062,146.877c-4.423-26.534-17.592-44.332-18.15-45.076-2.05-2.732-5.369-4.201-8.771-3.901-3.401,0.296-6.417,2.341-7.963,5.385-0.114,0.224-9.623,18.594-25.798,24.794 3.227-46.199-11.028-77.162-24.235-95.481-15.902-22.058-33.813-31.176-34.567-31.554-2.345-1.172-5.058-1.364-7.545-0.536-36.039,12.014-48.755,45.994-53.24,68.861l-13.832-14.438c-3.639-3.801-9.62-4.081-13.604-0.637-0.601,0.519-14.817,12.939-24.779,31.991-13.82,26.431-12.953,52.659 2.509,75.852 3.027,4.542 9.163,5.77 13.705,2.74 4.543-3.027 5.769-9.164 2.741-13.705-11.278-16.918-11.845-35.508-1.684-55.254 4.294-8.345 9.7-15.269 13.873-19.969l21.374,22.311c2.787,2.91 7.061,3.827 10.805,2.331 3.741-1.495 6.201-5.121 6.216-9.149 0.002-0.563 0.645-54.495 38.075-70.622 5.184,3.411 15.291,11.103 24.516,24.174 17.472,24.761 23.771,56.273 18.723,93.662-0.379,2.805 0.463,5.637 2.313,7.779 1.85,2.143 4.527,3.39 7.358,3.425 0.212,0.004 0.421,0.004 0.633,0.004 20.757,0 35.711-12.832 44.572-23.535 9.414,20.383 19.953,62.324-22.6,104.877-3.859,3.859-3.859,10.118 0,13.978 1.931,1.93 4.459,2.895 6.989,2.895 2.529,0 5.059-0.965 6.989-2.895 36.669-36.67 39.477-73.701 35.377-98.307z"/>
    <path d="m160.732,91.424c0-5.222 2.689-11.01 5.777-15.868 3.471,6.991 7.071,17.726 7.071,32.175 0,5.458 4.426,9.884 9.884,9.884 5.458,0 9.884-4.426 9.884-9.884 0-36.291-18.419-55.128-19.202-55.912-1.853-1.854-4.368-2.895-6.989-2.895-2.621,0-5.136,1.041-6.989,2.895-1.965,1.966-19.202,19.776-19.202,39.605 0,5.458 4.426,9.883 9.884,9.883 5.458,0 9.882-4.425 9.882-9.883z"/>
    <path d="m140.966,185.563v39.534c0,5.458 4.426,9.883 9.884,9.883 5.458,0 9.883-4.425 9.883-9.883v-39.534c0-5.458-4.425-9.884-9.883-9.884-5.458,0.001-9.884,4.426-9.884,9.884z"/>
    <path d="m150.847,243.382c-2.6,0-5.149,1.057-6.988,2.895-1.839,1.839-2.896,4.389-2.896,6.988 0,2.599 1.057,5.149 2.896,6.986 1.839,1.839 4.389,2.896 6.988,2.896 2.608,0 5.149-1.058 6.986-2.896 1.849-1.838 2.896-4.388 2.896-6.986 0-2.6-1.048-5.149-2.896-6.988-1.837-1.839-4.378-2.895-6.986-2.895z"/>
  </g>
</svg>
