<?xml version='1.0' encoding='iso-8859-1'?>
<!DOCTYPE svg PUBLIC '-//W3C//DTD SVG 1.1//EN' 'http://www.w3.org/Graphics/SVG/1.1/DTD/svg11.dtd'>
<svg version="1.1" xmlns="http://www.w3.org/2000/svg" viewBox="0 0 297 297" xmlns:xlink="http://www.w3.org/1999/xlink" enable-background="new 0 0 297 297">
  <g>
    <path d="m148.5,228.861c3.976,0 7.197-3.222 7.197-7.197v-31.687c0-3.975-3.222-7.197-7.197-7.197-3.976,0-7.197,3.222-7.197,7.197v31.687c0,3.976 3.221,7.197 7.197,7.197z"/>
    <path d="m169.6,189.121c-3.323-2.188-7.783-1.27-9.971,2.05-2.189,3.318-1.271,7.782 2.049,9.97 6.894,4.542 11.008,12.216 11.008,20.523 0,13.506-10.85,24.493-24.188,24.493-13.335,0-24.183-10.987-24.183-24.493 0-8.308 4.114-15.981 11.008-20.523 3.319-2.188 4.237-6.651 2.049-9.97-2.187-3.319-6.649-4.238-9.971-2.05-10.945,7.215-17.482,19.381-17.482,32.543 0,21.443 17.306,38.889 38.578,38.889 21.275,0 38.584-17.445 38.584-38.889-5.68434e-14-13.162-6.536-25.328-17.481-32.543z"/>
    <path d="m246.205,97.594c2.435-53.772-43.878-97.594-97.705-97.594s-100.14,43.822-97.705,97.594c2.159,47.67 17.526,190.07 17.526,190.07 0.488,5.29 4.926,9.336 10.237,9.336h139.883c5.312,0 9.749-4.046 10.237-9.336 0.001,0 15.368-142.4 17.527-190.07zm-92.043-76.8v29.432h-11.324v-29.432c1.872-0.137 3.755-0.23 5.662-0.23 1.907-0.001 3.79,0.093 5.662,0.23zm-31.889,4.368v35.346c0,5.679 4.604,10.282 10.282,10.282h31.889c5.678,0 10.282-4.604 10.282-10.282v-35.346c26.562,9.636 46.356,33.474 50.211,62.292h-152.875c3.855-28.818 23.65-52.656 50.211-62.292zm46.857,83.586l-10.517,31.025h-20.227l-10.517-31.025h41.261zm39.936,167.687h-121.132l-15.582-168.416h33.558l15.367,45.337c1.415,4.175 5.331,6.982 9.738,6.982h34.969c4.407,0 8.323-2.808 9.738-6.982l15.367-45.337h33.558l-15.581,168.416z"/>
  </g>
</svg>
