<?xml version='1.0' encoding='iso-8859-1'?>
<!DOCTYPE svg PUBLIC '-//W3C//DTD SVG 1.1//EN' 'http://www.w3.org/Graphics/SVG/1.1/DTD/svg11.dtd'>
<svg version="1.1" xmlns="http://www.w3.org/2000/svg" viewBox="0 0 297 297" xmlns:xlink="http://www.w3.org/1999/xlink" enable-background="new 0 0 297 297">
  <g>
    <path d="m272.548,140.346c0-3.187-1.508-6.021-3.848-7.828l-53.25-45.641v-76.993c0-5.458-4.426-9.884-9.883-9.884h-114.154c-5.459,0-9.885,4.426-9.885,9.884v76.993l-53.625,45.965c-0.035,0.031-0.063,0.065-0.098,0.098-2.053,1.811-3.354,4.454-3.354,7.406v48.924c0,5.458 4.426,9.884 9.883,9.884h228.311c5.459,0 9.883-4.426 9.883-9.884v-48.541c0.006-0.127 0.02-0.253 0.02-0.383zm-171.252-120.578h94.389v61.771h-94.389v-61.771zm-6.227,81.539h106.842l34.016,29.156h-174.875l34.017-29.156zm157.694,78.079h-208.545v-29.156h208.545v29.156z"/>
    <path d="m131.485,59.988c-2.896,2.895-2.896,7.588-0.002,10.483 2.895,2.895 7.59,2.896 10.484,0.001 3.596-3.597 9.449-3.597 13.045,0 1.447,1.446 3.344,2.17 5.24,2.17s3.795-0.724 5.242-2.171c2.895-2.896 2.895-7.589 0-10.483-9.376-9.376-24.634-9.376-34.009,0z"/>
    <path d="m148.489,33.111c-11.313,0-21.949,4.405-29.947,12.406-2.895,2.895-2.895,7.588 0.002,10.482 2.895,2.895 7.586,2.895 10.482-0.001 5.197-5.199 12.111-8.062 19.463-8.062 7.354,0 14.266,2.862 19.465,8.062 1.447,1.448 3.344,2.172 5.242,2.172 1.896,0 3.793-0.724 5.24-2.171 2.897-2.895 2.897-7.588 0.002-10.482-8-8-18.634-12.406-29.949-12.406z"/>
    <path d="m80.788,221.885c0-5.457-4.426-9.883-9.885-9.883-5.457,0-9.883,4.426-9.883,9.883 0,2.222-0.438,2.822-2.063,5.059-2.326,3.199-5.844,8.033-5.844,16.684 0,8.65 3.516,13.486 5.844,16.686 1.625,2.235 2.063,2.836 2.063,5.06 0,2.223-0.438,2.824-2.063,5.06-2.328,3.2-5.844,8.035-5.844,16.685 0,5.458 4.426,9.884 9.883,9.884 5.459,0 9.885-4.426 9.885-9.884 0-2.222 0.436-2.823 2.063-5.058 2.326-3.201 5.844-8.037 5.844-16.686 0-8.65-3.518-13.485-5.844-16.687-1.627-2.235-2.063-2.837-2.063-5.059 0-2.221 0.436-2.822 2.063-5.058 2.327-3.201 5.844-8.036 5.844-16.686z"/>
    <path d="m162.327,221.885c0-5.457-4.426-9.883-9.885-9.883-5.457,0-9.883,4.426-9.883,9.883 0,2.222-0.438,2.822-2.063,5.059-2.326,3.199-5.844,8.033-5.844,16.684 0,8.65 3.516,13.486 5.844,16.686 1.625,2.235 2.063,2.836 2.063,5.06 0,2.223-0.438,2.824-2.063,5.06-2.328,3.2-5.844,8.035-5.844,16.685 0,5.458 4.426,9.884 9.883,9.884 5.459,0 9.885-4.426 9.885-9.884 0-2.222 0.436-2.823 2.063-5.058 2.326-3.201 5.844-8.037 5.844-16.686 0-8.65-3.518-13.485-5.844-16.687-1.627-2.235-2.063-2.837-2.063-5.059 0-2.221 0.436-2.822 2.063-5.058 2.327-3.201 5.844-8.036 5.844-16.686z"/>
    <path d="m243.866,221.885c0-5.457-4.426-9.883-9.885-9.883-5.457,0-9.883,4.426-9.883,9.883 0,2.222-0.438,2.822-2.063,5.059-2.326,3.199-5.844,8.033-5.844,16.684 0,8.65 3.516,13.486 5.844,16.686 1.625,2.235 2.063,2.836 2.063,5.06 0,2.223-0.438,2.824-2.063,5.06-2.328,3.2-5.844,8.035-5.844,16.685 0,5.458 4.426,9.884 9.883,9.884 5.459,0 9.885-4.426 9.885-9.884 0-2.222 0.435-2.823 2.062-5.058 2.326-3.201 5.844-8.037 5.844-16.686 0-8.65-3.518-13.485-5.844-16.687-1.627-2.235-2.062-2.837-2.062-5.059 0-2.221 0.435-2.822 2.062-5.058 2.328-3.201 5.845-8.036 5.845-16.686z"/>
  </g>
</svg>
