<?xml version='1.0' encoding='iso-8859-1'?>
<!DOCTYPE svg PUBLIC '-//W3C//DTD SVG 1.1//EN' 'http://www.w3.org/Graphics/SVG/1.1/DTD/svg11.dtd'>
<svg version="1.1" xmlns="http://www.w3.org/2000/svg" viewBox="0 0 297 297" xmlns:xlink="http://www.w3.org/1999/xlink" enable-background="new 0 0 297 297">
  <g>
    <path d="m106.316,50.486c-3.969,3.967-3.97,10.402-0.001,14.371 3.967,3.97 10.402,3.97 14.371,0.001 15.338-15.334 40.289-15.333 55.627,0 1.983,1.985 4.584,2.977 7.184,2.977 2.602,0 5.202-0.993 7.187-2.978 3.969-3.969 3.969-10.402-0.001-14.371-23.258-23.257-61.106-23.257-84.367-1.42109e-14z"/>
    <path d="m99.794,40.501c13.01-13.011 30.309-20.175 48.708-20.175 18.399,0 35.696,7.164 48.705,20.175 1.983,1.985 4.585,2.978 7.187,2.978 2.6,0 5.201-0.992 7.184-2.977 3.969-3.968 3.97-10.402 0.001-14.371-16.847-16.852-39.248-26.131-63.077-26.131s-46.231,9.279-63.08,26.131c-3.969,3.969-3.969,10.402 0.001,14.371 3.968,3.97 10.403,3.969 14.371-0.001z"/>
    <path d="m204.394,83.841h-35.938c0.293-2.929-0.682-5.96-2.925-8.202-9.391-9.391-24.672-9.391-34.063,0-2.243,2.242-3.218,5.273-2.925,8.202h-35.938c-5.612,0-10.162,4.55-10.162,10.162v192.835c0,5.612 4.55,10.162 10.162,10.162h111.788c5.613,0 10.163-4.55 10.163-10.162v-192.835c0.001-5.612-4.549-10.162-10.162-10.162zm-10.163,192.835h-91.463v-172.51h91.463v172.51z"/>
    <path d="m135.638,252.835c2.865,5.055 7.673,8.072 12.86,8.072 5.186,0 9.992-3.015 12.857-8.061l16.387-28.828c2.891-5.084 3.036-10.6 0.4-15.131-2.638-4.531-7.504-7.131-13.353-7.131h-32.577c-5.848,0-10.714,2.599-13.352,7.13-2.638,4.529-2.493,10.045 0.396,15.133l16.382,28.816zm19.825-30.754l-6.963,12.251-6.965-12.251h13.928z"/>
    <path d="m132.212,179.092h32.577c5.847,0 10.714-2.598 13.351-7.13 2.638-4.531 2.492-10.047-0.397-15.134l-16.384-28.827c-2.867-5.052-7.675-8.067-12.86-8.067-5.188,0-9.996,3.02-12.854,8.063l-16.391,28.836c-2.887,5.086-3.03,10.602-0.392,15.132 2.637,4.529 7.503,7.127 13.35,7.127zm16.288-32.58l6.965,12.255h-13.932l6.967-12.255z"/>
  </g>
</svg>
