<?xml version='1.0' encoding='iso-8859-1'?>
<!DOCTYPE svg PUBLIC '-//W3C//DTD SVG 1.1//EN' 'http://www.w3.org/Graphics/SVG/1.1/DTD/svg11.dtd'>
<svg version="1.1" xmlns="http://www.w3.org/2000/svg" viewBox="0 0 297 297" xmlns:xlink="http://www.w3.org/1999/xlink" enable-background="new 0 0 297 297">
  <g>
    <path d="m73.476,177.352c-3.888,3.9-3.888,10.209 0,14.107 1.506,1.511 37.334,37.007 75.024,37.007 37.689,0 73.52-35.495 75.026-37.006 3.888-3.899 3.888-10.209 0-14.108-1.507-1.512-37.337-37.004-75.026-37.004-37.69,0-73.518,35.494-75.024,37.004zm75.024,20.19c-7.06,0-12.804-5.892-12.804-13.136 0-7.241 5.744-13.133 12.804-13.133 7.061,0 12.806,5.892 12.806,13.133 0,7.244-5.744,13.136-12.806,13.136zm-28.603-29.287c-2.656,4.781-4.179,10.289-4.179,16.151 0,5.863 1.522,11.371 4.18,16.152-9.814-4.98-18.442-11.347-24.301-16.152 5.86-4.807 14.486-11.171 24.3-16.151zm57.209,32.302c2.656-4.781 4.179-10.289 4.179-16.151 0-5.862-1.522-11.369-4.179-16.15 9.813,4.98 18.44,11.345 24.299,16.15-5.861,4.807-14.486,11.172-24.299,16.151z"/>
    <path d="m293.697,128.584l-138.368-124.672c-3.797-3.421-9.565-3.424-13.366-0.007l-138.652,124.671c-3.076,2.767-4.13,7.143-2.647,11.005 1.48,3.863 5.189,6.414 9.327,6.414h31.38v139.671c0,5.518 4.473,9.99 9.989,9.99h194.281c5.517,0 9.989-4.473 9.989-9.99v-139.671h31.38c4.136,0 7.843-2.549 9.325-6.409 1.484-3.861 0.435-8.235-2.638-11.002zm-58.046,147.092h-174.301v-135.194l87.152-77.675 87.148,77.675v135.194zm13.795-149.661l-94.297-84.047c-3.787-3.377-9.506-3.376-13.293-0.001l-94.301,84.048h-11.512l112.594-101.241 112.363,101.241h-11.554z"/>
  </g>
</svg>
