<?xml version="1.0" encoding="iso-8859-1"?>
<!-- Generator: Adobe Illustrator 18.1.1, SVG Export Plug-In . SVG Version: 6.00 Build 0)  -->
<svg version="1.1" id="Capa_1" xmlns="http://www.w3.org/2000/svg" xmlns:xlink="http://www.w3.org/1999/xlink" x="0px" y="0px"
	 viewBox="0 0 179.006 179.006" style="enable-background:new 0 0 179.006 179.006;" xml:space="preserve">
<g>
	<g>
		<path style="fill:#010002;" d="M53.201,127.924c0-8.843-7.196-16.039-16.039-16.039s-16.039,7.196-16.039,16.039
			c0,6.235,3.622,11.594,8.849,14.249h-7.107v13.067H51.47v-13.067H44.37C49.573,139.529,53.201,134.159,53.201,127.924z
			 M37.156,137.411c-5.245,0-9.511-4.254-9.511-9.487c0-5.245,4.266-9.511,9.511-9.511s9.511,4.266,9.511,9.511
			C46.661,133.157,42.395,137.411,37.156,137.411z M22.853,156.457h28.605v13.079H22.853V156.457z M48.212,70.719h-28.14V24.118
			h28.14V70.719z M83.769,54.287h-28.14V24.118h28.14V54.287z M119.337,54.287H91.186V24.118h28.152V54.287z M154.894,54.287
			h-28.158V24.118h28.158V54.287z M179.006,78.536h-6.271V8.246H4.726v70.29H0v13.073h4.726v8.169H38.11v-3.27
			c0-5.776,4.708-10.484,10.49-10.484c5.788,0,10.49,4.708,10.49,10.484v3.27h10.812h9.195v64.436H59.209v6.546h59.388v-6.546
			H98.716v-64.43h9.195h7.751c1.539,7.829,8.425,13.766,16.713,13.766c8.276,0,15.15-5.925,16.689-13.766h23.683v-8.169h6.259
			V78.536L179.006,78.536z M132.369,107.01c-5.794,0-10.502-4.708-10.502-10.49c0-5.776,4.708-10.484,10.502-10.484
			c5.782,0,10.49,4.708,10.49,10.484C142.841,102.302,138.133,107.01,132.369,107.01z M166.201,93.25h-17.149
			c-1.539-7.829-8.413-13.754-16.689-13.754c-8.288,0-15.174,5.925-16.713,13.754h-7.751H69.89h-4.594
			c-1.533-7.829-8.443-13.754-16.713-13.754c-8.276,0-15.186,5.925-16.719,13.754H11.242V14.792h154.942V93.25H166.201z"/>
	</g>
</g>
<g>
</g>
<g>
</g>
<g>
</g>
<g>
</g>
<g>
</g>
<g>
</g>
<g>
</g>
<g>
</g>
<g>
</g>
<g>
</g>
<g>
</g>
<g>
</g>
<g>
</g>
<g>
</g>
<g>
</g>
</svg>
