<?xml version="1.0" encoding="iso-8859-1"?>
<!-- Generator: Adobe Illustrator 18.1.1, SVG Export Plug-In . SVG Version: 6.00 Build 0)  -->
<svg version="1.1" id="Capa_1" xmlns="http://www.w3.org/2000/svg" xmlns:xlink="http://www.w3.org/1999/xlink" x="0px" y="0px"
	 viewBox="0 0 196.907 196.907" style="enable-background:new 0 0 196.907 196.907;" xml:space="preserve">
<g>
	<path style="fill:#010002;" d="M187.032,119.457v17.584h2.47v3.079h-8.891V74.091H72.175v66.023h-8.885v-3.085h2.464v-17.59h-9.869
		v17.59h2.47v8.014h9.105v36.637h9.738v10.4h19.75v-10.4h58.905v10.4h19.75v-10.4h9.738v-36.625h9.105v-8.019h2.458v-17.578H187.032
		L187.032,119.457z M109.564,81.758h33.659v4.935h-33.659V81.758z M93.638,170.086c-3.753,0-6.808-3.049-6.808-6.796
		c0-3.759,3.055-6.802,6.808-6.802c3.765,0,6.814,3.043,6.814,6.802C100.452,167.037,97.403,170.086,93.638,170.086z
		 M143.223,171.774h-33.659v-4.935h33.659V171.774z M143.223,159.739h-33.659v-4.941h33.659V159.739z M142.316,144.899
		c0-5.531,4.493-10.03,10.03-10.03c5.525,0,10.018,4.499,10.018,10.03H142.316z M159.13,170.086c-3.747,0-6.796-3.049-6.796-6.796
		c0-3.759,3.049-6.802,6.796-6.802c3.765,0,6.802,3.043,6.802,6.802C165.933,167.037,162.896,170.086,159.13,170.086z
		 M170.73,144.899h-3.443c0-8.258-6.707-14.959-14.953-14.959c-8.246,0-14.959,6.701-14.959,14.959H82.05V92.564h88.68V144.899z
		 M181.017,70.379H71.758c8.736-12.721,29.888-19.631,54.627-19.631C151.135,50.748,172.287,57.658,181.017,70.379z M37.305,73.303
		c-17.208,0-31.195-13.986-31.195-31.189s13.986-31.201,31.195-31.201c17.191,0,31.177,13.998,31.177,31.201
		S54.495,73.303,37.305,73.303z M37.305,15.788c-14.517,0-26.332,11.808-26.332,26.326c0,14.511,11.814,26.326,26.332,26.326
		c14.511,0,26.326-11.814,26.326-26.326S51.816,15.788,37.305,15.788z M35.497,11.671l1.808-6.844l1.79,6.844H35.497z
		 M39.095,72.569l-1.79,6.838l-1.808-6.838H39.095z M67.754,40.324l6.838,1.808l-6.838,1.784V40.324z M6.856,43.898L0,42.132
		l6.856-1.808V43.898z M42.084,42.15l0.012-0.012h-0.012l-4.589-22.656l-4.988,22.561l0,0v0.024v0.024l0,0l4.594,22.656
		l4.982-22.573h0.012L42.084,42.15z M34.369,42.066l3.109-14.004l2.84,14.052L34.369,42.066z M16.648,45.324l-1.79-6.396h0.698
		h0.692l1.068,4.672l0,0l0.919-4.672h0.704h0.716l0.919,4.636l0,0l1.062-4.636h0.674h0.674l-1.778,6.396h-0.632h-0.638l-1.026-5.042
		l-1.014,5.042h-0.621H16.648z M54.883,45.324v-6.396h4.696v0.567v0.567h-3.353v1.366h3.121v0.549v0.561h-3.121v1.665h3.509v0.549
		v0.573H54.883L54.883,45.324z"/>
</g>
<g>
</g>
<g>
</g>
<g>
</g>
<g>
</g>
<g>
</g>
<g>
</g>
<g>
</g>
<g>
</g>
<g>
</g>
<g>
</g>
<g>
</g>
<g>
</g>
<g>
</g>
<g>
</g>
<g>
</g>
</svg>
