<?xml version="1.0" encoding="iso-8859-1"?>
<!-- Generator: Adobe Illustrator 18.1.1, SVG Export Plug-In . SVG Version: 6.00 Build 0)  -->
<svg version="1.1" id="Capa_1" xmlns="http://www.w3.org/2000/svg" xmlns:xlink="http://www.w3.org/1999/xlink" x="0px" y="0px"
	 viewBox="0 0 170.802 170.802" style="enable-background:new 0 0 170.802 170.802;" xml:space="preserve">
<g>
	<g>
		<path style="fill:#010002;" d="M85.389,0C55.483,0,29.927,8.348,19.383,23.73h132.029C140.851,8.342,115.295,0,85.389,0z"/>
		<path style="fill:#010002;" d="M158.668,83.023v21.254h2.983v3.717h-10.746V28.211H19.873V108H9.126v-3.717h2.983V83.029H0.176
			v21.254h2.983v9.684h11.015v44.262h11.767v12.572h23.867v-12.572h71.185v12.572h23.867v-12.572h11.767v-44.262h11.015v-9.684
			h2.983V83.029h-11.958V83.023z M65.054,37.472h40.67v5.967h-40.67V37.472z M45.817,144.207c-4.541,0-8.216-3.676-8.216-8.216
			c0-4.541,3.676-8.216,8.216-8.216s8.222,3.676,8.222,8.216C54.039,140.532,50.357,144.207,45.817,144.207z M105.724,146.242
			h-40.67v-5.967h40.67V146.242z M105.724,131.713h-40.67v-5.967h40.67V131.713z M104.632,113.776
			c0-6.689,5.43-12.113,12.107-12.113c6.677,0,12.113,5.424,12.113,12.113H104.632z M124.955,144.207
			c-4.535,0-8.216-3.676-8.216-8.216c0-4.541,3.682-8.216,8.216-8.216c4.547,0,8.222,3.676,8.222,8.216
			C133.178,140.532,129.502,144.207,124.955,144.207z M138.971,113.776h-4.153c0-9.977-8.109-18.08-18.08-18.08
			c-9.965,0-18.074,8.103-18.074,18.08H31.806V50.521h107.171v63.255H138.971z"/>
	</g>
</g>
<g>
</g>
<g>
</g>
<g>
</g>
<g>
</g>
<g>
</g>
<g>
</g>
<g>
</g>
<g>
</g>
<g>
</g>
<g>
</g>
<g>
</g>
<g>
</g>
<g>
</g>
<g>
</g>
<g>
</g>
</svg>
