<?xml version="1.0" encoding="iso-8859-1"?>
<!-- Generator: Adobe Illustrator 16.0.0, SVG Export Plug-In . SVG Version: 6.00 Build 0)  -->
<!DOCTYPE svg PUBLIC "-//W3C//DTD SVG 1.1//EN" "http://www.w3.org/Graphics/SVG/1.1/DTD/svg11.dtd">
<svg version="1.1" id="Capa_1" xmlns="http://www.w3.org/2000/svg" xmlns:xlink="http://www.w3.org/1999/xlink" x="0px" y="0px"
	 width="70.065px" height="70.065px" viewBox="0 0 70.065 70.065" style="enable-background:new 0 0 70.065 70.065;"
	 xml:space="preserve">
<g>
	<path d="M58.442,32.046V13.3h-4.284L51.115,0H18.939l-3.043,13.3h-4.284v18.746L11.534,32.4h0.078v1.937h3.471v6.171h8.641v-6.171
		h8.278v2.694h-1.944v2.589h3.333L14.499,52.569v-2.454h-2.59v7.35h2.59v-2.457l16.977,11.636h-2.495v1.692h-3.455v1.729h19.011
		v-1.729h-3.454v-1.692H38.59l16.974-11.636v2.457h2.594v-7.35h-2.594v2.454L36.673,39.62h3.334v-2.589h-1.943v-2.694h8.275v6.171
		h8.641v-6.171h3.47V32.4h0.082L58.442,32.046z M21.098,24.183h-6.376v-6.379h6.376V24.183z M35.031,65.941L18.57,54.654h32.919
		L35.031,65.941z M51.489,52.93H18.57l16.46-11.284L51.489,52.93z M33.734,37.031v-2.694h2.591v2.694H33.734z M45.741,30.053H24.319
		v-1.729h21.422V30.053z M45.741,24.68H24.319v-1.726h21.422V24.68z M45.741,19.313H24.319v-1.728h21.422V19.313z M48.05,13.298
		h-5.639c-0.027-0.149-0.051-0.301-0.051-0.458c0-1.581,1.287-2.871,2.87-2.871s2.872,1.292,2.872,2.871
		C48.103,12.997,48.077,13.148,48.05,13.298z M45.23,8.238c-2.534,0-4.599,2.068-4.599,4.602c0,0.156,0.032,0.306,0.05,0.458H19.444
		l2.251-9.85h26.669l2.254,9.85h-0.837c0.019-0.152,0.048-0.301,0.048-0.458C49.824,10.306,47.767,8.238,45.23,8.238z M55.34,24.183
		h-6.378v-6.379h6.378V24.183z"/>
</g>
<g>
</g>
<g>
</g>
<g>
</g>
<g>
</g>
<g>
</g>
<g>
</g>
<g>
</g>
<g>
</g>
<g>
</g>
<g>
</g>
<g>
</g>
<g>
</g>
<g>
</g>
<g>
</g>
<g>
</g>
</svg>
