<?xml version="1.0" encoding="iso-8859-1"?>
<!-- Generator: Adobe Illustrator 16.0.0, SVG Export Plug-In . SVG Version: 6.00 Build 0)  -->
<!DOCTYPE svg PUBLIC "-//W3C//DTD SVG 1.1//EN" "http://www.w3.org/Graphics/SVG/1.1/DTD/svg11.dtd">
<svg version="1.1" id="Capa_1" xmlns="http://www.w3.org/2000/svg" xmlns:xlink="http://www.w3.org/1999/xlink" x="0px" y="0px"
	 width="76.29px" height="76.29px" viewBox="0 0 76.29 76.29" style="enable-background:new 0 0 76.29 76.29;" xml:space="preserve"
	>
<g>
	<g>
		<path d="M7.857,35.327c-0.071,0.675,0.411,1.077,1.067,0.885c0.656-0.191,1.312,0.201,1.471,0.862
			c0.152,0.666,0.736,0.89,1.296,0.498c0.561-0.393,1.312-0.239,1.678,0.341c0.359,0.575,0.99,0.599,1.387,0.047
			c0.405-0.551,1.164-0.651,1.696-0.224c0.533,0.427,1.124,0.25,1.324-0.407c0.202-0.651,0.889-0.995,1.533-0.761
			c0.637,0.237,1.142-0.129,1.119-0.813c-0.024-0.685,0.517-1.231,1.206-1.217c0.68,0.014,1.039-0.497,0.798-1.132
			c-0.245-0.638,0.087-1.332,0.736-1.538c0.65-0.21,0.827-0.815,0.388-1.335c-0.439-0.526-0.348-1.288,0.198-1.694
			c0.55-0.414,0.521-1.034-0.067-1.39c-0.584-0.353-0.742-1.104-0.36-1.67c0.388-0.565,0.155-1.143-0.511-1.292
			c-0.671-0.147-1.067-0.805-0.89-1.467c0.181-0.649-0.225-1.124-0.9-1.046c-0.682,0.081-1.271-0.414-1.313-1.098
			c-0.042-0.685-0.579-1-1.195-0.698c-0.617,0.292-1.337,0.019-1.598-0.617c-0.262-0.63-0.876-0.757-1.359-0.273
			c-0.488,0.479-1.257,0.452-1.705-0.05c-0.451-0.519-1.072-0.438-1.381,0.174c-0.301,0.615-1.032,0.834-1.63,0.498
			c-0.588-0.339-1.154-0.056-1.241,0.624c-0.088,0.675-0.712,1.124-1.382,1.003c-0.675-0.127-1.117,0.319-0.977,0.99
			c0.141,0.671-0.306,1.301-0.985,1.397c-0.675,0.101-0.944,0.661-0.603,1.249c0.345,0.594,0.138,1.328-0.469,1.643
			c-0.613,0.312-0.68,0.927-0.165,1.379c0.519,0.446,0.557,1.209,0.087,1.702c-0.479,0.499-0.343,1.11,0.292,1.359
			c0.425,0.169,0.68,0.539,0.729,0.954l-3.484,2.058c-0.535-0.172-1.136-0.137-1.657,0.173c-0.957,0.56-1.272,1.801-0.709,2.755
			c0.568,0.958,1.801,1.274,2.759,0.708c0.52-0.306,0.845-0.818,0.945-1.369l3.583-2.117C7.779,34.651,7.893,34.972,7.857,35.327z
			 M2.024,37.228l-0.925-0.521L1.09,35.645l0.908-0.537l0.925,0.52l0.009,1.059L2.024,37.228z M8.965,27.18
			c0.775-3.011,3.849-4.828,6.863-4.056c3.011,0.771,4.831,3.845,4.056,6.86c-0.771,3.011-3.847,4.831-6.863,4.056
			c-0.965-0.243-1.805-0.731-2.48-1.381l2.497-1.478c0.74,0.383,1.654,0.397,2.427-0.061c0.84-0.5,1.275-1.411,1.212-2.331
			l-1.432,0.845c-0.511,0.296-1.172,0.117-1.483-0.411c-0.313-0.53-0.152-1.201,0.353-1.498l1.433-0.849
			c-0.771-0.497-1.788-0.56-2.63-0.063c-0.766,0.461-1.196,1.264-1.217,2.093L9.108,30.44C8.749,29.429,8.676,28.296,8.965,27.18z
			 M7.576,26.817c0.969-3.781,4.823-6.059,8.607-5.086c3.783,0.972,6.068,4.818,5.092,8.609c-0.972,3.781-4.824,6.059-8.61,5.092
			c-1.354-0.351-2.508-1.072-3.397-2.02l0.529-0.316c0.806,0.822,1.83,1.446,3.023,1.756c3.455,0.885,6.986-1.205,7.875-4.657
			c0.893-3.459-1.2-6.994-4.657-7.883c-3.455-0.891-6.994,1.2-7.881,4.657c-0.343,1.341-0.236,2.696,0.226,3.906l-0.522,0.306
			C7.324,29.842,7.186,28.328,7.576,26.817z"/>
		<path d="M1.202,17.019C1.517,17.357,1.69,18,1.589,18.45l-0.126,0.535c-0.103,0.452,0.189,0.829,0.652,0.849l0.553,0.018
			c0.458,0.021,1.037,0.348,1.282,0.743l0.302,0.463c0.243,0.393,0.723,0.455,1.058,0.141l0.407-0.379
			c0.338-0.306,0.98-0.483,1.427-0.383l0.542,0.131c0.446,0.1,0.829-0.196,0.849-0.652l0.021-0.556
			c0.014-0.46,0.348-1.039,0.736-1.287l0.47-0.292c0.388-0.25,0.448-0.726,0.14-1.062l-0.378-0.407
			c-0.318-0.341-0.488-0.981-0.386-1.432l0.124-0.542c0.106-0.444-0.186-0.827-0.651-0.841l-0.553-0.026
			c-0.456-0.019-1.036-0.344-1.281-0.736l-0.301-0.47c-0.243-0.388-0.724-0.448-1.058-0.14l-0.406,0.379
			c-0.341,0.313-0.985,0.483-1.431,0.383l-0.537-0.125c-0.447-0.101-0.83,0.191-0.849,0.652L2.173,13.97
			c-0.021,0.456-0.35,1.034-0.738,1.288l-0.47,0.292c-0.393,0.245-0.451,0.721-0.143,1.058L1.202,17.019z M5.364,14.386
			c1.257,0,2.275,1.023,2.275,2.278c0,1.258-1.019,2.276-2.275,2.276c-1.256,0-2.277-1.019-2.277-2.276
			C3.087,15.409,4.108,14.386,5.364,14.386z"/>
		<path d="M76.29,50.83h-2.627v-9.354h-5.391l-7.544-13.014H29.916l-7.54,13.014H7.066v9.354H5.058v4.671h2.008v3.383H17.87
			c0.557,3.107,3.261,5.478,6.524,5.478c3.263,0,5.971-2.37,6.523-5.478h20.284c0.554,3.107,3.262,5.478,6.528,5.478
			c3.262,0,5.97-2.37,6.521-5.478h9.409v-3.383h2.628L76.29,50.83L76.29,50.83z M24.394,62.025c-2.373,0-4.302-1.93-4.302-4.31
			c0-2.374,1.93-4.307,4.302-4.307c2.378,0,4.31,1.933,4.31,4.307C28.704,60.093,26.771,62.025,24.394,62.025z M57.736,62.025
			c-2.382,0-4.315-1.93-4.315-4.31c0-2.374,1.934-4.307,4.315-4.307c2.372,0,4.302,1.933,4.302,4.307
			C62.038,60.093,60.106,62.025,57.736,62.025z M71.327,56.549h-7.071c-0.553-3.107-3.263-5.475-6.521-5.475
			c-3.265,0-5.977,2.367-6.531,5.475H30.92c-0.554-3.107-3.261-5.475-6.527-5.475c-3.261,0-5.967,2.367-6.52,5.475H9.407V43.811
			h14.317l7.542-13.013h28.126l7.536,13.013h4.402L71.327,56.549L71.327,56.549z"/>
		<rect x="44.031" y="33.528" width="12.537" height="10.142"/>
		<polygon points="26.968,43.67 41.695,43.67 41.695,33.528 32.84,33.528 		"/>
		<polygon points="58.904,43.67 63.689,43.67 58.904,35.409 		"/>
	</g>
</g>
<g>
</g>
<g>
</g>
<g>
</g>
<g>
</g>
<g>
</g>
<g>
</g>
<g>
</g>
<g>
</g>
<g>
</g>
<g>
</g>
<g>
</g>
<g>
</g>
<g>
</g>
<g>
</g>
<g>
</g>
</svg>
