<?xml version="1.0" encoding="iso-8859-1"?>
<!-- Generator: Adobe Illustrator 18.1.1, SVG Export Plug-In . SVG Version: 6.00 Build 0)  -->
<svg version="1.1" id="Capa_1" xmlns="http://www.w3.org/2000/svg" xmlns:xlink="http://www.w3.org/1999/xlink" x="0px" y="0px"
	 viewBox="0 0 179.006 179.006" style="enable-background:new 0 0 179.006 179.006;" xml:space="preserve">
<g>
	<g>
		<path style="fill:#010002;" d="M13.796,74.682l9.786-9.798l9.792,9.798c-0.125,1.784,0.471,3.604,1.832,4.964
			c2.494,2.494,6.546,2.494,9.052,0c2.494-2.494,2.494-6.564,0-9.052c-1.366-1.366-3.186-1.951-4.97-1.838l-9.792-9.798l7.948-7.942
			c2.584,0.597,5.4-0.107,7.411-2.112c2.208-2.196,2.81-5.376,1.891-8.127l-3.741,3.741c-1.325,1.325-3.509,1.277-4.881-0.101
			c-1.378-1.372-1.42-3.568-0.101-4.881l3.741-3.735c-2.763-0.931-5.931-0.328-8.133,1.886c-2.011,2.005-2.697,4.833-2.094,7.411
			l-7.948,7.948l-7.948-7.948c0.603-2.59-0.09-5.406-2.1-7.411c-2.202-2.214-5.37-2.822-8.139-1.886l3.735,3.741
			c1.331,1.331,1.283,3.52-0.095,4.893c-1.372,1.366-3.556,1.408-4.887,0.09l-3.735-3.741c-0.925,2.775-0.322,5.943,1.886,8.139
			c2.011,2.017,4.827,2.691,7.417,2.1l7.948,7.936l-9.792,9.804c-1.784-0.125-3.604,0.453-4.964,1.826c-2.5,2.5-2.5,6.558,0,9.052
			c2.494,2.506,6.546,2.506,9.046,0C13.318,78.28,13.903,76.448,13.796,74.682z M37.335,72.731l3.258-0.871l2.387,2.387l-0.871,3.24
			l-3.258,0.877l-2.375-2.369L37.335,72.731z M8.312,78.363l-3.258-0.871L4.183,74.24l2.381-2.375l3.252,0.871l0.877,3.252
			L8.312,78.363z"/>
		<path style="fill:#010002;" d="M179.006,111.199h-6.116V89.145h-12.823l-17.883-30.873H68.959L51.077,89.145H14.738v22.054h-4.666
			v11.546h4.666v7.912H40.36c1.366,7.369,7.817,12.972,15.579,12.972c7.757,0,14.207-5.597,15.574-12.972h47.89
			c1.366,7.369,7.823,12.972,15.58,12.972c7.757,0,14.213-5.597,15.574-12.972h22.328v-7.918h6.122V111.199z M55.94,137.859
			c-5.567,0-10.096-4.523-10.096-10.078c0-5.573,4.529-10.102,10.096-10.102s10.096,4.535,10.096,10.102
			C66.03,133.336,61.501,137.859,55.94,137.859z M134.983,137.859c-5.579,0-10.102-4.523-10.102-10.078
			c0-5.573,4.529-10.102,10.102-10.102c5.573,0,10.096,4.535,10.096,10.102C145.079,133.336,140.556,137.859,134.983,137.859z
			 M167.114,124.887h-16.552c-1.366-7.375-7.817-12.99-15.574-12.99c-7.769,0-14.213,5.597-15.579,12.99h-47.89
			c-1.366-7.375-7.817-12.99-15.574-12.99c-7.763,0-14.219,5.597-15.579,12.99H20.52V94.921h33.892l17.883-30.879h66.554
			l17.883,30.879h10.382C167.114,94.921,167.114,124.887,167.114,124.887z"/>
		<polygon style="fill:#010002;" points="137.865,94.456 149.1,94.456 137.865,75.052 		"/>
		<rect x="102.606" y="70.403" style="fill:#010002;" width="29.488" height="24.052"/>
		<polygon style="fill:#010002;" points="62.026,94.456 96.836,94.456 96.836,70.403 75.952,70.403 		"/>
	</g>
</g>
<g>
</g>
<g>
</g>
<g>
</g>
<g>
</g>
<g>
</g>
<g>
</g>
<g>
</g>
<g>
</g>
<g>
</g>
<g>
</g>
<g>
</g>
<g>
</g>
<g>
</g>
<g>
</g>
<g>
</g>
</svg>
