<?xml version="1.0" encoding="iso-8859-1"?>
<!-- Generator: Adobe Illustrator 18.1.1, SVG Export Plug-In . SVG Version: 6.00 Build 0)  -->
<svg version="1.1" id="Capa_1" xmlns="http://www.w3.org/2000/svg" xmlns:xlink="http://www.w3.org/1999/xlink" x="0px" y="0px"
	 viewBox="0 0 179.012 179.012" style="enable-background:new 0 0 179.012 179.012;" xml:space="preserve">
<g>
	<g>
		<path style="fill:#010002;" d="M179.012,118.771h-5.865V97.224h-12.68l-17.584-30.347H70.713L53.129,97.224H17.328v21.546h-4.445
			v11.934h4.445v7.632h25.21c1.396,7.262,7.787,12.775,15.448,12.775s14.046-5.513,15.442-12.775h46.84
			c1.396,7.262,7.787,12.775,15.454,12.775c7.661,0,14.046-5.513,15.454-12.775h21.97v-7.632h5.865V118.771L179.012,118.771z
			 M57.986,145.144c-5.394,0-9.786-4.38-9.786-9.792c0-5.394,4.392-9.78,9.786-9.78s9.78,4.38,9.78,9.78
			C67.766,140.764,63.386,145.144,57.986,145.144z M135.728,145.144c-5.394,0-9.792-4.38-9.792-9.792c0-5.394,4.392-9.78,9.792-9.78
			s9.792,4.38,9.792,9.78C145.52,140.764,141.116,145.144,135.728,145.144z M167.18,132.387h-16.009
			c-1.396-7.262-7.787-12.775-15.454-12.775c-7.656,0-14.046,5.513-15.448,12.775h-46.84c-1.396-7.262-7.787-12.775-15.442-12.775
			c-7.661,0-14.052,5.513-15.448,12.775H23.295v-29.196h33.271L74.15,72.844h65.295l17.584,30.347h10.15V132.387L167.18,132.387z"/>
		<rect x="104.038" y="78.954" style="fill:#010002;" width="28.713" height="23.641"/>
		<polygon style="fill:#010002;" points="63.983,102.594 98.071,102.594 98.071,78.954 77.683,78.954 		"/>
		<polygon style="fill:#010002;" points="138.712,102.594 149.607,102.594 138.712,83.787 		"/>
		<path style="fill:#010002;" d="M61.304,58.559c0-16.934-13.724-30.658-30.652-30.658S0,41.625,0,58.559
			s13.724,30.652,30.652,30.652C47.586,89.211,61.304,75.493,61.304,58.559z M22.429,74.299c-1.396-2.106-2.369-4.797-2.93-8.061
			h-4.254l1.116-6.009h2.548v-1.45v-1.617h-3.664l1.116-6.015h3.109c0.603-3.365,1.587-6.098,2.966-8.204
			c2.333-3.532,5.83-5.293,10.514-5.293c3.52,0,6.462,1.187,8.831,3.574c2.369,2.369,3.807,5.585,4.302,9.619h-8.109
			c-0.227-1.862-0.806-3.341-1.754-4.427c-0.937-1.098-2.088-1.629-3.437-1.629c-1.957,0-3.389,1.122-4.302,3.353
			c-0.34,0.847-0.615,1.85-0.841,3.019h8.234l-1.116,6.009h-7.632v1.545v1.539h7.053l-1.122,6.003h-5.334
			c0.239,1.014,0.531,1.933,0.865,2.775c0.949,2.214,2.417,3.33,4.421,3.33c1.343,0,2.458-0.489,3.347-1.48
			c0.901-0.985,1.444-2.339,1.623-4.028h8.109c-0.43,3.867-1.826,6.951-4.183,9.231c-2.363,2.267-5.334,3.401-8.95,3.401
			C28.259,79.467,24.763,77.742,22.429,74.299z"/>
	</g>
</g>
<g>
</g>
<g>
</g>
<g>
</g>
<g>
</g>
<g>
</g>
<g>
</g>
<g>
</g>
<g>
</g>
<g>
</g>
<g>
</g>
<g>
</g>
<g>
</g>
<g>
</g>
<g>
</g>
<g>
</g>
</svg>
