<?xml version="1.0" encoding="iso-8859-1"?>
<!-- Generator: Adobe Illustrator 16.0.0, SVG Export Plug-In . SVG Version: 6.00 Build 0)  -->
<!DOCTYPE svg PUBLIC "-//W3C//DTD SVG 1.1//EN" "http://www.w3.org/Graphics/SVG/1.1/DTD/svg11.dtd">
<svg version="1.1" id="Capa_1" xmlns="http://www.w3.org/2000/svg" xmlns:xlink="http://www.w3.org/1999/xlink" x="0px" y="0px"
	 width="77.082px" height="77.082px" viewBox="0 0 77.082 77.082" style="enable-background:new 0 0 77.082 77.082;"
	 xml:space="preserve">
<g>
	<path d="M71.648,39.33l-3.306-15.038H33.449L30.141,39.33h-5.433v23.527h3.495v6.902h10.44v-6.902h24.508v6.902h10.44v-6.902h3.49
		V39.33H71.648z M67.483,39.153l0.048,0.177h-0.058C67.474,39.272,67.483,39.216,67.483,39.153z M35.313,51.507h-7.139v-7.14h7.139
		V51.507z M62.873,58.145H38.917V56.06h23.956V58.145z M62.873,52.136H38.917v-2.087h23.956V52.136z M62.873,46.137H38.917v-2.094
		h23.956V46.137z M65.383,39.33h-6.157c-0.032-0.163-0.053-0.339-0.053-0.513c0-1.729,1.403-3.138,3.13-3.138
		c1.725,0,3.132,1.409,3.132,3.138C65.435,38.994,65.41,39.167,65.383,39.33z M62.303,33.596c-2.876,0-5.217,2.34-5.217,5.221
		c0,0.174,0.037,0.341,0.051,0.513H34.271l2.385-10.852h28.483l1.73,7.86C65.984,34.714,64.28,33.596,62.303,33.596z M73.614,51.507
		h-7.137v-7.14h7.137V51.507z M25.164,32.918l1.678,0.769l1.69-3.709l-1.679-0.767c0.551-1.995,0.606-4.045,0.212-5.994l1.727-0.649
		l-1.426-3.812l-1.73,0.642c-0.976-1.729-2.364-3.247-4.092-4.392l0.766-1.684L18.6,11.637l-0.763,1.683
		c-2-0.555-4.049-0.606-5.992-0.209l-0.649-1.734L7.379,12.8l0.646,1.729c-1.733,0.985-3.251,2.372-4.398,4.097L1.95,17.86
		l-1.691,3.709l1.683,0.762c-0.553,1.997-0.606,4.048-0.208,5.998L0,28.985l1.427,3.812l1.734-0.645
		c0.976,1.73,2.358,3.25,4.087,4.393l-0.762,1.683l3.705,1.688l0.766-1.679c1.995,0.553,4.043,0.603,5.996,0.208l0.65,1.733
		l3.814-1.428l-0.646-1.728C22.505,36.032,24.022,34.649,25.164,32.918z M10.721,33.838c-4.442-2.026-6.419-7.289-4.391-11.737
		c2.03-4.447,7.295-6.421,11.744-4.391c4.448,2.023,6.414,7.292,4.39,11.739C20.438,33.898,15.169,35.864,10.721,33.838z
		 M17.39,19.208c-3.622-1.647-7.915-0.047-9.562,3.573c-1.651,3.625-0.049,7.909,3.573,9.561c3.621,1.648,7.91,0.049,9.561-3.572
		C22.616,25.147,21.006,20.859,17.39,19.208z M19.726,28.206c-1.335,2.94-4.819,4.237-7.754,2.9
		c-2.94-1.342-4.242-4.821-2.906-7.759c1.339-2.939,4.816-4.237,7.76-2.901C19.768,21.787,21.064,25.266,19.726,28.206z
		 M24.087,14.779l1.077-0.402c0.297,0.509,0.706,0.953,1.215,1.303l-0.477,1.047l1.234,0.56l0.473-1.046
		c0.601,0.161,1.21,0.17,1.783,0.065l0.404,1.072l1.273-0.475l-0.404-1.077c0.519-0.296,0.958-0.707,1.304-1.217l1.043,0.479
		l0.566-1.235l-1.049-0.474c0.162-0.593,0.182-1.204,0.07-1.785l1.072-0.399l-0.477-1.272l-1.072,0.406
		c-0.299-0.516-0.709-0.96-1.217-1.308l0.479-1.043l-1.241-0.559L29.677,8.46c-0.598-0.154-1.203-0.176-1.787-0.058l-0.401-1.08
		L26.22,7.799l0.397,1.07c-0.512,0.301-0.954,0.715-1.306,1.219L24.272,9.61l-0.566,1.235l1.049,0.479
		c-0.16,0.589-0.178,1.2-0.064,1.775l-1.077,0.407L24.087,14.779z M26.82,11.525c0.455-1.007,1.647-1.451,2.652-0.991
		c0.997,0.456,1.44,1.642,0.985,2.647c-0.451,1.005-1.645,1.446-2.642,0.99C26.813,13.716,26.367,12.524,26.82,11.525z"/>
</g>
<g>
</g>
<g>
</g>
<g>
</g>
<g>
</g>
<g>
</g>
<g>
</g>
<g>
</g>
<g>
</g>
<g>
</g>
<g>
</g>
<g>
</g>
<g>
</g>
<g>
</g>
<g>
</g>
<g>
</g>
</svg>
