<?xml version="1.0" encoding="iso-8859-1"?>
<!-- Generator: Adobe Illustrator 16.0.0, SVG Export Plug-In . SVG Version: 6.00 Build 0)  -->
<!DOCTYPE svg PUBLIC "-//W3C//DTD SVG 1.1//EN" "http://www.w3.org/Graphics/SVG/1.1/DTD/svg11.dtd">
<svg version="1.1" id="Capa_1" xmlns="http://www.w3.org/2000/svg" xmlns:xlink="http://www.w3.org/1999/xlink" x="0px" y="0px"
	 width="89.009px" height="89.01px" viewBox="0 0 89.009 89.01" style="enable-background:new 0 0 89.009 89.01;"
	 xml:space="preserve">
<g>
	<path d="M66.183,54.643c-0.958-7.455-5.083-12.908-10.169-12.908h-23.03c-5.086,0-9.208,5.448-10.17,12.908
		c-3.389,1.843-5.14,5.502-5.14,9.726c0,2.879,0.827,5.498,2.414,7.455v7.719h10.114v-4.174h28.59v4.174h10.111v-7.724
		c1.6-1.957,2.418-4.571,2.418-7.45C71.325,60.148,69.573,56.49,66.183,54.643z M32.986,44.765h23.03
		c3.12,0,5.854,3.728,6.891,8.782c-0.405-0.068-0.827-0.109-1.264-0.141c0-0.014,0.005-0.025,0.005-0.039
		c0-3.111-2.527-5.639-5.632-5.639c-3.106,0-5.635,2.527-5.635,5.639H28.219c-0.749,0-1.455,0.068-2.125,0.178
		C27.133,48.492,29.866,44.765,32.986,44.765z M59.629,53.369h-7.225c0-1.993,1.62-3.617,3.611-3.617S59.629,51.376,59.629,53.369z
		 M26.941,67.945c-1.971,0-3.573-1.597-3.573-3.577c0-1.975,1.605-3.576,3.573-3.576c1.979,0,3.577,1.604,3.577,3.576
		C30.523,66.349,28.92,67.945,26.941,67.945z M54.882,67.466H34.118c-0.561,0-1.016-0.446-1.016-1.013
		c0-0.556,0.453-1.01,1.016-1.01h20.765c0.557,0,1.013,0.451,1.013,1.01C55.895,67.015,55.446,67.466,54.882,67.466z M54.882,64.337
		H34.118c-0.561,0-1.016-0.452-1.016-1.013c0-0.562,0.453-1.011,1.016-1.011h20.765c0.557,0,1.013,0.449,1.013,1.011
		C55.895,63.885,55.446,64.337,54.882,64.337z M62.061,67.945c-1.978,0-3.581-1.597-3.581-3.577c0-1.975,1.607-3.576,3.581-3.576
		c1.971,0,3.569,1.604,3.569,3.576C65.63,66.349,64.025,67.945,62.061,67.945z M89.009,63.516H84.96v5.931H72.826v-24.99h4.63
		c-0.561-17.71-15.109-31.954-32.953-31.954c-17.846,0-32.394,14.244-32.954,31.954h4.632v24.988H4.044v-5.929H0v-13.13h4.044v-5.93
		h4.47c0.563-19.38,16.47-34.988,35.991-34.988c19.518,0,35.428,15.606,35.99,34.988h4.468v5.93h4.047V63.516z"/>
</g>
<g>
</g>
<g>
</g>
<g>
</g>
<g>
</g>
<g>
</g>
<g>
</g>
<g>
</g>
<g>
</g>
<g>
</g>
<g>
</g>
<g>
</g>
<g>
</g>
<g>
</g>
<g>
</g>
<g>
</g>
</svg>
