<?xml version="1.0" encoding="iso-8859-1"?>
<!-- Generator: Adobe Illustrator 16.0.0, SVG Export Plug-In . SVG Version: 6.00 Build 0)  -->
<!DOCTYPE svg PUBLIC "-//W3C//DTD SVG 1.1//EN" "http://www.w3.org/Graphics/SVG/1.1/DTD/svg11.dtd">
<svg version="1.1" id="Capa_1" xmlns="http://www.w3.org/2000/svg" xmlns:xlink="http://www.w3.org/1999/xlink" x="0px" y="0px"
	 width="92.983px" height="92.983px" viewBox="0 0 92.983 92.983" style="enable-background:new 0 0 92.983 92.983;"
	 xml:space="preserve">
<g>
	<path d="M48.633,44.708l-0.887,4.268l-3.397-0.708L45.239,44L48.633,44.708z"/>
	<path d="M92.983,49.379l-4.464-0.936l-3.933-11.97l-25.388-5.351l-8.427,9.367l-12.594-2.647l-1.591,7.55l-1.541-0.323
		l-0.767,3.643c-0.236,0.119-0.49,0.205-0.775,0.205c-0.95,0-1.724-0.771-1.724-1.726c0-0.952,0.776-1.728,1.724-1.728h0.544V33.768
		l0.191-0.165l-4.573-6.332L1.137,51.222H0v10.279h17.859c0.654,2.413,2.842,4.206,5.457,4.206c2.616,0,4.807-1.793,5.461-4.206
		h5.305v-3.107h1.395v-4.356h-1.395v-2.812H13.694l19.264-16.523v9.727c-1.292,0.252-2.269,1.403-2.269,2.767
		c0,1.55,1.261,2.814,2.815,2.814c0.561,0,1.054-0.206,1.493-0.488l0.696,0.144l-0.562,2.676l8.859,1.861
		c-0.04,2.66,1.803,5.064,4.5,5.634c0.388,0.083,0.782,0.124,1.178,0.124c2.294,0,4.334-1.41,5.21-3.459l16.433,3.454
		c-0.023,1.122,0.292,2.227,0.921,3.185c0.831,1.268,2.104,2.14,3.584,2.449c0.388,0.082,0.782,0.123,1.177,0.123
		c2.293,0,4.332-1.409,5.208-3.458l7.729,1.624L92.983,49.379z M20.824,37.122h7.641l-7.641,6.556V37.122z M19.735,43.702h-7.937
		l7.937-6.662V43.702z M20.929,36.031l7.489-6.281v6.281H20.929z M10.569,44.732v6.49H2.837L10.569,44.732z M23.32,63.527
		c-1.925,0-3.495-1.569-3.495-3.495c0-1.932,1.567-3.499,3.495-3.499c1.929,0,3.497,1.567,3.497,3.499
		C26.817,61.958,25.247,63.527,23.32,63.527z M31.906,59.325h-2.976c-0.353-2.797-2.719-4.973-5.604-4.973
		c-2.887,0-5.253,2.176-5.603,4.973H2.191v-5.922h29.722L31.906,59.325L31.906,59.325z M11.66,51.222V44.79h7.865l-7.498,6.432
		H11.66z M29.505,36.227v-7.328l3.268,4.528L29.505,36.227z M53.083,54.998c-0.388,1.848-2.274,3.096-4.137,2.698
		c-1.889-0.396-3.099-2.258-2.702-4.14c0.341-1.608,1.777-2.776,3.419-2.776c0.241,0,0.485,0.025,0.726,0.073
		c0.914,0.191,1.696,0.729,2.203,1.51C53.103,53.15,53.277,54.083,53.083,54.998z M80.41,60.752
		c-0.388,1.844-2.265,3.089-4.14,2.688c-0.917-0.191-1.702-0.726-2.208-1.506c-0.512-0.787-0.689-1.715-0.493-2.635
		c0.338-1.607,1.774-2.775,3.415-2.775c0.244,0,0.485,0.029,0.728,0.077c0.912,0.191,1.697,0.728,2.206,1.511
		C80.426,58.905,80.604,59.835,80.41,60.752z M82.664,60.11c0.016-1.12-0.297-2.222-0.924-3.178
		c-0.826-1.275-2.101-2.146-3.581-2.457c-2.655-0.545-5.347,0.94-6.392,3.342l-16.429-3.455c0.019-1.118-0.296-2.223-0.921-3.185
		c-0.831-1.269-2.104-2.14-3.586-2.45c-2.646-0.56-5.345,0.933-6.384,3.344l-6.734-1.419l2.151-10.222l11.687,2.463l8.424-9.366
		l22.927,4.826l3.938,11.971l3.559,0.744l-2.153,10.224L82.664,60.11z M81.868,42.155l2.429,7.391l-3.813-0.806L81.868,42.155z
		 M70.042,37.867L80.1,39.978l-1.752,8.318l-10.053-2.114L70.042,37.867z M60.761,35.91l7.15,1.509l-1.752,8.312l-11.962-2.515
		L60.761,35.91z"/>
</g>
<g>
</g>
<g>
</g>
<g>
</g>
<g>
</g>
<g>
</g>
<g>
</g>
<g>
</g>
<g>
</g>
<g>
</g>
<g>
</g>
<g>
</g>
<g>
</g>
<g>
</g>
<g>
</g>
<g>
</g>
</svg>
