<?xml version="1.0" encoding="iso-8859-1"?>
<!-- Generator: Adobe Illustrator 16.0.0, SVG Export Plug-In . SVG Version: 6.00 Build 0)  -->
<!DOCTYPE svg PUBLIC "-//W3C//DTD SVG 1.1//EN" "http://www.w3.org/Graphics/SVG/1.1/DTD/svg11.dtd">
<svg version="1.1" id="Capa_1" xmlns="http://www.w3.org/2000/svg" xmlns:xlink="http://www.w3.org/1999/xlink" x="0px" y="0px"
	 width="77.083px" height="77.083px" viewBox="0 0 77.083 77.083" style="enable-background:new 0 0 77.083 77.083;"
	 xml:space="preserve">
<g>
	<path d="M20.188,27.922c0.467-0.348,0.441-0.88-0.058-1.179c-0.496-0.302-0.633-0.94-0.307-1.418
		c0.327-0.481,0.131-0.972-0.437-1.095c-0.567-0.129-0.905-0.684-0.754-1.246c0.154-0.551-0.189-0.957-0.764-0.894
		c-0.579,0.067-1.079-0.346-1.116-0.93c-0.038-0.579-0.493-0.843-1.019-0.588c-0.52,0.245-1.133,0.014-1.355-0.526
		c-0.221-0.535-0.743-0.642-1.155-0.234c-0.414,0.407-1.068,0.383-1.453-0.049c-0.383-0.439-0.911-0.37-1.17,0.149
		c-0.256,0.523-0.878,0.71-1.388,0.425c-0.502-0.287-0.979-0.049-1.055,0.531c-0.075,0.575-0.605,0.954-1.176,0.843
		c-0.571-0.103-0.946,0.273-0.827,0.844c0.12,0.569-0.259,1.104-0.836,1.184c-0.575,0.086-0.803,0.562-0.511,1.065
		c0.296,0.504,0.114,1.126-0.402,1.394c-0.517,0.265-0.577,0.792-0.138,1.172c0.439,0.378,0.471,1.026,0.072,1.446
		c-0.406,0.423-0.294,0.939,0.245,1.154c0.363,0.145,0.582,0.457,0.624,0.81l-2.962,1.75c-0.453-0.144-0.965-0.116-1.406,0.146
		c-0.814,0.476-1.082,1.529-0.603,2.343c0.484,0.812,1.532,1.081,2.343,0.6c0.441-0.256,0.72-0.693,0.804-1.163l3.045-1.801
		c0.182,0.201,0.28,0.475,0.247,0.775c-0.06,0.575,0.348,0.918,0.907,0.751c0.558-0.163,1.119,0.169,1.252,0.732
		c0.132,0.562,0.625,0.754,1.102,0.422c0.474-0.338,1.116-0.201,1.422,0.29c0.309,0.49,0.842,0.508,1.183,0.044
		c0.341-0.47,0.987-0.553,1.436-0.192c0.448,0.364,0.958,0.216,1.126-0.345c0.171-0.551,0.755-0.838,1.304-0.643
		c0.544,0.201,0.974-0.113,0.953-0.694c-0.019-0.578,0.439-1.043,1.021-1.03c0.579,0.015,0.885-0.42,0.68-0.959
		c-0.211-0.545,0.074-1.136,0.626-1.312c0.551-0.178,0.701-0.69,0.329-1.136C19.646,28.915,19.718,28.273,20.188,27.922z
		 M1.721,35.051l-0.787-0.443l-0.007-0.901L1.7,33.25l0.787,0.441l0.007,0.904L1.721,35.051z M7.622,26.516
		c0.661-2.562,3.272-4.111,5.832-3.452c2.559,0.653,4.105,3.268,3.448,5.826c-0.658,2.56-3.272,4.106-5.833,3.453
		c-0.819-0.216-1.534-0.628-2.106-1.176l2.124-1.251c0.631,0.324,1.406,0.339,2.062-0.054c0.715-0.425,1.082-1.206,1.028-1.985
		l-1.217,0.727c-0.433,0.25-0.995,0.096-1.259-0.346c-0.264-0.452-0.13-1.023,0.302-1.276l1.217-0.721
		c-0.654-0.423-1.519-0.477-2.235-0.055c-0.652,0.396-1.016,1.075-1.036,1.783l-2.205,1.304C7.439,28.422,7.376,27.459,7.622,26.516
		z M18.082,29.198c-0.827,3.214-4.103,5.148-7.316,4.331c-1.151-0.301-2.135-0.914-2.889-1.716l0.451-0.267
		c0.682,0.699,1.551,1.227,2.565,1.493c2.936,0.749,5.94-1.023,6.696-3.955c0.755-2.948-1.023-5.944-3.961-6.699
		c-2.936-0.755-5.942,1.021-6.697,3.957c-0.292,1.14-0.199,2.289,0.194,3.318L6.68,29.917c-0.453-1.135-0.569-2.423-0.238-3.705
		c0.825-3.217,4.1-5.151,7.314-4.326C16.97,22.711,18.911,25.979,18.082,29.198z M1.022,17.878c0.27,0.283,0.417,0.829,0.328,1.217
		L1.25,19.551c-0.089,0.385,0.161,0.705,0.553,0.724l0.472,0.018c0.39,0.014,0.883,0.297,1.09,0.633l0.252,0.395
		c0.207,0.334,0.615,0.388,0.9,0.116l0.343-0.324c0.288-0.257,0.834-0.408,1.217-0.328l0.462,0.11
		c0.381,0.086,0.706-0.166,0.72-0.551l0.019-0.474c0.012-0.393,0.297-0.883,0.627-1.093l0.4-0.248
		c0.329-0.213,0.381-0.617,0.116-0.904L8.1,17.285c-0.266-0.287-0.413-0.833-0.326-1.217l0.105-0.459
		c0.087-0.379-0.161-0.706-0.557-0.717L6.851,14.87c-0.388-0.017-0.88-0.294-1.089-0.633l-0.252-0.4
		c-0.21-0.329-0.614-0.383-0.899-0.114l-0.348,0.323c-0.288,0.261-0.835,0.411-1.217,0.328l-0.458-0.109
		c-0.381-0.081-0.707,0.163-0.722,0.553l-0.014,0.475c-0.016,0.388-0.299,0.878-0.628,1.094l-0.399,0.245
		c-0.334,0.21-0.383,0.611-0.12,0.901L1.022,17.878z M4.562,15.638c1.068,0,1.931,0.867,1.931,1.935
		c0,1.072-0.863,1.934-1.931,1.934c-1.07,0-1.934-0.862-1.934-1.934C2.627,16.505,3.494,15.638,4.562,15.638z M70.801,34.431
		c-1.138-8.438-5.789-14.587-11.525-14.587H32.505c-5.735,0-10.387,6.149-11.527,14.585c-4.137,2.092-6.281,6.431-6.281,11.462
		c0,3.86,1.271,7.322,3.73,9.668v7.975h9.925v-4.85h35.075v4.85h9.925v-7.978c2.461-2.347,3.731-5.801,3.731-9.665
		C77.082,40.863,74.937,36.522,70.801,34.431z M32.505,22.823h26.773c3.775,0,7.078,4.471,8.306,10.525
		c-0.616-0.119-1.267-0.179-1.941-0.214c0-0.014,0.004-0.026,0.004-0.04c0-3.513-2.857-6.372-6.37-6.372
		c-3.511,0-6.369,2.859-6.369,6.372H26.958c-0.979,0-1.901,0.089-2.766,0.248C25.422,27.296,28.728,22.823,32.505,22.823z
		 M63.662,33.096h-8.764c0-2.416,1.969-4.387,4.382-4.387C61.696,28.709,63.662,30.68,63.662,33.096z M25.477,50.049
		c-2.292,0-4.156-1.859-4.156-4.156s1.864-4.158,4.156-4.158c2.298,0,4.159,1.861,4.159,4.158S27.775,50.049,25.477,50.049z
		 M57.961,49.303H33.817c-0.546,0-0.992-0.44-0.992-0.99c0-0.548,0.444-0.997,0.992-0.997h24.146c0.548,0,0.995,0.445,0.995,0.997
		C58.958,48.863,58.511,49.303,57.961,49.303z M57.961,45.667H33.817c-0.546,0-0.992-0.44-0.992-0.995c0-0.54,0.444-0.99,0.992-0.99
		h24.146c0.548,0,0.995,0.442,0.995,0.99C58.958,45.222,58.511,45.667,57.961,45.667z M66.303,50.049
		c-2.295,0-4.158-1.859-4.158-4.156s1.863-4.158,4.158-4.158c2.293,0,4.156,1.861,4.156,4.158S68.598,50.049,66.303,50.049z"/>
</g>
<g>
</g>
<g>
</g>
<g>
</g>
<g>
</g>
<g>
</g>
<g>
</g>
<g>
</g>
<g>
</g>
<g>
</g>
<g>
</g>
<g>
</g>
<g>
</g>
<g>
</g>
<g>
</g>
<g>
</g>
</svg>
