<?xml version="1.0" encoding="iso-8859-1"?>
<!-- Generator: Adobe Illustrator 16.0.0, SVG Export Plug-In . SVG Version: 6.00 Build 0)  -->
<!DOCTYPE svg PUBLIC "-//W3C//DTD SVG 1.1//EN" "http://www.w3.org/Graphics/SVG/1.1/DTD/svg11.dtd">
<svg version="1.1" id="Capa_1" xmlns="http://www.w3.org/2000/svg" xmlns:xlink="http://www.w3.org/1999/xlink" x="0px" y="0px"
	 width="70.067px" height="70.067px" viewBox="0 0 70.067 70.067" style="enable-background:new 0 0 70.067 70.067;"
	 xml:space="preserve">
<g>
	<path d="M48.113,0H21.958c-2.974,0-5.41,2.434-5.41,5.41v17.923c0,2.976,2.436,5.41,5.41,5.41h7.664v36.371l2.363,2.169V28.74
		h2.374v40.705l0.675,0.622l5.416-4.959V28.74h7.664c2.97,0,5.406-2.434,5.406-5.409V5.407C53.52,2.434,51.083,0,48.113,0z
		 M43.154,12.905H26.917c-2.974,0-5.41-1.752-5.41-3.889s2.436-3.889,5.41-3.889h16.238c2.97,0,5.406,1.752,5.406,3.889
		S46.124,12.905,43.154,12.905z"/>
</g>
<g>
</g>
<g>
</g>
<g>
</g>
<g>
</g>
<g>
</g>
<g>
</g>
<g>
</g>
<g>
</g>
<g>
</g>
<g>
</g>
<g>
</g>
<g>
</g>
<g>
</g>
<g>
</g>
<g>
</g>
</svg>
