<?xml version="1.0" encoding="iso-8859-1"?>
<!-- Generator: Adobe Illustrator 16.0.0, SVG Export Plug-In . SVG Version: 6.00 Build 0)  -->
<!DOCTYPE svg PUBLIC "-//W3C//DTD SVG 1.1//EN" "http://www.w3.org/Graphics/SVG/1.1/DTD/svg11.dtd">
<svg version="1.1" id="Capa_1" xmlns="http://www.w3.org/2000/svg" xmlns:xlink="http://www.w3.org/1999/xlink" x="0px" y="0px"
	 width="83.848px" height="83.847px" viewBox="0 0 83.848 83.847" style="enable-background:new 0 0 83.848 83.847;"
	 xml:space="preserve">
<g>
	<g>
		<path d="M0,28.948c0,1.332,1.08,2.409,2.411,2.409c1.327,0,2.403-1.077,2.403-2.409c0-1.329-2.403-5.552-2.403-5.552
			S0,27.619,0,28.948z"/>
		<path d="M8.984,38.513v2.088h21.679v-2.088h-2.788V15.205H11.771v18.964h-2.7V20.493l-0.009-1.045H8.037H3.205l-1.614,2.077
			l1.643,1.287l0.99-1.272h2.766v14.718h4.792v2.265H8.989v-0.009H8.984z M15.347,18.811h8.965v6.692h-8.965V18.811z"/>
		<path d="M83.848,55.5h-2.484v-8.951h-5.2l-7.252-12.52H39.216l-7.25,12.52H17.23V55.5h-1.897v4.672h1.897v3.211h10.384
			c0.549,2.986,3.167,5.261,6.321,5.261c3.149,0,5.762-2.274,6.314-5.261h19.428c0.55,2.986,3.164,5.261,6.31,5.261
			c3.152,0,5.771-2.274,6.318-5.261h9.054v-3.211h2.479V55.5H83.848z M33.938,66.307c-2.266,0-4.104-1.834-4.104-4.093
			c0-2.26,1.837-4.101,4.104-4.101c2.258,0,4.097,1.841,4.097,4.101C38.035,64.473,36.196,66.307,33.938,66.307z M65.996,66.307
			c-2.263,0-4.099-1.834-4.099-4.093c0-2.26,1.836-4.101,4.099-4.101c2.258,0,4.102,1.841,4.102,4.101
			C70.098,64.473,68.25,66.307,65.996,66.307z M79.028,61.049h-6.718c-0.548-2.988-3.167-5.27-6.314-5.27
			c-3.15,0-5.765,2.281-6.314,5.27H40.256c-0.552-2.988-3.165-5.27-6.314-5.27c-3.153,0-5.772,2.281-6.321,5.27h-8.051V48.884
			h13.746l7.25-12.52H67.57l7.251,12.52h4.214v12.163h-0.007V61.049z"/>
		<rect x="52.866" y="38.955" width="11.962" height="9.759"/>
		<polygon points="67.164,48.707 71.722,48.707 67.164,40.833 		"/>
		<polygon points="36.405,48.707 50.53,48.707 50.53,38.955 42.058,38.955 		"/>
	</g>
</g>
<g>
</g>
<g>
</g>
<g>
</g>
<g>
</g>
<g>
</g>
<g>
</g>
<g>
</g>
<g>
</g>
<g>
</g>
<g>
</g>
<g>
</g>
<g>
</g>
<g>
</g>
<g>
</g>
<g>
</g>
</svg>
