<?xml version="1.0" encoding="iso-8859-1"?>
<!-- Generator: Adobe Illustrator 16.0.0, SVG Export Plug-In . SVG Version: 6.00 Build 0)  -->
<!DOCTYPE svg PUBLIC "-//W3C//DTD SVG 1.1//EN" "http://www.w3.org/Graphics/SVG/1.1/DTD/svg11.dtd">
<svg version="1.1" id="Capa_1" xmlns="http://www.w3.org/2000/svg" xmlns:xlink="http://www.w3.org/1999/xlink" x="0px" y="0px"
	 width="70.074px" height="70.074px" viewBox="0 0 70.074 70.074" style="enable-background:new 0 0 70.074 70.074;"
	 xml:space="preserve">
<g>
	<path d="M70.074,37.669h-2.568v-9.173h-8.148v-3.745h-2.335v3.745H43.311v-3.745h-2.336v3.745H25.5l7.659-7.834l-1.67-1.633
		l-9.256,9.47H1.961v9.176H0v4.672h1.964v3.312H12.59c0.553,3.057,3.221,5.389,6.435,5.389c3.212,0,5.882-2.332,6.433-5.389h19.917
		c0.554,3.057,3.226,5.389,6.438,5.389c3.216,0,5.887-2.332,6.437-5.389h9.257v-3.312h2.566L70.074,37.669L70.074,37.669z
		 M19.025,48.703c-2.327,0-4.219-1.892-4.219-4.218c0-2.327,1.892-4.216,4.219-4.216s4.217,1.889,4.217,4.216
		C23.242,46.812,21.352,48.703,19.025,48.703z M51.816,48.703c-2.326,0-4.222-1.892-4.222-4.218c0-2.327,1.896-4.216,4.222-4.216
		c2.327,0,4.22,1.889,4.22,4.216C56.036,46.812,54.144,48.703,51.816,48.703z M65.17,43.317h-6.921
		c-0.552-3.057-3.221-5.384-6.433-5.384c-3.216,0-5.888,2.327-6.441,5.384H25.46c-0.553-3.057-3.221-5.384-6.433-5.384
		c-3.214,0-5.882,2.327-6.435,5.384H4.302V30.832h60.873v12.485H65.17z"/>
</g>
<g>
</g>
<g>
</g>
<g>
</g>
<g>
</g>
<g>
</g>
<g>
</g>
<g>
</g>
<g>
</g>
<g>
</g>
<g>
</g>
<g>
</g>
<g>
</g>
<g>
</g>
<g>
</g>
<g>
</g>
</svg>
