<?xml version="1.0" encoding="iso-8859-1"?>
<!-- Generator: Adobe Illustrator 16.0.0, SVG Export Plug-In . SVG Version: 6.00 Build 0)  -->
<!DOCTYPE svg PUBLIC "-//W3C//DTD SVG 1.1//EN" "http://www.w3.org/Graphics/SVG/1.1/DTD/svg11.dtd">
<svg version="1.1" id="Capa_1" xmlns="http://www.w3.org/2000/svg" xmlns:xlink="http://www.w3.org/1999/xlink" x="0px" y="0px"
	 width="70.074px" height="70.074px" viewBox="0 0 70.074 70.074" style="enable-background:new 0 0 70.074 70.074;"
	 xml:space="preserve">
<g>
	<path d="M70.074,40.791c0,2.93-2.372,5.302-5.297,5.302c-2.929,0-5.299-2.372-5.299-5.302c0-2.924,5.299-12.21,5.299-12.21
		S70.074,37.867,70.074,40.791z M13.977,30.921h19.709V16.208H13.977V30.921z M60.79,22.181h-6.076v32.363H43.833v4.973h3.832v4.59
		h-3.832H3.831H0v-4.59h3.833V5.968h40v43.988h6.298V19.885l-0.005-2.301l2.284,0.008h10.62l3.557,4.561l-3.616,2.822L60.79,22.181z
		 M39.246,59.521V10.558H8.42v48.963H39.246z"/>
</g>
<g>
</g>
<g>
</g>
<g>
</g>
<g>
</g>
<g>
</g>
<g>
</g>
<g>
</g>
<g>
</g>
<g>
</g>
<g>
</g>
<g>
</g>
<g>
</g>
<g>
</g>
<g>
</g>
<g>
</g>
</svg>
