<?xml version="1.0" encoding="iso-8859-1"?>
<!-- Generator: Adobe Illustrator 18.1.1, SVG Export Plug-In . SVG Version: 6.00 Build 0)  -->
<svg version="1.1" id="Capa_1" xmlns="http://www.w3.org/2000/svg" xmlns:xlink="http://www.w3.org/1999/xlink" x="0px" y="0px"
	 viewBox="0 0 179.812 179.812" style="enable-background:new 0 0 179.812 179.812;" xml:space="preserve">
<g>
	<g>
		<path style="fill:#010002;" d="M106.437,45.993l-7.19-7.435c-3.109,2.494-5.836,5.364-8.049,8.551l9.201,5.281
			C102.057,50.002,104.08,47.866,106.437,45.993z"/>
		<path style="fill:#010002;" d="M155.27,52.031l9.094-5.424c-2.285-3.156-5.036-5.991-8.181-8.431l-7.059,7.518
			C151.487,47.532,153.569,49.65,155.27,52.031z"/>
		<path style="fill:#010002;" d="M123.067,38.94l-1.593-9.78c-4.105,0.555-8.103,1.647-11.874,3.24l4.606,8.956
			C117.01,40.175,119.988,39.357,123.067,38.94z"/>
		<path style="fill:#010002;" d="M145.717,32.185c-3.777-1.545-7.781-2.59-11.91-3.091l-1.432,9.804
			c3.079,0.37,6.074,1.146,8.879,2.297L145.717,32.185z"/>
		<rect x="84.455" y="99.259" style="fill:#010002;" width="10.878" height="9.869"/>
		<rect x="84.455" y="115.871" style="fill:#010002;" width="10.878" height="9.857"/>
		<rect x="84.455" y="82.665" style="fill:#010002;" width="10.878" height="9.863"/>
		<rect x="84.455" y="56.417" style="fill:#010002;" width="10.878" height="9.869"/>
		<path style="fill:#010002;" d="M30.3,45.993l-7.19-7.435c-3.109,2.494-5.836,5.364-8.049,8.551l9.201,5.281
			C25.914,50.002,27.949,47.866,30.3,45.993z"/>
		<path style="fill:#010002;" d="M79.127,52.031l9.088-5.424c-2.285-3.156-5.03-5.991-8.169-8.431l-7.065,7.518
			C75.356,47.532,77.426,49.65,79.127,52.031z"/>
		<path style="fill:#010002;" d="M46.923,38.94l-1.593-9.78c-4.111,0.555-8.097,1.647-11.874,3.24l4.6,8.956
			C40.867,40.175,43.862,39.357,46.923,38.94z"/>
		<path style="fill:#010002;" d="M69.598,32.185c-3.777-1.545-7.793-2.59-11.922-3.091l-1.432,9.804
			c3.079,0.37,6.08,1.146,8.903,2.297L69.598,32.185z"/>
		<path style="fill:#010002;" d="M177.168,91.89c-26.785-14.183-56.966-21.678-87.271-21.678S29.411,77.707,2.625,91.89L0,93.286
			l30.407,57.431l2.643-1.396c34.894-18.473,78.816-18.473,113.711,0l2.631,1.396l30.419-57.431L177.168,91.89z M146.892,142.692
			c-17.626-8.819-37.275-13.449-56.996-13.449s-39.369,4.642-56.996,13.449l-24.834-46.9c25.258-12.835,53.487-19.613,81.83-19.613
			s56.566,6.772,81.83,19.613L146.892,142.692z"/>
	</g>
</g>
<g>
</g>
<g>
</g>
<g>
</g>
<g>
</g>
<g>
</g>
<g>
</g>
<g>
</g>
<g>
</g>
<g>
</g>
<g>
</g>
<g>
</g>
<g>
</g>
<g>
</g>
<g>
</g>
<g>
</g>
</svg>
