<?xml version="1.0" encoding="iso-8859-1"?>
<!-- Generator: Adobe Illustrator 18.1.1, SVG Export Plug-In . SVG Version: 6.00 Build 0)  -->
<svg version="1.1" id="Capa_1" xmlns="http://www.w3.org/2000/svg" xmlns:xlink="http://www.w3.org/1999/xlink" x="0px" y="0px"
	 viewBox="0 0 177.622 177.622" style="enable-background:new 0 0 177.622 177.622;" xml:space="preserve">
<g>
	<path style="fill:#010002;" d="M177.616,105.825h-5.722V39.85H86.615l-0.012,44.805l-1.11-0.012V54.839H47.031L29.745,84.685H4.314
		v21.141H0v11.934h4.314v7.459h15.001c1.396,7.142,7.691,12.554,15.251,12.554c7.548,0,13.825-5.4,15.233-12.554h73.548
		c1.396,7.142,7.691,12.554,15.233,12.554c7.566,0,13.843-5.4,15.257-12.554H171.9v-7.459h5.722v-11.934H177.616z M34.56,131.799
		c-5.293,0-9.577-4.302-9.577-9.571c0-5.269,4.302-9.571,9.577-9.571s9.571,4.302,9.571,9.571
		C44.131,127.497,39.835,131.799,34.56,131.799z M138.575,131.799c-5.281,0-9.571-4.302-9.571-9.571c0-5.269,4.29-9.571,9.571-9.571
		c5.293,0,9.577,4.302,9.577,9.571C148.151,127.497,143.867,131.799,138.575,131.799z M165.927,119.251H153.82
		c-1.396-7.142-7.691-12.554-15.245-12.554s-13.831,5.406-15.233,12.554H49.788c-1.396-7.142-7.685-12.554-15.233-12.554
		c-7.554,0-13.843,5.406-15.245,12.554h-9.034V90.652H33.17l17.292-29.846H79.52v29.739l13.044,0.125l0.012-44.865h73.339v73.446
		H165.927z M53.917,66.772H73.93v23.247H40.443L53.917,66.772z"/>
</g>
<g>
</g>
<g>
</g>
<g>
</g>
<g>
</g>
<g>
</g>
<g>
</g>
<g>
</g>
<g>
</g>
<g>
</g>
<g>
</g>
<g>
</g>
<g>
</g>
<g>
</g>
<g>
</g>
<g>
</g>
</svg>
