<?xml version="1.0" encoding="iso-8859-1"?>
<!-- Generator: Adobe Illustrator 16.0.0, SVG Export Plug-In . SVG Version: 6.00 Build 0)  -->
<!DOCTYPE svg PUBLIC "-//W3C//DTD SVG 1.1//EN" "http://www.w3.org/Graphics/SVG/1.1/DTD/svg11.dtd">
<svg version="1.1" id="Capa_1" xmlns="http://www.w3.org/2000/svg" xmlns:xlink="http://www.w3.org/1999/xlink" x="0px" y="0px"
	 width="73.414px" height="73.414px" viewBox="0 0 73.414 73.414" style="enable-background:new 0 0 73.414 73.414;"
	 xml:space="preserve">
<g>
	<path d="M30.12,13.448l-3.911-3.91l1.651-1.651l3.911,3.91L30.12,13.448z M42.43,16.228c-0.426-2.798-2.812-4.949-5.723-4.949
		c-2.916,0-5.305,2.151-5.723,4.949H42.43z M47.204,9.826l-1.651-1.651l-3.909,3.91l1.651,1.651L47.204,9.826z M37.875,4.425h-2.336
		v5.528h2.336V4.425z M73.414,48.226c0,4.544-1.494,8.613-4.389,11.374v9.389h-11.68v-5.707H16.068v5.707H4.389V59.6
		C1.494,56.839,0,52.77,0,48.226C0,42.304,2.523,37.2,7.388,34.742c1.343-9.929,6.816-17.166,13.566-17.166h31.511
		c6.747,0,12.217,7.237,13.562,17.168C70.891,37.2,73.414,42.302,73.414,48.226z M11.176,33.461
		c1.021-0.188,2.101-0.292,3.256-0.292h30.54c0-4.132,3.359-7.493,7.493-7.493c4.133,0,7.493,3.361,7.493,7.496
		c0,0.015-0.005,0.028-0.005,0.042c0.792,0.042,1.561,0.115,2.283,0.25c-1.446-7.124-5.328-12.386-9.771-12.386H20.954
		C16.512,21.077,12.622,26.339,11.176,33.461z M52.465,28.009c-2.847,0-5.158,2.315-5.158,5.157h10.315
		C57.622,30.325,55.309,28.009,52.465,28.009z M17.579,48.226c0-2.7-2.191-4.895-4.896-4.895c-2.697,0-4.891,2.191-4.891,4.895
		c0,2.706,2.191,4.891,4.891,4.891C15.386,53.115,17.579,50.927,17.579,48.226z M52.084,51.076c0-0.642-0.522-1.168-1.168-1.168
		H22.498c-0.644,0-1.168,0.526-1.168,1.168c0,0.647,0.524,1.168,1.168,1.168h28.418C51.562,52.244,52.084,51.725,52.084,51.076z
		 M52.084,46.792c0-0.641-0.522-1.168-1.168-1.168H22.498c-0.644,0-1.168,0.527-1.168,1.168c0,0.646,0.524,1.168,1.168,1.168h28.418
		C51.562,47.959,52.084,47.442,52.084,46.792z M65.622,48.226c0-2.7-2.19-4.895-4.891-4.895c-2.703,0-4.896,2.191-4.896,4.895
		c0,2.706,2.189,4.891,4.896,4.891C63.428,53.115,65.622,50.927,65.622,48.226z"/>
</g>
<g>
</g>
<g>
</g>
<g>
</g>
<g>
</g>
<g>
</g>
<g>
</g>
<g>
</g>
<g>
</g>
<g>
</g>
<g>
</g>
<g>
</g>
<g>
</g>
<g>
</g>
<g>
</g>
<g>
</g>
</svg>
