<?xml version="1.0" encoding="iso-8859-1"?>
<!-- Generator: Adobe Illustrator 18.1.1, SVG Export Plug-In . SVG Version: 6.00 Build 0)  -->
<svg version="1.1" id="Capa_1" xmlns="http://www.w3.org/2000/svg" xmlns:xlink="http://www.w3.org/1999/xlink" x="0px" y="0px"
	 viewBox="0 0 163.349 163.349" style="enable-background:new 0 0 163.349 163.349;" xml:space="preserve">
<g>
	<path style="fill:#010002;" d="M45.837,90.631H20.162V48.117h25.675V90.631z M78.285,48.117H52.61v27.525h25.675V48.117z
		 M163.349,97.773v11.934h-5.722v7.459h-21.606c-1.39,7.136-7.679,12.554-15.233,12.554c-7.554,0-13.843-5.4-15.245-12.554H59.579
		c-1.396,7.136-7.685,12.554-15.233,12.554c-7.554,0-13.831-5.4-15.233-12.554H4.314v-7.459H0V97.773h4.314V33.629h153.307v64.144
		C157.621,97.773,163.349,97.773,163.349,97.773z M53.917,114.182c0-5.275-4.296-9.571-9.571-9.571
		c-5.281,0-9.571,4.302-9.571,9.571s4.29,9.571,9.571,9.571C49.62,123.753,53.917,119.457,53.917,114.182z M130.352,114.182
		c0-5.275-4.302-9.571-9.571-9.571c-5.293,0-9.577,4.302-9.577,9.571s4.296,9.571,9.577,9.571
		C126.056,123.753,130.352,119.457,130.352,114.182z M151.66,39.596H10.281v71.602h18.831c1.39-7.142,7.679-12.554,15.233-12.554
		c7.548,0,13.831,5.406,15.233,12.554h45.963c1.396-7.142,7.691-12.554,15.245-12.554c7.554,0,13.831,5.406,15.233,12.554h15.639
		V39.596z M110.739,48.117H85.052v27.525h25.687V48.117z M143.187,48.117H117.5v27.525h25.687V48.117z"/>
</g>
<g>
</g>
<g>
</g>
<g>
</g>
<g>
</g>
<g>
</g>
<g>
</g>
<g>
</g>
<g>
</g>
<g>
</g>
<g>
</g>
<g>
</g>
<g>
</g>
<g>
</g>
<g>
</g>
<g>
</g>
</svg>
