<?xml version="1.0" encoding="iso-8859-1"?>
<!-- Generator: Adobe Illustrator 18.1.1, SVG Export Plug-In . SVG Version: 6.00 Build 0)  -->
<svg version="1.1" id="Capa_1" xmlns="http://www.w3.org/2000/svg" xmlns:xlink="http://www.w3.org/1999/xlink" x="0px" y="0px"
	 viewBox="0 0 163.361 163.361" style="enable-background:new 0 0 163.361 163.361;" xml:space="preserve">
<g>
	<path style="fill:#010002;" d="M163.349,91.201h-5.722V70.06h-12.489l-17.286-29.846H56.828L39.542,70.06H4.32v21.141H0v11.934
		h4.32v7.459h24.792c1.396,7.142,7.691,12.554,15.239,12.554c7.542,0,13.837-5.4,15.233-12.554h45.963
		c1.396,7.142,7.691,12.554,15.245,12.554c7.548,0,13.843-5.4,15.239-12.554h21.606v-7.459h5.722V91.201H163.349z M44.352,117.174
		c-5.281,0-9.571-4.296-9.571-9.571c0-5.275,4.296-9.571,9.571-9.571s9.571,4.296,9.571,9.571
		C53.923,112.878,49.62,117.174,44.352,117.174z M120.781,117.174c-5.281,0-9.571-4.296-9.571-9.571c0-5.275,4.29-9.571,9.571-9.571
		c5.275,0,9.571,4.296,9.571,9.571C130.352,112.878,126.062,117.174,120.781,117.174z M151.66,104.626h-15.639
		c-1.39-7.142-7.691-12.554-15.239-12.554c-7.554,0-13.843,5.4-15.245,12.554H59.573c-1.396-7.142-7.691-12.554-15.233-12.554
		c-7.548,0-13.843,5.4-15.239,12.554H10.275V76.027h32.692l17.286-29.846h64.144l17.28,29.846h9.959v28.599H151.66z M123.765,56.981
		l10.675,18.414h-10.675V56.981z M89.664,52.147h28.134v23.247H89.664V52.147z M63.708,52.147h20.001v23.247H50.235L63.708,52.147z"
		/>
</g>
<g>
</g>
<g>
</g>
<g>
</g>
<g>
</g>
<g>
</g>
<g>
</g>
<g>
</g>
<g>
</g>
<g>
</g>
<g>
</g>
<g>
</g>
<g>
</g>
<g>
</g>
<g>
</g>
<g>
</g>
</svg>
