<?xml version="1.0" encoding="iso-8859-1"?>
<!-- Generator: Adobe Illustrator 16.0.0, SVG Export Plug-In . SVG Version: 6.00 Build 0)  -->
<!DOCTYPE svg PUBLIC "-//W3C//DTD SVG 1.1//EN" "http://www.w3.org/Graphics/SVG/1.1/DTD/svg11.dtd">
<svg version="1.1" id="Capa_1" xmlns="http://www.w3.org/2000/svg" xmlns:xlink="http://www.w3.org/1999/xlink" x="0px" y="0px"
	 width="71.242px" height="71.242px" viewBox="0 0 71.242 71.242" style="enable-background:new 0 0 71.242 71.242;"
	 xml:space="preserve">
<g>
	<path d="M71.242,47.606h-2.744V33.619h-9.703c-2.896-10.556-11.796-18.056-22.326-18.992c0.575-0.61,0.935-1.428,0.935-2.331
		c0-1.883-1.524-3.403-3.403-3.403c-1.878,0-3.399,1.52-3.399,3.403c0,0.929,0.379,1.774,0.985,2.385
		C21.254,15.782,12.56,23.21,9.703,33.617H0v22.596h8.39c0.561,3.465,3.555,6.137,7.183,6.137c3.63,0,6.625-2.672,7.186-6.137
		h22.984c0.562,3.465,3.557,6.137,7.184,6.137c3.626,0,6.621-2.672,7.181-6.137h8.392v-3.939h2.744V47.606L71.242,47.606z
		 M15.573,60.014c-2.737,0-4.966-2.229-4.966-4.969c0-2.737,2.229-4.968,4.966-4.968c2.74,0,4.968,2.23,4.968,4.968
		C20.541,57.785,18.312,60.014,15.573,60.014z M52.926,60.014c-2.737,0-4.967-2.229-4.967-4.969c0-2.737,2.229-4.968,4.967-4.968
		s4.966,2.23,4.966,4.968C57.892,57.785,55.663,60.014,52.926,60.014z M66.162,53.877h-6.056c-0.562-3.469-3.557-6.136-7.181-6.136
		c-3.627,0-6.62,2.667-7.184,6.136H22.758c-0.563-3.469-3.558-6.136-7.186-6.136c-3.625,0-6.62,2.667-7.183,6.136H2.336V35.953
		h9.198l0.214-0.9c2.554-10.714,11.808-18.198,22.504-18.198c10.699,0,19.953,7.484,22.505,18.198l0.219,0.9h9.195v17.924H66.162z
		 M35.829,42.103v3.403h-3.277v3.403h-3.403v-3.403h3.279v-3.403H35.829z M35.829,45.506h3.404v3.403h-3.404V45.506z M29.148,42.103
		v3.403h-3.403v-3.403H29.148z M33.08,36.459H16.204l0.075-0.325c1.959-8.207,8.771-14.042,16.797-14.561L33.08,36.459L33.08,36.459
		z M52.214,36.142l0.077,0.319H35.414V21.575C43.445,22.096,50.261,27.931,52.214,36.142z M39.35,42.103h3.402v3.403H39.35V42.103z"
		/>
</g>
<g>
</g>
<g>
</g>
<g>
</g>
<g>
</g>
<g>
</g>
<g>
</g>
<g>
</g>
<g>
</g>
<g>
</g>
<g>
</g>
<g>
</g>
<g>
</g>
<g>
</g>
<g>
</g>
<g>
</g>
</svg>
