<?xml version="1.0" encoding="iso-8859-1"?>
<!-- Generator: Adobe Illustrator 18.1.1, SVG Export Plug-In . SVG Version: 6.00 Build 0)  -->
<svg version="1.1" id="Capa_1" xmlns="http://www.w3.org/2000/svg" xmlns:xlink="http://www.w3.org/1999/xlink" x="0px" y="0px"
	 viewBox="0 0 179.006 179.006" style="enable-background:new 0 0 179.006 179.006;" xml:space="preserve">
<g>
	<path style="fill:#010002;" d="M106.437,99.709h7.632v7.632h-7.632V99.709z M98.543,99.709h-7.632v7.62H83.56v-7.62h-7.632v7.632
		h7.632v7.62h7.632v-7.62h7.351v7.62h7.632v-7.632h-7.632V99.709z M94.999,37.397c-6.695,0-12.184,4.941-13.145,11.367h26.284
		C107.171,42.338,101.681,37.397,94.999,37.397z M179.006,119.388h-6.564v8.461h-23.647c-1.408,7.817-8.228,13.76-16.439,13.76
		s-15.031-5.943-16.445-13.76H65.039c-1.414,7.817-8.228,13.76-16.439,13.76s-15.031-5.943-16.439-13.76H5.018v-8.461H0v-11.934
		h5.018V83.999h38.474L62.437,51.3h77.492l18.951,32.698h13.563v23.456h6.564V119.388z M59.37,124.866
		c0-5.937-4.833-10.776-10.77-10.776c-5.943,0-10.776,4.839-10.776,10.776c0,5.943,4.833,10.776,10.776,10.776
		C54.537,135.636,59.37,130.809,59.37,124.866z M143.133,124.866c0-5.937-4.833-10.776-10.776-10.776s-10.782,4.839-10.782,10.776
		c0,5.943,4.839,10.776,10.782,10.776S143.133,130.809,143.133,124.866z M166.476,89.965h-11.039l-18.945-32.698H65.874
		L46.929,89.965H10.985v31.917h21.176c1.414-7.817,8.228-13.76,16.439-13.76c8.204,0,15.025,5.943,16.439,13.76h50.88
		c1.414-7.817,8.234-13.76,16.445-13.76c8.21,0,15.031,5.943,16.439,13.76h17.674V89.965z M97.982,64.093v25.479h49.352
		l-14.768-25.479H97.982z M92.015,64.093H69.812L55.05,89.572h36.959L92.015,64.093L92.015,64.093z"/>
</g>
<g>
</g>
<g>
</g>
<g>
</g>
<g>
</g>
<g>
</g>
<g>
</g>
<g>
</g>
<g>
</g>
<g>
</g>
<g>
</g>
<g>
</g>
<g>
</g>
<g>
</g>
<g>
</g>
<g>
</g>
</svg>
