<?xml version="1.0" encoding="iso-8859-1"?>
<!-- Generator: Adobe Illustrator 18.1.1, SVG Export Plug-In . SVG Version: 6.00 Build 0)  -->
<svg version="1.1" id="Capa_1" xmlns="http://www.w3.org/2000/svg" xmlns:xlink="http://www.w3.org/1999/xlink" x="0px" y="0px"
	 viewBox="0 0 182.521 182.521" style="enable-background:new 0 0 182.521 182.521;" xml:space="preserve">
<g>
	<path style="fill:#010002;" d="M43.785,97.654H15.621V66.722h28.164V97.654z M170.987,122.094h4.057v11.934h-4.057v8.903h-15.001
		c-1.814,6.832-7.99,11.898-15.383,11.898c-7.381,0-13.557-5.072-15.371-11.898H74.687v-8.903h-2.202v7.823h-16.51
		c-1.402,7.375-7.882,12.984-15.669,12.984s-14.267-5.597-15.663-12.984H4.791v-7.823H0v-11.934h4.791V55.641h67.694v66.453h2.202
		V103.8h48.147v-6.665l-5.036-0.012L79.383,63.219l13.503-35.533l51.22,0.125l38.415,33.916L169.024,97.26l-12.65-0.036v6.575
		h14.601v18.294H170.987z M50.319,138.867c0-5.513-4.487-10-10.006-10c-5.513,0-10,4.487-10,10s4.487,10,10,10
		C45.832,148.861,50.319,144.374,50.319,138.867z M66.525,61.608h-55.76v74.27h13.885c1.396-7.387,7.876-12.99,15.663-12.99
		s14.267,5.597,15.669,12.99h10.543C66.525,135.878,66.525,61.608,66.525,61.608z M164.924,91.281l10.567-27.818l-33.629-29.685
		l-44.853-0.119L86.442,61.471l33.629,29.691L164.924,91.281z M150.616,138.867c0-5.513-4.487-10-10.012-10c-5.513,0-10,4.487-10,10
		s4.487,10,10,10C146.129,148.861,150.616,144.374,150.616,138.867z M165.02,109.767H80.654v27.209h44.179
		c0.955-7.9,7.614-14.058,15.776-14.058s14.828,6.158,15.788,14.058h8.628v-27.209H165.02z"/>
</g>
<g>
</g>
<g>
</g>
<g>
</g>
<g>
</g>
<g>
</g>
<g>
</g>
<g>
</g>
<g>
</g>
<g>
</g>
<g>
</g>
<g>
</g>
<g>
</g>
<g>
</g>
<g>
</g>
<g>
</g>
</svg>
