<?xml version="1.0" encoding="iso-8859-1"?>
<!-- Generator: Adobe Illustrator 18.1.1, SVG Export Plug-In . SVG Version: 6.00 Build 0)  -->
<svg version="1.1" id="Capa_1" xmlns="http://www.w3.org/2000/svg" xmlns:xlink="http://www.w3.org/1999/xlink" x="0px" y="0px"
	 viewBox="0 0 179.006 179.006" style="enable-background:new 0 0 179.006 179.006;" xml:space="preserve">
<g>
	<path style="fill:#010002;" d="M179.006,103.862h-4.827V48.185H73.088l-0.006,37.812l-0.931-0.006V60.835h-32.46L25.097,86.027
		H3.64v17.835H0v10.072h3.64v6.295h12.656c1.181,6.038,6.492,10.591,12.859,10.591s11.677-4.571,12.853-10.591h61.817
		c1.175,6.038,6.48,10.591,12.853,10.591c6.361,0,11.677-4.571,12.859-10.591h3.658c1.169,6.038,6.486,10.591,12.847,10.591
		c6.367,0,11.689-4.571,12.865-10.591h15.257v-6.295h4.833L179.006,103.862L179.006,103.862z M29.154,125.785
		c-4.457,0-8.079-3.622-8.079-8.079c0-4.457,3.622-8.079,8.079-8.079c4.451,0,8.079,3.622,8.079,8.079
		C37.233,122.163,33.605,125.785,29.154,125.785z M116.682,125.785c-4.451,0-8.079-3.622-8.079-8.079
		c0-4.457,3.622-8.079,8.079-8.079s8.079,3.622,8.079,8.079C124.767,122.163,121.139,125.785,116.682,125.785z M146.063,125.785
		c-4.451,0-8.079-3.622-8.079-8.079c0-4.457,3.622-8.079,8.079-8.079c4.463,0,8.079,3.622,8.079,8.079
		C154.142,122.163,150.526,125.785,146.063,125.785z M169.149,115.205h-10.221c-1.175-6.038-6.492-10.591-12.865-10.591
		c-6.361,0-11.677,4.571-12.847,10.591h-3.658c-1.181-6.038-6.492-10.591-12.859-10.591c-6.373,0-11.677,4.571-12.853,10.591H42.031
		c-1.175-6.038-6.486-10.591-12.853-10.591s-11.683,4.571-12.859,10.591H8.7V91.069H28.02l14.595-25.192h24.524V90.98l11.009,0.119
		V53.227h91.013v61.972h-0.012V115.205z M45.491,70.907H62.39v19.625H34.13L45.491,70.907z"/>
</g>
<g>
</g>
<g>
</g>
<g>
</g>
<g>
</g>
<g>
</g>
<g>
</g>
<g>
</g>
<g>
</g>
<g>
</g>
<g>
</g>
<g>
</g>
<g>
</g>
<g>
</g>
<g>
</g>
<g>
</g>
</svg>
