<?xml version="1.0" encoding="iso-8859-1"?>
<!-- Generator: Adobe Illustrator 18.1.1, SVG Export Plug-In . SVG Version: 6.00 Build 0)  -->
<svg version="1.1" id="Capa_1" xmlns="http://www.w3.org/2000/svg" xmlns:xlink="http://www.w3.org/1999/xlink" x="0px" y="0px"
	 viewBox="0 0 179.006 179.006" style="enable-background:new 0 0 179.006 179.006;" xml:space="preserve">
<g>
	<g>
		<path style="fill:#010002;" d="M163.534,78.136c0,4.266,3.473,7.739,7.733,7.739c4.266,0,7.739-3.473,7.739-7.739h-2.536
			c0,2.858-2.339,5.191-5.203,5.191s-5.191-2.333-5.191-5.191c0-2.864,2.327-5.197,5.191-5.197h1.271V47.102h-0.841l-12.262-16.988
			L78.017,98.477H75.57v18.867h-3.139V50.062H5.281v67.282H0v10.162h5.281v8.33h19.917c1.217,7.375,7.608,13.056,15.335,13.056
			c7.733,0,14.124-5.663,15.347-13.056h16.552v-8.33h3.139v9.416h50.712c1.641,6.838,7.781,11.958,15.126,11.958
			c7.339,0,13.485-5.102,15.126-11.958h14.959v-9.416h4.541v-10.162h-4.541V98.477h-58.583l57.091-48.964v20.991
			C166.332,71.107,163.534,74.299,163.534,78.136z M40.533,143.814c-5.8,0-10.52-4.708-10.52-10.526
			c0-5.806,4.72-10.526,10.52-10.526c5.806,0,10.526,4.72,10.526,10.526C51.058,139.1,46.339,143.814,40.533,143.814z
			 M67.354,130.746H55.88c-1.223-7.387-7.614-13.056-15.347-13.056c-7.727,0-14.118,5.663-15.335,13.056h-14.84V55.134h56.996
			V130.746L67.354,130.746z M141.409,143.814c-5.806,0-10.526-4.708-10.526-10.526c0-5.806,4.72-10.526,10.526-10.526
			c5.806,0,10.526,4.72,10.526,10.526C151.934,139.1,147.209,143.814,141.409,143.814z M166.422,103.555v28.283h-9.559
			c-0.746-7.912-7.351-14.159-15.454-14.159s-14.708,6.247-15.454,14.159h-45.3v-28.283
			C80.654,103.555,166.422,103.555,166.422,103.555z M109.015,98.477H81.961l23.414-19.649v19.488h2.536V79.312h23.456
			L109.015,98.477z M131.468,76.77h-23.647l23.647-19.852V76.77z M156.195,36.147v18.796h-22.382L156.195,36.147z M134.01,77.038
			V57.491h22.793L134.01,77.038z M158.743,55.832V34.023l0.245-0.209l9.72,13.467L158.743,55.832z"/>
		<rect x="15.705" y="60.749" style="fill:#010002;" width="28.319" height="31.105"/>
	</g>
</g>
<g>
</g>
<g>
</g>
<g>
</g>
<g>
</g>
<g>
</g>
<g>
</g>
<g>
</g>
<g>
</g>
<g>
</g>
<g>
</g>
<g>
</g>
<g>
</g>
<g>
</g>
<g>
</g>
<g>
</g>
</svg>
