<?xml version="1.0" encoding="iso-8859-1"?>
<!-- Generator: Adobe Illustrator 18.1.1, SVG Export Plug-In . SVG Version: 6.00 Build 0)  -->
<svg version="1.1" id="Capa_1" xmlns="http://www.w3.org/2000/svg" xmlns:xlink="http://www.w3.org/1999/xlink" x="0px" y="0px"
	 viewBox="0 0 179.03 179.03" style="enable-background:new 0 0 179.03 179.03;" xml:space="preserve">
<g>
	<g>
		<path style="fill:#010002;" d="M179.006,100.912h-6.778V43.403H59.818l-19.386,33.45H5.209v24.058H0v11.934h5.209v8.718h23.659
			c1.42,7.984,8.372,14.064,16.761,14.064c8.377,0,15.323-6.092,16.755-14.064h52.168c1.408,7.984,8.36,14.064,16.749,14.064
			s15.341-6.092,16.773-14.064h24.178v-8.718h6.778v-11.934H179.006z M45.629,129.672c-6.116,0-11.092-4.976-11.092-11.08
			s4.976-11.08,11.092-11.08c6.104,0,11.075,4.976,11.075,11.08S51.739,129.672,45.629,129.672z M131.289,129.672
			c-6.11,0-11.075-4.976-11.075-11.08s4.964-11.08,11.075-11.08c6.116,0,11.098,4.976,11.098,11.08S137.405,129.672,131.289,129.672
			z M166.261,115.608H148.05c-1.42-7.984-8.372-14.076-16.773-14.076c-8.377,0-15.329,6.092-16.749,14.076H62.36
			c-1.414-7.984-8.366-14.076-16.755-14.076s-15.335,6.092-16.761,14.076h-17.68V82.826h32.692l19.386-33.45h103.012v66.232H166.261
			z"/>
		<polygon style="fill:#010002;" points="89.766,82.486 89.766,56.429 67.324,56.429 52.222,82.486 		"/>
		<rect x="95.506" y="56.429" style="fill:#010002;" width="29.673" height="26.057"/>
		<rect x="130.537" y="56.429" style="fill:#010002;" width="29.667" height="26.057"/>
	</g>
</g>
<g>
</g>
<g>
</g>
<g>
</g>
<g>
</g>
<g>
</g>
<g>
</g>
<g>
</g>
<g>
</g>
<g>
</g>
<g>
</g>
<g>
</g>
<g>
</g>
<g>
</g>
<g>
</g>
<g>
</g>
</svg>
