<?xml version="1.0" encoding="iso-8859-1"?>
<!-- Generator: Adobe Illustrator 16.0.0, SVG Export Plug-In . SVG Version: 6.00 Build 0)  -->
<!DOCTYPE svg PUBLIC "-//W3C//DTD SVG 1.1//EN" "http://www.w3.org/Graphics/SVG/1.1/DTD/svg11.dtd">
<svg version="1.1" id="Capa_1" xmlns="http://www.w3.org/2000/svg" xmlns:xlink="http://www.w3.org/1999/xlink" x="0px" y="0px"
	 width="70.083px" height="70.083px" viewBox="0 0 70.083 70.083" style="enable-background:new 0 0 70.083 70.083;"
	 xml:space="preserve">
<g>
	<path d="M70.074,48.669h-2.655V26.158H48.094c1.492-0.523,2.87-1.332,4.02-2.482l0.828-0.826l-6.687-6.692l5.049-5.05l-1.651-1.652
		l-5.049,5.053l-6.688-6.689L37.09,8.646c-4.144,4.144-4.144,10.889-0.004,15.036c1.149,1.148,2.527,1.962,4.023,2.48H23.425
		l-7.591,13.095H2.048v9.416H0v4.672h2.039v3.412H11.3c0.557,3.125,3.278,5.507,6.562,5.507c3.279,0,5.998-2.386,6.559-5.507h20.42
		c0.553,3.125,3.276,5.507,6.559,5.507s6.006-2.386,6.567-5.507h9.464v-3.412h2.652v-4.672h-0.009V48.669z M37.968,11.18
		l11.613,11.613c-3.168,2.385-7.993,2.084-10.849-0.769C35.78,19.068,35.527,14.426,37.968,11.18z M17.862,59.926
		c-2.394,0-4.342-1.941-4.342-4.337c0-2.391,1.948-4.338,4.342-4.338c2.389,0,4.335,1.947,4.335,4.338
		C22.197,57.984,20.253,59.926,17.862,59.926z M51.395,59.926c-2.393,0-4.336-1.941-4.336-4.337c0-2.391,1.943-4.338,4.336-4.338
		s4.346,1.947,4.346,4.338C55.74,57.984,53.787,59.926,51.395,59.926z M65.083,54.421h-7.126c-0.557-3.125-3.277-5.509-6.567-5.509
		c-3.277,0-5.996,2.384-6.558,5.509h-20.42c-0.554-3.125-3.275-5.509-6.559-5.509c-3.285,0-6.004,2.384-6.562,5.509h-6.92V41.59
		h12.798l7.591-13.094h40.319v25.925H65.083L65.083,54.421z M20.443,41.456l5.913-10.202h8.784v10.202H20.443z"/>
</g>
<g>
</g>
<g>
</g>
<g>
</g>
<g>
</g>
<g>
</g>
<g>
</g>
<g>
</g>
<g>
</g>
<g>
</g>
<g>
</g>
<g>
</g>
<g>
</g>
<g>
</g>
<g>
</g>
<g>
</g>
</svg>
