<?xml version="1.0" encoding="iso-8859-1"?>
<!-- Generator: Adobe Illustrator 16.0.0, SVG Export Plug-In . SVG Version: 6.00 Build 0)  -->
<!DOCTYPE svg PUBLIC "-//W3C//DTD SVG 1.1//EN" "http://www.w3.org/Graphics/SVG/1.1/DTD/svg11.dtd">
<svg version="1.1" id="Capa_1" xmlns="http://www.w3.org/2000/svg" xmlns:xlink="http://www.w3.org/1999/xlink" x="0px" y="0px"
	 width="70.074px" height="70.074px" viewBox="0 0 70.074 70.074" style="enable-background:new 0 0 70.074 70.074;"
	 xml:space="preserve">
<g>
	<path d="M70.074,39.215h-2.512V16.847H23.335l-7.589,13.092H1.896v9.276H0v5.237h1.896v3.271h9.276
		c0.614,3.134,3.375,5.504,6.687,5.504s6.071-2.374,6.68-5.504h20.169c0.615,3.134,3.371,5.504,6.681,5.504
		c3.314,0,6.079-2.374,6.687-5.504h9.482v-3.271h2.511L70.074,39.215L70.074,39.215z M17.859,50.616
		c-2.317,0-4.202-1.885-4.202-4.197c0-2.315,1.884-4.202,4.202-4.202c2.313,0,4.197,1.887,4.197,4.202
		C22.057,48.731,20.179,50.616,17.859,50.616z M51.395,50.616c-2.311,0-4.197-1.885-4.197-4.197c0-2.315,1.887-4.202,4.197-4.202
		c2.32,0,4.204,1.887,4.204,4.202C55.599,48.731,53.715,50.616,51.395,50.616z M64.946,45.109h-6.861
		c-0.616-3.134-3.374-5.504-6.688-5.504c-3.31,0-6.072,2.374-6.684,5.504H24.546c-0.614-3.134-3.368-5.504-6.68-5.504
		s-6.078,2.374-6.687,5.504H4.518V32.562H17.26l7.586-13.095h40.105v25.646h-0.005V45.109z M20.443,32.284l5.913-10.2h8.784v10.2
		H20.443z"/>
</g>
<g>
</g>
<g>
</g>
<g>
</g>
<g>
</g>
<g>
</g>
<g>
</g>
<g>
</g>
<g>
</g>
<g>
</g>
<g>
</g>
<g>
</g>
<g>
</g>
<g>
</g>
<g>
</g>
<g>
</g>
</svg>
