<?xml version="1.0" encoding="iso-8859-1"?>
<!-- Generator: Adobe Illustrator 16.0.0, SVG Export Plug-In . SVG Version: 6.00 Build 0)  -->
<!DOCTYPE svg PUBLIC "-//W3C//DTD SVG 1.1//EN" "http://www.w3.org/Graphics/SVG/1.1/DTD/svg11.dtd">
<svg version="1.1" id="Capa_1" xmlns="http://www.w3.org/2000/svg" xmlns:xlink="http://www.w3.org/1999/xlink" x="0px" y="0px"
	 width="77.086px" height="77.086px" viewBox="0 0 77.086 77.086" style="enable-background:new 0 0 77.086 77.086;"
	 xml:space="preserve">
<g>
	<path d="M47.731,25.629v-7.847h-6.3c3.608-1.228,6.228-4.612,6.228-8.628C47.659,4.106,43.55,0,38.502,0
		c-5.048,0-9.152,4.106-9.152,9.154c0,4.018,2.619,7.4,6.223,8.628h-5.57v7.847h5.559v3.503h-5.559v3.924h5.559v3.41h-5.559v3.922
		h5.559v3.41h-5.559v3.926h5.559v3.408h-5.559v3.928h5.559v3.408h-5.559v3.924h5.559v1.3c-2.407,1.118-4.088,3.54-4.088,6.364
		c0,3.878,3.156,7.03,7.03,7.03c3.878,0,7.032-3.152,7.032-7.03c0-2.822-1.683-5.246-4.087-6.364v-1.303h6.286v-3.923H41.45v-3.41
		h6.286v-3.924H41.45v-3.408h6.286v-3.928H41.45v-3.41h6.286v-3.922H41.45v-3.41h6.286V29.13H41.45v-3.504h6.281V25.629z
		 M33.273,9.151c0-2.884,2.345-5.232,5.229-5.232c2.888,0,5.234,2.346,5.234,5.232c0,2.885-2.347,5.233-5.234,5.233
		C35.618,14.384,33.273,12.036,33.273,9.151z M38.498,73.154c-1.712,0-3.107-1.392-3.107-3.104c0-1.716,1.395-3.106,3.107-3.106
		s3.109,1.391,3.109,3.106C41.607,71.762,40.211,73.154,38.498,73.154z"/>
</g>
<g>
</g>
<g>
</g>
<g>
</g>
<g>
</g>
<g>
</g>
<g>
</g>
<g>
</g>
<g>
</g>
<g>
</g>
<g>
</g>
<g>
</g>
<g>
</g>
<g>
</g>
<g>
</g>
<g>
</g>
</svg>
