<?xml version="1.0" encoding="iso-8859-1"?>
<!-- Generator: Adobe Illustrator 17.1.0, SVG Export Plug-In . SVG Version: 6.00 Build 0)  -->
<!DOCTYPE svg PUBLIC "-//W3C//DTD SVG 1.1//EN" "http://www.w3.org/Graphics/SVG/1.1/DTD/svg11.dtd">
<svg version="1.1" id="Capa_1" xmlns="http://www.w3.org/2000/svg" xmlns:xlink="http://www.w3.org/1999/xlink" x="0px" y="0px"
	 viewBox="0 0 297 297" style="enable-background:new 0 0 297 297;" xml:space="preserve">
<g>
	<polygon points="149.367,23.541 275.965,165 297,165 149.167,0 82.167,73.846 82.167,33 49.167,33 49.167,110.307 0,165 
		21.339,165 	"/>
	<path d="M148.968,47.459L41.167,166.568V297h213V165.007L148.968,47.459z M156.167,198.735V239c0,13.785-11.048,25-24.834,25
		c-13.785,0-24.917-11.215-24.917-25c0-4.418,3.624-8,8.042-8s8.021,3.582,8.021,8c0,4.963,3.881,9,8.844,9
		c4.963,0,8.844-4.037,8.844-9v-40.291c-30-0.054-58.144-0.112-58.168-0.043c0-37.389,29.781-66.334,66.417-66.334
		c36.636,0,66.209,28.945,66.209,66.334C214.719,198.805,187.167,198.784,156.167,198.735z"/>
</g>
<g>
</g>
<g>
</g>
<g>
</g>
<g>
</g>
<g>
</g>
<g>
</g>
<g>
</g>
<g>
</g>
<g>
</g>
<g>
</g>
<g>
</g>
<g>
</g>
<g>
</g>
<g>
</g>
<g>
</g>
</svg>
