<?xml version='1.0' encoding='iso-8859-1'?>
<svg version="1.1" xmlns="http://www.w3.org/2000/svg" viewBox="0 0 283.499 283.499" xmlns:xlink="http://www.w3.org/1999/xlink" enable-background="new 0 0 283.499 283.499">
  <path d="m276.694,132.721c-2.432-3.227-60.412-79.019-134.945-79.019s-132.513,75.793-134.944,79.019l-6.805,9.029 6.805,9.028c2.432,3.227 60.411,79.019 134.944,79.019s132.514-75.792 134.945-79.019l6.805-9.028-6.805-9.029zm-134.945,47.029c-8.571,0-16.485-2.855-22.85-7.66 16.371-2.273 29.018-16.353 29.018-33.34 0-14.442-9.142-26.786-21.941-31.558 4.808-2.203 10.147-3.442 15.772-3.442 20.953,0 38,17.047 38,38s-17.046,38-37.999,38zm-103.366-38c9.543-10.643 27.367-28.519 49.653-41.628-8.943,11.513-14.287,25.953-14.287,41.627 0,15.674 5.345,30.115 14.289,41.628-22.291-13.11-40.117-30.989-49.655-41.627zm157.078,41.627c8.943-11.513 14.288-25.954 14.288-41.627s-5.345-30.114-14.288-41.627c22.286,13.108 40.111,30.984 49.655,41.627-9.544,10.643-27.368,28.518-49.655,41.627z"/>
</svg>
