<?xml version='1.0' encoding='iso-8859-1'?>
<svg version="1.1" xmlns="http://www.w3.org/2000/svg" viewBox="0 0 277.489 277.489" xmlns:xlink="http://www.w3.org/1999/xlink" enable-background="new 0 0 277.489 277.489">
  <g>
    <path d="M277.489,24.036H0v205.436h43.994v23.982h59.334v-23.982h74.833v23.982h59.333v-23.982h39.995V24.036z M247.489,199.471H30   V54.036h217.489V199.471z"/>
    <rect width="32" x="143.661" y="87.77" height="30"/>
    <rect width="32" x="195.328" y="87.77" height="30"/>
    <rect width="32" x="143.661" y="136.937" height="30"/>
    <rect width="32" x="195.328" y="136.937" height="30"/>
    <polygon points="71.828,163.42 101.828,163.42 101.828,141.753 123.494,141.753 123.494,111.753 101.828,111.753 101.828,90.086    71.828,90.086 71.828,111.753 50.161,111.753 50.161,141.753 71.828,141.753  "/>
  </g>
</svg>
