<?xml version='1.0' encoding='iso-8859-1'?>
<svg version="1.1" xmlns="http://www.w3.org/2000/svg" viewBox="0 0 250.484 250.484" xmlns:xlink="http://www.w3.org/1999/xlink" enable-background="new 0 0 250.484 250.484">
  <path d="m227.254,129.607l-.125-15.123c-0.222-27.043-10.917-52.432-30.115-71.487-15.617-15.502-35.382-25.342-56.772-28.481v-14.516h-30v14.516c-21.391,3.14-41.156,12.979-56.772,28.481-19.198,19.057-29.894,44.444-30.114,71.487l-.124,15.123h87.011v76.908c0,7.702-6.267,13.969-13.969,13.969s-13.969-6.267-13.969-13.969h-30c0,24.244 19.725,43.969 43.969,43.969 23.979,0 43.537-19.297 43.962-43.177l.006-77.7h87.012zm-102.013-86.182c34.129,0 62.933,24.104 70.151,56.183h-140.301c7.218-32.078 36.021-56.183 70.15-56.183z"/>
</svg>
