<?xml version='1.0' encoding='iso-8859-1'?>
<svg version="1.1" xmlns="http://www.w3.org/2000/svg" viewBox="0 0 252.252 252.252" xmlns:xlink="http://www.w3.org/1999/xlink" enable-background="new 0 0 252.252 252.252">
  <g>
    <path d="M15.459,0v252.252h221.333V0H15.459z M206.792,30v12.075H45.459V30H206.792z M45.459,222.252V72.075h161.333v150.177   H45.459z"/>
    <path d="m126.125,80.819c-36.63,0-66.43,29.8-66.43,66.43s29.8,66.43 66.43,66.43 66.431-29.8 66.431-66.43-29.801-66.43-66.431-66.43zm0,102.86c-14.741,0-27.456-8.806-33.185-21.43h13.899v-30h-13.898c5.729-12.623 18.444-21.43 33.185-21.43 20.088,0 36.431,16.343 36.431,36.43s-16.344,36.43-36.432,36.43z"/>
  </g>
</svg>
