<?xml version='1.0' encoding='iso-8859-1'?>
<svg version="1.1" xmlns="http://www.w3.org/2000/svg" viewBox="0 0 238.667 238.667" xmlns:xlink="http://www.w3.org/1999/xlink" enable-background="new 0 0 238.667 238.667">
  <g>
    <path d="m119.333,59.328c-32.118,0-58.249,26.131-58.249,58.249s26.131,58.249 58.249,58.249c32.119,0 58.25-26.131 58.25-58.249s-26.131-58.249-58.25-58.249zm0,86.498c-15.576,0-28.249-12.673-28.249-28.249s12.673-28.249 28.249-28.249c15.577,0 28.25,12.673 28.25,28.249s-12.673,28.249-28.25,28.249z"/>
    <path d="M227.667,199.553v-85.381c0-57.93-47.129-105.059-105.059-105.059h-6.55C58.129,9.114,11,56.243,11,114.172v85.381H0v30h11   h216.667h11v-30H227.667z M182.333,199.553v-23.893h-22v23.893H41v-85.381c0-41.388,33.671-75.059,75.059-75.059h6.55   c41.388,0,75.059,33.671,75.059,75.059v85.381H182.333z"/>
    <circle cx="119.333" cy="117.577" r="16.383"/>
  </g>
</svg>
