<?xml version="1.0" encoding="iso-8859-1"?>
<!-- Generator: Adobe Illustrator 19.0.0, SVG Export Plug-In . SVG Version: 6.00 Build 0)  -->
<svg xmlns="http://www.w3.org/2000/svg" xmlns:xlink="http://www.w3.org/1999/xlink" version="1.1" id="Capa_1" x="0px" y="0px" viewBox="0 0 512 512" style="enable-background:new 0 0 512 512;" xml:space="preserve">
<g>
	<g>
		<path d="M423.588,0H88.412C71.93,0,58.519,13.409,58.519,29.893v312.634c0,4.132,3.348,7.481,7.481,7.481    c4.132,0,7.481-3.348,7.481-7.481V29.893c0-8.233,6.699-14.931,14.931-14.931h335.176c8.233,0,14.931,6.699,14.931,14.931v452.216    c0,8.233-6.699,14.931-14.931,14.931H88.412c-8.233,0-14.931-6.699-14.931-14.931V379.181c0-4.132-3.348-7.481-7.481-7.481    c-4.132,0-7.481,3.348-7.481,7.481v102.926C58.519,498.59,71.929,512,88.412,512h335.176c16.482,0,29.893-13.409,29.893-29.893    V29.893C453.48,13.409,440.071,0,423.588,0z"/>
	</g>
</g>
<g>
	<g>
		<path d="M388.036,31.503h-41.105c-4.132,0-7.481,3.348-7.481,7.481s3.348,7.481,7.481,7.481h41.105c0.937,0,1.7,0.763,1.7,1.7    v93.433c0,0.937-0.763,1.699-1.7,1.699H123.963c-0.937,0-1.7-0.762-1.7-1.699V48.163c0-0.937,0.763-1.7,1.7-1.7h187.726    c4.132,0,7.481-3.348,7.481-7.481s-3.348-7.481-7.481-7.481H123.963c-9.187,0-16.661,7.474-16.661,16.661v93.433    c0,9.186,7.474,16.66,16.661,16.66h264.073c9.187,0,16.661-7.474,16.661-16.66V48.163    C404.697,38.976,397.223,31.503,388.036,31.503z"/>
	</g>
</g>
<g>
	<g>
		<path d="M222.859,172.637h-20.946c-8.067,0-14.629,6.562-14.629,14.629v20.946c0,8.067,6.562,14.629,14.629,14.629h20.946    c8.067,0,14.629-6.562,14.629-14.629v-20.946C237.488,179.199,230.926,172.637,222.859,172.637z M222.527,207.879h-20.282v-20.282    h20.282V207.879z"/>
	</g>
</g>
<g>
	<g>
		<path d="M145.611,172.637h-20.946c-8.066,0-14.628,6.562-14.628,14.629v20.946c0,8.067,6.562,14.629,14.628,14.629h20.946    c8.067,0,14.629-6.562,14.629-14.629v-20.946C160.24,179.199,153.678,172.637,145.611,172.637z M145.279,207.879h-20.281v-20.282    h20.281V207.879z"/>
	</g>
</g>
<g>
	<g>
		<path d="M310.087,172.637h-20.946c-8.067,0-14.629,6.562-14.629,14.629v20.946c0,8.067,6.562,14.629,14.629,14.629h20.946    c8.067,0,14.629-6.562,14.629-14.629v-20.946C324.716,179.199,318.154,172.637,310.087,172.637z M309.755,207.879h-20.282v-20.282    h20.282V207.879z"/>
	</g>
</g>
<g>
	<g>
		<path d="M387.334,172.637h-20.946c-8.067,0-14.629,6.562-14.629,14.629v20.946c0,8.067,6.562,14.629,14.629,14.629h20.946    c8.066,0,14.628-6.562,14.628-14.629v-20.946C401.962,179.199,395.4,172.637,387.334,172.637z M387.001,207.879H366.72v-20.282    h20.281V207.879z"/>
	</g>
</g>
<g>
	<g>
		<path d="M378.099,327.899c-0.068-0.357-0.166-0.703-0.282-1.04c-3.223-11.488-8.033-22.317-14.175-32.241    c-0.232-0.476-0.512-0.924-0.835-1.337c-7.916-12.442-17.945-23.41-29.577-32.404c-0.417-0.407-0.883-0.761-1.384-1.062    c-21.147-15.892-47.414-25.321-75.845-25.321c-28.433,0-54.704,9.432-75.852,25.328c-0.495,0.297-0.953,0.646-1.364,1.047    c-11.613,8.977-21.629,19.921-29.54,32.334c-0.365,0.453-0.674,0.953-0.928,1.484c-11.923,19.293-18.815,42.008-18.815,66.307    c0,11.098,1.442,21.865,4.139,32.129c0.061,0.308,0.146,0.608,0.244,0.904c6.806,25.134,21.181,47.185,40.52,63.549    c0.429,0.462,0.913,0.87,1.445,1.212c21.836,17.929,49.757,28.705,80.15,28.705c30.68,0,58.84-10.982,80.766-29.215    c0.013-0.011,0.025-0.022,0.038-0.032c10.394-8.651,19.38-18.934,26.57-30.45c0.079-0.115,0.149-0.234,0.221-0.354    c6.347-10.239,11.27-21.445,14.5-33.342c0.116-0.335,0.212-0.679,0.28-1.034c2.687-10.247,4.123-20.994,4.123-32.071    C382.499,349.545,380.962,338.453,378.099,327.899z M256,249.455c15.827,0,30.892,3.32,44.544,9.291h-89.087    C225.108,252.775,240.172,249.455,256,249.455z M186.642,273.707h138.715c6.221,4.953,11.903,10.555,16.941,16.704H169.701    C174.74,284.262,180.421,278.66,186.642,273.707z M159.346,305.372h193.306c3.023,5.234,5.628,10.735,7.781,16.457H151.566    C153.718,316.108,156.323,310.606,159.346,305.372z M147.114,336.791h217.771c1.208,5.436,2.016,11.021,2.396,16.721H144.718    C145.097,347.812,145.906,342.228,147.114,336.791z M256,472.53c-18.515,0-35.988-4.54-51.372-12.558h102.744    C291.987,467.99,274.515,472.53,256,472.53z M329.276,445.011H182.723c-4.874-4.257-9.373-8.931-13.446-13.964h173.445    C338.649,436.08,334.15,440.755,329.276,445.011z M352.952,416.086H159.047c-3.074-5.389-5.714-11.056-7.868-16.956h209.64    C358.666,405.03,356.026,410.697,352.952,416.086z M365.11,384.169h-218.22c-1.085-5.113-1.816-10.353-2.171-15.695h222.562    C366.927,373.815,366.195,379.057,365.11,384.169z"/>
	</g>
</g>
<g>
</g>
<g>
</g>
<g>
</g>
<g>
</g>
<g>
</g>
<g>
</g>
<g>
</g>
<g>
</g>
<g>
</g>
<g>
</g>
<g>
</g>
<g>
</g>
<g>
</g>
<g>
</g>
<g>
</g>
</svg>
