<?xml version="1.0" encoding="iso-8859-1"?>
<!-- Generator: Adobe Illustrator 19.0.0, SVG Export Plug-In . SVG Version: 6.00 Build 0)  -->
<svg xmlns="http://www.w3.org/2000/svg" xmlns:xlink="http://www.w3.org/1999/xlink" version="1.1" id="Capa_1" x="0px" y="0px" viewBox="0 0 512 512" style="enable-background:new 0 0 512 512;" xml:space="preserve">
<g>
	<g>
		<path d="M492.777,115.799h-35.429c-4.023,0-7.285,3.261-7.285,7.285c0,4.024,3.262,7.285,7.285,7.285h35.429    c1.978,0,3.587,1.609,3.587,3.587v76.45H383.309v-19.298c0-2.976-1.77-5.649-4.509-6.81c-2.74-1.163-5.891-0.577-8.015,1.477    L150.65,397.365H63.688V359.81c0-4.024-3.262-7.285-7.285-7.285s-7.285,3.261-7.285,7.285v38.788    c0,7.354,5.983,13.337,13.336,13.337h88.694c3.465,0,6.748-1.322,9.242-3.722l208.348-200.261v2.579    c0,7.965,6.48,14.445,14.445,14.445h113.306c7.965,0,14.445-6.48,14.445-14.445v-76.575    C510.934,123.945,502.789,115.799,492.777,115.799z"/>
	</g>
</g>
<g>
	<g>
		<path d="M500.109,288.34c-4.89-5.816-4.036-8.889-3.715-10.046c0.584-2.103,1.93-3.735,2.156-3.998    c7.684-7.845,7.722-20.564,0.051-28.457c-3.869-3.979-9.057-6.171-14.608-6.171c-5.333,0-10.377,2.047-14.2,5.765    c-8.945,8.695-20.049,28.547-11.563,51.285c-1.59-2.808-3.527-5.607-5.858-8.379c-4.889-5.815-4.036-8.888-3.715-10.045    c0.584-2.103,1.93-3.735,2.156-3.998c7.684-7.845,7.722-20.564,0.051-28.456c-3.868-3.98-9.057-6.172-14.608-6.172    c-5.332,0-10.375,2.047-14.199,5.765c-8.508,8.271-18.965,26.635-12.664,47.975c-1.135-1.697-2.397-3.389-3.811-5.07    c-4.89-5.815-4.036-8.888-3.715-10.046c0.584-2.103,1.931-3.735,2.156-3.997c7.684-7.846,7.723-20.566,0.051-28.456    c-3.868-3.98-9.057-6.172-14.608-6.172c-5.333,0-10.376,2.047-14.199,5.765c-11.229,10.915-25.861,39.41-0.87,69.129    c6.756,8.035-6.161,20.353-6.257,20.444c-8.232,7.642-8.712,20.558-1.07,28.792c3.841,4.138,9.284,6.511,14.933,6.511    c5.157,0,10.078-1.932,13.859-5.442c4.094-3.801,8.685-9.208,12.581-15.689c-0.194,5.214,1.596,10.502,5.418,14.62    c3.841,4.138,9.284,6.511,14.933,6.511c5.157,0,10.078-1.932,13.859-5.442c4.489-4.167,9.577-10.265,13.688-17.593    c-0.761,5.81,0.968,11.904,5.257,16.523c3.841,4.138,9.284,6.511,14.933,6.511c5.157,0,10.078-1.932,13.859-5.442    C504.777,351.51,525.326,318.325,500.109,288.34z M385.949,354.189c-1.077,1-2.479,1.55-3.947,1.55    c-1.61,0-3.161-0.675-4.254-1.854c-2.177-2.345-2.04-6.025,0.339-8.234c8.604-8.093,19.857-25.724,7.461-40.467    c-22.609-26.887-1.055-48.401-0.126-49.304c1.105-1.075,2.503-1.642,4.043-1.642c1.605,0,3.044,0.608,4.162,1.758    c2.199,2.261,2.173,5.916-0.056,8.146c-0.061,0.062-0.12,0.123-0.179,0.186c-0.659,0.708-4.023,4.518-5.564,10.065    c-2.143,7.718,0.078,15.564,6.602,23.323C412.584,319.305,396.82,344.096,385.949,354.189z M414.93,335.007    c-0.002,0.002-0.004,0.004-0.006,0.007c2.726-8.564,3.593-18.027,0.942-27.654c1.529,2.387,3.293,4.791,5.321,7.203    C427.944,322.599,415.027,334.916,414.93,335.007z M432.74,354.189c-1.077,1-2.479,1.55-3.947,1.55    c-1.61,0-3.161-0.675-4.254-1.854c-2.177-2.345-2.04-6.025,0.339-8.234c8.604-8.093,19.857-25.724,7.461-40.467    c-22.61-26.886-1.055-48.401-0.126-49.304c1.089-1.059,2.526-1.642,4.044-1.642c1.605,0,3.044,0.608,4.161,1.757    c2.199,2.262,2.174,5.917-0.056,8.147c-0.061,0.062-0.121,0.123-0.18,0.187c-0.658,0.707-4.022,4.517-5.563,10.065    c-2.143,7.716,0.078,15.563,6.602,23.322C459.375,319.304,443.611,344.096,432.74,354.189z M462.666,335.007    c-0.51,0.473-0.989,0.968-1.44,1.479c3.449-9.937,4.467-21.174,0.357-32.518c1.93,3.495,4.349,7.036,7.341,10.594    C475.681,322.599,462.763,334.916,462.666,335.007z M480.476,354.189c-1.077,1-2.479,1.55-3.947,1.55    c-1.61,0-3.161-0.675-4.254-1.854c-2.177-2.345-2.04-6.025,0.339-8.234c8.604-8.093,19.858-25.724,7.462-40.467    c-22.61-26.886-1.055-48.402-0.126-49.304c1.089-1.059,2.525-1.642,4.044-1.642c1.605,0,3.044,0.608,4.161,1.757    c2.199,2.262,2.174,5.917-0.055,8.147c-0.061,0.062-0.121,0.123-0.18,0.187c-0.658,0.707-4.022,4.517-5.564,10.065    c-2.143,7.716,0.077,15.563,6.601,23.322C507.112,319.304,491.348,344.096,480.476,354.189z"/>
	</g>
</g>
<g>
	<g>
		<path d="M422.661,115.799h-43.415c-3.519,0-6.94,1.013-9.93,2.955L160.774,256.06v-50.278c0-15.911-12.944-28.854-28.854-28.854    h-1.974v-16.649h0.719c5.697,0,10.397-4.351,10.952-9.905l40.828,4.429c0.896,0.098,1.805,0.147,2.701,0.147    c13.645,0,24.747-11.116,24.747-24.778c0-13.663-11.102-24.779-24.748-24.779c-0.896,0-1.805,0.049-2.701,0.147l-40.827,4.43    c-0.555-5.554-5.255-9.906-10.952-9.906H79.228c-5.698,0-10.398,4.352-10.953,9.906l-40.828-4.43    c-0.896-0.098-1.805-0.147-2.701-0.147C11.101,105.392,0,116.508,0,130.171c0,13.662,11.101,24.776,24.746,24.778h0.001    c0.895,0,1.804-0.049,2.701-0.147l40.827-4.429c0.556,5.554,5.255,9.906,10.953,9.906h0.719v16.649h-1.974    c-15.911,0-28.855,12.944-28.855,28.854v119.279c0,4.024,3.262,7.285,7.285,7.285s7.285-3.261,7.285-7.285V205.783    c0-7.876,6.408-14.284,14.284-14.284h9.259h35.428h9.26c7.876,0,14.284,6.408,14.284,14.284v63.797    c0,2.679,1.471,5.142,3.829,6.413c2.359,1.27,5.224,1.145,7.463-0.329L377.29,130.949c0.584-0.379,1.26-0.58,1.956-0.58h43.415    c4.023,0,7.285-3.261,7.285-7.285C429.946,119.06,426.684,115.799,422.661,115.799z M141.672,124.619l42.343-4.595    c0.376-0.041,0.757-0.062,1.13-0.062c5.612,0,10.177,4.58,10.177,10.209c0,5.628-4.566,10.208-10.177,10.208    c-0.374,0-0.754-0.021-1.13-0.062l-42.343-4.594V124.619z M25.877,140.317c-0.377,0.041-0.756,0.062-1.129,0.062c0,0,0,0-0.001,0    c-5.611-0.001-10.177-4.58-10.177-10.208c0-5.629,4.565-10.209,10.177-10.209c0.373,0,0.754,0.021,1.129,0.062l42.343,4.595    v11.104h0.001L25.877,140.317z M115.375,176.927H94.517v-16.648h20.858V176.927z M127.101,118.081v24.18v3.447h-4.442H87.232    H82.79v-3.447v-24.18v-3.448h44.311V118.081z"/>
	</g>
</g>
<g>
</g>
<g>
</g>
<g>
</g>
<g>
</g>
<g>
</g>
<g>
</g>
<g>
</g>
<g>
</g>
<g>
</g>
<g>
</g>
<g>
</g>
<g>
</g>
<g>
</g>
<g>
</g>
<g>
</g>
</svg>
