<?xml version="1.0" encoding="iso-8859-1"?>
<!-- Generator: Adobe Illustrator 19.0.0, SVG Export Plug-In . SVG Version: 6.00 Build 0)  -->
<svg xmlns="http://www.w3.org/2000/svg" xmlns:xlink="http://www.w3.org/1999/xlink" version="1.1" id="Capa_1" x="0px" y="0px" viewBox="0 0 512.002 512.002" style="enable-background:new 0 0 512.002 512.002;" xml:space="preserve">
<g>
	<g>
		<path d="M467.9,170.741L366.427,87.477c-3.11-2.551-7.702-2.101-10.255,1.01c-2.553,3.111-2.101,7.703,1.01,10.255l92.415,75.832    h-35.834c-4.025,0-7.286,3.262-7.286,7.286v190.955c0,0.703-0.829,1.487-2.019,1.487h-84.782V232.058    c0-10.286-8.368-18.655-18.654-18.655h-83.81c-10.286,0-18.654,8.368-18.654,18.655v142.243h-91.014    c-1.19,0-2.019-0.784-2.019-1.487V181.86c0-4.025-3.262-7.286-7.286-7.286H62.405l53.854-44.19    c1.687-1.384,2.664-3.451,2.664-5.633V61.923h39.468v18.485c0,2.817,1.624,5.382,4.171,6.587c2.547,1.205,5.56,0.833,7.738-0.954    l85.701-70.325l74.217,60.9c3.11,2.551,7.702,2.101,10.255-1.01c2.553-3.111,2.101-7.702-1.01-10.255L262.754,2.407    c-3.913-3.209-9.594-3.209-13.508,0.002l-67.015,54.99c1.22-1.731,1.944-3.835,1.944-6.109V34.543    c0-5.863-4.77-10.634-10.634-10.634h-71.927c-5.863,0-10.634,4.77-10.634,10.634V51.29c0,5.863,4.77,10.634,10.634,10.634h2.735    v59.381l-60.247,49.436c-3.428,2.813-4.685,7.305-3.205,11.443c1.514,4.23,5.441,6.963,10.006,6.963h40.049v183.668    c0,8.856,7.443,16.06,16.592,16.06h98.3h27.655v18.652h-7.496c-13.222,0-23.979,10.757-23.979,23.98v6.255h-66.25    c-4.025,0-7.286,3.262-7.286,7.286c0,4.025,3.262,7.286,7.286,7.286h66.25v23.303H69.3c-0.079,0-0.142-0.064-0.142-0.142v-23.019    c0-0.078,0.064-0.141,0.142-0.141h31.772c4.025,0,7.286-3.262,7.286-7.286c0-4.025-3.262-7.286-7.286-7.286H69.3    c-8.114,0-14.715,6.601-14.715,14.714v23.019c0,8.114,6.601,14.715,14.715,14.715h132.829c1.11,12.2,11.391,21.79,23.875,21.79    h67.441c12.483,0,22.765-9.59,23.875-21.79h131.615c8.114,0,14.714-6.602,14.714-14.715v-23.019    c0-8.114-6.601-14.714-14.714-14.714H317.423v-6.255c0-13.223-10.757-23.98-23.979-23.98h-7.496v-18.652h26.441h92.069    c9.149,0,16.592-7.204,16.592-16.06V189.147h40.049c4.565,0,8.491-2.733,10.006-6.963    C472.585,178.045,471.327,173.555,467.9,170.741z M172.963,61.923h0.578c1.523,0,2.97-0.328,4.281-0.907l-4.859,3.987V61.923z     M105.553,38.482L105.553,38.482h64.049v8.868h-3.925h-54.041h-6.083V38.482z M317.424,452.334L317.424,452.334h131.51    c0.078,0,0.141,0.064,0.141,0.141v23.019c0,0.079-0.064,0.142-0.141,0.142h-131.51V452.334z M293.444,422.099L293.444,422.099    c5.187,0.001,9.406,4.221,9.406,9.408v56.514c0,5.187-4.219,9.407-9.406,9.407h-67.441c-5.187,0-9.406-4.22-9.406-9.407v-5.097    v-37.876v-13.542c0-5.187,4.219-9.407,9.406-9.407h14.783h37.876H293.444z M248.072,407.526v-18.652h23.303v18.652H248.072z     M305.103,374.301L305.103,374.301h-26.442h-37.876h-27.654V232.058c0-2.25,1.83-4.082,4.081-4.082h83.81    c2.25,0,4.081,1.831,4.081,4.082V374.301z"/>
	</g>
</g>
<g>
</g>
<g>
</g>
<g>
</g>
<g>
</g>
<g>
</g>
<g>
</g>
<g>
</g>
<g>
</g>
<g>
</g>
<g>
</g>
<g>
</g>
<g>
</g>
<g>
</g>
<g>
</g>
<g>
</g>
</svg>
