<?xml version="1.0" encoding="iso-8859-1"?>
<!-- Generator: Adobe Illustrator 19.0.0, SVG Export Plug-In . SVG Version: 6.00 Build 0)  -->
<svg xmlns="http://www.w3.org/2000/svg" xmlns:xlink="http://www.w3.org/1999/xlink" version="1.1" id="Capa_1" x="0px" y="0px" viewBox="0 0 512 512" style="enable-background:new 0 0 512 512;" xml:space="preserve">
<g>
	<g>
		<path d="M421.644,232.321H158.09v-76.876c0-26.214,10.268-50.859,28.913-69.397c18.506-18.4,42.987-28.512,68.994-28.512    c0.192,0,0.384,0.001,0.576,0.002c53.672,0.307,97.337,44.748,97.337,99.065v9.972c0,15.862,12.905,28.767,28.767,28.767    s28.768-12.905,28.768-28.767v-9.695c0-33.228-10.236-65.029-29.601-91.963c-2.348-3.265-6.9-4.008-10.16-1.662    c-3.265,2.348-4.009,6.897-1.662,10.16c17.574,24.442,26.863,53.304,26.863,83.464v9.695c0,7.833-6.374,14.207-14.208,14.207    c-7.833,0-14.207-6.374-14.207-14.207v-9.972c0-62.299-50.159-113.271-111.813-113.624c-30.094-0.188-58.508,11.456-79.919,32.745    c-21.414,21.291-33.207,49.603-33.207,79.722v76.876h-28.415v-76.876c0-37.642,14.722-73.053,41.453-99.711    c26.636-26.562,61.931-41.174,99.429-41.174c0.134,0,0.27,0.001,0.403,0.001c33.272,0.093,65.541,12.165,90.863,33.992    c3.044,2.624,7.639,2.285,10.267-0.761c2.625-3.045,2.284-7.642-0.761-10.267C328.817,13.431,293.186,0.104,256.441,0.001    c-0.149,0-0.295-0.001-0.445-0.001c-41.377,0-80.325,16.123-109.708,45.424c-29.491,29.408-45.732,68.482-45.732,110.02v76.876    h-10.2c-13.125,0-23.803,10.678-23.803,23.804v232.072c0,13.126,10.678,23.804,23.803,23.804h331.289    c13.125,0,23.803-10.678,23.803-23.804V256.124C445.447,242.999,434.769,232.321,421.644,232.321z M430.888,488.196h-0.001    c0,5.097-4.146,9.244-9.243,9.244H90.356c-5.097,0-9.243-4.147-9.243-9.244V256.124c0-5.097,4.146-9.244,9.243-9.244h17.48h42.975    h270.834c5.097,0,9.243,4.147,9.243,9.244V488.196z"/>
	</g>
</g>
<g>
	<g>
		<path d="M365.324,282.626H209.707c-4.021,0-7.28,3.259-7.28,7.28s3.259,7.28,7.28,7.28h155.618c4.598,0,8.339,3.74,8.339,8.338    s-3.74,8.339-8.339,8.339h-218.65c-4.598,0-8.339-3.74-8.339-8.339c0-4.597,3.74-8.338,8.339-8.338h28.471    c4.021,0,7.28-3.259,7.28-7.28s-3.259-7.28-7.28-7.28h-28.471c-12.626,0-22.898,10.271-22.898,22.897    c0,12.626,10.272,22.898,22.898,22.898h218.65c12.626,0,22.898-10.272,22.898-22.898    C388.223,292.897,377.95,282.626,365.324,282.626z"/>
	</g>
</g>
<g>
	<g>
		<path d="M365.324,349.262h-218.65c-12.626,0-22.898,10.272-22.898,22.898c0,12.626,10.272,22.897,22.898,22.897h218.65    c12.626,0,22.898-10.271,22.898-22.897C388.223,359.535,377.95,349.262,365.324,349.262z M365.324,380.498h-218.65    c-4.598,0-8.339-3.74-8.339-8.338s3.74-8.339,8.339-8.339h218.65c4.598,0,8.339,3.74,8.339,8.339    C373.663,376.758,369.923,380.498,365.324,380.498z"/>
	</g>
</g>
<g>
	<g>
		<path d="M365.324,415.9h-218.65c-12.626,0-22.898,10.271-22.898,22.897c0,12.626,10.272,22.897,22.898,22.897h218.65    c12.626,0,22.898-10.271,22.898-22.897C388.223,426.171,377.95,415.9,365.324,415.9z M365.324,447.135h-218.65    c-4.598,0-8.339-3.74-8.339-8.338s3.74-8.338,8.339-8.338h218.65c4.598,0,8.339,3.74,8.339,8.338S369.923,447.135,365.324,447.135    z"/>
	</g>
</g>
<g>
</g>
<g>
</g>
<g>
</g>
<g>
</g>
<g>
</g>
<g>
</g>
<g>
</g>
<g>
</g>
<g>
</g>
<g>
</g>
<g>
</g>
<g>
</g>
<g>
</g>
<g>
</g>
<g>
</g>
</svg>
