<?xml version="1.0" encoding="iso-8859-1"?>
<!-- Generator: Adobe Illustrator 19.0.0, SVG Export Plug-In . SVG Version: 6.00 Build 0)  -->
<svg xmlns="http://www.w3.org/2000/svg" xmlns:xlink="http://www.w3.org/1999/xlink" version="1.1" id="Capa_1" x="0px" y="0px" viewBox="0 0 512 512" style="enable-background:new 0 0 512 512;" xml:space="preserve">
<g>
	<g>
		<path d="M66.105,353.04c0-4.667,1.84-6.736,5.669-10.611c4.168-4.218,9.875-9.995,9.875-20.855c0-4.025-3.262-7.287-7.287-7.287    c-4.024,0-7.287,3.262-7.287,7.287c0,4.667-1.841,6.737-5.669,10.612c-4.167,4.218-9.875,9.995-9.875,20.854    c0,10.86,5.708,16.637,9.875,20.855c3.829,3.877,5.669,5.947,5.669,10.615c0,4.668-1.841,6.738-5.669,10.613    c-4.167,4.219-9.875,9.997-9.875,20.857c0,4.025,3.262,7.287,7.287,7.287c4.025,0,7.287-3.262,7.287-7.287    c0-4.668,1.841-6.738,5.669-10.615c4.167-4.218,9.875-9.995,9.875-20.855s-5.708-16.638-9.875-20.857    C67.945,359.778,66.105,357.708,66.105,353.04z"/>
	</g>
</g>
<g>
	<g>
		<path d="M156.196,353.04c0-4.667,1.84-6.736,5.669-10.611c4.167-4.218,9.875-9.995,9.875-20.855c0-4.025-3.262-7.287-7.287-7.287    c-4.024,0-7.287,3.262-7.287,7.287c0,4.667-1.841,6.737-5.669,10.612c-4.167,4.218-9.875,9.995-9.875,20.854    c0,10.86,5.708,16.637,9.875,20.855c3.829,3.877,5.669,5.947,5.669,10.615c0,4.668-1.841,6.738-5.669,10.613    c-4.167,4.219-9.875,9.997-9.875,20.857c0,4.025,3.262,7.287,7.287,7.287c4.024,0,7.287-3.262,7.287-7.287    c0-4.668,1.841-6.738,5.669-10.615c4.167-4.218,9.875-9.995,9.875-20.855s-5.708-16.638-9.875-20.857    C158.036,359.778,156.196,357.708,156.196,353.04z"/>
	</g>
</g>
<g>
	<g>
		<path d="M426.465,353.044c0-4.668,1.841-6.738,5.669-10.613c4.167-4.219,9.875-9.997,9.875-20.857    c0-4.025-3.262-7.287-7.287-7.287c-4.024,0-7.287,3.262-7.287,7.287c0,4.668-1.841,6.738-5.669,10.615    c-4.167,4.218-9.875,9.995-9.875,20.855c0,10.86,5.708,16.638,9.875,20.856c3.829,3.877,5.669,5.947,5.669,10.615    c0,4.667-1.84,6.736-5.669,10.611c-4.168,4.218-9.876,9.995-9.876,20.854c0,4.025,3.262,7.287,7.287,7.287    c4.025,0,7.287-3.262,7.287-7.287c0-4.667,1.84-6.736,5.669-10.611c4.168-4.218,9.876-9.995,9.876-20.854    c0-10.86-5.708-16.638-9.875-20.856C428.305,359.782,426.465,357.712,426.465,353.044z"/>
	</g>
</g>
<g>
	<g>
		<path d="M336.375,353.044c0-4.668,1.841-6.738,5.669-10.613c4.167-4.219,9.875-9.997,9.875-20.857    c0-4.025-3.262-7.287-7.287-7.287c-4.025,0-7.287,3.262-7.287,7.287c0,4.668-1.841,6.738-5.669,10.615    c-4.167,4.218-9.875,9.995-9.875,20.855c0,10.86,5.708,16.638,9.875,20.856c3.829,3.877,5.669,5.947,5.669,10.615    c0,4.667-1.84,6.736-5.669,10.611c-4.168,4.218-9.876,9.995-9.876,20.854c0,4.025,3.262,7.287,7.287,7.287    c4.025,0,7.287-3.262,7.287-7.287c0-4.667,1.84-6.736,5.669-10.611c4.168-4.218,9.876-9.995,9.876-20.854    c0-10.86-5.708-16.638-9.875-20.856C338.215,359.782,336.375,357.712,336.375,353.044z"/>
	</g>
</g>
<g>
	<g>
		<path d="M246.285,353.04c0-4.667,1.84-6.736,5.669-10.611c4.167-4.218,9.875-9.995,9.875-20.855c0-4.025-3.262-7.287-7.287-7.287    c-4.025,0-7.287,3.262-7.287,7.287c0,4.667-1.841,6.737-5.669,10.612c-4.167,4.218-9.875,9.995-9.875,20.854    c0,10.86,5.708,16.637,9.875,20.855c3.829,3.877,5.669,5.947,5.669,10.615c0,4.668-1.841,6.738-5.669,10.613    c-4.167,4.219-9.875,9.997-9.875,20.857c0,4.025,3.262,7.287,7.287,7.287c4.024,0,7.287-3.262,7.287-7.287    c0-4.668,1.841-6.738,5.669-10.615c4.167-4.218,9.875-9.995,9.875-20.855s-5.708-16.638-9.875-20.857    C248.125,359.778,246.285,357.708,246.285,353.04z"/>
	</g>
</g>
<g>
	<g>
		<path d="M491.112,88.734h-33.154c-4.024,0-7.287,3.262-7.287,7.287s3.262,7.287,7.287,7.287h33.154    c3.482,0,6.315,2.833,6.315,6.315v171.954c0,3.482-2.833,6.315-6.315,6.315h-10.647v-46.057c0-12.064-9.815-21.879-21.878-21.879    H123.422c-4.024,0-7.287,3.262-7.287,7.287s3.262,7.287,7.287,7.287h335.166c4.028,0,7.305,3.277,7.305,7.306v1.532H46.108v-1.532    c0-4.028,3.277-7.306,7.305-7.306h35.483c4.024,0,7.287-3.262,7.287-7.287c0-4.025-3.262-7.287-7.287-7.287H53.413    c-12.064,0-21.878,9.815-21.878,21.879v46.057H20.888c-3.482,0-6.315-2.833-6.315-6.315V109.622c0-3.482,2.833-6.315,6.315-6.315    h402.357c4.024,0,7.286-3.262,7.286-7.287c0-4.025-3.262-7.287-7.286-7.287H20.888C9.37,88.734,0,98.104,0,109.622v171.954    c0,11.518,9.37,20.888,20.888,20.888h17.933h434.358h17.933c11.518,0,20.888-9.37,20.888-20.888V109.622    C512,98.104,502.63,88.734,491.112,88.734z M465.893,287.89L465.893,287.89H46.108v-8.901h419.785V287.89z M465.893,264.416    L465.893,264.416H46.108v-6.477h419.785V264.416z"/>
	</g>
</g>
<g>
	<g>
		<path d="M355.178,161.51h-201.27c-9.911,0-17.973,8.063-17.973,17.973c0,9.91,8.063,17.973,17.973,17.973h201.27    c9.911,0,17.973-8.063,17.973-17.973C373.151,169.573,365.088,161.51,355.178,161.51z M355.178,182.883h-201.27    c-1.875,0-3.4-1.526-3.4-3.4c0-1.875,1.526-3.4,3.4-3.4h201.27c1.875,0,3.4,1.526,3.4,3.4    C358.578,181.358,357.052,182.883,355.178,182.883z"/>
	</g>
</g>
<g>
</g>
<g>
</g>
<g>
</g>
<g>
</g>
<g>
</g>
<g>
</g>
<g>
</g>
<g>
</g>
<g>
</g>
<g>
</g>
<g>
</g>
<g>
</g>
<g>
</g>
<g>
</g>
<g>
</g>
</svg>
