<?xml version="1.0" encoding="iso-8859-1"?>
<!-- Generator: Adobe Illustrator 19.0.0, SVG Export Plug-In . SVG Version: 6.00 Build 0)  -->
<svg xmlns="http://www.w3.org/2000/svg" xmlns:xlink="http://www.w3.org/1999/xlink" version="1.1" id="Capa_1" x="0px" y="0px" viewBox="0 0 511.999 511.999" style="enable-background:new 0 0 511.999 511.999;" xml:space="preserve">
<g>
	<g>
		<path d="M147.448,300.379l11.257-11.258c2.845-2.845,2.845-7.459,0-10.304c-2.846-2.845-7.459-2.845-10.305,0l-11.257,11.257    l-11.257-11.257c-2.845-2.846-7.458-2.846-10.305,0c-2.845,2.845-2.845,7.459,0,10.304l11.257,11.258l-11.257,11.258    c-2.847,2.845-2.847,7.458-0.002,10.304c1.423,1.423,3.288,2.134,5.153,2.134s3.73-0.712,5.153-2.134l11.257-11.257l11.257,11.257    c1.423,1.423,3.287,2.134,5.153,2.134c1.864,0,3.73-0.712,5.153-2.134c2.845-2.845,2.845-7.459,0-10.304L147.448,300.379z"/>
	</g>
</g>
<g>
	<g>
		<path d="M224.571,300.379l11.258-11.258c2.845-2.845,2.845-7.459,0-10.304c-2.845-2.846-7.458-2.846-10.305,0l-11.257,11.257    l-11.257-11.257c-2.846-2.845-7.459-2.845-10.305,0c-2.845,2.845-2.845,7.459,0,10.304l11.258,11.258l-11.258,11.258    c-2.847,2.845-2.847,7.458-0.002,10.304c1.423,1.423,3.287,2.134,5.153,2.134c1.864,0,3.73-0.712,5.153-2.134l11.257-11.257    l11.257,11.257c1.423,1.423,3.288,2.134,5.153,2.134s3.73-0.712,5.153-2.134c2.845-2.845,2.845-7.459,0-10.304L224.571,300.379z"/>
	</g>
</g>
<g>
	<g>
		<path d="M508.123,227.632L384.202,119.785c-3.035-2.641-7.638-2.322-10.28,0.713c-2.642,3.036-2.323,7.638,0.713,10.28    l117.213,102.009h-47.593c-4.025,0-7.286,3.262-7.286,7.286v241.674c0,2.105-1.712,3.817-3.818,3.817H78.848    c-2.105,0-3.818-1.712-3.818-3.817V359.944c0-4.024-3.262-7.286-7.286-7.286c-4.024,0-7.286,3.262-7.286,7.286v121.803    c0,10.14,8.25,18.389,18.39,18.389h354.304c10.14,0,18.39-8.249,18.39-18.389V247.36h49.199c4.737,0,8.871-2.867,10.531-7.303    C512.932,235.621,511.697,230.743,508.123,227.632z"/>
	</g>
</g>
<g>
	<g>
		<path d="M151.987,364.219h-29.691c-6.955,0-12.614,5.658-12.614,12.613v29.691c0,6.955,5.658,12.613,12.614,12.613h29.691    c6.955,0,12.614-5.658,12.614-12.613v-29.691C164.601,369.877,158.943,364.219,151.987,364.219z M150.028,404.564h-25.773v-25.772    h25.773V404.564z"/>
	</g>
</g>
<g>
	<g>
		<path d="M383.36,364.219h-29.691c-6.955,0-12.614,5.658-12.614,12.613v29.691c0,6.955,5.658,12.613,12.614,12.613h29.691    c6.955,0,12.614-5.658,12.614-12.613v-29.691C395.974,369.877,390.316,364.219,383.36,364.219z M381.401,404.564h-25.773v-25.772    h25.773V404.564z"/>
	</g>
</g>
<g>
	<g>
		<path d="M306.236,364.219h-29.691c-6.955,0-12.614,5.658-12.614,12.613v29.691c0,6.955,5.658,12.613,12.614,12.613h29.691    c6.955,0,12.614-5.658,12.614-12.613v-29.691C318.85,369.877,313.192,364.219,306.236,364.219z M304.276,404.564h-25.773v-25.772    h25.773V404.564z"/>
	</g>
</g>
<g>
	<g>
		<path d="M229.111,364.219H199.42c-6.955,0-12.614,5.658-12.614,12.613v29.691c0,6.955,5.658,12.613,12.614,12.613h29.691    c6.955,0,12.614-5.658,12.614-12.613v-29.691C241.725,369.877,236.067,364.219,229.111,364.219z M227.152,404.564h-25.773v-25.772    h25.773V404.564z"/>
	</g>
</g>
<g>
	<g>
		<path d="M410.588,252.983H95.068c-5.417,0-9.825,4.408-9.825,9.826v75.139c0,5.418,4.408,9.826,9.825,9.826h315.52    c5.417,0,9.825-4.408,9.825-9.826v-75.139C420.413,257.391,416.005,252.983,410.588,252.983z M405.84,333.201H99.815v-65.645    H405.84V333.201z"/>
	</g>
</g>
<g>
	<g>
		<path d="M358.039,97.014l-94.71-82.424c-4.179-3.637-10.48-3.635-14.657,0l-80.675,70.211c0.569-1.355,0.886-2.842,0.886-4.402    v-21.44c0-6.286-5.114-11.4-11.4-11.4H71.891c-6.286,0-11.4,5.114-11.4,11.4v21.44c0,6.286,5.114,11.4,11.4,11.4h4.553v72.679    L3.877,227.632c-3.574,3.11-4.809,7.987-3.149,12.424c1.66,4.437,5.794,7.303,10.531,7.303h49.199v77.934    c0,4.024,3.262,7.286,7.286,7.286s7.286-3.262,7.286-7.286v-85.22c0-4.024-3.262-7.286-7.286-7.286H20.151l68.363-59.495    c1.59-1.384,2.503-3.388,2.503-5.497V91.798h49.914v19.875c0,2.855,1.668,5.448,4.266,6.631c2.599,1.183,5.65,0.74,7.803-1.135    L256,27.53l92.471,80.477c3.036,2.642,7.638,2.323,10.28-0.713C361.393,104.259,361.074,99.656,358.039,97.014z M154.31,77.226    h-6.092H83.73h-8.666V62.132h79.246V77.226z"/>
	</g>
</g>
<g>
	<g>
		<path d="M388.687,309.503h-35.433c-4.025,0-7.286,3.262-7.286,7.286c0,4.024,3.262,7.286,7.286,7.286h35.433    c4.025,0,7.286-3.262,7.286-7.286S392.711,309.503,388.687,309.503z"/>
	</g>
</g>
<g>
	<g>
		<path d="M309.107,309.503h-35.433c-4.025,0-7.286,3.262-7.286,7.286c-0.001,4.024,3.261,7.286,7.286,7.286h35.433    c4.025,0,7.286-3.262,7.286-7.286S313.131,309.503,309.107,309.503z"/>
	</g>
</g>
<g>
</g>
<g>
</g>
<g>
</g>
<g>
</g>
<g>
</g>
<g>
</g>
<g>
</g>
<g>
</g>
<g>
</g>
<g>
</g>
<g>
</g>
<g>
</g>
<g>
</g>
<g>
</g>
<g>
</g>
</svg>
