<?xml version="1.0" encoding="iso-8859-1"?>
<!-- Generator: Adobe Illustrator 19.0.0, SVG Export Plug-In . SVG Version: 6.00 Build 0)  -->
<svg xmlns="http://www.w3.org/2000/svg" xmlns:xlink="http://www.w3.org/1999/xlink" version="1.1" id="Capa_1" x="0px" y="0px" viewBox="0 0 512 512" style="enable-background:new 0 0 512 512;" xml:space="preserve">
<g>
	<g>
		<path d="M358.038,97.016l-94.709-82.425c-4.178-3.636-10.48-3.636-14.658,0l-93.168,81.083V84.597h1.979    c6.286,0,11.4-5.114,11.4-11.4v-21.44c0-6.286-5.114-11.4-11.4-11.4h-85.59c-6.286,0-11.4,5.114-11.4,11.4v21.44    c0,6.286,5.114,11.4,11.4,11.4h4.553v79.88L3.878,227.633c-3.574,3.109-4.811,7.986-3.151,12.423    c1.66,4.437,5.794,7.304,10.532,7.304h49.199v77.934c0,4.024,3.262,7.286,7.286,7.286c4.025,0,7.286-3.262,7.286-7.286v-85.22    c0-4.024-3.262-7.286-7.286-7.286H20.152l68.363-59.495c1.59-1.384,2.503-3.388,2.503-5.497V84.597h49.913v27.076    c0,2.855,1.668,5.448,4.267,6.631c2.599,1.184,5.649,0.74,7.803-1.135L256,27.531l92.471,80.478    c3.037,2.643,7.639,2.323,10.28-0.713C361.393,104.259,361.074,99.657,358.038,97.016z M154.31,70.026h-6.093H83.731h-8.667V54.93    h79.246V70.026z"/>
	</g>
</g>
<g>
	<g>
		<path d="M508.123,227.633l-123.92-107.847c-3.035-2.641-7.637-2.322-10.28,0.713c-2.642,3.036-2.323,7.638,0.712,10.28    l117.212,102.009h-47.593c-4.025,0-7.286,3.262-7.286,7.286v241.674c0,2.105-1.712,3.817-3.817,3.817H78.848    c-2.104,0-3.817-1.712-3.817-3.817V359.944c0-4.024-3.262-7.286-7.286-7.286c-4.025,0-7.286,3.262-7.286,7.286v121.803    c0,10.14,8.249,18.389,18.389,18.389h354.304c10.14,0,18.389-8.249,18.389-18.389V247.36h49.199c4.738,0,8.872-2.867,10.532-7.304    C512.933,235.618,511.696,230.741,508.123,227.633z"/>
	</g>
</g>
<g>
	<g>
		<path d="M254.416,308.147c-12.136,0.767-21.991,10.486-22.923,22.606c-0.565,7.346,2.222,14.534,7.413,19.58v26.532    c0,9.426,7.668,17.094,17.094,17.094c9.426,0,17.094-7.668,17.094-17.094v-26.526c4.745-4.594,7.487-10.95,7.487-17.661    C280.58,318.6,268.682,307.24,254.416,308.147z M261.67,340.924c-1.971,1.36-3.149,3.602-3.149,5.997v29.943    c0,1.39-1.131,2.521-2.521,2.521c-1.39,0-2.521-1.131-2.521-2.521v-29.943c0-2.395-1.177-4.637-3.149-5.998    c-2.975-2.052-4.586-5.437-4.308-9.053c0.373-4.841,4.463-8.873,9.314-9.18c0.223-0.014,0.444-0.021,0.664-0.021    c5.519,0,10.008,4.49,10.008,10.009C266.008,335.967,264.386,339.05,261.67,340.924z"/>
	</g>
</g>
<g>
	<g>
		<path d="M340.9,275.799h-0.018v-36.201c0-46.804-38.078-84.882-84.882-84.882s-84.882,38.078-84.882,84.882v36.201H171.1    c-8.688,0-15.755,7.068-15.755,15.755v118.947c0,8.688,7.067,15.755,15.755,15.755h169.8c8.688,0,15.755-7.068,15.755-15.755    V291.554C356.655,282.866,349.588,275.799,340.9,275.799z M185.689,239.599h0.002c0-38.769,31.541-70.309,70.309-70.309    s70.309,31.54,70.309,70.309v36.201h-4.537v-36.201c0-36.267-29.506-65.773-65.773-65.773c-36.267,0-65.773,29.505-65.773,65.773    v36.201h-4.537V239.599z M307.2,239.599v36.201H204.8v-36.201c0-28.232,22.968-51.2,51.2-51.2S307.2,211.366,307.2,239.599z     M342.082,410.503c0,0.652-0.53,1.183-1.182,1.183H171.1c-0.652,0-1.182-0.53-1.182-1.183V291.554c0-0.652,0.53-1.183,1.182-1.183    h7.304h19.11h116.972h19.11h7.304v0.001c0.652,0,1.182,0.53,1.182,1.183V410.503z"/>
	</g>
</g>
<g>
</g>
<g>
</g>
<g>
</g>
<g>
</g>
<g>
</g>
<g>
</g>
<g>
</g>
<g>
</g>
<g>
</g>
<g>
</g>
<g>
</g>
<g>
</g>
<g>
</g>
<g>
</g>
<g>
</g>
</svg>
