<?xml version="1.0" encoding="iso-8859-1"?>
<!-- Generator: Adobe Illustrator 19.0.0, SVG Export Plug-In . SVG Version: 6.00 Build 0)  -->
<svg xmlns="http://www.w3.org/2000/svg" xmlns:xlink="http://www.w3.org/1999/xlink" version="1.1" id="Capa_1" x="0px" y="0px" viewBox="0 0 511.999 511.999" style="enable-background:new 0 0 511.999 511.999;" xml:space="preserve">
<g>
	<g>
		<path d="M358.039,97.015l-94.71-82.425c-4.177-3.635-10.479-3.637-14.658,0l-93.168,81.083V84.598h1.979    c6.286,0,11.4-5.114,11.4-11.4v-21.44c0-6.286-5.114-11.4-11.4-11.4H71.891c-6.286,0-11.4,5.114-11.4,11.4v21.44    c0,6.286,5.114,11.4,11.4,11.4h4.553v79.88L3.876,227.633c-3.573,3.11-4.809,7.987-3.148,12.424    c1.66,4.437,5.794,7.303,10.532,7.303h49.199v77.933h-0.001c0,4.024,3.262,7.286,7.286,7.286s7.286-3.262,7.286-7.286v-85.22    c0-4.024-3.262-7.286-7.286-7.286H20.152l68.363-59.495c1.59-1.384,2.503-3.388,2.503-5.497V84.598h49.913v27.076    c0,2.855,1.668,5.448,4.266,6.631c2.599,1.184,5.649,0.74,7.803-1.135l103-89.639l92.471,80.477    c3.037,2.643,7.639,2.323,10.28-0.713C361.393,104.259,361.074,99.657,358.039,97.015z M154.309,70.025h-6.092H83.731h-8.667    V54.93h79.245V70.025z"/>
	</g>
</g>
<g>
	<g>
		<path d="M508.123,227.632l-123.92-107.847c-3.035-2.641-7.638-2.322-10.28,0.713c-2.642,3.036-2.323,7.638,0.713,10.28    l117.212,102.009h-47.593c-4.025,0-7.286,3.262-7.286,7.286v241.674c0,2.105-1.712,3.817-3.817,3.817H78.848    c-2.105,0-3.817-1.712-3.817-3.817V359.944c0-4.024-3.262-7.286-7.286-7.286s-7.286,3.262-7.286,7.286v121.803    c0,10.14,8.249,18.389,18.389,18.389h354.304c10.14,0,18.389-8.249,18.389-18.389V247.36h49.199c4.738,0,8.872-2.867,10.532-7.304    C512.932,235.619,511.696,230.742,508.123,227.632z"/>
	</g>
</g>
<g>
	<g>
		<path d="M341.652,182.983c-0.759,0-1.524,0.073-2.273,0.215l-154.454,29.447c-5.692,1.084-9.823,6.077-9.823,11.872v165.636    c-1.183-0.069-2.371-0.104-3.563-0.104c-24.209,0-43.173,13.842-43.173,31.513c0,17.671,18.964,31.513,43.173,31.513    s43.173-13.842,43.173-31.513c0-1.074-0.079-2.176-0.234-3.285V268.024l99.874-19.232v87.604c-1.26-0.08-2.527-0.12-3.797-0.12    c-24.209,0-43.174,13.842-43.174,31.513c0,17.67,18.964,31.513,43.174,31.513s43.173-13.842,43.173-31.513V195.07    C353.728,188.406,348.311,182.983,341.652,182.983z M339.156,367.79c0,9.024-13.364,16.94-28.6,16.94    c-15.236,0-28.601-7.916-28.601-16.94s13.365-16.94,28.601-16.94c3.248,0,6.451,0.342,9.523,1.015    c2.154,0.473,4.408-0.057,6.127-1.441c1.719-1.383,2.719-3.47,2.719-5.677V245.78c-0.001-6.665-5.418-12.087-12.075-12.087    c-0.768,0-1.54,0.074-2.296,0.22l-104.849,20.19c-5.678,1.093-9.8,6.084-9.8,11.867v152.857c0,0.401,0.033,0.801,0.099,1.196    c0.091,0.546,0.135,1.049,0.135,1.538c0,9.024-13.364,16.94-28.6,16.94s-28.6-7.916-28.6-16.94c0-9.024,13.364-16.94,28.6-16.94    c3.184,0,6.321,0.326,9.326,0.969c2.149,0.46,4.395-0.076,6.106-1.46c1.711-1.383,2.705-3.465,2.705-5.665V226.576l149.48-28.499    V367.79z"/>
	</g>
</g>
<g>
</g>
<g>
</g>
<g>
</g>
<g>
</g>
<g>
</g>
<g>
</g>
<g>
</g>
<g>
</g>
<g>
</g>
<g>
</g>
<g>
</g>
<g>
</g>
<g>
</g>
<g>
</g>
<g>
</g>
</svg>
