<?xml version="1.0" encoding="iso-8859-1"?>
<!-- Generator: Adobe Illustrator 19.0.0, SVG Export Plug-In . SVG Version: 6.00 Build 0)  -->
<svg xmlns="http://www.w3.org/2000/svg" xmlns:xlink="http://www.w3.org/1999/xlink" version="1.1" id="Capa_1" x="0px" y="0px" viewBox="0 0 512.001 512.001" style="enable-background:new 0 0 512.001 512.001;" xml:space="preserve">
<g>
	<g>
		<path d="M500.024,70.848h-71.94c-4.025,0-7.287,3.262-7.287,7.287c0,4.025,3.262,7.287,7.287,7.287h69.343v287.561H293.533    h-75.066H97.388c-4.025,0-7.287,3.262-7.287,7.287c0,4.025,3.262,7.287,7.287,7.287h112.111l-3.049,14.575h-28.617    c-6.317,0-11.456,5.139-11.456,11.456v16.111c0,6.317,5.139,11.456,11.456,11.456h156.336c6.317,0,11.456-5.139,11.456-11.456    v-16.111c0-6.317-5.139-11.456-11.456-11.456h-28.617l-3.049-14.575h197.522c6.603,0,11.976-5.373,11.976-11.977V82.824    C512,76.22,506.627,70.848,500.024,70.848z M224.387,387.554h63.226l3.049,14.575h-69.324L224.387,387.554z M331.051,416.704    v9.878H180.949v-9.878h31.412c0.003,0,0.006,0,0.009,0h87.262c0.003,0,0.006,0,0.009,0H331.051z"/>
	</g>
</g>
<g>
	<g>
		<path d="M393.108,70.847H11.976C5.373,70.848,0,76.22,0,82.824v292.754c0,6.604,5.373,11.977,11.976,11.977h50.526    c4.025,0,7.287-3.262,7.287-7.287c0-4.025-3.262-7.287-7.287-7.287H14.573V85.421h378.535c4.025,0,7.287-3.262,7.287-7.287    S397.133,70.847,393.108,70.847z"/>
	</g>
</g>
<g>
	<g>
		<path d="M473.063,99.993H38.936c-5.398,0-9.79,4.392-9.79,9.791v238.833c0,5.398,4.392,9.791,9.79,9.791h434.127    c5.398,0,9.79-4.392,9.79-9.791V109.785C482.853,104.387,478.461,99.993,473.063,99.993z M468.281,343.835H43.719V114.566h424.562    V343.835z"/>
	</g>
</g>
<g>
	<g>
		<path d="M256,128.521c-52.299,0-94.847,42.548-94.847,94.847s42.548,94.847,94.847,94.847s94.847-42.548,94.847-94.847    C350.847,171.069,308.299,128.521,256,128.521z M256,303.642c-44.264,0-80.274-36.01-80.274-80.274    c0-44.264,36.01-80.274,80.274-80.274c44.264,0,80.274,36.011,80.274,80.274S300.264,303.642,256,303.642z"/>
	</g>
</g>
<g>
	<g>
		<path d="M307.55,214.376l-70.064-45.222c-1.739-1.122-3.743-1.716-5.795-1.716c-5.906,0-10.711,4.803-10.711,10.707v90.444    c0,5.904,4.805,10.707,10.71,10.707c0.001,0,0.001,0,0.002,0c2.051,0,4.055-0.593,5.794-1.716l70.064-45.222    c3.067-1.98,4.898-5.341,4.898-8.991C312.448,219.717,310.618,216.357,307.55,214.376z M235.554,261.483v-76.232l59.054,38.116    L235.554,261.483z"/>
	</g>
</g>
<g>
</g>
<g>
</g>
<g>
</g>
<g>
</g>
<g>
</g>
<g>
</g>
<g>
</g>
<g>
</g>
<g>
</g>
<g>
</g>
<g>
</g>
<g>
</g>
<g>
</g>
<g>
</g>
<g>
</g>
</svg>
