<?xml version="1.0" encoding="iso-8859-1"?>
<!-- Generator: Adobe Illustrator 19.0.0, SVG Export Plug-In . SVG Version: 6.00 Build 0)  -->
<svg xmlns="http://www.w3.org/2000/svg" xmlns:xlink="http://www.w3.org/1999/xlink" version="1.1" id="Capa_1" x="0px" y="0px" viewBox="0 0 512.001 512.001" style="enable-background:new 0 0 512.001 512.001;" xml:space="preserve">
<g>
	<g>
		<path d="M237.781,59.959h-57.105c-6.836,0-12.398,5.562-12.398,12.398v98.139c0,6.837,5.562,12.399,12.398,12.399h57.105    c6.836,0,12.398-5.562,12.398-12.399V72.357C250.18,65.521,244.617,59.959,237.781,59.959z M235.607,168.322h-52.756v-93.79    h52.756V168.322z"/>
	</g>
</g>
<g>
	<g>
		<path d="M331.325,59.959h-57.104c-6.837,0-12.398,5.562-12.398,12.398v98.139c0,6.837,5.562,12.399,12.398,12.399h57.104    c6.837,0,12.398-5.562,12.398-12.399V72.357C343.722,65.521,338.161,59.959,331.325,59.959z M329.149,168.322h-52.755v-93.79    h52.755V168.322z"/>
	</g>
</g>
<g>
	<g>
		<path d="M237.781,195.77h-57.105c-6.836,0-12.398,5.562-12.398,12.398v98.139c0,6.836,5.562,12.398,12.398,12.398h57.105    c6.836,0,12.398-5.562,12.398-12.398v-98.139C250.18,201.333,244.617,195.77,237.781,195.77z M235.607,304.133h-52.756v-93.789    h52.756V304.133z"/>
	</g>
</g>
<g>
	<g>
		<path d="M331.325,195.77h-57.104c-6.837,0-12.398,5.562-12.398,12.398v98.139c0,6.836,5.562,12.398,12.398,12.398h57.104    c6.837,0,12.398-5.562,12.398-12.398v-98.139C343.722,201.333,338.161,195.77,331.325,195.77z M329.149,304.133h-52.755v-93.789    h52.755V304.133z"/>
	</g>
</g>
<g>
	<g>
		<path d="M237.781,331.582h-57.105c-6.836,0-12.398,5.562-12.398,12.398v98.139c0,6.836,5.562,12.398,12.398,12.398h57.105    c6.836,0,12.398-5.562,12.398-12.398V343.98C250.18,337.144,244.617,331.582,237.781,331.582z M235.607,439.944h-52.756v-93.789    h52.756V439.944z"/>
	</g>
</g>
<g>
	<g>
		<path d="M331.325,331.582h-57.104c-6.837,0-12.398,5.562-12.398,12.398v98.139c0,6.836,5.562,12.398,12.398,12.398h57.104    c6.837,0,12.398-5.562,12.398-12.398V343.98C343.722,337.144,338.161,331.582,331.325,331.582z M329.149,439.944h-52.755v-93.789    h52.755V439.944z"/>
	</g>
</g>
<g>
	<g>
		<path d="M427.835,465.108h-21.622V245.192c0-4.024-3.262-7.287-7.287-7.287c-4.025,0-7.287,3.262-7.287,7.287v219.917h-19.643    V46.528c0-8.657-7.043-15.701-15.7-15.701h-200.59c-8.658,0-15.701,7.043-15.701,15.701v418.58h-19.643V245.122    c0-4.024-3.262-7.287-7.287-7.287c-4.025,0-7.287,3.262-7.287,7.287v219.986H84.166c-5.885,0-10.673,4.788-10.673,10.673v25.547    c0,5.885,4.788,10.673,10.673,10.673h343.668c5.885,0,10.673-4.788,10.673-10.673v-25.547    C438.508,469.896,433.719,465.108,427.835,465.108z M154.577,46.528c0-0.622,0.506-1.128,1.128-1.128h200.591    c0.621,0,1.127,0.506,1.127,1.128v418.58H154.577V46.528z M88.066,497.427v-17.746h25.008h34.216h217.418h34.216h25.009v17.746    H88.066z"/>
	</g>
</g>
<g>
	<g>
		<path d="M391.456,0h-270.91c-8.137,0-14.757,6.62-14.757,14.757v195.094c0,4.025,3.262,7.287,7.286,7.287    c4.024,0,7.287-3.262,7.287-7.287V14.757c0-0.102,0.083-0.184,0.184-0.184h270.91c0.102,0,0.184,0.083,0.184,0.184v195.702    c0,4.024,3.262,7.287,7.287,7.287c4.025,0,7.287-3.262,7.287-7.287V14.757C406.213,6.62,399.593,0,391.456,0z"/>
	</g>
</g>
<g>
</g>
<g>
</g>
<g>
</g>
<g>
</g>
<g>
</g>
<g>
</g>
<g>
</g>
<g>
</g>
<g>
</g>
<g>
</g>
<g>
</g>
<g>
</g>
<g>
</g>
<g>
</g>
<g>
</g>
</svg>
