<?xml version="1.0" encoding="iso-8859-1"?>
<!-- Generator: Adobe Illustrator 19.0.0, SVG Export Plug-In . SVG Version: 6.00 Build 0)  -->
<svg xmlns="http://www.w3.org/2000/svg" xmlns:xlink="http://www.w3.org/1999/xlink" version="1.1" id="Capa_1" x="0px" y="0px" viewBox="0 0 512.001 512.001" style="enable-background:new 0 0 512.001 512.001;" xml:space="preserve">
<g>
	<g>
		<path d="M498.821,434.743h-7.177v-19.518c0-6.764-5.503-12.267-12.267-12.267h-19.171V93.051h36.589    c7.338,0,13.308-5.97,13.308-13.308V42.638c0-7.338-5.97-13.308-13.308-13.308H393.982c-3.992,0-7.228,3.236-7.228,7.228    s3.236,7.228,7.228,7.228h101.665v34.807h-42.668H59.021H16.353V43.787h343.283c3.992,0,7.228-3.236,7.228-7.228    s-3.236-7.228-7.228-7.228H15.204c-7.338,0-13.308,5.97-13.308,13.308v37.105c0,7.338,5.97,13.308,13.308,13.308h36.589v137.952    c0,3.992,3.236,7.228,7.228,7.228s7.228-3.236,7.228-7.228V93.051H445.75v309.908h-29.015V279.893    c0-88.629-72.105-160.735-160.735-160.735S95.265,191.263,95.265,279.893v123.066H66.25v-137.14c0-3.992-3.236-7.228-7.228-7.228    c-3.992,0-7.228,3.236-7.228,7.228v137.14H32.622c-6.764,0-12.267,5.503-12.267,12.267v19.518h-7.177    C5.912,434.743,0,440.655,0,447.922v21.57c0,7.267,5.912,13.179,13.179,13.179h485.643c7.266,0,13.179-5.912,13.179-13.179v-21.57    C512,440.655,506.088,434.743,498.821,434.743z M109.721,279.893h0.001c0-80.658,65.62-146.278,146.278-146.278    s146.278,65.62,146.278,146.278v123.066h-18.256v-2.386c0-19.132-15.565-34.696-34.696-34.696h-30.212    c14.484-22.306,11.091-48.593,10.907-49.915c-0.426-3.065-2.756-5.52-5.796-6.104c-3.036-0.583-6.114,0.832-7.645,3.521    c-0.052,0.091-5.266,9.213-12.152,18.254c-9.892,12.988-15.375,15.572-17.22,16.085c1.154-1.891,3.38-4.733,5.264-7.138    c7.688-9.814,19.307-24.645,25.568-49.017c5.181-20.171-0.494-39.275-16.413-55.247c-11.532-11.571-24.444-17.389-24.988-17.631    c-2.827-1.256-6.137-0.572-8.238,1.696c-2.102,2.269-2.526,5.628-1.057,8.35c3.083,5.714,5.202,13.147,4.442,15.419    c-0.202,0.06-0.586,0.142-1.223,0.166c-0.218,0.008-0.435,0.013-0.647,0.013c-0.001,0-0.001,0-0.001,0    c-4.294,0-6.177-1.741-7.337-3.258c-7.151-9.347-3.619-35.679,0.287-50.077c0.861-3.162-0.513-6.508-3.348-8.152    c-2.835-1.644-6.421-1.175-8.739,1.143c-3.934,3.935-38.316,39.211-34.343,65.696c1.94,12.934,11.019,21.827,18.314,28.973    c3.576,3.503,8.474,8.301,8.485,10.512c0.003,0.648-0.721,1.76-1.937,2.977c-1.363,1.363-2.438,1.547-3.309,1.547    c-0.001,0,0,0-0.001,0c-7.636,0-20.796-14.798-27.282-24.796c-1.192-1.842-3.156-3.043-5.338-3.265    c-2.182-0.22-4.348,0.56-5.886,2.125c-0.771,0.785-18.877,19.702-17.932,61.581c0.014,0.604,0.034,1.204,0.062,1.8    c0.585,12.562,4.801,24.482,12.129,34.743h-31.067c-19.132,0-34.696,15.565-34.696,34.696v2.386h-18.256V279.893z     M244.867,268.324c-6.348-6.218-12.913-12.648-14.134-20.79c-1.319-8.794,5.303-21.714,13.588-33.409    c-0.942,12.675-0.002,26.859,6.768,35.718c4.47,5.85,11.021,8.969,18.83,8.94c0.393,0,0.796-0.008,1.201-0.023    c8.023-0.309,11.682-4.681,13.149-7.259c1.655-2.909,2.185-6.28,2.048-9.703c11.15,9.142,23.27,24.566,17.721,46.166    c-5.507,21.439-15.586,34.305-22.945,43.699c-3.57,4.557-6.39,8.157-7.896,11.803c-2.381,5.768-1.056,11.337,3.636,15.279    c2.769,2.326,6.111,3.555,9.668,3.555c0.002,0,0.004,0,0.006,0c8.049-0.003,16.662-5.974,26.933-18.728    c-2.167,7.578-6.048,15.628-12.883,22.304h-87.661c-10.265-9.583-16.222-22.066-16.843-35.414c-0.023-0.48-0.04-0.964-0.05-1.453    c-0.484-21.464,4.681-35.686,8.828-43.563c7.518,9.523,20.251,22.699,33.158,22.698c0.001,0,0.004,0,0.005,0    c5.069-0.001,9.747-2.001,13.528-5.782c4.119-4.119,6.195-8.585,6.171-13.274C257.65,280.846,251.441,274.764,244.867,268.324z     M210.14,380.333h93.235h45.951c11.16,0,20.239,9.079,20.239,20.239v2.386H142.434v-2.386c0-11.16,9.079-20.239,20.239-20.239    H210.14z M34.812,417.415h24.209h76.184h241.588h76.184h24.209v17.328H34.812V417.415z M497.544,468.215L497.544,468.215H14.457    V449.2h13.127h456.833h13.127V468.215z"/>
	</g>
</g>
<g>
</g>
<g>
</g>
<g>
</g>
<g>
</g>
<g>
</g>
<g>
</g>
<g>
</g>
<g>
</g>
<g>
</g>
<g>
</g>
<g>
</g>
<g>
</g>
<g>
</g>
<g>
</g>
<g>
</g>
</svg>
