<?xml version="1.0" encoding="iso-8859-1"?>
<!-- Generator: Adobe Illustrator 19.0.0, SVG Export Plug-In . SVG Version: 6.00 Build 0)  -->
<svg xmlns="http://www.w3.org/2000/svg" xmlns:xlink="http://www.w3.org/1999/xlink" version="1.1" id="Capa_1" x="0px" y="0px" viewBox="0 0 512 512" style="enable-background:new 0 0 512 512;" xml:space="preserve">
<g>
	<g>
		<path d="M452.711,107.336c-95.867-5.957-319.064-19.812-321.078-19.812c-28.923,0-52.453,23.53-52.453,52.454    c0,28.923,23.53,52.453,52.453,52.453c2.015,0,225.211-13.855,321.074-19.812c17.211-1.06,30.692-15.398,30.692-32.641    C483.398,122.735,469.917,108.397,452.711,107.336z M451.807,158.074c-108.266,6.727-313.645,19.463-320.309,19.784    c-20.826-0.073-37.746-17.037-37.746-37.88c0-20.843,16.92-37.808,37.746-37.88c6.664,0.32,212.044,13.056,320.312,19.784    c9.542,0.588,17.015,8.537,17.015,18.096C468.825,149.537,461.352,157.486,451.807,158.074z"/>
	</g>
</g>
<g>
	<g>
		<path d="M203.639,208.071c-4.024,0-7.287,3.262-7.287,7.287v254.704c0,15.089-12.276,27.365-27.364,27.365H70.539    c-15.089,0-27.364-12.276-27.364-27.365v-65.175c0-4.024-3.262-7.287-7.287-7.287c-4.025,0-7.287,3.262-7.287,7.287v65.175    c0,23.125,18.813,41.938,41.937,41.938h98.449c23.124,0,41.937-18.813,41.937-41.938V215.358    C210.926,211.333,207.663,208.071,203.639,208.071z"/>
	</g>
</g>
<g>
	<g>
		<path d="M168.988,0H70.539C47.415,0,28.602,18.813,28.602,41.937v328.381c0,4.024,3.262,7.287,7.286,7.287    s7.287-3.262,7.287-7.287V41.937c0-15.089,12.276-27.364,27.364-27.364h98.449c15.089,0,27.364,12.276,27.364,27.364v23.561    c0,4.024,3.262,7.287,7.287,7.287c4.024,0,7.287-3.262,7.287-7.287V41.937C210.926,18.813,192.112,0,168.988,0z"/>
	</g>
</g>
<g>
	<g>
		<path d="M119.762,321.739c-7.434,0-14.875,2.675-21.519,7.735c-0.521,0.397-0.986,0.862-1.383,1.384    c-6.273,8.244-8.856,17.768-7.271,26.818c1.223,6.991,4.883,13.343,10.236,17.942v42.864c0.002,1.771,0.646,3.481,1.815,4.81    c5.126,5.833,11.562,9.046,18.123,9.046c5.325,0,10.332-2.074,14.097-5.839c3.766-3.766,5.839-8.772,5.839-14.098v-36.776    c6.761-5.783,10.695-14.211,10.695-23.254C150.394,335.48,136.653,321.739,119.762,321.739z M128.458,365.868    c-2.077,1.342-3.332,3.647-3.332,6.12v40.413c0,1.433-0.558,2.78-1.571,3.793s-2.36,1.571-3.792,1.571    c-1.72,0-3.572-0.806-5.364-2.308v-43.469c0-2.473-1.254-4.777-3.332-6.12c-3.761-2.431-6.358-6.332-7.123-10.704    c-0.841-4.812,0.516-9.87,3.928-14.682c3.854-2.731,7.948-4.17,11.891-4.17c8.855,0,16.059,7.204,16.059,16.059    C135.822,357.843,133.069,362.888,128.458,365.868z"/>
	</g>
</g>
<g>
</g>
<g>
</g>
<g>
</g>
<g>
</g>
<g>
</g>
<g>
</g>
<g>
</g>
<g>
</g>
<g>
</g>
<g>
</g>
<g>
</g>
<g>
</g>
<g>
</g>
<g>
</g>
<g>
</g>
</svg>
