<?xml version="1.0" encoding="iso-8859-1"?>
<!-- Generator: Adobe Illustrator 19.0.0, SVG Export Plug-In . SVG Version: 6.00 Build 0)  -->
<svg xmlns="http://www.w3.org/2000/svg" xmlns:xlink="http://www.w3.org/1999/xlink" version="1.1" id="Capa_1" x="0px" y="0px" viewBox="0 0 512 512" style="enable-background:new 0 0 512 512;" xml:space="preserve">
<g>
	<g>
		<path d="M437.019,74.981c-2.556-2.556-5.194-5.087-7.843-7.524c-2.959-2.725-7.57-2.533-10.296,0.428    c-2.725,2.962-2.533,7.571,0.429,10.296c2.5,2.301,4.991,4.691,7.406,7.105c45.6,45.599,70.713,106.226,70.713,170.714    c0,64.487-25.113,125.115-70.713,170.714c-45.599,45.6-106.226,70.713-170.713,70.713c-5.525,0-10.019-4.495-10.019-10.019V415.87    h20.039v53.546c0,2.033,0.849,3.973,2.342,5.352c1.492,1.379,3.491,2.072,5.521,1.911c52.207-4.149,101.452-26.926,138.662-64.135    c41.814-41.816,64.842-97.411,64.842-156.545c0-59.135-23.028-114.731-64.842-156.545C370.731,57.64,315.135,34.612,256,34.612    S141.269,57.64,99.455,99.455C57.641,141.27,34.612,196.865,34.612,256c0,59.134,23.028,114.729,64.843,156.545    c26.661,26.66,59.668,46.148,95.452,56.356c5.313,1.516,8.403,7.071,6.888,12.383c-1.517,5.313-7.071,8.404-12.385,6.886    c-39.054-11.14-75.059-32.391-104.124-61.456c-45.6-45.6-70.713-106.227-70.713-170.714c0-64.488,25.113-125.115,70.713-170.714    C130.885,39.686,191.512,14.573,256,14.573c49.19,0,96.394,14.597,136.508,42.213c3.315,2.281,7.852,1.444,10.134-1.87    c2.282-3.315,1.445-7.852-1.87-10.134C358.215,15.485,308.154,0,256,0C187.62,0,123.333,26.629,74.981,74.981S0,187.62,0,256    s26.629,132.667,74.981,181.018c30.814,30.814,69,53.347,110.43,65.166c13.037,3.721,26.675-3.861,30.397-16.901    c1.802-6.317,1.036-12.958-2.157-18.699c-3.193-5.741-8.43-9.895-14.747-11.697c-33.407-9.53-64.233-27.735-89.146-52.647    c-39.062-39.064-60.574-91-60.574-146.241c0-55.242,21.512-107.178,60.574-146.241c39.062-39.063,91-60.573,146.242-60.573    c55.243,0,107.178,21.512,146.24,60.574c39.063,39.062,60.575,90.998,60.575,146.241c0,55.241-21.512,107.177-60.574,146.241    c-32.886,32.885-75.828,53.703-121.648,59.134v-48.9c5.073-3.488,8.41-9.327,8.41-15.935c0-2.213,1.525-4.166,3.707-4.749    c41.095-10.972,69.796-48.374,69.796-90.956v-53.922c6.689-1.64,11.673-7.669,11.673-14.857v-20.194    c0-8.443-6.868-15.312-15.311-15.312h-9.733v-81.662c0-10.343-8.415-18.759-18.758-18.759h-8.184    c-10.343,0-18.758,8.415-18.758,18.759v81.662h-94.867v-81.662c0-10.343-8.415-18.759-18.758-18.759h-8.184    c-10.343,0-18.759,8.415-18.759,18.759v81.662h-9.733c-8.443,0-15.311,6.869-15.311,15.312v20.194    c0,7.187,4.984,13.217,11.673,14.857v25.119c0,4.024,3.262,7.287,7.287,7.287c4.024,0,7.287-3.262,7.287-7.287v-24.664h183.866    v53.467c0,35.992-24.254,67.605-58.982,76.877c-8.549,2.283-14.521,10.025-14.521,18.829c0,2.237-1.557,4.105-3.64,4.611    c-0.085,0.02-0.168,0.043-0.254,0.059c-0.281,0.052-0.568,0.087-0.864,0.087h-27.344c-0.295,0-0.582-0.035-0.863-0.087    c-0.087-0.016-0.172-0.039-0.258-0.06c-2.082-0.507-3.638-2.375-3.638-4.611c0-8.804-5.971-16.546-14.521-18.829    c-32.842-8.768-56.469-37.441-58.793-71.348c-0.276-4.015-3.75-7.054-7.768-6.771c-4.015,0.275-7.046,3.753-6.771,7.768    c2.75,40.126,30.71,74.056,69.573,84.432c2.183,0.583,3.707,2.536,3.707,4.749c0,6.609,3.337,12.448,8.411,15.936v74.932    C231.408,500.968,242.44,512,256,512c68.38,0,132.668-26.629,181.019-74.982C485.371,388.667,512,324.38,512,256    C512,187.619,485.371,123.332,437.019,74.981z M318.007,114.888L318.007,114.888c0-2.308,1.878-4.185,4.185-4.185h8.184    c2.307,0,4.185,1.878,4.185,4.185v81.662h-16.554V114.888z M177.438,114.888h0.001c0-2.308,1.878-4.185,4.185-4.185h8.184    c2.307,0,4.185,1.878,4.185,4.185v81.662h-16.555V114.888z M156.78,232.794h-3.648c-0.407,0-0.738-0.331-0.738-0.739v-20.194    c0-0.408,0.331-0.739,0.738-0.739h17.02h31.128h109.44h31.127h17.02c0.407,0,0.738,0.331,0.738,0.739v20.194    c0,0.408-0.331,0.739-0.738,0.739h-3.648H156.78z"/>
	</g>
</g>
<g>
</g>
<g>
</g>
<g>
</g>
<g>
</g>
<g>
</g>
<g>
</g>
<g>
</g>
<g>
</g>
<g>
</g>
<g>
</g>
<g>
</g>
<g>
</g>
<g>
</g>
<g>
</g>
<g>
</g>
</svg>
