<?xml version="1.0" encoding="iso-8859-1"?>
<!-- Generator: Adobe Illustrator 17.1.0, SVG Export Plug-In . SVG Version: 6.00 Build 0)  -->
<!DOCTYPE svg PUBLIC "-//W3C//DTD SVG 1.1//EN" "http://www.w3.org/Graphics/SVG/1.1/DTD/svg11.dtd">
<svg version="1.1" id="Capa_1" xmlns="http://www.w3.org/2000/svg" xmlns:xlink="http://www.w3.org/1999/xlink" x="0px" y="0px"
	 viewBox="0 0 298.182 298.182" style="enable-background:new 0 0 298.182 298.182;" xml:space="preserve">
<g>
	<path d="M124.172,0c-3.115,0-5.893,0.245-8.212,0.805C97.082,5.36,64.32,32.051,55.423,41.162
		c-4.271,4.376-2.577,13.114,5.925,13.114c3.675,0,8.62-1.632,14.905-5.952c11.489-7.898,25.556-11.376,38.407-11.376
		c10.448,0,20.092,2.297,26.903,6.383c3.374,2.024,3.363,2.701,1.406,2.701c-3.931,0-15.718-2.728-23.707-2.728
		c-3.93,0-6.94,0.66-7.645,2.63c-3.254,9.114,9.363,12.048,22.557,17.388c9.66,3.911,21.447,6.863,32.674,6.863
		c4.681,0,9.3-0.514,13.591-1.684c19.487-5.314,32.575-9.314,37.575-10.614V6.743c-9,2.95-17.312,5.778-22.602,5.778
		C185.705,12.521,146.41,0,124.172,0z"/>
	<path d="M125.939,242.182h-1.032c-3.751,0-7.892-3.963-7.892-7.87v-56.694c0-3.882,3.641-7.032,7.016-7.072l14.379,0.004
		c-5.797-4.499-9.325-10.646-9.325-18.346c0-9.206,5.462-17.26,13.259-21.021h-19.529c8.443-5.435,14.041-14.91,14.041-25.697
		c0-8.89-3.8-16.889-9.859-22.472c-5.442-5.015-12.708-8.08-20.69-8.08c-0.756,0-1.503,0.037-2.245,0.091
		c-15.824,1.15-28.306,14.343-28.306,30.461c0,10.787,5.597,20.262,14.04,25.697H69.384h-0.376h-1.993v0.139
		c-4,0.715-9,4.305-9,8.928v75.72c0,5.176,5.816,10.214,10.993,10.214h0.376c4.466,0,7.631-3.486,8.631-7.768v65.887
		c0,7.651,6.853,13.881,14.503,13.881h0.442c7,0,12.771-5.196,13.705-11.94c0.933,6.744,6.705,11.94,13.702,11.94h0.442
		c4.061,0,7.205-1.787,10.205-4.571v-55.491C130.015,240.082,128.343,242.182,125.939,242.182z"/>
	<path d="M180.114,80.77c-7.633,5.554-12.6,14.552-12.6,24.715c0,10.787,5.598,20.262,14.041,25.697h-19.43
		c7.784,3.747,13.164,11.757,13.164,20.952c0,7.698-3.77,13.918-9.566,18.417l14.672,0.031c4.5,0.403,6.62,3.848,6.62,7.52v57.175
		c0,3.908-2.722,7.904-6.632,7.904H180.1c-2.761,0-5.085-2.334-7.085-4.686v55.612c3,2.499,6.727,4.074,10.546,4.074h0.442
		c6.997,0,12.77-5.196,13.703-11.94c0.933,6.744,6.705,11.94,13.704,11.94h0.442c7.649,0,13.162-6.23,13.162-13.881v-65.887
		c1,4.281,5.506,7.768,9.972,7.768h0.376c5.176,0,9.652-5.038,9.652-10.214v-75.72c0-4.846-4-8.564-9-9.018v-0.048h-0.652h-0.376
		h-20.412c8.443-5.435,14.04-14.91,14.04-25.697c0-16.106-12.463-29.291-28.27-30.458c-0.754-0.056-1.513-0.094-2.28-0.094
		C191.355,74.933,185.154,77.102,180.114,80.77z"/>
</g>
<g>
</g>
<g>
</g>
<g>
</g>
<g>
</g>
<g>
</g>
<g>
</g>
<g>
</g>
<g>
</g>
<g>
</g>
<g>
</g>
<g>
</g>
<g>
</g>
<g>
</g>
<g>
</g>
<g>
</g>
</svg>
