<?xml version="1.0" encoding="iso-8859-1"?>
<!-- Generator: Adobe Illustrator 17.1.0, SVG Export Plug-In . SVG Version: 6.00 Build 0)  -->
<!DOCTYPE svg PUBLIC "-//W3C//DTD SVG 1.1//EN" "http://www.w3.org/Graphics/SVG/1.1/DTD/svg11.dtd">
<svg version="1.1" id="Capa_1" xmlns="http://www.w3.org/2000/svg" xmlns:xlink="http://www.w3.org/1999/xlink" x="0px" y="0px"
	 viewBox="0 0 274.61 274.61" style="enable-background:new 0 0 274.61 274.61;" xml:space="preserve">
<g>
	<path d="M163.63,191.498c3.978,1.88,9.815,4.98,13.831,10.177c2.496,3.23,4.08,6.83,4.641,10.619
		c7.06-1.911,13.282-4.799,18.811-8.6c0.766-0.526,2.142-1.025,2.142-1.511v-62.711h33.334l-38.141-42.618
		c-0.751,0.206-1.506,0.413-2.275,0.622c-2.103,0.574-4.254,1.046-6.574,1.444c-4.352,0.746-8.952,1.124-13.672,1.124
		c-14.171,0-30.231-3.343-45.217-9.411c-2.273-0.92-4.602-1.804-6.854-2.659c-10.037-3.811-19.62-7.458-25.377-14.674l-0.89,0.983
		l-26,28.727l-33.001,36.463h31.668v40.114c3-0.804,6.074-1.641,9.218-2.499c6.247-1.704,13.267-2.615,20.536-2.615h0.015
		c5.286,0,11.231,0.5,16.231,1.422v-4.922c0-11.322,9.178-20.5,20.5-20.5c11.322,0,20.5,9.178,20.5,20.5v17.785
		C160.055,189.635,161.581,190.529,163.63,191.498z"/>
	<path d="M47.885,65.767c4.452,0,10.447-1.977,18.064-7.212c13.921-9.57,30.967-13.784,46.539-13.784
		c3.759,0,7.429,0.251,10.952,0.726c1.043,0.141,2.072,0.301,3.087,0.481c2.03,0.36,4,0.799,5.898,1.313
		c0.949,0.257,1.88,0.533,2.791,0.827c1.822,0.588,3.564,1.25,5.214,1.983c0.825,0.366,1.626,0.75,2.403,1.151
		s1.529,0.819,2.254,1.254c1.022,0.614,1.788,1.125,2.325,1.547c0.134,0.105,0.254,0.205,0.36,0.3
		c0.212,0.189,0.368,0.356,0.473,0.504c0.469,0.663-0.118,0.922-1.452,0.922c-2.977,0-9.672-1.291-16.638-2.259
		c-2.786-0.387-5.616-0.723-8.269-0.904c-1.326-0.09-2.608-0.142-3.818-0.142c-0.323,0-0.64,0.004-0.953,0.012
		c-4.292,0.105-7.515,0.95-8.311,3.175c-0.835,2.338-0.8,4.337-0.086,6.103c2.49,6.162,13.334,9.44,25.063,14.028
		c0.782,0.306,1.568,0.618,2.355,0.936c11.704,4.739,25.987,8.315,39.59,8.315c3.822,0,7.532-0.29,11.139-0.909
		c1.744-0.299,3.3-0.668,4.995-1.131c23.613-6.439,39.195-11.287,45.195-12.861V8.172c-10,3.575-20.642,7.002-27.052,7.002
		C198.239,15.174,150.814,0,123.868,0c-3.773,0-7.067,0.298-9.876,0.976C91.119,6.497,51.455,38.837,40.676,49.877
		C35.5,55.179,37.583,65.767,47.885,65.767z"/>
	<path d="M227.658,208.845c-2.782,0-6.165,0.774-10.17,2.631c-2.405,1.115-5.033,2.625-7.891,4.589
		c-8.02,5.513-17.076,9.25-26.29,11.427c-6.78,1.602-13.645,2.389-20.247,2.389c-12.659,0-24.345-2.741-32.598-7.692
		c-4.089-2.454-4.076-3.189-1.705-3.189c4.748,0,18.953,3.471,28.631,3.471c0.031,0,0.064,0,0.094,0c4.764,0,8.41-0.971,9.264-3.359
		c2.333-6.532-2.067-10.619-9.358-14.064c-5.034-2.379-11.445-4.547-17.974-7.19c-6.987-2.829-14.894-5.26-23.026-6.747
		c-5.49-1.004-11.082-1.64-16.564-1.64c0,0-0.012,0-0.015,0c-5.666,0-11.352,0.67-16.548,2.087
		c-4.603,1.255-9.237,2.496-13.29,3.618c-16.741,4.633-27.917,8.024-32.917,9.291v61.971c9-3.575,21.362-7.002,27.773-7.002
		c11.764,0,59.673,15.174,86.619,15.174c3.772,0,7.184-0.298,9.994-0.975c22.873-5.521,62.595-37.861,73.374-48.901
		C239.99,219.432,237.959,208.845,227.658,208.845z"/>
</g>
<g>
</g>
<g>
</g>
<g>
</g>
<g>
</g>
<g>
</g>
<g>
</g>
<g>
</g>
<g>
</g>
<g>
</g>
<g>
</g>
<g>
</g>
<g>
</g>
<g>
</g>
<g>
</g>
<g>
</g>
</svg>
