<?xml version="1.0" encoding="iso-8859-1"?>
<!-- Generator: Adobe Illustrator 17.1.0, SVG Export Plug-In . SVG Version: 6.00 Build 0)  -->
<!DOCTYPE svg PUBLIC "-//W3C//DTD SVG 1.1//EN" "http://www.w3.org/Graphics/SVG/1.1/DTD/svg11.dtd">
<svg version="1.1" id="Capa_1" xmlns="http://www.w3.org/2000/svg" xmlns:xlink="http://www.w3.org/1999/xlink" x="0px" y="0px"
	 viewBox="0 0 294.912 294.912" style="enable-background:new 0 0 294.912 294.912;" xml:space="preserve">
<g>
	<path d="M62.123,149.699v25.077c4,1.056,6.75,2.4,10.138,3.785c1.814,0.741,3.774,1.508,5.614,2.213
		c14.698,5.63,30.256,17.271,43.137,31.94c0.123,0.141,0.111,0.283,0.111,0.425v-41.786c0-13.66,11.341-24.731,24.999-24.731
		c13.66,0,25.001,11.071,25.001,24.731v44.103c1-0.933,1.617-1.847,2.402-2.742c12.881-14.668,28.714-26.31,43.409-31.939
		c1.844-0.706,3.562-1.473,5.376-2.214c2.358-0.964,4.813-1.909,6.813-2.751v-27.542l-82.389-92.058L62.123,149.699z"/>
	<polygon points="147.134,32.293 232.687,127.889 261.535,127.889 147.101,0.023 31.377,127.889 60.615,127.889 	"/>
	<path d="M287.424,150.446c-4.429,0-9.703,4.288-12.503,16.922c-5.43,24.518-26.857,44.207-44.068,47.877
		c-1.263,0.27-2.159,0.396-2.74,0.396c-6.45,0,25.788-15.495,22.731-22.576c-1.371-3.178-3.696-4.38-6.726-4.38
		c-5.384,0-12.994,3.794-21.442,7.031c-13.699,5.247-27.188,16.273-37.097,27.556c-11.146,12.695-24.792,30.061-29.831,71.617
		h47.925c0.856-11.559,5.244-17.337,8.956-20.798c8.041-7.499,55.01-29.192,65.641-45.293c10.627-16.102,16.35-57.691,16.641-70.34
		C295.006,154.242,291.589,150.446,287.424,150.446z"/>
	<path d="M139.164,294.889c-5.039-41.556-18.685-58.922-29.831-71.617c-9.908-11.283-23.397-22.309-37.097-27.556
		c-8.448-3.237-16.059-7.031-21.442-7.031c-3.029,0-5.355,1.202-6.726,4.38c-3.057,7.081,29.182,22.576,22.732,22.576
		c-0.581,0-1.478-0.126-2.74-0.396c-17.211-3.67-38.639-23.359-44.068-47.877c-2.8-12.634-8.074-16.923-12.503-16.922
		c-4.165,0.001-7.582,3.796-7.486,8.012c0.291,12.648,6.014,54.238,16.641,70.34c10.631,16.101,57.6,37.794,65.641,45.293
		c3.712,3.461,8.1,9.239,8.956,20.798H139.164z"/>
</g>
<g>
</g>
<g>
</g>
<g>
</g>
<g>
</g>
<g>
</g>
<g>
</g>
<g>
</g>
<g>
</g>
<g>
</g>
<g>
</g>
<g>
</g>
<g>
</g>
<g>
</g>
<g>
</g>
<g>
</g>
</svg>
