<?xml version="1.0" encoding="iso-8859-1"?>
<!-- Generator: Adobe Illustrator 17.1.0, SVG Export Plug-In . SVG Version: 6.00 Build 0)  -->
<!DOCTYPE svg PUBLIC "-//W3C//DTD SVG 1.1//EN" "http://www.w3.org/Graphics/SVG/1.1/DTD/svg11.dtd">
<svg version="1.1" id="Capa_1" xmlns="http://www.w3.org/2000/svg" xmlns:xlink="http://www.w3.org/1999/xlink" x="0px" y="0px"
	 viewBox="0 0 297 297" style="enable-background:new 0 0 297 297;" xml:space="preserve">
<g>
	<path d="M165.667,181.5v-16.25c0-9.236-7.181-16.75-16.417-16.75h-0.5c-9.236,0-17.083,7.514-17.083,16.75v16.25H165.667z"/>
	<polygon points="149.367,24.541 275.518,165.5 297,165.5 149.167,0.5 82.667,73.793 82.667,33.5 49.667,33.5 49.667,110.255 
		0,165.5 21.792,165.5 	"/>
	<path d="M148.968,48.459L41.667,167.016V296.5h213V166.565L148.968,48.459z M189.667,249.5c0,8.284-6.383,15-14.667,15h-51
		c-8.284,0-15.333-6.716-15.333-15v-53c0-5.34,3-10.015,7-12.673V165.25c0-18.059,15.024-32.75,33.083-32.75h0.5
		c18.059,0,32.417,14.691,32.417,32.75v17.988c5,2.516,8,7.507,8,13.262V249.5z"/>
	<path d="M156.667,224.971c4-2.691,6.833-7.271,6.833-12.471c0-8.283-6.634-15-14.917-15c-8.283,0-15.125,6.717-15.125,15
		c0,5.479,3.208,10.257,7.208,12.875V247.5h16V224.971z"/>
</g>
<g>
</g>
<g>
</g>
<g>
</g>
<g>
</g>
<g>
</g>
<g>
</g>
<g>
</g>
<g>
</g>
<g>
</g>
<g>
</g>
<g>
</g>
<g>
</g>
<g>
</g>
<g>
</g>
<g>
</g>
</svg>
