<?xml version="1.0" encoding="iso-8859-1"?>
<!-- Generator: Adobe Illustrator 17.1.0, SVG Export Plug-In . SVG Version: 6.00 Build 0)  -->
<!DOCTYPE svg PUBLIC "-//W3C//DTD SVG 1.1//EN" "http://www.w3.org/Graphics/SVG/1.1/DTD/svg11.dtd">
<svg version="1.1" id="Capa_1" xmlns="http://www.w3.org/2000/svg" xmlns:xlink="http://www.w3.org/1999/xlink" x="0px" y="0px"
	 viewBox="0 0 296.448 296.448" style="enable-background:new 0 0 296.448 296.448;" xml:space="preserve">
<g>
	<path d="M231.401,92.644c7.813,3.294,14.807,7.092,19.76,7.092c2.617,0,4.664-1.06,5.963-3.816
		c2.994-6.351-25.676-21.364-20.251-21.364c0.527,0,1.375,0.142,2.606,0.446c15.654,3.88,34.691,22.559,38.926,45.181
		c2.222,11.853,7.048,15.88,11.148,15.88c3.727,0,6.855-3.321,6.893-7.116c0.113-11.594-3.875-49.862-13.125-64.931
		c-9.254-15.069-51.625-36.522-58.766-43.634c-1.699-1.691-5.855-5.99-9.535-9.99h-44.996c6.961,28,18.234,46.328,26.199,57.834
		C204.057,79.543,219.012,87.428,231.401,92.644z"/>
	<path d="M6.893,136.043c4.101,0,8.927-4.006,11.149-15.859c4.236-22.622,23.273-41.301,38.928-45.181
		c1.232-0.305,2.079-0.446,2.607-0.446C65,74.558,36.33,89.569,39.323,95.921c1.299,2.756,3.346,3.816,5.963,3.816
		c4.954,0,11.948-3.798,19.762-7.092c12.389-5.217,27.344-13.102,35.176-24.418c7.965-11.506,19.238-29.834,26.199-57.834H81.426
		c-3.68,4-7.834,8.299-9.533,9.99c-7.143,7.111-49.514,28.48-58.766,43.55c-9.25,15.068-13.238,53.379-13.125,64.973
		C0.039,132.7,3.167,136.043,6.893,136.043z"/>
	<path d="M248.602,193.024c-3.836,0-7.563,0.476-11.131,1.355l-6.777-14.729c5.677-1.7,11.519-2.627,17.742-2.627
		c2.582,0,5.456,0.176,7.456,0.482v-30.287c0-8.597-7.227-14.826-15.822-14.826h-18.67l-0.314-25.802
		c-0.004-0.344-0.037-0.684-0.084-1.02c-0.277-1.96-1.268-3.764-2.811-5.042c-1.808-1.498-4.182-2.128-6.495-1.718l-3.117,0.551
		l-31.276,5.519c-4.351,0.768-7.256,4.917-6.487,9.269c0.768,4.351,4.911,7.253,9.269,6.487l25.118-4.433l0.185,15.13
		c-9.469,0.963-22.115,4.271-33.438,13.942c-21.579,18.434-13.802,26.617-52.914,26.617c-16.442,0-37.186-23.685-57.908-26.728
		c-14.78-2.173-30.261-0.922-41.772,3.166c-2.465,0.875-4.754,1.876-6.808,3.007c-6.894,3.795-11.216,8.993-11.216,15.389
		c0,9.779,9.083,17.13,21.261,22.594c10.4-7.721,23.267-12.297,37.185-12.297c6.19,0,12.168,0.918,17.818,2.602l-6.755,14.738
		c-3.549-0.869-7.251-1.34-11.063-1.34c-25.649,0-46.517,20.867-46.517,46.519c0,25.646,20.867,46.513,46.517,46.513
		s46.517-20.866,46.517-46.513c0-16.149-8.275-30.397-20.804-38.741l6.729-14.682c17.978,10.959,30.017,30.733,30.07,53.273h63.802
		c0.054-22.506,12.058-42.253,29.992-53.222l6.749,14.669c-12.496,8.349-20.745,22.578-20.745,38.703
		c0,25.646,20.867,46.513,46.517,46.513s46.517-20.866,46.517-46.513C295.119,213.891,274.251,193.024,248.602,193.024z
		 M89.689,239.543c0,16.492-13.42,29.91-29.914,29.91c-16.494,0-29.913-13.418-29.913-29.91c0-16.495,13.419-29.916,29.913-29.916
		c1.338,0,2.653,0.098,3.945,0.269l-7.419,16.188l-4.022,8.776c-1.841,4.017-0.077,8.765,3.939,10.605
		c1.08,0.495,2.213,0.729,3.328,0.729c3.031,0,5.932-1.732,7.277-4.669l4.478-9.77l7.135-15.569
		C85.289,221.675,89.689,230.102,89.689,239.543z M248.602,269.453c-16.494,0-29.913-13.418-29.913-29.91
		c0-9.425,4.385-17.84,11.217-23.328l7.159,15.559l4.492,9.764c1.349,2.931,4.245,4.658,7.273,4.658
		c1.119,0,2.256-0.236,3.339-0.734c4.014-1.847,5.77-6.598,3.924-10.611l-4.036-8.77l-7.443-16.179
		c1.306-0.175,2.636-0.273,3.989-0.273c16.494,0,29.914,13.421,29.914,29.916C278.516,256.035,265.096,269.453,248.602,269.453z"/>
</g>
<g>
</g>
<g>
</g>
<g>
</g>
<g>
</g>
<g>
</g>
<g>
</g>
<g>
</g>
<g>
</g>
<g>
</g>
<g>
</g>
<g>
</g>
<g>
</g>
<g>
</g>
<g>
</g>
<g>
</g>
</svg>
