<?xml version="1.0" encoding="iso-8859-1"?>
<!-- Generator: Adobe Illustrator 17.1.0, SVG Export Plug-In . SVG Version: 6.00 Build 0)  -->
<!DOCTYPE svg PUBLIC "-//W3C//DTD SVG 1.1//EN" "http://www.w3.org/Graphics/SVG/1.1/DTD/svg11.dtd">
<svg version="1.1" id="Capa_1" xmlns="http://www.w3.org/2000/svg" xmlns:xlink="http://www.w3.org/1999/xlink" x="0px" y="0px"
	 viewBox="0 0 296.609 296.609" style="enable-background:new 0 0 296.609 296.609;" xml:space="preserve">
<g>
	<path d="M157.304,96.988v52.316h50.938l-41.147-50.08C163.847,98.632,160.304,97.853,157.304,96.988z"/>
	<path d="M141.008,91.559c-0.816-0.33-1.666-0.61-2.492-0.932l-48.244,58.678h51.031V91.658
		C140.304,91.624,141.092,91.593,141.008,91.559z"/>
	<path d="M32.973,164.305l37.642,39.25c5.765-1.618,12.285-3.427,19.47-5.386c6.334-1.728,13.276-2.604,20.633-2.603
		c14.296,0,30.487,3.369,45.591,9.484c2.268,0.917,4.598,1.801,6.85,2.656c6.163,2.339,12.028,4.582,17.033,7.598h34.537l48.909-51
		H32.973z"/>
	<path d="M134.844,0c-3.772,0-7.14,0.298-9.948,0.976c-22.873,5.521-62.572,37.861-73.352,48.901
		c-5.176,5.302-3.122,15.89,7.18,15.89c4.452,0,10.444-1.977,18.061-7.212c13.921-9.57,30.965-13.784,46.537-13.784
		c12.659,0,24.345,2.783,32.598,7.734c4.089,2.454,4.076,3.272,1.705,3.272c-4.763,0-19.045-3.304-28.725-3.305
		c-4.764,0-8.41,0.8-9.264,3.188c-3.943,11.042,11.346,14.598,27.332,21.067c11.704,4.739,25.987,8.315,39.59,8.315
		c5.671,0,11.142-0.621,16.341-2.039c23.613-6.438,40.405-11.287,45.405-12.861V8.172c-10,3.575-20.852,7.002-27.262,7.002
		C209.278,15.174,161.79,0,134.844,0z"/>
	<path d="M110.716,211.566c-5.671,0-11.475,0.621-16.674,2.039c-23.613,6.439-40.738,11.287-45.738,12.861v61.971
		c10-3.575,21.185-7.002,27.595-7.002c11.764,0,59.458,15.174,86.405,15.174c3.773,0,7.203-0.298,10.011-0.976
		c22.873-5.521,62.604-37.861,73.383-48.901c5.176-5.302,3.138-15.89-7.164-15.89c-4.451,0-10.436,1.977-18.052,7.212
		c-13.921,9.57-30.96,13.784-46.532,13.784c-12.659,0-24.344-2.783-32.596-7.734c-4.089-2.454-4.075-3.273-1.703-3.273
		c4.763,0,19.045,3.305,28.725,3.305c4.764,0,8.41-0.8,9.264-3.188c3.943-11.042-11.346-14.598-27.332-21.067
		C138.601,215.143,124.318,211.566,110.716,211.566z"/>
</g>
<g>
</g>
<g>
</g>
<g>
</g>
<g>
</g>
<g>
</g>
<g>
</g>
<g>
</g>
<g>
</g>
<g>
</g>
<g>
</g>
<g>
</g>
<g>
</g>
<g>
</g>
<g>
</g>
<g>
</g>
</svg>
