<?xml version="1.0" encoding="iso-8859-1"?>
<!-- Generator: Adobe Illustrator 19.0.0, SVG Export Plug-In . SVG Version: 6.00 Build 0)  -->
<svg xmlns="http://www.w3.org/2000/svg" xmlns:xlink="http://www.w3.org/1999/xlink" version="1.1" id="Capa_1" x="0px" y="0px" viewBox="0 0 512 512" style="enable-background:new 0 0 512 512;" xml:space="preserve">
<path style="fill:#A0D860;" d="M451.719,23.087v465.826c0,12.751-10.336,23.087-23.087,23.087H83.368  c-12.751,0-23.087-10.336-23.087-23.087V23.087C60.281,10.336,70.617,0,83.368,0h345.264C441.383,0,451.719,10.336,451.719,23.087z"/>
<path style="fill:#61C979;" d="M428.632,0h-35.618c12.75,0,23.087,10.336,23.087,23.087v465.826  c0,12.751-10.336,23.087-23.087,23.087h35.618c12.75,0,23.087-10.336,23.087-23.087V23.087C451.719,10.336,441.383,0,428.632,0z"/>
<path style="fill:#FFFCFD;" d="M392.011,147.609H119.989c-5.223,0-9.457-4.234-9.457-9.456V41.908c0-5.223,4.234-9.457,9.457-9.457  H392.01c5.223,0,9.457,4.234,9.457,9.457v96.245C401.467,143.375,397.233,147.609,392.011,147.609z"/>
<path style="fill:#29A363;" d="M200.285,221.329c-8.026,0-14.555-6.53-14.555-14.556v-21.576c0-8.026,6.529-14.556,14.555-14.556  h21.576c8.026,0,14.556,6.53,14.556,14.556v21.576c0,8.026-6.53,14.556-14.556,14.556H200.285z"/>
<path style="fill:#FFBF14;" d="M221.862,214.136h-21.576c-4.067,0-7.363-3.297-7.363-7.363v-21.576c0-4.067,3.297-7.363,7.363-7.363  h21.576c4.067,0,7.363,3.297,7.363,7.363v21.576C229.225,210.84,225.928,214.136,221.862,214.136z"/>
<path style="fill:#FFDE3E;" d="M142.289,214.136h-21.576c-4.067,0-7.363-3.297-7.363-7.363v-21.576c0-4.067,3.297-7.363,7.363-7.363  h21.576c4.067,0,7.363,3.297,7.363,7.363v21.576C149.653,210.84,146.356,214.136,142.289,214.136z"/>
<path style="fill:#29A363;" d="M290.139,221.329c-8.026,0-14.556-6.53-14.556-14.556v-21.576c0-8.026,6.53-14.556,14.556-14.556  h21.576c8.026,0,14.555,6.53,14.555,14.556v21.576c0,8.026-6.529,14.556-14.555,14.556H290.139z"/>
<path style="fill:#FFBF14;" d="M311.715,214.136h-21.576c-4.067,0-7.363-3.297-7.363-7.363v-21.576c0-4.067,3.297-7.363,7.363-7.363  h21.576c4.067,0,7.363,3.297,7.363,7.363v21.576C319.078,210.84,315.781,214.136,311.715,214.136z"/>
<path style="fill:#FFDE3E;" d="M391.287,214.136h-21.576c-4.067,0-7.363-3.297-7.363-7.363v-21.576c0-4.067,3.297-7.363,7.363-7.363  h21.576c4.067,0,7.363,3.297,7.363,7.363v21.576C398.65,210.84,395.354,214.136,391.287,214.136z"/>
<path style="fill:#E4E4E4;" d="M392.01,32.451h-35.85c5.223,0,9.456,4.234,9.456,9.457v81.844c0,5.229-4.239,9.469-9.469,9.469  H110.533v4.932c0,5.223,4.234,9.457,9.457,9.457h272.021c5.223,0,9.457-4.234,9.457-9.457V41.908  C401.467,36.685,397.233,32.451,392.01,32.451z"/>
<circle style="fill:#0072A2;" cx="256" cy="256" r="119.33"/>
<path style="fill:#61C979;" d="M256,125.674c-71.862,0-130.326,58.464-130.326,130.326S184.138,386.326,256,386.326  S386.326,327.862,386.326,256S327.862,125.674,256,125.674z M256,136.674c23.03,0,44.531,6.531,62.766,17.832H193.234  C211.469,143.205,232.97,136.674,256,136.674z M173.799,169.506h164.402c5.251,4.992,10.043,10.461,14.317,16.331H159.482  C163.756,179.967,168.548,174.498,173.799,169.506z M150.179,200.837h211.642c2.731,5.228,5.077,10.685,7.019,16.332H143.159  C145.102,211.522,147.448,206.064,150.179,200.837z M139.067,232.169h233.865c1.079,5.324,1.804,10.775,2.148,16.331H136.919  C137.263,242.944,137.989,237.493,139.067,232.169z M256,375.326c-23.029,0-44.531-6.531-62.765-17.831h125.531  C300.531,368.796,279.029,375.326,256,375.326z M338.2,342.495H173.8c-5.251-4.992-10.043-10.462-14.318-16.332h193.037  C348.244,332.033,343.452,337.503,338.2,342.495z M361.817,311.163H150.183c-2.733-5.229-5.098-10.681-7.042-16.331h225.718  C366.916,300.482,364.55,305.934,361.817,311.163z M139.057,279.832c-1.079-5.323-1.797-10.777-2.141-16.332h238.169  c-0.345,5.555-1.062,11.009-2.141,16.332H139.057z"/>
<g>
</g>
<g>
</g>
<g>
</g>
<g>
</g>
<g>
</g>
<g>
</g>
<g>
</g>
<g>
</g>
<g>
</g>
<g>
</g>
<g>
</g>
<g>
</g>
<g>
</g>
<g>
</g>
<g>
</g>
</svg>
