<?xml version="1.0" encoding="iso-8859-1"?>
<!-- Generator: Adobe Illustrator 19.0.0, SVG Export Plug-In . SVG Version: 6.00 Build 0)  -->
<svg xmlns="http://www.w3.org/2000/svg" xmlns:xlink="http://www.w3.org/1999/xlink" version="1.1" id="Capa_1" x="0px" y="0px" viewBox="0 0 512 512" style="enable-background:new 0 0 512 512;" xml:space="preserve">
<path style="fill:#FFB427;" d="M498,292.575H14c-7.732,0-14-6.268-14-14V101.583c0-7.732,6.268-14,14-14h484c7.732,0,14,6.268,14,14  v176.992C512,286.307,505.732,292.575,498,292.575z"/>
<path style="fill:#FF9D00;" d="M498,87.583h-34.682c7.732,0,14,6.268,14,14v110.048c-3.863-1.906-8.205-2.982-12.796-2.982H47.478  c-16.001,0-29.019,13.019-29.019,29.02v54.907H498c7.732,0,14-6.268,14-14V101.583C512,93.851,505.732,87.583,498,87.583z"/>
<path style="fill:#0072A2;" d="M464.522,222.649H47.478c-8.295,0-15.019,6.724-15.019,15.019v54.907h447.083v-54.907  C479.542,229.374,472.817,222.649,464.522,222.649z"/>
<g>
	<rect x="32.459" y="238.58" style="fill:#006289;" width="447.08" height="15"/>
	<rect x="32.459" y="265.25" style="fill:#006289;" width="447.08" height="15"/>
</g>
<g>
	<path style="fill:#A0D860;" d="M53.042,424.417c-4.142,0-7.5-3.357-7.5-7.5c0-11.178,5.875-17.125,10.165-21.468   c3.941-3.988,5.835-6.119,5.835-10.924s-1.895-6.936-5.835-10.926c-4.29-4.342-10.165-10.288-10.165-21.466   c0-11.177,5.875-17.123,10.165-21.465c3.941-3.988,5.835-6.119,5.835-10.923c0-4.143,3.358-7.5,7.5-7.5s7.5,3.357,7.5,7.5   c0,11.178-5.875,17.124-10.165,21.466c-3.941,3.988-5.835,6.118-5.835,10.922c0,4.805,1.895,6.936,5.835,10.924   c4.29,4.343,10.165,10.29,10.165,21.468s-5.875,17.124-10.165,21.466c-3.941,3.99-5.835,6.121-5.835,10.926   C60.542,421.059,57.184,424.417,53.042,424.417z"/>
	<path style="fill:#A0D860;" d="M145.771,424.417c-4.142,0-7.5-3.357-7.5-7.5c0-11.178,5.875-17.125,10.165-21.468   c3.941-3.988,5.835-6.119,5.835-10.924s-1.895-6.936-5.835-10.926c-4.29-4.342-10.165-10.288-10.165-21.466   c0-11.177,5.875-17.123,10.165-21.465c3.941-3.988,5.835-6.119,5.835-10.923c0-4.143,3.358-7.5,7.5-7.5s7.5,3.357,7.5,7.5   c0,11.178-5.875,17.124-10.165,21.466c-3.941,3.988-5.835,6.118-5.835,10.922c0,4.805,1.895,6.936,5.835,10.924   c4.29,4.343,10.165,10.29,10.165,21.468s-5.875,17.124-10.165,21.466c-3.941,3.99-5.835,6.121-5.835,10.926   C153.271,421.059,149.913,424.417,145.771,424.417z"/>
	<path style="fill:#A0D860;" d="M423.958,424.417c-4.142,0-7.5-3.357-7.5-7.5c0-11.177,5.875-17.123,10.165-21.465   c3.941-3.988,5.835-6.118,5.835-10.922c0-4.805-1.895-6.936-5.835-10.926c-4.29-4.342-10.165-10.289-10.165-21.467   s5.875-17.124,10.165-21.466c3.941-3.99,5.835-6.121,5.835-10.926c0-4.143,3.358-7.5,7.5-7.5s7.5,3.357,7.5,7.5   c0,11.178-5.875,17.125-10.165,21.468c-3.941,3.988-5.835,6.119-5.835,10.924s1.895,6.936,5.835,10.926   c4.29,4.342,10.165,10.289,10.165,21.467c0,11.177-5.875,17.123-10.165,21.465c-3.941,3.988-5.835,6.118-5.835,10.922   C431.458,421.059,428.101,424.417,423.958,424.417z"/>
	<path style="fill:#A0D860;" d="M331.229,424.417c-4.142,0-7.5-3.357-7.5-7.5c0-11.177,5.875-17.123,10.165-21.465   c3.941-3.988,5.835-6.118,5.835-10.922c0-4.805-1.895-6.936-5.835-10.926c-4.29-4.342-10.165-10.289-10.165-21.467   s5.875-17.124,10.165-21.466c3.941-3.99,5.835-6.121,5.835-10.926c0-4.143,3.358-7.5,7.5-7.5s7.5,3.357,7.5,7.5   c0,11.178-5.875,17.125-10.165,21.468c-3.941,3.988-5.835,6.119-5.835,10.924s1.895,6.936,5.835,10.926   c4.29,4.342,10.165,10.289,10.165,21.467c0,11.177-5.875,17.123-10.165,21.465c-3.941,3.988-5.835,6.118-5.835,10.922   C338.729,421.059,335.371,424.417,331.229,424.417z"/>
	<path style="fill:#A0D860;" d="M238.5,424.417c-4.142,0-7.5-3.357-7.5-7.5c0-11.178,5.875-17.125,10.165-21.468   c3.941-3.988,5.835-6.119,5.835-10.924s-1.895-6.936-5.835-10.926c-4.29-4.342-10.165-10.288-10.165-21.466   c0-11.177,5.875-17.123,10.165-21.465c3.941-3.988,5.835-6.119,5.835-10.923c0-4.143,3.358-7.5,7.5-7.5s7.5,3.357,7.5,7.5   c0,11.178-5.875,17.124-10.165,21.466C247.894,345.2,246,347.33,246,352.133c0,4.805,1.895,6.936,5.835,10.924   c4.29,4.343,10.165,10.29,10.165,21.468s-5.875,17.124-10.165,21.466c-3.941,3.99-5.835,6.121-5.835,10.926   C246,421.059,242.642,424.417,238.5,424.417z"/>
</g>
<path style="fill:#FF4D4A;" d="M358.083,184.492H150.917c-6.075,0-11-4.925-11-11l0,0c0-6.075,4.925-11,11-11h207.167  c6.075,0,11,4.925,11,11l0,0C369.083,179.567,364.158,184.492,358.083,184.492z"/>
<g>
</g>
<g>
</g>
<g>
</g>
<g>
</g>
<g>
</g>
<g>
</g>
<g>
</g>
<g>
</g>
<g>
</g>
<g>
</g>
<g>
</g>
<g>
</g>
<g>
</g>
<g>
</g>
<g>
</g>
</svg>
