<?xml version="1.0" encoding="iso-8859-1"?>
<!-- Generator: Adobe Illustrator 19.0.0, SVG Export Plug-In . SVG Version: 6.00 Build 0)  -->
<svg xmlns="http://www.w3.org/2000/svg" xmlns:xlink="http://www.w3.org/1999/xlink" version="1.1" id="Capa_1" x="0px" y="0px" viewBox="0 0 512 512" style="enable-background:new 0 0 512 512;" xml:space="preserve">
<polygon style="fill:#FFB427;" points="293.911,455.348 218.089,455.348 227.242,374.56 284.758,374.56 "/>
<polygon style="fill:#FF9D00;" points="284.758,374.56 248.653,374.56 257.805,455.348 293.911,455.348 "/>
<path style="fill:#A0D860;" d="M506.28,384.188H5.72c-3.677,0-6.202-3.613-5.642-8.053L42.793,37.814  c0.387-3.069,3.166-5.549,6.208-5.549H463c3.041,0,5.82,2.48,6.208,5.549l42.715,338.321  C512.483,380.575,509.958,384.188,506.28,384.188z"/>
<path style="fill:#61C979;" d="M511.922,376.135L469.207,37.814c-0.388-3.069-3.166-5.549-6.208-5.549h-35.59  c3.041,0,5.82,2.48,6.208,5.549l42.715,338.321c0.561,4.44-1.964,8.053-5.642,8.053h35.59  C509.958,384.188,512.483,380.575,511.922,376.135z"/>
<g>
	<path style="fill:#FFFCFD;" d="M168.746,233.037H63.436c-1.955,0-3.346-1.777-3.106-3.964l7-63.882   c0.222-2.029,1.924-3.67,3.801-3.67h101.102c1.877,0,3.322,1.641,3.227,3.67l-2.988,63.882   C172.37,231.26,170.702,233.037,168.746,233.037z"/>
	<path style="fill:#FFFCFD;" d="M308.655,233.037h-105.31c-1.955,0-3.485-1.777-3.416-3.964l2.006-63.882   c0.064-2.029,1.637-3.67,3.514-3.67h101.102c1.877,0,3.451,1.641,3.514,3.67l2.006,63.882   C312.14,231.26,310.611,233.037,308.655,233.037z"/>
	<path style="fill:#FFFCFD;" d="M448.564,233.037h-105.31c-1.955,0-3.624-1.777-3.726-3.964l-2.988-63.882   c-0.095-2.029,1.35-3.67,3.227-3.67h101.102c1.877,0,3.579,1.641,3.801,3.67l7,63.882   C451.91,231.26,450.519,233.037,448.564,233.037z"/>
	<path style="fill:#FFFCFD;" d="M163.303,344.698H51.421c-2.077,0-3.542-2.006-3.271-4.474l7.881-71.922   c0.25-2.279,2.064-4.122,4.054-4.122h107.143c1.989,0,3.516,1.843,3.409,4.122l-3.364,71.922   C167.158,342.692,165.38,344.698,163.303,344.698z"/>
	<path style="fill:#FFFCFD;" d="M311.941,344.698H200.059c-2.077,0-3.698-2.006-3.621-4.474l2.258-71.922   c0.072-2.279,1.742-4.122,3.732-4.122h107.143c1.989,0,3.66,1.843,3.732,4.122l2.258,71.922   C315.639,342.692,314.018,344.698,311.941,344.698z"/>
	<path style="fill:#FFFCFD;" d="M460.579,344.698H348.697c-2.077,0-3.855-2.006-3.971-4.474l-3.364-71.922   c-0.107-2.279,1.42-4.122,3.409-4.122h107.143c1.989,0,3.804,1.843,4.054,4.122l7.881,71.922   C464.12,342.692,462.656,344.698,460.579,344.698z"/>
	<path style="fill:#FFFCFD;" d="M173.586,133.764H74.117c-1.847,0-3.17-1.586-2.956-3.537l6.259-57.119   c0.199-1.818,1.801-3.288,3.578-3.288h95.706c1.777,0,3.149,1.471,3.064,3.288l-2.672,57.119   C177.005,132.178,175.433,133.764,173.586,133.764z"/>
</g>
<g>
	<path style="fill:#E6E6E6;" d="M172.233,161.52H136.3c1.877,0,3.322,1.641,3.227,3.67l-2.988,63.882   c-0.102,2.187-1.771,3.964-3.726,3.964h35.934c1.955,0,3.624-1.777,3.726-3.964l2.988-63.882   C175.555,163.161,174.11,161.52,172.233,161.52z"/>
	<path style="fill:#E6E6E6;" d="M167.228,264.179h-35.934c1.989,0,3.516,1.843,3.409,4.122l-3.364,71.922   c-0.115,2.468-1.893,4.474-3.971,4.474h35.934c2.077,0,3.855-2.006,3.971-4.474l3.364-71.922   C170.744,266.023,169.218,264.179,167.228,264.179z"/>
	<path style="fill:#E6E6E6;" d="M176.704,69.819H140.77c1.777,0,3.149,1.47,3.064,3.288l-2.672,57.119   c-0.091,1.952-1.663,3.538-3.51,3.538h35.934c1.847,0,3.418-1.586,3.51-3.538l2.672-57.119   C179.853,71.29,178.481,69.819,176.704,69.819z"/>
</g>
<path style="fill:#FFFCFD;" d="M305.734,133.764h-99.469c-1.847,0-3.294-1.586-3.233-3.537l1.794-57.119  c0.057-1.818,1.544-3.288,3.321-3.288h95.706c1.777,0,3.264,1.471,3.321,3.288l1.794,57.119  C309.029,132.178,307.581,133.764,305.734,133.764z"/>
<g>
	<path style="fill:#E6E6E6;" d="M310.065,165.19c-0.064-2.029-1.637-3.67-3.514-3.67h-35.418c1.877,0,3.451,1.641,3.514,3.67   l2.006,63.882c0.069,2.187-1.461,3.964-3.416,3.964h35.418c1.955,0,3.485-1.777,3.416-3.964L310.065,165.19z"/>
	<path style="fill:#E6E6E6;" d="M313.303,268.302c-0.072-2.279-1.742-4.122-3.732-4.122h-35.418c1.989,0,3.66,1.843,3.732,4.122   l2.258,71.922c0.078,2.468-1.544,4.474-3.621,4.474h35.418c2.077,0,3.698-2.006,3.621-4.474L313.303,268.302z"/>
	<path style="fill:#E6E6E6;" d="M307.174,73.108c-0.057-1.818-1.544-3.288-3.321-3.288h-35.418c1.777,0,3.264,1.47,3.321,3.288   l1.794,57.119c0.061,1.952-1.386,3.538-3.233,3.538h35.418c1.847,0,3.294-1.586,3.233-3.538L307.174,73.108z"/>
</g>
<path style="fill:#FFFCFD;" d="M437.883,133.764h-99.469c-1.847,0-3.418-1.586-3.51-3.537l-2.672-57.119  c-0.085-1.818,1.287-3.288,3.064-3.288h95.706c1.777,0,3.379,1.471,3.578,3.288l6.259,57.119  C441.053,132.178,439.729,133.764,437.883,133.764z"/>
<g>
	<path style="fill:#E6E6E6;" d="M451.67,229.072l-7-63.882c-0.222-2.029-1.924-3.67-3.801-3.67h-36.472   c1.877,0,3.579,1.641,3.801,3.67l7,63.882c0.24,2.187-1.151,3.964-3.106,3.964h36.472   C450.519,233.037,451.91,231.26,451.67,229.072z"/>
	<path style="fill:#E6E6E6;" d="M463.85,340.224l-7.881-71.922c-0.25-2.279-2.064-4.122-4.054-4.122h-36.472   c1.989,0,3.804,1.843,4.054,4.122l7.881,71.922c0.271,2.468-1.194,4.474-3.271,4.474h36.472   C462.656,344.698,464.12,342.692,463.85,340.224z"/>
	<path style="fill:#E6E6E6;" d="M440.839,130.226l-6.259-57.119c-0.199-1.818-1.801-3.288-3.578-3.288H394.53   c1.777,0,3.379,1.47,3.578,3.288l6.259,57.119c0.214,1.952-1.11,3.538-2.957,3.538h36.472   C439.729,133.764,441.053,132.178,440.839,130.226z"/>
</g>
<path style="fill:#FF4D4A;" d="M386.577,479.735H125.423c-1.808,0-3.274-1.466-3.274-3.274v-10.542  c0-11.539,9.354-20.893,20.893-20.893h225.917c11.539,0,20.893,9.354,20.893,20.893v10.542  C389.851,478.269,388.385,479.735,386.577,479.735z"/>
<path style="fill:#E13F33;" d="M354.067,479.735h32.51c1.76,0,3.184-1.392,3.26-3.133l-0.028-11.512  c-0.439-11.152-9.592-20.064-20.851-20.064h-14.974L354.067,479.735z"/>
<g>
</g>
<g>
</g>
<g>
</g>
<g>
</g>
<g>
</g>
<g>
</g>
<g>
</g>
<g>
</g>
<g>
</g>
<g>
</g>
<g>
</g>
<g>
</g>
<g>
</g>
<g>
</g>
<g>
</g>
</svg>
