<?xml version="1.0" encoding="iso-8859-1"?>
<!-- Generator: Adobe Illustrator 16.0.0, SVG Export Plug-In . SVG Version: 6.00 Build 0)  -->
<!DOCTYPE svg PUBLIC "-//W3C//DTD SVG 1.1//EN" "http://www.w3.org/Graphics/SVG/1.1/DTD/svg11.dtd">
<svg version="1.1" id="Capa_1" xmlns="http://www.w3.org/2000/svg" xmlns:xlink="http://www.w3.org/1999/xlink" x="0px" y="0px"
	 width="60.341px" height="60.341px" viewBox="0 0 60.341 60.341" style="enable-background:new 0 0 60.341 60.341;"
	 xml:space="preserve">
<g>
	<path d="M58.928,15.767v-3.504h-5.691V0H7.101v12.263h-5.69v3.504H0.243v7.397h4.672v-7.397H3.747v-1.168h3.354v25.888H5.374
		v15.475h1.727v0.101h1.853v4.279h9.343v-4.279h23.745v4.279h9.344v-4.279h1.852v-0.101h1.729V40.486h-1.729V14.599h3.358v1.168
		h-1.168v7.397h4.671v-7.397H58.928z M23.09,3.359h14.159v2.335H23.09V3.359z M16.391,51.089c-1.58,0-2.862-1.282-2.862-2.862
		c0-1.581,1.282-2.865,2.862-2.865c1.581,0,2.864,1.282,2.864,2.865C19.254,49.807,17.971,51.089,16.391,51.089z M37.249,51.926
		H23.09V49.59h14.159V51.926z M37.249,46.862H23.09v-2.336h14.159V46.862z M36.995,40.491c0-2.254,1.834-4.088,4.088-4.088
		c2.258,0,4.088,1.834,4.088,4.088H36.995z M43.941,51.089c-1.579,0-2.863-1.282-2.863-2.862c0-1.581,1.284-2.865,2.863-2.865
		c1.585,0,2.867,1.282,2.867,2.865C46.809,49.807,45.526,51.089,43.941,51.089z M48.564,40.491h-1.058
		c0-3.547-2.879-6.424-6.424-6.424c-3.543,0-6.424,2.877-6.424,6.424H11.772V8.03h36.792V40.491z"/>
</g>
<g>
</g>
<g>
</g>
<g>
</g>
<g>
</g>
<g>
</g>
<g>
</g>
<g>
</g>
<g>
</g>
<g>
</g>
<g>
</g>
<g>
</g>
<g>
</g>
<g>
</g>
<g>
</g>
<g>
</g>
</svg>
