<?xml version="1.0" encoding="iso-8859-1"?>
<!-- Generator: Adobe Illustrator 18.1.1, SVG Export Plug-In . SVG Version: 6.00 Build 0)  -->
<svg version="1.1" id="Capa_1" xmlns="http://www.w3.org/2000/svg" xmlns:xlink="http://www.w3.org/1999/xlink" x="0px" y="0px"
	 viewBox="0 0 179.006 179.006" style="enable-background:new 0 0 179.006 179.006;" xml:space="preserve">
<g>
	<path style="fill:#010002;" d="M121.312,50.674c0-3.526,6.367-14.684,6.367-14.684s6.361,11.158,6.361,14.684
		s-2.858,6.367-6.361,6.367C124.165,57.052,121.312,54.2,121.312,50.674z M108.502,46.527c3.52,0,6.373-2.858,6.373-6.367
		c0-3.532-6.373-14.696-6.373-14.696s-6.361,11.164-6.361,14.696C102.135,43.663,104.981,46.527,108.502,46.527z M89.503,57.052
		c3.52,0,6.361-2.858,6.361-6.373c0-3.514-6.361-14.684-6.361-14.684s-6.367,11.152-6.367,14.684
		C83.136,54.206,85.983,57.052,89.503,57.052z M70.326,46.527c3.52,0,6.373-2.858,6.373-6.367c0-3.532-6.373-14.696-6.373-14.696
		s-6.367,11.164-6.367,14.696C63.959,43.663,66.805,46.527,70.326,46.527z M51.327,57.052c3.52,0,6.367-2.858,6.367-6.373
		c0-3.514-6.367-14.684-6.367-14.684S44.96,47.147,44.96,50.68C44.96,54.206,47.807,57.052,51.327,57.052z M32.149,46.527
		c3.52,0,6.373-2.858,6.373-6.367c0-3.532-6.373-14.696-6.373-14.696s-6.367,11.164-6.367,14.696
		C25.783,43.663,28.629,46.527,32.149,46.527z M146.851,46.527c3.52,0,6.373-2.858,6.373-6.367c0-3.532-6.373-14.696-6.373-14.696
		s-6.373,11.164-6.373,14.696C140.478,43.663,143.33,46.527,146.851,46.527z M169.459,13.786H9.535v5.967h159.924V13.786z
		 M179.006,143.005h-6.564v8.455h-23.647c-1.408,7.817-8.228,13.76-16.433,13.76c-8.216,0-15.037-5.943-16.451-13.76H65.039
		c-1.414,7.817-8.228,13.76-16.433,13.76c-8.21,0-15.025-5.943-16.439-13.76H5.024v-8.455H0v-11.934h5.018v-23.456h38.474
		l18.945-32.704h77.498l18.945,32.704h13.563v23.456h6.564V143.005z M59.37,148.477c0-5.937-4.833-10.77-10.77-10.77
		c-5.943,0-10.776,4.833-10.776,10.77c0,5.943,4.833,10.776,10.776,10.776S59.37,154.42,59.37,148.477z M143.139,148.477
		c0-5.937-4.833-10.77-10.776-10.77c-5.943,0-10.788,4.833-10.788,10.77c0,5.943,4.845,10.776,10.788,10.776
		S143.139,154.42,143.139,148.477z M166.476,113.582h-11.039l-18.945-32.704H65.88l-18.945,32.704H10.991v31.911h21.176
		c1.414-7.811,8.228-13.754,16.439-13.754c8.204,0,15.025,5.943,16.433,13.754h50.88c1.414-7.811,8.234-13.754,16.451-13.754
		c8.204,0,15.031,5.943,16.433,13.754h17.674V113.582z M97.982,113.177h31.404V87.698H97.982V113.177z M135.352,113.177h11.981
		l-11.981-20.681V113.177z M55.056,113.177h36.959V87.698H69.812L55.056,113.177z"/>
</g>
<g>
</g>
<g>
</g>
<g>
</g>
<g>
</g>
<g>
</g>
<g>
</g>
<g>
</g>
<g>
</g>
<g>
</g>
<g>
</g>
<g>
</g>
<g>
</g>
<g>
</g>
<g>
</g>
<g>
</g>
</svg>
