<?xml version="1.0" encoding="iso-8859-1"?>
<!-- Generator: Adobe Illustrator 16.0.0, SVG Export Plug-In . SVG Version: 6.00 Build 0)  -->
<!DOCTYPE svg PUBLIC "-//W3C//DTD SVG 1.1//EN" "http://www.w3.org/Graphics/SVG/1.1/DTD/svg11.dtd">
<svg version="1.1" id="Capa_1" xmlns="http://www.w3.org/2000/svg" xmlns:xlink="http://www.w3.org/1999/xlink" x="0px" y="0px"
	 width="77.08px" height="77.08px" viewBox="0 0 77.08 77.08" style="enable-background:new 0 0 77.08 77.08;" xml:space="preserve"
	>
<g>
	<g>
		<path d="M70.444,40.74c-1.209-8.923-6.127-15.427-12.186-15.427H29.945c-6.063,0-10.982,6.503-12.188,15.427
			c-4.373,2.208-6.639,6.798-6.639,12.12c0,4.083,1.341,7.734,3.944,10.219v8.436h10.492v-5.128h37.089v5.128h10.493v-8.436
			c2.598-2.479,3.944-6.136,3.944-10.219C77.082,47.542,74.81,42.953,70.444,40.74z M29.945,28.464h28.314
			c3.987,0,7.481,4.726,8.782,11.133c-0.652-0.124-1.342-0.189-2.054-0.229c0-0.014,0.005-0.024,0.005-0.04
			c0-3.713-3.02-6.736-6.733-6.736s-6.729,3.022-6.729,6.736h-27.44c-1.037,0-2.008,0.091-2.924,0.265
			C22.462,33.19,25.953,28.464,29.945,28.464z M62.894,39.328h-9.271c0-2.557,2.081-4.636,4.636-4.636
			C60.812,34.692,62.894,36.773,62.894,39.328z M22.518,57.249c-2.425,0-4.395-1.962-4.395-4.394s1.97-4.398,4.395-4.398
			c2.429,0,4.398,1.967,4.398,4.398C26.911,55.287,24.945,57.249,22.518,57.249z M56.867,56.468H31.335
			c-0.582,0-1.049-0.468-1.049-1.047c0-0.58,0.47-1.05,1.049-1.05h25.532c0.579,0,1.049,0.47,1.049,1.05
			C57.916,56,57.446,56.468,56.867,56.468z M56.867,52.616H31.335c-0.582,0-1.049-0.468-1.049-1.048c0-0.579,0.47-1.049,1.049-1.049
			h25.532c0.579,0,1.049,0.47,1.049,1.049C57.916,52.148,57.446,52.616,56.867,52.616z M65.686,57.249
			c-2.427,0-4.397-1.962-4.397-4.394s1.971-4.398,4.397-4.398c2.428,0,4.394,1.967,4.394,4.398S68.113,57.249,65.686,57.249z"/>
		<path d="M29.358,21.016c-0.987-6.869-6.664-12.209-13.676-12.669l-0.005-1.736c-0.002-0.577-0.472-1.045-1.048-1.045
			c0,0-0.002,0-0.005,0c-0.579,0.002-1.047,0.475-1.044,1.054l0.004,1.731C6.578,8.871,0.941,14.24,0,21.121l13.632-0.049
			l0.051,14.32c0.002,0.94-0.359,1.825-1.021,2.487c-0.663,0.668-1.544,1.036-2.515,1.038L9.95,38.927c-0.002,0-0.007,0-0.011,0
			c-1.935,0-3.513-1.572-3.52-3.508c-0.002-0.58-0.472-1.047-1.049-1.047H5.368c-0.58,0.002-1.048,0.474-1.046,1.054
			c0.011,3.091,2.529,5.603,5.65,5.603c0.007,0,0.014,0,0.019,0l0.196-0.01c1.5-0.004,2.909-0.594,3.965-1.662
			c1.055-1.063,1.634-2.478,1.63-3.978l-0.052-14.312L29.358,21.016z"/>
	</g>
</g>
<g>
</g>
<g>
</g>
<g>
</g>
<g>
</g>
<g>
</g>
<g>
</g>
<g>
</g>
<g>
</g>
<g>
</g>
<g>
</g>
<g>
</g>
<g>
</g>
<g>
</g>
<g>
</g>
<g>
</g>
</svg>
