<?xml version="1.0" encoding="iso-8859-1"?>
<!-- Generator: Adobe Illustrator 18.1.1, SVG Export Plug-In . SVG Version: 6.00 Build 0)  -->
<svg version="1.1" id="Capa_1" xmlns="http://www.w3.org/2000/svg" xmlns:xlink="http://www.w3.org/1999/xlink" x="0px" y="0px"
	 viewBox="0 0 169.435 169.435" style="enable-background:new 0 0 169.435 169.435;" xml:space="preserve">
<g>
	<path style="fill:#010002;" d="M58.684,87.934c6.319-6.307,16.54-6.307,22.859,0.012c6.319,6.319,6.331,16.546,0.006,22.865
		c-6.325,6.331-16.546,6.319-22.871,0C52.359,104.492,52.359,94.265,58.684,87.934z M76.101,69.419c0-3.312-2.685-5.991-5.991-5.991
		s-5.991,2.679-5.991,5.991s2.685,5.991,5.991,5.991S76.101,72.73,76.101,69.419z M64.12,129.344c0,3.312,2.685,5.997,5.991,5.991
		c3.306,0,5.991-2.679,5.991-5.991c0-3.312-2.685-5.991-5.991-5.991S64.12,126.032,64.12,129.344z M106.061,99.378
		c0-3.306-2.679-5.991-5.991-5.991c-3.318,0-5.997,2.685-5.991,5.991c0,3.312,2.679,6.003,5.991,5.991
		C103.382,105.381,106.061,102.69,106.061,99.378z M40.157,93.387c-3.318,0-5.991,2.685-5.991,5.991
		c0,3.312,2.673,5.991,5.991,5.991c3.306,0,5.991-2.679,5.991-5.991C46.142,96.073,43.463,93.387,40.157,93.387z M87.057,73.953
		c-2.339,2.345-2.339,6.14,0,8.479c2.351,2.339,6.134,2.345,8.479,0c2.345-2.339,2.345-6.128,0-8.467
		C93.197,71.626,89.402,71.62,87.057,73.953z M53.165,124.809c2.339-2.345,2.339-6.14,0-8.473c-2.339-2.345-6.134-2.345-8.473,0
		c-2.351,2.345-2.345,6.128,0,8.473C47.031,127.142,50.826,127.142,53.165,124.809z M87.057,116.336
		c-2.339,2.333-2.345,6.128,0,8.473c2.345,2.339,6.128,2.339,8.473,0c2.345-2.345,2.351-6.14,0-8.473
		C93.191,113.991,89.402,113.991,87.057,116.336z M44.692,73.959c-2.351,2.339-2.351,6.134,0,8.473c2.339,2.345,6.134,2.339,8.473,0
		c2.339-2.339,2.339-6.134,0-8.473C50.826,71.62,47.031,71.62,44.692,73.959z M68.124,0.054v23.867
		c42.705,0,77.444,34.745,77.444,77.444h23.867C169.435,45.509,123.986,0.054,68.124,0.054z M27.889,118.156
		c-2.566-5.746-4.022-12.083-4.022-18.772c0-16.648,8.867-31.219,22.101-39.369c0.286-8.539,3.497-16.642,9.225-23.122
		c2.596-2.93,5.585-5.37,8.849-7.309C28.217,32.675,0,62.771,0,99.384c0,0.37,0.048,0.716,0.054,1.08
		c1.891,4.046,4.571,7.691,8.085,10.639C13.736,115.781,20.687,118.144,27.889,118.156z M80.935,30.192l0.012,0.245
		c-8.246,0.507-15.806,4.207-21.278,10.4c-4.01,4.535-6.51,10.03-7.381,15.878c5.495-2.303,11.516-3.58,17.823-3.58
		c18.456,0,34.375,10.896,41.786,26.564c8.24,0.245,16.111,3.192,22.531,8.562c2.076,1.736,3.902,3.682,5.519,5.758
		C137.477,61.489,112.726,35.157,80.935,30.192z M130.597,92.844c-4.696-3.932-10.323-6.325-16.278-6.999
		c1.313,4.284,2.029,8.825,2.029,13.539c0,12.351-4.809,23.969-13.545,32.692c-3.347,3.347-7.101,6.092-11.164,8.24
		c0.221,7.363-1.76,14.637-5.842,20.974c-1.82,2.828-3.992,5.334-6.426,7.524c15.21-2.005,29.273-8.825,40.306-19.858
		c11.564-11.564,18.587-26.475,20.186-42.538C138.049,101.198,134.959,96.49,130.597,92.844z M85.541,142.942
		c-4.899,1.736-10.078,2.679-15.43,2.679c-16.391,0-30.783-8.598-38.999-21.505c-1.062,0.095-2.124,0.149-3.186,0.149
		c-8.622,0-16.91-2.995-23.611-8.598c-1.056-0.883-2.041-1.832-2.983-2.81c6.158,31.463,33.432,55.414,66.411,56.524
		c5.299-2.44,9.821-6.295,13.056-11.313C83.751,153.462,85.273,148.265,85.541,142.942z"/>
</g>
<g>
</g>
<g>
</g>
<g>
</g>
<g>
</g>
<g>
</g>
<g>
</g>
<g>
</g>
<g>
</g>
<g>
</g>
<g>
</g>
<g>
</g>
<g>
</g>
<g>
</g>
<g>
</g>
<g>
</g>
</svg>
