<?xml version="1.0" encoding="iso-8859-1"?>
<!-- Generator: Adobe Illustrator 16.0.0, SVG Export Plug-In . SVG Version: 6.00 Build 0)  -->
<!DOCTYPE svg PUBLIC "-//W3C//DTD SVG 1.1//EN" "http://www.w3.org/Graphics/SVG/1.1/DTD/svg11.dtd">
<svg version="1.1" id="Capa_1" xmlns="http://www.w3.org/2000/svg" xmlns:xlink="http://www.w3.org/1999/xlink" x="0px" y="0px"
	 width="63.067px" height="63.067px" viewBox="0 0 63.067 63.067" style="enable-background:new 0 0 63.067 63.067;"
	 xml:space="preserve">
<g>
	<path d="M31.534,0C14.149,0,0,14.146,0,31.533C0,48.92,14.149,63.067,31.534,63.067c17.387,0,31.533-14.147,31.533-31.534
		C63.067,14.146,48.921,0,31.534,0z M31.534,34.736c-1.768,0-3.205-1.438-3.205-3.203c0-1.765,1.438-3.202,3.205-3.202
		c1.768,0,3.205,1.437,3.205,3.202C34.739,33.299,33.302,34.736,31.534,34.736z M35.175,24.591
		c-0.417-0.219-0.848-0.396-1.305-0.539V6.93c5.066,0.477,9.689,2.481,13.403,5.558L35.175,24.591z M29.198,24.052
		c-0.45,0.143-0.887,0.32-1.306,0.539L15.788,12.488c3.715-3.074,8.339-5.081,13.406-5.558L29.198,24.052L29.198,24.052z
		 M24.589,27.894c-0.219,0.417-0.397,0.849-0.537,1.304H6.933c0.477-5.064,2.48-9.691,5.56-13.406L24.589,27.894z M24.052,33.869
		c0.143,0.456,0.32,0.888,0.537,1.305L12.486,47.277c-3.075-3.718-5.081-8.342-5.558-13.406h17.124V33.869z M27.893,38.477
		c0.418,0.22,0.849,0.397,1.306,0.539v17.121c-5.066-0.477-9.688-2.481-13.402-5.557L27.893,38.477z M33.87,39.016
		c0.45-0.142,0.888-0.319,1.305-0.539L47.28,50.583c-3.716,3.072-8.34,5.079-13.405,5.557L33.87,39.016L33.87,39.016z
		 M38.478,35.174c0.219-0.417,0.397-0.849,0.538-1.305h17.12c-0.477,5.064-2.479,9.69-5.56,13.406L38.478,35.174z M39.016,29.198
		c-0.141-0.455-0.319-0.887-0.538-1.304l12.104-12.102c3.075,3.714,5.082,8.342,5.559,13.406H39.016z M48.102,11.663
		c-3.931-3.282-8.844-5.415-14.231-5.899V4.79c5.652,0.491,10.808,2.729,14.918,6.187L48.102,11.663z M29.198,5.764
		C23.81,6.25,18.897,8.381,14.967,11.663l-0.688-0.687c4.111-3.456,9.267-5.696,14.919-6.187V5.764z M11.664,14.966
		c-3.283,3.931-5.416,8.845-5.899,14.232H4.791c0.494-5.653,2.729-10.808,6.186-14.919L11.664,14.966z M5.765,33.869
		c0.483,5.388,2.616,10.302,5.899,14.231l-0.687,0.687c-3.457-4.11-5.694-9.266-6.186-14.918H5.765z M14.967,51.404
		c3.93,3.282,8.843,5.415,14.231,5.898v0.974c-5.652-0.49-10.808-2.728-14.919-6.186L14.967,51.404z M33.87,57.303
		c5.388-0.486,10.301-2.616,14.231-5.898l0.687,0.687c-4.11,3.455-9.266,5.695-14.918,6.186V57.303L33.87,57.303z M51.404,48.101
		c3.283-3.93,5.416-8.844,5.899-14.231h0.974c-0.492,5.652-2.729,10.808-6.187,14.918L51.404,48.101z M57.304,29.198
		c-0.483-5.387-2.616-10.301-5.899-14.232l0.687-0.688c3.458,4.112,5.694,9.267,6.187,14.919H57.304z"/>
</g>
<g>
</g>
<g>
</g>
<g>
</g>
<g>
</g>
<g>
</g>
<g>
</g>
<g>
</g>
<g>
</g>
<g>
</g>
<g>
</g>
<g>
</g>
<g>
</g>
<g>
</g>
<g>
</g>
<g>
</g>
</svg>
