<?xml version="1.0" encoding="iso-8859-1"?>
<!-- Generator: Adobe Illustrator 16.0.0, SVG Export Plug-In . SVG Version: 6.00 Build 0)  -->
<!DOCTYPE svg PUBLIC "-//W3C//DTD SVG 1.1//EN" "http://www.w3.org/Graphics/SVG/1.1/DTD/svg11.dtd">
<svg version="1.1" id="Capa_1" xmlns="http://www.w3.org/2000/svg" xmlns:xlink="http://www.w3.org/1999/xlink" x="0px" y="0px"
	 width="50.743px" height="50.742px" viewBox="0 0 50.743 50.742" style="enable-background:new 0 0 50.743 50.742;"
	 xml:space="preserve">
<g>
	<polygon points="45.548,21.869 45.548,23.621 27.123,23.621 27.123,5.195 28.874,5.195 28.874,0.001 21.867,0.001 21.867,5.195 
		23.619,5.195 23.619,23.621 5.194,23.621 5.194,21.869 0,21.869 0,28.875 5.194,28.875 5.194,27.123 23.619,27.123 23.619,45.553 
		21.867,45.553 21.867,50.741 28.874,50.741 28.874,45.553 27.123,45.553 27.123,27.123 45.548,27.123 45.548,28.875 50.743,28.875 
		50.743,21.869 	"/>
</g>
<g>
</g>
<g>
</g>
<g>
</g>
<g>
</g>
<g>
</g>
<g>
</g>
<g>
</g>
<g>
</g>
<g>
</g>
<g>
</g>
<g>
</g>
<g>
</g>
<g>
</g>
<g>
</g>
<g>
</g>
</svg>
