<?xml version="1.0" encoding="iso-8859-1"?>
<!-- Generator: Adobe Illustrator 16.0.0, SVG Export Plug-In . SVG Version: 6.00 Build 0)  -->
<!DOCTYPE svg PUBLIC "-//W3C//DTD SVG 1.1//EN" "http://www.w3.org/Graphics/SVG/1.1/DTD/svg11.dtd">
<svg version="1.1" id="Capa_1" xmlns="http://www.w3.org/2000/svg" xmlns:xlink="http://www.w3.org/1999/xlink" x="0px" y="0px"
	 width="46.883px" height="46.883px" viewBox="0 0 46.883 46.883" style="enable-background:new 0 0 46.883 46.883;"
	 xml:space="preserve">
<g>
	<g>
		<path d="M41.408,0H13.765c-0.727,0-1.314,0.589-1.314,1.314v5.341H6.289c-0.727,0-1.315,0.588-1.315,1.314v34.507
			c0,0.726,0.589,1.314,1.315,1.314h29.468h5.652c0.727,0,1.314-0.589,1.314-1.314V1.315C42.724,0.589,42.134,0,41.408,0z
			 M34.44,41.16H7.602V9.284H34.44V41.16z M40.095,41.16h-3.023V7.97c0-0.726-0.59-1.314-1.312-1.314h-20.68V2.63h25.016V41.16z"/>
		<rect x="9.272" y="12.078" width="4.273" height="6.572"/>
		<rect x="9.272" y="21.937" width="4.273" height="6.572"/>
		<rect x="9.272" y="31.796" width="4.273" height="6.571"/>
		<rect x="15.681" y="12.078" width="4.273" height="6.572"/>
		<rect x="15.681" y="21.937" width="4.273" height="6.572"/>
		<rect x="15.681" y="31.796" width="4.273" height="6.571"/>
		<rect x="22.089" y="12.078" width="4.273" height="6.572"/>
		<rect x="22.089" y="21.937" width="4.273" height="6.572"/>
		<rect x="22.089" y="31.796" width="4.273" height="6.571"/>
		<rect x="28.498" y="12.078" width="4.272" height="6.572"/>
		<rect x="28.498" y="21.937" width="4.272" height="6.572"/>
		<rect x="28.498" y="31.796" width="4.272" height="6.571"/>
		<path d="M41.408,44.256H5.473c-0.726,0-1.314,0.589-1.314,1.314c0,0.727,0.588,1.312,1.314,1.312h35.935
			c0.726,0,1.315-0.589,1.315-1.312C42.724,44.845,42.134,44.256,41.408,44.256z"/>
	</g>
</g>
<g>
</g>
<g>
</g>
<g>
</g>
<g>
</g>
<g>
</g>
<g>
</g>
<g>
</g>
<g>
</g>
<g>
</g>
<g>
</g>
<g>
</g>
<g>
</g>
<g>
</g>
<g>
</g>
<g>
</g>
</svg>
