<?xml version="1.0" encoding="iso-8859-1"?>
<!-- Generator: Adobe Illustrator 16.0.0, SVG Export Plug-In . SVG Version: 6.00 Build 0)  -->
<!DOCTYPE svg PUBLIC "-//W3C//DTD SVG 1.1//EN" "http://www.w3.org/Graphics/SVG/1.1/DTD/svg11.dtd">
<svg version="1.1" id="Capa_1" xmlns="http://www.w3.org/2000/svg" xmlns:xlink="http://www.w3.org/1999/xlink" x="0px" y="0px"
	 width="56.025px" height="56.024px" viewBox="0 0 56.025 56.024" style="enable-background:new 0 0 56.025 56.024;"
	 xml:space="preserve">
<g>
	<g>
		<path d="M45.754,0H10.271C9.036,0,8.039,0.999,8.039,2.233V53.79c0,1.234,0.998,2.234,2.232,2.234h35.484
			c1.231,0,2.231-1,2.231-2.234V2.233C47.986,0.999,46.988,0,45.754,0z M43.523,51.555H12.502V4.466h31.021V51.555z"/>
		<path d="M16.279,20.164h8.934c1.232,0,2.232-1,2.232-2.233V8.997c0-1.233-1-2.233-2.232-2.233h-8.934
			c-1.234,0-2.234,1.001-2.234,2.233v8.934C14.045,19.164,15.045,20.164,16.279,20.164z M18.512,11.231h4.467v4.466h-4.467V11.231z"
			/>
		<path d="M30.795,20.164h8.935c1.233,0,2.231-1,2.231-2.233V8.997c0-1.233-0.998-2.233-2.231-2.233h-8.935
			c-1.233,0-2.231,1.001-2.231,2.233v8.934C28.564,19.164,29.562,20.164,30.795,20.164z M33.029,11.231h4.465v4.466h-4.465V11.231z"
			/>
		<path d="M25.229,21.281h-8.934c-1.234,0-2.234,0.999-2.234,2.232v8.933c0,1.233,1,2.231,2.234,2.231h8.934
			c1.232,0,2.232-0.998,2.232-2.231v-8.933C27.461,22.28,26.461,21.281,25.229,21.281z M22.994,30.215h-4.465v-4.467h4.465V30.215z"
			/>
		<path d="M39.744,21.281H30.81c-1.232,0-2.232,0.999-2.232,2.232v8.933c0,1.233,1,2.231,2.232,2.231h8.934
			c1.234,0,2.232-0.998,2.232-2.231v-8.933C41.978,22.28,40.98,21.281,39.744,21.281z M37.51,30.215h-4.465v-4.467h4.465V30.215z"/>
		<path d="M25.229,35.859h-8.934c-1.234,0-2.234,1-2.234,2.232v8.934c0,1.232,1,2.232,2.234,2.232h8.934
			c1.232,0,2.232-1,2.232-2.232v-8.932C27.461,36.859,26.461,35.859,25.229,35.859z M22.994,44.793h-4.465v-4.466h4.465V44.793z"/>
		<path d="M39.744,35.859H30.81c-1.232,0-2.232,1-2.232,2.232v8.934c0,1.232,1,2.232,2.232,2.232h8.934c1.234,0,2.232-1,2.232-2.232
			v-8.932C41.978,36.859,40.98,35.859,39.744,35.859z M37.51,44.793h-4.465v-4.466h4.465V44.793z"/>
	</g>
</g>
<g>
</g>
<g>
</g>
<g>
</g>
<g>
</g>
<g>
</g>
<g>
</g>
<g>
</g>
<g>
</g>
<g>
</g>
<g>
</g>
<g>
</g>
<g>
</g>
<g>
</g>
<g>
</g>
<g>
</g>
</svg>
