<?xml version="1.0" encoding="iso-8859-1"?>
<!-- Generator: Adobe Illustrator 16.0.0, SVG Export Plug-In . SVG Version: 6.00 Build 0)  -->
<!DOCTYPE svg PUBLIC "-//W3C//DTD SVG 1.1//EN" "http://www.w3.org/Graphics/SVG/1.1/DTD/svg11.dtd">
<svg version="1.1" id="Capa_1" xmlns="http://www.w3.org/2000/svg" xmlns:xlink="http://www.w3.org/1999/xlink" x="0px" y="0px"
	 width="56.475px" height="56.475px" viewBox="0 0 56.475 56.475" style="enable-background:new 0 0 56.475 56.475;"
	 xml:space="preserve">
<g>
	<g>
		<path d="M40.258,32.464h-0.754c-1.586,0.683-3.329,1.065-5.161,1.065s-3.574-0.383-5.162-1.065h-0.748
			c-3.416,0-6.195,2.515-6.195,5.603v2.092l-6.594-5.954c-0.025-0.024-0.053-0.049-0.08-0.073v-13.4l4.264-7.335
			c0.354-0.61,0.269-1.378-0.21-1.895l-0.091-0.098c-1.355-1.462-2.756-2.974-5.643-2.974c-3.142,0-5.559,2.993-5.825,3.334
			c-0.41,0.526-0.449,1.252-0.1,1.82l4.404,7.168v13.577c-0.759,0.879-0.723,2.208,0.113,3.044l9.762,10.726v2.773
			c0,3.089,2.779,5.604,6.195,5.604h11.825c3.416,0,6.195-2.515,6.195-5.604V38.066C46.453,34.977,43.674,32.464,40.258,32.464z
			 M11.327,12.946c0.68-0.624,1.661-1.318,2.558-1.318c1.136,0,1.735,0.354,2.575,1.19l-2.533,4.359L11.327,12.946z M42.933,50.869
			c0,1.128-1.225,2.08-2.675,2.08H28.434c-1.45,0-2.674-0.952-2.674-2.08v-3.762v-2.769v-6.274c0-1.127,1.224-2.08,2.674-2.08
			h11.825c1.45,0,2.674,0.953,2.674,2.08V50.869z"/>
		<path d="M48.718,28.946l-1.255-9.934c-0.03-3.648-1.56-6.944-3.998-9.308V9.683C43.465,4.344,39.122,0,33.782,0
			c-5.339,0-9.683,4.344-9.683,9.683v1.252c-1.779,2.219-2.852,5.025-2.878,8.077l-1.271,10.07c-0.052,0.41,0.075,0.822,0.348,1.133
			s0.667,0.488,1.081,0.488h6.792c0.328,0.176,0.667,0.332,1.01,0.479c1.585,0.686,3.33,1.066,5.162,1.066
			c1.831,0,3.575-0.384,5.161-1.066c0.345-0.146,0.683-0.304,1.011-0.479h6.791c0.004,0,0.004,0,0.008,0
			c0.795,0,1.439-0.646,1.439-1.439C48.753,29.154,48.741,29.048,48.718,28.946z M26.981,9.684c0-0.528,0.066-1.04,0.181-1.533
			c0.698-3.014,3.397-5.269,6.621-5.269c2.938,0,5.44,1.876,6.389,4.491c0.263,0.723,0.413,1.498,0.413,2.311v1.33v0.99H26.991
			h-0.01V9.684z M44.481,20.566c-0.435,3.06-2.221,5.688-4.736,7.257c-1.568,0.978-3.42,1.546-5.402,1.546s-3.832-0.568-5.402-1.546
			c-2.516-1.569-4.302-4.196-4.735-7.257c-0.066-0.471-0.104-0.951-0.104-1.441c0-0.488,0.037-0.968,0.104-1.439
			c0.144-1.019,0.438-1.988,0.859-2.889c0.15,0.054,0.31,0.088,0.478,0.088h16.483c0.543,0,1.014-0.306,1.259-0.751
			c0.604,1.079,1.021,2.277,1.198,3.552c0.065,0.472,0.104,0.951,0.104,1.439C44.586,19.615,44.549,20.096,44.481,20.566z"/>
	</g>
</g>
<g>
</g>
<g>
</g>
<g>
</g>
<g>
</g>
<g>
</g>
<g>
</g>
<g>
</g>
<g>
</g>
<g>
</g>
<g>
</g>
<g>
</g>
<g>
</g>
<g>
</g>
<g>
</g>
<g>
</g>
</svg>
