<?xml version="1.0" encoding="iso-8859-1"?>
<!-- Generator: Adobe Illustrator 16.0.0, SVG Export Plug-In . SVG Version: 6.00 Build 0)  -->
<!DOCTYPE svg PUBLIC "-//W3C//DTD SVG 1.1//EN" "http://www.w3.org/Graphics/SVG/1.1/DTD/svg11.dtd">
<svg version="1.1" id="Capa_1" xmlns="http://www.w3.org/2000/svg" xmlns:xlink="http://www.w3.org/1999/xlink" x="0px" y="0px"
	 width="69.352px" height="69.352px" viewBox="0 0 69.352 69.352" style="enable-background:new 0 0 69.352 69.352;"
	 xml:space="preserve">
<g>
	<g>
		<path d="M68.752,35.568L54.933,21.75v-9.112c0-1.136-0.922-2.056-2.057-2.056c-1.137,0-2.058,0.92-2.058,2.056v5.001l-9.748-9.747
			c-0.802-0.804-2.104-0.804-2.903,0L23.693,22.367c-0.803,0.803-0.803,2.104,0,2.907c0.802,0.802,2.104,0.802,2.906,0L39.62,12.251
			l26.225,26.225c0.399,0.399,0.929,0.602,1.453,0.602s1.054-0.201,1.453-0.602C69.552,37.671,69.552,36.371,68.752,35.568z"/>
		<path d="M62.87,37.927L41.074,16.131c-0.386-0.386-0.907-0.602-1.452-0.602c-0.546,0-1.066,0.216-1.453,0.602L27.023,27.276
			c0.034-0.001,0.067-0.009,0.102-0.009c0.624,0,1.234,0.179,1.759,0.518c0.833,0.535,1.371,1.407,1.477,2.393l0.005,0.047
			l0.16-0.003c0.949,0,1.848,0.409,2.467,1.123c0.648,0.749,0.919,1.737,0.742,2.711l-0.009,0.048l0.046,0.011
			c0.96,0.243,1.747,0.901,2.157,1.803c0.413,0.899,0.394,1.925-0.051,2.812l-0.021,0.043l0.041,0.024
			c0.604,0.354,1.062,0.89,1.33,1.519c0.599-0.67,1.439-1.123,2.392-1.213c1.881,0.18,3.331,1.762,3.331,3.658v7.812
			c0,1.254,0.472,2.449,1.324,3.373c0.938,1.016,2.269,1.598,3.646,1.598h10.635c2.74,0,4.969-2.229,4.969-4.971V39.935
			c0.001-0.312-0.028-0.629-0.091-0.943C63.357,38.588,63.161,38.218,62.87,37.927z"/>
		<path d="M34.94,41.92c-0.076-0.539-0.395-1.014-0.863-1.291l-1.209-0.717l0.63-1.259c0.243-0.485,0.255-1.059,0.028-1.553
			c-0.227-0.496-0.664-0.861-1.192-0.996l-1.362-0.348l0.251-1.383c0.097-0.536-0.055-1.087-0.411-1.499
			c-0.356-0.411-0.879-0.637-1.424-0.619l-1.406,0.051l-0.148-1.398c-0.058-0.54-0.357-1.026-0.815-1.321
			c-0.459-0.295-1.025-0.366-1.542-0.192l-1.333,0.443l-0.537-1.298c-0.208-0.504-0.634-0.885-1.155-1.039
			c-0.522-0.153-1.087-0.062-1.534,0.25l-1.153,0.803l-0.882-1.097c-0.342-0.424-0.857-0.67-1.401-0.67
			c-0.546,0-1.06,0.246-1.401,0.67L15.2,28.555l-1.154-0.803c-0.447-0.311-1.011-0.402-1.534-0.249
			c-0.521,0.154-0.947,0.535-1.155,1.039l-0.537,1.298l-1.332-0.443c-0.517-0.174-1.084-0.103-1.541,0.192
			c-0.459,0.295-0.759,0.78-0.817,1.321l-0.148,1.398l-1.406-0.051c-0.538-0.015-1.067,0.208-1.425,0.619
			c-0.355,0.412-0.507,0.962-0.409,1.499l0.251,1.383l-1.362,0.348c-0.528,0.133-0.967,0.5-1.193,0.994
			c-0.226,0.496-0.215,1.066,0.028,1.555l0.631,1.257l-1.216,0.717c-0.467,0.276-0.785,0.752-0.863,1.291
			c-0.076,0.541,0.094,1.086,0.466,1.481l0.959,1.027l-0.959,1.027c-0.371,0.396-0.542,0.941-0.466,1.48
			c0.078,0.539,0.396,1.016,0.863,1.291l1.211,0.719l-0.631,1.256c-0.243,0.486-0.254,1.061-0.028,1.553
			c0.227,0.496,0.665,0.861,1.193,0.998l1.362,0.348l-0.251,1.383c-0.097,0.535,0.054,1.086,0.409,1.498
			c0.357,0.412,0.883,0.64,1.425,0.619l1.406-0.051l0.149,1.396c0.058,0.541,0.358,1.025,0.816,1.32
			c0.457,0.295,1.024,0.362,1.542,0.192l1.333-0.444l0.536,1.299c0.208,0.504,0.633,0.887,1.154,1.039
			c0.523,0.151,1.088,0.062,1.534-0.248l1.154-0.803l0.881,1.094c0.343,0.424,0.857,0.67,1.402,0.67c0.544,0,1.06-0.246,1.401-0.67
			l0.881-1.096l1.154,0.805c0.447,0.311,1.011,0.399,1.534,0.248c0.522-0.152,0.946-0.535,1.155-1.039l0.537-1.299l1.333,0.444
			c0.518,0.172,1.084,0.103,1.542-0.192s0.759-0.779,0.816-1.322l0.148-1.398l1.404,0.055c0.539,0.021,1.069-0.209,1.426-0.619
			c0.355-0.412,0.507-0.963,0.41-1.5l-0.251-1.383l1.362-0.348c0.527-0.135,0.966-0.502,1.192-0.996s0.216-1.064-0.028-1.553
			l-0.63-1.258l1.209-0.715c0.469-0.277,0.786-0.752,0.864-1.293c0.081-0.535-0.089-1.08-0.461-1.479l-0.958-1.025l0.958-1.027
			C34.846,43.004,35.018,42.459,34.94,41.92z M9.99,51.509H8.447V43.67H9.99V51.509z M24.485,52.175l-7.639,0.846L12.6,50.922
			v-6.211l6.842-8.101c0.028-0.034,0.055-0.072,0.077-0.111l1.341-2.313h1.088l-0.333,2.868l-1.973,4.154
			c-0.096,0.203-0.1,0.438-0.008,0.645c0.091,0.207,0.269,0.359,0.483,0.426l4.946,1.476L24.485,52.175z"/>
	</g>
</g>
<g>
</g>
<g>
</g>
<g>
</g>
<g>
</g>
<g>
</g>
<g>
</g>
<g>
</g>
<g>
</g>
<g>
</g>
<g>
</g>
<g>
</g>
<g>
</g>
<g>
</g>
<g>
</g>
<g>
</g>
</svg>
