<?xml version="1.0" encoding="iso-8859-1"?>
<!-- Generator: Adobe Illustrator 16.0.0, SVG Export Plug-In . SVG Version: 6.00 Build 0)  -->
<!DOCTYPE svg PUBLIC "-//W3C//DTD SVG 1.1//EN" "http://www.w3.org/Graphics/SVG/1.1/DTD/svg11.dtd">
<svg version="1.1" id="Capa_1" xmlns="http://www.w3.org/2000/svg" xmlns:xlink="http://www.w3.org/1999/xlink" x="0px" y="0px"
	 width="55.088px" height="55.088px" viewBox="0 0 55.088 55.088" style="enable-background:new 0 0 55.088 55.088;"
	 xml:space="preserve">
<g>
	<path d="M34.397,26.142h-2.475V13.311c1.023-0.004,1.854-0.835,1.854-1.86c0-0.133-0.014-0.264-0.039-0.389l-0.77-9.354
		C32.89,0.743,32.083,0,31.114,0h-7.138c-0.967,0-1.775,0.743-1.854,1.708l-0.789,9.59c-0.043,0.519,0.133,1.031,0.484,1.413
		c0.35,0.377,0.836,0.595,1.348,0.601v12.831H20.69c-1.027,0-1.859,0.834-1.859,1.861v25.223c0,1.029,0.832,1.861,1.859,1.861
		h13.708c1.027,0,1.859-0.832,1.859-1.861V28.003C36.259,26.976,35.427,26.142,34.397,26.142z M25.691,3.721h3.708l0.482,5.876
		c-0.943,0.092-1.682,0.886-1.682,1.854v14.693h-1.314V11.45c0-0.968-0.736-1.761-1.681-1.853L25.691,3.721z M32.541,51.363h-0.002
		h-9.986v-21.5h2.475h5.036h2.478V51.363z"/>
</g>
<g>
</g>
<g>
</g>
<g>
</g>
<g>
</g>
<g>
</g>
<g>
</g>
<g>
</g>
<g>
</g>
<g>
</g>
<g>
</g>
<g>
</g>
<g>
</g>
<g>
</g>
<g>
</g>
<g>
</g>
</svg>
