<?xml version="1.0" encoding="iso-8859-1"?>
<!-- Generator: Adobe Illustrator 17.1.0, SVG Export Plug-In . SVG Version: 6.00 Build 0)  -->
<!DOCTYPE svg PUBLIC "-//W3C//DTD SVG 1.1//EN" "http://www.w3.org/Graphics/SVG/1.1/DTD/svg11.dtd">
<svg version="1.1" id="Capa_1" xmlns="http://www.w3.org/2000/svg" xmlns:xlink="http://www.w3.org/1999/xlink" x="0px" y="0px"
	 viewBox="0 0 297 297" style="enable-background:new 0 0 297 297;" xml:space="preserve">
<g>
	<path d="M149.134,46.459L41.167,165.568V297h213V165h1.222L149.134,46.459z M201.966,224.463
		c-2.136,8.48-7.477,17.924-15.055,23.85c-7.336,6.461-19.701,13.641-38.428,13.641c-24.81,0-38.448-12.6-44.023-19.438
		c-1.876-2.049-3.487-4.234-4.753-6.41c-12.9-22.205-5.089-44.473,8.016-60.197c2.355,8.145,6.123,13.82,10.441,18.287
		c-3.801-27.727,12.397-49.549,32.112-63.148c0,20.299,9.396,31.381,17.802,41.92c1.935-5.309,3.146-11.398,3.146-18.672
		C192.569,169.021,209.8,193.387,201.966,224.463z"/>
	<polygon points="149.367,22.541 276.86,165 297,165 149.167,0 82.167,73.846 82.167,33 49.167,33 49.167,110.307 0,165 20.435,165 
			"/>
	<path d="M132.59,231.057c1.803,7.387,7.905,16.117,16.254,16.25c9.28,0.15,16.463-6.873,16.254-16.25
		c-0.336-14.771-16.254-18.494-16.254-38.346C137.56,200.756,128.448,214.076,132.59,231.057z"/>
</g>
<g>
</g>
<g>
</g>
<g>
</g>
<g>
</g>
<g>
</g>
<g>
</g>
<g>
</g>
<g>
</g>
<g>
</g>
<g>
</g>
<g>
</g>
<g>
</g>
<g>
</g>
<g>
</g>
<g>
</g>
</svg>
