<?xml version="1.0" encoding="iso-8859-1"?>
<!-- Generator: Adobe Illustrator 17.1.0, SVG Export Plug-In . SVG Version: 6.00 Build 0)  -->
<!DOCTYPE svg PUBLIC "-//W3C//DTD SVG 1.1//EN" "http://www.w3.org/Graphics/SVG/1.1/DTD/svg11.dtd">
<svg version="1.1" id="Capa_1" xmlns="http://www.w3.org/2000/svg" xmlns:xlink="http://www.w3.org/1999/xlink" x="0px" y="0px"
	 viewBox="0 0 256.113 256.113" style="enable-background:new 0 0 256.113 256.113;" xml:space="preserve">
<g>
	<path d="M51.951,38.725c0,0-0.004,0.004-0.012,0.012l0.001,0.001C51.948,38.729,51.952,38.725,51.951,38.725L51.951,38.725z"/>
	<path d="M54.595,91.34c10.398-4.379,22.071-12.104,27.822-22.121c7.688-13.387,12.927-22.918,14.603-25.99L73.94,16.738
		C73.544,17.17,63.096,28.089,60.34,30.833c-5.994,5.969-41.556,23.832-49.321,36.48C3.255,79.96-0.093,112.079,0.002,121.809
		c0.031,3.185,2.657,5.973,5.784,5.973c3.442,0,7.492-3.379,9.357-13.328c3.555-18.986,19.532-34.664,32.671-37.92
		c1.033-0.256,1.745-0.375,2.188-0.375c4.558,0-19.509,12.6-16.997,17.932c1.089,2.313,2.809,3.202,5.004,3.202
		C42.166,97.293,48.036,94.105,54.595,91.34z"/>
	<path d="M195.773,30.833c-2.756-2.743-13.204-13.662-13.601-14.095l-23.079,26.491c1.676,3.072,6.914,12.604,14.603,25.99
		c5.751,10.018,17.424,17.742,27.822,22.121c6.559,2.765,12.429,5.952,16.586,5.952c2.195,0,3.915-0.89,5.004-3.202
		c2.512-5.332-21.555-17.932-16.997-17.932c0.442,0,1.154,0.119,2.188,0.375c13.139,3.256,29.116,18.934,32.671,37.92
		c1.865,9.949,5.915,13.328,9.357,13.328c3.127,0,5.753-2.788,5.784-5.973c0.095-9.731-3.253-41.85-11.017-54.496
		C237.329,54.665,201.768,36.801,195.773,30.833z"/>
	<path d="M201.161,38.725c0,0,0.004,0.004,0.012,0.013l0.001-0.001C201.166,38.729,201.162,38.725,201.161,38.725z"/>
	<polygon points="127.434,41.01 73.323,100.797 60.096,115.664 29.811,149.376 53.146,149.376 127.467,67.256 200.96,149.376 
		223.969,149.376 196.254,118.158 177.614,97.206 	"/>
	<path d="M127.067,90.674l-71.511,79.014v69.688h50v-53.439c0-11.523,9.478-20.863,20.999-20.863
		c11.523,0,21.001,9.34,21.001,20.863v53.439h49v-71.057L127.067,90.674z"/>
</g>
<g>
</g>
<g>
</g>
<g>
</g>
<g>
</g>
<g>
</g>
<g>
</g>
<g>
</g>
<g>
</g>
<g>
</g>
<g>
</g>
<g>
</g>
<g>
</g>
<g>
</g>
<g>
</g>
<g>
</g>
</svg>
