<?xml version="1.0" encoding="iso-8859-1"?>
<!-- Generator: Adobe Illustrator 17.1.0, SVG Export Plug-In . SVG Version: 6.00 Build 0)  -->
<!DOCTYPE svg PUBLIC "-//W3C//DTD SVG 1.1//EN" "http://www.w3.org/Graphics/SVG/1.1/DTD/svg11.dtd">
<svg version="1.1" id="Capa_1" xmlns="http://www.w3.org/2000/svg" xmlns:xlink="http://www.w3.org/1999/xlink" x="0px" y="0px"
	 viewBox="0 0 297.421 297.421" style="enable-background:new 0 0 297.421 297.421;" xml:space="preserve">
<g>
	<path d="M239.066,192.982h-24.333v-72h33.334L149.455,10.983l-40.722,44.809v-12.81h-26v41.537l-32.668,36.463h31.668v72H58.066
		c-4.418,0-8,3.582-8,8s3.582,8,8,8h69.667v-56.5c0-11.322,9.178-20.5,20.5-20.5c11.322,0,20.5,9.178,20.5,20.5v56.5h70.333
		c4.418,0,8-3.582,8-8S243.484,192.982,239.066,192.982z"/>
	<g>
		<path d="M290.428,240.074c-3.139,0-7.361,1.394-12.731,5.085c-9.815,6.746-21.83,9.718-32.808,9.718
			c-8.925,0-17.163-1.963-22.981-5.454c-2.883-1.729-2.874-2.307-1.202-2.307c3.357,0,13.426,2.33,20.25,2.33
			c3.358,0,5.929-0.563,6.529-2.248c2.78-7.784-7.996-10.29-19.268-14.852c-8.251-3.341-18.321-5.861-27.911-5.862
			c-3.998,0-7.875,0.438-11.543,1.438c-16.645,4.539-29.03,7.957-32.03,9.067v43.688c7-2.521,14.722-4.936,19.242-4.936
			c8.291,0,41.809,10.696,60.807,10.696c2.661,0,5.025-0.21,7.006-0.688c16.125-3.892,44.11-26.69,51.707-34.475
			C299.144,247.538,297.692,240.074,290.428,240.074z"/>
		<path d="M7.038,240.074c3.139,0,7.361,1.394,12.731,5.085c9.816,6.746,21.83,9.718,32.808,9.718
			c8.925,0,17.163-1.963,22.981-5.454c2.883-1.729,2.874-2.307,1.202-2.307c-3.357,0-13.426,2.33-20.25,2.33
			c-3.358,0-5.929-0.563-6.529-2.248c-2.78-7.784,7.996-10.29,19.268-14.852c8.251-3.341,18.321-5.861,27.911-5.862
			c3.998,0,7.375,0.438,11.043,1.438c16.646,4.539,28.53,7.957,31.53,9.067v43.688c-6-2.521-14.222-4.936-18.742-4.936
			c-8.291,0-41.558,10.696-60.556,10.696c-2.662,0-4.901-0.21-6.881-0.688c-16.125-3.892-44.047-26.69-51.644-34.475
			C-1.74,247.538-0.226,240.074,7.038,240.074z"/>
	</g>
</g>
<g>
</g>
<g>
</g>
<g>
</g>
<g>
</g>
<g>
</g>
<g>
</g>
<g>
</g>
<g>
</g>
<g>
</g>
<g>
</g>
<g>
</g>
<g>
</g>
<g>
</g>
<g>
</g>
<g>
</g>
</svg>
