<?xml version="1.0" encoding="iso-8859-1"?>
<!-- Generator: Adobe Illustrator 17.1.0, SVG Export Plug-In . SVG Version: 6.00 Build 0)  -->
<!DOCTYPE svg PUBLIC "-//W3C//DTD SVG 1.1//EN" "http://www.w3.org/Graphics/SVG/1.1/DTD/svg11.dtd">
<svg version="1.1" id="Capa_1" xmlns="http://www.w3.org/2000/svg" xmlns:xlink="http://www.w3.org/1999/xlink" x="0px" y="0px"
	 viewBox="0 0 297 297" style="enable-background:new 0 0 297 297;" xml:space="preserve">
<g>
	<path d="M148.968,47.959L41.167,167.068V297h213V165.507L148.968,47.959z M187.624,234.296
		c-11.286,11.139-39.124,29.705-39.124,29.705s-27.838-18.566-39.123-29.705c-13.995-13.813-12.34-20.645-12.34-80.946
		c0,0,33.406,8.615,51.463-21.684c18.057,30.299,51.463,21.684,51.463,21.684C199.963,213.651,201.618,220.483,187.624,234.296z"/>
	<polygon points="149.367,24.041 275.518,165 297,165 149.167,0 82.167,73.846 82.167,33 49.167,33 49.167,110.307 0,165 
		21.792,165 	"/>
	<path d="M185.494,168.012l-7.591-0.361c-9.415-0.448-17.52-3.637-24.087-9.478l-5.316-4.727l-5.315,4.727
		c-6.568,5.84-14.673,9.029-24.088,9.478l-7.59,0.362l-0.035,9.175c-0.052,16.877-0.084,27.064,1.071,33.654
		c1.116,6.37,3.355,9.508,7.647,13.745c5.691,5.617,17.31,13.979,23.729,18.463l4.581,3.2l4.581-3.2
		c6.417-4.482,18.032-12.841,23.727-18.463c4.292-4.235,6.531-7.372,7.649-13.745c1.154-6.586,1.123-16.758,1.07-33.609
		L185.494,168.012z M168.698,208.078c-0.374,2.132-0.432,2.46-3.129,5.122c-2.946,2.908-9.161,7.811-17.07,13.49
		c-7.979-5.725-14.075-10.536-17.068-13.49c-2.697-2.663-2.755-2.99-3.128-5.12c-0.797-4.546-0.872-12.926-0.847-25.296
		c7.682-1.366,14.796-4.24,21.044-8.504c6.247,4.264,13.361,7.139,21.044,8.505C169.569,195.155,169.495,203.534,168.698,208.078z"
		/>
</g>
<g>
</g>
<g>
</g>
<g>
</g>
<g>
</g>
<g>
</g>
<g>
</g>
<g>
</g>
<g>
</g>
<g>
</g>
<g>
</g>
<g>
</g>
<g>
</g>
<g>
</g>
<g>
</g>
<g>
</g>
</svg>
