<?xml version="1.0" encoding="iso-8859-1"?>
<!-- Generator: Adobe Illustrator 17.1.0, SVG Export Plug-In . SVG Version: 6.00 Build 0)  -->
<!DOCTYPE svg PUBLIC "-//W3C//DTD SVG 1.1//EN" "http://www.w3.org/Graphics/SVG/1.1/DTD/svg11.dtd">
<svg version="1.1" id="Capa_1" xmlns="http://www.w3.org/2000/svg" xmlns:xlink="http://www.w3.org/1999/xlink" x="0px" y="0px"
	 viewBox="0 0 297 297" style="enable-background:new 0 0 297 297;" xml:space="preserve">
<g>
	<path d="M149.134,46.959L41.167,166.068V297h213V165h0.774L149.134,46.959z M140.667,237.25
		c-2.024,4.676-6.833,17.417-6.833,17.417S128.917,243,119.917,229.25c-4.482-6.848-12.43-17.388-24.938-26.435l9.377-12.965
		c13.678,9.893,22.147,19.181,28.062,27.899c8.613-21.028,27.598-55.983,59.421-86.064l10.99,11.627
		C171.917,169.25,151.167,213,140.667,237.25z"/>
	<polygon points="149.367,23.041 276.412,165 297,165 149.167,0 82.167,73.846 82.167,33 49.167,33 49.167,110.307 0,165 
		20.887,165 	"/>
</g>
<g>
</g>
<g>
</g>
<g>
</g>
<g>
</g>
<g>
</g>
<g>
</g>
<g>
</g>
<g>
</g>
<g>
</g>
<g>
</g>
<g>
</g>
<g>
</g>
<g>
</g>
<g>
</g>
<g>
</g>
</svg>
