<?xml version="1.0" encoding="iso-8859-1"?>
<!-- Generator: Adobe Illustrator 17.1.0, SVG Export Plug-In . SVG Version: 6.00 Build 0)  -->
<!DOCTYPE svg PUBLIC "-//W3C//DTD SVG 1.1//EN" "http://www.w3.org/Graphics/SVG/1.1/DTD/svg11.dtd">
<svg version="1.1" id="Capa_1" xmlns="http://www.w3.org/2000/svg" xmlns:xlink="http://www.w3.org/1999/xlink" x="0px" y="0px"
	 viewBox="0 0 296.334 296.334" style="enable-background:new 0 0 296.334 296.334;" xml:space="preserve">
<g>
	<g>
		<polygon style="fill:#FFFFFF;" points="0.332,199.174 0.333,199.174 0.333,199.174 		"/>
		<polygon style="fill:#FFFFFF;" points="296.334,199.174 296.333,199.174 296.333,199.174 		"/>
		<polygon style="fill:#FFFFFF;" points="296.333,235.053 296.333,235.053 296.334,235.053 		"/>
		<polygon style="fill:#FFFFFF;" points="0.332,235.053 0.333,235.053 0.333,235.053 		"/>
	</g>
	<g>
		<path d="M246.83,224.339c14.702,0,22.225-4.935,28.938-9.288c5.781-3.75,10.232-6.712,20.232-6.712v-16
			c-15,0-22.143,4.935-28.856,9.288c-5.781,3.75-10.264,6.712-20.231,6.712c-9.968,0-14.66-2.962-20.441-6.712
			c-1.391-0.901-2.472-1.827-4.472-2.729v-41.717h37.334L148.789,36.116L103,85.635V74.181H74v42.914l-36.67,40.086H73v42.313
			c-1,0.711-2.106,1.43-3.192,2.134c-5.781,3.75-10.263,6.712-20.229,6.712c-9.965,0-14.656-2.962-20.435-6.712
			C22.432,197.273,15,192.339,0,192.339v16c10,0,14.697,2.962,20.478,6.712c6.711,4.354,14.234,9.288,28.934,9.288
			c10.993,0,18.588-2.76,23.588-5.973v17.006c-1,0.711-2.106,1.43-3.192,2.134c-5.781,3.75-10.263,6.712-20.229,6.712
			c-9.965,0-14.656-2.962-20.435-6.712C22.432,233.152,15,228.218,0,228.218v16c10,0,14.697,2.962,20.478,6.712
			c6.711,4.354,14.401,9.288,29.101,9.288s22.349-4.935,29.061-9.288c5.78-3.75,10.368-6.712,20.332-6.712
			c9.966,0,14.543,2.962,20.324,6.712c6.712,4.354,14.325,9.288,29.025,9.288c14.7,0,22.31-4.935,29.022-9.288
			c5.78-3.75,10.348-6.712,20.313-6.712c9.967,0,14.535,2.962,20.316,6.712c6.713,4.354,14.322,9.288,29.024,9.288
			c14.702,0,22.142-4.935,28.855-9.288c5.781-3.75,10.149-6.712,20.149-6.712v-16c-15,0-22.143,4.935-28.856,9.288
			c-5.781,3.75-10.264,6.712-20.231,6.712c-9.968,0-14.66-2.962-20.441-6.712c-1.391-0.901-2.472-1.827-4.472-2.73v-16.988
			C228,221.239,235.181,224.339,246.83,224.339z M147.999,172.458c12.695,0,23.001,10.291,23.001,22.984v4.46
			c-1,0.576-1.65,1.155-2.528,1.725c-5.781,3.75-10.263,6.712-20.229,6.712c-9.966,0-14.656-2.962-20.437-6.712
			c-0.873-0.566-1.806-1.143-2.806-1.717v-4.468C125,182.749,135.306,172.458,147.999,172.458z M168.472,237.506
			c-5.781,3.75-10.263,6.712-20.229,6.712c-9.966,0-14.656-2.962-20.437-6.712c-0.873-0.566-1.806-1.143-2.806-1.717v-17.05
			c6,3.049,12.431,5.6,22.993,5.6c10.571,0,18.007-2.555,23.007-5.607v17.05C170,236.357,169.35,236.937,168.472,237.506z"/>
	</g>
</g>
<g>
</g>
<g>
</g>
<g>
</g>
<g>
</g>
<g>
</g>
<g>
</g>
<g>
</g>
<g>
</g>
<g>
</g>
<g>
</g>
<g>
</g>
<g>
</g>
<g>
</g>
<g>
</g>
<g>
</g>
</svg>
