<?xml version="1.0" encoding="iso-8859-1"?>
<!-- Generator: Adobe Illustrator 17.1.0, SVG Export Plug-In . SVG Version: 6.00 Build 0)  -->
<!DOCTYPE svg PUBLIC "-//W3C//DTD SVG 1.1//EN" "http://www.w3.org/Graphics/SVG/1.1/DTD/svg11.dtd">
<svg version="1.1" id="Capa_1" xmlns="http://www.w3.org/2000/svg" xmlns:xlink="http://www.w3.org/1999/xlink" x="0px" y="0px"
	 viewBox="0 0 297 297" style="enable-background:new 0 0 297 297;" xml:space="preserve">
<g>
	<path d="M273.833,0h-250C11.15,0,0.5,10.317,0.5,23v235c0,12.683,10.65,23,23.333,23H32.5v16h34v-16h164v16h34v-16h9.333
		c12.683,0,22.667-10.317,22.667-23V23C296.5,10.317,286.516,0,273.833,0z M263.5,149v76c0,12.683-9.984,23-22.667,23h-184
		C44.15,248,33.5,237.683,33.5,225v-10h-17v-33h17v-82h-17V67h17V56c0-12.683,10.65-23,23.333-23h184
		c12.683,0,22.667,10.317,22.667,23v76h17v17H263.5z"/>
	<path d="M165.5,125v-16.334c0-9.189-7.182-16.666-16.418-16.666h-0.5c-9.235,0-17.082,7.477-17.082,16.666V125H165.5z"/>
	<path d="M247.5,132V56c0-3.859-2.808-7-6.667-7h-184c-3.859,0-7.333,3.141-7.333,7v169c0,3.859,3.474,7,7.333,7h184
		c3.859,0,6.667-3.141,6.667-7v-76h-16v-17H247.5z M189.5,193c0,8.284-6.383,15-14.667,15h-51c-8.284,0-15.333-6.716-15.333-15v-53
		c0-5.34,3-10.015,7-12.673v-18.661C115.5,90.654,130.524,76,148.582,76h0.5c18.059,0,32.418,14.654,32.418,32.666v18.072
		c5,2.516,8,7.507,8,13.262V193z"/>
	<path d="M156.5,168.387c4-2.691,6.833-7.271,6.833-12.471c0-8.283-6.634-15-14.917-15c-8.283,0-15.125,6.717-15.125,15
		c0,5.479,3.208,10.257,7.208,12.875V191h16V168.387z"/>
</g>
<g>
</g>
<g>
</g>
<g>
</g>
<g>
</g>
<g>
</g>
<g>
</g>
<g>
</g>
<g>
</g>
<g>
</g>
<g>
</g>
<g>
</g>
<g>
</g>
<g>
</g>
<g>
</g>
<g>
</g>
</svg>
