<?xml version="1.0" encoding="iso-8859-1"?>
<!-- Generator: Adobe Illustrator 17.1.0, SVG Export Plug-In . SVG Version: 6.00 Build 0)  -->
<!DOCTYPE svg PUBLIC "-//W3C//DTD SVG 1.1//EN" "http://www.w3.org/Graphics/SVG/1.1/DTD/svg11.dtd">
<svg version="1.1" id="Capa_1" xmlns="http://www.w3.org/2000/svg" xmlns:xlink="http://www.w3.org/1999/xlink" x="0px" y="0px"
	 viewBox="0 0 297 297" style="enable-background:new 0 0 297 297;" xml:space="preserve">
<g>
	<path d="M167,153.5v-17.153c0-9.674-8.4-17.847-18.738-17.847h-0.527c-10.146,0-18.734,8.006-18.734,17.847V153.5H167z"/>
	<path d="M274.333,77.5H197v-26c0-12.683-9.984-23-22.667-23h-53C108.65,28.5,98,38.817,98,51.5v26H23.333
		C10.65,77.5,0,87.817,0,100.5v145c0,12.683,10.65,23,23.333,23h251c12.683,0,22.667-10.317,22.667-23v-145
		C297,87.817,287.016,77.5,274.333,77.5z M121.333,44.5h53c3.859,0,6.667,3.141,6.667,7v26h-67v-26
		C114,47.641,117.474,44.5,121.333,44.5z M105,168.5c0-5.755,4-10.746,8-13.262v-18.892c0-18.663,15.766-33.847,34.734-33.847h0.527
		C167.6,102.5,183,117.684,183,136.347v19.48c5,2.658,7,7.333,7,12.673v57c0,8.284-6.383,15-14.667,15h-55
		c-8.284,0-15.333-6.716-15.333-15V168.5z"/>
	<path d="M156,199.393c5-2.828,7.3-7.688,7.3-13.214c0-8.735-7-15.819-15.735-15.819c-8.736,0-15.945,7.084-15.945,15.819
		c0,6.095,3.38,11.376,8.38,14.019V222.5h16V199.393z"/>
</g>
<g>
</g>
<g>
</g>
<g>
</g>
<g>
</g>
<g>
</g>
<g>
</g>
<g>
</g>
<g>
</g>
<g>
</g>
<g>
</g>
<g>
</g>
<g>
</g>
<g>
</g>
<g>
</g>
<g>
</g>
</svg>
