<?xml version="1.0" encoding="iso-8859-1"?>
<!-- Generator: Adobe Illustrator 17.1.0, SVG Export Plug-In . SVG Version: 6.00 Build 0)  -->
<!DOCTYPE svg PUBLIC "-//W3C//DTD SVG 1.1//EN" "http://www.w3.org/Graphics/SVG/1.1/DTD/svg11.dtd">
<svg version="1.1" id="Capa_1" xmlns="http://www.w3.org/2000/svg" xmlns:xlink="http://www.w3.org/1999/xlink" x="0px" y="0px"
	 viewBox="0 0 296.946 296.946" style="enable-background:new 0 0 296.946 296.946;" xml:space="preserve">
<g>
	<path d="M65.296,215.031c-7.813-3.294-14.808-7.093-19.761-7.093c-2.617,0-4.664,1.061-5.963,3.816
		c-2.993,6.352,25.676,21.364,20.252,21.364c-0.527,0-1.375-0.142-2.606-0.446c-15.654-3.88-34.691-22.559-38.927-45.181
		c-2.222-11.854-7.048-15.88-11.148-15.88c-3.726-0.001-6.853,3.321-6.892,7.116c-0.113,11.594,3.875,49.862,13.125,64.931
		c9.253,15.069,51.624,36.354,58.766,43.465c1.699,1.692,5.854,5.994,9.534,9.822h44.996c-6.961-27.193-18.234-46.16-26.199-57.666
		C92.64,227.965,77.685,220.248,65.296,215.031z"/>
	<path d="M289.803,171.612c-4.101,0-8.927,4.026-11.148,15.88c-4.235,22.622-23.272,41.301-38.927,45.181
		c-1.231,0.305-2.079,0.446-2.606,0.446c-5.424,0,23.245-15.013,20.252-21.364c-1.299-2.756-3.346-3.816-5.963-3.816
		c-4.953,0-11.947,3.799-19.761,7.093c-12.389,5.217-27.344,12.934-35.177,24.249c-7.965,11.506-19.238,30.473-26.199,57.666h44.996
		c3.68-3.828,7.835-8.13,9.534-9.822c7.142-7.111,49.513-28.395,58.766-43.465c9.25-15.068,13.238-53.337,13.125-64.931
		C296.657,174.934,293.53,171.611,289.803,171.612z"/>
	<path d="M188.473,223.481v-13.844l-24.811-30.236l3.023-47.424l97.247,35.007l-0.109-38.003l-92.248-63.841l1.725-23.823
		c0.46-6.382-2.207-15.859-5.93-21.064L155.662,3.891c-3.724-5.204-9.786-5.184-13.476,0.042l-11.488,16.279
		c-3.689,5.227-6.336,14.726-5.885,21.106l1.672,23.508l-92.717,64.156l-0.128,38.003l97.607-35.153l3.605,47.832l-23.38,29.975
		v18.08v2.86l1.617-0.905l36.745-22.878l34.781,21.349l3.857,2.434V223.481z"/>
</g>
<g>
</g>
<g>
</g>
<g>
</g>
<g>
</g>
<g>
</g>
<g>
</g>
<g>
</g>
<g>
</g>
<g>
</g>
<g>
</g>
<g>
</g>
<g>
</g>
<g>
</g>
<g>
</g>
<g>
</g>
</svg>
