<?xml version='1.0' encoding='iso-8859-1'?>
<svg version="1.1" xmlns="http://www.w3.org/2000/svg" viewBox="0 0 295.768 295.768" xmlns:xlink="http://www.w3.org/1999/xlink" enable-background="new 0 0 295.768 295.768">
  <path d="m242.85,72.098c-3.82,0-7.543,0.416-11.135,1.189l8.041-34.281h-186.913l8.659,33.798c-2.795-0.458-5.66-0.707-8.583-0.707-29.18,0.001-52.919,23.74-52.919,52.92 0,20.652 12.14,39.141 30.162,47.772v83.973h61.067 14.607 84.094 11.839 63.837v-83.973c18.022-8.632 30.161-27.12 30.161-47.772 0.001-29.18-23.739-52.919-52.917-52.919zm-40.947-3.092l-9.136,38.955c-1.829,5.355-2.836,11.088-2.836,17.055v27.891h-84.094v-27.891c0-9.185-2.355-17.828-6.489-25.364l-7.851-30.647h110.406zm-126.066,157.757h-15.675v-76.824l-11.946-2.484c-10.555-2.196-18.216-11.632-18.216-22.437 0-12.638 10.281-22.919 22.919-22.919 12.637,0 22.918,10.281 22.918,22.919v101.745zm30,0v-43.854h84.094v43.854h-84.094zm141.716-79.309l-11.946,2.484v76.824h-15.676v-101.744c0-12.638 10.281-22.919 22.919-22.919 12.637,0 22.918,10.281 22.918,22.919-5.68434e-14,10.805-7.661,20.241-18.215,22.436z"/>
</svg>
