<?xml version='1.0' encoding='iso-8859-1'?>
<svg version="1.1" xmlns="http://www.w3.org/2000/svg" viewBox="0 0 256.472 256.472" xmlns:xlink="http://www.w3.org/1999/xlink" enable-background="new 0 0 256.472 256.472">
  <path d="m251.569,119.997h-7.256v-119.997h-99.411v49h-20v30h70v-30h-20v-19h39.411v89.997h-202.155-7.256v30h7.256v27.836c0,22.058 12.823,41.171 31.403,50.295l-7.131,7.131 21.213,21.213 22.639-22.639h95.908l22.639,22.639 21.213-21.213-7.131-7.131c18.58-9.124 31.403-28.237 31.403-50.295v-27.836h7.256v-30zm-37.257,57.836c0,14.337-11.663,26-26,26h-120.155c-14.337,0-26-11.663-26-26v-27.836h172.155v27.836z"/>
</svg>
