<?xml version='1.0' encoding='iso-8859-1'?>
<svg version="1.1" xmlns="http://www.w3.org/2000/svg" viewBox="0 0 265 265" xmlns:xlink="http://www.w3.org/1999/xlink" enable-background="new 0 0 265 265">
  <g>
    <path d="m113.086,148.161c-20.903,0-37.91,17.007-37.91,37.911 0,20.903 17.007,37.91 37.91,37.91s37.91-17.007 37.91-37.91c0.001-20.904-17.006-37.911-37.91-37.911zm0,45.821c-4.361,0-7.91-3.549-7.91-7.91 0-4.362 3.549-7.911 7.91-7.911s7.91,3.549 7.91,7.911c0.001,4.362-3.548,7.91-7.91,7.91z"/>
    <path d="M251.42,75.446h-38.826V0H13.58v265h199.015V105.446h38.826V75.446z M182.594,235H43.58V30h139.015v45.446h-22.413   c-6.367-19.943-25.068-34.429-47.095-34.429c-27.255,0-49.429,22.174-49.429,49.429s22.174,49.429,49.429,49.429   c22.027,0,40.728-14.486,47.095-34.429h22.413V235z M125.42,105.446c-3.357,2.765-7.654,4.429-12.333,4.429   c-10.713,0-19.429-8.716-19.429-19.429s8.716-19.429,19.429-19.429c4.679,0,8.976,1.663,12.333,4.429h-12.333v30H125.42z"/>
  </g>
</svg>
