<?xml version='1.0' encoding='iso-8859-1'?>
<svg version="1.1" xmlns="http://www.w3.org/2000/svg" viewBox="0 0 244.563 244.563" xmlns:xlink="http://www.w3.org/1999/xlink" enable-background="new 0 0 244.563 244.563">
  <path d="m223.939,184.517l20.624-20.624-21.213-21.213-20.624,20.624-7.73-7.73 20.624-20.624-21.213-21.213-20.624,20.624-43.611-43.61c4.788-21.33-1.084-44.591-17.651-61.159-25.705-25.705-67.534-25.705-93.241,0-25.706,25.706-25.706,67.534 0,93.241 12.854,12.854 29.737,19.28 46.621,19.28 4.88,0 9.757-0.555 14.54-1.628l93.765,93.765 19.917-19.916 4.95-4.95 24.866-24.867zm-183.447-82.897c-14.009-14.01-14.01-36.806 7.10543e-15-50.815 7.006-7.005 16.205-10.507 25.408-10.507 9.2,0 18.403,3.503 25.407,10.507 14.006,14.007 14.008,36.795 0.009,50.806l-.019,.019c-14.009,14.001-36.795,13.997-50.805-0.01zm72.019,21.222c0.003-0.003 0.007-0.006 0.01-0.009s0.006-0.007 0.009-0.01l3.644-3.645 65.339,65.339-7.308,7.307-65.338-65.338 3.644-3.644z"/>
</svg>
