<?xml version='1.0' encoding='iso-8859-1'?>
<svg version="1.1" xmlns="http://www.w3.org/2000/svg" viewBox="0 0 236 236" xmlns:xlink="http://www.w3.org/1999/xlink" enable-background="new 0 0 236 236">
  <g>
    <path d="M165.792,166.899c26.387-33.541,39.214-59.675,39.214-79.894C205.005,39.03,165.975,0,118,0   C70.025,0,30.995,39.03,30.995,87.006c0,20.219,12.827,46.353,39.213,79.894C84.4,184.941,98.432,199.825,104.42,206H58.283v30   h119.435v-30h-46.139C137.566,199.825,151.599,184.941,165.792,166.899z M60.995,87.006C60.995,55.572,86.567,30,118,30   c31.434,0,57.006,25.572,57.006,57.006c0,21.286-31.6,62.386-57.01,89.794C92.585,149.411,60.995,108.332,60.995,87.006z"/>
    <path d="m158.237,88.563c0-22.187-18.051-40.237-40.237-40.237s-40.238,18.05-40.238,40.237 18.051,40.237 40.238,40.237 40.237-18.051 40.237-40.237zm-50.475,0c0-5.645 4.593-10.237 10.237-10.237s10.237,4.593 10.237,10.237-4.592,10.237-10.236,10.237-10.238-4.593-10.238-10.237z"/>
  </g>
</svg>
