<?xml version='1.0' encoding='iso-8859-1'?>
<svg version="1.1" xmlns="http://www.w3.org/2000/svg" viewBox="0 0 249.191 249.191" xmlns:xlink="http://www.w3.org/1999/xlink" enable-background="new 0 0 249.191 249.191">
  <g>
    <polygon points="98.541,104.704 77.328,125.917 118.089,166.679 171.863,112.904 150.65,91.691 118.089,124.253  "/>
    <path d="m205.336,36.764c-3.589,0.742-7.279,1.119-10.971,1.119-20.437,0-38.86-11.356-48.079-29.638l-4.159-8.245h-35.063l-4.158,8.245c-9.221,18.281-27.644,29.638-48.08,29.638-3.692,0-7.383-0.377-10.97-1.119l-18.041-3.735v125.14c0,21.029 15.882,41.869 48.554,63.71 21.753,14.541 43.207,24.179 44.109,24.582l6.117,2.731 6.117-2.731c0.902-0.403 22.356-10.041 44.109-24.582 32.673-21.841 48.555-42.681 48.555-63.71v-125.14l-18.04,3.735zm-11.96,121.404c0,3.552-2.519,16.83-34.925,38.567-13.084,8.776-26.374,15.725-33.856,19.416-7.484-3.692-20.772-10.641-33.855-19.416-32.406-21.737-34.925-35.016-34.925-38.567v-90.291c28.028-0.323 53.519-14.353 68.78-37.352 15.262,23 40.752,37.028 68.781,37.352v90.291z"/>
  </g>
</svg>
