<?xml version="1.0" encoding="iso-8859-1"?>
<!-- Generator: Adobe Illustrator 19.0.0, SVG Export Plug-In . SVG Version: 6.00 Build 0)  -->
<svg xmlns="http://www.w3.org/2000/svg" xmlns:xlink="http://www.w3.org/1999/xlink" version="1.1" id="Capa_1" x="0px" y="0px" viewBox="0 0 512 512" style="enable-background:new 0 0 512 512;" xml:space="preserve">
<g>
	<path style="fill:#A0D860;" d="M68.498,480.419l115.304-43.101c2.553-0.954,4.114-2.976,4.114-5.335V100.751   c0-2.162-1.313-4.063-3.529-5.115L68.498,40.65V480.419z"/>
	<path style="fill:#A0D860;" d="M443.473,480.419l-115.304-43.101c-2.553-0.954-4.114-2.976-4.114-5.335V100.751   c0-2.162,1.313-4.063,3.529-5.115L443.473,40.65V480.419z"/>
</g>
<g>
	<path style="fill:#F7F9F9;" d="M357.777,248.827V123.134c0-0.425,0.253-0.802,0.68-1.016l52.377-26.198   c1.025-0.513,2.466,0.248,2.466,1.3v152.013c0,0.71-0.693,1.281-1.55,1.275l-52.314-0.339   C358.52,250.163,357.777,249.562,357.777,248.827z"/>
	<path style="fill:#F7F9F9;" d="M413.299,277.376v153.236c0,1.005-1.326,1.768-2.36,1.358l-52.37-20.804   c-0.492-0.196-0.793-0.597-0.793-1.061V277.982c0-0.735,0.743-1.339,1.66-1.348l52.314-0.527   C412.607,276.098,413.299,276.667,413.299,277.376z"/>
</g>
<g>
	<path style="fill:#E4E4E4;" d="M410.834,95.92l-31.255,15.633v137.679c0,0.444-0.272,0.834-0.685,1.063l32.856,0.213   c0.856,0.006,1.55-0.565,1.55-1.275V97.22C413.299,96.168,411.859,95.407,410.834,95.92z"/>
	<path style="fill:#E4E4E4;" d="M411.75,276.106l-32.679,0.329c0.31,0.232,0.508,0.565,0.508,0.941v142.135l31.361,12.458   c1.034,0.411,2.36-0.353,2.36-1.358V277.376C413.299,276.667,412.607,276.098,411.75,276.106z"/>
</g>
<path style="fill:#0072A2;" d="M484.151,11.907C484.151,5.331,478.82,0,472.243,0H39.755c-6.576,0-11.907,5.331-11.907,11.907  v468.512h40.65V40.65H443.5v439.769h40.651V11.907z"/>
<path style="fill:#006289;" d="M472.243,0h-34.731c6.576,0,11.907,5.331,11.907,11.907v468.512h34.731V11.907  C484.151,5.331,478.82,0,472.243,0z"/>
<path style="fill:#FCE995;" d="M154.195,248.827V123.134c0-0.425-0.253-0.802-0.68-1.016L101.137,95.92  c-1.025-0.513-2.466,0.248-2.466,1.3v152.013c0,0.71,0.693,1.281,1.55,1.275l52.314-0.339  C153.451,250.163,154.195,249.562,154.195,248.827z"/>
<g>
	<path style="fill:#F7F9F9;" d="M98.671,277.376v153.236c0,1.005,1.326,1.768,2.36,1.358l52.37-20.804   c0.492-0.196,0.793-0.597,0.793-1.061V277.982c0-0.735-0.743-1.339-1.66-1.348l-52.314-0.527   C99.364,276.098,98.671,276.667,98.671,277.376z"/>
	<path style="fill:#F7F9F9;" d="M154.195,248.827V123.134c0-0.425-0.253-0.802-0.68-1.016L101.137,95.92   c-1.025-0.513-2.466,0.248-2.466,1.3v152.013c0,0.71,0.693,1.281,1.55,1.275l52.314-0.339   C153.451,250.163,154.195,249.562,154.195,248.827z"/>
</g>
<g>
	<path style="fill:#E4E4E4;" d="M154.195,123.134c0-0.212-0.063-0.413-0.18-0.587c-0.117-0.174-0.287-0.322-0.5-0.429l-13.797-6.901   l-20.254-10.131v143.74c0,0.251-0.088,0.863-0.239,1.558l33.311-0.216c0.229-0.001,0.447-0.04,0.646-0.109   c0.298-0.103,0.551-0.274,0.73-0.487c0.179-0.214,0.283-0.471,0.283-0.746L154.195,123.134L154.195,123.134z"/>
	<path style="fill:#E4E4E4;" d="M152.535,276.633l-33.072-0.333v148.348l33.939-13.482c0.492-0.196,0.793-0.597,0.793-1.061V277.982   C154.195,277.246,153.451,276.642,152.535,276.633z"/>
</g>
<path style="fill:#D96B37;" d="M496.995,512H15.004c-5.09,0-9.216-4.126-9.216-9.216v-20.227c0-5.09,4.126-9.216,9.216-9.216  h481.991c5.09,0,9.216,4.126,9.216,9.216v20.227C506.211,507.874,502.085,512,496.995,512z"/>
<path style="fill:#B14418;" d="M496.995,473.322H471.48v38.659h25.516c5.09,0,9.216-4.126,9.216-9.216v-20.227  C506.211,477.448,502.085,473.322,496.995,473.322z"/>
<g>
</g>
<g>
</g>
<g>
</g>
<g>
</g>
<g>
</g>
<g>
</g>
<g>
</g>
<g>
</g>
<g>
</g>
<g>
</g>
<g>
</g>
<g>
</g>
<g>
</g>
<g>
</g>
<g>
</g>
</svg>
