<?xml version="1.0" encoding="iso-8859-1"?>
<!-- Generator: Adobe Illustrator 19.0.0, SVG Export Plug-In . SVG Version: 6.00 Build 0)  -->
<svg xmlns="http://www.w3.org/2000/svg" xmlns:xlink="http://www.w3.org/1999/xlink" version="1.1" id="Capa_1" x="0px" y="0px" viewBox="0 0 512 512" style="enable-background:new 0 0 512 512;" xml:space="preserve">
<path style="fill:#A0D860;" d="M386.279,512H125.721c-18.365,0-33.252-14.888-33.252-33.252V33.252  C92.468,14.888,107.356,0,125.721,0H386.28c18.365,0,33.252,14.888,33.252,33.252v445.495C419.532,497.112,404.644,512,386.279,512z  "/>
<path style="fill:#61C979;" d="M386.279,0h-36.096c18.365,0,33.252,14.888,33.252,33.252v445.495  c0,18.365-14.888,33.252-33.252,33.252h36.096c18.365,0,33.252-14.888,33.252-33.252V33.252C419.532,14.888,404.644,0,386.279,0z"/>
<g>
	<path style="fill:#FF4D4A;" d="M174.743,359.231h-30.934c-9.337,0-16.906-7.569-16.906-16.906v-20.862   c0-9.337,7.569-16.906,16.906-16.906h30.934c9.337,0,16.906,7.569,16.906,16.906v20.862   C191.648,351.662,184.079,359.231,174.743,359.231z"/>
	<path style="fill:#FF4D4A;" d="M271.467,359.231h-30.934c-9.337,0-16.906-7.569-16.906-16.906v-20.862   c0-9.337,7.569-16.906,16.906-16.906h30.934c9.337,0,16.906,7.569,16.906,16.906v20.862   C288.372,351.662,280.803,359.231,271.467,359.231z"/>
	<path style="fill:#FF4D4A;" d="M368.191,359.231h-30.934c-9.337,0-16.906-7.569-16.906-16.906v-20.862   c0-9.337,7.569-16.906,16.906-16.906h30.934c9.337,0,16.906,7.569,16.906,16.906v20.862   C385.096,351.662,377.528,359.231,368.191,359.231z"/>
	<path style="fill:#FF4D4A;" d="M174.743,451.781h-30.934c-9.337,0-16.906-7.569-16.906-16.906v-20.862   c0-9.337,7.569-16.906,16.906-16.906h30.934c9.337,0,16.906,7.569,16.906,16.906v20.862   C191.648,444.212,184.079,451.781,174.743,451.781z"/>
	<path style="fill:#FF4D4A;" d="M271.467,451.781h-30.934c-9.337,0-16.906-7.569-16.906-16.906v-20.862   c0-9.337,7.569-16.906,16.906-16.906h30.934c9.337,0,16.906,7.569,16.906,16.906v20.862   C288.372,444.212,280.803,451.781,271.467,451.781z"/>
	<path style="fill:#FF4D4A;" d="M368.191,451.781h-30.934c-9.337,0-16.906-7.569-16.906-16.906v-20.862   c0-9.337,7.569-16.906,16.906-16.906h30.934c9.337,0,16.906,7.569,16.906,16.906v20.862   C385.096,444.212,377.528,451.781,368.191,451.781z"/>
</g>
<path style="fill:#FFFCFD;" d="M368.478,255.878H143.522c-6.961,0-12.603-5.643-12.603-12.603V46.321  c0-6.961,5.643-12.603,12.603-12.603h224.956c6.961,0,12.603,5.643,12.603,12.603v196.953  C381.081,250.235,375.439,255.878,368.478,255.878z"/>
<path style="fill:#E4E4E4;" d="M368.478,33.717h-34.674c6.961,0,12.603,5.643,12.603,12.603v181.701  c0,5.294-4.292,9.586-9.586,9.586H130.919v5.666c0,6.961,5.643,12.603,12.603,12.603h190.282h34.674  c6.961,0,12.603-5.643,12.603-12.603v-28.621V46.321C381.082,39.36,375.439,33.717,368.478,33.717z"/>
<path style="fill:#FFB427;" d="M255.149,67.332l-81.855,71.238c-0.923,0.804-0.355,2.322,0.869,2.322h18.888v80.812  c0,2.05,1.662,3.713,3.713,3.713h118.473c2.051,0,3.713-1.662,3.713-3.713v-80.812h18.888c1.224,0,1.792-1.519,0.869-2.322  l-81.855-71.238C256.363,66.907,255.637,66.907,255.149,67.332z"/>
<rect x="228.92" y="154.19" style="fill:#D96B37;" width="52.41" height="71.23"/>
<rect x="253.91" y="154.19" style="fill:#B14418;" width="27.423" height="71.23"/>
<g>
</g>
<g>
</g>
<g>
</g>
<g>
</g>
<g>
</g>
<g>
</g>
<g>
</g>
<g>
</g>
<g>
</g>
<g>
</g>
<g>
</g>
<g>
</g>
<g>
</g>
<g>
</g>
<g>
</g>
</svg>
