<?xml version="1.0" encoding="iso-8859-1"?>
<!-- Generator: Adobe Illustrator 19.0.0, SVG Export Plug-In . SVG Version: 6.00 Build 0)  -->
<svg xmlns="http://www.w3.org/2000/svg" xmlns:xlink="http://www.w3.org/1999/xlink" version="1.1" id="Capa_1" x="0px" y="0px" viewBox="0 0 512 512" style="enable-background:new 0 0 512 512;" xml:space="preserve">
<g>
	<path style="fill:#FFB427;" d="M381.226,221.014c-6.102,0-12.205-2.328-16.86-6.984C335.42,185.085,296.935,169.143,256,169.143   s-79.42,15.941-108.366,44.887c-9.312,9.312-24.409,9.312-33.721,0s-9.312-24.409,0-33.721   c37.953-37.953,88.413-58.854,142.087-58.854c53.673,0,104.134,20.902,142.087,58.854c9.312,9.312,9.312,24.409,0,33.721   C393.431,218.686,387.328,221.014,381.226,221.014z"/>
	<path style="fill:#FFB427;" d="M439.864,150.79c-6.102,0-12.205-2.328-16.86-6.984C378.395,99.198,319.086,74.631,256,74.631   S133.604,99.198,88.996,143.806c-9.312,9.312-24.409,9.312-33.721,0s-9.312-24.409,0-33.721   C108.891,56.47,180.176,26.943,256,26.943c75.823,0,147.109,29.527,200.725,83.143c9.312,9.312,9.312,24.409,0,33.721   C452.069,148.463,445.966,150.79,439.864,150.79z"/>
	<path style="fill:#FFB427;" d="M325.683,291.04c-6.102,0-12.205-2.328-16.86-6.984c-29.125-29.125-76.517-29.126-105.645,0   c-9.312,9.312-24.409,9.312-33.721,0c-9.312-9.312-9.312-24.409,0-33.721c47.721-47.72,125.367-47.72,173.087,0   c9.312,9.312,9.312,24.409,0,33.721C337.887,288.712,331.785,291.04,325.683,291.04z"/>
</g>
<path style="fill:#A0D860;" d="M479.441,485.057H27.581C12.349,485.057,0,472.708,0,457.476V369.58  c0-15.233,12.349-27.581,27.581-27.581h451.86c17.982,0,32.559,14.577,32.559,32.559v77.941  C512,470.48,497.423,485.057,479.441,485.057z"/>
<path style="fill:#61C979;" d="M479.441,341.999h-4.919v73.023c0,17.982-14.577,32.558-32.559,32.558H0v9.896  c0,15.233,12.349,27.581,27.581,27.581h451.86c17.982,0,32.559-14.577,32.559-32.559v-77.941  C512,356.576,497.423,341.999,479.441,341.999z"/>
<g>
	<circle style="fill:#FFFFFF;" cx="91.34" cy="413.53" r="32.959"/>
	<path style="fill:#FFFFFF;" d="M441.197,436.501H200.59c-6.857,0-12.416-5.559-12.416-12.416v-21.114   c0-6.857,5.559-12.416,12.416-12.416h240.607c6.857,0,12.416,5.559,12.416,12.416v21.114   C453.613,430.942,448.054,436.501,441.197,436.501z"/>
</g>
<g>
	<path style="fill:#FF9D00;" d="M256,214.545v47.667c19.13,0,38.26,7.281,52.823,21.844c4.656,4.656,10.758,6.984,16.86,6.984   s12.205-2.328,16.86-6.984c9.312-9.312,9.312-24.409,0-33.721C318.683,226.475,287.342,214.545,256,214.545z"/>
	<path style="fill:#FF9D00;" d="M256,121.455v47.688c40.935,0,79.42,15.941,108.366,44.887c4.656,4.656,10.758,6.984,16.86,6.984   c6.102,0,12.205-2.328,16.86-6.984c9.312-9.312,9.312-24.409,0-33.721C360.134,142.357,309.673,121.455,256,121.455z"/>
	<path style="fill:#FF9D00;" d="M256,26.943L256,26.943v47.688l0,0c63.086,0,122.395,24.567,167.004,69.175   c4.656,4.656,10.758,6.984,16.86,6.984s12.205-2.328,16.86-6.984c9.312-9.312,9.312-24.409,0-33.721   C403.109,56.47,331.823,26.943,256,26.943z"/>
</g>
<g>
</g>
<g>
</g>
<g>
</g>
<g>
</g>
<g>
</g>
<g>
</g>
<g>
</g>
<g>
</g>
<g>
</g>
<g>
</g>
<g>
</g>
<g>
</g>
<g>
</g>
<g>
</g>
<g>
</g>
</svg>
