<?xml version="1.0" encoding="iso-8859-1"?>
<!-- Generator: Adobe Illustrator 19.0.0, SVG Export Plug-In . SVG Version: 6.00 Build 0)  -->
<svg xmlns="http://www.w3.org/2000/svg" xmlns:xlink="http://www.w3.org/1999/xlink" version="1.1" id="Capa_1" x="0px" y="0px" viewBox="0 0 512 512" style="enable-background:new 0 0 512 512;" xml:space="preserve">
<g>
	<path style="fill:#D96B37;" d="M504.659,353.018H7.341c-4.054,0-7.341-3.286-7.341-7.341v-41.756c0-4.054,3.287-7.341,7.341-7.341   h497.318c4.054,0,7.341,3.287,7.341,7.341v41.756C512,349.732,508.713,353.018,504.659,353.018z"/>
	<path style="fill:#D96B37;" d="M504.659,247.19H7.341c-4.054,0-7.341-3.286-7.341-7.34v-41.756c0-4.054,3.287-7.341,7.341-7.341   h497.318c4.054,0,7.341,3.287,7.341,7.341v41.756C512,243.904,508.713,247.19,504.659,247.19z"/>
</g>
<g>
	<path style="fill:#B14418;" d="M504.659,247.19H7.341c-4.054,0-7.341-3.286-7.341-7.34v-35.543c0,4.054,3.287,7.341,7.341,7.341   h497.318c4.054,0,7.341-3.287,7.341-7.341v35.543C512,243.904,508.713,247.19,504.659,247.19z"/>
	<path style="fill:#B14418;" d="M504.659,353.018H7.341c-4.054,0-7.341-3.287-7.341-7.341v-35.543c0,4.054,3.287,7.341,7.341,7.341   h497.318c4.054,0,7.341-3.287,7.341-7.341v35.543C512,349.732,508.713,353.018,504.659,353.018z"/>
</g>
<path style="fill:#FFB427;" d="M66.053,111.382L66.053,111.382c-21.723,0-39.333,17.61-39.333,39.333v249.903h78.666V150.715  C105.385,128.992,87.775,111.382,66.053,111.382z"/>
<path style="fill:#FF9D00;" d="M66.052,111.382L66.052,111.382c-6.415,0-12.466,1.546-17.816,4.27  c12.766,6.5,21.517,19.755,21.517,35.063v249.903h35.633V150.715C105.385,128.992,87.775,111.382,66.052,111.382z"/>
<g>
	<path style="fill:#FFB427;" d="M192.684,111.382L192.684,111.382c-21.723,0-39.333,17.61-39.333,39.333v249.903h78.666V150.715   C232.017,128.992,214.407,111.382,192.684,111.382z"/>
	<path style="fill:#FFB427;" d="M319.316,111.382L319.316,111.382c-21.723,0-39.333,17.61-39.333,39.333v249.903h78.666V150.715   C358.649,128.992,341.039,111.382,319.316,111.382z"/>
	<path style="fill:#FFB427;" d="M445.948,111.382L445.948,111.382c-21.723,0-39.333,17.61-39.333,39.333v249.903h78.666V150.715   C485.28,128.992,467.671,111.382,445.948,111.382z"/>
</g>
<g>
	<path style="fill:#FF9D00;" d="M192.684,111.382L192.684,111.382c-6.415,0-12.466,1.546-17.816,4.27   c12.766,6.5,21.517,19.755,21.517,35.063v249.903h35.633V150.715C232.017,128.992,214.407,111.382,192.684,111.382z"/>
	<path style="fill:#FF9D00;" d="M319.316,111.382L319.316,111.382c-6.415,0-12.466,1.546-17.816,4.27   c12.766,6.5,21.517,19.755,21.517,35.063v249.903h35.633V150.715C358.649,128.992,341.039,111.382,319.316,111.382z"/>
	<path style="fill:#FF9D00;" d="M445.948,111.382L445.948,111.382c-6.415,0-12.466,1.546-17.816,4.27   c12.766,6.5,21.517,19.755,21.517,35.063v249.903h35.633V150.715C485.28,128.992,467.671,111.382,445.948,111.382z"/>
</g>
<g>
</g>
<g>
</g>
<g>
</g>
<g>
</g>
<g>
</g>
<g>
</g>
<g>
</g>
<g>
</g>
<g>
</g>
<g>
</g>
<g>
</g>
<g>
</g>
<g>
</g>
<g>
</g>
<g>
</g>
</svg>
