<?xml version="1.0" encoding="iso-8859-1"?>
<!-- Generator: Adobe Illustrator 19.0.0, SVG Export Plug-In . SVG Version: 6.00 Build 0)  -->
<svg xmlns="http://www.w3.org/2000/svg" xmlns:xlink="http://www.w3.org/1999/xlink" version="1.1" id="Capa_1" x="0px" y="0px" viewBox="0 0 512 512" style="enable-background:new 0 0 512 512;" xml:space="preserve">
<path style="fill:#FF4D4A;" d="M212.711,81.573L209.9,5.284C209.782,2.332,207.355,0,204.401,0h-18.755  c-2.954,0-5.381,2.332-5.499,5.284l-2.811,76.289H212.711z"/>
<path style="fill:#E13F33;" d="M204.401,0h-9.377v81.573h17.688L209.9,5.284C209.782,2.332,207.355,0,204.401,0z"/>
<path style="fill:#0072A2;" d="M410.443,512H101.557c-12.914,0-22.287-9.245-18.872-18.615l29.259-80.264  c3.024-8.296,13.048-14.047,24.483-14.047h239.146c11.435,0,21.458,5.751,24.483,14.047l29.259,80.264  C432.73,502.755,423.357,512,410.443,512z"/>
<path style="fill:#006289;" d="M429.315,493.385l-29.259-80.264c-3.024-8.296-13.048-14.047-24.483-14.047h-17.098l34.422,94.311  c3.416,9.37-5.957,18.615-18.872,18.615h36.418C423.357,512,432.73,502.755,429.315,493.385z"/>
<path style="fill:#F7F9F9;" d="M342.791,485.242H169.209c-3.6,0-6.518-2.918-6.518-6.518v-7.547c0-3.6,2.918-6.518,6.518-6.518  h173.583c3.6,0,6.518,2.918,6.518,6.518v7.547C349.309,482.324,346.391,485.242,342.791,485.242z"/>
<path style="fill:#A0D860;" d="M333.197,435.329c10.314,0,18.758-8.203,19.056-18.512l9.454-326.402  c0.242-8.126-6.28-14.845-14.41-14.845H164.703c-8.13,0-14.652,6.719-14.41,14.845l9.454,326.402  c0.299,10.31,8.742,18.512,19.056,18.512H333.197z"/>
<path style="fill:#61C979;" d="M347.297,75.569h-34.213c8.13,0,14.652,6.719,14.41,14.845l-9.454,326.402  c-0.299,10.31-8.742,18.512-19.056,18.512h34.213c10.314,0,18.758-8.203,19.056-18.512l9.453-326.402  C361.949,82.288,355.427,75.569,347.297,75.569z"/>
<path style="fill:#FF8B00;" d="M192.754,183.188h126.491c3.761,0,6.842-2.99,6.953-6.75l1.809-60.773  c0.117-3.921-3.03-7.163-6.953-7.163H190.946c-3.923,0-7.07,3.242-6.954,7.163l1.809,60.773  C185.913,180.198,188.993,183.188,192.754,183.188z"/>
<path style="fill:#FF6900;" d="M321.054,108.501h-26.303l-1.719,67.937c-0.112,3.76-3.192,6.75-6.953,6.75h33.167  c3.761,0,6.842-2.99,6.953-6.75l1.809-60.773C328.125,111.744,324.978,108.501,321.054,108.501z"/>
<g>
	<path style="fill:#FF4D4A;" d="M218.428,269.23h-27.637c-1.308,0-2.378-1.04-2.416-2.347l-0.85-29.536   c-0.039-1.361,1.054-2.486,2.416-2.486h28.045c1.321,0,2.397,1.06,2.417,2.381l0.442,29.536   C220.865,268.126,219.777,269.23,218.428,269.23z"/>
	<path style="fill:#FF4D4A;" d="M269.819,269.23h-27.638c-1.328,0-2.408-1.072-2.417-2.4l-0.204-29.536   c-0.009-1.341,1.076-2.434,2.417-2.434h28.046c1.341,0,2.426,1.092,2.417,2.434l-0.204,29.536   C272.227,268.158,271.147,269.23,269.819,269.23z"/>
	<path style="fill:#FF4D4A;" d="M321.209,269.23h-27.637c-1.349,0-2.437-1.104-2.417-2.453l0.442-29.536   c0.02-1.32,1.096-2.381,2.417-2.381h28.045c1.362,0,2.455,1.125,2.416,2.486l-0.85,29.536   C323.588,268.19,322.517,269.23,321.209,269.23z"/>
	<path style="fill:#FF4D4A;" d="M219.188,326.194h-26.935c-1.308,0-2.378-1.04-2.416-2.347l-0.807-28.054   c-0.039-1.361,1.054-2.486,2.416-2.486h27.323c1.321,0,2.397,1.06,2.417,2.381l0.42,28.054   C221.624,325.09,220.536,326.194,219.188,326.194z"/>
	<path style="fill:#FF4D4A;" d="M269.468,326.194h-26.936c-1.328,0-2.408-1.072-2.417-2.4l-0.194-28.054   c-0.009-1.341,1.076-2.434,2.417-2.434h27.324c1.341,0,2.426,1.092,2.417,2.434l-0.194,28.054   C271.876,325.122,270.797,326.194,269.468,326.194z"/>
	<path style="fill:#FF4D4A;" d="M319.748,326.194h-26.935c-1.349,0-2.437-1.104-2.417-2.453l0.42-28.054   c0.02-1.321,1.096-2.381,2.417-2.381h27.323c1.362,0,2.455,1.125,2.416,2.486l-0.807,28.054   C322.126,325.154,321.055,326.194,319.748,326.194z"/>
	<path style="fill:#FF4D4A;" d="M219.915,383.067h-26.263c-1.308,0-2.378-1.04-2.416-2.347l-0.768-26.666   c-0.039-1.362,1.054-2.486,2.416-2.486h26.632c1.321,0,2.397,1.06,2.417,2.381l0.399,26.666   C222.352,381.963,221.264,383.067,219.915,383.067z"/>
	<path style="fill:#FF4D4A;" d="M269.132,383.067h-26.264c-1.328,0-2.408-1.072-2.417-2.4L240.267,354   c-0.009-1.341,1.076-2.434,2.417-2.434h26.633c1.341,0,2.426,1.092,2.417,2.434l-0.184,26.666   C271.54,381.995,270.461,383.067,269.132,383.067z"/>
	<path style="fill:#FF4D4A;" d="M318.348,383.067h-26.263c-1.349,0-2.437-1.104-2.417-2.453l0.399-26.666   c0.02-1.321,1.096-2.381,2.417-2.381h26.632c1.362,0,2.455,1.125,2.416,2.486l-0.768,26.666   C320.726,382.027,319.656,383.067,318.348,383.067z"/>
</g>
<g>
</g>
<g>
</g>
<g>
</g>
<g>
</g>
<g>
</g>
<g>
</g>
<g>
</g>
<g>
</g>
<g>
</g>
<g>
</g>
<g>
</g>
<g>
</g>
<g>
</g>
<g>
</g>
<g>
</g>
</svg>
