<?xml version="1.0" encoding="iso-8859-1"?>
<!-- Generator: Adobe Illustrator 19.0.0, SVG Export Plug-In . SVG Version: 6.00 Build 0)  -->
<svg xmlns="http://www.w3.org/2000/svg" xmlns:xlink="http://www.w3.org/1999/xlink" version="1.1" id="Capa_1" x="0px" y="0px" viewBox="0 0 512 512" style="enable-background:new 0 0 512 512;" xml:space="preserve">
<path style="fill:#0072A2;" d="M34.25,6.375v470.459h443.5V6.375c0-3.521-2.854-6.375-6.375-6.375H40.625  C37.104,0,34.25,2.854,34.25,6.375z"/>
<path style="fill:#006289;" d="M471.375,0h-32.899c3.521,0,6.375,2.854,6.375,6.375v26.523v443.936h32.899V6.375  C477.75,2.854,474.896,0,471.375,0z"/>
<polygon style="fill:#A0D860;" points="256,272.285 67.149,272.285 67.149,476.834 256,476.834 444.851,476.834 444.851,272.285 "/>
<path style="fill:#F7F9F9;" d="M90.153,447.438V260.655c0-3.531,2.862-6.393,6.393-6.393h142.065c3.531,0,6.393,2.862,6.393,6.393  v186.783c0,3.531-2.862,6.393-6.393,6.393H96.546C93.015,453.83,90.153,450.968,90.153,447.438z"/>
<path style="fill:#E4E4E4;" d="M238.611,254.262h-34.256c3.531,0,6.393,2.862,6.393,6.393v186.783c0,3.531-2.862,6.393-6.393,6.393  h34.256c3.531,0,6.393-2.862,6.393-6.393V260.655C245.004,257.124,242.142,254.262,238.611,254.262z"/>
<path style="fill:#F7F9F9;" d="M266.996,447.438V260.655c0-3.531,2.862-6.393,6.393-6.393h142.065c3.531,0,6.393,2.862,6.393,6.393  v186.783c0,3.531-2.862,6.393-6.393,6.393H273.389C269.858,453.83,266.996,450.968,266.996,447.438z"/>
<path style="fill:#E4E4E4;" d="M415.454,254.262h-34c3.531,0,6.393,2.862,6.393,6.393v186.783c0,3.531-2.862,6.393-6.393,6.393h34  c3.531,0,6.393-2.862,6.393-6.393V260.655C421.847,257.124,418.985,254.262,415.454,254.262z"/>
<path style="fill:#D96B37;" d="M502.231,512H9.769c-3.193,0-5.782-2.589-5.782-5.782v-27.373c0-3.193,2.589-5.782,5.782-5.782  H502.23c3.193,0,5.782,2.589,5.782,5.782v27.373C508.013,509.411,505.424,512,502.231,512z"/>
<g>
	<path style="fill:#FFBF14;" d="M444.851,80.776H67.149V38.791c0-3.255,2.638-5.893,5.893-5.893h365.916   c3.254,0,5.893,2.638,5.893,5.893L444.851,80.776L444.851,80.776z"/>
	<rect x="67.15" y="80.78" style="fill:#FFBF14;" width="377.7" height="47.877"/>
	<rect x="67.15" y="128.65" style="fill:#FFBF14;" width="377.7" height="47.877"/>
	<rect x="67.15" y="176.53" style="fill:#FFBF14;" width="377.7" height="47.877"/>
	<rect x="67.15" y="224.41" style="fill:#FFBF14;" width="377.7" height="47.877"/>
</g>
<path style="fill:#FFB427;" d="M438.958,32.898H73.042c-3.255,0-5.893,2.638-5.893,5.893v41.984v47.877v47.877v47.877v47.877  h377.702v-47.877V176.53v-47.877V80.776V38.791C444.851,35.537,442.212,32.898,438.958,32.898z"/>
<g>
	<rect x="67.15" y="68.23" style="fill:#FF9D00;" width="377.7" height="12.544"/>
	<rect x="67.15" y="163.99" style="fill:#FF9D00;" width="377.7" height="12.544"/>
	<rect x="67.15" y="116.11" style="fill:#FF9D00;" width="377.7" height="12.544"/>
	<rect x="67.15" y="259.74" style="fill:#FF9D00;" width="377.7" height="12.544"/>
	<rect x="67.15" y="211.86" style="fill:#FF9D00;" width="377.7" height="12.544"/>
</g>
<path style="fill:#FF4D4A;" d="M391.765,355.886h-3c-6.774,0-12.265-5.491-12.265-12.265V32.899h27.53v310.723  C404.03,350.395,398.539,355.886,391.765,355.886z"/>
<path style="fill:#E13F33;" d="M390.265,32.898v322.987h1.5c6.774,0,12.265-5.491,12.265-12.265V32.898H390.265z"/>
<path style="fill:#B14418;" d="M502.231,473.063h-28.475V512h28.475c3.193,0,5.782-2.589,5.782-5.782v-27.373  C508.013,475.651,505.424,473.063,502.231,473.063z"/>
<g>
</g>
<g>
</g>
<g>
</g>
<g>
</g>
<g>
</g>
<g>
</g>
<g>
</g>
<g>
</g>
<g>
</g>
<g>
</g>
<g>
</g>
<g>
</g>
<g>
</g>
<g>
</g>
<g>
</g>
</svg>
