<?xml version="1.0" encoding="iso-8859-1"?>
<!-- Generator: Adobe Illustrator 19.0.0, SVG Export Plug-In . SVG Version: 6.00 Build 0)  -->
<svg xmlns="http://www.w3.org/2000/svg" xmlns:xlink="http://www.w3.org/1999/xlink" version="1.1" id="Capa_1" x="0px" y="0px" viewBox="0 0 512 512" style="enable-background:new 0 0 512 512;" xml:space="preserve">
<path style="fill:#FFB427;" d="M147.732,250.916L147.732,250.916v-98.415c0-59.699,48.569-108.268,108.268-108.268  s108.268,48.569,108.268,108.268v98.415l0,0h44.233l0,0v-98.415C408.501,68.412,340.089,0,256,0S103.499,68.412,103.499,152.501  v98.415l0,0L147.732,250.916L147.732,250.916z"/>
<path style="fill:#FF9D00;" d="M364.268,152.501v98.415l0,0h44.233l0,0v-98.415C408.501,68.412,340.089,0,256,0v44.233  C315.699,44.233,364.268,92.802,364.268,152.501z"/>
<path style="fill:#A0D860;" d="M426.492,512H85.508c-9.393,0-17.007-7.614-17.007-17.007V256.127  c0-9.393,7.614-17.007,17.007-17.007h340.985c9.393,0,17.007,7.614,17.007,17.007v238.865C443.5,504.386,435.885,512,426.492,512z"/>
<path style="fill:#61C979;" d="M426.493,239.12h-19.608v219.257c0,9.393-7.614,17.007-17.007,17.007H68.5v19.608  c0,9.393,7.614,17.007,17.007,17.007h340.985c9.393,0,17.007-7.614,17.007-17.007V256.127  C443.5,246.735,435.885,239.12,426.493,239.12z"/>
<g>
	<path style="fill:#0072A2;" d="M368.525,323.048h-225.05c-8.878,0-16.075-7.197-16.075-16.075l0,0   c0-8.878,7.197-16.075,16.075-16.075h225.051c8.878,0,16.075,7.197,16.075,16.075l0,0   C384.601,315.851,377.404,323.048,368.525,323.048z"/>
	<path style="fill:#0072A2;" d="M368.525,391.635h-225.05c-8.878,0-16.075-7.197-16.075-16.075l0,0   c0-8.878,7.197-16.075,16.075-16.075h225.051c8.878,0,16.075,7.197,16.075,16.075l0,0   C384.601,384.438,377.404,391.635,368.525,391.635z"/>
	<path style="fill:#0072A2;" d="M368.525,460.222h-225.05c-8.878,0-16.075-7.197-16.075-16.075l0,0   c0-8.878,7.197-16.075,16.075-16.075h225.051c8.878,0,16.075,7.197,16.075,16.075l0,0   C384.601,453.025,377.404,460.222,368.525,460.222z"/>
</g>
<g>
</g>
<g>
</g>
<g>
</g>
<g>
</g>
<g>
</g>
<g>
</g>
<g>
</g>
<g>
</g>
<g>
</g>
<g>
</g>
<g>
</g>
<g>
</g>
<g>
</g>
<g>
</g>
<g>
</g>
</svg>
