<?xml version="1.0" encoding="iso-8859-1"?>
<!-- Generator: Adobe Illustrator 19.0.0, SVG Export Plug-In . SVG Version: 6.00 Build 0)  -->
<svg xmlns="http://www.w3.org/2000/svg" xmlns:xlink="http://www.w3.org/1999/xlink" version="1.1" id="Capa_1" x="0px" y="0px" viewBox="0 0 512.001 512.001" style="enable-background:new 0 0 512.001 512.001;" xml:space="preserve">
<path style="fill:#0072A2;" d="M253.38,13.177L145.057,107.45V70.078H78.68v95.139L1.408,232.466  c-2.842,2.474-1.093,7.148,2.675,7.148h58.142v248.76c0,6.312,5.117,11.429,11.429,11.429h364.693  c6.312,0,11.429-5.117,11.429-11.429v-248.76h58.142c3.768,0,5.517-4.675,2.675-7.148L258.62,13.177  C257.118,11.87,254.882,11.87,253.38,13.177z"/>
<path style="fill:#006289;" d="M511.989,235.628c-0.12-0.91-0.546-1.802-1.362-2.512l-7.646-6.654  c-0.052-0.29-0.15-0.575-0.268-0.854L258.62,13.177c-1.502-1.307-3.738-1.307-5.24,0L236.692,27.7l0.39,0.34l-0.669,0.582  L441.054,206.72c-0.131,0.867-0.829,1.638-1.874,1.638h-19.369c-1.053,0-1.907,0.854-1.907,1.907v246.854  c0,6.312-5.117,11.429-11.429,11.429H62.225v19.827c0,6.312,5.117,11.429,11.429,11.429h364.693c6.312,0,11.429-5.117,11.429-11.429  v-248.76h58.142C510.346,239.614,511.926,237.671,511.989,235.628z"/>
<path style="fill:#A0D860;" d="M154.594,41.542H66.493c-2.338,0-4.234,1.896-4.234,4.234v22.069c0,2.338,1.896,4.234,4.234,4.234  h88.101c2.338,0,4.234-1.896,4.234-4.234V45.777C158.828,43.438,156.932,41.542,154.594,41.542z"/>
<path style="fill:#61C979;" d="M154.594,41.542h-27.542v30.537h27.542c2.338,0,4.234-1.896,4.234-4.234V45.777  C158.828,43.438,156.932,41.542,154.594,41.542z"/>
<g>
	<path style="fill:#FFFCFD;" d="M148.937,409.015h-30.562c-3.028,0-5.483-2.455-5.483-5.483V372.97c0-3.028,2.455-5.483,5.483-5.483   h30.562c3.028,0,5.483,2.455,5.483,5.483v30.562C154.42,406.56,151.965,409.015,148.937,409.015z"/>
	<path style="fill:#FFFCFD;" d="M387.094,409.015h-30.562c-3.028,0-5.483-2.455-5.483-5.483V372.97c0-3.028,2.455-5.483,5.483-5.483   h30.562c3.028,0,5.483,2.455,5.483,5.483v30.562C392.578,406.56,390.123,409.015,387.094,409.015z"/>
	<path style="fill:#FFFCFD;" d="M307.709,409.015h-30.562c-3.028,0-5.483-2.455-5.483-5.483V372.97c0-3.028,2.455-5.483,5.483-5.483   h30.562c3.028,0,5.483,2.455,5.483,5.483v30.562C313.192,406.56,310.737,409.015,307.709,409.015z"/>
	<path style="fill:#FFFCFD;" d="M228.323,409.015h-30.562c-3.028,0-5.483-2.455-5.483-5.483V372.97c0-3.028,2.455-5.483,5.483-5.483   h30.562c3.028,0,5.483,2.455,5.483,5.483v30.562C233.806,406.56,231.351,409.015,228.323,409.015z"/>
</g>
<path style="fill:#FFB427;" d="M415.12,335.56H90.349c-1.444,0-2.614-1.17-2.614-2.614v-77.342c0-1.444,1.17-2.614,2.614-2.614  H415.12c1.444,0,2.614,1.17,2.614,2.614v77.342C417.734,334.39,416.564,335.56,415.12,335.56z"/>
<g>
	<path style="fill:#FF8B00;" d="M155.851,272.082c-2.93-2.929-7.678-2.929-10.607,0l-11.587,11.587l-11.587-11.587   c-2.93-2.929-7.678-2.929-10.607,0s-2.929,7.678,0,10.606l11.587,11.588l-11.587,11.588c-2.929,2.929-2.929,7.678,0,10.606   c1.465,1.464,3.385,2.197,5.304,2.197s3.839-0.732,5.304-2.197l11.587-11.587l11.587,11.587c1.465,1.465,3.384,2.197,5.304,2.197   c1.919,0,3.839-0.732,5.304-2.197c2.929-2.929,2.929-7.678,0-10.606l-11.587-11.588l11.587-11.588   C158.779,279.759,158.779,275.01,155.851,272.082z"/>
	<path style="fill:#FF8B00;" d="M235.236,272.082c-2.93-2.929-7.678-2.929-10.607,0l-11.587,11.587l-11.587-11.587   c-2.929-2.929-7.677-2.929-10.607,0c-2.929,2.929-2.929,7.678,0,10.606l11.587,11.588l-11.587,11.588   c-2.929,2.929-2.929,7.678,0,10.606c1.465,1.464,3.385,2.197,5.304,2.197s3.839-0.732,5.304-2.197l11.587-11.587l11.587,11.587   c1.465,1.465,3.384,2.197,5.304,2.197c1.919,0,3.839-0.732,5.304-2.197c2.929-2.929,2.929-7.678,0-10.606l-11.587-11.588   l11.587-11.588C238.165,279.759,238.165,275.01,235.236,272.082z"/>
	<path style="fill:#FF8B00;" d="M389.82,311.268h-36.012c-4.09,0-7.406,3.316-7.406,7.405s3.315,7.406,7.406,7.406h36.012   c4.09,0,7.406-3.316,7.406-7.406S393.91,311.268,389.82,311.268z"/>
	<path style="fill:#FF8B00;" d="M310.438,310.939h-36.011c-4.09,0-7.406,3.316-7.406,7.406s3.315,7.405,7.406,7.405h36.011   c4.09,0,7.406-3.316,7.406-7.405S314.528,310.939,310.438,310.939z"/>
</g>
<g>
</g>
<g>
</g>
<g>
</g>
<g>
</g>
<g>
</g>
<g>
</g>
<g>
</g>
<g>
</g>
<g>
</g>
<g>
</g>
<g>
</g>
<g>
</g>
<g>
</g>
<g>
</g>
<g>
</g>
</svg>
