<?xml version="1.0" encoding="iso-8859-1"?>
<!-- Generator: Adobe Illustrator 19.0.0, SVG Export Plug-In . SVG Version: 6.00 Build 0)  -->
<svg xmlns="http://www.w3.org/2000/svg" xmlns:xlink="http://www.w3.org/1999/xlink" version="1.1" id="Capa_1" x="0px" y="0px" viewBox="0 0 512 512" style="enable-background:new 0 0 512 512;" xml:space="preserve">
<path style="fill:#A0D860;" d="M347.282,465.698H164.717c-11.108,0-20.113-9.005-20.113-20.113V66.415  c0-11.108,9.005-20.113,20.113-20.113h182.564c11.108,0,20.113,9.005,20.113,20.113v379.17  C367.395,456.693,358.39,465.698,347.282,465.698z"/>
<path style="fill:#61C979;" d="M347.282,46.302H309.63c11.108,0,20.113,9.005,20.113,20.113v379.17  c0,11.108-9.005,20.113-20.113,20.113h37.652c11.108,0,20.113-9.005,20.113-20.113V66.415  C367.395,55.307,358.39,46.302,347.282,46.302z"/>
<circle style="fill:#FFB427;" cx="255.999" cy="334.74" r="85.37"/>
<path style="fill:#FF9D00;" d="M341.366,334.735c0-47.147-38.22-85.366-85.366-85.366v170.733  C303.147,420.101,341.366,381.881,341.366,334.735z"/>
<circle style="fill:#D96B37;" cx="255.999" cy="334.74" r="56.42"/>
<circle style="fill:#FFB427;" cx="255.999" cy="141.04" r="52.956"/>
<path style="fill:#FF9D00;" d="M308.956,141.044c0-29.247-23.709-52.955-52.956-52.955V194  C285.247,193.999,308.956,170.29,308.956,141.044z"/>
<circle style="fill:#D96B37;" cx="255.999" cy="141.04" r="28.469"/>
<path style="fill:#FFB427;" d="M455.096,371.737c-3.949,0-7.897-1.506-10.909-4.519c-6.025-6.025-6.025-15.793,0-21.818  c49.295-49.295,49.295-129.504,0-178.799c-6.025-6.025-6.025-15.793,0-21.818c6.024-6.026,15.794-6.026,21.818,0  c61.326,61.326,61.326,161.11,0,222.436C462.993,370.231,459.045,371.737,455.096,371.737z"/>
<path style="fill:#FF9D00;" d="M466.005,144.782c-5.232-5.233-13.285-5.915-19.26-2.059c0.905,0.584,1.766,1.266,2.559,2.059  c61.326,61.326,61.326,161.11,0,222.436c-0.793,0.793-1.653,1.475-2.559,2.059c2.535,1.635,5.441,2.46,8.35,2.46  c3.949,0,7.897-1.506,10.909-4.519C527.331,305.892,527.331,206.108,466.005,144.782z"/>
<path style="fill:#FFB427;" d="M414.77,341.413c-3.948,0-7.897-1.506-10.909-4.519c-6.025-6.025-6.025-15.793,0-21.818  c32.574-32.574,32.574-85.577,0-118.152c-6.025-6.025-6.025-15.793,0-21.818c6.024-6.026,15.794-6.026,21.818,0  c44.606,44.605,44.606,117.184,0,161.789C422.667,339.907,418.719,341.413,414.77,341.413z"/>
<path style="fill:#FF9D00;" d="M425.678,175.106c-5.646-5.647-14.583-6.001-20.642-1.063c0.406,0.331,0.799,0.685,1.177,1.063  c44.606,44.605,44.606,117.184,0,161.789c-0.378,0.378-0.771,0.732-1.177,1.063c2.827,2.304,6.28,3.456,9.733,3.456  c3.949,0,7.897-1.506,10.909-4.519C470.285,292.289,470.285,219.711,425.678,175.106z"/>
<path style="fill:#FFB427;" d="M56.903,371.737c3.949,0,7.897-1.506,10.909-4.519c6.025-6.025,6.025-15.793,0-21.818  c-49.295-49.295-49.295-129.504,0-178.799c6.025-6.025,6.025-15.793,0-21.818c-6.024-6.026-15.794-6.026-21.818,0  c-61.326,61.326-61.326,161.11,0,222.436C49.006,370.231,52.954,371.737,56.903,371.737z"/>
<path style="fill:#FF9D00;" d="M67.813,166.601c6.025-6.025,6.025-15.794,0-21.818c-0.793-0.793-1.653-1.475-2.559-2.059  c-0.905,0.584-1.737,1.297-2.559,2.059c-66.029,61.218-61.326,161.11,0,222.436c0.793,0.793,1.653,1.475,2.559,2.059  c0.905-0.584,1.766-1.266,2.559-2.059c6.025-6.025,6.025-15.794,0-21.818C18.517,296.104,18.517,215.896,67.813,166.601z"/>
<path style="fill:#FFB427;" d="M97.229,341.413c3.949,0,7.897-1.506,10.909-4.519c6.025-6.025,6.025-15.793,0-21.818  c-32.574-32.574-32.574-85.577,0-118.152c6.025-6.025,6.025-15.793,0-21.818c-6.024-6.026-15.794-6.026-21.818,0  c-44.606,44.605-44.606,117.184,0,161.789C89.332,339.907,93.28,341.413,97.229,341.413z"/>
<path style="fill:#FF9D00;" d="M108.138,196.924c6.025-6.025,6.025-15.794,0-21.818c-0.38-0.38-0.776-0.736-1.185-1.069  c0.003,0.002,0.005,0.004,0.008,0.006c-0.406,0.331-0.788,0.696-1.177,1.063c-52.919,49.894-44.606,117.184,0,161.789  c0.378,0.378,0.771,0.732,1.177,1.063c0.406-0.331,0.799-0.685,1.177-1.063c6.025-6.025,6.025-15.794,0-21.818  C75.564,282.501,75.564,229.498,108.138,196.924z"/>
<g>
</g>
<g>
</g>
<g>
</g>
<g>
</g>
<g>
</g>
<g>
</g>
<g>
</g>
<g>
</g>
<g>
</g>
<g>
</g>
<g>
</g>
<g>
</g>
<g>
</g>
<g>
</g>
<g>
</g>
</svg>
