<?xml version="1.0" encoding="iso-8859-1"?>
<!-- Generator: Adobe Illustrator 19.0.0, SVG Export Plug-In . SVG Version: 6.00 Build 0)  -->
<svg xmlns="http://www.w3.org/2000/svg" xmlns:xlink="http://www.w3.org/1999/xlink" version="1.1" id="Capa_1" x="0px" y="0px" viewBox="0 0 512.001 512.001" style="enable-background:new 0 0 512.001 512.001;" xml:space="preserve">
<path style="fill:#0072A2;" d="M253.38,13.177L145.057,107.45V70.078H78.68v95.139L1.408,232.466  c-2.842,2.474-1.093,7.148,2.675,7.148h58.142v248.76c0,6.312,5.117,11.429,11.429,11.429h364.693  c6.312,0,11.429-5.117,11.429-11.429v-248.76h58.142c3.768,0,5.517-4.675,2.675-7.148L258.62,13.177  C257.118,11.87,254.882,11.87,253.38,13.177z"/>
<path style="fill:#006289;" d="M511.989,235.628c-0.12-0.91-0.546-1.802-1.362-2.512l-7.646-6.654  c-0.052-0.29-0.15-0.575-0.268-0.854L258.62,13.177c-1.502-1.307-3.738-1.307-5.24,0L236.692,27.7l0.39,0.34l-0.669,0.582  L441.054,206.72c-0.131,0.867-0.829,1.638-1.874,1.638h-19.369c-1.053,0-1.907,0.854-1.907,1.907v246.854  c0,6.312-5.117,11.429-11.429,11.429H62.225v19.827c0,6.312,5.117,11.429,11.429,11.429h364.693c6.312,0,11.429-5.117,11.429-11.429  v-248.76h58.142C510.346,239.614,511.926,237.671,511.989,235.628z"/>
<path style="fill:#A0D860;" d="M154.594,41.542H66.493c-2.338,0-4.234,1.896-4.234,4.234v22.069c0,2.338,1.896,4.234,4.234,4.234  h88.101c2.338,0,4.234-1.896,4.234-4.234V45.777C158.828,43.438,156.932,41.542,154.594,41.542z"/>
<path style="fill:#F7F9F9;" d="M343.389,283.887H168.611c-4.815,0-8.717,3.903-8.717,8.717V415.04c0,4.814,3.903,8.717,8.717,8.717  h174.778c4.814,0,8.717-3.903,8.717-8.717V292.605C352.107,287.79,348.204,283.887,343.389,283.887z M267.154,349.152v34.055  c0,6.16-4.994,11.154-11.154,11.154c-6.16,0-11.154-4.994-11.154-11.154v-34.055c-5.536-3.819-9.021-10.399-8.456-17.754  c0.743-9.669,8.653-17.463,18.331-18.075c11.442-0.724,20.949,8.343,20.949,19.629C275.67,339.674,272.297,345.604,267.154,349.152z  "/>
<path style="fill:#FFDE3E;" d="M343.389,283.887h-7.518v-44.762c0-44.041-35.83-79.871-79.871-79.871s-79.871,35.83-79.871,79.871  v44.762h-7.518c-4.815,0-8.718,3.903-8.718,8.717V415.04c0,4.814,3.903,8.717,8.718,8.717h174.778c4.814,0,8.718-3.903,8.718-8.717  V292.605C352.107,287.79,348.204,283.887,343.389,283.887z M266.095,349.596v30.822c0,5.575-4.52,10.095-10.095,10.095  c-5.575,0-10.095-4.52-10.095-10.095v-30.822c-5.01-3.457-8.164-9.412-7.653-16.068c0.672-8.751,7.832-15.805,16.591-16.359  c10.356-0.655,18.959,7.551,18.959,17.766C273.802,341.017,270.75,346.385,266.095,349.596z M316.201,283.887H195.799v-44.762  c0-33.195,27.006-60.201,60.201-60.201s60.201,27.006,60.201,60.201V283.887z"/>
<path style="fill:#61C979;" d="M154.594,41.542h-27.542v30.537h27.542c2.338,0,4.234-1.896,4.234-4.234V45.777  C158.828,43.438,156.932,41.542,154.594,41.542z"/>
<g>
</g>
<g>
</g>
<g>
</g>
<g>
</g>
<g>
</g>
<g>
</g>
<g>
</g>
<g>
</g>
<g>
</g>
<g>
</g>
<g>
</g>
<g>
</g>
<g>
</g>
<g>
</g>
<g>
</g>
</svg>
