<?xml version="1.0" encoding="iso-8859-1"?>
<!-- Generator: Adobe Illustrator 19.0.0, SVG Export Plug-In . SVG Version: 6.00 Build 0)  -->
<svg xmlns="http://www.w3.org/2000/svg" xmlns:xlink="http://www.w3.org/1999/xlink" version="1.1" id="Capa_1" x="0px" y="0px" viewBox="0 0 512.001 512.001" style="enable-background:new 0 0 512.001 512.001;" xml:space="preserve">
<path style="fill:#0072A2;" d="M253.38,13.177L145.057,107.45V70.078H78.68v95.139L1.408,232.466  c-2.842,2.474-1.093,7.148,2.675,7.148h58.142v248.76c0,6.312,5.117,11.429,11.429,11.429h364.693  c6.312,0,11.429-5.117,11.429-11.429v-248.76h58.142c3.768,0,5.517-4.675,2.675-7.148L258.62,13.177  C257.118,11.87,254.882,11.87,253.38,13.177z"/>
<path style="fill:#006289;" d="M511.989,235.628c-0.12-0.91-0.546-1.802-1.362-2.512l-7.646-6.654  c-0.052-0.29-0.15-0.575-0.268-0.854L258.62,13.177c-1.502-1.307-3.738-1.307-5.24,0L236.692,27.7l0.39,0.34l-0.669,0.582  L441.054,206.72c-0.131,0.867-0.829,1.638-1.874,1.638h-19.369c-1.053,0-1.907,0.854-1.907,1.907v246.854  c0,6.312-5.117,11.429-11.429,11.429H62.225v19.827c0,6.312,5.117,11.429,11.429,11.429h364.693c6.312,0,11.429-5.117,11.429-11.429  v-248.76h58.142C510.346,239.614,511.926,237.671,511.989,235.628z"/>
<path style="fill:#A0D860;" d="M154.594,41.542H66.493c-2.338,0-4.234,1.896-4.234,4.234v22.069c0,2.338,1.896,4.234,4.234,4.234  h88.101c2.338,0,4.234-1.896,4.234-4.234V45.777C158.828,43.438,156.932,41.542,154.594,41.542z"/>
<path style="fill:#FFDE3E;" d="M302.328,161.612L150.561,313.379c-0.974,0.974-0.273,2.64,1.105,2.624l93.68-1.071  c1.214-0.014,1.964,1.318,1.323,2.349L169.27,441.694c-0.965,1.552,1.1,3.191,2.392,1.899l157.815-157.815  c0.967-0.967,0.285-2.619-1.081-2.624l-94.822-0.347c-1.202-0.004-1.934-1.325-1.301-2.347l72.449-116.952  C305.683,161.957,303.619,160.321,302.328,161.612z"/>
<path style="fill:#61C979;" d="M154.594,41.542h-27.542v30.537h27.542c2.338,0,4.234-1.896,4.234-4.234V45.777  C158.828,43.438,156.932,41.542,154.594,41.542z"/>
<g>
</g>
<g>
</g>
<g>
</g>
<g>
</g>
<g>
</g>
<g>
</g>
<g>
</g>
<g>
</g>
<g>
</g>
<g>
</g>
<g>
</g>
<g>
</g>
<g>
</g>
<g>
</g>
<g>
</g>
</svg>
