<?xml version="1.0" encoding="iso-8859-1"?>
<!-- Generator: Adobe Illustrator 19.0.0, SVG Export Plug-In . SVG Version: 6.00 Build 0)  -->
<svg xmlns="http://www.w3.org/2000/svg" xmlns:xlink="http://www.w3.org/1999/xlink" version="1.1" id="Capa_1" x="0px" y="0px" viewBox="0 0 512 512" style="enable-background:new 0 0 512 512;" xml:space="preserve">
<polygon style="fill:#FFB427;" points="301.625,417.333 210.375,417.333 218.218,379.842 293.782,379.842 "/>
<polygon style="fill:#FF9D00;" points="293.782,379.842 240.259,379.842 248.102,417.333 301.625,417.333 "/>
<path style="fill:#A0D860;" d="M507.172,72.923H4.827C2.161,72.923,0,75.083,0,77.749v301.331c0,2.666,2.161,4.828,4.827,4.828  h502.345c2.666,0,4.828-2.161,4.828-4.828V77.749C512,75.083,509.839,72.923,507.172,72.923z"/>
<path style="fill:#61C979;" d="M507.172,72.923h-34.333c2.666,0,4.828,2.161,4.828,4.827v301.331c0,2.666-2.161,4.828-4.828,4.828  h34.333c2.666,0,4.828-2.161,4.828-4.828V77.749C512,75.083,509.839,72.923,507.172,72.923z"/>
<path style="fill:#F7F9F9;" d="M30,351.331V105.499c0-1.424,1.154-2.577,2.577-2.577h446.845c1.424,0,2.578,1.154,2.578,2.577  v245.83c0,1.424-1.154,2.578-2.578,2.578H32.577C31.154,353.908,30,352.754,30,351.331z"/>
<path style="fill:#E4E4E4;" d="M479.422,102.923h-22.089v223.741c0,1.424-1.154,2.578-2.577,2.578H30v22.089  c0,1.424,1.154,2.578,2.578,2.578h446.845c1.424,0,2.578-1.154,2.578-2.578V105.499C482,104.077,480.846,102.923,479.422,102.923z"/>
<path style="fill:#A0D860;" d="M336.458,439.077H175.542c-2.37,0-4.292-1.921-4.292-4.292v-16.583c0-2.37,1.921-4.292,4.292-4.292  h160.917c2.37,0,4.292,1.921,4.292,4.292v16.583C340.75,437.156,338.829,439.077,336.458,439.077z"/>
<path style="fill:#61C979;" d="M336.458,413.911h-30.053v25.167h30.053c2.37,0,4.292-1.921,4.292-4.292v-16.583  C340.75,415.832,338.829,413.911,336.458,413.911z"/>
<circle style="fill:#FF4D4A;" cx="256" cy="222.41" r="90.13"/>
<path style="fill:#E13F33;" d="M346.126,222.411c0-49.775-40.351-90.126-90.126-90.126v180.252  C305.775,312.536,346.126,272.187,346.126,222.411z"/>
<path style="fill:#F7F9F9;" d="M227.455,175.865v93.094c0,2.784,3.083,4.464,5.422,2.954l72.116-46.547  c2.145-1.385,2.145-4.523,0-5.907l-72.116-46.547C230.538,171.4,227.455,173.08,227.455,175.865z"/>
<g>
</g>
<g>
</g>
<g>
</g>
<g>
</g>
<g>
</g>
<g>
</g>
<g>
</g>
<g>
</g>
<g>
</g>
<g>
</g>
<g>
</g>
<g>
</g>
<g>
</g>
<g>
</g>
<g>
</g>
</svg>
