<?xml version="1.0" encoding="iso-8859-1"?>
<!-- Generator: Adobe Illustrator 19.0.0, SVG Export Plug-In . SVG Version: 6.00 Build 0)  -->
<svg xmlns="http://www.w3.org/2000/svg" xmlns:xlink="http://www.w3.org/1999/xlink" version="1.1" id="Capa_1" x="0px" y="0px" viewBox="0 0 512 512" style="enable-background:new 0 0 512 512;" xml:space="preserve">
<rect x="53.419" y="94.032" style="fill:#FFDE3E;" width="405.164" height="339.419"/>
<polygon style="fill:#FCD400;" points="424.538,94.037 53.419,94.037 53.419,111.217 424.538,111.217 424.538,433.45 458.58,433.45   458.58,111.217 458.58,94.037 "/>
<path style="fill:#F7F9F9;" d="M413.873,433.45H98.127V296.105c0-87.191,70.683-157.872,157.872-157.872l0,0  c87.191,0,157.872,70.683,157.872,157.872V433.45H413.873z"/>
<path style="fill:#E4E4E4;" d="M255.999,138.232L255.999,138.232c-34.432,0-66.283,11.03-92.229,29.738  c18.116-7.244,37.883-11.236,58.586-11.236l0,0c87.191,0,157.872,70.683,157.872,157.872V433.45h33.643V296.105  C413.873,208.914,343.19,138.232,255.999,138.232z"/>
<path style="fill:#FFB427;" d="M186.921,348.457c0.926,19.907,11.934,37.192,27.747,47.972h84.177  c31.666-20.861,25.918-62.207,25.918-62.207s-28.131,49.407-42.555,37.287c-10.747-9.029,19.048-21.075,30.397-65.251  c11.349-44.176-38.4-66.31-38.4-66.31s14.305,26.332-2.94,26.996c-33.212,1.28-15.377-64.221-15.377-64.221  s-36.874,36.888-33.226,61.206c3.648,24.318,39.686,33.817,23.475,50.029c-16.212,16.212-42.961-25.128-42.961-25.128  s-17.225,17.529-16.313,57.957C186.876,347.347,186.895,347.905,186.921,348.457z"/>
<path style="fill:#FF8100;" d="M324.764,334.222c0,0-0.048,0.083-0.131,0.227l0,0v0.001c-0.099,0.173-0.256,0.441-0.467,0.798  c-0.002,0.003-0.003,0.006-0.005,0.009c-0.005,0.008-0.01,0.017-0.015,0.025c-0.199,0.337-0.444,0.749-0.732,1.227  c-0.002,0.003-0.003,0.005-0.004,0.007c-0.002,0.003-0.003,0.005-0.005,0.008c-0.428,0.711-0.95,1.565-1.554,2.535  c-0.045,0.071-0.088,0.142-0.134,0.215c-0.083,0.134-0.17,0.271-0.257,0.409c-0.06,0.094-0.119,0.189-0.18,0.286  c-0.081,0.129-0.164,0.259-0.247,0.391c-0.072,0.115-0.146,0.23-0.221,0.347c-0.082,0.129-0.165,0.259-0.25,0.392  c-0.081,0.128-0.166,0.258-0.249,0.389c-0.076,0.119-0.152,0.237-0.23,0.357c-0.113,0.175-0.228,0.353-0.344,0.532  c-0.058,0.088-0.113,0.174-0.171,0.263c-0.175,0.269-0.353,0.541-0.535,0.817c-0.042,0.063-0.085,0.129-0.128,0.193  c-0.144,0.217-0.289,0.436-0.435,0.659c-0.064,0.097-0.13,0.195-0.195,0.293c-0.131,0.195-0.262,0.393-0.396,0.591  c-0.069,0.103-0.14,0.206-0.209,0.31c-0.134,0.198-0.269,0.398-0.406,0.599c-0.069,0.102-0.139,0.204-0.209,0.307  c-0.143,0.209-0.288,0.42-0.433,0.632c-0.068,0.099-0.136,0.197-0.204,0.298c-0.165,0.238-0.331,0.478-0.5,0.72  c-0.048,0.067-0.093,0.135-0.141,0.202c-0.45,0.643-0.911,1.294-1.385,1.951c-0.022,0.031-0.045,0.061-0.066,0.092  c-0.21,0.292-0.422,0.583-0.636,0.877c-0.053,0.072-0.107,0.146-0.16,0.218c-0.186,0.254-0.373,0.508-0.562,0.763  c-0.063,0.086-0.128,0.173-0.192,0.259c-0.182,0.244-0.365,0.489-0.549,0.733c-0.066,0.087-0.132,0.176-0.198,0.263  c-0.193,0.255-0.388,0.511-0.583,0.766c-0.056,0.073-0.111,0.146-0.168,0.219c-0.225,0.293-0.451,0.584-0.679,0.876  c-0.028,0.036-0.056,0.071-0.082,0.106c-0.525,0.669-1.056,1.336-1.595,1.997c-0.037,0.046-0.074,0.09-0.111,0.135  c-0.225,0.276-0.452,0.551-0.679,0.825c-0.064,0.077-0.128,0.154-0.192,0.23c-0.204,0.244-0.41,0.487-0.615,0.729  c-0.07,0.083-0.142,0.167-0.213,0.249c-0.203,0.238-0.408,0.474-0.612,0.708c-0.07,0.081-0.141,0.162-0.212,0.243  c-0.219,0.25-0.438,0.497-0.659,0.743c-0.053,0.059-0.105,0.118-0.159,0.178c-0.834,0.927-1.678,1.827-2.527,2.69  c-0.06,0.06-0.119,0.12-0.179,0.18c-0.218,0.22-0.436,0.438-0.656,0.653c-0.078,0.077-0.157,0.153-0.235,0.229  c-0.204,0.198-0.409,0.395-0.613,0.589c-0.081,0.077-0.163,0.154-0.244,0.23c-0.206,0.193-0.414,0.384-0.62,0.572  c-0.076,0.069-0.153,0.14-0.229,0.208c-0.227,0.204-0.453,0.404-0.68,0.601c-0.054,0.047-0.108,0.095-0.162,0.142  c-0.571,0.492-1.143,0.961-1.713,1.403c-0.047,0.037-0.093,0.07-0.14,0.107c-0.231,0.179-0.463,0.352-0.693,0.522  c-0.08,0.059-0.16,0.115-0.24,0.173c-0.198,0.143-0.397,0.283-0.594,0.419c-0.091,0.062-0.182,0.123-0.273,0.184  c-0.19,0.127-0.38,0.251-0.569,0.372c-0.09,0.058-0.182,0.115-0.272,0.172c-0.194,0.121-0.388,0.236-0.581,0.349  c-0.083,0.049-0.166,0.098-0.249,0.146c-0.22,0.125-0.439,0.243-0.658,0.358c-0.055,0.029-0.109,0.06-0.163,0.087  c-0.278,0.143-0.554,0.278-0.83,0.403c-0.011,0.005-0.021,0.009-0.032,0.014c-0.258,0.117-0.515,0.225-0.77,0.325  c-0.077,0.031-0.154,0.057-0.231,0.085c-0.188,0.071-0.377,0.139-0.564,0.201c-0.093,0.031-0.185,0.059-0.279,0.086  c-0.172,0.053-0.343,0.102-0.514,0.147c-0.096,0.025-0.193,0.049-0.29,0.071c-0.168,0.04-0.334,0.074-0.5,0.105  c-0.094,0.018-0.189,0.036-0.284,0.052c-0.174,0.028-0.345,0.049-0.517,0.067c-0.083,0.009-0.168,0.021-0.251,0.028  c-0.209,0.017-0.416,0.026-0.622,0.029c-0.044,0.001-0.088,0.005-0.132,0.005c-0.25,0-0.498-0.012-0.744-0.034  c-0.061-0.006-0.121-0.017-0.182-0.024c-0.182-0.021-0.364-0.045-0.544-0.078c-0.086-0.016-0.171-0.037-0.256-0.056  c-0.154-0.034-0.307-0.07-0.459-0.114c-0.092-0.027-0.183-0.057-0.275-0.086c-0.144-0.048-0.288-0.099-0.43-0.156  c-0.091-0.037-0.183-0.074-0.274-0.114c-0.143-0.063-0.284-0.133-0.424-0.205c-0.086-0.045-0.174-0.088-0.259-0.137  c-0.151-0.085-0.299-0.18-0.447-0.276c-0.072-0.048-0.146-0.09-0.217-0.14c-0.217-0.152-0.433-0.314-0.645-0.492  c-0.216-0.182-0.41-0.365-0.594-0.549c-0.049-0.05-0.096-0.098-0.143-0.148c-0.152-0.161-0.294-0.321-0.422-0.485  c-0.022-0.028-0.047-0.055-0.067-0.082c-0.143-0.187-0.268-0.376-0.381-0.567c-0.029-0.049-0.055-0.097-0.081-0.146  c-0.087-0.159-0.166-0.318-0.233-0.48c-0.018-0.042-0.038-0.083-0.055-0.126c-0.075-0.195-0.138-0.394-0.186-0.594  c-0.011-0.045-0.018-0.09-0.028-0.135c-0.035-0.166-0.061-0.334-0.078-0.503c-0.005-0.053-0.012-0.105-0.016-0.158  c-0.014-0.207-0.018-0.417-0.007-0.629c0.002-0.034,0.007-0.069,0.009-0.103c0.013-0.184,0.036-0.372,0.066-0.561  c0.01-0.061,0.02-0.121,0.032-0.182c0.043-0.221,0.092-0.444,0.158-0.672c0.003-0.01,0.007-0.02,0.01-0.03  c0.064-0.22,0.142-0.444,0.226-0.671c0.026-0.069,0.053-0.139,0.08-0.208c0.078-0.198,0.165-0.4,0.258-0.604  c0.021-0.045,0.038-0.088,0.059-0.133c0.112-0.239,0.236-0.483,0.368-0.73c0.043-0.08,0.088-0.162,0.133-0.243  c0.103-0.187,0.212-0.378,0.325-0.571c0.047-0.079,0.091-0.157,0.139-0.237c0.15-0.248,0.307-0.5,0.472-0.756  c0.064-0.099,0.132-0.201,0.198-0.302c0.118-0.178,0.238-0.359,0.363-0.542c0.077-0.114,0.155-0.227,0.235-0.343  c0.172-0.247,0.348-0.497,0.532-0.752c0.108-0.15,0.221-0.305,0.333-0.457c0.101-0.138,0.203-0.277,0.307-0.418  c0.132-0.179,0.267-0.359,0.404-0.541c0.053-0.069,0.107-0.141,0.16-0.211c3.414-4.515,8.211-10.189,13.061-17.693  c0.001-0.002,0.002-0.004,0.004-0.006c0.772-1.195,1.545-2.436,2.314-3.726l0,0c0.008-0.044,0.014-0.062,0.017-0.028  c0.284-0.477,0.567-0.961,0.85-1.451c0.008-0.013,0.015-0.026,0.022-0.039c0.02-0.035,0.041-0.07,0.06-0.106  c0.256-0.446,0.512-0.898,0.766-1.355c0.017-0.03,0.033-0.06,0.05-0.089c0.025-0.045,0.05-0.09,0.075-0.135  c0.243-0.438,0.484-0.882,0.725-1.331c0.047-0.087,0.093-0.174,0.14-0.261c0.238-0.446,0.475-0.9,0.711-1.357  c0.045-0.086,0.089-0.172,0.134-0.258c0.245-0.479,0.489-0.965,0.732-1.455c0.016-0.032,0.032-0.063,0.048-0.095  c0.017-0.033,0.034-0.066,0.05-0.1c0.393-0.799,0.781-1.617,1.164-2.448c0.041-0.088,0.081-0.177,0.122-0.266  c0.382-0.833,0.76-1.68,1.131-2.545c0.049-0.113,0.096-0.229,0.144-0.343c0.203-0.479,0.406-0.962,0.605-1.451  c0.077-0.188,0.153-0.38,0.229-0.57c0.169-0.42,0.336-0.841,0.501-1.268c0.089-0.229,0.177-0.461,0.265-0.693  c0.151-0.398,0.301-0.797,0.449-1.201c0.091-0.249,0.182-0.499,0.272-0.751c0.142-0.396,0.283-0.795,0.421-1.197  c0.091-0.263,0.182-0.526,0.272-0.791c0.136-0.403,0.27-0.809,0.403-1.218c0.024-0.073,0.048-0.147,0.071-0.219  c0.063-0.196,0.128-0.391,0.19-0.589c0.133-0.419,0.263-0.843,0.393-1.268c0.081-0.268,0.165-0.534,0.245-0.803  c0.139-0.469,0.275-0.945,0.41-1.421c0.056-0.195,0.112-0.389,0.167-0.585c0.01-0.037,0.021-0.071,0.031-0.108  c0.197-0.713,0.391-1.433,0.578-2.164c0.235-0.914,0.434-1.816,0.618-2.712c0.047-0.226,0.091-0.452,0.134-0.678  c0.164-0.856,0.312-1.705,0.431-2.543c0.005-0.034,0.012-0.068,0.016-0.103c0.122-0.872,0.212-1.731,0.288-2.584  c0.019-0.211,0.035-0.421,0.051-0.631c0.06-0.798,0.105-1.59,0.125-2.371c0.001-0.053,0.005-0.106,0.007-0.159  c0.019-0.832,0.01-1.652-0.014-2.466c-0.006-0.191-0.013-0.381-0.021-0.571c-0.032-0.755-0.076-1.504-0.143-2.241  c-0.005-0.058-0.008-0.115-0.013-0.173c-0.074-0.797-0.175-1.582-0.288-2.36c-0.024-0.166-0.051-0.33-0.076-0.495  c-0.114-0.725-0.241-1.443-0.388-2.15c-0.01-0.051-0.019-0.102-0.03-0.153c-0.162-0.766-0.344-1.519-0.541-2.265  c-0.036-0.135-0.073-0.27-0.11-0.405c-0.191-0.7-0.396-1.393-0.617-2.076c-0.013-0.041-0.025-0.081-0.038-0.122  c-0.24-0.735-0.5-1.459-0.772-2.173c-0.04-0.104-0.08-0.206-0.121-0.309c-0.266-0.682-0.543-1.357-0.835-2.02  c-0.011-0.025-0.021-0.05-0.032-0.073c-0.312-0.705-0.642-1.399-0.983-2.083c-0.036-0.071-0.072-0.143-0.109-0.214  c-0.335-0.664-0.681-1.32-1.04-1.964c-0.005-0.01-0.01-0.019-0.016-0.029c-0.378-0.675-0.769-1.338-1.17-1.991  c-0.025-0.041-0.051-0.08-0.075-0.12c-0.398-0.642-0.805-1.274-1.225-1.895c0,0-0.001-0.001-0.001-0.002l0,0  c-0.731-1.082-1.493-2.13-2.277-3.146c-0.006-0.007-0.011-0.014-0.017-0.021c-0.012-0.015-0.023-0.03-0.035-0.045  c-0.37-0.477-0.745-0.946-1.125-1.408c-0.005-0.006-0.011-0.013-0.016-0.019c-0.023-0.028-0.046-0.056-0.068-0.083  c-0.601-0.729-1.213-1.439-1.834-2.131c-0.007-0.007-0.013-0.015-0.02-0.022c-0.62-0.691-1.249-1.364-1.883-2.017  c-0.001-0.001-0.002-0.002-0.003-0.003c-0.424-0.436-0.85-0.865-1.278-1.285c-0.01-0.01-0.02-0.02-0.03-0.03  c-2.386-2.339-4.824-4.419-7.179-6.244c-0.004-0.003-0.009-0.007-0.013-0.01c-1.761-1.366-3.475-2.587-5.083-3.664  c-0.004-0.003-0.009-0.006-0.013-0.009c-0.536-0.359-1.059-0.701-1.569-1.028h-0.001c-0.001,0-0.001-0.001-0.001-0.001  c-1.481-0.949-2.842-1.762-4.036-2.442c-0.017-0.01-0.034-0.019-0.051-0.029c-0.281-0.16-0.552-0.312-0.814-0.457  c-0.012-0.007-0.025-0.014-0.038-0.021c-0.548-0.303-1.051-0.574-1.502-0.81c-0.002-0.001-0.003-0.002-0.005-0.002  c-0.212-0.111-0.411-0.214-0.599-0.31c-0.03-0.016-0.059-0.03-0.088-0.046c-0.166-0.085-0.322-0.164-0.467-0.237  c-0.02-0.01-0.041-0.02-0.06-0.03c-0.324-0.162-0.593-0.293-0.801-0.392c-0.016-0.008-0.029-0.014-0.043-0.02  c-0.006-0.003-0.011-0.005-0.016-0.008c-0.077-0.037-0.145-0.068-0.202-0.095c-0.015-0.007-0.03-0.014-0.044-0.02  c-0.005-0.002-0.01-0.005-0.016-0.007c-0.043-0.02-0.074-0.035-0.102-0.048c-0.016-0.007-0.037-0.017-0.048-0.022  c-0.026-0.012-0.042-0.019-0.042-0.019s0.015,0.028,0.026,0.048l0.001,0.002c0.028,0.052,0.084,0.159,0.171,0.325  c0.003,0.006,0.006,0.012,0.009,0.018c0.013,0.024,0.027,0.053,0.041,0.079c0,0,0.001,0.001,0.001,0.002  c0.242,0.47,0.644,1.276,1.128,2.33c0,0.001,0.001,0.001,0.001,0.002c0.013,0.029,0.027,0.059,0.04,0.087c0,0,0,0.001,0.001,0.002  c0.376,0.822,0.792,1.782,1.217,2.842v0.001c0.015,0.036,0.029,0.07,0.044,0.107c0,0.001,0.001,0.002,0.001,0.002  c0.1,0.251,0.199,0.508,0.299,0.769c0.018,0.047,0.036,0.092,0.053,0.139c0.101,0.267,0.201,0.537,0.301,0.811  c0.004,0.011,0.008,0.023,0.012,0.034c1.514,4.192,2.787,9.32,1.946,13.257l0,0c-0.002,0.009-0.004,0.019-0.006,0.028v0.001  c-0.178,0.818-0.446,1.583-0.825,2.277l0,0l0,0c-0.136,0.248-0.289,0.485-0.453,0.714c-0.027,0.037-0.052,0.075-0.079,0.112  c-0.152,0.202-0.317,0.395-0.494,0.579c-0.055,0.059-0.11,0.116-0.168,0.172c-0.166,0.163-0.342,0.316-0.53,0.464  c-0.088,0.069-0.181,0.136-0.274,0.202c-0.178,0.126-0.361,0.248-0.557,0.36c-0.127,0.073-0.264,0.14-0.399,0.207  c-0.186,0.092-0.373,0.184-0.574,0.266c-0.177,0.071-0.368,0.13-0.555,0.192c-0.187,0.062-0.37,0.127-0.57,0.179  c-0.248,0.064-0.518,0.112-0.785,0.162c-0.168,0.031-0.324,0.07-0.5,0.094c-0.459,0.064-0.942,0.11-1.457,0.13  c-33.212,1.28-15.377-64.221-15.377-64.221s-16.126,16.136-25.995,34.1c0.623,18.92,6.156,43.894,28.088,46.42  c7.434,0.856,13.828,0.714,19.324-0.122c6.417-0.977,12.23,3.993,12.2,10.484c-0.018,3.995-0.541,8.213-1.682,12.654  c-11.348,44.177-36.468,52.595-30.397,65.251c6.173,12.866,17.395,16.35,26.238,16.888c-2.741,2.889-5.911,5.602-9.6,8.032h24.78  C330.51,375.568,324.764,334.222,324.764,334.222z"/>
<path style="fill:#FF4D4A;" d="M351.98,391.968H160.02c-15.602,0-28.249,12.647-28.249,28.249v13.233h248.46v-13.233  C380.229,404.616,367.582,391.968,351.98,391.968z"/>
<path style="fill:#E13F33;" d="M351.98,391.968h-14.329c5.321,5.137,8.635,12.339,8.635,20.32v21.163h33.943v-13.233  C380.229,404.616,367.582,391.968,351.98,391.968z"/>
<path style="fill:#D96B37;" d="M503.645,45.85H8.355c-3.452,0-6.252,2.799-6.252,6.252v38.161c0,3.452,2.799,6.252,6.252,6.252  h495.29c3.452,0,6.252-2.799,6.252-6.252V52.102C509.896,48.649,507.098,45.85,503.645,45.85z"/>
<path style="fill:#B14418;" d="M503.645,45.85h-27.942v50.664h27.942c3.452,0,6.252-2.799,6.252-6.252v-38.16  C509.896,48.649,507.098,45.85,503.645,45.85z"/>
<path style="fill:#D96B37;" d="M485.867,398.999H26.132c-2.863,0-5.185,2.322-5.185,5.185v29.259h470.106v-29.259  C491.052,401.32,488.732,398.999,485.867,398.999z"/>
<path style="fill:#B14418;" d="M485.867,398.999h-33.964c2.863,0,5.185,2.322,5.185,5.185v14.424c0,2.534-2.054,4.587-4.587,4.587  H20.946v10.248h436.142h33.964v-10.248v-19.011C491.052,401.32,488.732,398.999,485.867,398.999z"/>
<path style="fill:#D96B37;" d="M505.876,431.707H6.123c-3.382,0-6.123,2.741-6.123,6.123v22.197c0,3.382,2.741,6.123,6.123,6.123  h499.752c3.382,0,6.123-2.741,6.123-6.123V437.83C512,434.449,509.258,431.707,505.876,431.707z"/>
<path style="fill:#B14418;" d="M505.876,431.707h-27.839v18.699c0,2.534-2.054,4.587-4.587,4.587H6.123  c-3.382,0-6.123-2.741-6.123-6.123v11.158c0,3.382,2.741,6.123,6.123,6.123h465.79h33.964c3.382,0,6.123-2.741,6.123-6.123v-11.158  v-11.04C512,434.449,509.258,431.707,505.876,431.707z"/>
<g>
</g>
<g>
</g>
<g>
</g>
<g>
</g>
<g>
</g>
<g>
</g>
<g>
</g>
<g>
</g>
<g>
</g>
<g>
</g>
<g>
</g>
<g>
</g>
<g>
</g>
<g>
</g>
<g>
</g>
</svg>
