<?xml version="1.0" encoding="iso-8859-1"?>
<!-- Generator: Adobe Illustrator 19.0.0, SVG Export Plug-In . SVG Version: 6.00 Build 0)  -->
<svg xmlns="http://www.w3.org/2000/svg" xmlns:xlink="http://www.w3.org/1999/xlink" version="1.1" id="Capa_1" x="0px" y="0px" viewBox="0 0 512.001 512.001" style="enable-background:new 0 0 512.001 512.001;" xml:space="preserve">
<path style="fill:#0072A2;" d="M52.853,512C23.71,512,0,488.29,0,459.147V52.854C0,23.71,23.71,0,52.853,0h406.294  c29.143,0,52.854,23.71,52.854,52.853v406.294c0,29.143-23.711,52.853-52.854,52.853H52.853z"/>
<path style="fill:#006289;" d="M511.908,49.832c-0.018-0.316-0.048-0.628-0.072-0.942c-0.051-0.689-0.111-1.376-0.189-2.057  c-0.04-0.354-0.088-0.706-0.135-1.059c-0.088-0.652-0.187-1.299-0.299-1.943c-0.058-0.336-0.116-0.673-0.18-1.007  c-0.136-0.706-0.29-1.405-0.454-2.101c-0.059-0.252-0.112-0.506-0.175-0.756c-0.483-1.919-1.071-3.797-1.758-5.627  c-0.072-0.191-0.151-0.378-0.224-0.568c-0.283-0.726-0.578-1.446-0.891-2.157c-0.097-0.22-0.198-0.439-0.298-0.658  c-0.32-0.699-0.654-1.391-1.004-2.074c-0.093-0.182-0.185-0.365-0.28-0.546c-0.421-0.8-0.86-1.59-1.32-2.365  c-0.026-0.044-0.051-0.09-0.077-0.134c-1.043-1.745-2.183-3.425-3.414-5.032c-0.002-0.002-0.003-0.004-0.005-0.006  c-0.599-0.782-1.221-1.545-1.862-2.292c-0.046-0.054-0.093-0.107-0.139-0.16c-0.629-0.727-1.276-1.438-1.943-2.13  c-0.019-0.02-0.038-0.04-0.057-0.06c-2.114-2.185-4.413-4.19-6.873-5.988c-0.002-0.003-0.004-0.007-0.006-0.01  c-4.475-3.269-9.479-5.852-14.86-7.595c1.581,8.572,2.437,19.542,2.437,25.067V447c0,23.667-11.084,39.779-52.854,39.779H27.603  c-8.053,0-15.688-1.818-22.526-5.053c0.265,0.559,0.545,1.109,0.83,1.656c0.054,0.105,0.107,0.211,0.162,0.316  c0.306,0.578,0.623,1.149,0.948,1.715C16.148,501.283,33.267,512,52.853,512h397.372h8.921C488.289,512,512,488.29,512,459.147  V52.854C512.001,51.839,511.965,50.832,511.908,49.832z"/>
<path style="fill:#A0D860;" d="M452.59,473.494H59.41c-11.545,0-20.903-9.359-20.903-20.903V59.41  c0-11.544,9.359-20.903,20.903-20.903h393.18c11.544,0,20.903,9.359,20.903,20.903v393.181  C473.493,464.135,464.135,473.494,452.59,473.494z"/>
<path style="fill:#61C979;" d="M452.59,38.507h-34.533c11.544,0,20.903,9.359,20.903,20.903v393.181  c0,11.544-9.359,20.903-20.903,20.903h34.533c11.544,0,20.903-9.359,20.903-20.903V59.41  C473.493,47.866,464.135,38.507,452.59,38.507z"/>
<circle style="fill:#0072A2;" cx="256" cy="256" r="186.33"/>
<path style="fill:#006289;" d="M256,69.667c-4.178,0-8.321,0.152-12.43,0.423c97.112,6.398,173.903,87.18,173.903,185.911  s-76.791,179.512-173.903,185.91c4.11,0.271,8.252,0.423,12.43,0.423c102.909,0,186.334-83.424,186.334-186.334  S358.909,69.667,256,69.667z"/>
<g>
	<path style="fill:#F7F9F9;" d="M353.242,126.453c-15.75-31.27-107.997-38.927-136.403-2.553   c-22.574,28.907,3.518,80.177,15.183,100.012c6.655-5.017,14.934-7.993,23.91-7.993c14.444,0,27.087,7.703,34.051,19.223   C327.342,205.701,367.475,154.713,353.242,126.453z"/>
	<path style="fill:#F7F9F9;" d="M388.759,291.047c-12.892-34.336-70.245-38.812-93.253-39.202c0.121,1.263,0.188,2.542,0.188,3.836   c0,21.96-17.802,39.762-39.762,39.762c-0.079,0-0.157-0.005-0.236-0.006c5.637,47.232,28.213,108.071,59.75,110.664   C350.34,408.97,404.982,334.254,388.759,291.047z"/>
	<path style="fill:#F7F9F9;" d="M216.171,255.681c0-7.219,1.934-13.983,5.297-19.818c-43.867-18.396-107.927-28.77-125.739-2.616   c-19.708,28.938,18.33,113.326,63.917,120.527c36.226,5.723,68.409-41.954,80.1-61.777   C225.856,285.797,216.171,271.874,216.171,255.681z"/>
</g>
<g>
	<circle style="fill:#E4E4E4;" cx="423" cy="83" r="19.333"/>
	<circle style="fill:#E4E4E4;" cx="423" cy="83" r="24.333"/>
	<path style="fill:#E4E4E4;" d="M285.341,99.686l-22.044,116.929c11.31,2.12,20.936,9.016,26.686,18.528   c37.359-29.443,77.492-80.43,63.259-108.69C344.96,110.01,315.523,100.101,285.341,99.686z"/>
	<path style="fill:#E4E4E4;" d="M315.446,406.602c18.287,1.504,41.994-18.306,58.086-43.719L285.379,282.9   c-7.274,8.012-17.773,13.044-29.447,13.044c-0.079,0-0.157-0.005-0.236-0.006C261.333,343.169,283.909,404.008,315.446,406.602z"/>
	<path style="fill:#E4E4E4;" d="M216.171,255.681c0-7.219,1.934-13.983,5.297-19.818c-43.867-18.396-107.927-28.77-125.739-2.616   c-8.942,13.129-5.996,37.672,4.148,61.241l117.482-29.214C216.595,262.201,216.171,258.992,216.171,255.681z"/>
</g>
<circle style="fill:#FF4D4A;" cx="255.93" cy="255.68" r="42.735"/>
<path style="fill:#E13F33;" d="M255.932,212.946c-4.7,0-9.217,0.77-13.447,2.171c17.011,5.637,29.288,21.662,29.288,40.564  s-12.277,34.927-29.288,40.564c4.23,1.402,8.747,2.171,13.447,2.171c23.602,0,42.735-19.133,42.735-42.735  S279.534,212.946,255.932,212.946z"/>
<circle style="fill:#F8F5EE;" cx="255.93" cy="255.68" r="15.84"/>
<g>
</g>
<g>
</g>
<g>
</g>
<g>
</g>
<g>
</g>
<g>
</g>
<g>
</g>
<g>
</g>
<g>
</g>
<g>
</g>
<g>
</g>
<g>
</g>
<g>
</g>
<g>
</g>
<g>
</g>
</svg>
