<?xml version="1.0" encoding="iso-8859-1"?>
<!-- Generator: Adobe Illustrator 19.0.0, SVG Export Plug-In . SVG Version: 6.00 Build 0)  -->
<svg xmlns="http://www.w3.org/2000/svg" xmlns:xlink="http://www.w3.org/1999/xlink" version="1.1" id="Capa_1" x="0px" y="0px" viewBox="0 0 512 512" style="enable-background:new 0 0 512 512;" xml:space="preserve">
<path style="fill:#A0D860;" d="M385.627,512H126.373c-11.25,0-20.369-9.12-20.369-20.369V20.369C106.003,9.12,115.123,0,126.373,0  h259.255c11.25,0,20.369,9.12,20.369,20.369V491.63C405.997,502.88,396.877,512,385.627,512z"/>
<path style="fill:#61C979;" d="M385.628,0h-25.499c11.25,0,20.369,9.12,20.369,20.369v458.723c0,4.092-3.317,7.41-7.41,7.41H126.373  c-11.25,0-20.369-9.12-20.369-20.369v25.498c0,11.25,9.12,20.369,20.369,20.369H360.13h25.498c11.25,0,20.369-9.12,20.369-20.369  v-25.498V20.369C405.997,9.12,396.877,0,385.628,0z"/>
<path style="fill:#F7F9F9;" d="M364.264,433.631H147.736c-5.614,0-10.166-4.551-10.166-10.166V55.363  c0-5.614,4.551-10.166,10.166-10.166h216.529c5.614,0,10.166,4.551,10.166,10.166v368.102  C374.43,429.079,369.879,433.631,364.264,433.631z"/>
<path style="fill:#E4E4E4;" d="M364.264,45.197h-39.188c5.614,0,10.166,4.551,10.166,10.166v368.102  c0,5.614-4.551,10.166-10.166,10.166h39.188c5.614,0,10.166-4.551,10.166-10.166V55.363  C374.43,49.749,369.879,45.197,364.264,45.197z"/>
<circle style="fill:#FFFFFF;" cx="256" cy="474.36" r="17.389"/>
<path style="fill:#FFB427;" d="M318.854,322.059L318.85,231.8l-62.224-52.095c-0.405-0.339-1.009-0.339-1.413,0l-62.062,52.033  v90.321c0,3.23,2.618,5.848,5.848,5.848h29.661c3.23,0,5.848-2.618,5.848-5.848V271.26c0-3.442,2.79-6.232,6.232-6.232h30.52  c3.442,0,6.232,2.79,6.232,6.232v50.799c0,3.23,2.618,5.848,5.848,5.848h29.666C316.236,327.908,318.855,325.289,318.854,322.059z"/>
<path style="fill:#FF9D00;" d="M318.85,231.8l-62.224-52.095c-0.405-0.339-1.009-0.339-1.413,0l-15.816,13.26l53.955,45.171  l0.005,89.771h19.65c3.23,0,5.849-2.619,5.849-5.849L318.85,231.8z"/>
<path style="fill:#FFDE3E;" d="M364.264,45.197H147.736c-5.614,0-10.165,4.551-10.165,10.166v31.411h236.86V55.363  C374.43,49.749,369.879,45.197,364.264,45.197z"/>
<path style="fill:#FCD400;" d="M364.264,45.197h-39.187c5.614,0.001,10.164,4.552,10.164,10.166v31.411h39.188V55.363  c0-2.807-1.138-5.349-2.977-7.188S367.071,45.197,364.264,45.197z"/>
<path style="fill:#FF4D4A;" d="M342.674,227.676c0-0.237-0.11-0.464-0.304-0.626l-85.744-71.764  c-0.405-0.339-1.009-0.338-1.414,0.001l-85.585,71.845c-0.193,0.162-0.303,0.389-0.303,0.626v24.102c0,0.751,1.003,1.14,1.616,0.626  l84.271-70.652c0.405-0.339,1.009-0.339,1.413,0l84.434,70.689c0.613,0.513,1.616,0.125,1.616-0.626L342.674,227.676z"/>
<g>
</g>
<g>
</g>
<g>
</g>
<g>
</g>
<g>
</g>
<g>
</g>
<g>
</g>
<g>
</g>
<g>
</g>
<g>
</g>
<g>
</g>
<g>
</g>
<g>
</g>
<g>
</g>
<g>
</g>
</svg>
