<?xml version="1.0" encoding="iso-8859-1"?>
<!-- Generator: Adobe Illustrator 19.0.0, SVG Export Plug-In . SVG Version: 6.00 Build 0)  -->
<svg xmlns="http://www.w3.org/2000/svg" xmlns:xlink="http://www.w3.org/1999/xlink" version="1.1" id="Capa_1" x="0px" y="0px" viewBox="0 0 512 512" style="enable-background:new 0 0 512 512;" xml:space="preserve">
<path style="fill:#FFDE3E;" d="M229.232,224.699l-4.029,4.145L8.298,445.75c-1.991,1.991-3.117,4.687-3.133,7.503L0,494.738  c-0.037,6.451,5.6,11.467,12.003,10.68l41.826-2.391c3.155-0.388,5.536-3.053,5.566-6.232l3.507-22.348l25.312-3.535  c1.66-0.016,3.248-0.682,4.422-1.857l14.134-14.134c1.174-1.174,1.841-2.762,1.857-4.422l3.535-25.312l25.312-3.535  c1.66-0.016,3.248-0.682,4.422-1.857l14.134-14.134c1.174-1.174,1.841-2.762,1.857-4.422l3.535-25.312l25.311-3.535  c1.66-0.016,3.248-0.682,4.422-1.857l14.134-14.134c1.174-1.174,1.841-2.762,1.857-4.422l3.535-25.312l0,0l25.312-3.535  l15.736-15.821l3.98,3.909c4.431,4.352,11.55,4.295,15.911-0.127l21.848-22.157L229.232,224.699z"/>
<path style="fill:#FCD400;" d="M268.437,263.903l-21.848,22.157c-4.361,4.423-11.48,4.48-15.911,0.127l-3.98-3.909L210.961,298.1  l-25.312,3.535l0,0l-3.535,25.312c-0.016,1.66-0.682,3.248-1.857,4.422l-14.134,14.134c-1.174,1.174-2.762,1.841-4.422,1.857  l-25.311,3.535l-3.535,25.312c-0.016,1.66-0.682,3.248-1.857,4.422l-14.134,14.134c-1.174,1.174-2.762,1.841-4.422,1.857  l-25.312,3.535l-3.535,25.312c-0.016,1.66-0.683,3.248-1.857,4.422l-14.134,14.134c-1.174,1.174-2.762,1.841-4.422,1.857  l-25.312,3.535l-3.507,22.348c-0.03,3.179-2.411,5.844-5.566,6.232l-26.903,1.538L0,494.738c-0.037,6.451,5.6,11.467,12.003,10.68  l41.826-2.391c3.155-0.388,5.536-3.053,5.566-6.232l3.507-22.348l25.312-3.535c1.66-0.016,3.248-0.682,4.422-1.857l14.134-14.134  c1.174-1.174,1.841-2.762,1.857-4.422l3.535-25.312l25.312-3.535c1.66-0.016,3.248-0.682,4.422-1.857l14.134-14.134  c1.174-1.174,1.841-2.762,1.857-4.422l3.535-25.312l25.311-3.535c1.66-0.016,3.248-0.682,4.422-1.857l14.134-14.134  c1.174-1.174,1.841-2.762,1.857-4.422l3.535-25.312l0,0l25.312-3.535l15.736-15.821l3.98,3.909  c4.431,4.352,11.55,4.295,15.911-0.127l21.848-22.157L268.437,263.903z"/>
<path style="fill:#0072A2;" d="M512,179.897C512,99.983,418.517,6.5,338.604,6.5c-47.562,0-84.681,56.339-106.94,101.954  c-17.681,36.234-20.225,78.116-6.272,115.943c0.287,0.778,0.567,1.513,0.838,2.198l65.676,65.676  c0.686,0.271,1.42,0.551,2.198,0.838c37.826,13.953,79.708,11.409,115.942-6.273C455.661,264.578,512,227.459,512,179.897z   M380.24,138.26c-14.854-14.854-14.854-38.938,0-53.792s38.938-14.854,53.792,0s14.854,38.938,0,53.792  S395.094,153.115,380.24,138.26z"/>
<path style="fill:#006289;" d="M512,179.897c0-44.77-29.344-93.794-69.201-128.259c27.054,31.287,45.138,69.052,45.138,104.195  c0,47.562-56.339,84.681-101.954,106.94c-36.234,17.681-78.116,20.225-115.942,6.273c-0.778-0.287-1.513-0.567-2.198-0.838  l24.063,24.063c0.686,0.271,1.42,0.551,2.198,0.838c37.826,13.953,79.708,11.409,115.942-6.273  C455.661,264.578,512,227.459,512,179.897z"/>
<g>
</g>
<g>
</g>
<g>
</g>
<g>
</g>
<g>
</g>
<g>
</g>
<g>
</g>
<g>
</g>
<g>
</g>
<g>
</g>
<g>
</g>
<g>
</g>
<g>
</g>
<g>
</g>
<g>
</g>
</svg>
