<?xml version="1.0" encoding="iso-8859-1"?>
<!-- Generator: Adobe Illustrator 19.0.0, SVG Export Plug-In . SVG Version: 6.00 Build 0)  -->
<svg xmlns="http://www.w3.org/2000/svg" xmlns:xlink="http://www.w3.org/1999/xlink" version="1.1" id="Capa_1" x="0px" y="0px" viewBox="0 0 512 512" style="enable-background:new 0 0 512 512;" xml:space="preserve">
<polygon style="fill:#FFDE3E;" points="145.057,119.953 145.057,86.588 78.68,86.588 78.68,177.721 "/>
<polygon style="fill:#FCD400;" points="110.431,86.588 110.431,150.088 145.057,119.953 145.057,86.588 "/>
<path style="fill:#FFB427;" d="M253.38,75.772L62.225,242.133v238.735c0,6.312,5.117,11.429,11.429,11.429h364.693  c6.312,0,11.429-5.117,11.429-11.429V242.133L258.62,75.772C257.118,74.465,254.882,74.465,253.38,75.772z"/>
<path style="fill:#FF8100;" d="M253.38,75.772l-15.209,13.236c68.538,58.558,177.618,153.107,177.618,153.107v238.753  c0,6.312-5.117,11.429-11.429,11.429h33.986c6.312,0,11.429-5.117,11.429-11.429V242.133L258.62,75.772  C257.118,74.465,254.882,74.465,253.38,75.772z"/>
<path style="fill:#D96B37;" d="M154.594,61.053H66.493c-2.338,0-4.234,1.896-4.234,4.234v22.069c0,2.338,1.896,4.234,4.234,4.234  h88.101c2.338,0,4.234-1.896,4.234-4.234V65.287C158.828,62.948,156.932,61.053,154.594,61.053z"/>
<path style="fill:#FF4D4A;" d="M4.083,247.117h58.142v0.017L253.38,80.773c1.502-1.307,3.737-1.307,5.239,0l191.156,166.361v-0.017  h58.142c3.768,0,5.517-4.675,2.675-7.148L258.62,20.679c-1.502-1.307-3.738-1.307-5.239,0L1.408,239.969  C-1.434,242.442,0.315,247.117,4.083,247.117z"/>
<rect x="147.72" y="412.748" style="fill:#575A60;" width="216.57" height="39.773"/>
<rect x="147.72" y="452.528" style="fill:#0072A2;" width="216.57" height="39.773"/>
<rect x="338.81" y="452.528" style="fill:#006289;" width="25.475" height="39.773"/>
<rect x="147.72" y="333.208" style="fill:#575A60;" width="216.57" height="39.773"/>
<rect x="147.72" y="372.978" style="fill:#0072A2;" width="216.57" height="39.773"/>
<rect x="338.81" y="333.208" style="fill:#3E4156;" width="25.475" height="39.773"/>
<rect x="338.81" y="372.978" style="fill:#006289;" width="25.475" height="39.773"/>
<rect x="338.81" y="412.748" style="fill:#3E4156;" width="25.475" height="39.773"/>
<rect x="147.72" y="290.438" style="fill:#0072A2;" width="216.57" height="42.773"/>
<rect x="338.81" y="290.438" style="fill:#006289;" width="25.475" height="42.773"/>
<path style="fill:#D96B37;" d="M378.895,254.725h-245.79c-0.887,0-1.605,0.719-1.605,1.605v35.498c0,0.887,0.719,1.605,1.605,1.605  h245.789c0.887,0,1.605-0.719,1.605-1.605V256.33C380.5,255.444,379.781,254.725,378.895,254.725z"/>
<g>
	<path style="fill:#B14418;" d="M379.061,254.725h-23.869v38.709h23.869c0.887,0,1.605-0.719,1.605-1.605v-35.498   C380.666,255.444,379.948,254.725,379.061,254.725z"/>
	<path style="fill:#B14418;" d="M154.594,61.053h-30.456V91.59h30.456c2.338,0,4.234-1.896,4.234-4.234V65.287   C158.828,62.948,156.932,61.053,154.594,61.053z"/>
</g>
<g>
</g>
<g>
</g>
<g>
</g>
<g>
</g>
<g>
</g>
<g>
</g>
<g>
</g>
<g>
</g>
<g>
</g>
<g>
</g>
<g>
</g>
<g>
</g>
<g>
</g>
<g>
</g>
<g>
</g>
</svg>
