<?xml version="1.0" encoding="iso-8859-1"?>
<!-- Generator: Adobe Illustrator 16.0.0, SVG Export Plug-In . SVG Version: 6.00 Build 0)  -->
<!DOCTYPE svg PUBLIC "-//W3C//DTD SVG 1.1//EN" "http://www.w3.org/Graphics/SVG/1.1/DTD/svg11.dtd">
<svg version="1.1" id="Capa_1" xmlns="http://www.w3.org/2000/svg" xmlns:xlink="http://www.w3.org/1999/xlink" x="0px" y="0px"
	 width="70.074px" height="70.074px" viewBox="0 0 70.074 70.074" style="enable-background:new 0 0 70.074 70.074;"
	 xml:space="preserve">
<g>
	<path d="M20.191,13.616h-2.336v-4.97h2.336V13.616z M24.171,19.254c-0.381-2.514-2.53-4.45-5.148-4.45
		c-2.621,0-4.77,1.937-5.144,4.45H24.171z M28.546,13.58l-1.651-1.651l-3.517,3.513l1.651,1.651L28.546,13.58z M14.668,15.189
		l-3.515-3.515l-1.652,1.652l3.517,3.515L14.668,15.189z M18.062,24.96H6.383v12.828h11.679V24.96z M70.074,48.062v4.671h-2.563
		v3.311h-9.262c-0.554,3.057-3.221,5.385-6.433,5.385c-3.216,0-5.885-2.328-6.439-5.385H25.46c-0.553,3.057-3.223,5.385-6.437,5.385
		c-3.212,0-5.882-2.328-6.433-5.385H1.964v-3.311H0v-4.671h1.964V20.432h65.547v27.631H70.074z M23.244,54.876
		c0-2.327-1.895-4.223-4.221-4.223s-4.217,1.896-4.217,4.223c0,2.326,1.892,4.218,4.217,4.218
		C21.35,59.094,23.244,57.202,23.244,54.876z M56.032,54.876c0-2.327-1.896-4.223-4.216-4.223c-2.326,0-4.222,1.896-4.222,4.223
		c0,2.326,1.896,4.218,4.222,4.218C54.144,59.094,56.032,57.202,56.032,54.876z M65.175,22.768H4.297v30.94h8.288
		c0.553-3.06,3.221-5.391,6.435-5.391s5.884,2.331,6.437,5.391h19.917c0.554-3.06,3.221-5.391,6.438-5.391
		c3.211,0,5.883,2.331,6.433,5.391h6.925v-30.94H65.175z M34.25,45.252h4.672v-5.128h5.125v-4.672h-5.125v-5.133H34.25v5.131h-5.132
		v4.672h5.132V45.252z"/>
</g>
<g>
</g>
<g>
</g>
<g>
</g>
<g>
</g>
<g>
</g>
<g>
</g>
<g>
</g>
<g>
</g>
<g>
</g>
<g>
</g>
<g>
</g>
<g>
</g>
<g>
</g>
<g>
</g>
<g>
</g>
</svg>
