<?xml version="1.0" encoding="iso-8859-1"?>
<!-- Generator: Adobe Illustrator 16.0.0, SVG Export Plug-In . SVG Version: 6.00 Build 0)  -->
<!DOCTYPE svg PUBLIC "-//W3C//DTD SVG 1.1//EN" "http://www.w3.org/Graphics/SVG/1.1/DTD/svg11.dtd">
<svg version="1.1" id="Capa_1" xmlns="http://www.w3.org/2000/svg" xmlns:xlink="http://www.w3.org/1999/xlink" x="0px" y="0px"
	 width="77.084px" height="77.084px" viewBox="0 0 77.084 77.084" style="enable-background:new 0 0 77.084 77.084;"
	 xml:space="preserve">
<g>
	<path d="M13.714,16.534c0-3.782-3.074-6.858-6.858-6.858C3.079,9.676,0,12.748,0,16.534C0,19.543,1.962,22.073,4.66,23H0.491v5.876
		h4.161v2.623H0.491v2.937h4.161v2.555H0.491v2.941h4.161v2.551H0.491v2.938h4.161v2.555H0.491v2.938h4.161v2.557H0.491v2.938h4.161
		v0.972c-1.801,0.832-3.062,2.652-3.062,4.763c0,2.906,2.363,5.265,5.262,5.265c2.9,0,5.267-2.358,5.267-5.265
		c0-2.11-1.259-3.931-3.064-4.763v-0.972h4.709v-2.943H9.054v-2.557h4.709v-2.938H9.054v-2.556h4.709v-2.938H9.054v-2.552h4.709
		v-2.94H9.054v-2.555h4.709v-2.937H9.054v-2.623h4.709v-5.877H9.044C11.751,22.073,13.714,19.543,13.714,16.534z M2.94,16.534
		c0-2.164,1.76-3.92,3.92-3.92c2.163,0,3.919,1.756,3.919,3.92c0,2.158-1.756,3.917-3.919,3.917C4.7,20.451,2.94,18.692,2.94,16.534
		z M9.185,62.134c0,1.286-1.042,2.326-2.325,2.326c-1.284,0-2.327-1.04-2.327-2.326c0-1.284,1.042-2.327,2.327-2.327
		C8.143,59.805,9.185,60.85,9.185,62.134z M76.988,52.611V30.238h-5.111l-3.63-15.876H29.844l-3.633,15.876H21.1v22.373
		l-0.096,0.424H21.1v2.313h4.141v7.363h10.313v-7.363h26.979v7.363h10.315v-7.363h4.14v-2.313h0.096L76.988,52.611z M32.417,43.231
		h-7.619v-7.616h7.619V43.231z M61.831,50.234H36.263v-2.062h25.568V50.234z M61.831,43.826H36.263v-2.064h25.568V43.826z
		 M61.831,37.416H36.263v-2.063h25.568V37.416z M64.582,30.238h-6.734c-0.027-0.177-0.052-0.359-0.052-0.546
		c0-1.89,1.535-3.424,3.426-3.424c1.887,0,3.422,1.534,3.422,3.424C64.639,29.878,64.611,30.061,64.582,30.238z M61.217,24.204
		c-3.024,0-5.49,2.462-5.49,5.487c0,0.187,0.043,0.365,0.06,0.546H30.438l2.687-11.751h31.827l2.688,11.751H66.64
		c0.018-0.182,0.052-0.359,0.052-0.546C66.703,26.667,64.242,24.204,61.217,24.204z M73.284,43.231h-7.616v-7.616h7.616V43.231z"/>
</g>
<g>
</g>
<g>
</g>
<g>
</g>
<g>
</g>
<g>
</g>
<g>
</g>
<g>
</g>
<g>
</g>
<g>
</g>
<g>
</g>
<g>
</g>
<g>
</g>
<g>
</g>
<g>
</g>
<g>
</g>
</svg>
