<?xml version="1.0" encoding="iso-8859-1"?>
<!-- Generator: Adobe Illustrator 16.0.0, SVG Export Plug-In . SVG Version: 6.00 Build 0)  -->
<!DOCTYPE svg PUBLIC "-//W3C//DTD SVG 1.1//EN" "http://www.w3.org/Graphics/SVG/1.1/DTD/svg11.dtd">
<svg version="1.1" id="Capa_1" xmlns="http://www.w3.org/2000/svg" xmlns:xlink="http://www.w3.org/1999/xlink" x="0px" y="0px"
	 width="72.906px" height="72.905px" viewBox="0 0 72.906 72.905" style="enable-background:new 0 0 72.906 72.905;"
	 xml:space="preserve">
<g>
	<path d="M57.73,33.748h-1.793V27.13h-3.909l-5.411-9.341H24.385l-5.41,9.341H7.95v6.618H6.599v3.738H7.95v2.336h7.76
		c0.439,2.235,2.406,3.93,4.77,3.93c2.363,0,4.331-1.694,4.768-3.93h14.387c0.437,2.235,2.404,3.93,4.768,3.93
		c2.366,0,4.332-1.694,4.768-3.93h6.764v-2.336h1.79v-3.738H57.73z M20.484,41.876c-1.649,0-2.995-1.346-2.995-2.993
		c0-1.652,1.346-2.993,2.995-2.993c1.651,0,2.994,1.341,2.994,2.993C23.478,40.53,22.135,41.876,20.484,41.876z M44.409,41.876
		c-1.656,0-2.997-1.346-2.997-2.993c0-1.652,1.341-2.993,2.997-2.993c1.651,0,2.993,1.341,2.993,2.993
		C47.407,40.53,46.06,41.876,44.409,41.876z M54.076,37.95h-4.899c-0.438-2.235-2.404-3.929-4.768-3.929s-4.334,1.693-4.771,3.929
		H25.251c-0.437-2.235-2.404-3.929-4.768-3.929c-2.362,0-4.331,1.693-4.77,3.929H9.826V29h10.233l5.407-9.343h20.082L50.956,29h3.12
		V37.95z M34.669,21.52h8.809v7.281h-8.809V21.52z M45.346,23.033l3.34,5.77h-3.34V23.033z M26.545,21.52h6.26v7.281H22.33
		L26.545,21.52z M55.385,52.971l-1.313,1.333l-1.011-1.013c0.283-0.265,0.579-0.507,0.854-0.78c11.993-11.996,11.993-31.51,0-43.506
		C48.107,3.195,40.383,0,32.166,0c-8.222,0-15.942,3.198-21.751,9.009C-1.583,21.001-1.583,40.517,10.41,52.511
		c5.809,5.81,13.536,9.008,21.751,9.008c7.202,0,14.023-2.462,19.514-6.974l1.076,1.081l-1.312,1.321l16.106,15.958l3.944-3.982
		L55.385,52.971z M52.598,51.199c-5.456,5.456-12.71,8.462-20.433,8.462c-7.716,0-14.973-3.006-20.432-8.462
		C0.473,39.938,0.478,21.6,11.738,10.336c5.458-5.457,12.711-8.463,20.434-8.463c7.718,0,14.97,3.002,20.426,8.463
		C63.862,21.6,63.862,39.924,52.598,51.199z"/>
</g>
<g>
</g>
<g>
</g>
<g>
</g>
<g>
</g>
<g>
</g>
<g>
</g>
<g>
</g>
<g>
</g>
<g>
</g>
<g>
</g>
<g>
</g>
<g>
</g>
<g>
</g>
<g>
</g>
<g>
</g>
</svg>
