<?xml version="1.0" encoding="iso-8859-1"?>
<!-- Generator: Adobe Illustrator 18.1.1, SVG Export Plug-In . SVG Version: 6.00 Build 0)  -->
<svg version="1.1" id="Capa_1" xmlns="http://www.w3.org/2000/svg" xmlns:xlink="http://www.w3.org/1999/xlink" x="0px" y="0px"
	 viewBox="0 0 179.012 179.012" style="enable-background:new 0 0 179.012 179.012;" xml:space="preserve">
<g>
	<path style="fill:#010002;" d="M158.602,119.552v-19.267h-8.73c-1.551-9.696-5.346-18.623-10.884-26.23l6.188-6.188l-13.622-13.622
		l-6.188,6.188c-7.608-5.531-16.534-9.332-26.23-10.878v-8.736H79.875v8.736c-9.69,1.545-18.599,5.346-26.23,10.878l-6.176-6.188
		L33.841,67.867l6.188,6.188c-5.543,7.62-9.326,16.54-10.878,26.23H20.41v19.267h8.73c1.551,9.69,5.34,18.611,10.878,26.23
		l-6.188,6.182l13.628,13.622l6.176-6.188c7.62,5.531,16.534,9.326,26.23,10.878v8.735h19.261v-8.735
		c9.696-1.551,18.611-5.346,26.23-10.878l6.188,6.188l13.622-13.622l-6.188-6.182c5.549-7.614,9.332-16.534,10.884-26.23
		C149.861,119.552,158.602,119.552,158.602,119.552z M131.435,109.916c0,23.122-18.808,41.929-41.929,41.929
		s-41.929-18.808-41.929-41.929s18.808-41.929,41.929-41.929C112.628,67.987,131.435,86.794,131.435,109.916z M89.506,75.785
		c-18.82,0-34.136,15.311-34.136,34.13s15.311,34.136,34.136,34.136c18.82,0,34.13-15.311,34.13-34.136
		C123.642,91.102,108.326,75.785,89.506,75.785z M89.506,137.626c-15.287,0-27.716-12.435-27.716-27.716
		s12.423-27.704,27.716-27.704c15.287,0,27.71,12.429,27.71,27.704S104.793,137.626,89.506,137.626z M108.946,35.193l-3.837,3.831
		l4.547,4.541l3.837-3.831c2.273,1.617,4.917,2.727,7.799,3.216v5.43h6.402v-5.43c2.864-0.489,5.525-1.599,7.799-3.216l3.837,3.831
		l4.535-4.541l-3.825-3.831c1.611-2.279,2.715-4.923,3.216-7.787h5.43V20.98h-5.43c-0.501-2.864-1.611-5.507-3.216-7.793
		l3.825-3.837l-4.535-4.541l-3.837,3.837c-2.285-1.617-4.917-2.727-7.799-3.216V0h-6.408v5.43c-2.864,0.489-5.513,1.599-7.799,3.216
		l-3.837-3.837l-4.547,4.541l3.837,3.837c-1.617,2.279-2.727,4.923-3.216,7.793h-5.43v6.426h5.43
		C106.219,30.276,107.323,32.919,108.946,35.193z M124.478,14.744c5.209,0,9.452,4.236,9.452,9.452s-4.242,9.452-9.452,9.452
		c-5.209,0-9.452-4.236-9.452-9.452S119.281,14.744,124.478,14.744z"/>
</g>
<g>
</g>
<g>
</g>
<g>
</g>
<g>
</g>
<g>
</g>
<g>
</g>
<g>
</g>
<g>
</g>
<g>
</g>
<g>
</g>
<g>
</g>
<g>
</g>
<g>
</g>
<g>
</g>
<g>
</g>
</svg>
