<?xml version='1.0' encoding='iso-8859-1'?>
<!DOCTYPE svg PUBLIC '-//W3C//DTD SVG 1.1//EN' 'http://www.w3.org/Graphics/SVG/1.1/DTD/svg11.dtd'>
<svg version="1.1" xmlns="http://www.w3.org/2000/svg" viewBox="0 0 297 297" xmlns:xlink="http://www.w3.org/1999/xlink" enable-background="new 0 0 297 297">
  <g>
    <path d="m289.603,189.013l-36.68-32.692c-3.747-3.342-9.405-3.342-13.151,0l-36.683,32.692c-2.104,1.874-3.308,4.56-3.308,7.378v56.515c0,5.458 4.426,9.884 9.884,9.884h73.362c5.458,0 9.883-4.426 9.883-9.884v-56.515c0.001-2.819-1.202-5.502-3.307-7.378zm-16.458,54.008h-53.595v-42.2l26.798-23.884 26.797,23.884v42.2z"/>
    <path d="m116.979,172.477c3.281-3.281 3.281-8.6-0.001-11.881-3.279-3.279-8.601-3.28-11.88,0.001-2.562,2.561-5.967,3.972-9.59,3.972-3.622,0-7.027-1.41-9.589-3.972-3.281-3.281-8.601-3.282-11.88-0.001-3.282,3.28-3.282,8.6-0.001,11.881 5.734,5.735 13.359,8.894 21.47,8.894 8.112,0 15.737-3.158 21.471-8.894z"/>
    <path d="m122.185,179.703c-7.125,7.125-16.599,11.049-26.676,11.049-10.076,0-19.55-3.924-26.674-11.049-3.281-3.28-8.601-3.281-11.88,0-3.282,3.28-3.282,8.6-0.001,11.88 10.297,10.3 23.99,15.971 38.555,15.971 14.565,0 28.258-5.671 38.557-15.971 3.281-3.28 3.281-8.6-0.001-11.88-3.28-3.28-8.599-3.28-11.88,0z"/>
    <path d="m224.876,134.405c-3.28,3.28-3.28,8.601 0,11.882 3.282,3.279 8.601,3.279 11.882,0 5.287-5.289 13.891-5.289 19.179,0 1.641,1.64 3.79,2.46 5.941,2.46 2.15,0 4.3-0.82 5.94-2.46 3.281-3.281 3.281-8.602 0-11.882-11.839-11.839-31.103-11.839-42.942,0z"/>
    <path d="m207.792,115.302c-3.281,3.28-3.281,8.6 0,11.88 3.28,3.28 8.602,3.281 11.881-0.001 7.125-7.125 16.599-11.049 26.675-11.049 10.077,0 19.549,3.924 26.673,11.049 1.641,1.642 3.791,2.462 5.941,2.462 2.149,0 4.3-0.82 5.94-2.461 3.28-3.279 3.281-8.6 0.001-11.88-10.298-10.3-23.99-15.973-38.555-15.973-14.566-1.42109e-14-28.258,5.673-38.556,15.973z"/>
    <path d="M151.354,0H39.669C20.05,0,4.089,15.961,4.089,35.581v225.838c0,19.62,15.961,35.581,35.58,35.581h111.685   c19.619,0,35.58-15.961,35.58-35.581V35.581C186.934,15.961,170.973,0,151.354,0z M39.669,19.768h111.685   c8.719,0,15.814,7.094,15.814,15.814v189.764H23.856V35.581C23.856,26.861,30.95,19.768,39.669,19.768z M151.354,277.232H39.669   c-8.719,0-15.813-7.094-15.813-15.813v-16.308h143.312v16.308C167.167,270.139,160.072,277.232,151.354,277.232z"/>
    <path d="m95.508,251.042c-2.599,0-5.148,1.057-6.987,2.895-1.839,1.838-2.895,4.389-2.895,6.987 0,2.6 1.057,5.149 2.895,6.987 1.839,1.839 4.389,2.896 6.987,2.896 2.609,0 5.149-1.058 6.987-2.896 1.849-1.838 2.896-4.388 2.896-6.987 0-2.599-1.048-5.149-2.896-6.987-1.838-1.838-4.388-2.895-6.987-2.895z"/>
    <path d="m50.54,133.381h5.288c1.166,8.462 8.423,15.006 17.197,15.006 8.773,0 16.029-6.544 17.195-15.006h50.26c5.458,0 9.884-4.425 9.884-9.883 0-5.458-4.426-9.884-9.884-9.884-2.329,0-5.106-0.888-5.106-5.119v-30.011c0-19.288-13.751-35.421-31.957-39.101v-5.913c0-4.366-3.54-7.907-7.907-7.907-4.366,0-7.906,3.541-7.906,7.907v5.914c-18.206,3.68-31.957,19.813-31.957,39.101v29.897c-0.21,5.233-3.516,5.233-5.106,5.233-5.458,0-9.884,4.426-9.884,9.884-0.001,5.457 4.425,9.882 9.883,9.882zm24.873-24.886v-30.011c0-11.097 9.016-20.125 20.097-20.125 11.082,0 20.098,9.028 20.098,20.125v30.011c0,1.821 0.147,3.524 0.424,5.119h-41.153c0.363-1.778 0.534-3.511 0.534-5.119z"/>
    <path d="m209.667,36.075h22.732v39.04c0,5.458 4.425,9.883 9.883,9.883 5.458,0 9.884-4.425 9.884-9.883v-48.924c0-5.458-4.426-9.884-9.884-9.884h-32.615c-5.458,0-9.884,4.426-9.884,9.884s4.426,9.884 9.884,9.884z"/>
  </g>
</svg>
