<?xml version='1.0' encoding='iso-8859-1'?>
<!DOCTYPE svg PUBLIC '-//W3C//DTD SVG 1.1//EN' 'http://www.w3.org/Graphics/SVG/1.1/DTD/svg11.dtd'>
<svg version="1.1" xmlns="http://www.w3.org/2000/svg" viewBox="0 0 297 297" xmlns:xlink="http://www.w3.org/1999/xlink" enable-background="new 0 0 297 297">
  <g>
    <path d="m129.284,31.022c-3.076,3.085-3.07,8.081 0.016,11.158 3.083,3.075 8.079,3.07 11.158-0.017 2.148-2.154 5.005-3.342 8.042-3.342 3.037,0 5.894,1.188 8.042,3.342 1.542,1.546 3.563,2.319 5.587,2.319 2.015,0 4.032-0.768 5.571-2.303 3.086-3.077 3.093-8.073 0.016-11.158-5.131-5.145-11.956-7.98-19.216-7.98-7.26,0.001-14.085,2.836-19.216,7.981z"/>
    <path d="m125.469,25.352c6.153-6.172 14.333-9.572 23.033-9.572 8.699,0.001 16.877,3.4 23.029,9.571 1.542,1.547 3.564,2.32 5.588,2.32 2.015,0 4.031-0.768 5.57-2.302 3.087-3.076 3.094-8.072 0.018-11.158-9.134-9.164-21.282-14.211-34.205-14.211-0.001,0 0,0-0.001,0-12.923,0-25.072,5.047-34.208,14.211-3.076,3.086-3.068,8.081 0.017,11.158 3.086,3.077 8.081,3.068 11.159-0.017z"/>
    <path d="m67.132,105.086c2.604,0 5.139-1.056 6.973-2.891 1.844-1.833 2.891-4.378 2.891-6.972 0-2.594-1.047-5.138-2.891-6.973-1.834-1.835-4.369-2.89-6.973-2.89-2.594,0-5.138,1.055-6.973,2.89-1.835,1.835-2.89,4.368-2.89,6.973 0,2.594 1.055,5.139 2.89,6.972 1.835,1.835 4.379,2.891 6.973,2.891z"/>
    <path d="m278.684,75.745h-24.972l2.154-12.926c0.477-2.859-0.329-5.783-2.203-7.996-1.874-2.212-4.626-3.487-7.525-3.487h-211.549c-5.446,0-9.862,4.416-9.862,9.862v97.638c0,5.447 4.416,9.862 9.862,9.862h55.23v24.163c0,5.446 4.416,9.862 9.862,9.862h6.411v26.286c-0.979,0.888-1.913,1.826-2.798,2.809h-84.978c-5.446,0-9.862,4.416-9.862,9.862v32.546c0,5.446 4.416,9.862 9.862,9.862h84.977c7.14,7.922 17.465,12.911 28.934,12.911 21.493,0 38.982-17.517 38.982-39.047 0-11.467-4.962-21.793-12.847-28.943v-26.286h6.411c5.446,0 9.862-4.416 9.862-9.862v-24.163h55.23c4.821,0 8.936-3.485 9.729-8.241l2.694-16.168h36.395c5.446,0 9.862-4.416 9.862-9.862v-48.82c0.001-5.446-4.415-9.862-9.861-9.862zm-184.904,188.619h-65.601v-12.821h65.601c-0.346,2.087-0.535,4.227-0.535,6.41 0,2.185 0.19,4.324 0.535,6.411zm38.447,12.91c-10.619,0-19.257-8.667-19.257-19.321s8.638-19.321 19.257-19.321c10.618,0 19.256,8.667 19.256,19.321s-8.637,19.321-19.256,19.321zm-6.411-57.829v-16.722h12.821v16.722c-2.087-0.348-4.227-0.538-6.41-0.538-2.184,2.84217e-14-4.324,0.191-6.411,0.538zm29.094-36.446h-45.366v-12.821h45.366v12.821zm66.6-34.025h-177.059v-77.913h190.044l-12.985,77.913zm47.311-24.41h-23.246l4.85-29.094h18.396v29.094z"/>
  </g>
</svg>
