<?xml version='1.0' encoding='iso-8859-1'?>
<!DOCTYPE svg PUBLIC '-//W3C//DTD SVG 1.1//EN' 'http://www.w3.org/Graphics/SVG/1.1/DTD/svg11.dtd'>
<svg version="1.1" xmlns="http://www.w3.org/2000/svg" viewBox="0 0 297 297" xmlns:xlink="http://www.w3.org/1999/xlink" enable-background="new 0 0 297 297">
  <g>
    <path d="m62.221,98.564c2.75,0 5.448-1.119 7.393-3.065 1.956-1.944 3.065-4.643 3.065-7.393s-1.109-5.448-3.065-7.394c-1.944-1.946-4.632-3.064-7.393-3.064-2.75,0-5.448,1.118-7.395,3.064-1.945,1.945-3.063,4.644-3.063,7.394s1.118,5.448 3.063,7.393c1.946,1.946 4.645,3.065 7.395,3.065z"/>
    <path d="m62.221,133.075c2.75,0 5.448-1.12 7.393-3.065 1.956-1.944 3.065-4.643 3.065-7.393s-1.109-5.448-3.065-7.395c-1.944-1.945-4.643-3.063-7.393-3.063-2.75,0-5.448,1.118-7.395,3.063-1.945,1.946-3.063,4.645-3.063,7.395s1.118,5.448 3.063,7.393c1.946,1.945 4.645,3.065 7.395,3.065z"/>
    <path d="m62.223,226.997c-7.698,0-14.935,3.006-20.376,8.463-3.263,3.27-3.255,8.568 0.017,11.831 3.27,3.262 8.566,3.255 11.832-0.018 2.278-2.284 5.308-3.544 8.527-3.544 3.22,0 6.249,1.26 8.527,3.544 1.635,1.64 3.778,2.459 5.925,2.459 2.136,0 4.274-0.814 5.906-2.441 3.272-3.263 3.279-8.561 0.018-11.831-5.442-5.457-12.678-8.463-20.376-8.463z"/>
    <path d="m62.225,202.564c-0.001,0 0,0-0.001,0-13.703,0-26.586,5.352-36.273,15.069-3.262,3.273-3.254,8.569 0.019,11.832 3.273,3.262 8.569,3.253 11.832-0.018 6.525-6.545 15.199-10.15 24.424-10.15 9.224,0.001 17.896,3.605 24.42,10.149 1.635,1.641 3.779,2.46 5.925,2.46 2.137,0 4.274-0.814 5.906-2.441 3.273-3.262 3.281-8.559 0.02-11.831-9.687-9.718-22.569-15.07-36.272-15.07z"/>
    <path d="m286.542,288.372c5.775,0 10.458-4.683 10.458-10.458v-51.766c0-5.775-4.683-10.457-10.458-10.457h-11.983c3.298-5.884 5.186-12.659 5.186-19.87v-55.949c0-5.775-4.683-10.457-10.458-10.457h-69.021-17.255c-15.281,0-27.713,12.432-27.713,27.713 0,15.281 12.432,27.713 27.713,27.713h6.797v10.98c0,7.211 1.889,13.986 5.186,19.87h-70.547v-134.382h82.616v24.053c0,5.775 4.683,10.458 10.458,10.458h34.51c5.775,0 10.458-4.683 10.458-10.458v-24.053h24.053c5.775,0 10.458-4.682 10.458-10.457 0-34.311-27.913-62.224-62.224-62.224h-172.552c-34.311-7.10543e-15-62.224,27.913-62.224,62.224v207.063c0,5.775 4.683,10.458 10.458,10.458h276.084zm-103.531-124.448c-3.748,0-6.798-3.049-6.798-6.797 0-3.748 3.05-6.798 6.798-6.798h6.797v13.595h-6.797zm27.713,31.896v-45.491h48.106v45.491c0,10.956-8.913,19.87-19.869,19.87h-8.366c-10.958-2.84217e-14-19.871-8.914-19.871-19.87zm30.85-100.917h-13.596v-13.595h13.596v13.595zm-118.023-34.51c-1.993-11.718-7.266-22.329-14.848-30.851h126.073c19.165,0 35.324,13.12 39.967,30.851h-151.192zm-61.327-30.851c22.777,0 41.308,18.531 41.308,41.309v93.073h-82.617v-93.073c-7.10543e-15-22.778 18.531-41.309 41.309-41.309zm41.307,237.914h-82.616v-82.616h82.616v82.616zm172.554-30.851v30.851h-151.638v-30.851h151.638z"/>
  </g>
</svg>
