<?xml version='1.0' encoding='iso-8859-1'?>
<!DOCTYPE svg PUBLIC '-//W3C//DTD SVG 1.1//EN' 'http://www.w3.org/Graphics/SVG/1.1/DTD/svg11.dtd'>
<svg version="1.1" xmlns="http://www.w3.org/2000/svg" viewBox="0 0 297 297" xmlns:xlink="http://www.w3.org/1999/xlink" enable-background="new 0 0 297 297">
  <g>
    <path d="m293.697,128.584l-138.368-124.672c-3.797-3.42-9.565-3.424-13.366-0.008l-138.652,124.672c-3.076,2.766-4.13,7.143-2.647,11.006 1.48,3.861 5.189,6.412 9.327,6.412h31.38v139.672c0,5.518 4.473,9.99 9.989,9.99h194.281c5.517,0 9.989-4.473 9.989-9.99v-139.672h31.38c4.136,0 7.843-2.549 9.325-6.408 1.484-3.86 0.435-8.235-2.638-11.002zm-58.046,147.091h-174.301v-135.193l87.152-77.676 87.148,77.676v135.193zm13.795-149.66l-94.297-84.047c-3.787-3.377-9.506-3.377-13.293-0.002l-94.301,84.049h-11.512l112.594-101.242 112.363,101.242h-11.554z"/>
    <path d="m104.39,154.148c4.138,0 7.492-3.355 7.492-7.494 0-4.139-3.354-7.492-7.492-7.492-4.139,0-7.493,3.354-7.493,7.492v0.004c0,4.139 3.354,7.49 7.493,7.49z"/>
    <path d="m193.454,154.148c4.138,0 7.492-3.355 7.492-7.494 0-4.139-3.355-7.492-7.492-7.492-4.139,0-7.492,3.354-7.492,7.492v0.004c-2.84217e-14,4.139 3.354,7.49 7.492,7.49z"/>
    <path d="m104.39,229.609c-4.139,0-7.493,3.354-7.493,7.492v0.004c0,4.137 3.354,7.49 7.493,7.49 4.138,0 7.492-3.357 7.492-7.494 0-4.138-3.355-7.492-7.492-7.492z"/>
    <path d="m193.454,229.609c-4.139,0-7.492,3.354-7.492,7.492v0.004c0,4.137 3.354,7.49 7.492,7.49 4.138,0 7.492-3.357 7.492-7.494 0.001-4.138-3.354-7.492-7.492-7.492z"/>
    <path d="m141.008,131.486v5.092l-2.324-2.332c-2.923-2.932-7.667-2.939-10.595-0.02-2.932,2.922-2.939,7.666-0.02,10.596l12.938,12.982v12.381c-1.048,0.355-2.063,0.783-3.039,1.277l-14.408-14.457c-2.922-2.932-7.666-2.939-10.595-0.018-2.932,2.92-2.939,7.664-0.02,10.596l14.481,14.529c-0.483,0.979-0.9,1.994-1.248,3.043h-12.372l-12.926-12.975c-2.923-2.934-7.667-2.939-10.596-0.02-2.931,2.92-2.941,7.664-0.021,10.596l2.39,2.398h-5.102c-4.138,0-7.492,3.354-7.492,7.492 0,4.137 3.354,7.492 7.492,7.492h5.1l-2.387,2.395c-2.921,2.932-2.911,7.676 0.019,10.596 1.463,1.457 3.376,2.186 5.289,2.186 1.922,0 3.844-0.734 5.307-2.205l12.926-12.971h12.373c0.348,1.047 0.765,2.063 1.248,3.041l-14.481,14.529c-2.92,2.93-2.912,7.674 0.02,10.596 1.461,1.457 3.375,2.186 5.288,2.186 1.922,0 3.843-0.734 5.307-2.205l14.407-14.457c0.977,0.496 1.992,0.922 3.04,1.277v12.383l-12.938,12.984c-2.92,2.932-2.911,7.676 0.02,10.596 2.93,2.922 7.674,2.912 10.595-0.02l2.324-2.332v5.092c0,4.139 3.354,7.492 7.492,7.492s7.492-3.354 7.492-7.492v-5.09l2.322,2.33c1.464,1.471 3.386,2.205 5.308,2.205 1.913,0 3.826-0.729 5.289-2.186 2.93-2.92 2.938-7.664 0.02-10.596l-12.938-12.986v-12.381c1.048-0.355 2.063-0.781 3.039-1.277l14.406,14.457c1.463,1.471 3.385,2.205 5.307,2.205 1.913,0 3.826-0.729 5.289-2.186 2.931-2.922 2.938-7.664 0.019-10.596l-14.48-14.531c0.483-0.977 0.9-1.992 1.247-3.039h12.375l12.926,12.971c1.463,1.471 3.385,2.205 5.307,2.205 1.913,0 3.826-0.729 5.289-2.186 2.931-2.922 2.939-7.664 0.019-10.596l-2.387-2.395h5.102c4.139,0 7.492-3.355 7.492-7.492 0-4.139-3.354-7.492-7.492-7.492h-5.104l2.389-2.398c2.92-2.932 2.911-7.676-0.02-10.596-2.932-2.92-7.675-2.91-10.597,0.02l-12.927,12.975h-12.371c-0.349-1.049-0.766-2.064-1.249-3.041l14.48-14.531c2.92-2.932 2.912-7.676-0.019-10.596-2.932-2.924-7.676-2.914-10.596,0.018l-14.405,14.457c-0.977-0.494-1.992-0.922-3.04-1.277v-12.381l12.936-12.982c2.921-2.93 2.914-7.674-0.018-10.596-2.933-2.922-7.677-2.912-10.596,0.02l-2.323,2.33v-5.09c0-4.139-3.354-7.492-7.492-7.492s-7.491,3.354-7.491,7.493zm7.492,52.445c4.713,0 8.548,3.91 8.548,8.717 0,4.805-3.835,8.713-8.548,8.713-4.714,0-8.549-3.908-8.549-8.713 0-4.807 3.835-8.717 8.549-8.717z"/>
  </g>
</svg>
