<?xml version='1.0' encoding='iso-8859-1'?>
<!DOCTYPE svg PUBLIC '-//W3C//DTD SVG 1.1//EN' 'http://www.w3.org/Graphics/SVG/1.1/DTD/svg11.dtd'>
<svg version="1.1" xmlns="http://www.w3.org/2000/svg" viewBox="0 0 297 297" xmlns:xlink="http://www.w3.org/1999/xlink" enable-background="new 0 0 297 297">
  <g>
    <path d="m196.803,126.698c-3.803,3.803-3.803,9.969 0,13.771 3.804,3.802 9.968,3.802 13.771,0 4.291-4.292 9.997-6.655 16.065-6.655 6.068,0 11.773,2.363 16.064,6.654 1.9,1.901 4.393,2.853 6.885,2.853s4.984-0.951 6.885-2.852c3.803-3.802 3.804-9.968 0.001-13.77-7.969-7.971-18.564-12.36-29.835-12.36-11.271,0-21.866,4.39-29.836,12.359z"/>
    <path d="m185.324,115.22c11.035-11.036 25.708-17.113 41.314-17.113 15.607,0 30.279,6.077 41.314,17.113 1.902,1.901 4.394,2.852 6.886,2.852 2.491,0 4.983-0.95 6.886-2.852 3.803-3.803 3.803-9.968 0-13.772-14.714-14.713-34.276-22.816-55.086-22.816-20.809,0-40.372,8.104-55.086,22.816-3.803,3.803-3.803,9.969 0,13.772 3.804,3.801 9.968,3.801 13.772,0z"/>
    <path d="m98.103,155.98c-2.561,0-5.073,1.042-6.885,2.853-1.811,1.812-2.853,4.323-2.853,6.885 0,2.561 1.041,5.072 2.853,6.883 1.812,1.811 4.324,2.854 6.885,2.854 2.57,0 5.073-1.043 6.884-2.854 1.812-1.811 2.854-4.322 2.854-6.883 0-2.562-1.042-5.073-2.854-6.885-1.811-1.812-4.314-2.853-6.884-2.853z"/>
    <path d="m268.762,158.281h-112.719v-111.846c0-19.329-15.726-35.055-35.055-35.055h-45.765c-19.329,0-35.055,15.726-35.055,35.055v27.425h-11.93c-15.57,0-28.238,12.668-28.238,28.239v0.488c0,15.57 12.668,28.238 28.238,28.238h11.93v89.908c0,19.329 15.726,35.055 35.055,35.055h32.854v1.594c0,15.57 12.668,28.238 28.238,28.238h132.446c15.57,0 28.238-12.668 28.238-28.238v-70.862c0.001-15.571-12.667-28.239-28.237-28.239zm-249.287-55.694v-0.488c7.10543e-15-4.832 3.932-8.764 8.764-8.764h68.324c4.833,0 8.764,3.932 8.764,8.764v0.488c0,4.833-3.931,8.764-8.764,8.764h-68.325c-4.832,0-8.763-3.931-8.763-8.764zm55.748,133.727c-8.591,2.84217e-14-15.58-6.989-15.58-15.58v-89.908h36.92c15.57,0 28.239-12.668 28.239-28.238v-0.488c0-15.57-12.669-28.238-28.239-28.238h-36.92v-27.427c0-8.591 6.989-15.58 15.58-15.58h45.766c8.591,0 15.579,6.989 15.579,15.58v111.847h-0.252c-15.57,0-28.238,12.668-28.238,28.238v49.794h-32.855zm202.302,21.068c0,4.833-3.932,8.764-8.764,8.764h-132.446c-4.832,0-8.764-3.931-8.764-8.764v-70.862c0-4.832 3.932-8.764 8.764-8.764h132.446c4.832,0 8.764,3.932 8.764,8.764v70.862z"/>
    <path d="m246.722,215.135h-50.454c-2.907-9.299-11.601-16.066-21.846-16.066-12.617,0-22.883,10.265-22.883,22.883 0,12.617 10.266,22.883 22.883,22.883 10.245,0 18.938-6.768 21.846-16.067h27.571v9.251c0,3.765 3.052,6.816 6.816,6.816 3.765,0 6.816-3.052 6.816-6.816v-9.251h2.435v9.251c0,3.765 3.052,6.816 6.815,6.816 3.766,0 6.816-3.052 6.816-6.816v-16.066c0.001-3.767-3.05-6.818-6.815-6.818zm-72.3,16.066c-5.101,0-9.25-4.149-9.25-9.25 0-5.102 4.149-9.251 9.25-9.251s9.251,4.149 9.251,9.251c0,5.101-4.15,9.25-9.251,9.25z"/>
  </g>
</svg>
