<?xml version='1.0' encoding='iso-8859-1'?>
<!DOCTYPE svg PUBLIC '-//W3C//DTD SVG 1.1//EN' 'http://www.w3.org/Graphics/SVG/1.1/DTD/svg11.dtd'>
<svg version="1.1" xmlns="http://www.w3.org/2000/svg" viewBox="0 0 297 297" xmlns:xlink="http://www.w3.org/1999/xlink" enable-background="new 0 0 297 297">
  <g>
    <path d="m139.908,92.551c0-4.64-3.762-8.4-8.401-8.4-16.743,0-30.363,13.62-30.363,30.362 0,4.64 3.761,8.401 8.4,8.401 4.64,0 8.401-3.762 8.401-8.401 0-7.478 6.083-13.561 13.562-13.561 4.639,0 8.401-3.762 8.401-8.401z"/>
    <path d="m130.072,75.362c0.004,0 0.004,0 0.006,0 4.639,0 8.4-3.761 8.401-8.4 0.001-4.64-3.761-8.401-8.4-8.402-0.003,0-0.004,0-0.007,0-14.561,0-28.252,5.672-38.549,15.969-10.298,10.298-15.971,23.991-15.97,38.555 0,4.64 3.762,8.401 8.401,8.401 4.64,0 8.401-3.762 8.401-8.401 0-10.076 3.923-19.55 11.048-26.675 7.124-7.124 16.596-11.047 26.669-11.047z"/>
    <path d="m259.499,110.672h-67.814v-100.788c0-5.458-4.426-9.884-9.884-9.884h-163.078c-5.458,0-9.884,4.426-9.884,9.884v277.232c0,5.458 4.426,9.884 9.884,9.884h163.078c5.458,0 9.884-4.426 9.884-9.884v-63.501h67.814c15.804,0 28.662-12.858 28.662-28.662v-55.618c0-15.805-12.858-28.663-28.662-28.663zm8.895,28.663v7.188h-117.294v-7.188c0-4.905 3.989-8.896 8.895-8.896h99.505c4.903-2.84217e-14 8.894,3.991 8.894,8.896zm-96.477,137.897h-143.311v-257.464h143.311v90.904h-11.923c-15.804,0-28.662,12.858-28.662,28.663v55.618c0,15.804 12.858,28.662 28.662,28.662h11.923v53.617zm87.582-73.384h-99.505c-4.905,0-8.895-3.99-8.895-8.895v-28.663h117.294v28.663c0.001,4.904-3.99,8.895-8.894,8.895z"/>
    <path d="m59.492,130.463c-9.946,0-18.037,8.091-18.037,18.037s8.091,18.037 18.037,18.037 18.038-8.091 18.038-18.037-8.092-18.037-18.038-18.037zm0,19.767c-0.953,0-1.729-0.776-1.729-1.73s0.776-1.73 1.729-1.73c0.954,0 1.729,0.776 1.729,1.73s-0.775,1.73-1.729,1.73z"/>
  </g>
</svg>
