<?xml version='1.0' encoding='iso-8859-1'?>
<!DOCTYPE svg PUBLIC '-//W3C//DTD SVG 1.1//EN' 'http://www.w3.org/Graphics/SVG/1.1/DTD/svg11.dtd'>
<svg version="1.1" xmlns="http://www.w3.org/2000/svg" viewBox="0 0 297 297" xmlns:xlink="http://www.w3.org/1999/xlink" enable-background="new 0 0 297 297">
  <g>
    <path d="m118.499,46.162c-3.395,3.394-3.395,8.896-0.001,12.29 3.394,3.393 8.896,3.394 12.289,0.001 9.767-9.765 25.656-9.765 35.423,0 1.696,1.697 3.92,2.545 6.145,2.545 2.224,0 4.448-0.849 6.144-2.546 3.394-3.393 3.394-8.896-0.001-12.29-16.541-16.539-43.46-16.539-59.999,0z"/>
    <path d="m104.545,35.589c11.74-11.741 27.351-18.208 43.956-18.208 16.604,0 32.213,6.467 43.952,18.208 1.696,1.697 3.921,2.546 6.146,2.546 2.224,0 4.447-0.849 6.144-2.545 3.393-3.393 3.395-8.896 0.001-12.29-15.021-15.025-34.996-23.3-56.243-23.3-21.248,0-41.224,8.275-56.246,23.3-3.395,3.394-3.395,8.896 0,12.29 3.392,3.392 8.897,3.393 12.29-0.001z"/>
    <path d="m257.895,141.6h-6.03l4.357-30.505c1.367-9.569-1.313-19.051-7.354-26.015-6.039-6.964-15.047-10.958-24.713-10.958h-151.31c-9.666,0-18.674,3.994-24.713,10.958-6.041,6.964-8.721,16.445-7.354,26.015l4.357,30.505h-6.03c-19.73,0-35.782,16.052-35.782,35.782v83.835c0,19.73 16.052,35.783 35.782,35.783h16.358c12.79,0 24.027-6.749 30.355-16.869h125.361c6.328,10.12 17.565,16.869 30.355,16.869h16.358c19.73,0 35.782-16.053 35.782-35.783v-83.835c0.003-19.731-16.049-35.782-35.779-35.782zm-194.317-43.122c2.186-2.521 5.476-3.907 9.267-3.907h151.311c3.79,0 7.081,1.387 9.267,3.907 2.186,2.521 3.095,5.974 2.558,9.726l-4.998,34.986c-14.596,4.515-25.229,18.135-25.229,34.192v14.825h-114.507v-14.825c0-16.058-10.633-29.678-25.229-34.192l-4.998-34.986c-0.537-3.753 0.373-7.206 2.558-9.726zm7.222,162.739c0,8.457-6.879,15.336-15.336,15.336h-16.359c-8.456,0-15.335-6.879-15.335-15.336v-83.835c0-8.456 6.879-15.335 15.335-15.335h16.358c8.457,0 15.336,6.879 15.336,15.335v83.835zm20.448-48.563h114.506v47.029h-114.506v-47.029zm181.982,48.563c0,8.457-6.879,15.336-15.335,15.336h-16.358c-8.457,0-15.336-6.879-15.336-15.336v-83.835c0-8.456 6.879-15.335 15.336-15.335h16.358c8.456,0 15.335,6.879 15.335,15.335v83.835z"/>
    <path d="m114.759,125.241c1.891,0 3.731-0.767 5.06-2.096 1.33-1.33 2.097-3.17 2.097-5.062 0-1.881-0.767-3.731-2.097-5.061-1.329-1.329-3.169-2.096-5.06-2.096-1.881,0-3.723,0.767-5.061,2.096-1.328,1.329-2.096,3.18-2.096,5.061 0,1.881 0.768,3.731 2.096,5.062 1.338,1.33 3.18,2.096 5.061,2.096z"/>
    <path d="m182.235,125.241c1.881,0 3.731-0.767 5.06-2.096 1.341-1.33 2.097-3.181 2.097-5.062 0-1.881-0.756-3.731-2.097-5.061-1.328-1.329-3.169-2.096-5.06-2.096-1.881,0-3.722,0.767-5.061,2.096-1.329,1.329-2.096,3.18-2.096,5.061 0,1.892 0.767,3.731 2.096,5.062 1.34,1.33 3.181,2.096 5.061,2.096z"/>
    <path d="m114.759,158.98c1.891,0 3.731-0.767 5.06-2.096 1.34-1.34 2.097-3.18 2.097-5.062 0-1.881-0.757-3.731-2.097-5.061-1.329-1.329-3.169-2.096-5.06-2.096-1.881,0-3.723,0.767-5.061,2.096-1.328,1.329-2.096,3.18-2.096,5.061 0,1.882 0.768,3.722 2.096,5.062 1.338,1.329 3.18,2.096 5.061,2.096z"/>
    <path d="m182.235,158.98c1.891,0 3.731-0.767 5.06-2.096 1.341-1.33 2.097-3.18 2.097-5.062 0-1.881-0.756-3.731-2.097-5.061-1.328-1.329-3.169-2.096-5.06-2.096-1.881,0-3.722,0.767-5.061,2.096-1.329,1.329-2.096,3.18-2.096,5.061 0,1.882 0.767,3.731 2.096,5.062 1.34,1.329 3.181,2.096 5.061,2.096z"/>
  </g>
</svg>
