<?xml version='1.0' encoding='iso-8859-1'?>
<!DOCTYPE svg PUBLIC '-//W3C//DTD SVG 1.1//EN' 'http://www.w3.org/Graphics/SVG/1.1/DTD/svg11.dtd'>
<svg version="1.1" xmlns="http://www.w3.org/2000/svg" viewBox="0 0 297 297" xmlns:xlink="http://www.w3.org/1999/xlink" enable-background="new 0 0 297 297">
  <g>
    <path d="m268.737,135.066h-44.865c-15.584,0-28.262,12.678-28.262,28.262v103.156c0,15.584 12.678,28.262 28.262,28.262h44.865c15.584,0 28.263-12.678 28.263-28.262v-103.156c0-15.584-12.679-28.262-28.263-28.262zm-44.865,19.784h44.865c4.676,0 8.478,3.803 8.478,8.479v71.671h-61.822v-71.672c0.001-4.676 3.803-8.478 8.479-8.478zm44.865,120.113h-44.865c-4.676,0-8.479-3.805-8.479-8.478v-13.68h61.822v13.68c0.001,4.673-3.802,8.478-8.478,8.478z"/>
    <path d="m246.302,256.773c-1.949,0-3.858,0.793-5.243,2.168-1.385,1.385-2.176,3.293-2.176,5.252 0,1.949 0.791,3.867 2.176,5.242 1.385,1.385 3.294,2.176 5.243,2.176 1.958,0 3.868-0.791 5.242-2.176 1.385-1.385 2.177-3.293 2.177-5.242 0-1.959-0.792-3.867-2.177-5.252-1.374-1.375-3.284-2.168-5.242-2.168z"/>
    <path d="m141.935,166.215c23.93-16.938 38.099-44.201 38.099-73.711 0-49.764-40.381-90.25-90.017-90.25s-90.017,40.486-90.017,90.25c0,29.51 14.17,56.772 38.102,73.711l9.973,40.008v30.926c0,23.178 18.815,42.035 41.942,42.035 23.128,0 41.944-18.857 41.944-42.035v-30.924l9.974-40.01zm-74.078,61.043v-12.358h44.319v12.357h-44.319zm15.577-32.14l-11.037-77.461 1.597-.789 11.646,5.752c2.76,1.361 5.998,1.363 8.76-0.002l11.644-5.748 1.593,.785-11.037,77.463h-13.166zm-63.651-102.613c0-38.855 31.506-70.467 70.233-70.467s70.233,31.611 70.233,70.467c0,24.098-12.095,46.275-32.354,59.324-2.116,1.363-3.633,3.482-4.241,5.924l-9.315,37.365h-3.753l10.197-71.566c0.425,0.057 0.851,0.092 1.274,0.092 3.646,0 7.153-2.023 8.877-5.514 2.42-4.898 0.409-10.83-4.489-13.248l-16.023-7.914c-2.761-1.363-5.999-1.363-8.76,0l-11.644,5.75-11.646-5.75c-2.762-1.363-5.999-1.363-8.76,0l-16.027,7.912c-4.898,2.42-6.908,8.352-4.489,13.25 1.923,3.896 6.069,5.955 10.151,5.422l10.198,71.566h-3.751l-9.314-37.365c-0.608-2.441-2.125-4.561-4.241-5.924-20.26-13.051-32.356-35.228-32.356-59.324zm70.234,166.896c-8.682,0-16.208-5.041-19.842-12.359h39.684c-3.633,7.318-11.16,12.359-19.842,12.359z"/>
    <path d="m181.02,219.357h-32.643c-5.462,0-9.892,4.43-9.892,9.891 0,5.463 4.43,9.893 9.892,9.893h32.643c5.463,0 9.892-4.43 9.892-9.893-0.001-5.461-4.43-9.891-9.892-9.891z"/>
    <path d="m197.341,75.928h39.072v39.072c0,5.463 4.429,9.893 9.892,9.893 5.463,0 9.892-4.43 9.892-9.893v-48.963c0-5.463-4.429-9.893-9.892-9.893h-48.964c-5.462,0-9.892,4.43-9.892,9.893s4.43,9.891 9.892,9.891z"/>
  </g>
</svg>
