<?xml version='1.0' encoding='iso-8859-1'?>
<!DOCTYPE svg PUBLIC '-//W3C//DTD SVG 1.1//EN' 'http://www.w3.org/Graphics/SVG/1.1/DTD/svg11.dtd'>
<svg version="1.1" xmlns="http://www.w3.org/2000/svg" viewBox="0 0 297 297" xmlns:xlink="http://www.w3.org/1999/xlink" enable-background="new 0 0 297 297">
  <g>
    <path d="M167.951,220.432c5.419,0,9.813-4.395,9.813-9.813c0-5.42-4.394-9.813-9.813-9.813h-8.544V16.336   c0-5.418-4.393-9.813-9.811-9.813H28.169c-5.419,0-9.813,4.395-9.813,9.813v184.471H9.813c-5.419,0-9.813,4.393-9.813,9.813   c0,5.418,4.394,9.813,9.813,9.813H167.951z M37.98,200.807V26.148h101.803v174.658H37.98z"/>
    <path d="m76.739,32.281h-24.285c-4.606,0-8.341,3.734-8.341,8.34v24.285c0,4.605 3.734,8.34 8.341,8.34h24.285c4.606,0 8.341-3.734 8.341-8.34v-24.285c0-4.605-3.734-8.34-8.341-8.34zm-8.341,24.285h-7.604v-7.605h7.604v7.605z"/>
    <path d="m125.31,32.281h-24.285c-4.606,0-8.34,3.734-8.34,8.34v24.285c0,4.605 3.733,8.34 8.34,8.34h24.285c4.606,0 8.341-3.734 8.341-8.34v-24.285c-0.001-4.605-3.735-8.34-8.341-8.34zm-8.34,24.285h-7.605v-7.605h7.605v7.605z"/>
    <path d="m76.739,80.852h-24.285c-4.606,0-8.341,3.734-8.341,8.34v24.285c0,4.607 3.734,8.342 8.341,8.342h24.285c4.606,0 8.341-3.734 8.341-8.342v-24.286c0-4.605-3.734-8.339-8.341-8.339zm-8.341,24.285h-7.604v-7.604h7.604v7.604z"/>
    <path d="m125.31,80.852h-24.285c-4.606,0-8.34,3.734-8.34,8.34v24.285c0,4.607 3.733,8.342 8.34,8.342h24.285c4.606,0 8.341-3.734 8.341-8.342v-24.286c-0.001-4.605-3.735-8.339-8.341-8.339zm-8.34,24.285h-7.605v-7.604h7.605v7.604z"/>
    <path d="m76.739,129.422h-24.285c-4.606,0-8.341,3.734-8.341,8.34v24.285c0,4.607 3.734,8.342 8.341,8.342h24.285c4.606,0 8.341-3.734 8.341-8.342v-24.285c0-4.606-3.734-8.34-8.341-8.34zm-8.341,24.285h-7.604v-7.604h7.604v7.604z"/>
    <path d="m125.31,129.422h-24.285c-4.606,0-8.34,3.734-8.34,8.34v24.285c0,4.607 3.733,8.342 8.34,8.342h24.285c4.606,0 8.341-3.734 8.341-8.342v-24.285c-0.001-4.606-3.735-8.34-8.341-8.34zm-8.34,24.285h-7.605v-7.604h7.605v7.604z"/>
    <path d="m293.717,217.232l-36.415-32.457c-3.72-3.318-9.337-3.316-13.057-0.002l-36.418,32.457c-2.089,1.863-3.284,4.529-3.284,7.326v56.107c0,5.418 4.393,9.813 9.813,9.813h72.833c5.419,0 9.811-4.395 9.811-9.813v-56.107c5.68434e-14-2.796-1.194-5.462-3.283-7.324zm-16.341,53.62h-53.208v-41.896l26.605-23.711 26.603,23.711v41.896z"/>
    <path d="m229.456,163.018c-3.257,3.258-3.257,8.539 0,11.797 3.258,3.256 8.538,3.256 11.796,0 5.249-5.252 13.791-5.252 19.04,0 1.629,1.627 3.763,2.443 5.898,2.443 2.135,0 4.27-0.816 5.898-2.443 3.257-3.258 3.257-8.539 0-11.797-11.754-11.752-30.878-11.752-42.632,0z"/>
    <path d="m212.495,144.053c-3.257,3.256-3.257,8.537 0.001,11.795 3.256,3.256 8.539,3.256 11.795-0.002 7.074-7.072 16.479-10.969 26.482-10.969s19.408,3.896 26.48,10.969c1.629,1.629 3.764,2.443 5.898,2.443 2.134,0 4.269-0.814 5.896-2.441 3.258-3.256 3.258-8.539 0.001-11.795-10.223-10.227-23.816-15.857-38.276-15.857-14.459-0.001-28.052,5.63-38.277,15.857z"/>
    <path d="m181.977,49.207h54.948v54.949c0,5.418 4.395,9.813 9.813,9.813 5.419,0 9.813-4.395 9.813-9.813v-64.761c0-5.418-4.394-9.813-9.813-9.813h-64.761c-5.419,0-9.813,4.395-9.813,9.813 0.001,5.418 4.395,9.812 9.813,9.812z"/>
    <path d="m181.976,263.113h-54.948v-22.566c0-5.42-4.394-9.813-9.813-9.813-5.419,0-9.813,4.393-9.813,9.813v32.379c0,5.42 4.394,9.813 9.813,9.813h64.761c5.419,0 9.813-4.393 9.813-9.813-0.001-5.418-4.394-9.813-9.813-9.813z"/>
  </g>
</svg>
