<?xml version='1.0' encoding='iso-8859-1'?>
<!DOCTYPE svg PUBLIC '-//W3C//DTD SVG 1.1//EN' 'http://www.w3.org/Graphics/SVG/1.1/DTD/svg11.dtd'>
<svg version="1.1" xmlns="http://www.w3.org/2000/svg" viewBox="0 0 297 297" xmlns:xlink="http://www.w3.org/1999/xlink" enable-background="new 0 0 297 297">
  <g>
    <path d="m293.697,128.584l-138.368-124.672c-3.798-3.421-9.566-3.424-13.366-0.007l-138.652,124.671c-3.076,2.767-4.13,7.143-2.647,11.005 1.48,3.863 5.189,6.414 9.327,6.414h31.38v139.671c0,5.518 4.473,9.99 9.989,9.99h194.281c5.517,0 9.989-4.473 9.989-9.99v-139.671h31.38c4.136,0 7.843-2.549 9.325-6.409 1.484-3.861 0.435-8.235-2.638-11.002zm-58.046,147.093h-174.301v-135.195l87.152-77.675 87.148,77.675v135.195zm13.796-149.662l-94.297-84.047c-3.787-3.377-9.506-3.376-13.293-0.001l-94.301,84.048h-11.513l112.594-101.241 112.363,101.241h-11.553z"/>
    <path d="m105.544,149.556v10.739h-6.493c-5.517,0-9.989,4.473-9.989,9.989v82.416c0,5.517 4.473,9.99 9.989,9.99h98.898c5.517,0 9.989-4.474 9.989-9.99v-82.415c0-5.517-4.473-9.989-9.989-9.989h-6.493v-10.739c0-23.686-19.271-42.956-42.956-42.956-23.685-0.001-42.956,19.27-42.956,42.955zm82.415,93.155h-78.918v-62.436h78.918v62.436zm-16.482-93.155v10.739h-45.953v-10.739c0-12.67 10.307-22.977 22.977-22.977 12.669,0.001 22.976,10.307 22.976,22.977z"/>
    <path d="m138.511,225.228c0,5.517 4.473,9.99 9.989,9.99 5.517,0 9.989-4.474 9.989-9.99v-11.45c2.166-2.393 3.498-5.555 3.498-9.028 0-7.436-6.051-13.486-13.487-13.486-7.436,0-13.485,6.05-13.485,13.486 0,3.474 1.331,6.634 3.496,9.026v11.452z"/>
  </g>
</svg>
