<?xml version='1.0' encoding='iso-8859-1'?>
<!DOCTYPE svg PUBLIC '-//W3C//DTD SVG 1.1//EN' 'http://www.w3.org/Graphics/SVG/1.1/DTD/svg11.dtd'>
<svg version="1.1" xmlns="http://www.w3.org/2000/svg" viewBox="0 0 297 297" xmlns:xlink="http://www.w3.org/1999/xlink" enable-background="new 0 0 297 297">
  <g>
    <path d="m148.5,214.967c23.434,0 42.499-19.065 42.499-42.499 0-13.115-6.127-25.466-16.308-33.456v-79.875c0-14.896-11.749-27.016-26.191-27.016-14.442,0-26.191,12.119-26.191,27.016v79.875c-10.181,7.99-16.308,20.341-16.308,33.456 0,23.433 19.065,42.499 42.499,42.499zm-11.357-62.187c3.053-1.766 4.933-5.026 4.933-8.554v-19.2h2.225c3.821,0 6.918-3.097 6.918-6.918 0-3.821-3.097-6.919-6.918-6.919h-2.225v-7.906h2.225c3.821,0 6.918-3.098 6.918-6.919 0-3.821-3.097-6.918-6.918-6.918h-2.225v-7.907h2.225c3.821,0 6.918-3.098 6.918-6.918 0-3.821-3.097-6.919-6.918-6.919h-2.225v-8.565c0-3.929 2.942-7.248 6.425-7.248 3.482,0 6.424,3.319 6.424,7.248v85.09c0,3.527 1.881,6.788 4.934,8.554 7.016,4.059 11.375,11.604 11.375,19.688 0,12.534-10.197,22.731-22.732,22.731-12.535,0-22.732-10.197-22.732-22.731-0.002-8.085 4.357-15.629 11.373-19.689z"/>
    <path d="m204.342,0h-111.684c-19.619,0-35.581,15.961-35.581,35.581v225.838c0,19.62 15.962,35.581 35.581,35.581h111.684c19.619,0 35.581-15.961 35.581-35.581v-225.838c0-19.62-15.962-35.581-35.581-35.581zm-111.684,19.767h111.684c8.72,0 15.813,7.095 15.813,15.815v189.764h-143.31v-189.765c0-8.72 7.093-15.814 15.813-15.814zm111.684,257.465h-111.684c-8.72,0-15.813-7.094-15.813-15.813v-16.308h143.311v16.308c-0.001,8.72-7.094,15.813-15.814,15.813z"/>
    <path d="m148.497,251.042c-2.6,0-5.149,1.057-6.988,2.895-1.838,1.838-2.896,4.389-2.896,6.987 0,2.6 1.058,5.149 2.896,6.987 1.839,1.839 4.389,2.896 6.988,2.896 2.609,0 5.149-1.058 6.987-2.896 1.848-1.838 2.896-4.388 2.896-6.987 0-2.599-1.049-5.149-2.896-6.987-1.838-1.838-4.387-2.895-6.987-2.895z"/>
  </g>
</svg>
