<?xml version='1.0' encoding='iso-8859-1'?>
<!DOCTYPE svg PUBLIC '-//W3C//DTD SVG 1.1//EN' 'http://www.w3.org/Graphics/SVG/1.1/DTD/svg11.dtd'>
<svg version="1.1" xmlns="http://www.w3.org/2000/svg" viewBox="0 0 297 297" xmlns:xlink="http://www.w3.org/1999/xlink" enable-background="new 0 0 297 297">
  <g>
    <path d="m212.871,135.422l-49.52-44.138c-3.806-3.393-9.549-3.393-13.353,0l-11.891,10.597-8.725-8.725c-1.506-1.505-3.547-2.351-5.676-2.351h-49.96c-4.433,0-8.026,3.595-8.026,8.027s3.594,8.026 8.026,8.026h46.635l5.721,5.722-25.628,22.841c-2.136,1.902-3.357,4.629-3.357,7.49v30.672h-23.37c-4.433,0-8.026,3.595-8.026,8.027 0,4.434 3.594,8.027 8.026,8.027h23.37v25.586c0,5.541 4.492,10.034 10.033,10.034h99.043c5.541,0 10.033-4.493 10.033-10.034v-72.313c0.001-2.859-1.22-5.584-3.355-7.488zm-16.711,69.769h-78.975v-15.553h22.786c4.433,0 8.026-3.594 8.026-8.027 0-4.433-3.594-8.027-8.026-8.027h-22.786v-26.175l23.131-20.615 10.681,10.681c1.567,1.566 3.621,2.351 5.676,2.351 2.055,0 4.108-0.784 5.677-2.351 3.134-3.136 3.134-8.217 0-11.352l-10.027-10.028 4.353-3.879 39.485,35.194v57.781z"/>
    <path d="M267.902,39.132H29.098C13.054,39.132,0,52.186,0,68.229V228.77c0,16.044,13.054,29.098,29.098,29.098h238.805   c16.044,0,29.098-13.054,29.098-29.098V68.229C297,52.186,283.946,39.132,267.902,39.132z M20.067,228.77V68.229   c0-4.979,4.051-9.03,9.03-9.03H234.79v178.602H29.098C24.118,237.801,20.067,233.75,20.067,228.77z M276.933,228.77   c0,4.98-4.051,9.03-9.03,9.03h-19.064V59.199h19.064c4.979,0,9.03,4.051,9.03,9.03V228.77z"/>
    <path d="m49.163,88.799c-2.64,0-5.229,1.073-7.095,2.939-1.866,1.867-2.94,4.445-2.94,7.095 0,2.639 1.073,5.228 2.94,7.093 1.876,1.867 4.455,2.94 7.095,2.94 2.639,0 5.226-1.073 7.093-2.94 1.866-1.865 2.94-4.454 2.94-7.093s-1.074-5.228-2.94-7.095c-1.866-1.866-4.444-2.939-7.093-2.939z"/>
    <path d="m49.163,171.578c-2.64,0-5.229,1.072-7.095,2.939-1.866,1.866-2.94,4.444-2.94,7.094 0,2.639 1.073,5.228 2.94,7.094 1.866,1.866 4.455,2.94 7.095,2.94 2.639,0 5.226-1.074 7.093-2.94 1.876-1.866 2.94-4.455 2.94-7.094 0-2.639-1.064-5.227-2.94-7.094-1.866-1.867-4.444-2.939-7.093-2.939z"/>
    <path d="m261.882,124.921c-3.879,0-7.023,3.145-7.023,7.023v33.111c0,3.88 3.145,7.023 7.023,7.023s7.023-3.144 7.023-7.023v-33.111c-5.68434e-14-3.879-3.144-7.023-7.023-7.023z"/>
  </g>
</svg>
