<?xml version='1.0' encoding='iso-8859-1'?>
<!DOCTYPE svg PUBLIC '-//W3C//DTD SVG 1.1//EN' 'http://www.w3.org/Graphics/SVG/1.1/DTD/svg11.dtd'>
<svg version="1.1" xmlns="http://www.w3.org/2000/svg" viewBox="0 0 297 297" xmlns:xlink="http://www.w3.org/1999/xlink" enable-background="new 0 0 297 297">
  <g>
    <path d="m204.843,129.277l-41.242-36.76c-3.804-3.393-9.548-3.393-13.352,0l-41.244,36.76c-2.137,1.903-3.358,4.629-3.358,7.49v60.225c0,5.541 4.493,10.034 10.034,10.034h82.486c5.541,0 10.034-4.493 10.034-10.034v-60.225c0-2.861-1.222-5.586-3.358-7.49zm-16.709,57.682h-62.42v-45.694l31.211-27.816 31.209,27.816v45.694z"/>
    <path d="M267.902,39.132H29.098C13.054,39.132,0,52.186,0,68.229V228.77c0,16.044,13.054,29.098,29.098,29.098h238.805   c16.044,0,29.098-13.054,29.098-29.098V68.229C297,52.186,283.946,39.132,267.902,39.132z M20.067,228.77V68.229   c0-4.979,4.051-9.03,9.03-9.03h205.693v178.602H29.098C24.118,237.801,20.067,233.75,20.067,228.77z M276.933,228.77   c0,4.98-4.051,9.03-9.03,9.03h-19.064V59.199h19.064c4.98,0,9.03,4.051,9.03,9.03V228.77z"/>
    <path d="m261.882,124.921c-3.879,0-7.023,3.144-7.023,7.023v33.111c0,3.88 3.145,7.023 7.023,7.023 3.879,0 7.023-3.144 7.023-7.023v-33.111c-5.68434e-14-3.88-3.144-7.023-7.023-7.023z"/>
    <path d="m84.836,159.249v-56.519c0-10.862-8.574-19.7-19.114-19.7-10.54,0-19.113,8.838-19.113,19.7v56.519c-7.24,5.776-11.59,14.625-11.59,24.02 0,16.93 13.772,30.703 30.703,30.703 16.93,0 30.702-13.773 30.702-30.703 1.42109e-14-9.394-4.35-18.244-11.588-24.02zm-19.114,39.671c-8.631,0-15.652-7.021-15.652-15.652 0-5.567 3.001-10.761 7.832-13.556 2.325-1.345 3.758-3.827 3.758-6.514v-60.469c0-2.521 1.86-4.649 4.063-4.649 2.202,0 4.064,2.129 4.064,4.649v60.469c0,2.686 1.432,5.169 3.757,6.514 4.83,2.795 7.831,7.989 7.831,13.556-0.001,8.63-7.023,15.652-15.653,15.652z"/>
  </g>
</svg>
