<?xml version='1.0' encoding='iso-8859-1'?>
<!DOCTYPE svg PUBLIC '-//W3C//DTD SVG 1.1//EN' 'http://www.w3.org/Graphics/SVG/1.1/DTD/svg11.dtd'>
<svg version="1.1" xmlns="http://www.w3.org/2000/svg" viewBox="0 0 297 297" xmlns:xlink="http://www.w3.org/1999/xlink" enable-background="new 0 0 297 297">
  <g>
    <path d="m257.085,136.631h-45.059c-15.65,0-28.384,12.733-28.384,28.385v103.6c0,15.651 12.733,28.385 28.384,28.385h45.059c15.65,0 28.384-12.733 28.384-28.385v-103.6c-5.68434e-14-15.652-12.734-28.385-28.384-28.385zm-45.059,19.869h45.059c4.695,0 8.516,3.82 8.516,8.516v74.648h-62.09v-74.648c-5.68434e-14-4.696 3.819-8.516 8.515-8.516zm45.059,120.632h-45.059c-4.696,0-8.516-3.821-8.516-8.517v-11.069h62.09v11.069c0.001,4.695-3.82,8.517-8.515,8.517z"/>
    <path d="m234.553,259.534c-1.958,0-3.885,0.796-5.266,2.176-1.391,1.392-2.185,3.309-2.185,5.274 0,1.958 0.794,3.875 2.185,5.267 1.391,1.39 3.308,2.184 5.266,2.184 1.967,0 3.885-0.795 5.274-2.184 1.381-1.392 2.176-3.309 2.176-5.267 0-1.966-0.795-3.883-2.176-5.274-1.39-1.38-3.308-2.176-5.274-2.176z"/>
    <path d="m158.807,221.286h-49.175c-5.486,0-9.934,4.448-9.934,9.935s4.447,9.934 9.934,9.934h49.175c5.486,0 9.935-4.447 9.935-9.934s-4.449-9.935-9.935-9.935z"/>
    <path d="m119.814,77.239h104.807v39.24c0,5.486 4.448,9.935 9.935,9.935 5.486,0 9.934-4.448 9.934-9.935v-49.174c0-5.486-4.448-9.934-9.934-9.934h-114.742c-5.486,0-9.934,4.447-9.934,9.934s4.448,9.934 9.934,9.934z"/>
    <path d="m92.868,133.04v-101.58c0-17.347-13.648-31.46-30.424-31.46s-30.424,14.113-30.424,31.46v101.58c-12.766,9.541-20.489,24.694-20.489,40.81 0,28.074 22.839,50.914 50.913,50.914 28.074,0 50.913-22.84 50.913-50.914 0-16.116-7.723-31.269-20.489-40.81zm-30.424,71.855c-17.118,0-31.045-13.926-31.045-31.045 0-11.04 5.951-21.341 15.53-26.885 3.069-1.775 4.959-5.052 4.959-8.598v-25.861h5.278c3.841,0 6.953-3.113 6.953-6.954 0-3.841-3.112-6.954-6.953-6.954h-5.278v-13.411h5.278c3.841,0 6.953-3.113 6.953-6.954s-3.112-6.954-6.953-6.954h-5.278v-13.412h5.278c3.841,0 6.953-3.113 6.953-6.954s-3.112-6.954-6.953-6.954h-5.278v-12.499c0-6.392 4.735-11.591 10.556-11.591s10.555,5.199 10.555,11.591v106.907c0,3.546 1.891,6.822 4.96,8.598 9.579,5.544 15.53,15.845 15.53,26.885 1.42109e-14,17.119-13.927,31.045-31.045,31.045z"/>
  </g>
</svg>
