<?xml version='1.0' encoding='iso-8859-1'?>
<!DOCTYPE svg PUBLIC '-//W3C//DTD SVG 1.1//EN' 'http://www.w3.org/Graphics/SVG/1.1/DTD/svg11.dtd'>
<svg version="1.1" xmlns="http://www.w3.org/2000/svg" viewBox="0 0 297 297" xmlns:xlink="http://www.w3.org/1999/xlink" enable-background="new 0 0 297 297">
  <g>
    <path d="m159.211,246.527c37.983,0 68.885-30.901 68.885-68.884 0-41.201-54.224-114.688-60.406-122.932-2.002-2.669-5.143-4.239-8.479-4.239-3.335,0-6.475,1.57-8.477,4.239-6.183,8.244-60.406,81.73-60.406,122.932-0.001,37.983 30.9,68.884 68.883,68.884zm.003-167.309c18.381,26.437 47.686,73.788 47.686,98.426 0,26.296-21.393,47.688-47.689,47.688-26.296,0-47.688-21.393-47.688-47.688-0.001-24.611 29.309-71.979 47.691-98.426z"/>
    <path d="m159.211,209.435c4.683,0 8.479-3.796 8.479-8.478 0-4.682-3.796-8.479-8.479-8.479-8.181,0-14.836-6.655-14.836-14.836 0-4.683-3.796-8.479-8.479-8.479-4.682,0-8.478,3.796-8.478,8.479 0.001,17.532 14.262,31.793 31.793,31.793z"/>
    <path d="m159.211,10.683c-5.851,0-10.597,4.745-10.597,10.598 0,5.852 4.745,10.598 10.597,10.598 64.291,0 116.595,52.316 116.595,116.621s-52.304,116.621-116.595,116.621c-59.694,0-109.046-45.107-115.798-103.032l4.619,4.057c4.398,3.865 11.095,3.43 14.955-0.968 3.864-4.397 3.431-11.094-0.967-14.957l-23.784-20.89c-2.126-1.868-4.912-2.812-7.732-2.61-2.823,0.198-5.45,1.516-7.295,3.661l-20.645,23.996c-3.817,4.438-3.314,11.128 1.122,14.945 2.001,1.722 4.46,2.564 6.906,2.564 2.98,0 5.942-1.25 8.039-3.686l3.661-4.256c7.7,68.747 66.162,122.371 136.918,122.371 75.978,0 137.79-61.824 137.79-137.816s-61.812-137.817-137.789-137.817z"/>
    <path d="m106.753,31.927h17.486c5.852,0 10.598-4.745 10.598-10.598s-4.745-10.598-10.598-10.598h-17.486c-5.852,0-10.597,4.745-10.597,10.598s4.745,10.598 10.597,10.598z"/>
    <path d="m71.778,31.927c2.798,0 5.521-1.134 7.492-3.106 1.982-1.981 3.106-4.705 3.106-7.492s-1.124-5.522-3.106-7.493c-1.971-1.971-4.705-3.104-7.492-3.104-2.787,0-5.522,1.134-7.493,3.104-1.971,1.972-3.104,4.706-3.104,7.493s1.134,5.521 3.104,7.492c1.971,1.972 4.706,3.106 7.493,3.106z"/>
  </g>
</svg>
