<?xml version='1.0' encoding='iso-8859-1'?>
<!DOCTYPE svg PUBLIC '-//W3C//DTD SVG 1.1//EN' 'http://www.w3.org/Graphics/SVG/1.1/DTD/svg11.dtd'>
<svg version="1.1" xmlns="http://www.w3.org/2000/svg" viewBox="0 0 297 297" xmlns:xlink="http://www.w3.org/1999/xlink" enable-background="new 0 0 297 297">
  <g>
    <path d="m185.656,57.954c3.28-3.281 3.28-8.601-0.001-11.881-20.485-20.484-53.823-20.486-74.313,0-3.281,3.28-3.281,8.6-0.001,11.881 1.641,1.641 3.791,2.461 5.941,2.461 2.149,0 4.3-0.82 5.939-2.46 13.938-13.938 36.615-13.936 50.553,0 3.281,3.279 8.602,3.28 11.882-0.001z"/>
    <path d="m128.417,62.381c-3.281,3.281-3.281,8.6-0.001,11.881 3.281,3.279 8.601,3.281 11.881,0.001 2.191-2.19 5.104-3.396 8.203-3.396 3.099,0 6.011,1.206 8.2,3.396 1.641,1.641 3.79,2.461 5.94,2.461 2.149,0 4.3-0.82 5.941-2.46 3.281-3.28 3.281-8.6 0.001-11.881-5.364-5.364-12.495-8.317-20.082-8.317s-14.719,2.952-20.083,8.315z"/>
    <path d="m106.007,37.737c11.35-11.351 26.44-17.602 42.493-17.602 16.052,0 31.142,6.251 42.49,17.602 1.64,1.641 3.79,2.461 5.941,2.461 2.15,0 4.3-0.82 5.939-2.46 3.281-3.281 3.281-8.6 0.001-11.881-14.521-14.525-33.831-22.523-54.371-22.523-20.541,4.44089e-16-39.852,7.998-54.375,22.523-3.28,3.281-3.28,8.6 0.001,11.881 3.28,3.28 8.599,3.281 11.881-0.001z"/>
    <path d="m276.924,128.424h-13.261c2.872-1.729 4.798-4.867 4.798-8.463 0-5.458-4.425-9.883-9.883-9.883h-8.463v-100.194c0-5.458-4.426-9.884-9.884-9.884-5.458,0-9.884,4.426-9.884,9.884v100.194h-8.462c-5.459,0-9.884,4.425-9.884,9.883 0,3.596 1.927,6.733 4.798,8.463h-95.109v-8.463c0-5.458-4.425-9.883-9.883-9.883s-9.884,4.425-9.884,9.883v8.463h-16.925v-8.463c0-5.458-4.425-9.883-9.883-9.883-5.458,0-9.884,4.425-9.884,9.883v8.463h-45.155c-5.458,0-9.884,4.426-9.884,9.884v124.347c0,18.938 15.408,34.345 34.346,34.345h207.924c18.938,0 34.346-15.407 34.346-34.346v-124.346c0-5.458-4.426-9.884-9.884-9.884zm-9.884,134.23c0,8.039-6.539,14.579-14.578,14.579h-207.924c-8.038,0-14.578-6.54-14.578-14.579v-114.463h237.08v114.463z"/>
    <path d="m75.115,240.541h-18.346c-5.458,0-9.884,4.425-9.884,9.883 0,5.458 4.426,9.884 9.884,9.884h18.347c5.458,0 9.883-4.426 9.883-9.884-0.001-5.458-4.426-9.883-9.884-9.883z"/>
    <path d="m130.153,240.541h-18.346c-5.458,0-9.884,4.425-9.884,9.883 0,5.458 4.426,9.884 9.884,9.884h18.346c5.459,0 9.884-4.426 9.884-9.884 2.84217e-14-5.458-4.425-9.883-9.884-9.883z"/>
    <path d="m185.192,240.541h-18.346c-5.459,0-9.884,4.425-9.884,9.883 0,5.458 4.425,9.884 9.884,9.884h18.346c5.458,0 9.884-4.426 9.884-9.884-2.84217e-14-5.458-4.426-9.883-9.884-9.883z"/>
  </g>
</svg>
