<?xml version="1.0" encoding="iso-8859-1"?>
<!-- Generator: Adobe Illustrator 19.0.0, SVG Export Plug-In . SVG Version: 6.00 Build 0)  -->
<svg xmlns="http://www.w3.org/2000/svg" xmlns:xlink="http://www.w3.org/1999/xlink" version="1.1" id="Capa_1" x="0px" y="0px" viewBox="0 0 512 512" style="enable-background:new 0 0 512 512;" xml:space="preserve">
<g>
	<g>
		<path d="M228.701,237.667c-0.077-5.233-4.399-9.491-9.633-9.491h-27.247c-2.588,0-5.106,1.065-6.909,2.92    c-1.803,1.856-2.795,4.404-2.721,6.991l0.826,28.695c0.151,5.248,4.381,9.358,9.63,9.358h26.85c2.601,0,5.038-1.02,6.863-2.873    c1.825-1.852,2.809-4.305,2.77-6.906L228.701,237.667z M197.446,261.568l-0.542-18.818h17.299l0.282,18.818H197.446z"/>
	</g>
</g>
<g>
	<g>
		<path d="M276.461,231.022c-1.822-1.835-4.25-2.845-6.836-2.845h-27.249c-2.586,0-5.014,1.01-6.836,2.845    c-1.823,1.835-2.816,4.269-2.798,6.856l0.198,28.695c0.037,5.275,4.359,9.567,9.634,9.567h26.852c5.276,0,9.597-4.292,9.634-9.568    l0.199-28.694C279.277,235.292,278.283,232.857,276.461,231.022z M264.521,261.567h-17.043l-0.13-18.818h17.303L264.521,261.567z"/>
	</g>
</g>
<g>
	<g>
		<path d="M327.089,231.096c-1.804-1.856-4.322-2.92-6.909-2.92h-27.247c-5.234,0-9.556,4.258-9.633,9.491l-0.429,28.695    c-0.039,2.601,0.945,5.053,2.77,6.905c1.825,1.853,4.262,2.873,6.863,2.873h26.851c5.25,0,9.48-4.11,9.63-9.358l0.825-28.695    C329.884,235.501,328.892,232.952,327.089,231.096z M314.555,261.567h-17.039l0.282-18.818h17.299L314.555,261.567z"/>
	</g>
</g>
<g>
	<g>
		<path d="M229.461,294.448c-0.079-5.232-4.401-9.49-9.634-9.49h-26.545c-2.588,0-5.106,1.065-6.91,2.92    c-1.804,1.856-2.795,4.404-2.721,6.991l0.785,27.255c0.151,5.249,4.381,9.359,9.631,9.359h26.168c2.601,0,5.039-1.021,6.864-2.874    c1.825-1.853,2.809-4.306,2.769-6.905L229.461,294.448z M198.866,316.91l-0.5-17.379h16.597l0.26,17.379H198.866z"/>
	</g>
</g>
<g>
	<g>
		<path d="M276.108,287.803c-1.822-1.834-4.25-2.844-6.835-2.844h-26.546c-2.585,0-5.013,1.01-6.835,2.844    c-1.823,1.834-2.816,4.269-2.8,6.857l0.189,27.253c0.035,5.277,4.357,9.57,9.634,9.57h26.17c5.278,0,9.599-4.293,9.634-9.568    l0.189-27.258C278.925,292.072,277.931,289.637,276.108,287.803z M264.18,316.91h-16.36l-0.12-17.379h16.602L264.18,316.91z"/>
	</g>
</g>
<g>
	<g>
		<path d="M325.628,287.878c-1.804-1.856-4.322-2.92-6.91-2.92h-26.545c-5.233,0-9.555,4.257-9.634,9.491l-0.408,27.253    c-0.04,2.601,0.944,5.054,2.769,6.907s4.263,2.874,6.864,2.874h26.168c5.25,0,9.48-4.11,9.631-9.358l0.786-27.256    C328.423,292.283,327.432,289.734,325.628,287.878z M313.135,316.91h-16.357l0.26-17.379h16.598L313.135,316.91z"/>
	</g>
</g>
<g>
	<g>
		<path d="M230.187,351.051c-0.077-5.233-4.399-9.491-9.633-9.491H194.68c-2.588,0-5.106,1.065-6.909,2.92    c-1.803,1.856-2.795,4.404-2.721,6.991l0.746,25.907c0.151,5.249,4.381,9.359,9.63,9.359h25.516c2.601,0,5.038-1.02,6.863-2.873    c1.825-1.853,2.809-4.305,2.77-6.906L230.187,351.051z M200.225,372.164l-0.462-16.03h15.926l0.24,16.03H200.225z"/>
	</g>
</g>
<g>
	<g>
		<path d="M275.773,344.406c-1.821-1.835-4.249-2.845-6.836-2.845h-25.875c-2.586,0-5.014,1.01-6.836,2.845    c-1.823,1.835-2.816,4.269-2.798,6.856l0.179,25.905c0.035,5.277,4.357,9.57,9.634,9.57h25.517c5.277,0,9.599-4.293,9.634-9.568    l0.179-25.907C278.589,348.676,277.595,346.241,275.773,344.406z M263.854,372.164h-15.708l-0.111-16.03h15.93L263.854,372.164z"/>
	</g>
</g>
<g>
	<g>
		<path d="M324.228,344.481c-1.803-1.856-4.321-2.92-6.909-2.92h-25.874c-5.234,0-9.556,4.257-9.633,9.49l-0.388,25.909    c-0.039,2.601,0.945,5.052,2.77,6.905c1.825,1.853,4.263,2.873,6.863,2.873h25.516c5.25,0,9.48-4.11,9.63-9.358l0.746-25.908    C327.023,348.886,326.031,346.337,324.228,344.481z M311.775,372.164h-15.704l0.24-16.03h15.926L311.775,372.164z"/>
	</g>
</g>
<g>
	<g>
		<path d="M329.28,109.677c-2.668-2.749-6.248-4.263-10.078-4.263H192.797c-3.831,0-7.41,1.514-10.078,4.263    c-2.668,2.749-4.074,6.371-3.961,10.199l1.757,59.044c0.227,7.641,6.394,13.627,14.039,13.627h122.891    c7.645,0,13.812-5.986,14.039-13.627l1.757-59.044C333.355,116.048,331.948,112.425,329.28,109.677z M316.933,177.973H195.067    l-1.726-57.987h125.318L316.933,177.973z"/>
	</g>
</g>
<g>
	<g>
		<path d="M340.321,451.433H171.679c-7.509,0-13.619,6.109-13.619,13.619v7.333c0,7.509,6.109,13.619,13.619,13.619h168.642    c7.509,0,13.619-6.109,13.619-13.619v-7.333C353.94,457.543,347.831,451.433,340.321,451.433z M339.366,471.431H172.633v-5.424    h166.733V471.431z"/>
	</g>
</g>
<g>
	<g>
		<path d="M431.227,484.133l-28.426-77.98c-4.02-11.027-16.331-18.437-30.632-18.437h-14.656l6.186-213.603    c0.116-4.022-3.05-7.378-7.073-7.494c-4.059-0.094-7.378,3.051-7.495,7.073l-6.403,221.098c0,0.001,0,0.002,0,0.003l-0.499,17.236    c-0.177,6.118-5.11,10.91-11.231,10.91H181c-6.12,0-11.053-4.792-11.23-10.909l-9.185-317.12    c-0.055-1.831,0.618-3.565,1.895-4.879c1.277-1.316,2.989-2.04,4.822-2.04h12.488h33.939h130.97c1.833,0,3.545,0.724,4.822,2.04    c1.277,1.314,1.949,3.047,1.894,4.885l-1.259,43.471c-0.116,4.022,3.05,7.378,7.073,7.494c4.056,0.121,7.378-3.051,7.495-7.073    l1.259-43.464c0.173-5.805-1.959-11.296-6.004-15.464c-4.045-4.167-9.471-6.462-15.279-6.462H220.752l-2.259-61.29    C218.221,5.327,212.676,0,205.869,0h-18.221c-6.806,0-12.351,5.327-12.624,12.151l-2.258,61.268h-5.464    c-5.808,0-11.234,2.295-15.279,6.462c-4.045,4.168-6.177,9.659-6.004,15.457l8.468,292.378h-14.656    c-14.302,0-26.611,7.41-30.631,18.438l-8.324,22.835c-1.379,3.781,0.569,7.963,4.35,9.341c3.782,1.38,7.964-0.569,9.342-4.35    l8.324-22.835c1.87-5.131,8.995-8.856,16.94-8.856h15.078l0.294,10.161c0.407,14.053,11.738,25.061,25.797,25.061H331    c14.059,0,25.39-11.008,25.798-25.061l0.294-10.161h15.078c7.945,0,15.069,3.725,16.94,8.856l28.426,77.979    c0.295,0.81,0.552,2.08-0.618,3.752c-1.469,2.1-5.198,4.551-10.87,4.551H105.953c-5.672,0-9.401-2.452-10.87-4.551    c-1.17-1.673-0.913-2.942-0.618-3.752l8.102-22.225c1.378-3.781-0.569-7.963-4.35-9.341c-3.782-1.381-7.963,0.568-9.342,4.35    l-8.102,22.225c-2.089,5.73-1.225,11.961,2.37,17.099C87.861,507.974,96.389,512,105.953,512h300.095    c9.564,0,18.091-4.026,22.81-10.768C432.452,496.094,433.316,489.862,431.227,484.133z M189.518,14.573H204l2.169,58.845h-18.82    L189.518,14.573z"/>
	</g>
</g>
<g>
</g>
<g>
</g>
<g>
</g>
<g>
</g>
<g>
</g>
<g>
</g>
<g>
</g>
<g>
</g>
<g>
</g>
<g>
</g>
<g>
</g>
<g>
</g>
<g>
</g>
<g>
</g>
<g>
</g>
</svg>
