<?xml version="1.0" encoding="iso-8859-1"?>
<!-- Generator: Adobe Illustrator 19.0.0, SVG Export Plug-In . SVG Version: 6.00 Build 0)  -->
<svg xmlns="http://www.w3.org/2000/svg" xmlns:xlink="http://www.w3.org/1999/xlink" version="1.1" id="Capa_1" x="0px" y="0px" viewBox="0 0 512 512" style="enable-background:new 0 0 512 512;" xml:space="preserve">
<g>
	<g>
		<path d="M358.038,97.016l-94.709-82.425c-4.178-3.636-10.48-3.636-14.658,0l-93.168,81.083V84.597h1.979    c6.286,0,11.4-5.114,11.4-11.4v-21.44c0-6.286-5.114-11.4-11.4-11.4h-85.59c-6.286,0-11.4,5.114-11.4,11.4v21.44    c0,6.286,5.114,11.4,11.4,11.4h4.553v79.88L3.878,227.633c-3.574,3.109-4.811,7.986-3.151,12.423    c1.66,4.437,5.794,7.304,10.532,7.304h49.199v77.934c0,4.024,3.262,7.286,7.286,7.286c4.025,0,7.286-3.262,7.286-7.286v-85.22    c0-4.024-3.262-7.286-7.286-7.286H20.152l68.363-59.495c1.59-1.384,2.503-3.388,2.503-5.497V84.597h49.913v27.076    c0,2.855,1.668,5.448,4.267,6.631c2.6,1.184,5.649,0.74,7.803-1.135L256,27.531l92.471,80.478    c3.037,2.643,7.639,2.323,10.28-0.713C361.393,104.259,361.074,99.657,358.038,97.016z M154.31,70.026h-6.093H83.731h-8.667V54.93    h79.246V70.026z"/>
	</g>
</g>
<g>
	<g>
		<path d="M508.123,227.633l-123.92-107.847c-3.036-2.641-7.638-2.322-10.28,0.713c-2.642,3.036-2.323,7.638,0.712,10.28    l117.212,102.009h-47.593c-4.025,0-7.286,3.262-7.286,7.286v241.674c0,2.105-1.712,3.817-3.817,3.817H78.848    c-2.104,0-3.817-1.712-3.817-3.817V359.944c0-4.024-3.262-7.286-7.286-7.286c-4.025,0-7.286,3.262-7.286,7.286v121.803    c0,10.14,8.249,18.389,18.389,18.389h354.304c10.14,0,18.389-8.249,18.389-18.389V247.36h49.199c4.738,0,8.872-2.867,10.532-7.304    C512.933,235.618,511.696,230.741,508.123,227.633z"/>
	</g>
</g>
<g>
	<g>
		<path d="M334.445,280.519c-1.356-3.288-4.529-5.421-8.085-5.433l-81.763-0.299l64.931-104.816c1.679-2.711,1.767-6.109,0.23-8.869    c-1.563-2.806-4.517-4.549-7.71-4.549c-2.325,0-4.525,0.92-6.191,2.588L148.412,306.584c-2.52,2.52-3.267,6.275-1.903,9.568    c1.375,3.318,4.614,5.496,8.212,5.419l80.444-0.92l-69.613,111.898c-1.684,2.711-1.777,6.112-0.241,8.876    c1.562,2.81,4.518,4.556,7.715,4.556c2.323,0,4.523-0.919,6.191-2.588l153.321-153.321    C335.052,287.557,335.801,283.807,334.445,280.519z M204.549,397.453l48.574-78.08c1.681-2.706,1.765-6.116,0.217-8.901    c-1.548-2.785-4.489-4.514-7.673-4.514c-0.028,0-0.074,0-0.102,0l-76.797,0.878l102.051-102.05l-44.065,71.133    c-1.673,2.7-1.754,6.103-0.214,8.88c1.541,2.778,4.47,4.51,7.647,4.522l78.207,0.286L204.549,397.453z"/>
	</g>
</g>
<g>
</g>
<g>
</g>
<g>
</g>
<g>
</g>
<g>
</g>
<g>
</g>
<g>
</g>
<g>
</g>
<g>
</g>
<g>
</g>
<g>
</g>
<g>
</g>
<g>
</g>
<g>
</g>
<g>
</g>
</svg>
