<?xml version="1.0" encoding="iso-8859-1"?>
<!-- Generator: Adobe Illustrator 19.0.0, SVG Export Plug-In . SVG Version: 6.00 Build 0)  -->
<svg xmlns="http://www.w3.org/2000/svg" xmlns:xlink="http://www.w3.org/1999/xlink" version="1.1" id="Capa_1" x="0px" y="0px" viewBox="0 0 512 512" style="enable-background:new 0 0 512 512;" xml:space="preserve">
<g>
	<g>
		<path d="M488.099,367.393h-6.727v-97.364c0-4.054-3.286-7.341-7.341-7.341s-7.341,3.287-7.341,7.341v104.704v33.12v32.862    c0,12.107-9.85,21.956-21.956,21.956c-12.107,0-21.955-9.849-21.955-21.956V71.284c0-12.107,9.849-21.956,21.955-21.956    c12.107,0,21.956,9.849,21.956,21.956v32.862v33.12v97.771c0,4.054,3.286,7.341,7.341,7.341s7.341-3.287,7.341-7.341v-90.431    h6.727c13.179,0,23.901-10.722,23.901-23.901c0-13.179-10.723-23.901-23.901-23.901h-6.727v-25.52    c0-20.202-16.435-36.637-36.638-36.637c-11.964,0-22.606,5.766-29.296,14.664c-6.691-8.898-17.332-14.664-29.296-14.664    s-22.606,5.766-29.296,14.664c-6.691-8.898-17.332-14.664-29.296-14.664c-11.965,0-22.607,5.766-29.297,14.664    c-6.69-8.898-17.332-14.664-29.296-14.664s-22.606,5.766-29.296,14.664c-6.691-8.898-17.332-14.664-29.296-14.664    s-22.606,5.766-29.296,14.664c-6.691-8.898-17.333-14.664-29.297-14.664c-20.201,0-36.637,16.436-36.637,36.637v25.521h-14.979    V52.478c0-9.833-7.999-17.832-17.832-17.832h-64.49C7.999,34.646,0,42.646,0,52.478v331.128c0,4.054,3.286,7.341,7.341,7.341    s7.341-3.287,7.341-7.341V52.478c0-1.737,1.414-3.15,3.15-3.15h64.49c1.737,0,3.15,1.413,3.15,3.15v51.667v33.12v237.467v33.12    v51.667c0,1.737-1.414,3.15-3.15,3.15h-64.49c-1.737,0-3.15-1.413-3.15-3.15v-40.964c0-4.054-3.286-7.341-7.341-7.341    S0,414.503,0,418.558v40.964c0,9.833,7.999,17.832,17.832,17.832h64.49c9.833,0,17.832-7.999,17.832-17.832v-44.327h14.979v25.521    c0,20.202,16.436,36.637,36.637,36.637c11.965,0,22.607-5.766,29.297-14.664c6.69,8.898,17.332,14.664,29.296,14.664    c11.964,0,22.606-5.766,29.296-14.664c6.691,8.898,17.332,14.664,29.296,14.664s22.606-5.766,29.296-14.664    c6.691,8.898,17.333,14.664,29.297,14.664s22.606-5.766,29.296-14.664c6.691,8.898,17.332,14.664,29.296,14.664    s22.606-5.766,29.296-14.664c6.691,8.898,17.332,14.664,29.296,14.664c20.202,0,36.638-16.436,36.638-36.637v-25.521h6.727    c13.179,0,23.901-10.722,23.901-23.901S501.277,367.393,488.099,367.393z M481.371,111.487h6.727c5.084,0,9.22,4.136,9.22,9.219    c0,5.084-4.136,9.219-9.22,9.219h-6.727V111.487z M115.133,400.513h-14.979v-18.439h14.979V400.513z M115.133,367.393h-14.979    V144.607h14.979V367.393z M115.133,129.926h-14.979v-18.439h14.979V129.926z M173.726,440.716c0,12.107-9.85,21.956-21.956,21.956    c-12.107,0-21.955-9.849-21.955-21.956v-32.862v-33.12V137.266v-33.12V71.284c0-12.107,9.849-21.956,21.955-21.956    c12.107,0,21.956,9.849,21.956,21.956V440.716z M232.318,440.716c0,12.107-9.849,21.956-21.955,21.956    c-12.107,0-21.955-9.849-21.955-21.956V71.284c0-12.107,9.849-21.956,21.955-21.956c12.107,0,21.955,9.849,21.955,21.956V440.716z     M268.956,462.672c-12.106,0-21.956-9.849-21.956-21.956V71.284c0-12.107,9.849-21.956,21.955-21.956    c12.106,0,21.955,9.849,21.955,21.956v369.432h0.001C290.911,452.823,281.062,462.672,268.956,462.672z M349.504,440.716    c0,12.107-9.849,21.956-21.955,21.956c-12.106,0-21.956-9.849-21.956-21.956V71.284c0-12.107,9.85-21.956,21.956-21.956    c12.106,0,21.955,9.849,21.955,21.956V440.716z M408.096,440.716c0,12.107-9.849,21.956-21.955,21.956    c-12.107,0-21.955-9.849-21.955-21.956V71.284c0-12.107,9.849-21.956,21.955-21.956c12.107,0,21.955,9.849,21.955,21.956V440.716z     M488.099,400.513h-6.727v-18.439h6.727c5.084,0,9.22,4.136,9.22,9.219S493.183,400.513,488.099,400.513z"/>
	</g>
</g>
<g>
	<g>
		<path d="M66.507,68.1h-32.86c-6.378,0-11.566,5.189-11.566,11.567v32.859c0,6.378,5.188,11.567,11.566,11.567h32.86    c6.378,0,11.566-5.189,11.566-11.567V79.667C78.073,73.289,72.885,68.1,66.507,68.1z M63.391,109.411H36.762v-26.63h26.629    V109.411z"/>
	</g>
</g>
<g>
</g>
<g>
</g>
<g>
</g>
<g>
</g>
<g>
</g>
<g>
</g>
<g>
</g>
<g>
</g>
<g>
</g>
<g>
</g>
<g>
</g>
<g>
</g>
<g>
</g>
<g>
</g>
<g>
</g>
</svg>
