<?xml version="1.0" encoding="iso-8859-1"?>
<!-- Generator: Adobe Illustrator 19.0.0, SVG Export Plug-In . SVG Version: 6.00 Build 0)  -->
<svg xmlns="http://www.w3.org/2000/svg" xmlns:xlink="http://www.w3.org/1999/xlink" version="1.1" id="Capa_1" x="0px" y="0px" viewBox="0 0 512.002 512.002" style="enable-background:new 0 0 512.002 512.002;" xml:space="preserve">
<g>
	<g>
		<path d="M209.086,66.237c-93.14,0-168.915,75.775-168.915,168.916s75.775,168.915,168.915,168.915s168.916-75.775,168.916-168.915    S302.227,66.237,209.086,66.237z M209.086,389.493c-85.104,0-154.34-69.237-154.34-154.34s69.237-154.341,154.34-154.341    s154.34,69.237,154.34,154.341S294.19,389.493,209.086,389.493z"/>
	</g>
</g>
<g>
	<g>
		<path d="M208.09,179.943c-30.443,0-55.21,24.767-55.21,55.21c0,30.443,24.767,55.21,55.21,55.21s55.21-24.767,55.21-55.21    S238.533,179.943,208.09,179.943z M208.09,275.788c-22.406,0-40.635-18.228-40.635-40.635s18.229-40.635,40.635-40.635    s40.635,18.229,40.635,40.635S230.496,275.788,208.09,275.788z"/>
	</g>
</g>
<g>
	<g>
		<path d="M477.473,168.785c-19.04,0-34.53,15.49-34.53,34.53c0,11.486,5.643,21.674,14.296,27.955l-8.944,152.21    c-1.016,17.361-15.435,30.96-32.826,30.96h-11.292v-3.334c0-6.754-5.495-12.248-12.248-12.248h-15.674v-10.837    c0-7.401-4.681-13.712-11.23-16.177c32.403-37.098,50.455-84.007,51.153-133.709c0.057-4.024-3.16-7.333-7.184-7.389    c-0.035-0.001-0.07-0.001-0.104-0.001c-3.977,0-7.229,3.196-7.285,7.185c-1.455,103.532-85.582,188.064-188.569,190.694    c-0.01,0-0.019,0.001-0.029,0.001c-1.634,0.042-3.273,0.062-4.917,0.062c-1.643,0-3.281-0.021-4.915-0.062    c-0.018,0-0.036-0.001-0.054-0.002C100.155,425.98,16.04,341.462,14.575,237.949c-0.056-3.99-3.307-7.185-7.285-7.185    c-0.035,0-0.07,0-0.105,0.001c-4.025,0.057-7.241,3.365-7.184,7.39c0.703,49.695,18.755,96.596,51.153,133.689    c-6.549,2.465-11.23,8.777-11.23,16.177v77.839c0,10.531,8.568,19.099,19.099,19.099h298.131c10.475,0,19-8.479,19.09-18.933    h15.682c6.754,0,12.248-5.495,12.248-12.248v-1.418h11.292c37.445,0,68.492-29.282,70.68-66.66l9.002-152.738    c10.086-6.037,16.854-17.065,16.854-29.647C512.002,184.275,496.512,168.785,477.473,168.785z M361.68,458.738v7.122    c0,2.494-2.029,4.523-4.523,4.523H59.025c-2.495,0-4.524-2.029-4.524-4.523v-77.839c0-1.501,1.221-2.722,2.722-2.722h6.78    c0.076,0.073,0.154,0.143,0.23,0.215c1.044,0.999,2.096,1.986,3.157,2.961c0.186,0.171,0.371,0.342,0.558,0.512    c1.053,0.961,2.115,1.91,3.184,2.847c0.201,0.176,0.401,0.352,0.602,0.526c1.061,0.923,2.13,1.834,3.207,2.733    c0.217,0.181,0.434,0.362,0.652,0.542c1.066,0.883,2.14,1.754,3.221,2.614c0.236,0.188,0.473,0.375,0.71,0.562    c1.069,0.843,2.144,1.674,3.227,2.494c0.257,0.194,0.514,0.388,0.771,0.581c1.07,0.802,2.146,1.594,3.229,2.375    c0.278,0.2,0.557,0.4,0.836,0.598c1.07,0.763,2.145,1.516,3.227,2.257c0.3,0.205,0.6,0.408,0.901,0.612    c1.069,0.724,2.143,1.439,3.225,2.142c0.321,0.209,0.644,0.415,0.966,0.623c1.067,0.685,2.138,1.362,3.216,2.027    c0.346,0.213,0.693,0.423,1.04,0.635c1.061,0.646,2.127,1.284,3.198,1.91c0.372,0.217,0.745,0.431,1.118,0.645    c1.056,0.608,2.116,1.21,3.182,1.799c0.394,0.218,0.79,0.431,1.185,0.646c1.051,0.572,2.105,1.137,3.165,1.69    c0.422,0.22,0.846,0.436,1.27,0.653c1.04,0.533,2.082,1.061,3.131,1.577c0.451,0.222,0.904,0.438,1.357,0.656    c1.031,0.497,2.064,0.99,3.102,1.47c0.475,0.219,0.952,0.433,1.429,0.648c1.023,0.463,2.048,0.923,3.078,1.369    c0.502,0.218,1.007,0.428,1.511,0.642c1.011,0.429,2.024,0.854,3.042,1.267c0.532,0.215,1.066,0.423,1.599,0.634    c0.999,0.395,1.998,0.788,3.003,1.167c0.56,0.211,1.123,0.414,1.685,0.62c0.985,0.362,1.971,0.723,2.961,1.07    c0.588,0.206,1.18,0.402,1.77,0.603c0.973,0.331,1.946,0.661,2.925,0.978c0.614,0.199,1.232,0.387,1.848,0.58    c0.959,0.3,1.918,0.601,2.883,0.887c0.645,0.192,1.294,0.372,1.941,0.557c0.944,0.27,1.887,0.542,2.836,0.799    c0.671,0.182,1.347,0.352,2.02,0.527c0.93,0.242,1.858,0.486,2.792,0.715c0.701,0.172,1.406,0.331,2.11,0.496    c0.913,0.214,1.825,0.431,2.742,0.633c0.729,0.16,1.462,0.307,2.193,0.459c0.897,0.187,1.793,0.379,2.694,0.554    c0.76,0.148,1.524,0.281,2.287,0.421c0.876,0.16,1.751,0.326,2.631,0.476c0.794,0.135,1.592,0.254,2.388,0.38    c0.855,0.135,1.708,0.276,2.566,0.401c0.824,0.12,1.653,0.223,2.479,0.333c0.834,0.111,1.666,0.229,2.503,0.33    c0.868,0.105,1.74,0.192,2.61,0.286c0.8,0.086,1.598,0.181,2.4,0.258c0.914,0.088,1.831,0.157,2.748,0.233    c0.764,0.064,1.526,0.136,2.292,0.191c0.978,0.071,1.96,0.121,2.94,0.178c0.708,0.041,1.413,0.092,2.122,0.126    c1.105,0.053,2.213,0.085,3.32,0.121c0.589,0.019,1.177,0.049,1.767,0.063c1.699,0.041,3.401,0.062,5.106,0.062    c1.705,0,3.407-0.021,5.106-0.062c0.589-0.014,1.175-0.044,1.763-0.063c1.109-0.036,2.219-0.068,3.326-0.121    c0.699-0.034,1.394-0.084,2.091-0.125c0.991-0.058,1.983-0.109,2.972-0.18c0.767-0.055,1.531-0.128,2.297-0.192    c0.913-0.076,1.827-0.145,2.738-0.233c0.812-0.078,1.621-0.174,2.431-0.262c0.86-0.093,1.722-0.179,2.581-0.283    c0.843-0.102,1.681-0.221,2.522-0.332c0.82-0.109,1.641-0.211,2.459-0.33c0.865-0.126,1.726-0.268,2.589-0.404    c0.789-0.125,1.579-0.243,2.366-0.376c0.885-0.15,1.766-0.317,2.648-0.479c0.757-0.139,1.516-0.271,2.27-0.418    c0.908-0.177,1.812-0.37,2.716-0.559c0.723-0.151,1.447-0.295,2.168-0.454c0.926-0.204,1.847-0.423,2.768-0.639    c0.695-0.163,1.391-0.32,2.084-0.49c0.941-0.231,1.878-0.477,2.815-0.721c0.665-0.173,1.333-0.341,1.996-0.521    c0.957-0.259,1.91-0.534,2.863-0.807c0.638-0.183,1.277-0.36,1.913-0.549c0.974-0.289,1.942-0.593,2.911-0.896    c0.606-0.19,1.214-0.375,1.819-0.571c0.99-0.32,1.974-0.655,2.959-0.989c0.578-0.197,1.157-0.389,1.733-0.59    c1.003-0.351,1.999-0.716,2.996-1.082c0.551-0.203,1.103-0.401,1.652-0.608c1.015-0.383,2.024-0.78,3.033-1.178    c0.523-0.207,1.047-0.41,1.568-0.621c1.028-0.416,2.051-0.847,3.073-1.279c0.494-0.209,0.989-0.416,1.481-0.629    c1.04-0.45,2.074-0.914,3.107-1.382c0.466-0.211,0.934-0.42,1.398-0.635c1.05-0.485,2.095-0.984,3.137-1.487    c0.44-0.212,0.881-0.422,1.32-0.638c1.059-0.52,2.112-1.054,3.163-1.593c0.414-0.212,0.828-0.423,1.241-0.638    c1.068-0.557,2.129-1.126,3.187-1.702c0.388-0.211,0.778-0.421,1.165-0.635c1.073-0.592,2.139-1.198,3.202-1.81    c0.366-0.211,0.732-0.42,1.096-0.633c1.079-0.63,2.151-1.272,3.219-1.923c0.34-0.207,0.681-0.414,1.02-0.623    c1.083-0.668,2.16-1.348,3.232-2.037c0.317-0.204,0.635-0.407,0.951-0.613c1.085-0.706,2.163-1.423,3.236-2.149    c0.297-0.201,0.595-0.402,0.891-0.606c1.085-0.743,2.164-1.498,3.236-2.263c0.276-0.197,0.552-0.394,0.827-0.592    c1.085-0.782,2.163-1.575,3.235-2.379c0.256-0.192,0.513-0.385,0.768-0.578c1.082-0.819,2.157-1.651,3.225-2.493    c0.24-0.189,0.479-0.378,0.718-0.568c1.076-0.856,2.144-1.723,3.206-2.602c0.225-0.186,0.449-0.373,0.674-0.561    c1.069-0.893,2.131-1.797,3.184-2.713c0.209-0.182,0.418-0.365,0.626-0.547c1.06-0.929,2.112-1.869,3.156-2.822    c0.198-0.181,0.395-0.362,0.592-0.544c1.048-0.963,2.088-1.938,3.119-2.925c0.082-0.079,0.166-0.154,0.248-0.233h6.78    c1.501,0,2.721,1.221,2.721,2.722v18.125h0.002V458.738z M389.602,421.728v23.344v6.379h-13.347v-38.018h13.347V421.728z     M471.598,384.844c-1.738,29.686-26.393,52.94-56.13,52.94h-11.292v-8.768h11.292c25.1,0,45.91-19.627,47.377-44.682    l8.639-147.015c0.045,0.008,0.092,0.012,0.137,0.02c0.641,0.11,1.286,0.204,1.939,0.278c0.049,0.005,0.097,0.013,0.145,0.018    c0.706,0.077,1.418,0.135,2.137,0.168c0.062,0.003,0.125,0.002,0.187,0.005c0.479,0.02,0.959,0.037,1.444,0.037    c0.121,0,0.239-0.008,0.36-0.009c0.227-0.002,0.453-0.011,0.68-0.017c0.446-0.013,0.889-0.034,1.331-0.064    c0.142-0.01,0.285-0.009,0.426-0.021L471.598,384.844z M477.473,223.269c-0.635,0-1.261-0.037-1.88-0.095    c-0.085-0.008-0.17-0.014-0.254-0.023c-0.616-0.066-1.224-0.158-1.822-0.279c-0.049-0.01-0.098-0.021-0.147-0.032    c-1.224-0.257-2.406-0.628-3.536-1.098c-0.072-0.03-0.144-0.059-0.216-0.09c-7.108-3.056-12.099-10.123-12.099-18.337    c0-11.003,8.952-19.955,19.955-19.955s19.954,8.952,19.954,19.955C497.427,214.317,488.475,223.269,477.473,223.269z"/>
	</g>
</g>
<g>
	<g>
		<path d="M413.644,202.456c-7.643-48.418-32.407-92.805-69.73-124.983c-37.72-32.52-85.957-50.43-135.824-50.43    c-49.863,0-98.096,17.907-135.814,50.422C34.954,109.638,10.188,154.018,2.54,202.43c-0.628,3.976,2.086,7.708,6.061,8.336    c3.978,0.628,7.707-2.086,8.336-6.061C31.866,110.206,112.258,41.619,208.09,41.619c95.846,0,176.239,68.598,191.158,163.11    c0.566,3.591,3.666,6.152,7.189,6.152c0.378,0,0.761-0.029,1.145-0.09C411.557,210.163,414.272,206.432,413.644,202.456z"/>
	</g>
</g>
<g>
</g>
<g>
</g>
<g>
</g>
<g>
</g>
<g>
</g>
<g>
</g>
<g>
</g>
<g>
</g>
<g>
</g>
<g>
</g>
<g>
</g>
<g>
</g>
<g>
</g>
<g>
</g>
<g>
</g>
</svg>
