<?xml version="1.0" encoding="iso-8859-1"?>
<!-- Generator: Adobe Illustrator 19.0.0, SVG Export Plug-In . SVG Version: 6.00 Build 0)  -->
<svg xmlns="http://www.w3.org/2000/svg" xmlns:xlink="http://www.w3.org/1999/xlink" version="1.1" id="Capa_1" x="0px" y="0px" viewBox="0 0 512.001 512.001" style="enable-background:new 0 0 512.001 512.001;" xml:space="preserve">
<g>
	<g>
		<path d="M281.585,363.219c-4.657-4.863-7.219-11.25-7.219-17.983V56.358C274.366,25.282,249.084,0,218.008,0    s-56.359,25.282-56.359,56.358v9.282c0,4.024,3.262,7.287,7.287,7.287c4.025,0,7.287-3.262,7.287-7.287v-9.282    c0-23.04,18.745-41.785,41.786-41.785c23.04,0,41.785,18.745,41.785,41.785v288.878c0,10.505,3.999,20.47,11.261,28.058    c13.132,13.722,20.364,31.735,20.364,50.723c0,2.701-0.148,5.419-0.438,8.079c-0.438,4,2.45,7.598,6.451,8.036    c0.268,0.029,0.536,0.044,0.801,0.044c3.669,0,6.826-2.763,7.234-6.494c0.349-3.185,0.526-6.436,0.526-9.665    C305.993,401.257,297.324,379.666,281.585,363.219z"/>
	</g>
</g>
<g>
	<g>
		<path d="M290.91,459.42c-3.446-2.08-7.925-0.973-10.004,2.473c-13.595,22.523-38.343,36.149-64.671,35.513    c-40.033-0.941-72.168-34.313-71.632-74.392c0.25-18.579,7.462-36.218,20.31-49.669c7.292-7.635,11.308-17.618,11.308-28.11    V100.252c0-4.024-3.262-7.287-7.287-7.287c-4.025,0-7.287,3.262-7.287,7.287v244.984c0,6.725-2.583,13.133-7.274,18.044    c-15.399,16.122-24.045,37.267-24.343,59.54c-0.642,48.033,37.875,88.029,85.862,89.157c0.688,0.016,1.372,0.024,2.058,0.024    c30.736-0.001,59.497-16.178,75.431-42.576C295.462,465.979,294.355,461.499,290.91,459.42z"/>
	</g>
</g>
<g>
	<g>
		<path d="M264.734,379.342c-8.828-9.223-13.69-21.335-13.69-34.107V118.548c0.001-18.217-14.82-33.037-33.036-33.037    s-33.037,14.82-33.037,33.037v226.687c0,12.752-4.877,24.881-13.731,34.152c-11.316,11.846-17.669,27.381-17.888,43.743    c-0.472,35.305,27.829,64.702,63.09,65.531c0.523,0.012,1.045,0.018,1.565,0.018c0.006,0,0.011,0,0.019,0c0.005,0,0.009,0,0.013,0    c17.262-0.008,33.487-6.733,45.691-18.939c12.214-12.212,18.939-28.45,18.939-45.723    C282.669,407.295,276.3,391.429,264.734,379.342z M253.426,459.436c-9.747,9.749-22.802,14.97-36.642,14.657    c-27.307-0.642-49.227-23.416-48.861-50.766c0.17-12.668,5.09-24.698,13.855-33.873c11.456-11.995,17.766-27.698,17.766-44.218    V118.548c0-10.181,8.283-18.464,18.464-18.464c10.181,0,18.464,8.283,18.464,18.464v226.688c0,16.544,6.299,32.236,17.734,44.183    c8.957,9.361,13.891,21.648,13.891,34.599C268.097,437.398,262.887,449.976,253.426,459.436z"/>
	</g>
</g>
<g>
	<g>
		<path d="M364.265,31.495H309.13c-9.767,0-17.713,7.946-17.713,17.713c0,9.767,7.947,17.713,17.713,17.713h55.135    c9.767,0,17.713-7.946,17.713-17.713C381.978,39.441,374.032,31.495,364.265,31.495z M364.265,52.347H309.13    c-1.732,0-3.139-1.408-3.139-3.139s1.408-3.139,3.139-3.139h55.135c1.732,0,3.139,1.408,3.139,3.139    S365.996,52.347,364.265,52.347z"/>
	</g>
</g>
<g>
	<g>
		<path d="M364.265,156.047H309.13c-9.767,0-17.713,7.946-17.713,17.713c0,9.767,7.946,17.713,17.713,17.713h55.135    c9.767,0,17.713-7.946,17.713-17.713C381.978,163.993,374.032,156.047,364.265,156.047z M364.265,176.899H309.13    c-1.732,0-3.139-1.408-3.139-3.139c0-1.731,1.408-3.139,3.139-3.139h55.135c1.732,0,3.139,1.408,3.139,3.139    C367.405,175.491,365.997,176.899,364.265,176.899z"/>
	</g>
</g>
<g>
	<g>
		<path d="M364.265,280.598H309.13c-9.767,0-17.713,7.946-17.713,17.713c0,9.767,7.946,17.712,17.713,17.712h55.135    c9.767,0,17.713-7.946,17.713-17.713C381.978,288.543,374.032,280.598,364.265,280.598z M364.265,301.45H309.13    c-1.732,0-3.139-1.408-3.139-3.139c0-1.731,1.408-3.139,3.139-3.139h55.135c1.732,0,3.139,1.408,3.139,3.139    S365.997,301.45,364.265,301.45z"/>
	</g>
</g>
<g>
	<g>
		<path d="M341.316,93.771H309.13c-9.767,0-17.713,7.946-17.713,17.713c0,9.767,7.947,17.713,17.713,17.713h32.186    c9.767,0,17.713-7.946,17.713-17.713C359.029,101.717,351.083,93.771,341.316,93.771z M341.316,114.623H309.13    c-1.732,0-3.139-1.408-3.139-3.139s1.408-3.139,3.139-3.139h32.186c1.731,0,3.139,1.408,3.139,3.139    S343.047,114.623,341.316,114.623z"/>
	</g>
</g>
<g>
	<g>
		<path d="M341.316,218.321H309.13c-9.767,0-17.713,7.946-17.713,17.713c0,9.767,7.947,17.713,17.713,17.713h32.186    c9.767,0,17.713-7.946,17.713-17.713C359.029,226.267,351.083,218.321,341.316,218.321z M341.316,239.173H309.13    c-1.732,0-3.139-1.408-3.139-3.139c0-1.73,1.408-3.139,3.139-3.139h32.186c1.731,0,3.139,1.408,3.139,3.139    S343.047,239.173,341.316,239.173z"/>
	</g>
</g>
<g>
</g>
<g>
</g>
<g>
</g>
<g>
</g>
<g>
</g>
<g>
</g>
<g>
</g>
<g>
</g>
<g>
</g>
<g>
</g>
<g>
</g>
<g>
</g>
<g>
</g>
<g>
</g>
<g>
</g>
</svg>
