<?xml version="1.0" encoding="iso-8859-1"?>
<!-- Generator: Adobe Illustrator 19.0.0, SVG Export Plug-In . SVG Version: 6.00 Build 0)  -->
<svg xmlns="http://www.w3.org/2000/svg" xmlns:xlink="http://www.w3.org/1999/xlink" version="1.1" id="Capa_1" x="0px" y="0px" viewBox="0 0 512.001 512.001" style="enable-background:new 0 0 512.001 512.001;" xml:space="preserve">
<g>
	<g>
		<path d="M508.124,234.926l-105.491-91.808c-3.034-2.64-7.634-2.321-10.276,0.713c-2.641,3.034-2.322,7.635,0.713,10.276    l98.788,85.974h-44.894L263.327,80.263c-4.178-3.636-10.477-3.635-14.653,0L65.036,240.08H20.142l68.367-59.499l0.002-0.002    l64.487-56.122c0.001-0.001,0.001-0.001,0.002-0.002l103-89.64l110.986,96.591c3.035,2.641,7.636,2.321,10.276-0.713    c2.641-3.034,2.322-7.635-0.713-10.276L263.327,21.881c-4.178-3.636-10.477-3.635-14.653,0l-79.795,69.445V70.712    c0-6.284-5.113-11.397-11.397-11.397H71.889c-6.284,0-11.397,5.113-11.397,11.397v21.44c0,6.284,5.113,11.397,11.397,11.397h4.556    v68.22l-72.57,63.157c-3.572,3.109-4.808,7.984-3.148,12.42c1.66,4.436,5.793,7.302,10.529,7.302h49.203v129.535    c0,4.023,3.261,7.284,7.284,7.284c4.023,0,7.284-3.261,7.284-7.284V250.698l45.13-39.276L256,93.198l135.844,118.224l45.13,39.276    v223.761c0,2.106-1.714,3.82-3.82,3.82h-64.671v-31.357v-38.64v-38.64v-38.64v-31.356h6.912c4.876,0,8.843-3.967,8.843-8.843    v-34.488c0-4.876-3.967-8.843-8.843-8.843h-238.79c-4.876,0-8.843,3.967-8.843,8.843v34.488c0,4.876,3.967,8.843,8.843,8.843    h6.912v31.356v38.64v38.64v38.64v31.357H78.846c-2.106,0-3.82-1.714-3.82-3.82v-55.802c0-4.023-3.261-7.284-7.284-7.284    s-7.284,3.261-7.284,7.284v55.802c0,10.139,8.248,18.387,18.387,18.387H150.8h210.4h71.954c10.139,0,18.387-8.249,18.387-18.387    V254.647h49.203c4.736,0,8.869-2.866,10.529-7.302C512.933,242.909,511.696,238.034,508.124,234.926z M140.932,115.646    l-49.92,43.445v-55.542h49.92V115.646z M75.059,88.982v-15.1h79.252v15.1h-6.096H83.729H75.059z M353.917,478.279H158.084v-24.073    h195.833V478.279z M353.917,439.639H158.084v-24.073h195.833V439.639z M353.917,400.999H158.084v-24.073h195.833V400.999z     M353.917,362.359L353.917,362.359H158.084v-24.073h195.833V362.359z M158.084,323.719v-24.073h195.832v24.073H158.084z     M361.2,285.079H150.8c-0.003,0-0.006,0-0.009,0h-8.462V262.04h227.342v23.039h-8.462    C361.206,285.079,361.203,285.079,361.2,285.079z"/>
	</g>
</g>
<g>
</g>
<g>
</g>
<g>
</g>
<g>
</g>
<g>
</g>
<g>
</g>
<g>
</g>
<g>
</g>
<g>
</g>
<g>
</g>
<g>
</g>
<g>
</g>
<g>
</g>
<g>
</g>
<g>
</g>
</svg>
