<?xml version='1.0' encoding='iso-8859-1'?>
<svg version="1.1" xmlns="http://www.w3.org/2000/svg" viewBox="0 0 295.267 295.267" xmlns:xlink="http://www.w3.org/1999/xlink" enable-background="new 0 0 295.267 295.267">
  <g>
    <path d="M295.267,132.068L147.633,17.114L0,132.068l18.432,23.67l13.552-10.552v132.966h231.299V145.186l13.553,10.553   L295.267,132.068z M233.282,248.152H61.983V121.827l85.649-66.691l85.649,66.69V248.152z"/>
    <rect width="30" x="132.633" y="101.386" height="41.666"/>
    <path d="m147.633,201.152c-20.479,0-37.139-16.661-37.139-37.14 0-9.036 3.294-17.744 9.275-24.522l-22.494-19.85c-10.821,12.262-16.781,28.021-16.781,44.372 0,37.021 30.118,67.14 67.139,67.14s67.14-30.119 67.14-67.14c0-16.388-5.984-32.174-16.85-44.45l-22.465,19.885c6.007,6.785 9.314,15.51 9.314,24.565 2.84217e-14,20.479-16.661,37.14-37.139,37.14z"/>
  </g>
</svg>
