<?xml version='1.0' encoding='iso-8859-1'?>
<svg version="1.1" xmlns="http://www.w3.org/2000/svg" viewBox="0 0 245 245" xmlns:xlink="http://www.w3.org/1999/xlink" enable-background="new 0 0 245 245">
  <g>
    <path d="m75.581,197.741h93.839l-8.653-62.65c9.138-9.701 14.4-22.67 14.4-36.166 0-29.04-23.626-52.666-52.667-52.666-29.04,0-52.666,23.626-52.666,52.666 0,13.497 5.261,26.465 14.399,36.165l-8.652,62.651zm46.919-121.482c12.499,0 22.667,10.168 22.667,22.666 0,7.276-3.37,13.934-9.246,18.264l-7.181,5.292 6.252,45.261h-24.983l6.251-45.261-7.18-5.292c-5.876-4.33-9.246-10.987-9.246-18.264 1.42109e-14-12.498 10.168-22.666 22.666-22.666z"/>
    <path d="M24.5,0v245h196V0H24.5z M190.5,215h-136V30h136V215z"/>
  </g>
</svg>
