<?xml version='1.0' encoding='iso-8859-1'?>
<svg version="1.1" xmlns="http://www.w3.org/2000/svg" viewBox="0 0 250.305 250.305" xmlns:xlink="http://www.w3.org/1999/xlink" enable-background="new 0 0 250.305 250.305">
  <g>
    <path d="m218.865,93.713c0-51.674-42.039-93.713-93.713-93.713-51.673,0-93.712,42.039-93.712,93.713 3.55271e-15,33.968 18.321,64.959 47.423,81.487l.018,7.997h-12.763v30h16.867v18.554h16.867v18.554h50.601v-18.554h16.867v-18.554h16.866v-30h-12.763l.018-7.998c29.101-16.527 47.424-47.518 47.424-81.486zm-157.425,0c0-35.132 28.581-63.713 63.712-63.713 35.132,0 63.713,28.581 63.713,63.713 0,25.395-15.063,48.343-38.377,58.463l-9.005,3.909-.059,26.604h-32.544l-.061-26.604-9.004-3.909c-23.312-10.12-38.375-33.069-38.375-58.463z"/>
    <polygon points="108.344,130.084 125.152,113.276 141.959,130.084 163.172,108.871 146.365,92.063 163.172,75.256 141.959,54.043    125.152,70.851 108.344,54.043 87.131,75.256 103.939,92.063 87.131,108.871  "/>
  </g>
</svg>
