<?xml version="1.0" encoding="iso-8859-1"?>
<!-- Generator: Adobe Illustrator 19.0.0, SVG Export Plug-In . SVG Version: 6.00 Build 0)  -->
<svg xmlns="http://www.w3.org/2000/svg" xmlns:xlink="http://www.w3.org/1999/xlink" version="1.1" id="Capa_1" x="0px" y="0px" viewBox="0 0 512 512" style="enable-background:new 0 0 512 512;" xml:space="preserve">
<path style="fill:#0072A2;" d="M181.486,108.272l-50.381,5.466v-7.231c0-2.121-1.719-3.84-3.84-3.84H74.209  c-2.121,0-3.84,1.719-3.84,3.84v7.231l-50.381-5.466C9.316,107.114,0,115.474,0,126.208l0,0c0,10.735,9.316,19.095,19.988,17.937  l50.381-5.466v7.231c0,2.121,1.719,3.84,3.84,3.84h8.256v34.917h36.544V149.75h8.256c2.121,0,3.84-1.719,3.84-3.84v-7.23  l50.381,5.466c10.672,1.158,19.988-7.202,19.988-17.937l0,0C201.475,115.474,192.158,107.114,181.486,108.272z"/>
<path style="fill:#006289;" d="M127.266,102.667h-26.528v47.082l0,0v34.917h18.272v-34.917h8.256c2.121,0,3.84-1.719,3.84-3.84  v-39.402C131.105,104.386,129.386,102.667,127.266,102.667z"/>
<path style="fill:#A0D860;" d="M409.827,338.759c0,22.212,18.007,40.219,40.219,40.219s40.219-18.007,40.219-40.219  c0-17.904-26.131-51.91-36.267-76.513c-1.454-3.53-6.449-3.53-7.903,0C435.958,286.849,409.827,320.855,409.827,338.759z"/>
<path style="fill:#61C979;" d="M450.046,259.598v119.38c22.212,0,40.219-18.006,40.219-40.219c0-17.904-26.131-51.911-36.267-76.513  C453.27,260.481,451.658,259.598,450.046,259.598z"/>
<path style="fill:#FFB427;" d="M500.786,118.898H383.677c-2.169,0-4.291,0.629-6.11,1.811L150.809,270.008v-65.807  c0-12.288-9.961-22.249-22.249-22.249H72.914c-12.288,0-22.249,9.961-22.249,22.249v198.89c0,3.447,2.795,6.242,6.242,6.242h91.488  c1.613,0,3.163-0.624,4.325-1.742l227.437-218.61c0.074-0.071,0.196-0.019,0.196,0.083V209.1c0,4.079,3.307,7.385,7.385,7.385  h116.875c4.079,0,7.386-3.307,7.386-7.386v-78.987C512,123.919,506.979,118.898,500.786,118.898z"/>
<g>
	<path style="fill:#FF9D00;" d="M380.354,189.065V158.07c0-0.527-0.632-0.797-1.013-0.432L118.47,407.591   c-1.163,1.118-2.713,1.742-4.326,1.742h34.25c1.613,0,3.163-0.624,4.326-1.742l227.437-218.61   C380.231,188.91,380.354,188.963,380.354,189.065z"/>
	<path style="fill:#FF9D00;" d="M500.786,118.898h-34.25c6.193,0,11.214,5.021,11.214,11.214V209.1c0,4.079-3.307,7.386-7.386,7.386   h34.25c4.079,0,7.386-3.307,7.386-7.386v-78.987C512,123.919,506.979,118.898,500.786,118.898z"/>
	<path style="fill:#FF9D00;" d="M150.809,270.008v-65.807c0-12.288-9.961-22.249-22.249-22.249h-11.955V284.05   c0,3.817,4.261,6.086,7.428,3.957L150.809,270.008z"/>
</g>
<g>
</g>
<g>
</g>
<g>
</g>
<g>
</g>
<g>
</g>
<g>
</g>
<g>
</g>
<g>
</g>
<g>
</g>
<g>
</g>
<g>
</g>
<g>
</g>
<g>
</g>
<g>
</g>
<g>
</g>
</svg>
