<?xml version="1.0" encoding="iso-8859-1"?>
<!-- Generator: Adobe Illustrator 19.0.0, SVG Export Plug-In . SVG Version: 6.00 Build 0)  -->
<svg xmlns="http://www.w3.org/2000/svg" xmlns:xlink="http://www.w3.org/1999/xlink" version="1.1" id="Capa_1" x="0px" y="0px" viewBox="0 0 512.001 512.001" style="enable-background:new 0 0 512.001 512.001;" xml:space="preserve">
<path style="fill:#0072A2;" d="M181.132,108.561l-50.283,5.456V106.8c0-2.117-1.716-3.833-3.833-3.833H74.064  c-2.117,0-3.833,1.716-3.833,3.833v7.217l-50.283-5.456C9.298,107.405,0,115.749,0,126.463l0,0c0,10.714,9.298,19.057,19.949,17.902  l50.283-5.456v7.217c0,2.117,1.716,3.833,3.833,3.833h8.24v34.849h36.472v-34.849h8.24c2.117,0,3.833-1.716,3.833-3.833v-7.217  l50.283,5.456c10.651,1.156,19.949-7.188,19.949-17.902l0,0C201.082,115.749,191.784,107.405,181.132,108.561z"/>
<path style="fill:#006289;" d="M127.017,102.967H100.54v46.99l0,0v34.849h18.236v-34.849h8.24c2.117,0,3.833-1.716,3.833-3.833  v-39.325C130.85,104.683,129.134,102.967,127.017,102.967z"/>
<path style="fill:#FFB427;" d="M499.809,119.167h-116.88c-2.165,0-4.283,0.628-6.098,1.807L150.515,269.982v-65.679  c0-12.264-9.942-22.205-22.205-22.205H72.772c-12.264,0-22.205,9.942-22.205,22.205v198.502c0,3.441,2.789,6.23,6.23,6.23h91.309  c1.61,0,3.157-0.623,4.317-1.738l226.994-218.183c0.073-0.071,0.196-0.019,0.196,0.083v19.996c0,4.071,3.3,7.371,7.371,7.371H503.63  c4.071,0,7.371-3.3,7.371-7.371V130.36C511.001,124.178,505.99,119.167,499.809,119.167z"/>
<g>
	<path style="fill:#FF9D00;" d="M379.612,189.196v-30.935c0-0.526-0.631-0.795-1.011-0.431L118.239,407.296   c-1.16,1.115-2.707,1.738-4.317,1.738h34.183c1.61,0,3.157-0.623,4.317-1.738l226.994-218.183   C379.49,189.042,379.612,189.094,379.612,189.196z"/>
	<path style="fill:#FF9D00;" d="M499.809,119.167h-34.183c6.181,0,11.192,5.011,11.192,11.192v78.833c0,4.071-3.3,7.371-7.371,7.371   h34.183c4.071,0,7.371-3.3,7.371-7.371v-78.833C511.001,124.178,505.99,119.167,499.809,119.167z"/>
	<path style="fill:#FF9D00;" d="M150.515,269.982v-65.679c0-12.264-9.942-22.205-22.205-22.205h-11.932v101.898   c0,3.809,4.252,6.075,7.414,3.949L150.515,269.982z"/>
</g>
<g>
	<path style="fill:#FF4D4A;" d="M385.767,366.183c-3.735,0-7.335-1.569-9.876-4.306c-5.055-5.445-4.737-13.987,0.707-19.042   c0.74-0.697,18.55-17.729,7.08-31.37c-22.175-26.37-9.446-51.408,0.383-60.963c2.529-2.459,5.864-3.813,9.391-3.813   c3.672,0,7.103,1.449,9.662,4.082c5.118,5.263,5.053,13.732-0.131,18.917c-0.231,0.249-2.843,3.129-3.99,7.258   c-1.526,5.493,0.211,11.111,5.31,17.175c22.325,26.548,3.633,56.391-9.37,68.462C392.431,364.905,389.177,366.183,385.767,366.183z   "/>
	<path style="fill:#FF4D4A;" d="M433.938,366.183c-3.735,0-7.335-1.569-9.876-4.306c-5.055-5.445-4.737-13.987,0.707-19.042   c0.74-0.697,18.55-17.729,7.08-31.37c-22.175-26.369-9.446-51.408,0.383-60.963c2.53-2.459,5.865-3.813,9.391-3.813   c3.672,0,7.103,1.449,9.662,4.082c5.117,5.264,5.052,13.733-0.131,18.917c-0.231,0.249-2.843,3.129-3.99,7.258   c-1.526,5.493,0.211,11.111,5.31,17.175c22.325,26.547,3.633,56.391-9.369,68.462C440.602,364.905,437.347,366.183,433.938,366.183   z"/>
	<path style="fill:#FF4D4A;" d="M483.082,366.183c-3.735,0-7.335-1.569-9.876-4.306c-5.055-5.445-4.737-13.987,0.707-19.042   c0.74-0.697,18.55-17.729,7.08-31.37c-22.175-26.369-9.446-51.408,0.383-60.963c2.529-2.459,5.864-3.813,9.391-3.813   c3.672,0,7.103,1.449,9.662,4.082c5.117,5.264,5.052,13.733-0.131,18.917c-0.231,0.249-2.843,3.129-3.99,7.258   c-1.526,5.493,0.211,11.111,5.31,17.175c22.325,26.547,3.633,56.391-9.369,68.462C489.746,364.905,486.491,366.183,483.082,366.183   z"/>
</g>
<g>
</g>
<g>
</g>
<g>
</g>
<g>
</g>
<g>
</g>
<g>
</g>
<g>
</g>
<g>
</g>
<g>
</g>
<g>
</g>
<g>
</g>
<g>
</g>
<g>
</g>
<g>
</g>
<g>
</g>
</svg>
