<?xml version="1.0" encoding="iso-8859-1"?>
<!-- Generator: Adobe Illustrator 19.0.0, SVG Export Plug-In . SVG Version: 6.00 Build 0)  -->
<svg xmlns="http://www.w3.org/2000/svg" xmlns:xlink="http://www.w3.org/1999/xlink" version="1.1" id="Capa_1" x="0px" y="0px" viewBox="0 0 512 512" style="enable-background:new 0 0 512 512;" xml:space="preserve">
<path style="fill:#FFB427;" d="M364.268,153.692v10.264c0,12.215,9.902,22.116,22.116,22.116l0,0  c12.215,0,22.116-9.902,22.116-22.116v-9.978c0-84.296-67.771-153.741-152.067-153.977c-84.287-0.236-152.935,68.267-152.935,152.5  v97.343l0,0h44.233l0,0v-97.343c0-59.91,48.912-108.611,108.9-108.266C316.375,44.578,364.268,93.948,364.268,153.692z"/>
<path style="fill:#FF9D00;" d="M256.434,0.001c-0.761-0.002-1.517,0.014-2.275,0.023v44.229c0.823-0.014,1.647-0.022,2.474-0.017  c59.743,0.343,107.636,49.713,107.636,109.457v10.264c0,12.215,9.902,22.116,22.116,22.116c12.215,0,22.116-9.902,22.116-22.116  v-9.978C408.501,69.681,340.73,0.236,256.434,0.001z"/>
<path style="fill:#A0D860;" d="M426.492,512H85.507c-9.393,0-17.007-7.614-17.007-17.007V256.128  c0-9.393,7.614-17.007,17.007-17.007h340.985c9.393,0,17.007,7.614,17.007,17.007v238.865C443.5,504.386,435.885,512,426.492,512z"/>
<g>
	<path style="fill:#0072A2;" d="M368.525,323.048h-225.05c-8.878,0-16.075-7.197-16.075-16.075l0,0   c0-8.878,7.197-16.075,16.075-16.075h225.051c8.878,0,16.075,7.197,16.075,16.075l0,0   C384.601,315.851,377.404,323.048,368.525,323.048z"/>
	<path style="fill:#0072A2;" d="M368.525,391.635h-225.05c-8.878,0-16.075-7.197-16.075-16.075l0,0   c0-8.878,7.197-16.075,16.075-16.075h225.051c8.878,0,16.075,7.197,16.075,16.075l0,0   C384.601,384.438,377.404,391.635,368.525,391.635z"/>
	<path style="fill:#0072A2;" d="M368.525,460.222h-225.05c-8.878,0-16.075-7.197-16.075-16.075l0,0   c0-8.878,7.197-16.075,16.075-16.075h225.051c8.878,0,16.075,7.197,16.075,16.075l0,0   C384.601,453.025,377.404,460.222,368.525,460.222z"/>
</g>
<path style="fill:#61C979;" d="M426.492,239.12h-19.608v219.257c0,9.393-7.614,17.007-17.007,17.007H68.5v19.608  c0,9.393,7.614,17.007,17.007,17.007h340.985c9.393,0,17.007-7.614,17.007-17.007V256.127  C443.5,246.735,435.885,239.12,426.492,239.12z"/>
<g>
</g>
<g>
</g>
<g>
</g>
<g>
</g>
<g>
</g>
<g>
</g>
<g>
</g>
<g>
</g>
<g>
</g>
<g>
</g>
<g>
</g>
<g>
</g>
<g>
</g>
<g>
</g>
<g>
</g>
</svg>
