<?xml version="1.0" encoding="iso-8859-1"?>
<!-- Generator: Adobe Illustrator 19.0.0, SVG Export Plug-In . SVG Version: 6.00 Build 0)  -->
<svg xmlns="http://www.w3.org/2000/svg" xmlns:xlink="http://www.w3.org/1999/xlink" version="1.1" id="Capa_1" x="0px" y="0px" viewBox="0 0 512 512" style="enable-background:new 0 0 512 512;" xml:space="preserve">
<path style="fill:#0072A2;" d="M345.329,52.07V17.618c0-9.73-7.888-17.618-17.618-17.618H184.289  c-9.73,0-17.618,7.888-17.618,17.618V52.07c0,22.699-7.583,48.458-27.775,58.827h234.208  C352.912,100.528,345.329,74.769,345.329,52.07z"/>
<path style="fill:#006289;" d="M345.329,52.07V17.618c0-9.73-7.888-17.618-17.618-17.618h-26.733c5.185,0,9.389,4.203,9.389,9.389  V52.07c0,22.699,7.583,48.458,27.775,58.827h34.963C352.912,100.528,345.329,74.769,345.329,52.07z"/>
<path style="fill:#0072A2;" d="M345.329,459.93v34.452c0,9.73-7.888,17.618-17.618,17.618H184.289  c-9.73,0-17.618-7.888-17.618-17.618V459.93c0-22.699-7.583-48.458-27.775-58.827h234.208  C352.912,411.472,345.329,437.231,345.329,459.93z"/>
<path style="fill:#006289;" d="M336.929,401.103c-20.192,10.369-27.775,36.128-27.775,58.827v44.394  c0,4.239-3.437,7.676-7.676,7.676h26.232c9.73,0,17.618-7.888,17.618-17.618V459.93c0-22.699,7.583-48.458,27.775-58.827H336.929z"/>
<path style="fill:#FF4D4A;" d="M367.824,404.171H144.176c-20.074,0-36.347-16.273-36.347-36.347V144.176  c0-20.074,16.273-36.347,36.347-36.347h223.648c20.074,0,36.347,16.273,36.347,36.347v223.648  C404.171,387.898,387.898,404.171,367.824,404.171z"/>
<path style="fill:#E13F33;" d="M367.824,107.829h-35.248c12.324,0,23.204,6.162,29.74,15.569c1.127,1.622-0.07,3.847-2.044,3.847  H144.176c-9.35,0-16.93,7.58-16.93,16.93v223.648c0,9.35,7.58,16.93,16.93,16.93h216.096c1.975,0,3.171,2.225,2.044,3.847  c-6.537,9.408-17.416,15.569-29.74,15.569h35.248c20.074,0,36.347-16.273,36.347-36.347V144.176  C404.171,124.102,387.898,107.829,367.824,107.829z"/>
<path style="fill:#F8F5EE;" d="M144.176,379.875c-6.645,0-12.051-5.406-12.051-12.051V144.176c0-6.645,5.406-12.051,12.051-12.051  h223.648c6.645,0,12.051,5.406,12.051,12.051v223.648c0,6.645-5.406,12.051-12.051,12.051L144.176,379.875L144.176,379.875z"/>
<path style="fill:#E4E4E4;" d="M367.824,132.125H338.14c6.645,0,12.051,5.406,12.051,12.051v223.648  c0,6.645-5.406,12.051-12.051,12.051h29.684c6.645,0,12.051-5.406,12.051-12.051V144.176  C379.875,137.531,374.47,132.125,367.824,132.125z"/>
<path style="fill:#A0D860;" d="M257.225,169.427c-0.702-0.611-1.748-0.611-2.45,0l-90.504,78.765  c-1.302,1.133-0.5,3.273,1.225,3.273h25.949v90.388c0,1.031,0.836,1.866,1.866,1.866h43.148v-72.728  c0-1.843,1.494-3.337,3.337-3.337h32.408c1.843,0,3.337,1.494,3.337,3.337v72.728h43.148c1.03,0,1.866-0.835,1.866-1.866v-90.388  h25.948c1.725,0,2.527-2.141,1.225-3.273L257.225,169.427z"/>
<path style="fill:#61C979;" d="M347.729,248.191l-90.504-78.765c-0.702-0.611-1.748-0.611-2.45,0l-11.921,10.375l78.582,68.39  c1.302,1.133,0.5,3.273-1.225,3.273h-25.948v90.388c0,1.031-0.835,1.866-1.866,1.866h26.293c1.031,0,1.866-0.835,1.866-1.866  v-90.388h25.949C348.229,251.465,349.03,249.324,347.729,248.191z"/>
<g>
</g>
<g>
</g>
<g>
</g>
<g>
</g>
<g>
</g>
<g>
</g>
<g>
</g>
<g>
</g>
<g>
</g>
<g>
</g>
<g>
</g>
<g>
</g>
<g>
</g>
<g>
</g>
<g>
</g>
</svg>
