<?xml version="1.0" encoding="iso-8859-1"?>
<!-- Generator: Adobe Illustrator 19.0.0, SVG Export Plug-In . SVG Version: 6.00 Build 0)  -->
<svg xmlns="http://www.w3.org/2000/svg" xmlns:xlink="http://www.w3.org/1999/xlink" version="1.1" id="Capa_1" x="0px" y="0px" viewBox="0 0 512.001 512.001" style="enable-background:new 0 0 512.001 512.001;" xml:space="preserve">
<path style="fill:#0072A2;" d="M253.38,13.177L145.057,107.45V70.078H78.68v95.139L1.408,232.466  c-2.842,2.474-1.093,7.148,2.675,7.148h58.142v248.76c0,6.312,5.117,11.429,11.429,11.429h364.693  c6.312,0,11.429-5.117,11.429-11.429v-248.76h58.142c3.768,0,5.517-4.675,2.675-7.148L258.62,13.177  C257.118,11.87,254.882,11.87,253.38,13.177z"/>
<path style="fill:#006289;" d="M511.989,235.628c-0.12-0.91-0.546-1.802-1.362-2.512l-7.646-6.654  c-0.052-0.29-0.15-0.575-0.268-0.854L258.62,13.177c-1.502-1.307-3.738-1.307-5.24,0L236.692,27.7l0.39,0.34l-0.669,0.582  L441.054,206.72c-0.131,0.867-0.829,1.638-1.874,1.638h-19.369c-1.053,0-1.907,0.854-1.907,1.907v246.854  c0,6.312-5.117,11.429-11.429,11.429H62.225v19.827c0,6.312,5.117,11.429,11.429,11.429h364.693c6.312,0,11.429-5.117,11.429-11.429  v-248.76h58.142C510.346,239.614,511.926,237.671,511.989,235.628z"/>
<path style="fill:#A0D860;" d="M154.594,41.542H66.493c-2.338,0-4.234,1.896-4.234,4.234v22.069c0,2.338,1.896,4.234,4.234,4.234  h88.101c2.338,0,4.234-1.896,4.234-4.234V45.777C158.828,43.438,156.932,41.542,154.594,41.542z"/>
<path style="fill:#FFDE3E;" d="M343.228,188.439L184.244,218.75c-2.329,0.444-4.015,2.481-4.015,4.852V402.65  c-3.524-0.754-7.275-1.163-11.168-1.163c-20.401,0-36.939,11.165-36.939,24.937s16.538,24.937,36.939,24.937  S206,440.196,206,426.424c0-0.952-0.087-1.89-0.241-2.815V266.27c0-2.368,1.68-4.403,4.006-4.851l107.923-20.782  c3.047-0.587,5.874,1.748,5.874,4.851v101.868c-3.594-0.787-7.426-1.218-11.409-1.218c-20.401,0-36.939,11.165-36.939,24.937  s16.538,24.937,36.939,24.937s36.939-11.165,36.939-24.937c0-1.161,0-3.42,0-3.42V193.291  C349.093,190.192,346.272,187.858,343.228,188.439z"/>
<path style="fill:#61C979;" d="M154.594,41.542h-27.541v30.537h27.541c2.338,0,4.234-1.896,4.234-4.234V45.777  C158.828,43.438,156.932,41.542,154.594,41.542z"/>
<g>
</g>
<g>
</g>
<g>
</g>
<g>
</g>
<g>
</g>
<g>
</g>
<g>
</g>
<g>
</g>
<g>
</g>
<g>
</g>
<g>
</g>
<g>
</g>
<g>
</g>
<g>
</g>
<g>
</g>
</svg>
