<?xml version="1.0" encoding="iso-8859-1"?>
<!-- Generator: Adobe Illustrator 19.0.0, SVG Export Plug-In . SVG Version: 6.00 Build 0)  -->
<svg xmlns="http://www.w3.org/2000/svg" xmlns:xlink="http://www.w3.org/1999/xlink" version="1.1" id="Capa_1" x="0px" y="0px" viewBox="0 0 512 512" style="enable-background:new 0 0 512 512;" xml:space="preserve">
<g>
	<path style="fill:#E13F33;" d="M494.951,133.76H79.929V99.663h415.022c9.416,0,17.049,7.633,17.049,17.049l0,0   C512,126.128,504.367,133.76,494.951,133.76z"/>
	<path style="fill:#E13F33;" d="M494.951,412.337H79.929v-34.098h415.022c9.416,0,17.049,7.633,17.049,17.049l0,0   C512,404.704,504.367,412.337,494.951,412.337z"/>
</g>
<g>
	<path style="fill:#FFB427;" d="M118.532,446.169V65.831c0-16.658,13.504-30.161,30.161-30.161l0,0   c16.658,0,30.161,13.504,30.161,30.161v380.339c0,16.658-13.504,30.161-30.161,30.161l0,0   C132.035,476.331,118.532,462.827,118.532,446.169z"/>
	<path style="fill:#FFB427;" d="M178.854,446.169V65.831c0-16.658,13.504-30.161,30.161-30.161l0,0   c16.658,0,30.161,13.504,30.161,30.161v380.339c0,16.658-13.504,30.161-30.161,30.161l0,0   C192.358,476.331,178.854,462.827,178.854,446.169z"/>
	<path style="fill:#FFB427;" d="M239.177,446.169V65.831c0-16.658,13.504-30.161,30.161-30.161l0,0   c16.658,0,30.161,13.504,30.161,30.161v380.339c0,16.658-13.504,30.161-30.161,30.161l0,0   C252.68,476.331,239.177,462.827,239.177,446.169z"/>
	<path style="fill:#FFB427;" d="M299.499,446.169V65.831c0-16.658,13.504-30.161,30.161-30.161l0,0   c16.658,0,30.161,13.504,30.161,30.161v380.339c0,16.658-13.504,30.161-30.161,30.161l0,0   C313.003,476.331,299.499,462.827,299.499,446.169z"/>
	<path style="fill:#FFB427;" d="M359.822,446.169V65.831c0-16.658,13.504-30.161,30.161-30.161l0,0   c16.658,0,30.161,13.504,30.161,30.161v380.339c0,16.658-13.504,30.161-30.161,30.161l0,0   C373.325,476.331,359.822,462.827,359.822,446.169z"/>
	<path style="fill:#FFB427;" d="M420.144,446.169V65.831c0-16.658,13.504-30.161,30.161-30.161l0,0   c16.658,0,30.161,13.504,30.161,30.161v380.339c0,16.658-13.504,30.161-30.161,30.161l0,0   C433.648,476.331,420.144,462.827,420.144,446.169z"/>
</g>
<g>
	<path style="fill:#FF9D00;" d="M148.693,35.668L148.693,35.668c-6.562,0-12.63,2.102-17.58,5.661   c7.616,5.475,12.581,14.405,12.581,24.501v380.339c0,10.095-4.965,19.026-12.581,24.501c4.951,3.558,11.018,5.661,17.58,5.661l0,0   c16.658,0,30.161-13.504,30.161-30.161V65.831C178.854,49.173,165.351,35.668,148.693,35.668z"/>
	<path style="fill:#FF9D00;" d="M209.015,35.668L209.015,35.668c-6.562,0-12.63,2.102-17.58,5.661   c7.616,5.475,12.581,14.405,12.581,24.501v380.339c0,10.096-4.965,19.026-12.581,24.501c4.951,3.558,11.018,5.661,17.58,5.661l0,0   c16.658,0,30.161-13.504,30.161-30.161V65.831C239.177,49.173,225.673,35.668,209.015,35.668z"/>
	<path style="fill:#FF9D00;" d="M269.338,35.668L269.338,35.668c-6.562,0-12.63,2.102-17.58,5.661   c7.616,5.475,12.581,14.405,12.581,24.501v380.339c0,10.095-4.965,19.026-12.581,24.501c4.951,3.558,11.018,5.661,17.58,5.661l0,0   c16.657,0,30.161-13.504,30.161-30.161V65.831C299.499,49.173,285.996,35.668,269.338,35.668z"/>
	<path style="fill:#FF9D00;" d="M329.66,35.668L329.66,35.668c-6.562,0-12.63,2.102-17.58,5.661   c7.616,5.475,12.581,14.405,12.581,24.501v380.339c0,10.096-4.965,19.026-12.581,24.501c4.95,3.558,11.018,5.661,17.58,5.661l0,0   c16.658,0,30.161-13.504,30.161-30.161V65.831C359.822,49.173,346.318,35.668,329.66,35.668z"/>
	<path style="fill:#FF9D00;" d="M389.983,35.668L389.983,35.668c-6.562,0-12.63,2.102-17.58,5.661   c7.616,5.475,12.581,14.405,12.581,24.501v380.339c0,10.095-4.965,19.026-12.581,24.501c4.951,3.558,11.018,5.661,17.58,5.661l0,0   c16.657,0,30.161-13.504,30.161-30.161V65.831C420.144,49.173,406.641,35.668,389.983,35.668z"/>
	<path style="fill:#FF9D00;" d="M450.306,35.668c-6.562,0-12.63,2.102-17.58,5.661c7.616,5.475,12.581,14.405,12.581,24.501v380.339   c0,10.095-4.965,19.026-12.581,24.501c4.951,3.558,11.018,5.661,17.58,5.661c16.657,0,30.161-13.504,30.161-30.161V65.831   C480.467,49.173,466.963,35.668,450.306,35.668z"/>
</g>
<path style="fill:#FF8B00;" d="M10.801,476.331h66.394c5.965,0,10.801-4.836,10.801-10.801V46.47  c0-5.965-4.836-10.801-10.801-10.801H10.801C4.836,35.668,0,40.505,0,46.47v419.06C0,471.495,4.836,476.331,10.801,476.331z"/>
<path style="fill:#FF6900;" d="M77.194,35.668h-35.16c5.965,0,10.801,4.836,10.801,10.801v419.06  c0,5.965-4.836,10.801-10.801,10.801h35.16c5.965,0,10.801-4.836,10.801-10.801V46.47C87.995,40.505,83.16,35.668,77.194,35.668z"/>
<path style="fill:#FFDE3E;" d="M60.912,112.641H27.083c-2.403,0-4.351-1.948-4.351-4.351V74.46c0-2.403,1.948-4.351,4.351-4.351  h33.829c2.403,0,4.351,1.948,4.351,4.351v33.829C65.263,110.693,63.315,112.641,60.912,112.641z"/>
<g>
</g>
<g>
</g>
<g>
</g>
<g>
</g>
<g>
</g>
<g>
</g>
<g>
</g>
<g>
</g>
<g>
</g>
<g>
</g>
<g>
</g>
<g>
</g>
<g>
</g>
<g>
</g>
<g>
</g>
</svg>
