<?xml version="1.0" encoding="iso-8859-1"?>
<!-- Generator: Adobe Illustrator 19.0.0, SVG Export Plug-In . SVG Version: 6.00 Build 0)  -->
<svg xmlns="http://www.w3.org/2000/svg" xmlns:xlink="http://www.w3.org/1999/xlink" version="1.1" id="Capa_1" x="0px" y="0px" viewBox="0 0 512 512" style="enable-background:new 0 0 512 512;" xml:space="preserve">
<path style="fill:#0072A2;" d="M403.112,481.584H108.886V7.689c0-4.247,3.443-7.689,7.689-7.689h278.847  c4.247,0,7.689,3.443,7.689,7.689v473.895H403.112z"/>
<path style="fill:#006289;" d="M395.424,0h-34.536c4.247,0,7.69,3.443,7.69,7.69v473.894h34.536V7.69  C403.112,3.443,399.669,0,395.424,0z"/>
<path style="fill:#A0D860;" d="M144.105,481.584V40.391c0-4.783,3.878-8.661,8.661-8.661h206.467c4.783,0,8.661,3.878,8.661,8.661  v441.193L144.105,481.584L144.105,481.584z"/>
<path style="fill:#61C979;" d="M359.232,31.73h-25.626c4.783,0,8.661,3.878,8.661,8.661v441.193h25.627V40.391  C367.893,35.608,364.016,31.73,359.232,31.73z"/>
<g>
	<path style="fill:#F7F9F9;" d="M237.246,173.253h-58.778c-2.906,0-5.262-2.356-5.262-5.262V66.977c0-2.906,2.356-5.262,5.262-5.262   h58.778c2.906,0,5.262,2.356,5.262,5.262v101.014C242.508,170.897,240.152,173.253,237.246,173.253z"/>
	<path style="fill:#F7F9F9;" d="M333.531,173.253h-58.778c-2.906,0-5.262-2.356-5.262-5.262V66.977c0-2.906,2.356-5.262,5.262-5.262   h58.778c2.906,0,5.262,2.356,5.262,5.262v101.014C338.792,170.897,336.437,173.253,333.531,173.253z"/>
	<path style="fill:#F7F9F9;" d="M237.246,313.043h-58.778c-2.906,0-5.262-2.356-5.262-5.262V206.768   c0-2.906,2.356-5.262,5.262-5.262h58.778c2.906,0,5.262,2.356,5.262,5.262v101.014   C242.508,310.687,240.152,313.043,237.246,313.043z"/>
	<path style="fill:#F7F9F9;" d="M333.531,313.043h-58.778c-2.906,0-5.262-2.356-5.262-5.262V206.768   c0-2.906,2.356-5.262,5.262-5.262h58.778c2.906,0,5.262,2.356,5.262,5.262v101.014   C338.792,310.687,336.437,313.043,333.531,313.043z"/>
	<path style="fill:#F7F9F9;" d="M237.246,452.834h-58.778c-2.906,0-5.262-2.356-5.262-5.262V346.558   c0-2.906,2.356-5.262,5.262-5.262h58.778c2.906,0,5.262,2.356,5.262,5.262v101.014   C242.508,450.478,240.152,452.834,237.246,452.834z"/>
	<path style="fill:#F7F9F9;" d="M333.531,452.834h-58.778c-2.906,0-5.262-2.356-5.262-5.262V346.558   c0-2.906,2.356-5.262,5.262-5.262h58.778c2.906,0,5.262,2.356,5.262,5.262v101.014   C338.792,450.478,336.437,452.834,333.531,452.834z"/>
</g>
<g>
	<path style="fill:#E4E4E4;" d="M333.529,61.715h-25.642c2.906,0,5.262,2.356,5.262,5.262v101.014c0,2.906-2.356,5.262-5.262,5.262   h25.642c2.906,0,5.262-2.356,5.262-5.262V66.977C338.792,64.071,336.437,61.715,333.529,61.715z"/>
	<path style="fill:#E4E4E4;" d="M333.529,201.506h-25.642c2.906,0,5.262,2.356,5.262,5.262v101.014c0,2.906-2.356,5.262-5.262,5.262   h25.642c2.906,0,5.262-2.356,5.262-5.262V206.768C338.792,203.862,336.437,201.506,333.529,201.506z"/>
	<path style="fill:#E4E4E4;" d="M333.529,341.296h-25.642c2.906,0,5.262,2.356,5.262,5.262v101.014c0,2.906-2.356,5.262-5.262,5.262   h25.642c2.906,0,5.262-2.356,5.262-5.262V346.558C338.792,343.652,336.437,341.296,333.529,341.296z"/>
	<path style="fill:#E4E4E4;" d="M237.246,61.715h-25.642c2.906,0,5.262,2.356,5.262,5.262v101.014c0,2.906-2.356,5.262-5.262,5.262   h25.642c2.906,0,5.262-2.356,5.262-5.262V66.977C242.508,64.071,240.152,61.715,237.246,61.715z"/>
	<path style="fill:#E4E4E4;" d="M237.246,201.506h-25.642c2.906,0,5.262,2.356,5.262,5.262v101.014c0,2.906-2.356,5.262-5.262,5.262   h25.642c2.906,0,5.262-2.356,5.262-5.262V206.768C242.508,203.862,240.152,201.506,237.246,201.506z"/>
	<path style="fill:#E4E4E4;" d="M237.246,341.296h-25.642c2.906,0,5.262,2.356,5.262,5.262v101.014c0,2.906-2.356,5.262-5.262,5.262   h25.642c2.906,0,5.262-2.356,5.262-5.262V346.558C242.508,343.652,240.152,341.296,237.246,341.296z"/>
</g>
<path style="fill:#D96B37;" d="M432.867,512H79.132c-1.925,0-3.485-1.56-3.485-3.485V482.22c0-1.925,1.56-3.485,3.485-3.485h353.737  c1.925,0,3.485,1.56,3.485,3.485v26.295C436.354,510.44,434.792,512,432.867,512z"/>
<path style="fill:#B14418;" d="M432.867,478.734h-31.051V512h31.051c1.925,0,3.485-1.56,3.485-3.485V482.22  C436.354,480.295,434.792,478.734,432.867,478.734z"/>
<g>
</g>
<g>
</g>
<g>
</g>
<g>
</g>
<g>
</g>
<g>
</g>
<g>
</g>
<g>
</g>
<g>
</g>
<g>
</g>
<g>
</g>
<g>
</g>
<g>
</g>
<g>
</g>
<g>
</g>
</svg>
