<?xml version="1.0" encoding="iso-8859-1"?>
<!-- Generator: Adobe Illustrator 19.0.0, SVG Export Plug-In . SVG Version: 6.00 Build 0)  -->
<svg xmlns="http://www.w3.org/2000/svg" xmlns:xlink="http://www.w3.org/1999/xlink" version="1.1" id="Capa_1" x="0px" y="0px" viewBox="0 0 512.001 512.001" style="enable-background:new 0 0 512.001 512.001;" xml:space="preserve">
<path style="fill:#61C979;" d="M194.545,166.802l-52.25,102.729c-35.727,13.406-82.575,30.952-106.628,39.502V345.2  c7.094-2.142,24.923-8.682,124.916-46.215c4.071-1.528,7.402-4.558,9.307-8.467l60.441-114.377L194.545,166.802z"/>
<path style="fill:#FFB427;" d="M450.13,196.613l-30.989,118.773c24.627-1.556,47.407-20.979,54.755-49.143  C481.244,238.08,470.858,210.003,450.13,196.613z"/>
<path style="fill:#0072A2;" d="M19.935,497.899H0V309.763h19.935c10.483,0,18.98,8.498,18.98,18.98v150.176  C38.916,489.401,30.418,497.899,19.935,497.899z"/>
<path style="fill:#006289;" d="M19.935,309.762h-7.543v169.156c0,8.162-5.162,15.101-12.392,17.781v1.199h19.935  c10.483,0,18.98-8.498,18.98-18.98V328.743C38.916,318.26,30.418,309.762,19.935,309.762z"/>
<path style="fill:#0072A2;" d="M247.303,249.979l-64.72-16.886c-10.989-2.867-17.572-14.099-14.705-25.088l1.721-6.595  l104.513,27.269l-1.721,6.595C269.523,246.262,258.291,252.846,247.303,249.979z"/>
<path style="fill:#006289;" d="M248.438,221.98l-3.584,13.293c-1.319,5.057-4.423,9.163-8.447,11.863l10.896,2.843  c10.989,2.867,22.221-3.717,25.088-14.705l1.721-6.595L248.438,221.98z"/>
<path style="fill:#A0D860;" d="M407.251,265.533L89.346,182.588c-10.54-2.75-16.855-13.524-14.105-24.064l27.064-103.728  c2.75-10.54,13.524-16.855,24.064-14.105l317.905,82.945c5.798,1.513,9.272,7.439,7.759,13.237l-31.544,120.9  C418.975,263.572,413.049,267.046,407.251,265.533z"/>
<path style="fill:#61C979;" d="M444.273,123.636l-12.111-3.16l-28.457,109.067c-1.513,5.798-7.439,9.272-13.237,7.759  l-314.38-82.025l-0.847,3.247c-2.75,10.54,3.565,21.314,14.105,24.064l317.905,82.945c5.798,1.513,11.725-1.961,13.237-7.759  l31.544-120.9C453.545,131.075,450.071,125.149,444.273,123.636z"/>
<path style="fill:#FF8B00;" d="M374.776,137.628l68.551,17.886c17.883,4.666,36.919,0.405,51.107-11.44l14.731-12.298  c4.922-4.109,3.141-12.062-3.062-13.681L110.25,14.812c-11.648-3.039-23.554,3.94-26.593,15.587L67.088,93.905  c-2.326,8.915,3.015,18.028,11.931,20.354l191.121,49.865c18.557,4.842,38.302-0.158,52.318-13.248l0,0  C336.474,137.786,356.219,132.786,374.776,137.628z"/>
<path style="fill:#FF6900;" d="M506.102,118.095l-16.146-4.213l-5.41,4.516c-14.188,11.845-33.223,16.106-51.107,11.44  l-68.551-17.886c-18.558-4.842-38.302,0.158-52.318,13.248l0,0c-14.016,13.09-33.761,18.09-52.318,13.248L69.131,88.584  c-0.207-0.054-0.402-0.13-0.605-0.191l-1.438,5.512c-2.326,8.915,3.015,18.028,11.931,20.354l191.121,49.865  c18.558,4.842,38.302-0.158,52.318-13.248l0,0c14.016-13.09,33.761-18.09,52.318-13.248l68.551,17.886  c17.883,4.666,36.919,0.405,51.107-11.44l14.731-12.298C514.086,127.666,512.306,119.713,506.102,118.095z"/>
<g>
</g>
<g>
</g>
<g>
</g>
<g>
</g>
<g>
</g>
<g>
</g>
<g>
</g>
<g>
</g>
<g>
</g>
<g>
</g>
<g>
</g>
<g>
</g>
<g>
</g>
<g>
</g>
<g>
</g>
</svg>
