<?xml version="1.0" encoding="iso-8859-1"?>
<!-- Generator: Adobe Illustrator 19.0.0, SVG Export Plug-In . SVG Version: 6.00 Build 0)  -->
<svg xmlns="http://www.w3.org/2000/svg" xmlns:xlink="http://www.w3.org/1999/xlink" version="1.1" id="Capa_1" x="0px" y="0px" viewBox="0 0 512 512" style="enable-background:new 0 0 512 512;" xml:space="preserve">
<path style="fill:#D96B37;" d="M166.438,512H65.105c-19.698,0-35.666-15.968-35.666-35.666V35.666C29.438,15.968,45.407,0,65.105,0  h101.333c19.698,0,35.666,15.968,35.666,35.666v440.667C202.104,496.032,186.136,512,166.438,512z"/>
<path style="fill:#B14418;" d="M166.438,0H132.26c19.698,0,35.666,15.968,35.666,35.666v440.667  c0,19.698-15.968,35.666-35.666,35.666h34.178c19.698,0,35.666-15.968,35.666-35.666V35.666C202.104,15.968,186.136,0,166.438,0z"/>
<path style="fill:#775146;" d="M139.801,355.195c0-18.897-21.813-32.7-41.634-17.601c-11.264,14.802-6.433,30.674,4.583,37.793  v47.856c11.484,13.069,26.042,5.105,26.042-6.259v-41.597C135.414,371.107,139.801,363.666,139.801,355.195z"/>
<path style="fill:#FFB427;" d="M458.009,110.466c0,0-327.955-20.378-330.02-20.378c-25.676,0-46.49,20.814-46.49,46.49  s20.814,46.49,46.49,46.49c2.065,0,330.02-20.378,330.02-20.378c13.797-0.85,24.552-12.289,24.552-26.112l0,0  C482.561,122.755,471.806,111.317,458.009,110.466z"/>
<path style="fill:#FF9D00;" d="M482.164,132.093c0.001-0.006,0.001-0.012,0.002-0.018c-0.824-4.742-2.922-9.06-5.946-12.569  c-4.453,5.179-10.899,8.614-18.212,9.064c0,0-327.955,20.378-330.02,20.378c-19.654,0-36.44-12.205-43.24-29.442  c-1.563,3.955-2.606,8.171-3.029,12.572c0,0.005,0.001,0.011,0.001,0.016c-0.144,1.476-0.222,2.971-0.222,4.485  c0,6.419,1.301,12.534,3.653,18.096c0.882,2.086,1.912,4.094,3.077,6.011c3.883,6.39,9.263,11.77,15.653,15.653  c7.029,4.271,15.281,6.73,24.107,6.73c2.065,0,330.02-20.378,330.02-20.378c3.881-0.239,7.52-1.316,10.748-3.048  c0.359-0.192,0.712-0.393,1.06-0.601c0.553-0.331,1.089-0.687,1.615-1.057c0.618-0.435,1.215-0.895,1.792-1.38  c0.327-0.275,0.648-0.559,0.961-0.849c1.618-1.502,3.05-3.2,4.245-5.064c0.218-0.34,0.429-0.686,0.631-1.036  c2.228-3.855,3.499-8.325,3.499-13.077C482.561,135.049,482.418,133.552,482.164,132.093z"/>
<g>
</g>
<g>
</g>
<g>
</g>
<g>
</g>
<g>
</g>
<g>
</g>
<g>
</g>
<g>
</g>
<g>
</g>
<g>
</g>
<g>
</g>
<g>
</g>
<g>
</g>
<g>
</g>
<g>
</g>
</svg>
