<?xml version="1.0" encoding="iso-8859-1"?>
<!-- Generator: Adobe Illustrator 19.0.0, SVG Export Plug-In . SVG Version: 6.00 Build 0)  -->
<svg xmlns="http://www.w3.org/2000/svg" xmlns:xlink="http://www.w3.org/1999/xlink" version="1.1" id="Capa_1" x="0px" y="0px" viewBox="0 0 512 512" style="enable-background:new 0 0 512 512;" xml:space="preserve">
<path style="fill:#FFB427;" d="M395.914,464.671h-30.51v-54.132h30.51c2.82,0,5.106,2.286,5.106,5.106v43.92  C401.02,462.384,398.734,464.671,395.914,464.671z"/>
<circle style="fill:#FF4D4A;" cx="483.96" cy="201.773" r="28.04"/>
<path style="fill:#0072A2;" d="M483.961,229.814c-4.724,0-9.173-1.174-13.078-3.237l-9.465,161.073  c-1.278,21.829-19.408,38.929-41.275,38.929H401.02v24.026h19.123c34.574,0,63.24-27.037,65.26-61.551l9.517-161.463  C491.553,229.021,487.85,229.814,483.961,229.814z"/>
<path style="fill:#FF8B00;" d="M41.113,391.884V472c0,6.714,5.443,12.157,12.157,12.157h306.854c6.714,0,12.157-5.443,12.157-12.157  v-80.116c0-5.69-4.612-10.302-10.302-10.302H51.416C45.726,381.582,41.113,386.195,41.113,391.884z"/>
<path style="fill:#FF6900;" d="M338.369,381.582v62.513c0,6.714-5.443,12.157-12.157,12.157H41.114v15.749  c0,0.463,0.03,0.918,0.082,1.367c0.011,0.099,0.031,0.195,0.045,0.293c0.051,0.362,0.111,0.72,0.193,1.071  c0.018,0.078,0.04,0.154,0.06,0.231c0.097,0.381,0.208,0.756,0.339,1.121c0.014,0.038,0.028,0.076,0.042,0.115  c0.153,0.41,0.323,0.812,0.517,1.201c0.486,0.977,1.101,1.879,1.82,2.686c0.002,0.002,0.004,0.004,0.006,0.007  c0.036,0.04,0.072,0.079,0.108,0.118c0.501,0.547,1.054,1.043,1.644,1.492c0.083,0.063,0.166,0.127,0.251,0.187  c0.154,0.11,0.311,0.218,0.47,0.321c0.073,0.047,0.15,0.09,0.224,0.136c0.078,0.047,0.155,0.096,0.234,0.142  c0.189,0.111,0.379,0.217,0.574,0.318c0.217,0.111,0.436,0.219,0.66,0.318c0.125,0.055,0.253,0.106,0.38,0.157  c0.221,0.088,0.445,0.17,0.672,0.246c0.105,0.035,0.209,0.073,0.316,0.105c0.157,0.048,0.32,0.082,0.479,0.123  c0.174,0.045,0.345,0.097,0.521,0.134c0.084,0.018,0.17,0.03,0.254,0.046c0.28,0.053,0.562,0.096,0.848,0.13  c0.103,0.012,0.205,0.024,0.308,0.033c0.366,0.033,0.735,0.056,1.11,0.056h306.854c0.003,0,0.007,0,0.01,0  c0.477,0,0.945-0.035,1.407-0.089c0.147-0.017,0.291-0.044,0.437-0.067c0.32-0.049,0.636-0.108,0.947-0.181  c0.158-0.037,0.315-0.077,0.47-0.121c0.307-0.086,0.607-0.185,0.904-0.293c0.133-0.049,0.269-0.093,0.4-0.146  c0.416-0.169,0.824-0.355,1.216-0.568c0.003-0.001,0.005-0.003,0.008-0.004c0.392-0.213,0.768-0.453,1.133-0.707  c0.115-0.08,0.224-0.167,0.336-0.251c0.249-0.186,0.492-0.38,0.725-0.584c0.117-0.103,0.233-0.208,0.346-0.314  c0.226-0.213,0.441-0.436,0.65-0.666c0.094-0.103,0.191-0.203,0.281-0.309c0.288-0.339,0.563-0.69,0.812-1.059  c0.196-0.291,0.376-0.593,0.547-0.901c0.051-0.091,0.098-0.185,0.147-0.278c0.121-0.232,0.235-0.467,0.341-0.707  c0.043-0.096,0.086-0.192,0.127-0.29c0.135-0.329,0.261-0.662,0.368-1.005c0,0,0.001-0.002,0.001-0.003  c0.106-0.342,0.193-0.692,0.269-1.046c0.023-0.105,0.041-0.211,0.061-0.317c0.05-0.265,0.09-0.533,0.123-0.803  c0.013-0.109,0.027-0.218,0.038-0.329c0.034-0.369,0.056-0.741,0.056-1.119l0,0v-80.116c0-5.69-4.612-10.302-10.302-10.302h-23.614  V381.582z"/>
<circle style="fill:#FF4D4A;" cx="206.7" cy="234.542" r="206.7"/>
<path style="fill:#E13F33;" d="M399.057,158.754c-2.468-6.258-5.232-12.367-8.275-18.309c-4.565-8.913-9.759-17.451-15.522-25.555  c-1.921-2.701-3.905-5.355-5.951-7.958c-4.091-5.206-8.427-10.211-12.99-14.997c-37.645-39.484-90.76-64.088-149.622-64.088  c-0.005,0-0.011,0-0.016,0c-1.257,0-2.506,0.037-3.757,0.062c-0.187-0.004-0.376-0.003-0.563-0.007  c-4.311,0.089-8.589,0.311-12.831,0.66c106.191,8.658,189.676,97.56,189.676,205.982S295.72,431.868,189.529,440.526  c4.242,0.349,8.52,0.571,12.831,0.66c0.187-0.004,0.376-0.003,0.563-0.007c1.251,0.024,2.5,0.061,3.757,0.062  c0.005,0,0.011,0,0.016,0c58.862,0,111.976-24.604,149.622-64.088c4.563-4.786,8.899-9.791,12.99-14.997  c2.046-2.603,4.03-5.256,5.951-7.958c5.763-8.104,10.957-16.642,15.522-25.555c3.043-5.942,5.808-12.051,8.275-18.309  c9.254-23.467,14.337-49.035,14.337-75.791S408.311,182.221,399.057,158.754z"/>
<circle style="fill:#FFB427;" cx="207.72" cy="234.542" r="166.36"/>
<circle style="fill:#FF4D4A;" cx="206.7" cy="234.542" r="49.32"/>
<path style="fill:#E13F33;" d="M206.697,185.219c-4.297,0-8.464,0.552-12.438,1.584c21.219,5.513,36.887,24.796,36.887,47.74  s-15.667,42.227-36.887,47.74c3.974,1.032,8.141,1.584,12.438,1.584c27.241,0,49.324-22.083,49.324-49.324  S233.938,185.219,206.697,185.219z"/>
<g>
</g>
<g>
</g>
<g>
</g>
<g>
</g>
<g>
</g>
<g>
</g>
<g>
</g>
<g>
</g>
<g>
</g>
<g>
</g>
<g>
</g>
<g>
</g>
<g>
</g>
<g>
</g>
<g>
</g>
</svg>
