<?xml version="1.0" encoding="iso-8859-1"?>
<!-- Generator: Adobe Illustrator 16.0.0, SVG Export Plug-In . SVG Version: 6.00 Build 0)  -->
<!DOCTYPE svg PUBLIC "-//W3C//DTD SVG 1.1//EN" "http://www.w3.org/Graphics/SVG/1.1/DTD/svg11.dtd">
<svg version="1.1" id="Capa_1" xmlns="http://www.w3.org/2000/svg" xmlns:xlink="http://www.w3.org/1999/xlink" x="0px" y="0px"
	 width="65.559px" height="65.559px" viewBox="0 0 65.559 65.559" style="enable-background:new 0 0 65.559 65.559;"
	 xml:space="preserve">
<g>
	<path d="M59.859,22.028H13.831v-3.411c0-1.367,0.738-2.274,1.227-2.274h6.515c0.489,0,1.227,0.907,1.227,2.274
		c0,1.256,1.018,2.274,2.274,2.274s2.273-1.019,2.273-2.274c0-3.761-2.59-6.821-5.773-6.821h-6.516
		c-3.184,0-5.773,3.061-5.773,6.821v3.411H5.7c-3.144,0-5.7,2.357-5.7,5.257c0,2.538,1.961,4.662,4.559,5.149
		c0.473,0.205,0.979,0.347,1.51,0.405l3.095,14.366c0.14,3.642,3.144,6.558,6.815,6.558H49.58c3.642,0,6.625-2.865,6.812-6.46
		l4.367-14.769c0.074-0.027,0.142-0.066,0.212-0.099c2.612-0.479,4.588-2.605,4.588-5.153
		C65.558,24.386,63.001,22.028,59.859,22.028z M51.854,46.614v0.328c0,1.255-1.021,2.272-2.273,2.272H15.978
		c-1.254,0-2.274-1.021-2.274-2.272v-0.241l-3.049-14.158h45.358L51.854,46.614z M59.859,27.995h-0.342H6.04H5.698
		c-0.648,0-1.152-0.382-1.152-0.71s0.504-0.71,1.152-0.71h54.16c0.648,0,1.152,0.382,1.152,0.71S60.507,27.995,59.859,27.995z"/>
</g>
<g>
</g>
<g>
</g>
<g>
</g>
<g>
</g>
<g>
</g>
<g>
</g>
<g>
</g>
<g>
</g>
<g>
</g>
<g>
</g>
<g>
</g>
<g>
</g>
<g>
</g>
<g>
</g>
<g>
</g>
</svg>
