<?xml version="1.0" encoding="iso-8859-1"?>
<!-- Generator: Adobe Illustrator 16.0.0, SVG Export Plug-In . SVG Version: 6.00 Build 0)  -->
<!DOCTYPE svg PUBLIC "-//W3C//DTD SVG 1.1//EN" "http://www.w3.org/Graphics/SVG/1.1/DTD/svg11.dtd">
<svg version="1.1" id="Capa_1" xmlns="http://www.w3.org/2000/svg" xmlns:xlink="http://www.w3.org/1999/xlink" x="0px" y="0px"
	 width="62.264px" height="62.264px" viewBox="0 0 62.264 62.264" style="enable-background:new 0 0 62.264 62.264;"
	 xml:space="preserve">
<g>
	<g>
		<path d="M61.66,35.285L47.844,21.467v-9.112c0-1.136-0.92-2.056-2.057-2.056c-1.135,0-2.055,0.92-2.055,2.056v5.001l-9.748-9.747
			c-0.805-0.803-2.104-0.803-2.908,0L18.325,20.362c-0.803,0.802-0.803,2.104,0,2.907c0.803,0.803,2.104,0.803,2.906,0
			l11.301-11.301L58.758,38.19c0.399,0.4,0.928,0.604,1.45,0.604c0.527,0,1.056-0.201,1.453-0.604
			C62.465,37.39,62.465,36.087,61.66,35.285z"/>
		<path d="M55.782,37.644L33.987,15.849c-0.388-0.386-0.91-0.603-1.455-0.603s-1.065,0.217-1.453,0.603l-8.375,8.375
			c5.544,2.764,9.515,8.214,10.199,14.648c1.694,0.338,2.961,1.834,2.961,3.604v7.812c0,1.252,0.469,2.449,1.321,3.373
			c0.938,1.014,2.269,1.596,3.646,1.596h10.64c2.737,0,4.97-2.229,4.97-4.969V39.651c0-0.312-0.028-0.629-0.091-0.94
			C56.268,38.306,56.073,37.935,55.782,37.644z"/>
		<path d="M15.564,24.128C6.968,24.128,0,31.097,0,39.692c0,8.597,6.969,15.564,15.564,15.564c8.595,0,15.564-6.969,15.564-15.564
			S24.16,24.128,15.564,24.128z M20.986,41.481c1.004,1.002,1.003,2.631,0,3.633c-1.004,1.005-2.63,1.005-3.634,0l-1.788-1.786
			l-1.788,1.786c-1.004,1.005-2.63,1.005-3.634,0c-1.004-1.004-1.004-2.631,0-3.633l1.787-1.789l-1.787-1.789
			c-1.004-1.002-1.004-2.629,0-3.633c1.004-1.002,2.63-1.002,3.634,0l1.788,1.789l1.788-1.789c1.003-1.002,2.63-1.002,3.634,0
			c1.004,1.004,1.003,2.631,0,3.633l-1.788,1.789L20.986,41.481z"/>
	</g>
</g>
<g>
</g>
<g>
</g>
<g>
</g>
<g>
</g>
<g>
</g>
<g>
</g>
<g>
</g>
<g>
</g>
<g>
</g>
<g>
</g>
<g>
</g>
<g>
</g>
<g>
</g>
<g>
</g>
<g>
</g>
</svg>
