<?xml version="1.0" encoding="iso-8859-1"?>
<!-- Generator: Adobe Illustrator 16.0.0, SVG Export Plug-In . SVG Version: 6.00 Build 0)  -->
<!DOCTYPE svg PUBLIC "-//W3C//DTD SVG 1.1//EN" "http://www.w3.org/Graphics/SVG/1.1/DTD/svg11.dtd">
<svg version="1.1" id="Capa_1" xmlns="http://www.w3.org/2000/svg" xmlns:xlink="http://www.w3.org/1999/xlink" x="0px" y="0px"
	 width="54.264px" height="54.264px" viewBox="0 0 54.264 54.264" style="enable-background:new 0 0 54.264 54.264;"
	 xml:space="preserve">
<g>
	<path d="M48.559,0c-0.416,0-0.806,0.102-1.15,0.278L4.586,15.845c-0.012,0.007-0.023,0.014-0.036,0.021
		c-0.046,0.023-0.091,0.049-0.136,0.075c-0.031,0.019-0.061,0.036-0.091,0.056c-0.036,0.023-0.071,0.049-0.106,0.073
		c-0.035,0.025-0.07,0.051-0.104,0.077c-0.028,0.022-0.054,0.046-0.08,0.068c-0.037,0.033-0.073,0.064-0.107,0.098
		c-0.022,0.022-0.043,0.046-0.065,0.069c-0.035,0.036-0.069,0.073-0.102,0.111c-0.021,0.025-0.041,0.052-0.062,0.078
		c-0.028,0.037-0.058,0.074-0.084,0.113c-0.022,0.032-0.043,0.066-0.063,0.1c-0.021,0.035-0.043,0.068-0.063,0.104
		c-0.023,0.04-0.042,0.082-0.063,0.124c-0.015,0.03-0.031,0.061-0.044,0.091c-0.021,0.046-0.038,0.093-0.055,0.141
		c-0.011,0.029-0.022,0.059-0.033,0.088c-0.015,0.046-0.028,0.093-0.041,0.141c-0.009,0.033-0.018,0.067-0.026,0.103
		c-0.01,0.041-0.017,0.084-0.024,0.127c-0.007,0.042-0.014,0.084-0.02,0.127c-0.004,0.035-0.006,0.071-0.01,0.107
		c-0.004,0.05-0.007,0.102-0.008,0.152c0,0.014-0.001,0.027-0.001,0.042V51.62c0,1.401,1.139,2.543,2.543,2.543h42.154
		c0.223,0.062,0.457,0.101,0.699,0.101c1.403,0,2.543-1.14,2.543-2.543V2.544C51.102,1.14,49.962,0,48.559,0z M16.154,49.076
		c0.748-0.334,1.271-1.082,1.271-1.955v-0.432c0.129,0.014,0.258,0.021,0.39,0.021h19.281c0.133,0,0.262-0.009,0.391-0.021v0.432
		c0,0.873,0.523,1.619,1.271,1.955H16.154z M36.662,33.074H17.814c-0.073,0-0.141,0.018-0.213,0.021v-1.584
		c0-2.203,1.815-4.864,4.071-4.864h10.917c2.257,0,4.072,2.661,4.072,4.864L36.662,33.074L36.662,33.074z M37.977,39.059
		c0,1.256-1.019,2.272-2.271,2.272s-2.271-1.019-2.271-2.272c0-1.252,1.019-2.271,2.271-2.271S37.977,37.805,37.977,39.059z
		 M18.561,36.786c1.255,0,2.273,1.019,2.273,2.271c0,1.256-1.018,2.271-2.273,2.271s-2.273-1.018-2.273-2.271
		C16.287,37.805,17.305,36.786,18.561,36.786z M46.016,49.076h-5.515c0.748-0.334,1.271-1.082,1.271-1.953v-4.631
		c0-0.053-0.012-0.102-0.018-0.15c0.008-0.104,0.018-0.201,0.018-0.305v-4.285c0-0.979-0.303-1.891-0.817-2.643h0.617
		c0.562-0.002,1.018-0.455,1.018-1.018c0-0.563-0.457-1.019-1.018-1.019h-2.57V31.51c0-3.398-2.741-7.202-6.41-7.202H21.674
		c-3.668,0-6.409,3.803-6.409,7.202v1.563h-2.571c-0.562,0-1.017,0.455-1.017,1.019c0,0.562,0.456,1.018,1.017,1.018h1.265
		c-0.516,0.752-0.818,1.66-0.818,2.643v4.285c0,0.104,0.008,0.201,0.015,0.305c-0.004,0.051-0.015,0.1-0.015,0.15v4.631
		c0,0.871,0.522,1.619,1.27,1.953H8.25v-29.36L46.016,6.287V49.076z"/>
</g>
<g>
</g>
<g>
</g>
<g>
</g>
<g>
</g>
<g>
</g>
<g>
</g>
<g>
</g>
<g>
</g>
<g>
</g>
<g>
</g>
<g>
</g>
<g>
</g>
<g>
</g>
<g>
</g>
<g>
</g>
</svg>
