<?xml version="1.0" encoding="iso-8859-1"?>
<!-- Generator: Adobe Illustrator 16.0.0, SVG Export Plug-In . SVG Version: 6.00 Build 0)  -->
<!DOCTYPE svg PUBLIC "-//W3C//DTD SVG 1.1//EN" "http://www.w3.org/Graphics/SVG/1.1/DTD/svg11.dtd">
<svg version="1.1" id="Capa_1" xmlns="http://www.w3.org/2000/svg" xmlns:xlink="http://www.w3.org/1999/xlink" x="0px" y="0px"
	 width="46.367px" height="46.367px" viewBox="0 0 46.367 46.367" style="enable-background:new 0 0 46.367 46.367;"
	 xml:space="preserve">
<g>
	<path d="M35.778,41.003c-0.088-4.154-5.098-7.433-11.643-7.726v-2.41h7.998c2.609,0,4.734-1.987,4.734-4.432
		c0-1.988-1.402-3.674-3.334-4.234c0.242-0.52,0.383-1.088,0.395-1.686l1.646-15.932c0.006-0.049,0.009-0.098,0.009-0.146
		C35.584,1.99,33.456,0,30.842,0h-15.32c-2.615,0-4.743,1.99-4.743,4.438c0,0.049,0.004,0.098,0.008,0.146l1.648,15.932
		c0.011,0.598,0.15,1.167,0.392,1.686c-1.929,0.561-3.333,2.246-3.333,4.234c0,2.443,2.124,4.432,4.735,4.432h7.997v2.41
		c-6.544,0.293-11.553,3.57-11.641,7.726c-1.207,0.362-2.08,1.396-2.08,2.612c0,1.521,1.357,2.752,3.033,2.752
		c1.674,0,3.031-1.231,3.031-2.752c0-1.217-0.867-2.246-2.071-2.61c0.101-2.996,4.425-5.535,9.728-5.812v5.812
		c-1.205,0.362-2.076,1.396-2.076,2.608c0,1.521,1.357,2.754,3.033,2.754s3.033-1.231,3.033-2.754c0-1.217-0.871-2.246-2.076-2.608
		v-5.812c5.305,0.273,9.625,2.812,9.729,5.812c-1.202,0.364-2.069,1.396-2.069,2.608c0,1.521,1.356,2.754,3.03,2.754
		c1.677,0,3.033-1.231,3.033-2.754C37.858,42.396,36.985,41.365,35.778,41.003z M15.52,2.868h15.321
		c1.008,0,1.834,0.672,1.871,1.509l-1.643,15.91c-0.004,0.049-0.01,0.099-0.01,0.147c0,0.864-0.84,1.569-1.871,1.569H17.175
		c-1.033,0-1.873-0.703-1.873-1.569c0-0.049-0.003-0.099-0.008-0.147l-1.645-15.91C13.686,3.54,14.511,2.868,15.52,2.868z
		 M14.228,27.998c-1.03,0.001-1.868-0.7-1.868-1.562c0-0.861,0.838-1.562,1.868-1.562h2.946h12.015h2.945
		c1.027,0,1.867,0.699,1.867,1.562c0,0.861-0.84,1.562-1.867,1.562H14.228z"/>
</g>
<g>
</g>
<g>
</g>
<g>
</g>
<g>
</g>
<g>
</g>
<g>
</g>
<g>
</g>
<g>
</g>
<g>
</g>
<g>
</g>
<g>
</g>
<g>
</g>
<g>
</g>
<g>
</g>
<g>
</g>
</svg>
