<?xml version="1.0" encoding="iso-8859-1"?>
<!-- Generator: Adobe Illustrator 16.0.0, SVG Export Plug-In . SVG Version: 6.00 Build 0)  -->
<!DOCTYPE svg PUBLIC "-//W3C//DTD SVG 1.1//EN" "http://www.w3.org/Graphics/SVG/1.1/DTD/svg11.dtd">
<svg version="1.1" id="Capa_1" xmlns="http://www.w3.org/2000/svg" xmlns:xlink="http://www.w3.org/1999/xlink" x="0px" y="0px"
	 width="47.776px" height="47.775px" viewBox="0 0 47.776 47.775" style="enable-background:new 0 0 47.776 47.775;"
	 xml:space="preserve">
<g>
	<g>
		<path d="M23.887,0C15.551,0,8.77,6.782,8.77,15.117c0,3.833,2.295,7.704,4.514,11.45c1.057,1.784,2.149,3.629,2.928,5.377
			c0.389,0.877,0.557,3.957,0.572,5.692c0.004,0.541,0.444,0.979,0.986,0.979h12.236c0.541,0,0.98-0.438,0.986-0.979
			c0.016-1.863,0.203-4.863,0.569-5.692c0.777-1.749,1.871-3.595,2.929-5.377c2.22-3.744,4.515-7.617,4.515-11.449
			C39.004,6.783,32.223,0,23.887,0z M30.764,21.233c-0.41,1.646-1.389,2.821-2.195,3.552c0.438,1.99,0.562,4.213-0.232,6.109
			c-0.143,0.336-0.415,0.572-0.735,0.678c-0.269,0.089-0.562,0.084-0.84-0.033c-0.614-0.258-0.899-0.964-0.646-1.576
			c0.51-1.212,0.475-2.734,0.194-4.224c-3.969-0.271-6.672-1.63-8.006-4.071c-2.97-5.439,2.062-14.073,2.279-14.438
			c0.156-0.266,0.453-0.417,0.759-0.391c0.308,0.026,0.573,0.227,0.683,0.516c0.729,1.924,1.755,2.541,3.053,3.323
			c1.267,0.762,2.699,1.626,4.098,3.755C30.753,16.841,31.288,19.129,30.764,21.233z"/>
		<path d="M16.698,42.807c0,2.179,1.766,3.941,3.944,3.941c0,0.568,0.348,1.027,0.776,1.027h4.938c0.43,0,0.776-0.459,0.776-1.027
			c2.178,0,3.942-1.766,3.942-3.941v-2.959H16.698V42.807z M26.35,41.202h2.609c0.566,0,1.027,0.461,1.027,1.026
			c0,0.564-0.459,1.025-1.027,1.025H26.35c-0.568,0-1.027-0.46-1.027-1.025S25.782,41.202,26.35,41.202z"/>
	</g>
</g>
<g>
</g>
<g>
</g>
<g>
</g>
<g>
</g>
<g>
</g>
<g>
</g>
<g>
</g>
<g>
</g>
<g>
</g>
<g>
</g>
<g>
</g>
<g>
</g>
<g>
</g>
<g>
</g>
<g>
</g>
</svg>
