<?xml version="1.0" encoding="iso-8859-1"?>
<!-- Generator: Adobe Illustrator 16.0.0, SVG Export Plug-In . SVG Version: 6.00 Build 0)  -->
<!DOCTYPE svg PUBLIC "-//W3C//DTD SVG 1.1//EN" "http://www.w3.org/Graphics/SVG/1.1/DTD/svg11.dtd">
<svg version="1.1" id="Capa_1" xmlns="http://www.w3.org/2000/svg" xmlns:xlink="http://www.w3.org/1999/xlink" x="0px" y="0px"
	 width="72.627px" height="72.627px" viewBox="0 0 72.627 72.627" style="enable-background:new 0 0 72.627 72.627;"
	 xml:space="preserve">
<g>
	<g>
		<path d="M72.024,39.34L58.206,25.523V16.41c0-1.135-0.92-2.055-2.058-2.055c-1.136,0-2.057,0.92-2.057,2.055v5.002l-9.747-9.747
			c-0.804-0.804-2.104-0.804-2.906,0L22.965,30.141l1.617,4.195l18.312-18.312l26.225,26.223c0.4,0.399,0.928,0.604,1.452,0.604
			c0.525,0,1.052-0.201,1.453-0.604C72.828,41.445,72.828,40.143,72.024,39.34z"/>
		<path d="M66.144,41.7L44.349,19.904c-0.387-0.386-0.909-0.603-1.454-0.603c-0.544,0-1.066,0.217-1.453,0.603L25.531,35.815
			l7.382,0.397c2.142,0.116,4.026,1.564,4.688,3.604c0.662,2.039-0.011,4.32-1.677,5.671l-6.035,4.901l2.002,7.518
			c0.123,0.465,0.176,0.938,0.168,1.404h2.537c1.377,0,2.706-0.582,3.645-1.599c0.854-0.922,1.324-2.118,1.324-3.37V46.53
			c0-1.896,1.453-3.479,3.33-3.659c1.878,0.18,3.331,1.764,3.331,3.659v7.812c0,1.252,0.47,2.448,1.322,3.37
			c0.938,1.017,2.269,1.599,3.646,1.599h10.638c2.739,0,4.972-2.229,4.972-4.969V43.707c0-0.312-0.031-0.629-0.095-0.941
			C66.63,42.36,66.434,41.99,66.144,41.7z"/>
		<path d="M26.587,49.319l7.501-6.095c0.742-0.604,1.036-1.601,0.741-2.508c-0.295-0.908-1.12-1.543-2.074-1.595l-9.649-0.521
			l-3.477-9.019c-0.345-0.892-1.201-1.48-2.158-1.48c-0.955,0-1.812,0.589-2.156,1.48l-3.479,9.019l-9.648,0.521
			c-0.956,0.052-1.779,0.687-2.075,1.595c-0.296,0.909-0.001,1.906,0.741,2.508l7.5,6.095l-2.486,9.338
			c-0.246,0.924,0.102,1.903,0.876,2.466c0.403,0.294,0.881,0.441,1.358,0.441c0.438,0,0.874-0.122,1.257-0.37l8.112-5.251
			l8.112,5.251c0.803,0.52,1.844,0.489,2.615-0.07c0.773-0.562,1.123-1.542,0.877-2.467L26.587,49.319z"/>
	</g>
</g>
<g>
</g>
<g>
</g>
<g>
</g>
<g>
</g>
<g>
</g>
<g>
</g>
<g>
</g>
<g>
</g>
<g>
</g>
<g>
</g>
<g>
</g>
<g>
</g>
<g>
</g>
<g>
</g>
<g>
</g>
</svg>
