<?xml version="1.0" encoding="iso-8859-1"?>
<!-- Generator: Adobe Illustrator 16.0.0, SVG Export Plug-In . SVG Version: 6.00 Build 0)  -->
<!DOCTYPE svg PUBLIC "-//W3C//DTD SVG 1.1//EN" "http://www.w3.org/Graphics/SVG/1.1/DTD/svg11.dtd">
<svg version="1.1" id="Capa_1" xmlns="http://www.w3.org/2000/svg" xmlns:xlink="http://www.w3.org/1999/xlink" x="0px" y="0px"
	 width="51.508px" height="51.508px" viewBox="0 0 51.508 51.508" style="enable-background:new 0 0 51.508 51.508;"
	 xml:space="preserve">
<g>
	<g>
		<path d="M18.104,42.319h15.299c2.959,0,5.363-2.406,5.363-5.363v-6.062c0-2.957-2.404-5.364-5.363-5.364H18.104
			c-2.958,0-5.364,2.407-5.364,5.364v6.062C12.741,39.912,15.146,42.319,18.104,42.319z M16.316,30.895
			c0-0.985,0.803-1.787,1.789-1.787h15.298c0.984,0,1.789,0.802,1.789,1.787v6.062c0,0.983-0.805,1.787-1.789,1.787H18.104
			c-0.986,0-1.789-0.804-1.789-1.787V30.895z"/>
		<path d="M47.211,16.342h-3.575c-0.987,0-1.789,0.801-1.789,1.789v29.8H9.662v-29.8c0-0.987-0.801-1.789-1.789-1.789H4.297
			c-0.987,0-1.787,0.801-1.787,1.789c0,0.986,0.8,1.788,1.787,1.788h1.789v29.8c0,0.988,0.8,1.789,1.787,1.789h35.763
			c0.985,0,1.787-0.801,1.787-1.789v-29.8h1.788c0.986,0,1.787-0.802,1.787-1.788C48.998,17.142,48.197,16.342,47.211,16.342z"/>
		<circle cx="18.154" cy="18.851" r="1.689"/>
		<circle cx="23.221" cy="18.851" r="1.689"/>
		<circle cx="28.287" cy="18.851" r="1.688"/>
		<circle cx="33.353" cy="18.851" r="1.689"/>
		<path d="M14.529,24.55h22.448c0.658,0,1.193-0.533,1.193-1.192c0-0.658-0.535-1.191-1.193-1.191H14.529
			c-0.658,0-1.192,0.533-1.192,1.191C13.337,24.016,13.871,24.55,14.529,24.55z"/>
		<path d="M25.4,15.197h15.198c0.004,0.002,0.01,0.002,0.012,0c0.658,0,1.191-0.532,1.191-1.19c0-0.06-0.004-0.12-0.016-0.177
			c-0.014-1.266-0.188-2.477-0.486-3.613c1.006-0.818,1.646-2.062,1.646-3.457c0-2.457-2-4.457-4.457-4.457
			c-0.938,0-1.808,0.292-2.521,0.787c-0.569-0.271-1.162-0.475-1.775-0.586V1.192C34.191,0.533,33.656,0,33,0
			c-0.659,0-1.192,0.533-1.192,1.192v1.312c-1.584,0.286-3.034,1.129-4.235,2.379l-1.056-1.055c-0.465-0.466-1.219-0.466-1.687,0
			c-0.465,0.466-0.465,1.22,0,1.685l1.285,1.286c-1.19,1.982-1.907,4.484-1.907,7.208C24.208,14.665,24.742,15.197,25.4,15.197z
			 M38.492,4.091c1.472,0,2.668,1.197,2.668,2.669c0,0.582-0.19,1.117-0.508,1.556c-0.715-1.662-1.723-3.071-2.938-4.097
			C37.962,4.143,38.22,4.091,38.492,4.091z"/>
	</g>
</g>
<g>
</g>
<g>
</g>
<g>
</g>
<g>
</g>
<g>
</g>
<g>
</g>
<g>
</g>
<g>
</g>
<g>
</g>
<g>
</g>
<g>
</g>
<g>
</g>
<g>
</g>
<g>
</g>
<g>
</g>
</svg>
