<?xml version="1.0" encoding="iso-8859-1"?>
<!-- Generator: Adobe Illustrator 16.0.0, SVG Export Plug-In . SVG Version: 6.00 Build 0)  -->
<!DOCTYPE svg PUBLIC "-//W3C//DTD SVG 1.1//EN" "http://www.w3.org/Graphics/SVG/1.1/DTD/svg11.dtd">
<svg version="1.1" id="Capa_1" xmlns="http://www.w3.org/2000/svg" xmlns:xlink="http://www.w3.org/1999/xlink" x="0px" y="0px"
	 width="71.133px" height="71.133px" viewBox="0 0 71.133 71.133" style="enable-background:new 0 0 71.133 71.133;"
	 xml:space="preserve">
<g>
	<g>
		<path d="M70.529,38.978L56.714,25.16v-9.112c0-1.136-0.92-2.056-2.058-2.056c-1.135,0-2.055,0.92-2.055,2.056v5.001l-9.748-9.747
			c-0.803-0.804-2.104-0.804-2.906,0L19.244,32.003c1.604-0.522,3.15-0.792,4.623-0.792c0.634,0,1.246,0.05,1.836,0.146L41.4,15.66
			l26.224,26.224c0.401,0.4,0.928,0.604,1.452,0.604c0.525,0,1.054-0.201,1.453-0.604C71.335,41.083,71.335,39.78,70.529,38.978z"/>
		<path d="M64.648,41.336L42.854,19.542c-0.387-0.385-0.908-0.602-1.453-0.602s-1.067,0.217-1.453,0.602L27.623,31.866
			c4.438,1.646,7.227,6.299,7.227,12.596c0,6.104-5.461,11.174-10.344,14.488h8.597c1.377,0,2.705-0.58,3.644-1.597
			c0.854-0.923,1.323-2.12,1.323-3.372v-7.812c0-1.896,1.453-3.479,3.332-3.658c1.877,0.18,3.33,1.764,3.33,3.658v7.812
			c0,1.252,0.471,2.449,1.322,3.372c0.938,1.015,2.268,1.597,3.646,1.597h10.638c2.739,0,4.972-2.229,4.972-4.969v-10.64
			c0-0.312-0.031-0.629-0.095-0.94C65.135,41.999,64.939,41.628,64.648,41.336z"/>
		<path d="M31.936,44.462c0-8.815-6.076-13.636-15.968-7.747C4.919,31.34,0,35.645,0,44.462c0,8.819,15.968,15.972,15.968,15.972
			S31.936,53.281,31.936,44.462z"/>
	</g>
</g>
<g>
</g>
<g>
</g>
<g>
</g>
<g>
</g>
<g>
</g>
<g>
</g>
<g>
</g>
<g>
</g>
<g>
</g>
<g>
</g>
<g>
</g>
<g>
</g>
<g>
</g>
<g>
</g>
<g>
</g>
</svg>
