<?xml version="1.0" encoding="iso-8859-1"?>
<!-- Generator: Adobe Illustrator 16.0.0, SVG Export Plug-In . SVG Version: 6.00 Build 0)  -->
<!DOCTYPE svg PUBLIC "-//W3C//DTD SVG 1.1//EN" "http://www.w3.org/Graphics/SVG/1.1/DTD/svg11.dtd">
<svg version="1.1" id="Capa_1" xmlns="http://www.w3.org/2000/svg" xmlns:xlink="http://www.w3.org/1999/xlink" x="0px" y="0px"
	 width="69.607px" height="69.608px" viewBox="0 0 69.607 69.608" style="enable-background:new 0 0 69.607 69.608;"
	 xml:space="preserve">
<g>
	<g>
		<path d="M69.004,35.983L55.188,22.165l0,0l-0.001-0.001v-9.11h0.001c0-1.137-0.921-2.057-2.058-2.057
			c-1.135,0-2.055,0.92-2.055,2.057v5L41.33,8.307c-0.804-0.805-2.104-0.805-2.908,0L23.948,22.781
			c-0.803,0.804-0.803,2.104,0,2.908c0.802,0.802,2.104,0.802,2.906,0l13.021-13.023L66.1,38.891
			c0.398,0.398,0.927,0.603,1.451,0.603c0.527,0,1.054-0.201,1.453-0.603C69.809,38.086,69.809,36.786,69.004,35.983z"/>
		<path d="M63.125,38.343L41.329,16.546c-0.385-0.386-0.908-0.602-1.453-0.602s-1.065,0.216-1.453,0.602L27.278,27.692
			c0.034-0.001,0.066-0.009,0.102-0.009c0.626,0,1.234,0.179,1.76,0.518c0.833,0.535,1.371,1.407,1.476,2.394l0.006,0.047
			l0.16-0.003c0.948,0,1.848,0.408,2.466,1.123c0.648,0.749,0.919,1.736,0.743,2.711l-0.009,0.048l0.046,0.011
			c0.959,0.244,1.746,0.901,2.159,1.803c0.411,0.9,0.393,1.926-0.052,2.812l-0.021,0.043l0.042,0.023
			c0.604,0.355,1.061,0.892,1.329,1.521c0.601-0.671,1.439-1.123,2.394-1.213c1.877,0.178,3.33,1.761,3.33,3.658v7.812
			c0,1.252,0.473,2.448,1.323,3.371c0.938,1.016,2.267,1.598,3.646,1.598h10.637c2.737,0,4.969-2.229,4.969-4.969v-10.64
			c-0.001-0.312-0.031-0.629-0.093-0.941C63.612,39.002,63.415,38.634,63.125,38.343z"/>
		<path d="M33.512,44.265l0.958-1.027c0.37-0.398,0.543-0.943,0.466-1.482c-0.079-0.535-0.396-1.014-0.864-1.291l-1.209-0.717
			l0.63-1.256c0.244-0.486,0.254-1.059,0.028-1.555c-0.228-0.495-0.665-0.86-1.193-0.996l-1.361-0.346l0.25-1.385
			c0.098-0.535-0.054-1.087-0.41-1.499c-0.355-0.409-0.879-0.636-1.425-0.617l-1.404,0.05l-0.149-1.397
			c-0.058-0.541-0.357-1.026-0.816-1.32c-0.458-0.296-1.023-0.366-1.542-0.194l-1.332,0.445l-0.537-1.3
			c-0.209-0.504-0.633-0.886-1.155-1.039c-0.523-0.151-1.087-0.062-1.534,0.25l-1.154,0.803l-0.882-1.096
			c-0.342-0.424-0.856-0.671-1.4-0.671c-0.546,0-1.06,0.247-1.4,0.671l-0.883,1.096l-1.154-0.804
			c-0.446-0.311-1.011-0.4-1.532-0.248c-0.523,0.152-0.949,0.534-1.156,1.038l-0.537,1.3l-1.333-0.445
			c-0.517-0.172-1.084-0.102-1.541,0.194c-0.458,0.294-0.758,0.779-0.816,1.32l-0.149,1.397l-1.405-0.05
			c-0.54-0.016-1.068,0.208-1.425,0.617c-0.355,0.412-0.507,0.964-0.41,1.499l0.251,1.385l-1.361,0.346
			c-0.528,0.135-0.967,0.501-1.192,0.996c-0.227,0.497-0.217,1.065,0.026,1.555l0.631,1.256l-1.209,0.717
			c-0.469,0.277-0.786,0.756-0.864,1.291c-0.077,0.539,0.094,1.084,0.465,1.482l0.959,1.027l-0.959,1.026
			c-0.371,0.397-0.542,0.942-0.465,1.481c0.078,0.54,0.396,1.015,0.864,1.292l1.209,0.717L1.46,50.038
			c-0.243,0.486-0.253,1.062-0.026,1.557c0.226,0.492,0.664,0.859,1.192,0.994l1.361,0.348L3.736,54.32
			c-0.097,0.536,0.055,1.088,0.41,1.498c0.357,0.412,0.882,0.641,1.425,0.619l1.406-0.051l0.148,1.396
			c0.059,0.543,0.359,1.027,0.816,1.321c0.459,0.295,1.024,0.364,1.542,0.191l1.333-0.442l0.536,1.299
			c0.209,0.506,0.634,0.887,1.156,1.038c0.522,0.153,1.086,0.062,1.534-0.249l1.153-0.803l0.882,1.095
			c0.342,0.425,0.856,0.672,1.401,0.672c0.544,0,1.06-0.245,1.4-0.67l0.882-1.097l1.154,0.803c0.446,0.312,1.01,0.401,1.534,0.249
			c0.521-0.151,0.946-0.532,1.155-1.038l0.537-1.299l1.333,0.442c0.517,0.174,1.083,0.104,1.542-0.191
			c0.458-0.294,0.758-0.778,0.816-1.321l0.149-1.396l1.404,0.051c0.539,0.02,1.068-0.207,1.425-0.619
			c0.356-0.41,0.508-0.962,0.41-1.498l-0.251-1.384l1.362-0.348c0.528-0.135,0.966-0.5,1.193-0.994
			c0.226-0.495,0.215-1.067-0.028-1.555l-0.631-1.258l1.21-0.717c0.468-0.277,0.786-0.753,0.863-1.292
			c0.076-0.538-0.095-1.083-0.467-1.479L33.512,44.265z M10.809,45.33c-2.875,0-4.179-2.006-4.179-4.252v-1.158
			c0-2.485,1.16-4.396,4.179-4.396s4.152,1.908,4.152,4.396v1.158C14.961,43.324,13.659,45.33,10.809,45.33z M14.987,52.088
			c-0.725,1.476-1.088,1.619-1.739,1.619c-0.628,0-1.159-0.651-1.159-1.017c0-0.218,0.097-0.53,0.314-0.967l7.558-15.286
			c0.726-1.475,1.088-1.618,1.74-1.618c0.628,0,1.159,0.652,1.159,1.015c0,0.218-0.097,0.531-0.314,0.967L14.987,52.088z
			 M28.318,48.756c0,2.244-1.304,4.25-4.153,4.25c-2.874,0-4.179-2.004-4.179-4.25v-1.158c0-2.487,1.159-4.396,4.179-4.396
			c3.019,0,4.153,1.906,4.153,4.396V48.756z"/>
		<path d="M10.809,37.551c-1.159,0-1.281,1.279-1.281,2.875c0,1.594,0.121,2.871,1.281,2.871c1.135,0,1.256-1.277,1.256-2.871
			C12.065,38.832,11.944,37.551,10.809,37.551z"/>
		<path d="M24.165,45.232c-1.159,0-1.281,1.279-1.281,2.874s0.12,2.873,1.281,2.873c1.135,0,1.256-1.278,1.256-2.873
			C25.42,46.511,25.299,45.232,24.165,45.232z"/>
	</g>
</g>
<g>
</g>
<g>
</g>
<g>
</g>
<g>
</g>
<g>
</g>
<g>
</g>
<g>
</g>
<g>
</g>
<g>
</g>
<g>
</g>
<g>
</g>
<g>
</g>
<g>
</g>
<g>
</g>
<g>
</g>
</svg>
