<?xml version="1.0" encoding="iso-8859-1"?>
<!-- Generator: Adobe Illustrator 16.0.0, SVG Export Plug-In . SVG Version: 6.00 Build 0)  -->
<!DOCTYPE svg PUBLIC "-//W3C//DTD SVG 1.1//EN" "http://www.w3.org/Graphics/SVG/1.1/DTD/svg11.dtd">
<svg version="1.1" id="Capa_1" xmlns="http://www.w3.org/2000/svg" xmlns:xlink="http://www.w3.org/1999/xlink" x="0px" y="0px"
	 width="56.588px" height="56.588px" viewBox="0 0 56.588 56.588" style="enable-background:new 0 0 56.588 56.588;"
	 xml:space="preserve">
<g>
	<g>
		<path d="M50.994,33.863l-9.727-7.488v-7.804c0-0.957-0.774-1.732-1.73-1.732c-0.957,0-1.731,0.775-1.731,1.732v5.137l-8.454-6.509
			c-0.624-0.479-1.491-0.479-2.112,0L5.594,33.863c-0.757,0.584-0.899,1.67-0.315,2.43c0.583,0.758,1.671,0.896,2.428,0.314
			l1.902-1.467v19.719c0,0.955,0.775,1.729,1.731,1.729h33.693c0.956,0,1.73-0.773,1.73-1.729V34.975l2.117,1.633
			c0.314,0.24,0.688,0.357,1.057,0.357c0.52,0,1.033-0.23,1.373-0.675C51.894,35.531,51.751,34.445,50.994,33.863z M43.299,53.126
			H13.07V32.475l15.223-11.722l15.006,11.555V53.126z"/>
		<path d="M19.561,16.232c2.889,0,5.418-1.515,6.857-3.787h14.398c2.391,0,4.33-1.938,4.33-4.329c-0.002-2.391-1.94-4.33-4.332-4.33
			h-2.067l-1.488,1.936L35.77,3.786h-0.082l-1.487,1.936l-1.484-1.936h-0.225L30.97,5.722l-1.489-1.936h-3.062
			C24.981,1.513,22.452,0,19.562,0c-4.482,0-8.116,3.634-8.116,8.116C11.444,12.597,15.079,16.232,19.561,16.232z M16.5,5.804
			c1.278,0,2.313,1.035,2.313,2.313c0,1.276-1.035,2.312-2.313,2.312c-1.277,0-2.312-1.036-2.312-2.312
			C14.188,6.839,15.224,5.804,16.5,5.804z"/>
	</g>
</g>
<g>
</g>
<g>
</g>
<g>
</g>
<g>
</g>
<g>
</g>
<g>
</g>
<g>
</g>
<g>
</g>
<g>
</g>
<g>
</g>
<g>
</g>
<g>
</g>
<g>
</g>
<g>
</g>
<g>
</g>
</svg>
