<?xml version="1.0" encoding="iso-8859-1"?>
<!-- Generator: Adobe Illustrator 16.0.0, SVG Export Plug-In . SVG Version: 6.00 Build 0)  -->
<!DOCTYPE svg PUBLIC "-//W3C//DTD SVG 1.1//EN" "http://www.w3.org/Graphics/SVG/1.1/DTD/svg11.dtd">
<svg version="1.1" id="Capa_1" xmlns="http://www.w3.org/2000/svg" xmlns:xlink="http://www.w3.org/1999/xlink" x="0px" y="0px"
	 width="68.273px" height="68.273px" viewBox="0 0 68.273 68.273" style="enable-background:new 0 0 68.273 68.273;"
	 xml:space="preserve">
<g>
	<g>
		<path d="M67.671,35.315L53.854,21.5v-9.113c0-1.135-0.921-2.056-2.057-2.056c-1.137,0-2.057,0.921-2.057,2.056v5.002l-9.748-9.749
			c-0.804-0.802-2.104-0.802-2.906,0L22.614,22.114c-0.804,0.803-0.804,2.104,0,2.907c0.801,0.803,2.104,0.803,2.905,0L38.541,12
			l26.225,26.223c0.399,0.401,0.928,0.603,1.45,0.603c0.527,0,1.055-0.2,1.455-0.603C68.475,37.421,68.475,36.119,67.671,35.315z"/>
		<path d="M61.791,37.677L39.996,15.88c-0.387-0.386-0.908-0.603-1.453-0.603s-1.066,0.217-1.455,0.603L25.943,27.023
			c0.035,0,0.068-0.008,0.103-0.008c0.625,0,1.234,0.179,1.759,0.518c0.834,0.535,1.371,1.407,1.478,2.393l0.005,0.048l0.159-0.004
			c0.949,0,1.848,0.409,2.467,1.123c0.647,0.749,0.918,1.737,0.742,2.711l-0.008,0.047l0.046,0.013
			c0.959,0.242,1.746,0.9,2.157,1.803c0.411,0.899,0.395,1.925-0.051,2.811l-0.022,0.043l0.043,0.024
			c0.603,0.356,1.062,0.891,1.329,1.519c0.601-0.671,1.439-1.122,2.394-1.213c1.877,0.179,3.33,1.763,3.33,3.659v7.812
			c0,1.252,0.473,2.45,1.324,3.374c0.938,1.016,2.268,1.598,3.645,1.598h10.642c2.738,0,4.969-2.229,4.969-4.972V39.683
			c-0.004-0.312-0.033-0.628-0.095-0.942C62.277,38.337,62.082,37.967,61.791,37.677z"/>
		<path d="M34.94,41.09c-0.077-0.537-0.396-1.015-0.862-1.291l-1.211-0.714l0.631-1.259c0.244-0.485,0.254-1.057,0.027-1.553
			c-0.227-0.495-0.664-0.86-1.191-0.995l-1.363-0.35l0.252-1.383c0.098-0.535-0.054-1.087-0.41-1.498
			c-0.355-0.411-0.88-0.638-1.425-0.62l-1.405,0.052l-0.15-1.398c-0.057-0.541-0.357-1.027-0.814-1.321
			c-0.459-0.296-1.025-0.366-1.542-0.193l-1.334,0.444l-0.537-1.299c-0.208-0.504-0.633-0.885-1.154-1.039
			c-0.523-0.152-1.088-0.061-1.534,0.25l-1.154,0.803l-0.881-1.096c-0.342-0.424-0.857-0.671-1.402-0.671
			c-0.544,0-1.06,0.247-1.4,0.671L15.2,27.726l-1.154-0.803c-0.448-0.31-1.012-0.401-1.534-0.248s-0.947,0.534-1.155,1.038
			l-0.537,1.299l-1.333-0.444c-0.517-0.173-1.083-0.103-1.541,0.193c-0.458,0.294-0.759,0.779-0.816,1.321l-0.15,1.397l-1.409-0.052
			c-0.539-0.015-1.068,0.208-1.425,0.62c-0.356,0.411-0.508,0.961-0.41,1.498l0.251,1.383l-1.362,0.347
			c-0.528,0.135-0.966,0.5-1.192,0.996c-0.227,0.495-0.216,1.066,0.027,1.553l0.631,1.257l-1.21,0.719
			c-0.468,0.275-0.786,0.752-0.863,1.291s0.094,1.084,0.465,1.48l0.958,1.026l-0.958,1.029c-0.371,0.396-0.542,0.94-0.465,1.48
			c0.078,0.539,0.396,1.014,0.863,1.291l1.21,0.717L1.46,49.373c-0.243,0.484-0.254,1.06-0.027,1.554s0.664,0.858,1.192,0.994
			l1.362,0.349l-0.251,1.383c-0.098,0.535,0.054,1.087,0.41,1.498c0.357,0.412,0.881,0.639,1.425,0.619l1.406-0.052l0.148,1.396
			c0.058,0.542,0.358,1.027,0.816,1.322s1.024,0.363,1.542,0.191l1.333-0.442l0.536,1.299c0.208,0.503,0.634,0.885,1.156,1.037
			c0.521,0.153,1.086,0.062,1.533-0.248l1.154-0.804l0.882,1.096c0.341,0.425,0.855,0.671,1.4,0.671c0.544,0,1.06-0.246,1.401-0.671
			l0.881-1.096l1.154,0.804c0.448,0.312,1.011,0.399,1.534,0.248c0.522-0.152,0.947-0.534,1.156-1.037l0.537-1.299l1.333,0.442
			c0.517,0.172,1.082,0.104,1.541-0.192c0.458-0.294,0.759-0.779,0.816-1.322l0.149-1.396l1.404,0.052
			c0.539,0.018,1.069-0.208,1.426-0.62c0.355-0.411,0.507-0.962,0.409-1.498l-0.25-1.383l1.362-0.348
			c0.527-0.137,0.967-0.5,1.192-0.996c0.226-0.494,0.216-1.065-0.026-1.555l-0.632-1.257l1.21-0.717
			c0.469-0.277,0.785-0.753,0.863-1.292c0.08-0.536-0.09-1.081-0.461-1.479l-0.959-1.029l0.959-1.026
			C34.847,42.175,35.018,41.629,34.94,41.09z M7.566,40.795c0-0.815,0.598-1.371,1.415-1.371c1.196,0,1.341,1.529,2.99,1.529
			c0.687,0,1.298-0.23,1.298-0.876c0-0.422-0.306-0.598-0.919-0.771l-2.231-0.645c-1.679-0.479-2.598-1.473-2.598-2.944
			c0-1.752,1.168-3.399,4.085-3.399c1.941,0,4.45,0.467,4.45,2.231c0,0.815-0.628,1.328-1.459,1.328
			c-1.123,0-1.138-1.284-2.802-1.284c-0.568,0-1.093,0.219-1.093,0.7c0,0.467,0.408,0.671,1.123,0.859l1.735,0.467
			c1.765,0.481,2.976,1.3,2.976,3.122c0,2.494-2.145,3.574-4.361,3.574C8.645,43.316,7.566,41.741,7.566,40.795z M15.414,54.883
			h-4.96c-1.298,0-1.911-0.602-1.911-2v-6.887c0-1.121,0.643-1.809,1.679-1.809c1.035,0,1.677,0.685,1.677,1.809v6.172h3.516
			c0.86,0,1.444,0.494,1.444,1.356C16.858,54.384,16.274,54.883,15.414,54.883z M17.4,41.901c0-0.479,0.277-1.255,0.525-1.954
			l2.232-6.215c0.321-0.876,0.76-1.357,1.605-1.357h1.05c0.847,0,1.283,0.481,1.604,1.357l2.232,6.215
			c0.248,0.699,0.525,1.475,0.525,1.954c0,0.788-0.773,1.357-1.532,1.357c-0.524,0-1.182-0.233-1.356-0.832l-0.234-0.773h-3.53
			l-0.232,0.773c-0.176,0.599-0.832,0.832-1.357,0.832C18.173,43.258,17.4,42.689,17.4,41.901z M25.978,54.883h-5.5
			c-1.299,0-1.911-0.602-1.911-2v-6.506c0-1.399,0.612-1.998,1.911-1.998h5.339c1.007,0,1.46,0.496,1.46,1.226
			c0,0.73-0.453,1.227-1.46,1.227h-3.896v1.473h3.123c1.007,0,1.458,0.496,1.458,1.227c0,0.731-0.451,1.228-1.458,1.228h-3.123
			v1.679h4.057c1.006,0,1.458,0.495,1.458,1.226C27.436,54.394,26.984,54.883,25.978,54.883z"/>
		<polygon points="22.301,35.716 22.273,35.716 21.134,39.552 23.44,39.552 		"/>
	</g>
</g>
<g>
</g>
<g>
</g>
<g>
</g>
<g>
</g>
<g>
</g>
<g>
</g>
<g>
</g>
<g>
</g>
<g>
</g>
<g>
</g>
<g>
</g>
<g>
</g>
<g>
</g>
<g>
</g>
<g>
</g>
</svg>
