<?xml version="1.0" encoding="iso-8859-1"?>
<!-- Generator: Adobe Illustrator 16.0.0, SVG Export Plug-In . SVG Version: 6.00 Build 0)  -->
<!DOCTYPE svg PUBLIC "-//W3C//DTD SVG 1.1//EN" "http://www.w3.org/Graphics/SVG/1.1/DTD/svg11.dtd">
<svg version="1.1" id="Capa_1" xmlns="http://www.w3.org/2000/svg" xmlns:xlink="http://www.w3.org/1999/xlink" x="0px" y="0px"
	 width="71.366px" height="71.366px" viewBox="0 0 71.366 71.366" style="enable-background:new 0 0 71.366 71.366;"
	 xml:space="preserve">
<g>
	<g>
		<path d="M50.63,37.416h1.638v-0.553c0-1.098,0.166-2.156,0.465-3.158l-7.687-7.688v-9.111c0-1.135-0.922-2.057-2.057-2.057
			c-1.137,0-2.057,0.922-2.057,2.057v5l-9.749-9.748c-0.803-0.801-2.105-0.801-2.907,0L0.603,39.835
			c-0.804,0.804-0.804,2.104,0,2.904c0.802,0.805,2.104,0.805,2.905,0l26.224-26.223L50.63,37.416z"/>
		<path d="M52.268,47.355l-18.929,0.012l-2.309,0.002c-1.607,0-3.033-0.768-3.943-1.953c-0.508-0.662-0.852-1.452-0.975-2.313
			c0.01-1.246,0.135-5.668,5.408-5.671l16.686-0.011L31.186,20.398c-0.387-0.385-0.909-0.602-1.453-0.602
			c-0.546,0-1.067,0.217-1.454,0.602L6.483,42.193c-0.291,0.291-0.486,0.662-0.564,1.066c-0.061,0.312-0.092,0.631-0.092,0.94
			v10.637c0,2.74,2.229,4.972,4.969,4.972h37.873c2.74,0,4.97-2.23,4.97-4.972v-1.592c-0.871-1.574-1.371-3.387-1.371-5.311V47.355z
			"/>
		<path d="M63.273,28.77c-4.463,0-8.095,3.631-8.095,8.094v3.465l-24.154,0.021c-1.136,0-2.056,0.92-2.055,2.055
			c0,1.139,0.922,2.057,2.057,2.057h0.001l24.149-0.018v3.498c0,4.463,3.632,8.094,8.095,8.094s8.095-3.631,8.095-8.094V36.863
			C71.366,32.4,67.735,28.77,63.273,28.77z M67.255,47.938c0,2.195-1.785,3.981-3.981,3.981c-2.195,0-3.981-1.786-3.981-3.981
			V36.863c0-2.197,1.786-3.984,3.981-3.984c2.194,0,3.981,1.787,3.981,3.984V47.938z"/>
	</g>
</g>
<g>
</g>
<g>
</g>
<g>
</g>
<g>
</g>
<g>
</g>
<g>
</g>
<g>
</g>
<g>
</g>
<g>
</g>
<g>
</g>
<g>
</g>
<g>
</g>
<g>
</g>
<g>
</g>
<g>
</g>
</svg>
