<?xml version="1.0" encoding="iso-8859-1"?>
<!-- Generator: Adobe Illustrator 16.0.0, SVG Export Plug-In . SVG Version: 6.00 Build 0)  -->
<!DOCTYPE svg PUBLIC "-//W3C//DTD SVG 1.1//EN" "http://www.w3.org/Graphics/SVG/1.1/DTD/svg11.dtd">
<svg version="1.1" id="Capa_1" xmlns="http://www.w3.org/2000/svg" xmlns:xlink="http://www.w3.org/1999/xlink" x="0px" y="0px"
	 width="58.702px" height="58.702px" viewBox="0 0 58.702 58.702" style="enable-background:new 0 0 58.702 58.702;"
	 xml:space="preserve">
<g>
	<g>
		<path d="M16.668,49.487c-2.541,0-4.609,2.065-4.609,4.606c0,2.543,2.067,4.608,4.609,4.608s4.61-2.065,4.61-4.608
			C21.278,51.553,19.21,49.487,16.668,49.487z M16.668,55.795c-0.936,0-1.698-0.764-1.698-1.699c0-0.937,0.762-1.696,1.698-1.696
			c0.937,0,1.699,0.762,1.699,1.696C18.368,55.031,17.605,55.795,16.668,55.795z"/>
		<path d="M33.298,49.487c-2.541,0-4.608,2.065-4.608,4.606c0,2.543,2.067,4.608,4.608,4.608s4.609-2.065,4.609-4.608
			C37.907,51.553,35.839,49.487,33.298,49.487z M33.298,55.795c-0.938,0-1.698-0.764-1.698-1.699c0-0.937,0.762-1.696,1.698-1.696
			c0.936,0,1.699,0.762,1.699,1.696C34.997,55.031,34.234,55.795,33.298,55.795z"/>
		<path d="M49.081,13.583H9.622c-1.072,0-1.941,0.87-1.941,1.941c0,0.718,0.391,1.343,0.97,1.679v27.37
			c-0.58,0.335-0.97,0.961-0.97,1.679c0,1.071,0.869,1.939,1.941,1.939H40.35c1.071,0,1.938-0.868,1.938-1.939
			c0-0.718-0.392-1.344-0.971-1.679V17.465h7.764c1.071,0,1.94-0.869,1.94-1.94C51.022,14.454,50.152,13.583,49.081,13.583z
			 M39.378,44.312h-0.002H10.59V17.465h28.788V44.312L39.378,44.312z"/>
		<path d="M15.28,12.938h19.406c1.072,0,1.941-0.868,1.941-1.94c0-1.071-0.869-1.94-1.941-1.94H15.28c-1.072,0-1.94,0.869-1.94,1.94
			C13.34,12.069,14.208,12.938,15.28,12.938z"/>
		<path d="M15.28,8.409h19.406c1.072,0,1.941-0.87,1.941-1.941c0-1.072-0.869-1.94-1.941-1.94H15.28c-1.072,0-1.94,0.868-1.94,1.94
			C13.34,7.539,14.208,8.409,15.28,8.409z"/>
		<path d="M15.28,3.881h19.406c1.072,0,1.941-0.87,1.941-1.941c0-1.072-0.869-1.94-1.941-1.94H15.28c-1.072,0-1.94,0.868-1.94,1.94
			C13.34,3.011,14.208,3.881,15.28,3.881z"/>
		<path d="M15.28,42.531h19.406c1.072,0,1.941-0.868,1.941-1.939V22.101H13.34v18.491C13.34,41.663,14.208,42.531,15.28,42.531z"/>
		<path d="M36.628,21.184c0-1.07-0.869-1.94-1.941-1.94H15.28c-1.072,0-1.94,0.87-1.94,1.94v0.217h23.288V21.184L36.628,21.184z"/>
	</g>
</g>
<g>
</g>
<g>
</g>
<g>
</g>
<g>
</g>
<g>
</g>
<g>
</g>
<g>
</g>
<g>
</g>
<g>
</g>
<g>
</g>
<g>
</g>
<g>
</g>
<g>
</g>
<g>
</g>
<g>
</g>
</svg>
