<?xml version="1.0" encoding="iso-8859-1"?>
<!-- Generator: Adobe Illustrator 16.0.0, SVG Export Plug-In . SVG Version: 6.00 Build 0)  -->
<!DOCTYPE svg PUBLIC "-//W3C//DTD SVG 1.1//EN" "http://www.w3.org/Graphics/SVG/1.1/DTD/svg11.dtd">
<svg version="1.1" id="Capa_1" xmlns="http://www.w3.org/2000/svg" xmlns:xlink="http://www.w3.org/1999/xlink" x="0px" y="0px"
	 width="59.464px" height="59.464px" viewBox="0 0 59.464 59.464" style="enable-background:new 0 0 59.464 59.464;"
	 xml:space="preserve">
<g>
	<g>
		<path d="M58.861,33.888l-13.816-13.82v-9.111c0-1.137-0.922-2.057-2.057-2.057s-2.057,0.92-2.057,2.057v5l-9.746-9.748
			c-0.804-0.801-2.105-0.801-2.908,0L0.603,33.888c-0.803,0.803-0.803,2.104,0,2.905c0.802,0.804,2.105,0.804,2.907,0L29.733,10.57
			l26.221,26.223c0.402,0.402,0.931,0.603,1.455,0.603s1.054-0.197,1.453-0.603C59.664,35.99,59.664,34.688,58.861,33.888z"/>
		<path d="M52.981,36.244L31.187,14.449c-0.387-0.385-0.91-0.602-1.453-0.602c-0.545,0-1.067,0.217-1.455,0.602L6.483,36.244
			c-0.291,0.291-0.487,0.662-0.565,1.065c-0.061,0.312-0.091,0.631-0.091,0.939v10.639c0,2.738,2.229,4.969,4.969,4.969H48.67
			c2.738,0,4.969-2.229,4.969-4.969V38.252c0-0.312-0.03-0.629-0.092-0.94C53.469,36.906,53.272,36.535,52.981,36.244z
			 M33.34,38.701v3.725c0,1.609-1.307,2.914-2.915,2.914H30c-1.608,0-2.914-1.305-2.914-2.914v-3.725
			c-0.769-0.787-1.244-1.861-1.244-3.05c0-2.413,1.957-4.37,4.37-4.37c2.415,0,4.37,1.957,4.37,4.37
			C34.584,36.84,34.108,37.914,33.34,38.701z"/>
	</g>
</g>
<g>
</g>
<g>
</g>
<g>
</g>
<g>
</g>
<g>
</g>
<g>
</g>
<g>
</g>
<g>
</g>
<g>
</g>
<g>
</g>
<g>
</g>
<g>
</g>
<g>
</g>
<g>
</g>
<g>
</g>
</svg>
