<?xml version="1.0" encoding="iso-8859-1"?>
<!-- Generator: Adobe Illustrator 16.0.0, SVG Export Plug-In . SVG Version: 6.00 Build 0)  -->
<!DOCTYPE svg PUBLIC "-//W3C//DTD SVG 1.1//EN" "http://www.w3.org/Graphics/SVG/1.1/DTD/svg11.dtd">
<svg version="1.1" id="Capa_1" xmlns="http://www.w3.org/2000/svg" xmlns:xlink="http://www.w3.org/1999/xlink" x="0px" y="0px"
	 width="41.686px" height="41.686px" viewBox="0 0 41.686 41.686" style="enable-background:new 0 0 41.686 41.686;"
	 xml:space="preserve">
<g>
	<path d="M34.427,12.655h-2.768C30.97,5.527,26.388,0,20.842,0c-5.543,0-10.125,5.528-10.815,12.655H7.26
		c-1.028,0-1.861,0.833-1.861,1.86v8.62v16.69c0,1.026,0.833,1.86,1.861,1.86h27.167c1.027,0,1.859-0.834,1.859-1.86V23.352v-8.836
		C36.286,13.488,35.452,12.655,34.427,12.655z M20.842,3.721c3.478,0,6.467,3.934,7.075,8.935H13.768
		C14.375,7.655,17.365,3.721,20.842,3.721z M32.564,37.967H9.121V25.62c0.019,0.004,0.039,0.007,0.059,0.015
		c0.875,0.197,1.856,0.359,2.752,0.359c0.2,0,0.379-0.021,0.562-0.035c0.008,0,0.018,0,0.025-0.001
		c0.135-0.012,0.27-0.024,0.396-0.047c0.199-0.028,0.393-0.065,0.569-0.118c0.897-0.264,1.874-0.826,3.007-1.48
		c1.336-0.771,3.166-1.824,4.268-1.824c0,0,0,0,0.002,0c0.521,0.021,1.096,0.42,1.498,1.035c0.66,1.014,0.734,2.375,0.203,3.738
		c-0.035,0.092-0.063,0.188-0.086,0.285c-0.08,0.383-0.436,2.369,0.713,3.787c0.633,0.784,1.59,1.217,2.695,1.217
		c0.188,0,0.393-0.014,0.604-0.039c0.274-0.035,0.539-0.094,0.785-0.17c1.729-0.547,2.729-2.123,2.586-4.209
		c-0.031-0.457-0.099-0.859-0.191-1.205c0.07-1,0.234-1.841,0.404-2.399c0.059-0.188,0.115-0.343,0.17-0.466
		c0.199,0.031,0.399,0.068,0.602,0.106c0.059,0.013,0.115,0.023,0.172,0.036c0.145,0.03,0.287,0.062,0.43,0.096
		c0.06,0.014,0.117,0.026,0.174,0.043c0.148,0.035,0.291,0.072,0.433,0.109c0.035,0.014,0.074,0.021,0.11,0.03
		c0.179,0.049,0.349,0.099,0.503,0.146V37.967z"/>
</g>
<g>
</g>
<g>
</g>
<g>
</g>
<g>
</g>
<g>
</g>
<g>
</g>
<g>
</g>
<g>
</g>
<g>
</g>
<g>
</g>
<g>
</g>
<g>
</g>
<g>
</g>
<g>
</g>
<g>
</g>
</svg>
