<?xml version="1.0" encoding="iso-8859-1"?>
<!-- Generator: Adobe Illustrator 16.0.0, SVG Export Plug-In . SVG Version: 6.00 Build 0)  -->
<!DOCTYPE svg PUBLIC "-//W3C//DTD SVG 1.1//EN" "http://www.w3.org/Graphics/SVG/1.1/DTD/svg11.dtd">
<svg version="1.1" id="Capa_1" xmlns="http://www.w3.org/2000/svg" xmlns:xlink="http://www.w3.org/1999/xlink" x="0px" y="0px"
	 width="48.119px" height="48.119px" viewBox="0 0 48.119 48.119" style="enable-background:new 0 0 48.119 48.119;"
	 xml:space="preserve">
<g>
	<path d="M46.088,11.731L25.081,0.272c-0.667-0.363-1.473-0.363-2.139,0L1.649,11.889c-0.022,0.012-0.039,0.03-0.06,0.044
		C1.458,12.01,1.336,12.1,1.223,12.201c-0.021,0.02-0.044,0.034-0.064,0.054c-0.125,0.122-0.232,0.26-0.326,0.408
		C0.81,12.7,0.792,12.74,0.77,12.78c-0.065,0.118-0.119,0.241-0.162,0.371c-0.016,0.048-0.032,0.096-0.045,0.145
		c-0.039,0.15-0.062,0.307-0.069,0.469c-0.001,0.019-0.008,0.037-0.008,0.057c0,0.003,0.001,0.008,0.001,0.011
		c0,0.006-0.002,0.012-0.002,0.019v19.132c0,1.23,1,2.229,2.233,2.229s2.233-0.999,2.233-2.229V17.728l16.826,9.767v18.391
		c0,1.233,1,2.233,2.233,2.233s2.233-1,2.233-2.233V27.494l16.93-9.826V32.98c0,1.231,1,2.23,2.232,2.23
		c1.23,0,2.23-0.999,2.23-2.23V13.85C47.639,12.854,46.985,12.021,46.088,11.731z M24.01,23.625L7.271,13.908l3.342-1.822
		l16.402,9.795L24.01,23.625z M31.437,19.315L15.167,9.602l2.025-1.105l16.5,9.509L31.437,19.315z M38.149,15.418L21.79,5.99
		l2.223-1.212l16.74,9.13L38.149,15.418z"/>
</g>
<g>
</g>
<g>
</g>
<g>
</g>
<g>
</g>
<g>
</g>
<g>
</g>
<g>
</g>
<g>
</g>
<g>
</g>
<g>
</g>
<g>
</g>
<g>
</g>
<g>
</g>
<g>
</g>
<g>
</g>
</svg>
