<?xml version="1.0" encoding="iso-8859-1"?>
<!-- Generator: Adobe Illustrator 16.0.0, SVG Export Plug-In . SVG Version: 6.00 Build 0)  -->
<!DOCTYPE svg PUBLIC "-//W3C//DTD SVG 1.1//EN" "http://www.w3.org/Graphics/SVG/1.1/DTD/svg11.dtd">
<svg version="1.1" id="Capa_1" xmlns="http://www.w3.org/2000/svg" xmlns:xlink="http://www.w3.org/1999/xlink" x="0px" y="0px"
	 width="70.074px" height="70.074px" viewBox="0 0 70.074 70.074" style="enable-background:new 0 0 70.074 70.074;"
	 xml:space="preserve">
<g>
	<path d="M30.466,21.792c0.383-2.577,2.581-4.551,5.262-4.551c2.676,0,4.873,1.979,5.26,4.551H30.466z M37.034,10.935h-2.619v5.089
		h2.619V10.935z M45.546,16.066l-1.853-1.85l-3.595,3.595l1.853,1.848L45.546,16.066z M31.355,17.544l-3.595-3.594l-1.85,1.852
		l3.593,3.595L31.355,17.544z M49.308,41.465h3.928v-3.873h3.876v-3.929h-3.876v-3.869h-3.928v3.869h-3.869v3.929h3.869V41.465z
		 M70.074,50.363h-2.512v3.273h-9.479c-0.614,3.137-3.374,5.502-6.688,5.502c-3.31,0-6.07-2.372-6.682-5.502H24.544
		c-0.613,3.137-3.37,5.502-6.682,5.502s-6.076-2.372-6.685-5.502H1.899v-3.273H0v-5.232h1.896V35.86h13.85l7.589-13.099h44.228
		v22.372h2.512V50.363L70.074,50.363z M22.057,52.327c0-2.312-1.884-4.197-4.197-4.197c-2.317,0-4.202,1.885-4.202,4.197
		c0,2.313,1.884,4.197,4.202,4.197C20.177,56.524,22.057,54.643,22.057,52.327z M55.599,52.327c0-2.312-1.884-4.197-4.204-4.197
		c-2.311,0-4.197,1.885-4.197,4.197c0,2.313,1.887,4.197,4.197,4.197C53.715,56.524,55.599,54.643,55.599,52.327z M64.946,25.378
		H24.844L17.26,38.475H4.518v12.543h6.66c0.613-3.139,3.373-5.504,6.685-5.504s6.073,2.375,6.682,5.504h20.169
		c0.611-3.139,3.372-5.504,6.682-5.504c3.314,0,6.074,2.375,6.688,5.504h6.863V25.378L64.946,25.378z M35.14,38.201V27.995h-8.784
		l-5.913,10.206H35.14z"/>
</g>
<g>
</g>
<g>
</g>
<g>
</g>
<g>
</g>
<g>
</g>
<g>
</g>
<g>
</g>
<g>
</g>
<g>
</g>
<g>
</g>
<g>
</g>
<g>
</g>
<g>
</g>
<g>
</g>
<g>
</g>
</svg>
