<?xml version="1.0" encoding="iso-8859-1"?>
<!-- Generator: Adobe Illustrator 16.0.0, SVG Export Plug-In . SVG Version: 6.00 Build 0)  -->
<!DOCTYPE svg PUBLIC "-//W3C//DTD SVG 1.1//EN" "http://www.w3.org/Graphics/SVG/1.1/DTD/svg11.dtd">
<svg version="1.1" id="Capa_1" xmlns="http://www.w3.org/2000/svg" xmlns:xlink="http://www.w3.org/1999/xlink" x="0px" y="0px"
	 width="70.074px" height="70.075px" viewBox="0 0 70.074 70.075" style="enable-background:new 0 0 70.074 70.075;"
	 xml:space="preserve">
<g>
	<path d="M69.23,29.914v-2.53h-4.108v-8.857H31.803v8.857h-4.112v2.53H26.85v5.341h3.373v-5.341H29.38V29.07h2.423v18.696h-1.246
		v11.178h1.246v0.068h1.335v3.091h6.75v-3.091h17.149v3.091h6.75v-3.091h1.334v-0.068h1.248V47.766h-1.248V29.07h2.423v0.844h-0.842
		v5.341h3.371v-5.341H69.23z M43.35,20.95h10.228v1.687H43.35V20.95z M38.514,55.421c-1.141,0-2.068-0.924-2.068-2.068
		c0-1.139,0.925-2.064,2.068-2.064c1.141,0,2.066,0.926,2.066,2.064C40.58,54.496,39.654,55.421,38.514,55.421z M53.577,56.024
		H43.35V54.34h10.228V56.024z M53.577,52.37H43.35v-1.686h10.228V52.37z M53.391,47.766c0-1.628,1.323-2.951,2.954-2.951
		c1.626,0,2.954,1.32,2.954,2.951H53.391z M58.411,55.421c-1.139,0-2.066-0.924-2.066-2.068c0-1.139,0.924-2.064,2.066-2.064
		s2.069,0.926,2.069,2.064C60.48,54.496,59.552,55.421,58.411,55.421z M61.748,47.766h-0.762c0-2.559-2.082-4.64-4.638-4.64
		c-2.562,0-4.633,2.081-4.633,4.64H35.182v-23.44h26.576v23.44H61.748z M25.072,46.838c0,0,2.14,3.747,2.14,4.929
		s-0.955,2.14-2.14,2.14c-1.177,0-2.135-0.958-2.135-2.14S25.072,46.838,25.072,46.838z M24.346,46.311l1.46-1.139l-1.434-1.843
		h-4.284h-0.914l-0.011,0.924v12.14h-2.396V39.564h-5.128V11.343H69.98V7.971H1.801v3.372h6.466v28.221H2.476v20.685H0v1.853h19.237
		V60.25h-2.476v-2.005h4.25V45.182h2.45L24.346,46.311z M13.594,48.71H5.641v-5.939h7.953V48.71z"/>
</g>
<g>
</g>
<g>
</g>
<g>
</g>
<g>
</g>
<g>
</g>
<g>
</g>
<g>
</g>
<g>
</g>
<g>
</g>
<g>
</g>
<g>
</g>
<g>
</g>
<g>
</g>
<g>
</g>
<g>
</g>
</svg>
