<?xml version="1.0" encoding="iso-8859-1"?>
<!-- Generator: Adobe Illustrator 18.1.1, SVG Export Plug-In . SVG Version: 6.00 Build 0)  -->
<svg version="1.1" id="Capa_1" xmlns="http://www.w3.org/2000/svg" xmlns:xlink="http://www.w3.org/1999/xlink" x="0px" y="0px"
	 viewBox="0 0 179.006 179.006" style="enable-background:new 0 0 179.006 179.006;" xml:space="preserve">
<g>
	<g>
		<path style="fill:#010002;" d="M179.006,97.033h-4.523V80.32h-9.869l-13.67-23.599H44.925L31.254,80.32H3.407v16.713H0v9.434
			h3.413v5.895h19.601c1.104,5.645,6.08,9.923,12.047,9.923c5.967,0,10.937-4.278,12.047-9.923h86.203
			c1.104,5.645,6.08,9.923,12.047,9.923c5.967,0,10.943-4.278,12.047-9.923h17.083v-5.895h4.517V97.033z M35.061,117.565
			c-4.171,0-7.572-3.389-7.572-7.566s3.395-7.572,7.572-7.572s7.566,3.395,7.566,7.572
			C42.627,114.176,39.238,117.565,35.061,117.565z M145.353,117.565c-4.165,0-7.572-3.389-7.572-7.566s3.401-7.572,7.572-7.572
			c4.177,0,7.572,3.395,7.572,7.572C152.925,114.176,149.536,117.565,145.353,117.565z M169.763,107.642H157.4
			c-1.104-5.645-6.08-9.923-12.047-9.923s-10.943,4.278-12.047,9.923H47.108c-1.104-5.645-6.08-9.923-12.047-9.923
			s-10.943,4.278-12.047,9.923H8.127V85.034h25.848l13.67-23.593h100.572l13.67,23.593h7.876V107.642L169.763,107.642z"/>
		<rect x="70.892" y="66.155" style="fill:#010002;" width="62.169" height="18.384"/>
		<polygon style="fill:#010002;" points="137.787,66.155 137.787,84.539 156.153,84.539 145.502,66.155 		"/>
		<polygon style="fill:#010002;" points="39.721,84.539 66.179,84.539 66.179,66.155 50.366,66.155 		"/>
	</g>
</g>
<g>
</g>
<g>
</g>
<g>
</g>
<g>
</g>
<g>
</g>
<g>
</g>
<g>
</g>
<g>
</g>
<g>
</g>
<g>
</g>
<g>
</g>
<g>
</g>
<g>
</g>
<g>
</g>
<g>
</g>
</svg>
