<?xml version="1.0" encoding="iso-8859-1"?>
<!-- Generator: Adobe Illustrator 16.0.0, SVG Export Plug-In . SVG Version: 6.00 Build 0)  -->
<!DOCTYPE svg PUBLIC "-//W3C//DTD SVG 1.1//EN" "http://www.w3.org/Graphics/SVG/1.1/DTD/svg11.dtd">
<svg version="1.1" id="Capa_1" xmlns="http://www.w3.org/2000/svg" xmlns:xlink="http://www.w3.org/1999/xlink" x="0px" y="0px"
	 width="73.414px" height="73.414px" viewBox="0 0 73.414 73.414" style="enable-background:new 0 0 73.414 73.414;"
	 xml:space="preserve">
<g>
	<g>
		<path d="M66.025,30.352c-1.339-9.932-6.813-17.167-13.561-17.167h-5.237c0.729-0.396,1.247-1.143,1.247-2.033
			c0-1.29-1.044-2.335-2.336-2.335H29.902c-1.291,0-2.335,1.045-2.335,2.335c0,0.89,0.519,1.637,1.248,2.033h-7.86
			c-6.75,0-12.221,7.235-13.567,17.165C2.523,32.81,0,37.916,0,43.83c0,4.549,1.494,8.618,4.389,11.379v9.389h11.679v-5.703h41.278
			v5.703h11.68v-9.389c2.895-2.761,4.389-6.83,4.389-11.379C73.414,37.92,70.891,32.814,66.025,30.352z M20.954,16.693h31.511
			c4.438,0,8.325,5.262,9.771,12.386c-0.723-0.138-1.491-0.21-2.283-0.25c0-0.014,0.005-0.027,0.005-0.044
			c0-4.134-3.36-7.496-7.493-7.496c-4.134,0-7.493,3.361-7.493,7.496h-30.54c-1.15,0-2.235,0.103-3.256,0.292
			C12.622,21.955,16.512,16.693,20.954,16.693z M57.622,28.78H47.307c0-2.845,2.312-5.16,5.158-5.16
			C55.309,23.62,57.622,25.94,57.622,28.78z M12.683,48.729c-2.695,0-4.891-2.192-4.891-4.898c0-2.698,2.191-4.891,4.891-4.891
			c2.703,0,4.896,2.192,4.896,4.891C17.579,46.545,15.386,48.729,12.683,48.729z M50.916,47.856H22.498
			c-0.644,0-1.168-0.526-1.168-1.168c0-0.641,0.524-1.168,1.168-1.168h28.418c0.646,0,1.168,0.527,1.168,1.168
			C52.084,47.33,51.562,47.856,50.916,47.856z M50.916,43.573H22.498c-0.644,0-1.168-0.527-1.168-1.168
			c0-0.642,0.524-1.168,1.168-1.168h28.418c0.646,0,1.168,0.526,1.168,1.168C52.084,43.046,51.562,43.573,50.916,43.573z
			 M60.731,48.729c-2.703,0-4.896-2.192-4.896-4.898c0-2.698,2.189-4.891,4.896-4.891c2.696,0,4.891,2.192,4.891,4.891
			C65.622,46.545,63.428,48.729,60.731,48.729z"/>
	</g>
</g>
<g>
</g>
<g>
</g>
<g>
</g>
<g>
</g>
<g>
</g>
<g>
</g>
<g>
</g>
<g>
</g>
<g>
</g>
<g>
</g>
<g>
</g>
<g>
</g>
<g>
</g>
<g>
</g>
<g>
</g>
</svg>
